<?xml version="1.0" encoding="utf-8"?>
<!-- Generator: Adobe Illustrator 25.1.0, SVG Export Plug-In . SVG Version: 6.00 Build 0)  -->
<svg version="1.1" id="Layer_1" xmlns="http://www.w3.org/2000/svg" xmlns:xlink="http://www.w3.org/1999/xlink" x="0px" y="0px"
	 viewBox="0 0 800 800" style="enable-background:new 0 0 800 800;" xml:space="preserve">
<style type="text/css">
	.st0{fill:#FCFCFC;}
	.st1{fill:#0C0A0A;}
	.st2{fill:#FFFFFF;}
	.st3{fill:#F98F8F;}
</style>
<g>
	<g>
		<path d="M480.9,228.4c24.6-5.6,51.9,4.9,66.3,25.7c2.9,4.2,9.9,0.2,6.9-4.1c-16.4-23.8-47.1-35.9-75.3-29.4
			C473.8,221.8,475.9,229.6,480.9,228.4L480.9,228.4z"/>
	</g>
	<g>
		<path d="M321.2,210.3c-28.3-6.5-58.9,5.6-75.3,29.4c-2.9,4.3,4,8.3,6.9,4.1c14.3-20.8,41.7-31.3,66.3-25.7
			C324.1,219.2,326.2,211.4,321.2,210.3L321.2,210.3z"/>
	</g>
	<g>
		<path class="st0" d="M443.2,311.5c-0.1-12.9,2.2-25.9,7.9-37.5c5.7-11.6,14.9-21.6,26.6-27c11.7-5.4,25.8-5.9,37.3-0.2
			c11.5,5.7,19.9,17.9,19.9,30.8c0,12.3-7.5,23.9-17.6,31c-10.1,7.1-22.6,10.2-34.9,11.1C468.9,320.9,454.8,318.7,443.2,311.5"/>
		<g>
			<path d="M444.8,311.5c0-17.9,4.5-36.2,16.5-49.9c11.3-12.9,28.7-20.3,45.8-16c15.3,3.9,27.5,18.3,26.2,34.5
				c-1.4,17.4-16.4,29.7-32,34.6c-18.4,5.8-40.4,5.6-57.2-4.6c-1.8-1.1-3.4,1.7-1.6,2.8c16.3,9.9,36.7,10.6,54.9,6.2
				c17.2-4.1,33.8-15.4,38.3-33.4c4-16.3-5.2-33.3-20.1-40.5c-16.7-8-36.7-3.6-50.5,8.2c-16.8,14.3-23.4,36.6-23.4,58.1
				C441.6,313.6,444.8,313.6,444.8,311.5L444.8,311.5z"/>
		</g>
	</g>
	<g>
		<path class="st0" d="M355.5,308.2c0.8-12.9-0.8-26-5.9-37.8c-5.1-11.8-13.7-22.3-25.1-28.4c-11.4-6-25.4-7.3-37.3-2.2
			s-20.8,16.8-21.5,29.7c-0.7,12.3,6.2,24.3,15.9,31.9s22,11.4,34.2,13C329.3,316.1,343.5,314.7,355.5,308.2"/>
		<g>
			<path d="M357.1,308.2c1-19.2-3.1-38.9-15.5-54c-11.4-13.9-29.6-22-47.6-18.2c-16.2,3.4-29.8,17.8-30,34.8
				c-0.2,18.1,13.7,32.7,29.5,39.5c19.4,8.2,43.9,9.6,62.8-0.6c1.8-1,0.2-3.8-1.6-2.8c-15.8,8.5-34.9,8.1-51.8,3.3
				c-16-4.6-31.4-15.6-35-32.8c-3.3-15.9,7.3-31.8,22.3-37c16.6-5.7,34.7,0.6,46.4,12.9c13.9,14.7,18.4,35.2,17.3,54.9
				C353.7,310.2,356.9,310.2,357.1,308.2L357.1,308.2z"/>
		</g>
	</g>
	<g>
		<path class="st1" d="M335.1,357.9c0.4-5.6,5.1-10.1,10.3-12.1c5.2-2,11-1.9,16.6-1.8c24.5,0.4,49,0.8,73.4,1.2
			c6.9,0.1,14.4,0.5,19.6,5c3.7,3.2,5.5,8.2,5.7,13.1c0.2,4.9-1.2,9.7-3.2,14.2c-8.8,19.9-29.6,33.3-51.2,34.9s-43.5-7.9-58.4-23.6
			c-8.2-8.6-14-19.8-12.6-31.6"/>
		<g>
			<path d="M336.7,357.9c1.3-11.7,15.9-12.5,24.8-12.4c11.9,0.2,23.7,0.4,35.6,0.6c11.9,0.2,23.8,0.4,35.7,0.6
				c9.8,0.2,21.8,0.2,25.4,11.3c3.1,9.6-2,20.3-7.5,28c-5.3,7.4-12.5,13.4-20.5,17.7c-16.8,8.9-36.5,9.1-54,2.2
				c-19.2-7.6-41.6-26-39.4-48.9c0.2-2.1-3-2-3.2,0c-2.2,21.9,17.1,40,35.1,49c18.6,9.3,40.5,10.8,59.6,2.1c8.9-4,17-10.1,23.1-17.8
				c6.3-7.9,11.9-18.5,10.9-28.9c-0.5-4.7-2.4-9.4-6-12.6c-3.7-3.2-8.4-4.6-13.2-5.1c-6-0.7-12.2-0.5-18.2-0.6
				c-6.7-0.1-13.5-0.2-20.2-0.3c-15.1-0.2-30.3-0.7-45.4-0.7c-10.6,0-24.3,2.9-25.7,15.6C333.3,360,336.5,359.9,336.7,357.9
				L336.7,357.9z"/>
		</g>
	</g>
	<g>
		<path d="M349.6,346.6c3,7.9,10.1,12.7,18,15c9.4,2.7,19.8,3.2,29.6,2.9c15.5-0.5,36.2-2.6,45.3-17.1c1.1-1.8-1.7-3.4-2.8-1.6
			c-8.2,13.2-27.5,15-41.5,15.5c-8.8,0.3-17.9-0.1-26.5-2c-7.8-1.7-15.9-5.6-18.9-13.6C352,343.9,348.9,344.7,349.6,346.6
			L349.6,346.6z"/>
	</g>
	<g>
		<path d="M366.9,402.4c7.6-8.6,19.1-14.2,30.7-13.7c11.8,0.5,23,7,29.5,16.8c1.1,1.7,3.9,0.1,2.8-1.6
			c-7.1-10.5-18.8-17.5-31.5-18.3c-12.7-0.8-25.5,5.2-33.8,14.6C363.2,401.7,365.5,404,366.9,402.4L366.9,402.4z"/>
	</g>
	<g>
		<path d="M384.1,322c2.9-5.9,9.1-9.9,15.8-9.6c6.3,0.2,12.3,4.5,14.7,10.4c1,2.5,5.2,1.4,4.1-1.1c-3.1-7.6-10.1-13-18.3-13.5
			c-8.2-0.5-16.4,4.4-20,11.7C379.2,322.3,382.9,324.4,384.1,322L384.1,322z"/>
	</g>
	<g>
		<circle cx="483.5" cy="286.2" r="26.1"/>
		<circle class="st2" cx="465.9" cy="272.9" r="7.3"/>
	</g>
	<g>
		<circle cx="318.1" cy="283.6" r="26.1"/>
		<circle class="st2" cx="300.6" cy="270.3" r="7.3"/>
	</g>
	<g>
		<path class="st2" d="M353,346c3.1-0.4,6.1-0.4,8.7-0.4c11.9,0.2,23.7,0.4,35.6,0.6c11.9,0.2,23.8,0.4,35.7,0.6
			c2,0,4.2,0.1,6.3,0.2c-8.6,12.2-27.2,13.9-40.8,14.4c-8.8,0.3-17.9-0.1-26.6-2C364.1,357.7,356.1,353.8,353,346z"/>
		<path class="st3" d="M427.2,405.3c-16,7.3-34.4,7.1-50.8,0.6c-2.9-1.1-5.8-2.5-8.7-4.1c7.6-8.3,18.8-13.6,30.2-13.1
			C409.5,389.2,420.6,395.7,427.2,405.3z"/>
	</g>
</g>
</svg>
