<?xml version="1.0" encoding="utf-8"?>
<!-- Generator: Adobe Illustrator 25.1.0, SVG Export Plug-In . SVG Version: 6.00 Build 0)  -->
<svg version="1.1" id="Layer_1" xmlns="http://www.w3.org/2000/svg" xmlns:xlink="http://www.w3.org/1999/xlink" x="0px" y="0px"
	 viewBox="0 0 800 800" style="enable-background:new 0 0 800 800;" xml:space="preserve">
<style type="text/css">
	.st0{fill:#F9F7F7;}
	.st1{fill:#FFFFFF;}
</style>
<g>
	<g>
		<path d="M367.4,411.8c8.6-11.3,22.7-18,36.8-18.4c14.8-0.4,29.2,5.6,40.2,15.5c2.6,2.3,6.4-1.5,3.8-3.8
			c-12.2-11-28.3-17.8-44.9-17c-15.9,0.8-30.8,8.3-40.5,21C360.7,411.8,365.4,414.5,367.4,411.8L367.4,411.8z"/>
	</g>
	<g>
		<path d="M387.1,339.5c3.2-6.7,9.9-11.5,17.4-11.8c7.5-0.3,14.6,3.9,18.3,10.4c1.1,2,4.2,0.2,3.1-1.8c-4.3-7.5-12.7-12.5-21.4-12.2
			c-8.7,0.3-16.8,5.8-20.5,13.6C383,339.7,386.1,341.6,387.1,339.5L387.1,339.5z"/>
	</g>
	<g>
		<g>
			<path class="st0" d="M465.3,269.5c-5,13.3-9.4,31.4-9.8,45.6c0,1.3,0,2.8,0.9,3.8c0.8,0.9,2.1,1.1,3.3,1.2
				c13.4,1.6,27.1,1.6,40.5,0c11.4-1.4,22.9-4,32.9-9.7s18.5-14.6,21.9-25.6c2.5-8.2,3.3-16,0.6-24.1c-2.3-7.1-6.6-14.6-12.3-19.5
				c-5.7-4.8-15.7-6.5-23.1-5.9c-7.7,0.6-13.3,3.2-19.7,7.5c-14.3,9.7-25,14.6-35.7,28.2"/>
			<g>
				<path d="M463.6,269c-3.7,10-6.5,20.4-8.3,30.9c-0.8,5-1.6,10.1-1.6,15.2c-0.1,4.9,2.7,6.4,7.1,6.9c12.3,1.4,24.8,1.4,37.1,0.1
					c11-1.2,21.9-3.4,31.9-8.1c18.4-8.6,32-27.5,28.8-48.4c-1.5-9.7-7-20.4-14.9-26.4c-7.1-5.4-17.4-6.7-26-5.5
					c-11.2,1.5-20.2,8.9-29.4,14.8c-9.3,6-17.9,12.4-24.8,21.2c-1.4,1.8,1.1,4.4,2.5,2.5c5.4-6.8,11.7-12.4,18.9-17.2
					c3.5-2.3,7.1-4.6,10.6-6.8c3.8-2.5,7.5-5.2,11.5-7.3c7.9-4.1,17.1-4.9,25.7-2.7c9.5,2.4,15.5,9.8,19.4,18.5
					c8.3,18.8-0.6,39.8-17.2,50.6c-17.1,11-39.8,12.8-59.6,12.3c-3.1-0.1-6.2-0.2-9.3-0.5c-1.5-0.1-3.1-0.3-4.6-0.4
					c-2.1-0.2-4.1-0.5-4.1-3c-0.1-5,0.7-10.2,1.6-15.1c1.8-10.4,4.5-20.6,8.2-30.4C467.9,267.8,464.4,266.9,463.6,269L463.6,269z"/>
			</g>
		</g>
		<g>
			<path d="M452.5,288.2c24.3-35.2,64.1-57.6,106.8-60.2c4.6-0.3,4.6-7.5,0-7.2c-35.4,2.2-69.3,17-94.7,41.8
				c-6.8,6.7-12.9,14.1-18.4,21.9C443.6,288.4,449.9,292,452.5,288.2L452.5,288.2z"/>
		</g>
		<circle cx="496.4" cy="285.2" r="27.7"/>
		<circle class="st1" cx="478.7" cy="275.1" r="10.1"/>
	</g>
	<g>
		<g>
			<path class="st0" d="M346.5,268.2c5.8,13,11.3,30.8,12.6,44.9c0.1,1.3,0.2,2.8-0.6,3.8c-0.8,0.9-2,1.2-3.2,1.4
				c-13.3,2.4-26.9,3.3-40.5,2.5c-11.5-0.7-23.1-2.6-33.5-7.6c-10.4-5-19.4-13.4-23.4-24.2c-3-8-4.3-15.8-2.1-24
				c1.9-7.2,5.7-15,11.1-20.2c5.4-5.2,15.2-7.4,22.7-7.3c7.7,0.1,13.5,2.3,20.1,6.3c14.9,8.8,25.9,13,37.4,25.9"/>
			<g>
				<path d="M345,269.1c3.9,8.7,7,17.8,9.3,27.1c1.1,4.4,2.1,8.9,2.7,13.5c0.3,2.4,1.3,5.3-1.3,6.8c-0.9,0.5-2.7,0.5-3.8,0.7
					c-1.6,0.3-3.3,0.5-4.9,0.7c-10.7,1.4-21.5,1.8-32.2,1.2c-10.4-0.6-21-2.3-30.6-6.5c-17.1-7.5-30.8-25.3-27.2-44.9
					c1.6-8.7,6.3-19.1,14.1-23.9c7.2-4.4,17.2-5.7,25.4-3.8c5.2,1.1,9.6,3.7,14.1,6.3c4.2,2.4,8.4,4.7,12.6,7.1
					c8.4,4.8,16.1,10.3,22.6,17.5c1.5,1.7,4.1-0.8,2.5-2.5c-6.4-7.1-13.9-12.7-22.2-17.4c-4.4-2.5-8.9-4.9-13.3-7.5
					c-4.4-2.5-8.7-5.1-13.6-6.5c-8.8-2.5-19-1.5-27.3,2.3c-8.9,4.1-14.2,13.5-17.1,22.4c-6.5,20.1,4.7,41.3,22.4,51.3
					c9.5,5.4,20.3,7.9,31.1,9.1c12.3,1.3,24.9,1.1,37.2-0.4c3.2-0.4,6.5-0.9,9.7-1.5c2.2-0.4,4.4-1,5.4-3.2c0.9-2.2,0.3-4.8,0-7
					c-0.4-2.7-0.8-5.5-1.4-8.2c-2.4-11.8-6.3-23.4-11.1-34.4C347.1,265.2,344,267,345,269.1L345,269.1z"/>
			</g>
		</g>
		<g>
			<path d="M366.1,281.5c-21.2-27-51.8-46-85.4-53c-10.1-2.1-20.4-3.1-30.7-3.1c-4.6,0-4.6,7.2,0,7.2c43.3,0,84.3,20,111,54
				C363.8,290.2,368.9,285.1,366.1,281.5L366.1,281.5z"/>
		</g>
		<circle cx="316.5" cy="285.7" r="27.7"/>
		<circle class="st1" cx="333.5" cy="274.6" r="10.1"/>
	</g>
</g>
</svg>
