<?xml version="1.0" encoding="utf-8"?>
<!-- Generator: Adobe Illustrator 25.1.0, SVG Export Plug-In . SVG Version: 6.00 Build 0)  -->
<svg version="1.1" id="Layer_1" xmlns="http://www.w3.org/2000/svg" xmlns:xlink="http://www.w3.org/1999/xlink" x="0px" y="0px"
	 viewBox="0 0 800 800" style="enable-background:new 0 0 800 800;" xml:space="preserve">
<style type="text/css">
	.st0{fill:#FCFCFC;}
	.st1{fill:#F98F8F;}
	.st2{fill:#8DB0F7;}
</style>
<g>
	<path d="M445.4,427c-3.6,1.7-7.3,2.3-11.1,2.2c-8.7-0.1-17.4-3.8-25.6-5.9c-19.9-5.3-39.7,2.4-59.6,3.7c-1.7,0.1-3.4,0.2-5.1,0.2
		l-17.3-3.5c-2.7-2.2-4.2-5.4-5.8-8.5c-1.6-3.2-2.4-6.7-2.7-10.2l4-19.7c3.4-7.1,8.5-13.5,14.8-18.1c1.4-1,2.8-1.9,4.2-2.8
		c9.6-5.7,20.9-8.2,31.9-9.5c7.1-0.9,14.2-1.2,21.4-1.5c7.3-0.2,14.6-0.4,21.8-0.1c0.5,0,1.1,0,1.6,0.1L441,358
		c3.9,1.7,7.6,3.9,10.9,6.8c4.2,3.8,7.5,8.5,9,14c1.7,6,1.4,12.3,0.3,18.4C459.4,408.2,456.5,421.9,445.4,427z"/>
	<path class="st0" d="M437.4,356.6l-1.3,5c-4.4,3.2-9.3,6.3-14.3,8.6c-23.9,10.6-50.8,6.7-72.6-7.4c-0.1-0.1,2-1,1.9-1.2
		c-2.6,1.2,1.4-1.5-0.9,0.1l-8.7,2.6c9.6-5.7,20.9-8.2,31.9-9.5c7.1-0.9,14.2-1.2,21.4-1.5c7.3-0.2,14.6-0.4,21.8-0.1
		c0.5,0,1.1,0,1.6,0.1c0.9,0,1.9,0.1,2.8,0.2c0.9,0,1.8,0.1,2.7,0.2c1.2,0.1,2.4,0.3,3.5,0.4c1.8,0.3,3.5,0.6,5.2,1
		C434,355.6,435.7,356.1,437.4,356.6z"/>
	<path class="st1" d="M434.7,427.6l-0.3,1.6c-8.7-0.1-17.4-3.8-25.6-5.9c-19.9-5.3-39.7,2.4-59.6,3.7l-10-2l4.6,0.2
		c1.4,0.1,1.6,0.4,3,0.4c0.6,0-0.4-0.4,0.3-0.4c2-7,5.9-12.7,11.9-16.9c11.8-8.3,26.2-8.8,39.9-6c13.1,2.7,25.3,10.5,28.3,24.3
		C429,427.1,432.7,427.6,434.7,427.6z"/>
	<g>
		<g>
			<path class="st2" d="M266.9,308.1c-13.7-5.6-32.8-3.8-43.7,6.1c-3.2,2.8-6,7.2-4.4,11.1c1,2.4,3.6,4,6.2,4.3
				c2.6,0.3,5.3-0.4,7.7-1.5c6.2-2.8,11.1-7.8,16.5-12c5.3-4.2,11.7-8,18.5-7.5"/>
			<g>
				<path d="M267.1,307.4c-13.1-5.2-30-4.3-41.7,4.1c-4.7,3.4-11.3,10.8-5.8,16.4c6.1,6,15.6,0.2,20.9-3.9
					c8.1-6.2,15.9-15.2,27-14.7c0.9,0,0.9-1.4,0-1.4c-7.1-0.3-13.3,3.2-18.7,7.5c-6.1,4.8-12,11.4-19.8,13.3
					c-4.5,1.1-10.9-0.9-10-6.7c0.6-4,4.1-7.1,7.3-9.3c5.5-3.8,12.1-5.9,18.7-6.6c7.3-0.8,14.8,0.1,21.6,2.9
					C267.5,309.2,267.9,307.8,267.1,307.4L267.1,307.4z"/>
			</g>
		</g>
		<g>
			<g>
				<path d="M466.4,223.9c17.9-7.7,38.9-0.5,48.7,16.1c2.4,4,8.6,0.4,6.2-3.6c-5.4-9.2-13.8-16.2-23.7-20
					c-11.3-4.3-23.8-3.5-34.8,1.3C458.5,219.5,462.2,225.7,466.4,223.9L466.4,223.9z"/>
			</g>
			<g>
				<path d="M278.5,226.9c12.7-15.3,34.5-18.8,51.3-8.1c3.9,2.5,7.5-3.7,3.6-6.2c-19.3-12.3-45.4-8.5-60.1,9.2
					C270.5,225.4,275.6,230.5,278.5,226.9L278.5,226.9z"/>
			</g>
			<g>
				<path d="M384.3,336.8c2.4-5.8,8.7-9.7,15-9.3c6.2,0.4,11.7,5,13.5,10.8c0.5,1.8,3.3,1,2.8-0.8c-2.2-7.1-8.8-12.5-16.3-13
					c-7.7-0.5-14.9,4.5-17.8,11.4C380.8,337.7,383.5,338.4,384.3,336.8L384.3,336.8z"/>
			</g>
			<g>
				<path d="M441.1,305.4c6.2-10.9,18.5-17.7,31.1-16.7c12.2,1,23.3,9.6,27.6,21c1.3,3.4,6.9,1.9,5.6-1.5
					c-5.2-13.6-17.7-23.6-32.3-25.1c-14.8-1.6-29.7,6.7-37,19.5C434.3,305.7,439.3,308.6,441.1,305.4L441.1,305.4z"/>
			</g>
			<g>
				<path class="st2" d="M501.9,320c-4.6,9.6-8.1,20.2-9.2,30.8c-0.2,2.4-0.3,5.1,1.4,6.9c2.2,2.4,6.3,1.6,8.8-0.4
					c4.3-3.6,5.4-9.9,5.2-15.5c-0.2-7.8-2.3-15.6-5.8-22.6"/>
				<g>
					<path d="M501.3,319.6c-3,6.4-5.6,13.1-7.3,20c-0.9,3.4-1.5,6.9-1.9,10.4c-0.3,2.5-0.5,5.4,1,7.6c3,4.3,9.2,1.8,11.9-1.5
						c3.4-4.1,4-9.9,3.8-15.1c-0.3-7.8-2.4-15.3-5.9-22.3c-0.4-0.8-1.7-0.1-1.2,0.7c3.4,6.7,5.4,14,5.7,21.5
						c0.3,5.9-0.6,14.3-7,16.9c-1.5,0.6-3.3,0.8-4.8,0.1c-1.8-1-2.3-3-2.3-4.9c-0.1-3.6,0.7-7.4,1.5-10.9c1.7-7.5,4.4-14.8,7.7-21.8
						C502.9,319.5,501.7,318.8,501.3,319.6L501.3,319.6z"/>
				</g>
			</g>
			<g>
				<path class="st2" d="M532.1,333.4c15-4.8,34.7-0.3,44.5,12c3.2,4.1,5.6,9.9,2.8,14.3c-2.9,4.6-10.1,4.6-14.7,1.6
					c-4.6-2.9-7.6-7.8-11.1-12.1c-5.8-7-13.3-12.6-21.8-16"/>
				<g>
					<path d="M532.3,334.1c14-4.3,31.3-1.2,41.7,9.4c2.9,2.9,5.6,6.8,5.9,11c0.4,4.7-3,7.9-7.5,8.2c-8.9,0.5-13.6-8.3-18.5-14.2
						c-5.9-7-13.4-12.4-21.9-15.9c-0.9-0.4-1.2,1-0.4,1.4c9.9,4.1,17.7,10.8,24.1,19.2c4.6,6,10.8,12.8,19.2,10.5
						c8.6-2.4,7-12.1,2.9-17.8c-4.5-6.3-11.5-10.5-18.8-12.9c-8.7-2.8-18.4-3-27.2-0.3C531,333,531.4,334.4,532.3,334.1L532.3,334.1
						z"/>
				</g>
			</g>
			<g>
				<path d="M278.4,301.6c7.5-10.7,20.3-17.4,33.4-17.3c13.1,0.2,25.7,7.2,33,18.1c2.1,3.1,7,0.2,5-2.9c-8.4-12.6-22.7-20.8-37.9-21
					c-15.3-0.2-29.7,7.7-38.4,20.1C271.2,301.7,276.2,304.6,278.4,301.6L278.4,301.6z"/>
			</g>
		</g>
	</g>
	<g>
		<path d="M461.2,397.2c1-6.1,1.4-12.4-0.3-18.4c-1.5-5.5-4.8-10.2-9-14c-3.3-3-7-5.1-10.9-6.8c-1.2-0.5-2.4-1-3.6-1.4
			c-1.7-0.6-3.4-1-5.1-1.4c-1.7-0.4-3.5-0.8-5.2-1c-1.2-0.2-2.3-0.3-3.5-0.4c-0.9-0.1-1.8-0.2-2.7-0.2c-0.9-0.1-1.9-0.1-2.8-0.2
			c-0.5,0-1-0.1-1.6-0.1c-7.2-0.3-14.5-0.1-21.8,0.1c-7.1,0.2-14.3,0.6-21.4,1.5c-11,1.4-22.3,3.8-31.9,9.5
			c-1.5,0.9-2.9,1.8-4.2,2.8c-6.3,4.7-11.5,11-14.8,18.1c-1.8,3.8-3.1,8-3.7,12.2c-0.4,2.5-0.5,5-0.3,7.5c0.2,3.5,1.1,7,2.7,10.2
			c1.5,3.1,3.1,6.4,5.8,8.5c0.5,0.4,1,0.8,1.7,1.1c2.1,1.2,4.6,1.6,6.9,1.9c0.1,0,0.2,0,0.3,0c0,0,0.1,0,0.1,0
			c2.8,0.4,5.6,0.5,8.3,0.5c1.7,0,3.4-0.1,5.1-0.2c19.9-1.3,39.7-9,59.6-3.7c8.2,2.2,17,5.8,25.6,5.9c3.7,0.1,7.4-0.6,11.1-2.2
			C456.5,421.9,459.4,408.2,461.2,397.2z M455.6,409.1c-1.6,5.3-4.2,10.7-8.9,13.9c-3.6,2.4-7.7,3.4-11.8,3.4c-2,0-4-0.2-6.1-0.5
			c-1-0.2-2.1-0.4-3.1-0.6c-4.6-1-9.1-2.6-13.1-3.8c-5.9-1.7-11.8-2.8-17.9-2.9c-5.7-0.1-11.3,0.5-16.9,1.4
			c-9.8,1.5-19.5,3.7-29.4,4.3c-1,0.1-2,0.1-3,0.2c-0.6,0-1.2,0-1.8,0c-1.4,0-2.8,0-4.3-0.1c-1.1-0.1-2.2-0.2-3.3-0.3
			c-0.2,0-0.4-0.1-0.6-0.1c-0.1,0-0.3,0-0.5-0.1c-3.9-0.6-6.9-2-9.1-5.6c-2.7-4.6-4.6-9.5-4.7-14.9c-0.2-11.7,5.8-23.2,14.3-30.9
			c1.7-1.5,3.4-2.8,5.2-4.1c2.4-1.6,4.9-2.9,7.5-4.1c1-0.5,2.1-0.9,3.2-1.3c5.6-2.1,11.4-3.5,17.2-4.4c13.1-2.1,26.5-2.3,39.8-2.3
			c9.3-0.1,19,0.2,27.9,3.1c0.2,0.1,0.5,0.2,0.7,0.3c0.8,0.3,1.7,0.6,2.5,0.9c2,0.8,3.9,1.8,5.8,2.9c4.6,2.8,8.5,6.6,11.1,11.4
			c2.9,5.3,3.4,11.5,2.9,17.4C458.5,397.8,457.3,403.6,455.6,409.1z"/>
	</g>
	<g>
		<path d="M426.2,427c-0.1-0.6-0.3-1.2-0.4-1.7c-1.6-5.8-5.3-10.8-10.1-14.5c-10.7-8.2-26.4-9.7-39.3-7.6c-12,1.9-24.1,9-27.9,21.1
			c-0.1,0.4-0.2,0.8-0.3,1.2c-0.2,0.9-1.1,1.2-1.8,1.1c-0.7-0.1-1.3-0.7-1.1-1.6c0-0.1,0.1-0.3,0.1-0.4c2-7,6.6-13,12.6-17.2
			c11.8-8.3,28.1-9.2,41.9-6.3c13.1,2.7,26.1,11.2,29,25c0,0.1,0,0.1,0.1,0.2C429.3,427.8,426.5,428.8,426.2,427z"/>
	</g>
	<g>
		<path d="M439.4,360.3c-0.1,0-0.1,0.1-0.2,0.1c-1,0.9-2.1,1.7-3.2,2.4c-4.4,3.2-9.1,5.9-14.1,8.2c-23.9,10.6-51.8,7.5-73.6-6.5
			c-0.1-0.1-0.2-0.2-0.3-0.3c-1-1.1,0.2-3.2,1.6-2.3c0.5,0.3,1,0.6,1.5,1c5.7,3.5,11.8,6.3,18.2,8.3c12,3.7,24.7,4.5,37.1,1.8
			c10.8-2.3,20.9-7,29.5-13.8c0.3-0.2,0.6-0.4,0.9-0.6c0.3-0.2,0.6-0.5,0.9-0.7C439.3,356.7,440.9,359.1,439.4,360.3z"/>
	</g>
</g>
</svg>
