<?xml version="1.0" encoding="utf-8"?>
<!-- Generator: Adobe Illustrator 25.1.0, SVG Export Plug-In . SVG Version: 6.00 Build 0)  -->
<svg version="1.1" id="Layer_1" xmlns="http://www.w3.org/2000/svg" xmlns:xlink="http://www.w3.org/1999/xlink" x="0px" y="0px"
	 viewBox="0 0 800 800" style="enable-background:new 0 0 800 800;" xml:space="preserve">
<style type="text/css">
	.st0{fill:#FCFCFC;}
	.st1{fill:#FFFFFF;}
	.st2{fill:#F98F8F;}
</style>
<g>
	<g>
		<g>
			<path class="st0" d="M449.1,316.2c-3-13.6-1.9-28.1,3.1-41.2c5-13,13.9-24.6,25.2-32.7c11.8-8.5,28.4-10.6,42.1-5.5
				c8.3,3.1,14.2,6.8,19.2,14.1c5.6,8.1,9.4,17.6,9.8,27.4c0.4,9.8-2.9,19.9-9.8,26.9c-8.1,8.2-19.9,11.2-31.3,12.7
				C487.9,320.5,468.2,320.6,449.1,316.2"/>
			<g>
				<path d="M450.6,315.8c-4.2-19.6,0.2-40.3,11.9-56.6c5.3-7.3,12.1-14.1,20.1-18.4c8-4.3,17.3-6,26.3-5c8.3,0.9,17.2,4.3,23.5,9.9
					c6.9,6.3,11.6,15.7,13.7,24.7c2.1,9.2,1.2,19.2-3.6,27.5c-4.7,8.2-12.7,13.1-21.6,15.7c-10.9,3.3-22.8,4.2-34.1,4.5
					c-12.5,0.4-25-0.6-37.1-3.4c-1.8-0.4-2.6,2.4-0.8,2.8c11.5,2.6,23.3,3.7,35.1,3.6c11-0.1,22.4-1,33.2-3.5
					c9.3-2.1,18.5-6.1,24.7-13.7c6.1-7.5,8.9-17.4,8.2-27.1c-0.7-10.3-5-20.5-11.3-28.7c-5.5-7.1-13.5-11.5-22-14
					c-9.2-2.6-19.2-2.3-28.3,0.8c-9.2,3.1-16.9,9.2-23.3,16.4c-15.8,17.6-22.2,42-17.3,65.1C448.1,318.4,451,317.6,450.6,315.8
					L450.6,315.8z"/>
			</g>
		</g>
		<g>
			<path d="M382.8,324c1.9-7.1,9-12.4,16.4-11.9c7.2,0.5,13.5,6.8,14.3,13.9c0.2,1.9,3.2,1.9,3,0c-1-8.6-8.1-15.9-16.8-16.8
				c-8.8-0.9-17.5,5.5-19.7,14C379.5,325.1,382.4,325.9,382.8,324L382.8,324z"/>
		</g>
		<g>
			<path d="M479.7,225.9c10.5-7.1,23.7-10.2,36.2-7.8c11.7,2.2,22.5,8.8,29.7,18.4c1,1.3,2.5,1.9,4,1.1c1.3-0.7,2-2.8,1.1-4
				c-13.2-17.5-35.6-25.7-56.9-20.4c-6.1,1.5-11.9,4.1-17.1,7.7C473.6,223,476.5,228.1,479.7,225.9L479.7,225.9z"/>
		</g>
		<circle cx="484.5" cy="285.3" r="27.4"/>
		<circle class="st0" cx="503.2" cy="272.2" r="10.1"/>
		<g>
			<path class="st1" d="M356.3,317.4c4.1-13.3,2.5-26.9-1.4-40.3c-3.9-13.4-10-26.7-20.6-35.7c-11.1-9.5-27.4-12.9-41.5-8.9
				c-8.5,2.4-14.7,5.6-20.3,12.4c-6.2,7.6-10.8,16.7-12,26.5s3.1,22.2,9.5,29.7c7.4,8.8,17,10.8,28.2,13.2
				C317.3,318.5,336.9,320.3,356.3,317.4"/>
			<g>
				<path d="M357.7,317.8c3.3-11.2,2.9-22.8,0.4-34.1c-2.3-10.1-5.7-20.2-11.1-29.1c-4.9-8.3-11.7-15.6-20.3-19.9
					c-8.5-4.3-18.3-6.1-27.8-4.9c-8.7,1.1-17.6,4.4-24,10.4c-7.2,6.7-12.6,16.2-14.9,25.7c-2.3,9.3-0.8,18.7,3.3,27.4
					c4,8.4,10.3,14.8,19,18.3c4.3,1.7,8.8,2.7,13.3,3.7c5.7,1.2,11.3,2.4,17.1,3.2c11.8,1.7,23.7,2.3,35.6,1.4
					c2.9-0.2,5.7-0.6,8.6-1c1.9-0.3,1.1-3.1-0.8-2.8c-21.6,3.1-43.6,0.5-64.6-4.8c-8.4-2.1-16.1-5.4-21.4-12.5
					c-5.2-7-8.5-16.4-8.1-25.2c0.4-9.4,4.9-18.5,10.5-25.9c2.6-3.5,5.7-6.6,9.4-8.9c3.6-2.2,7.5-3.7,11.5-4.8c8.7-2.4,18.1-2,26.6,1
					c8.8,3,16.1,8.9,21.6,16.5c6.2,8.6,10.1,18.7,12.8,29c3.2,12.1,4.3,24.6,0.6,36.7C354.3,318.9,357.2,319.7,357.7,317.8
					L357.7,317.8z"/>
			</g>
		</g>
		<g>
			<path d="M326.1,215.3c-9.8-5.7-21.3-8.3-32.6-7.2c-10.6,1-20.5,5.2-28.8,11.8c-4.6,3.6-8.5,8.1-11.6,13c-2.1,3.2,3,6.2,5.1,3
				c6.4-9.9,16.4-17.2,27.7-20.4c12.4-3.5,26-1.6,37.2,4.9C326.4,222.3,329.4,217.2,326.1,215.3L326.1,215.3z"/>
		</g>
		<circle cx="299.8" cy="280.4" r="27.4"/>
		<circle class="st0" cx="322.4" cy="269.4" r="10.1"/>
	</g>
	<g>
		<path class="st2" d="M436.6,416.9c-5.3,1.1-10.9,0.5-16.3-0.1c-5.6-0.6-11.1-1.1-16.7-1.2c-12.4-0.3-24.8,0.7-36.9,3.1
			c-5.6,1.1-11.6,3.2-17.3,1.9c-0.4-0.1-0.8-0.2-1.1-0.4c6.7-12.5,18.6-21.9,32.4-25.6c13.7-3.7,28.3-1.1,40.1,6.5
			C427.1,405.1,432.6,410.5,436.6,416.9z"/>
		<g>
			<path d="M347.5,415.4c-8-17.8,1.8-37.2,16-48.5c13.9-11,32.8-15.5,49.8-9.7c8.3,2.8,15.7,8,21.1,15.1c5.3,7,8.9,15.5,10.7,24.1
				c0.9,4.5,1.2,9.4-1.3,13.5c-2.2,3.5-6.1,5.6-10,6.7c-4.7,1.2-9.7,0.8-14.5,0.3c-5.2-0.5-10.4-1.1-15.6-1.3
				c-11.2-0.4-22.5,0.5-33.6,2.5c-5.5,1-11.6,3.3-17.3,1.9c-4.2-1-5.5-4.9-6.8-8.6c-0.6-1.8-3.4-1-2.8,0.8c1.1,3.4,2.4,7.2,5.5,9.3
				c3.9,2.6,9.2,2,13.5,1.2c5.8-1.1,11.5-2.4,17.4-3.1c5.6-0.7,11.3-1.1,17-1.1c5.7-0.1,11.4,0.2,17,0.7c5.7,0.6,11.5,1.5,17.2,0.9
				c8.7-1,16.8-6.2,17.8-15.5c0.5-4.8-0.6-9.7-2.1-14.2c-1.4-4.6-3.3-9.1-5.6-13.3c-4.7-8.3-11.4-15.3-19.9-19.6
				c-17.3-8.9-38.1-6.7-54.3,3.7c-8.9,5.7-16.7,13.8-21.2,23.6c-4.6,10.2-5.3,21.9-0.6,32.3C345.7,418.6,348.3,417.1,347.5,415.4
				L347.5,415.4z"/>
		</g>
		<g>
			<path d="M351.5,420.4c5.9-11.5,16.6-20.1,28.9-23.8c12.7-3.7,26.3-1.5,37.5,5.5c6.3,3.9,11.6,9.3,15.4,15.6
				c1,1.6,3.5,0.1,2.5-1.5c-7.2-12-19.6-20.6-33.3-23.4c-13.5-2.7-27.5,0.6-38.6,8.7c-6.2,4.6-11.4,10.5-15,17.4
				C348.1,420.6,350.6,422.1,351.5,420.4L351.5,420.4z"/>
		</g>
		<g>
			<path d="M362.9,367.6c20.7,10.8,46,11.1,67,0.8c1.7-0.8,0.2-3.4-1.5-2.5c-20,9.8-44.3,9.5-64-0.8
				C362.7,364.2,361.2,366.8,362.9,367.6L362.9,367.6z"/>
		</g>
		<path d="M447,400c0.7,4.4,0.4,9.1-2.2,12.8c-1.9,2.6-4.7,4.4-7.7,5.5c-7.2-12.1-19.2-20.8-32.6-24.1c-14-3.4-28.7-0.2-40.3,8.2
			c-6.4,4.6-11.8,10.7-15.5,17.7c-1-1.1-1.8-2.5-2.4-4c-0.4-0.9-0.7-1.8-1-2.8l0-0.1c-5.3-17.5,4.2-35.7,17.7-46.5
			c14.6-11.7,34.6-16.2,52.3-9.3C432.7,364.1,444.2,381.6,447,400z"/>
		<path class="st1" d="M428.3,366c-19.6,9.6-43.4,9.5-62.9-0.3c14.1-10.3,32.7-14.1,49.3-7.8C419.8,359.7,424.4,362.5,428.3,366z"/>
	</g>
</g>
</svg>
