<?xml version="1.0" encoding="utf-8"?>
<!-- Generator: Adobe Illustrator 25.1.0, SVG Export Plug-In . SVG Version: 6.00 Build 0)  -->
<svg version="1.1" id="Layer_1" xmlns="http://www.w3.org/2000/svg" xmlns:xlink="http://www.w3.org/1999/xlink" x="0px" y="0px"
	 viewBox="0 0 800 800" style="enable-background:new 0 0 800 800;" xml:space="preserve">
<style type="text/css">
	.st0{fill:#FCFCFC;}
	.st1{fill:#FFFFFF;}
	.st2{fill:#F98F8F;}
</style>
<g>
	<g>
		<path class="st0" d="M360.8,233.6c-2.6-11.8-1.6-24.4,2.7-35.7c4.3-11.3,12-21.3,21.8-28.4c10.3-7.4,24.6-9.2,36.5-4.7
			c7.2,2.7,12.3,5.9,16.6,12.2c4.8,7,8.1,15.2,8.5,23.7c0.3,8.5-2.5,17.3-8.5,23.3c-7,7.1-17.3,9.7-27.2,11
			C394.4,237.3,377.4,237.4,360.8,233.6"/>
		<g>
			<path d="M362.1,233.3c-3.6-17,0.1-35,10.3-49c4.6-6.3,10.5-12.2,17.4-16c6.9-3.7,15-5.2,22.8-4.3c7.2,0.8,14.9,3.7,20.3,8.6
				c6,5.4,10,13.6,11.8,21.4c1.8,8,1,16.6-3.1,23.8c-4.1,7.1-11,11.3-18.7,13.6c-9.5,2.9-19.7,3.6-29.6,3.9
				c-10.8,0.3-21.6-0.5-32.2-2.9c-1.6-0.4-2.3,2.1-0.7,2.5c10,2.3,20.2,3.2,30.4,3.1c9.6-0.1,19.4-0.9,28.8-3
				c8-1.8,16.1-5.3,21.4-11.8c5.3-6.5,7.7-15.1,7.1-23.5c-0.6-9-4.3-17.8-9.8-24.9c-4.7-6.2-11.7-10-19.1-12.1
				c-8-2.2-16.7-2-24.5,0.7c-7.9,2.7-14.7,8-20.2,14.2c-13.7,15.3-19.3,36.4-15,56.4C360,235.6,362.4,234.9,362.1,233.3L362.1,233.3
				z"/>
		</g>
	</g>
	<g>
		<path d="M387.3,155.4c9.1-6.2,20.5-8.8,31.4-6.7c10.1,1.9,19.5,7.6,25.8,15.9c0.8,1.1,2.2,1.7,3.5,0.9c1.1-0.6,1.8-2.4,0.9-3.5
			c-11.4-15.2-30.8-22.3-49.3-17.7c-5.3,1.3-10.3,3.6-14.8,6.6C382,152.8,384.6,157.2,387.3,155.4L387.3,155.4z"/>
	</g>
	<circle cx="391.5" cy="206.8" r="23.7"/>
	<circle class="st0" cx="407.7" cy="195.5" r="8.7"/>
	<g>
		<path class="st1" d="M280.4,234.7c3.6-11.6,2.1-23.3-1.2-34.9c-3.4-11.6-8.7-23.1-17.9-31c-9.6-8.2-23.8-11.2-35.9-7.8
			c-7.4,2.1-12.7,4.8-17.6,10.8c-5.4,6.6-9.4,14.5-10.4,23c-1,8.5,2.7,19.2,8.2,25.8c6.4,7.6,14.8,9.3,24.5,11.4
			C246.6,235.6,263.6,237.1,280.4,234.7"/>
		<g>
			<path d="M281.6,235c2.9-9.7,2.5-19.8,0.3-29.6c-2-8.8-5-17.5-9.6-25.2c-4.3-7.2-10.1-13.5-17.6-17.3c-7.4-3.7-15.9-5.3-24.1-4.2
				c-7.5,0.9-15.2,3.8-20.8,9c-6.2,5.8-10.9,14.1-12.9,22.3c-2,8.1-0.7,16.2,2.8,23.7c3.4,7.3,8.9,12.9,16.4,15.9
				c3.7,1.5,7.6,2.4,11.5,3.2c4.9,1.1,9.8,2.1,14.8,2.8c10.2,1.5,20.5,2,30.8,1.2c2.5-0.2,5-0.5,7.4-0.8c1.6-0.2,0.9-2.7-0.7-2.5
				c-18.7,2.7-37.8,0.4-56-4.1c-7.2-1.8-14-4.7-18.5-10.9c-4.5-6.1-7.4-14.2-7-21.9c0.4-8.1,4.2-16.1,9.1-22.5
				c2.3-3,4.9-5.7,8.1-7.7c3.1-1.9,6.5-3.2,10-4.1c7.6-2.1,15.7-1.7,23.1,0.8c7.7,2.6,14,7.8,18.7,14.3c5.4,7.5,8.8,16.2,11.1,25.1
				c2.8,10.5,3.7,21.3,0.6,31.8C278.7,235.9,281.1,236.6,281.6,235L281.6,235z"/>
		</g>
	</g>
	<g>
		<path d="M254.2,146.2c-8.5-4.9-18.5-7.2-28.2-6.2c-9.2,0.9-17.7,4.5-24.9,10.2c-4,3.2-7.3,7-10.1,11.2c-1.8,2.8,2.6,5.3,4.4,2.6
			c5.5-8.6,14.2-15,24-17.7c10.8-3,22.6-1.4,32.2,4.2C254.4,152.2,257,147.8,254.2,146.2L254.2,146.2z"/>
	</g>
	<circle cx="231.3" cy="202.6" r="23.7"/>
	<circle class="st0" cx="251" cy="193" r="8.7"/>
</g>
<g>
	<path class="st2" d="M355.3,342.5c-4.7,0.7-9.4-0.1-14.1-0.9c-4.8-0.8-9.6-1.5-14.4-1.8c-10.7-0.9-21.5-0.6-32.1,0.9
		c-4.9,0.7-10.2,2.2-15.1,0.8c-0.4-0.1-0.7-0.2-1-0.4c6.4-10.5,17.1-18.1,29.2-20.6c12-2.5,24.5,0.4,34.4,7.5
		C347.6,331.8,352.1,336.8,355.3,342.5z"/>
	<g>
		<path d="M278.2,337c-6.1-15.8,3.3-32.1,16.2-41.2c12.6-8.9,29.1-11.9,43.6-6c7.1,2.9,13.2,7.7,17.5,14c4.3,6.3,7,13.9,8.2,21.4
			c0.6,3.9,0.6,8.2-1.8,11.6c-2.1,2.9-5.6,4.6-9,5.3c-4.1,0.8-8.4,0.3-12.5-0.4c-4.5-0.7-9-1.4-13.5-1.8c-9.7-0.9-19.5-0.6-29.2,0.6
			c-4.8,0.6-10.2,2.3-15.1,0.9c-3.6-1.1-4.6-4.5-5.5-7.8c-0.4-1.6-2.9-1-2.5,0.5c0.8,3,1.7,6.3,4.3,8.3c3.2,2.4,7.9,2.2,11.6,1.7
			c5.1-0.6,10.1-1.5,15.2-1.9c4.9-0.3,9.8-0.4,14.8-0.2c4.9,0.2,9.8,0.7,14.7,1.4c4.9,0.8,9.9,1.9,14.9,1.6
			c7.6-0.5,14.8-4.6,16.2-12.6c0.7-4.1-0.1-8.4-1.1-12.4c-1-4.1-2.4-8.1-4.2-11.8c-3.6-7.4-9.2-13.7-16.3-17.9
			c-14.6-8.5-32.7-7.6-47.2,0.7c-8,4.5-15.1,11.2-19.4,19.4c-4.5,8.6-5.6,18.8-2.1,27.9C276.5,339.7,278.8,338.5,278.2,337
			L278.2,337z"/>
	</g>
	<g>
		<path d="M281.4,341.5c5.7-9.6,15.3-16.6,26.2-19.2c11.1-2.6,22.8-0.1,32.2,6.5c5.3,3.7,9.6,8.6,12.6,14.2c0.8,1.5,3,0.3,2.3-1.2
			c-5.7-10.7-16-18.8-27.7-21.8c-11.5-3-23.9-0.7-33.8,5.7c-5.6,3.7-10.4,8.5-13.8,14.3C278.4,341.5,280.6,342.9,281.4,341.5
			L281.4,341.5z"/>
	</g>
	<g>
		<path d="M293.7,296.4c17.4,10.3,39.3,11.8,57.9,3.9c1.5-0.6,0.3-2.9-1.2-2.3c-17.7,7.6-38.8,6.1-55.4-3.7
			C293.7,293.4,292.3,295.5,293.7,296.4L293.7,296.4z"/>
	</g>
	<path d="M365,328.4c0.4,3.9-0.1,7.9-2.5,11c-1.8,2.2-4.3,3.6-7,4.4c-5.7-10.8-15.6-18.9-27.1-22.4c-12-3.6-24.8-1.6-35.3,5.2
		c-5.8,3.7-10.7,8.7-14.2,14.6c-0.9-1-1.4-2.3-1.9-3.6c-0.3-0.8-0.5-1.6-0.7-2.5l0-0.1c-3.8-15.4,5.3-30.7,17.5-39.4
		c13.2-9.5,30.7-12.4,45.7-5.6C354.3,296.6,363.4,312.3,365,328.4z"/>
	<path class="st1" d="M350.5,298c-17.4,7.4-38,6.2-54.4-3.2c12.7-8.3,29-10.7,43.1-4.5C343.4,292.2,347.2,294.8,350.5,298z"/>
</g>
</svg>
