<?xml version="1.0" encoding="utf-8"?>
<!-- Generator: Adobe Illustrator 25.1.0, SVG Export Plug-In . SVG Version: 6.00 Build 0)  -->
<svg version="1.1" id="Layer_1" xmlns="http://www.w3.org/2000/svg" xmlns:xlink="http://www.w3.org/1999/xlink" x="0px" y="0px"
	 viewBox="0 0 800 800" style="enable-background:new 0 0 800 800;" xml:space="preserve">
<style type="text/css">
	.st0{fill:#8DB0F7;}
	.st1{fill:#FCFCFC;}
	.st2{fill:#F98F8F;}
</style>
<g>
	<g>
		<path class="st0" d="M201.8,225.8c-13-5.3-31.3-3.6-41.7,5.8c-3,2.7-5.8,6.8-4.2,10.6c1,2.3,3.4,3.8,5.9,4.1s5-0.4,7.3-1.5
			c5.9-2.7,10.6-7.4,15.7-11.5s11.2-7.6,17.7-7.2"/>
		<g>
			<path d="M202,225.1c-12.5-5-28.7-4.1-39.8,3.9c-4.5,3.2-10.8,10.3-5.5,15.6c5.8,5.8,14.9,0.2,20-3.7c7.7-5.9,15.2-14.5,25.8-14
				c0.9,0,0.9-1.3,0-1.4c-6.7-0.3-12.7,3.1-17.8,7.1c-5.8,4.5-11.5,10.9-18.9,12.7c-4.3,1-10.4-0.8-9.5-6.4c0.6-3.8,3.9-6.8,6.9-8.9
				c5.2-3.7,11.5-5.6,17.8-6.3c7-0.7,14.1,0.1,20.6,2.7C202.5,226.8,202.8,225.4,202,225.1L202,225.1z"/>
		</g>
	</g>
	<g>
		<g>
			<path d="M392.3,145.3c17.1-7.4,37.1-0.5,46.5,15.3c2.3,3.8,8.2,0.4,5.9-3.5c-5.2-8.7-13.1-15.4-22.6-19
				c-10.8-4.1-22.8-3.3-33.2,1.2C384.8,141.2,388.3,147.1,392.3,145.3L392.3,145.3z"/>
		</g>
		<g>
			<path d="M213,148.3c12.2-14.6,32.9-17.9,49-7.7c3.7,2.4,7.2-3.6,3.5-5.9c-18.4-11.8-43.3-8.1-57.3,8.8
				C205.3,146.8,210.1,151.7,213,148.3L213,148.3z"/>
		</g>
		<g>
			<path d="M368.1,223.1c5.9-10.4,17.7-16.9,29.7-15.9c11.6,0.9,22.2,9.2,26.4,20c1.2,3.3,6.6,1.9,5.3-1.5
				c-4.9-13-16.9-22.5-30.8-24c-14.1-1.5-28.3,6.4-35.3,18.6C361.6,223.4,366.4,226.2,368.1,223.1L368.1,223.1z"/>
		</g>
		<g>
			<path class="st0" d="M426.1,237.1c-4.4,9.2-7.8,19.3-8.8,29.4c-0.2,2.3-0.3,4.9,1.3,6.6c2.1,2.3,6,1.6,8.4-0.4
				c4.1-3.5,5.1-9.4,4.9-14.8c-0.2-7.5-2.1-14.9-5.6-21.5"/>
			<g>
				<path d="M425.5,236.7c-2.9,6.2-5.4,12.5-7,19.1c-0.8,3.3-1.4,6.6-1.8,9.9c-0.3,2.4-0.5,5.1,1,7.2c2.9,4.1,8.8,1.7,11.3-1.4
					c3.3-4,3.9-9.5,3.6-14.4c-0.3-7.4-2.3-14.6-5.6-21.2c-0.4-0.8-1.6-0.1-1.2,0.7c3.2,6.4,5.1,13.4,5.4,20.5
					c0.2,5.6-0.6,13.7-6.6,16.1c-1.4,0.6-3.1,0.8-4.5,0.1c-1.7-0.9-2.2-2.9-2.2-4.7c-0.1-3.5,0.7-7,1.5-10.4
					c1.6-7.2,4.2-14.1,7.3-20.8C427.1,236.6,425.9,235.9,425.5,236.7L425.5,236.7z"/>
			</g>
		</g>
		<g>
			<path class="st0" d="M454.9,249.9c14.3-4.5,33.2-0.3,42.5,11.5c3.1,3.9,5.4,9.5,2.7,13.7c-2.8,4.4-9.6,4.4-14,1.6
				s-7.2-7.5-10.6-11.5c-5.5-6.7-12.7-12-20.8-15.3"/>
			<g>
				<path d="M455.1,250.6c13.3-4.1,29.9-1.1,39.8,9c2.7,2.8,5.3,6.5,5.7,10.5c0.4,4.5-2.9,7.6-7.2,7.8c-8.5,0.4-13-7.9-17.6-13.5
					c-5.6-6.7-12.8-11.9-20.9-15.2c-0.8-0.3-1.2,1-0.4,1.3c9.5,3.9,16.9,10.3,23,18.3c4.3,5.7,10.3,12.2,18.3,10
					c8.2-2.3,6.7-11.6,2.8-17c-4.3-6-11-10.1-17.9-12.3c-8.3-2.7-17.6-2.9-25.9-0.3C453.9,249.5,454.2,250.8,455.1,250.6
					L455.1,250.6z"/>
			</g>
		</g>
		<g>
			<path d="M212.8,219.5c7.2-10.2,19.4-16.6,31.9-16.5c12.5,0.2,24.5,6.9,31.4,17.3c2,2.9,6.7,0.2,4.8-2.8c-8-12-21.6-19.8-36.2-20
				c-14.6-0.2-28.3,7.4-36.6,19.2C206,219.6,210.8,222.4,212.8,219.5L212.8,219.5z"/>
		</g>
	</g>
</g>
<g>
	<path d="M368.3,352.5c-3.1,1.4-6.2,1.9-9.3,1.9c-7.3-0.1-14.7-3.2-21.6-5c-16.8-4.4-33.5,2-50.3,3.1c-1.4,0.1-2.8,0.2-4.3,0.2
		l-14.6-2.9c-2.3-1.8-3.6-4.6-4.9-7.2c-1.3-2.7-2.1-5.6-2.3-8.6l3.4-16.6c2.8-6,7.2-11.4,12.5-15.3c1.2-0.9,2.3-1.6,3.6-2.4
		c8.1-4.8,17.7-6.9,27-8c6-0.8,12-1.1,18-1.2c6.1-0.2,12.3-0.3,18.4-0.1c0.4,0,0.9,0,1.3,0.1l19.3,3.9c3.3,1.4,6.4,3.3,9.2,5.8
		c3.5,3.2,6.3,7.2,7.6,11.8c1.4,5.1,1.1,10.4,0.3,15.6C380.1,336.6,377.7,348.1,368.3,352.5z"/>
	<path class="st1" d="M361.5,293.1l-1.1,4.2c-3.7,2.7-7.8,5.4-12.1,7.2c-20.2,8.9-42.9,5.7-61.3-6.2c-0.1-0.1,1.6-0.9,1.6-1
		c-2.2,1,1.2-1.3-0.8,0.1l-7.4,2.2c8.1-4.8,17.7-6.9,27-8c6-0.8,12-1.1,18-1.2c6.1-0.2,12.3-0.3,18.4-0.1c0.4,0,0.9,0,1.3,0.1
		c0.8,0,1.6,0.1,2.4,0.2c0.8,0,1.5,0.1,2.3,0.2c1,0.1,2,0.2,3,0.4c1.5,0.2,3,0.5,4.4,0.8C358.7,292.2,360.1,292.6,361.5,293.1z"/>
	<path class="st2" d="M359.2,353l-0.3,1.4c-7.3-0.1-14.7-3.2-21.6-5c-16.8-4.4-33.5,2-50.3,3.1l-8.5-1.7l3.9,0.2
		c1.2,0.1,1.3,0.3,2.6,0.3c0.5,0-0.3-0.3,0.2-0.3c1.7-5.9,5-10.7,10-14.3c10-7,22.1-7.4,33.7-5c11.1,2.3,21.4,8.9,23.9,20.6
		C354.5,352.5,357.6,353,359.2,353z"/>
	<g>
		<path d="M381.7,327.4c0.9-5.1,1.2-10.5-0.3-15.6c-1.3-4.6-4.1-8.6-7.6-11.8c-2.8-2.5-5.9-4.3-9.2-5.8c-1-0.4-2-0.8-3-1.2
			c-1.4-0.5-2.9-0.9-4.3-1.2c-1.4-0.3-2.9-0.6-4.4-0.8c-1-0.1-2-0.3-3-0.4c-0.8-0.1-1.5-0.2-2.3-0.2c-0.8-0.1-1.6-0.1-2.4-0.2
			c-0.4,0-0.9-0.1-1.3-0.1c-6.1-0.2-12.3,0-18.4,0.1c-6,0.2-12,0.5-18,1.2c-9.3,1.2-18.8,3.2-27,8c-1.2,0.7-2.4,1.5-3.6,2.4
			c-5.3,3.9-9.7,9.3-12.5,15.3c-1.5,3.2-2.6,6.7-3.1,10.3c-0.3,2.1-0.4,4.2-0.2,6.4c0.2,3,0.9,5.9,2.3,8.6c1.3,2.6,2.6,5.4,4.9,7.2
			c0.4,0.4,0.9,0.7,1.4,1c1.8,1,3.8,1.4,5.9,1.6c0.1,0,0.1,0,0.2,0c0,0,0,0,0,0c2.3,0.3,4.7,0.4,7,0.4c1.4,0,2.8,0,4.3-0.2
			c16.8-1.1,33.5-7.6,50.3-3.1c6.9,1.8,14.3,4.9,21.6,5c3.1,0.1,6.3-0.5,9.3-1.9C377.7,348.1,380.1,336.6,381.7,327.4z M376.9,337.4
			c-1.4,4.5-3.5,9-7.5,11.8c-3.1,2.1-6.5,2.8-9.9,2.9c-1.7,0-3.4-0.2-5.1-0.5c-0.9-0.1-1.7-0.3-2.6-0.5c-3.8-0.9-7.7-2.2-11.1-3.2
			c-5-1.5-9.9-2.4-15.1-2.4c-4.8-0.1-9.6,0.4-14.3,1.2c-8.3,1.3-16.5,3.1-24.8,3.6c-0.9,0.1-1.7,0.1-2.6,0.1c-0.5,0-1,0-1.5,0
			c-1.2,0-2.4,0-3.6-0.1c-0.9-0.1-1.9-0.2-2.8-0.3c-0.2,0-0.4,0-0.5-0.1c-0.1,0-0.3,0-0.4-0.1c-3.3-0.5-5.8-1.7-7.7-4.8
			c-2.3-3.9-3.9-8-4-12.6c-0.2-9.8,4.9-19.6,12.1-26.1c1.4-1.3,2.9-2.4,4.4-3.4c2-1.3,4.1-2.5,6.3-3.4c0.9-0.4,1.8-0.8,2.7-1.1
			c4.7-1.8,9.6-2.9,14.5-3.7c11.1-1.8,22.4-1.9,33.6-2c7.9-0.1,16,0.2,23.5,2.6c0.2,0.1,0.4,0.1,0.6,0.2c0.7,0.2,1.4,0.5,2.1,0.8
			c1.7,0.7,3.3,1.5,4.9,2.5c3.8,2.4,7.2,5.6,9.3,9.6c2.4,4.5,2.9,9.7,2.4,14.7C379.4,327.9,378.3,332.7,376.9,337.4z"/>
	</g>
	<g>
		<path d="M352.1,352.5c-0.1-0.5-0.2-1-0.4-1.5c-1.4-4.9-4.5-9.1-8.6-12.2c-9-6.9-22.3-8.2-33.2-6.4c-10.2,1.6-20.4,7.6-23.6,17.8
			c-0.1,0.3-0.2,0.7-0.3,1c-0.2,0.8-0.9,1-1.5,0.9c-0.6-0.1-1.1-0.6-0.9-1.4c0-0.1,0.1-0.3,0.1-0.4c1.7-5.9,5.6-11,10.6-14.5
			c10-7,23.8-7.7,35.4-5.3c11.1,2.3,22,9.4,24.5,21.1c0,0.1,0,0.1,0,0.1C354.7,353.2,352.4,354,352.1,352.5z"/>
	</g>
	<g>
		<path d="M363.3,296.1c-0.1,0-0.1,0.1-0.1,0.1c-0.9,0.7-1.8,1.4-2.7,2.1c-3.7,2.7-7.7,5-11.9,6.9c-20.2,8.9-43.7,6.4-62.2-5.5
			c-0.1-0.1-0.2-0.1-0.3-0.3c-0.8-0.9,0.2-2.7,1.4-1.9c0.4,0.3,0.9,0.5,1.3,0.8c4.8,3,10,5.3,15.4,7c10.1,3.1,20.9,3.8,31.3,1.6
			c9.1-1.9,17.6-5.9,24.9-11.6c0.3-0.2,0.5-0.4,0.7-0.5c0.3-0.2,0.5-0.4,0.8-0.6C363.2,293.1,364.5,295.2,363.3,296.1z"/>
	</g>
</g>
</svg>
