<?xml version="1.0" encoding="utf-8"?>
<!-- Generator: Adobe Illustrator 25.1.0, SVG Export Plug-In . SVG Version: 6.00 Build 0)  -->
<svg version="1.1" id="Layer_1" xmlns="http://www.w3.org/2000/svg" xmlns:xlink="http://www.w3.org/1999/xlink" x="0px" y="0px"
	 viewBox="0 0 800 800" style="enable-background:new 0 0 800 800;" xml:space="preserve">
<style type="text/css">
	.st0{fill:#FCFCFC;}
	.st1{fill:#FFFFFF;}
	.st2{fill:#0C0A0A;}
	.st3{fill:#F98F8F;}
</style>
<g>
	<g>
		<path d="M385.6,165.7c19.7-4.5,41.7,4,53.2,20.6c2.3,3.4,7.9,0.2,5.6-3.3c-13.2-19.1-37.8-28.8-60.4-23.6
			C379.9,160.4,381.6,166.6,385.6,165.7L385.6,165.7z"/>
	</g>
	<g>
		<path d="M257.4,151.1c-22.7-5.2-47.2,4.5-60.4,23.6c-2.4,3.4,3.2,6.7,5.6,3.3c11.5-16.7,33.4-25.1,53.2-20.6
			C259.8,158.2,261.5,152,257.4,151.1L257.4,151.1z"/>
	</g>
	<g>
		<path class="st0" d="M355.3,232.3c0-10.3,1.8-20.8,6.3-30c4.6-9.3,12-17.3,21.3-21.7s20.7-4.8,30-0.2c9.3,4.6,16,14.4,16,24.7
			c0,9.9-6,19.2-14.1,24.9c-8.1,5.7-18.1,8.2-28,8.9C375.9,239.8,364.6,238.1,355.3,232.3"/>
		<g>
			<path d="M356.6,232.3c0-14.3,3.6-29.1,13.2-40.1c9-10.3,23-16.3,36.7-12.8c12.2,3.1,22,14.7,21,27.7
				c-1.1,13.9-13.2,23.8-25.7,27.8c-14.7,4.6-32.4,4.5-45.9-3.7c-1.4-0.9-2.7,1.4-1.3,2.2c13,7.9,29.5,8.5,44,5
				c13.8-3.3,27.1-12.3,30.7-26.8c3.2-13.1-4.2-26.7-16.1-32.5c-13.4-6.4-29.4-2.9-40.5,6.5c-13.5,11.5-18.8,29.4-18.8,46.6
				C354,234,356.6,234,356.6,232.3L356.6,232.3z"/>
		</g>
	</g>
	<g>
		<path class="st0" d="M284.9,229.6c0.6-10.3-0.7-20.8-4.7-30.3c-4.1-9.5-11-17.9-20.1-22.8c-9.1-4.9-20.4-5.9-29.9-1.8
			c-9.5,4.1-16.7,13.5-17.3,23.8c-0.5,9.9,4.9,19.5,12.7,25.6s17.6,9.1,27.5,10.4C263.9,236,275.3,234.9,284.9,229.6"/>
		<g>
			<path d="M286.2,229.6c0.8-15.4-2.5-31.2-12.4-43.4c-9.2-11.2-23.8-17.7-38.2-14.6c-13,2.7-23.9,14.3-24.1,27.9
				c-0.2,14.5,11,26.3,23.7,31.7c15.6,6.6,35.2,7.7,50.4-0.5c1.5-0.8,0.2-3-1.3-2.2c-12.6,6.8-28,6.5-41.5,2.6
				c-12.9-3.7-25.2-12.5-28.1-26.3c-2.7-12.8,5.8-25.5,17.9-29.7c13.3-4.6,27.8,0.5,37.3,10.4c11.2,11.8,14.7,28.3,13.9,44.1
				C283.6,231.3,286.1,231.3,286.2,229.6L286.2,229.6z"/>
		</g>
	</g>
	<g>
		<circle cx="387.6" cy="212" r="21"/>
		<circle class="st1" cx="373.6" cy="201.3" r="5.9"/>
	</g>
	<g>
		<circle cx="254.9" cy="209.9" r="21"/>
		<circle class="st1" cx="240.9" cy="199.2" r="5.9"/>
	</g>
</g>
<g>
	<g>
		<g>
			<path class="st2" d="M266.4,298.6c0.4-5,4.6-9.1,9.3-10.9s9.9-1.7,14.9-1.6c22,0.3,43.9,0.7,65.9,1c6.2,0.1,13,0.4,17.6,4.5
				c3.3,2.9,4.9,7.3,5.1,11.7c0.1,4.4-1.1,8.7-2.9,12.7c-7.9,17.8-26.5,29.9-46,31.4c-19.4,1.5-39-7.1-52.4-21.2
				c-7.4-7.7-12.5-17.8-11.3-28.4"/>
			<g>
				<path d="M267.8,298.6c1.1-10.5,14.3-11.2,22.3-11.1c10.6,0.2,21.3,0.3,31.9,0.5c10.7,0.2,21.3,0.3,32,0.5
					c8.8,0.1,19.5,0.2,22.8,10.2c2.8,8.6-1.8,18.2-6.7,25.1c-4.8,6.7-11.2,12-18.4,15.9c-15.1,8-32.7,8.2-48.5,2
					c-17.3-6.8-37.3-23.3-35.3-43.8c0.2-1.8-2.7-1.8-2.9,0c-1.9,19.6,15.3,35.9,31.5,44c16.7,8.4,36.3,9.7,53.5,1.9
					c8-3.6,15.2-9.1,20.7-15.9c5.7-7.1,10.7-16.6,9.7-25.9c-0.4-4.2-2.2-8.4-5.4-11.3c-3.3-2.9-7.6-4.1-11.8-4.6
					c-5.4-0.6-10.9-0.4-16.3-0.5c-6-0.1-12.1-0.2-18.1-0.3c-13.6-0.2-27.1-0.6-40.7-0.6c-9.5,0-21.8,2.6-23.1,14
					C264.8,300.4,267.6,300.4,267.8,298.6L267.8,298.6z"/>
			</g>
		</g>
		<g>
			<path d="M279.5,288.5c2.7,7.1,9.1,11.4,16.1,13.5c8.5,2.5,17.8,2.9,26.6,2.6c13.9-0.4,32.5-2.3,40.7-15.4c1-1.6-1.5-3-2.5-1.5
				c-7.4,11.8-24.7,13.4-37.3,13.9c-7.9,0.3-16.1-0.1-23.8-1.8c-7-1.5-14.3-5-17-12.2C281.6,286,278.8,286.7,279.5,288.5
				L279.5,288.5z"/>
		</g>
		<g>
			<path d="M294.9,338.5c6.8-7.8,17.2-12.7,27.6-12.3c10.6,0.4,20.6,6.3,26.5,15.1c1,1.5,3.5,0.1,2.5-1.5
				c-6.3-9.4-16.8-15.7-28.2-16.4c-11.4-0.7-22.9,4.7-30.3,13.1C291.7,337.9,293.7,339.9,294.9,338.5L294.9,338.5z"/>
		</g>
	</g>
	<g>
		<path class="st1" d="M282.5,287.9c2.8-0.3,5.5-0.4,7.8-0.3c10.6,0.2,21.3,0.3,31.9,0.5c10.7,0.2,21.3,0.3,32,0.5
			c1.8,0,3.7,0.1,5.6,0.2c-7.7,11-24.4,12.5-36.6,13c-7.9,0.3-16.1-0.1-23.8-1.8C292.5,298.4,285.2,295,282.5,287.9z"/>
		<path class="st3" d="M349,341.1c-14.4,6.6-30.8,6.4-45.6,0.6c-2.6-1-5.2-2.2-7.8-3.7c6.8-7.5,16.9-12.2,27.1-11.8
			C333.2,326.7,343.1,332.5,349,341.1z"/>
	</g>
</g>
</svg>
