<?xml version="1.0" encoding="utf-8"?>
<!-- Generator: Adobe Illustrator 25.1.0, SVG Export Plug-In . SVG Version: 6.00 Build 0)  -->
<svg version="1.1" id="Layer_1" xmlns="http://www.w3.org/2000/svg" xmlns:xlink="http://www.w3.org/1999/xlink" x="0px" y="0px"
	 viewBox="0 0 800 800" style="enable-background:new 0 0 800 800;" xml:space="preserve">
<style type="text/css">
	.st0{fill:#F9F7F7;}
	.st1{fill:#FFFFFF;}
</style>
<g>
	<path d="M287.6,322c7.7-10.1,20.3-16.1,32.9-16.5c13.3-0.4,26.2,5.1,36,13.9c2.3,2.1,5.7-1.3,3.4-3.4c-10.9-9.8-25.4-16-40.2-15.3
		c-14.2,0.7-27.6,7.5-36.3,18.8C281.6,322,285.8,324.4,287.6,322L287.6,322z"/>
</g>
<g>
	<g>
		<g>
			<path class="st0" d="M369.3,194.1c-4.3,10.9-8.3,25.8-8.9,37.5c-0.1,1.1-0.1,2.3,0.7,3.1c0.7,0.7,1.7,0.9,2.7,1.1
				c11.1,1.6,22.3,1.8,33.5,0.7c9.5-1,19-2.9,27.3-7.4c8.4-4.5,15.6-11.7,18.5-20.8c2.2-6.7,3-13.2,0.9-19.9
				c-1.8-5.9-5.2-12.2-9.8-16.3c-4.6-4.1-12.8-5.6-19-5.3c-6.4,0.3-11.1,2.4-16.4,5.9c-12,7.8-20.9,11.6-29.9,22.7"/>
			<g>
				<path d="M367.9,193.7c-3.2,8.2-5.7,16.7-7.3,25.4c-0.8,4.1-1.5,8.3-1.6,12.5c-0.1,4.1,2.1,5.3,5.8,5.8
					c10.1,1.4,20.4,1.6,30.6,0.7c9.1-0.8,18.1-2.4,26.5-6.1c15.3-6.8,26.9-22.1,24.6-39.5c-1-8-5.4-16.9-11.8-22
					c-5.8-4.6-14.3-5.8-21.4-5c-9.3,1-16.8,7-24.5,11.7c-7.8,4.8-15,9.9-20.8,17c-1.2,1.5,0.8,3.6,2.1,2.1c4.6-5.5,9.9-10,15.9-13.9
					c2.9-1.9,5.9-3.6,8.9-5.5c3.2-2,6.3-4.2,9.6-5.8c6.6-3.3,14.2-3.7,21.3-1.8c7.8,2.2,12.7,8.3,15.7,15.6
					c6.5,15.7-1.2,32.9-15.1,41.5c-14.3,8.8-33.1,9.9-49.4,9.1c-2.6-0.1-5.1-0.3-7.6-0.6c-1.3-0.1-2.5-0.3-3.8-0.4
					c-1.7-0.2-3.4-0.5-3.4-2.5c0-4.1,0.8-8.4,1.6-12.4c1.6-8.5,4.1-16.9,7.3-25C371.4,192.8,368.6,192,367.9,193.7L367.9,193.7z"/>
			</g>
		</g>
		<g>
			<path d="M358.4,209.3c20.7-28.6,53.9-46.4,89.2-47.9c3.8-0.2,3.9-6.1,0.1-5.9c-29.3,1.2-57.5,12.8-78.9,32.9
				c-5.7,5.4-10.9,11.4-15.5,17.8C351.1,209.3,356.1,212.4,358.4,209.3L358.4,209.3z"/>
		</g>
		<circle cx="394.7" cy="207.6" r="22.9"/>
		<circle class="st1" cx="380.3" cy="198.9" r="8.3"/>
	</g>
	<g>
		<g>
			<path class="st0" d="M271.2,191c4.5,10.8,8.8,25.6,9.7,37.3c0.1,1.1,0.1,2.3-0.6,3.1c-0.6,0.8-1.7,1-2.7,1.1
				c-11,1.8-22.3,2.2-33.4,1.3c-9.5-0.8-19-2.6-27.5-6.9c-8.5-4.3-15.8-11.4-18.9-20.4c-2.3-6.6-3.2-13.1-1.4-19.9
				c1.7-6,5-12.3,9.5-16.5c4.6-4.2,12.7-5.9,18.9-5.7c6.4,0.2,11.1,2.1,16.5,5.5c12.1,7.5,21.2,11.2,30.4,22"/>
			<g>
				<path d="M269.9,191.7c3,7.3,5.4,14.9,7.2,22.5c0.8,3.7,1.6,7.4,2,11.2c0.2,2,1,4.4-1.2,5.6c-0.8,0.4-2.2,0.4-3.1,0.5
					c-1.4,0.2-2.7,0.4-4.1,0.5c-8.8,1-17.7,1.1-26.6,0.4c-8.6-0.7-17.3-2.2-25.1-5.9c-14-6.5-25-21.5-21.7-37.5
					c1.5-7.1,5.5-15.6,12-19.5c6.1-3.5,14.3-4.4,21-2.7c4.2,1,7.9,3.2,11.6,5.4c3.4,2.1,6.9,4,10.3,6.1c6.9,4.1,13.1,8.7,18.4,14.9
					c1.2,1.5,3.4-0.6,2.1-2.1c-5.2-6-11.3-10.7-18-14.8c-3.6-2.2-7.3-4.2-10.9-6.4c-3.6-2.2-7.1-4.3-11.1-5.6
					c-7.3-2.2-15.6-1.6-22.6,1.4c-7.4,3.2-12,10.9-14.5,18.2c-5.7,16.5,3.2,34.2,17.6,42.8c7.8,4.6,16.6,6.9,25.5,8
					c10.2,1.3,20.5,1.3,30.7,0.3c2.7-0.3,5.3-0.6,8-1c1.8-0.3,3.6-0.8,4.5-2.6c0.8-1.8,0.4-4,0.2-5.8c-0.2-2.3-0.6-4.5-1-6.8
					c-1.8-9.8-4.8-19.4-8.6-28.6C271.8,188.5,269.2,190,269.9,191.7L269.9,191.7z"/>
			</g>
		</g>
		<g>
			<path d="M287.1,202.3c-17.1-22.6-42-38.9-69.6-45.2c-8.3-1.9-16.8-2.9-25.3-3.1c-3.8-0.1-3.9,5.9-0.1,5.9
				c35.7,0.7,69.2,18,90.7,46.5C285.2,209.5,289.4,205.3,287.1,202.3L287.1,202.3z"/>
		</g>
		<circle cx="246.2" cy="205" r="22.9"/>
		<circle class="st1" cx="260.4" cy="196" r="8.3"/>
	</g>
</g>
</svg>
