<?xml version="1.0" encoding="utf-8"?>
<!-- Generator: Adobe Illustrator 25.1.0, SVG Export Plug-In . SVG Version: 6.00 Build 0)  -->
<svg version="1.1" id="Layer_1" xmlns="http://www.w3.org/2000/svg" xmlns:xlink="http://www.w3.org/1999/xlink" x="0px" y="0px"
	 viewBox="0 0 800 800" style="enable-background:new 0 0 800 800;" xml:space="preserve">
<style type="text/css">
	.st0{fill:#F9F7F7;}
	.st1{fill:#FFFFFF;}
</style>
<g>
	<g>
		<path d="M378.9,366c5.1-6.7,13.4-10.6,21.8-10.9c8.8-0.3,17.3,3.3,23.8,9.2c1.5,1.4,3.8-0.9,2.3-2.3c-7.2-6.5-16.8-10.6-26.6-10.1
			c-9.4,0.4-18.3,4.9-24,12.4C374.9,366,377.7,367.6,378.9,366L378.9,366z"/>
	</g>
	<g>
		<path d="M390.6,323.2c1.9-4,5.9-6.8,10.3-7c4.4-0.2,8.7,2.3,10.8,6.2c0.7,1.2,2.5,0.1,1.8-1.1c-2.5-4.5-7.5-7.4-12.7-7.2
			c-5.1,0.2-10,3.4-12.2,8.1C388.2,323.3,390,324.4,390.6,323.2L390.6,323.2z"/>
	</g>
	<g>
		<g>
			<path class="st0" d="M436.9,281.8c-2.9,7.9-5.5,18.6-5.8,27c0,0.8,0,1.6,0.5,2.2c0.5,0.5,1.3,0.6,2,0.7c8,1,16,0.9,24,0
				c6.8-0.8,13.6-2.4,19.5-5.7c5.9-3.3,11-8.7,12.9-15.2c1.5-4.8,1.9-9.5,0.4-14.3c-1.4-4.2-3.9-8.7-7.3-11.5
				c-3.4-2.9-9.3-3.8-13.7-3.5c-4.6,0.3-7.9,1.9-11.7,4.4c-8.5,5.8-14.8,8.6-21.1,16.7"/>
			<g>
				<path d="M435.9,281.5c-2.2,5.9-3.8,12.1-4.9,18.3c-0.5,3-0.9,6-1,9c0,2.9,1.6,3.8,4.2,4.1c7.3,0.8,14.7,0.8,22,0
					c6.5-0.7,13-2,18.9-4.8c10.9-5.1,18.9-16.3,17.1-28.7c-0.9-5.7-4.1-12.1-8.8-15.6c-4.2-3.2-10.3-4-15.4-3.3
					c-6.7,0.9-11.9,5.3-17.4,8.8c-5.5,3.5-10.6,7.4-14.7,12.5c-0.8,1.1,0.7,2.6,1.5,1.5c3.2-4,7-7.3,11.2-10.2
					c2.1-1.4,4.2-2.7,6.3-4.1c2.3-1.5,4.4-3.1,6.8-4.3c4.7-2.5,10.2-2.9,15.2-1.6c5.6,1.4,9.2,5.8,11.5,10.9
					c4.9,11.2-0.3,23.6-10.2,30c-10.1,6.5-23.6,7.6-35.3,7.3c-1.8,0-3.7-0.1-5.5-0.3c-0.9-0.1-1.8-0.2-2.7-0.3
					c-1.2-0.1-2.4-0.3-2.4-1.8c-0.1-3,0.4-6,0.9-8.9c1-6.1,2.7-12.2,4.8-18C438.4,280.7,436.4,280.2,435.9,281.5L435.9,281.5z"/>
			</g>
		</g>
		<g>
			<path d="M429.3,292.8c14.4-20.8,38-34.1,63.3-35.7c2.7-0.2,2.7-4.4,0-4.3c-21,1.3-41,10-56.1,24.8c-4,4-7.7,8.3-10.9,13
				C424.1,292.9,427.8,295,429.3,292.8L429.3,292.8z"/>
		</g>
		<circle cx="455.3" cy="291" r="16.4"/>
		<circle class="st1" cx="444.9" cy="285" r="6"/>
	</g>
	<g>
		<g>
			<path class="st0" d="M366.6,281c3.4,7.7,6.7,18.2,7.5,26.6c0.1,0.8,0.1,1.6-0.4,2.3c-0.5,0.6-1.2,0.7-1.9,0.9
				c-7.9,1.4-16,1.9-24,1.5c-6.8-0.4-13.7-1.5-19.8-4.5c-6.1-3-11.5-8-13.9-14.4c-1.7-4.7-2.5-9.3-1.3-14.2c1.1-4.3,3.4-8.9,6.6-12
				c3.2-3.1,9-4.4,13.5-4.3c4.6,0.1,8,1.4,11.9,3.7c8.8,5.2,15.3,7.7,22.1,15.4"/>
			<g>
				<path d="M365.6,281.5c2.3,5.2,4.1,10.6,5.5,16.1c0.7,2.6,1.2,5.3,1.6,8c0.2,1.4,0.8,3.2-0.7,4c-0.5,0.3-1.6,0.3-2.2,0.4
					c-1,0.2-1.9,0.3-2.9,0.4c-6.3,0.8-12.7,1.1-19.1,0.7c-6.2-0.4-12.4-1.3-18.1-3.8c-10.1-4.5-18.2-15-16.1-26.6
					c0.9-5.1,3.7-11.3,8.3-14.1c4.3-2.6,10.2-3.4,15-2.3c3.1,0.7,5.7,2.2,8.4,3.7c2.5,1.4,5,2.8,7.5,4.2c5,2.8,9.5,6.1,13.4,10.4
					c0.9,1,2.4-0.5,1.5-1.5c-3.8-4.2-8.2-7.5-13.1-10.3c-2.6-1.5-5.3-2.9-7.9-4.4c-2.6-1.5-5.2-3-8.1-3.8
					c-5.2-1.5-11.2-0.9-16.2,1.4c-5.3,2.4-8.4,8-10.1,13.3c-3.8,11.9,2.8,24.4,13.2,30.4c5.6,3.2,12,4.7,18.4,5.4
					c7.3,0.8,14.7,0.6,22-0.3c1.9-0.2,3.8-0.5,5.7-0.9c1.3-0.2,2.6-0.6,3.2-1.9c0.6-1.3,0.2-2.9,0-4.2c-0.2-1.6-0.5-3.2-0.8-4.8
					c-1.4-7-3.7-13.9-6.6-20.4C366.9,279.2,365.1,280.3,365.6,281.5L365.6,281.5z"/>
			</g>
		</g>
		<g>
			<path d="M378.1,288.8c-12.6-16-30.7-27.2-50.6-31.4c-6-1.2-12.1-1.9-18.2-1.9c-2.7,0-2.7,4.3,0,4.3c25.6,0,49.9,11.9,65.8,32
				C376.8,294,379.8,291,378.1,288.8L378.1,288.8z"/>
		</g>
		<circle cx="348.8" cy="291.3" r="16.4"/>
		<circle class="st1" cx="358.8" cy="284.7" r="6"/>
	</g>
</g>
</svg>
