<?xml version="1.0" encoding="utf-8"?>
<!-- Generator: Adobe Illustrator 25.1.0, SVG Export Plug-In . SVG Version: 6.00 Build 0)  -->
<svg version="1.1" id="Layer_1" xmlns="http://www.w3.org/2000/svg" xmlns:xlink="http://www.w3.org/1999/xlink" x="0px" y="0px"
	 viewBox="0 0 800 800" style="enable-background:new 0 0 800 800;" xml:space="preserve">
<style type="text/css">
	.st0{fill:#FCFCFC;}
	.st1{fill:#0C0A0A;}
	.st2{fill:#FFFFFF;}
	.st3{fill:#F98F8F;}
</style>
<g>
	<g>
		<path d="M459.4,260.6c15.4-3.5,32.6,3.1,41.6,16.1c1.8,2.7,6.2,0.1,4.4-2.5c-10.3-15-29.5-22.5-47.3-18.4
			C454.9,256.4,456.2,261.3,459.4,260.6L459.4,260.6z"/>
	</g>
	<g>
		<path d="M359.1,249.2c-17.7-4.1-37,3.5-47.3,18.4c-1.8,2.7,2.5,5.2,4.4,2.5c9-13,26.2-19.7,41.6-16.1
			C361,254.8,362.3,249.9,359.1,249.2L359.1,249.2z"/>
	</g>
	<g>
		<path class="st0" d="M435.7,312.7c0-8.1,1.4-16.3,5-23.5c3.6-7.3,9.4-13.5,16.7-16.9c7.3-3.4,16.2-3.7,23.4-0.1
			c7.2,3.6,12.5,11.2,12.5,19.3c0,7.8-4.7,15-11,19.5c-6.3,4.5-14.2,6.4-21.9,7C451.8,318.6,443,317.3,435.7,312.7"/>
		<g>
			<path d="M436.7,312.7c0-11.2,2.8-22.7,10.3-31.3c7.1-8.1,18-12.7,28.7-10c9.6,2.4,17.2,11.5,16.4,21.6
				c-0.9,10.9-10.3,18.6-20.1,21.7c-11.5,3.6-25.3,3.5-35.9-2.9c-1.1-0.7-2.1,1.1-1,1.7c10.2,6.2,23.1,6.7,34.4,3.9
				c10.8-2.6,21.2-9.6,24-21c2.5-10.2-3.3-20.9-12.6-25.4c-10.5-5-23-2.2-31.7,5.1c-10.6,9-14.7,23-14.7,36.5
				C434.7,314,436.7,314,436.7,312.7L436.7,312.7z"/>
		</g>
	</g>
	<g>
		<path class="st0" d="M380.6,310.6c0.5-8.1-0.5-16.3-3.7-23.7c-3.2-7.4-8.6-14-15.8-17.8c-7.1-3.8-16-4.6-23.4-1.4
			c-7.4,3.2-13.1,10.6-13.5,18.6c-0.4,7.7,3.9,15.2,10,20c6.1,4.8,13.8,7.1,21.5,8.2C364.2,315.6,373.1,314.7,380.6,310.6"/>
		<g>
			<path d="M381.6,310.6c0.6-12-1.9-24.4-9.7-33.9c-7.2-8.7-18.6-13.8-29.9-11.4c-10.2,2.1-18.7,11.2-18.8,21.8
				c-0.1,11.4,8.6,20.5,18.5,24.8c12.2,5.2,27.5,6,39.4-0.4c1.1-0.6,0.1-2.4-1-1.7c-9.9,5.3-21.9,5.1-32.5,2.1
				c-10.1-2.9-19.7-9.8-22-20.6c-2.1-10,4.6-19.9,14-23.2c10.4-3.6,21.8,0.4,29.1,8.1c8.7,9.2,11.5,22.1,10.9,34.5
				C379.6,311.9,381.6,311.9,381.6,310.6L381.6,310.6z"/>
		</g>
	</g>
	<g>
		<path class="st1" d="M367.9,341.8c0.3-3.5,3.2-6.4,6.5-7.6c3.3-1.2,6.9-1.2,10.4-1.2c15.4,0.2,30.7,0.5,46.1,0.7
			c4.3,0.1,9.1,0.3,12.3,3.1c2.3,2,3.5,5.1,3.6,8.2c0.1,3.1-0.8,6.1-2,8.9c-5.5,12.5-18.6,20.9-32.2,21.9
			c-13.6,1-27.3-4.9-36.7-14.8c-5.1-5.4-8.8-12.4-7.9-19.8"/>
		<g>
			<path d="M368.9,341.8c0.8-7.3,10-7.8,15.6-7.8c7.4,0.1,14.9,0.2,22.3,0.4c7.5,0.1,14.9,0.2,22.4,0.4c6.1,0.1,13.7,0.1,16,7.1
				c2,6-1.3,12.7-4.7,17.6c-3.3,4.7-7.8,8.4-12.9,11.1c-10.5,5.6-22.9,5.7-33.9,1.4c-12.1-4.7-26.1-16.3-24.7-30.7
				c0.1-1.3-1.9-1.3-2,0c-1.4,13.7,10.7,25.1,22,30.8c11.7,5.9,25.4,6.8,37.4,1.3c5.6-2.5,10.6-6.4,14.5-11.1
				c4-4.9,7.5-11.6,6.8-18.1c-0.3-2.9-1.5-5.9-3.8-7.9c-2.3-2-5.3-2.9-8.3-3.2c-3.8-0.4-7.6-0.3-11.4-0.4c-4.2-0.1-8.5-0.1-12.7-0.2
				c-9.5-0.1-19-0.4-28.5-0.4c-6.6,0-15.3,1.8-16.1,9.8C366.7,343.1,368.7,343.1,368.9,341.8L368.9,341.8z"/>
		</g>
	</g>
	<g>
		<path d="M377,334.8c1.9,5,6.3,8,11.3,9.4c5.9,1.7,12.5,2,18.6,1.8c9.7-0.3,22.7-1.6,28.4-10.7c0.7-1.1-1.1-2.1-1.7-1
			c-5.2,8.3-17.3,9.4-26.1,9.7c-5.5,0.2-11.2-0.1-16.7-1.2c-4.9-1.1-10-3.5-11.9-8.5C378.5,333,376.5,333.5,377,334.8L377,334.8z"/>
	</g>
	<g>
		<path d="M387.8,369.8c4.8-5.4,12-8.9,19.3-8.6c7.4,0.3,14.4,4.4,18.5,10.5c0.7,1.1,2.5,0.1,1.7-1c-4.4-6.6-11.8-11-19.8-11.5
			c-7.9-0.5-16,3.3-21.2,9.2C385.5,369.3,386.9,370.7,387.8,369.8L387.8,369.8z"/>
	</g>
	<g>
		<path d="M398.6,319.3c1.8-3.7,5.7-6.2,9.9-6c4,0.1,7.7,2.8,9.2,6.5c0.6,1.6,3.2,0.9,2.6-0.7c-1.9-4.7-6.4-8.1-11.5-8.5
			c-5.1-0.3-10.3,2.8-12.5,7.4C395.5,319.5,397.8,320.8,398.6,319.3L398.6,319.3z"/>
	</g>
	<g>
		<circle cx="461" cy="296.8" r="16.4"/>
		<circle class="st2" cx="450" cy="288.5" r="4.6"/>
	</g>
	<g>
		<circle cx="357.2" cy="295.2" r="16.4"/>
		<circle class="st2" cx="346.2" cy="286.8" r="4.6"/>
	</g>
	<g>
		<path class="st2" d="M379.1,334.3c1.9-0.2,3.8-0.3,5.5-0.2c7.4,0.1,14.9,0.2,22.3,0.4c7.5,0.1,14.9,0.2,22.4,0.3
			c1.3,0,2.6,0,3.9,0.1c-5.4,7.7-17.1,8.7-25.6,9.1c-5.5,0.2-11.2-0.1-16.7-1.2C386.1,341.7,381,339.3,379.1,334.3z"/>
		<path class="st3" d="M425.6,371.6c-10.1,4.6-21.6,4.5-31.9,0.4c-1.8-0.7-3.6-1.6-5.5-2.6c4.8-5.2,11.8-8.5,18.9-8.2
			C414.6,361.5,421.5,365.5,425.6,371.6z"/>
	</g>
</g>
</svg>
