<?xml version="1.0" encoding="utf-8"?>
<!-- Generator: Adobe Illustrator 25.1.0, SVG Export Plug-In . SVG Version: 6.00 Build 0)  -->
<svg version="1.1" id="Layer_1" xmlns="http://www.w3.org/2000/svg" xmlns:xlink="http://www.w3.org/1999/xlink" x="0px" y="0px"
	 viewBox="0 0 800 800" style="enable-background:new 0 0 800 800;" xml:space="preserve">
<style type="text/css">
	.st0{fill:#FCFCFC;}
	.st1{fill:#F98F8F;}
	.st2{fill:#8DB0F7;}
</style>
<g>
	<path d="M434.6,370.8c-2.1,1-4.2,1.3-6.3,1.3c-5-0.1-10-2.2-14.7-3.4c-11.4-3-22.8,1.4-34.2,2.1c-1,0.1-1.9,0.1-2.9,0.1l-9.9-2
		c-1.6-1.2-2.4-3.1-3.3-4.9c-0.9-1.9-1.4-3.8-1.5-5.8l2.3-11.3c1.9-4.1,4.9-7.7,8.5-10.4c0.8-0.6,1.6-1.1,2.4-1.6
		c5.5-3.3,12-4.7,18.3-5.5c4.1-0.5,8.2-0.7,12.2-0.8c4.2-0.1,8.4-0.2,12.5-0.1c0.3,0,0.6,0,0.9,0l13.1,2.7c2.3,1,4.4,2.2,6.3,3.9
		c2.4,2.2,4.3,4.9,5.2,8c1,3.4,0.8,7.1,0.2,10.6C442.6,360.1,441,367.9,434.6,370.8z"/>
	<path class="st0" d="M430,330.5l-0.8,2.9c-2.5,1.8-5.3,3.6-8.2,4.9c-13.7,6.1-29.1,3.8-41.6-4.2c-0.1,0,1.1-0.6,1.1-0.7
		c-1.5,0.7,0.8-0.9-0.5,0.1l-5,1.5c5.5-3.3,12-4.7,18.3-5.5c4.1-0.5,8.2-0.7,12.2-0.8c4.2-0.1,8.4-0.2,12.5-0.1c0.3,0,0.6,0,0.9,0
		c0.5,0,1.1,0.1,1.6,0.1c0.5,0,1,0.1,1.5,0.1c0.7,0.1,1.4,0.2,2,0.3c1,0.2,2,0.3,3,0.6C428.1,329.9,429,330.2,430,330.5z"/>
	<path class="st1" d="M428.4,371.2l-0.2,0.9c-5-0.1-10-2.2-14.7-3.4c-11.4-3-22.8,1.4-34.2,2.1l-5.8-1.2l2.6,0.1
		c0.8,0,0.9,0.2,1.7,0.2c0.4,0-0.2-0.2,0.2-0.2c1.1-4,3.4-7.3,6.8-9.7c6.8-4.7,15-5,22.9-3.4c7.5,1.6,14.5,6,16.2,14
		C425.2,370.9,427.3,371.2,428.4,371.2z"/>
	<g>
		<g>
			<path class="st2" d="M332.2,302.7c-7.8-3.2-18.8-2.2-25.1,3.5c-1.8,1.6-3.5,4.1-2.5,6.4c0.6,1.4,2.1,2.3,3.6,2.5s3-0.3,4.4-0.9
				c3.6-1.6,6.4-4.5,9.4-6.9s6.7-4.6,10.6-4.3"/>
			<g>
				<path d="M332.3,302.3c-7.5-3-17.2-2.5-23.9,2.3c-2.7,1.9-6.5,6.2-3.3,9.4c3.5,3.5,8.9,0.1,12-2.2c4.6-3.6,9.1-8.7,15.5-8.4
					c0.5,0,0.5-0.8,0-0.8c-4.1-0.2-7.6,1.9-10.7,4.3c-3.5,2.7-6.9,6.6-11.3,7.6c-2.6,0.6-6.3-0.5-5.7-3.8c0.4-2.3,2.4-4.1,4.2-5.3
					c3.1-2.2,6.9-3.4,10.7-3.8c4.2-0.4,8.5,0.1,12.4,1.6C332.6,303.3,332.8,302.5,332.3,302.3L332.3,302.3z"/>
			</g>
		</g>
		<g>
			<g>
				<path d="M446.7,254.4c10.2-4.4,22.3-0.3,27.9,9.2c1.4,2.3,4.9,0.2,3.6-2.1c-3.1-5.3-7.9-9.3-13.6-11.4c-6.5-2.5-13.7-2-20,0.7
					C442.1,251.8,444.2,255.4,446.7,254.4L446.7,254.4z"/>
			</g>
			<g>
				<path d="M338.9,256.1c7.3-8.8,19.8-10.8,29.4-4.6c2.2,1.4,4.3-2.1,2.1-3.6c-11.1-7.1-26-4.8-34.4,5.3
					C334.3,255.2,337.2,258.2,338.9,256.1L338.9,256.1z"/>
			</g>
			<g>
				<path d="M399.5,319.1c1.4-3.3,5-5.6,8.6-5.3c3.5,0.2,6.7,2.9,7.7,6.2c0.3,1,1.9,0.6,1.6-0.4c-1.3-4.1-5-7.2-9.3-7.4
					c-4.4-0.3-8.5,2.6-10.2,6.6C397.5,319.6,399.1,320.1,399.5,319.1L399.5,319.1z"/>
			</g>
			<g>
				<path d="M432.1,301.1c3.6-6.2,10.6-10.2,17.8-9.6c7,0.6,13.4,5.5,15.8,12c0.7,2,3.9,1.1,3.2-0.9c-3-7.8-10.1-13.5-18.5-14.4
					c-8.5-0.9-17,3.8-21.2,11.2C428.2,301.3,431.1,302.9,432.1,301.1L432.1,301.1z"/>
			</g>
			<g>
				<path class="st2" d="M467,309.5c-2.6,5.5-4.7,11.6-5.3,17.6c-0.1,1.4-0.2,2.9,0.8,4c1.3,1.4,3.6,0.9,5.1-0.3
					c2.5-2.1,3.1-5.7,3-8.9c-0.1-4.5-1.3-8.9-3.3-12.9"/>
				<g>
					<path d="M466.6,309.3c-1.7,3.7-3.2,7.5-4.2,11.5c-0.5,2-0.9,3.9-1.1,6c-0.2,1.4-0.3,3.1,0.6,4.3c1.7,2.5,5.3,1,6.8-0.8
						c2-2.4,2.3-5.7,2.2-8.7c-0.2-4.4-1.4-8.8-3.4-12.8c-0.2-0.5-1-0.1-0.7,0.4c1.9,3.8,3.1,8,3.3,12.3c0.1,3.4-0.4,8.2-4,9.7
						c-0.9,0.3-1.9,0.5-2.7,0c-1-0.5-1.3-1.7-1.3-2.8c0-2.1,0.4-4.2,0.9-6.2c1-4.3,2.5-8.5,4.4-12.5
						C467.6,309.2,466.9,308.8,466.6,309.3L466.6,309.3z"/>
				</g>
			</g>
			<g>
				<path class="st2" d="M484.3,317.2c8.6-2.7,19.9-0.2,25.5,6.9c1.9,2.3,3.2,5.7,1.6,8.2c-1.7,2.7-5.8,2.6-8.4,0.9
					s-4.4-4.5-6.3-6.9c-3.3-4-7.7-7.2-12.5-9.2"/>
				<g>
					<path d="M484.4,317.6c8-2.5,17.9-0.7,23.9,5.4c1.6,1.7,3.2,3.9,3.4,6.3c0.2,2.7-1.7,4.5-4.3,4.7c-5.1,0.3-7.8-4.8-10.6-8.1
						c-3.4-4-7.7-7.1-12.5-9.1c-0.5-0.2-0.7,0.6-0.2,0.8c5.7,2.3,10.1,6.2,13.8,11c2.6,3.4,6.2,7.4,11,6c4.9-1.4,4-7,1.7-10.2
						c-2.6-3.6-6.6-6-10.8-7.4c-5-1.6-10.5-1.7-15.6-0.2C483.7,316.9,483.9,317.7,484.4,317.6L484.4,317.6z"/>
				</g>
			</g>
			<g>
				<path d="M338.8,298.9c4.3-6.1,11.6-10,19.2-9.9c7.5,0.1,14.7,4.1,18.9,10.4c1.2,1.8,4,0.1,2.9-1.7c-4.8-7.2-13-11.9-21.7-12
					c-8.7-0.1-17,4.4-22,11.5C334.7,299,337.6,300.6,338.8,298.9L338.8,298.9z"/>
			</g>
		</g>
	</g>
	<g>
		<path d="M443.7,353.8c0.6-3.5,0.8-7.1-0.2-10.6c-0.9-3.1-2.8-5.9-5.2-8c-1.9-1.7-4-3-6.3-3.9c-0.7-0.3-1.4-0.5-2.1-0.8
			c-1-0.3-1.9-0.6-2.9-0.8c-1-0.2-2-0.4-3-0.6c-0.7-0.1-1.3-0.2-2-0.3c-0.5-0.1-1-0.1-1.5-0.1c-0.5,0-1.1-0.1-1.6-0.1
			c-0.3,0-0.6,0-0.9,0c-4.2-0.1-8.3,0-12.5,0.1c-4.1,0.1-8.2,0.3-12.2,0.8c-6.3,0.8-12.8,2.2-18.3,5.5c-0.8,0.5-1.6,1-2.4,1.6
			c-3.6,2.7-6.6,6.3-8.5,10.4c-1,2.2-1.8,4.6-2.1,7c-0.2,1.4-0.3,2.9-0.2,4.3c0.1,2,0.6,4,1.5,5.8c0.9,1.8,1.8,3.7,3.3,4.9
			c0.3,0.2,0.6,0.5,0.9,0.6c1.2,0.7,2.6,0.9,4,1.1c0,0,0.1,0,0.2,0c0,0,0,0,0,0c1.6,0.2,3.2,0.3,4.8,0.3c1,0,1.9,0,2.9-0.1
			c11.4-0.8,22.7-5.1,34.2-2.1c4.7,1.2,9.7,3.3,14.7,3.4c2.1,0,4.3-0.3,6.3-1.3C441,367.9,442.6,360.1,443.7,353.8z M440.4,360.6
			c-0.9,3-2.4,6.1-5.1,8c-2.1,1.4-4.4,1.9-6.7,1.9c-1.1,0-2.3-0.1-3.5-0.3c-0.6-0.1-1.2-0.2-1.8-0.4c-2.6-0.6-5.2-1.5-7.5-2.2
			c-3.4-1-6.8-1.6-10.3-1.7c-3.3-0.1-6.5,0.3-9.7,0.8c-5.6,0.9-11.2,2.1-16.9,2.4c-0.6,0-1.2,0.1-1.7,0.1c-0.4,0-0.7,0-1,0
			c-0.8,0-1.6,0-2.4-0.1c-0.6-0.1-1.3-0.1-1.9-0.2c-0.1,0-0.2,0-0.4-0.1c-0.1,0-0.2,0-0.3,0c-2.3-0.4-4-1.2-5.2-3.2
			c-1.6-2.6-2.6-5.4-2.7-8.5c-0.1-6.7,3.3-13.3,8.2-17.7c0.9-0.9,1.9-1.6,3-2.3c1.4-0.9,2.8-1.7,4.3-2.3c0.6-0.3,1.2-0.5,1.8-0.7
			c3.2-1.2,6.5-2,9.9-2.5c7.5-1.2,15.2-1.3,22.8-1.3c5.3-0.1,10.9,0.1,16,1.8c0.1,0,0.3,0.1,0.4,0.1c0.5,0.2,1,0.3,1.4,0.5
			c1.2,0.5,2.3,1,3.3,1.7c2.6,1.6,4.9,3.8,6.3,6.5c1.6,3,2,6.6,1.7,10C442.1,354.1,441.4,357.4,440.4,360.6z"/>
	</g>
	<g>
		<path d="M423.6,370.8c-0.1-0.3-0.2-0.7-0.3-1c-0.9-3.3-3.1-6.2-5.8-8.3c-6.1-4.7-15.1-5.5-22.6-4.4c-6.9,1.1-13.8,5.1-16,12.1
			c-0.1,0.2-0.1,0.4-0.2,0.7c-0.1,0.5-0.6,0.7-1,0.6c-0.4-0.1-0.7-0.4-0.6-0.9c0-0.1,0.1-0.2,0.1-0.3c1.1-4,3.8-7.4,7.2-9.9
			c6.8-4.7,16.1-5.3,24-3.6c7.5,1.6,15,6.4,16.6,14.3c0,0,0,0.1,0,0.1C425.4,371.3,423.8,371.9,423.6,370.8z"/>
	</g>
	<g>
		<path d="M431.2,332.6c0,0-0.1,0.1-0.1,0.1c-0.6,0.5-1.2,1-1.8,1.4c-2.5,1.8-5.2,3.4-8.1,4.7c-13.7,6.1-29.7,4.3-42.2-3.8
			c-0.1,0-0.1-0.1-0.2-0.2c-0.6-0.6,0.1-1.8,0.9-1.3c0.3,0.2,0.6,0.4,0.9,0.5c3.3,2,6.8,3.6,10.5,4.7c6.9,2.1,14.2,2.6,21.3,1.1
			c6.2-1.3,12-4,16.9-7.9c0.2-0.1,0.4-0.2,0.5-0.4c0.2-0.1,0.4-0.3,0.5-0.4C431.1,330.5,432,331.9,431.2,332.6z"/>
	</g>
</g>
</svg>
