<?xml version="1.0" encoding="utf-8"?>
<!-- Generator: Adobe Illustrator 25.1.0, SVG Export Plug-In . SVG Version: 6.00 Build 0)  -->
<svg version="1.1" id="Layer_1" xmlns="http://www.w3.org/2000/svg" xmlns:xlink="http://www.w3.org/1999/xlink" x="0px" y="0px"
	 viewBox="0 0 800 800" style="enable-background:new 0 0 800 800;" xml:space="preserve">
<style type="text/css">
	.st0{fill:#FCFCFC;}
	.st1{fill:#FFFFFF;}
	.st2{fill:#F98F8F;}
</style>
<g>
	<g>
		<g>
			<path class="st0" d="M432.4,308.9c-1.8-8.4-1.2-17.3,1.9-25.4c3.1-8,8.5-15.1,15.5-20.2c7.3-5.3,17.5-6.5,25.9-3.4
				c5.1,1.9,8.7,4.2,11.8,8.7c3.4,5,5.8,10.8,6,16.9c0.2,6.1-1.8,12.3-6,16.6c-5,5-12.3,6.9-19.3,7.8
				C456.3,311.5,444.1,311.6,432.4,308.9"/>
			<g>
				<path d="M433.2,308.6c-2.6-12.1,0.1-24.9,7.4-34.9c3.2-4.5,7.5-8.7,12.4-11.4c4.9-2.7,10.7-3.7,16.2-3.1
					c5.1,0.6,10.6,2.6,14.5,6.1c4.3,3.9,7.1,9.7,8.4,15.2c1.3,5.7,0.7,11.8-2.2,16.9c-2.9,5-7.9,8-13.3,9.7c-6.7,2-14,2.6-21,2.8
					c-7.7,0.2-15.4-0.4-22.9-2.1c-1.1-0.3-1.6,1.5-0.5,1.8c7.1,1.6,14.4,2.3,21.6,2.2c6.8-0.1,13.8-0.6,20.5-2.1
					c5.7-1.3,11.4-3.8,15.2-8.4c3.8-4.6,5.5-10.8,5.1-16.7c-0.4-6.4-3.1-12.7-7-17.7c-3.4-4.4-8.3-7.1-13.6-8.6
					c-5.7-1.6-11.9-1.4-17.4,0.5c-5.6,1.9-10.4,5.7-14.4,10.1c-9.8,10.8-13.7,25.9-10.7,40.1C431.7,310.3,433.5,309.8,433.2,308.6
					L433.2,308.6z"/>
			</g>
		</g>
		<g>
			<path d="M391.5,313.7c1.2-4.4,5.5-7.6,10.1-7.3c4.4,0.3,8.3,4.2,8.8,8.6c0.1,1.2,2,1.2,1.8,0c-0.6-5.3-5-9.8-10.4-10.4
				c-5.5-0.5-10.8,3.4-12.2,8.6C389.4,314.4,391.2,314.9,391.5,313.7L391.5,313.7z"/>
		</g>
		<g>
			<path d="M451.2,253.2c6.5-4.4,14.6-6.3,22.3-4.8c7.2,1.4,13.9,5.4,18.3,11.3c0.6,0.8,1.6,1.2,2.5,0.7c0.8-0.5,1.2-1.7,0.7-2.5
				c-8.1-10.8-21.9-15.9-35.1-12.6c-3.7,0.9-7.3,2.6-10.5,4.7C447.4,251.4,449.3,254.5,451.2,253.2L451.2,253.2z"/>
		</g>
		<circle cx="454.2" cy="289.8" r="16.9"/>
		<circle class="st0" cx="465.7" cy="281.8" r="6.2"/>
		<g>
			<path class="st1" d="M375.1,309.6c2.5-8.2,1.5-16.6-0.9-24.8c-2.4-8.3-6.2-16.4-12.7-22c-6.8-5.8-16.9-7.9-25.6-5.5
				c-5.3,1.5-9,3.4-12.5,7.7c-3.8,4.7-6.7,10.3-7.4,16.3c-0.7,6,1.9,13.7,5.8,18.3c4.5,5.4,10.5,6.6,17.4,8.1
				C351.1,310.3,363.2,311.4,375.1,309.6"/>
			<g>
				<path d="M376,309.9c2.1-6.9,1.8-14.1,0.2-21c-1.4-6.2-3.5-12.5-6.8-18c-3-5.1-7.2-9.6-12.5-12.3c-5.2-2.7-11.3-3.7-17.1-3
					c-5.3,0.7-10.8,2.7-14.8,6.4c-4.4,4.1-7.7,10-9.2,15.9c-1.4,5.8-0.5,11.5,2,16.9c2.4,5.2,6.3,9.1,11.7,11.3
					c2.6,1.1,5.4,1.7,8.2,2.3c3.5,0.8,7,1.5,10.5,2c7.3,1,14.6,1.4,21.9,0.8c1.8-0.1,3.5-0.4,5.3-0.6c1.2-0.2,0.7-1.9-0.5-1.8
					c-13.3,1.9-26.9,0.3-39.9-2.9c-5.2-1.3-9.9-3.3-13.2-7.7c-3.2-4.3-5.3-10.1-5-15.6c0.3-5.8,3-11.4,6.5-16
					c1.6-2.1,3.5-4.1,5.8-5.5c2.2-1.4,4.6-2.3,7.1-3c5.4-1.5,11.1-1.2,16.4,0.6c5.4,1.9,10,5.5,13.3,10.2c3.8,5.3,6.3,11.6,7.9,17.9
					c2,7.4,2.6,15.2,0.4,22.6C373.9,310.5,375.7,311,376,309.9L376,309.9z"/>
			</g>
		</g>
		<g>
			<path d="M356.5,246.7c-6-3.5-13.1-5.1-20.1-4.4c-6.5,0.6-12.6,3.2-17.7,7.3c-2.8,2.2-5.2,5-7.2,8c-1.3,2,1.9,3.8,3.1,1.8
				c3.9-6.1,10.1-10.6,17.1-12.6c7.7-2.1,16-1,22.9,3C356.7,251,358.5,247.8,356.5,246.7L356.5,246.7z"/>
		</g>
		<circle cx="340.3" cy="286.8" r="16.9"/>
		<circle class="st0" cx="354.2" cy="280" r="6.2"/>
	</g>
	<g>
		<path class="st2" d="M424.6,371c-3.3,0.7-6.7,0.3-10-0.1c-3.4-0.4-6.9-0.7-10.3-0.8c-7.6-0.2-15.3,0.4-22.8,1.9
			c-3.4,0.7-7.2,2-10.7,1.2c-0.3-0.1-0.5-0.1-0.7-0.2c4.1-7.7,11.5-13.5,19.9-15.8c8.4-2.3,17.4-0.7,24.7,4
			C418.8,363.7,422.2,367,424.6,371z"/>
		<g>
			<path d="M369.7,370.1c-4.9-11,1.1-23,9.9-29.9c8.6-6.8,20.2-9.5,30.7-6c5.1,1.8,9.7,5,13,9.3c3.3,4.3,5.5,9.6,6.6,14.9
				c0.6,2.8,0.7,5.8-0.8,8.3c-1.4,2.2-3.8,3.5-6.2,4.1c-2.9,0.7-6,0.5-8.9,0.2c-3.2-0.3-6.4-0.7-9.6-0.8c-6.9-0.2-13.9,0.3-20.7,1.6
				c-3.4,0.6-7.2,2-10.7,1.2c-2.6-0.6-3.4-3-4.2-5.3c-0.4-1.1-2.1-0.6-1.8,0.5c0.7,2.1,1.5,4.4,3.4,5.7c2.4,1.6,5.7,1.3,8.3,0.8
				c3.6-0.7,7.1-1.5,10.7-1.9c3.5-0.4,7-0.7,10.5-0.7c3.5,0,7,0.1,10.5,0.4c3.5,0.3,7.1,0.9,10.6,0.5c5.4-0.6,10.4-3.8,11-9.6
				c0.3-3-0.4-6-1.3-8.8c-0.9-2.8-2-5.6-3.5-8.2c-2.9-5.1-7-9.4-12.3-12.1c-10.7-5.5-23.5-4.1-33.5,2.3c-5.5,3.5-10.3,8.5-13,14.5
				c-2.9,6.3-3.2,13.5-0.4,19.9C368.6,372,370.1,371.1,369.7,370.1L369.7,370.1z"/>
		</g>
		<g>
			<path d="M372.1,373.1c3.6-7.1,10.2-12.4,17.8-14.7c7.8-2.3,16.2-0.9,23.1,3.4c3.9,2.4,7.1,5.7,9.5,9.6c0.6,1,2.2,0.1,1.6-0.9
				c-4.4-7.4-12.1-12.7-20.5-14.4c-8.3-1.7-17,0.4-23.8,5.4c-3.9,2.8-7.1,6.5-9.2,10.7C370,373.2,371.6,374.2,372.1,373.1
				L372.1,373.1z"/>
		</g>
		<g>
			<path d="M379.2,340.6c12.8,6.7,28.4,6.9,41.3,0.5c1.1-0.5,0.1-2.1-0.9-1.6c-12.3,6.1-27.3,5.9-39.5-0.5
				C379,338.5,378.1,340.1,379.2,340.6L379.2,340.6z"/>
		</g>
		<path d="M431,360.6c0.4,2.7,0.3,5.6-1.4,7.9c-1.2,1.6-2.9,2.7-4.8,3.4c-4.4-7.4-11.8-12.9-20.1-14.8c-8.7-2.1-17.7-0.1-24.9,5
			c-4,2.8-7.3,6.6-9.5,10.9c-0.6-0.7-1.1-1.6-1.5-2.5c-0.2-0.6-0.4-1.1-0.6-1.7l0-0.1c-3.3-10.8,2.6-22,10.9-28.7
			c9-7.2,21.3-10,32.3-5.7C422.2,338.4,429.3,349.2,431,360.6z"/>
		<path class="st1" d="M419.5,339.6c-12.1,5.9-26.8,5.8-38.8-0.2c8.7-6.4,20.2-8.7,30.4-4.8C414.3,335.7,417.1,337.4,419.5,339.6z"
			/>
	</g>
</g>
</svg>
