<?xml version="1.0" encoding="utf-8"?>
<!-- Generator: Adobe Illustrator 25.1.0, SVG Export Plug-In . SVG Version: 6.00 Build 0)  -->
<svg version="1.1" id="Layer_1" xmlns="http://www.w3.org/2000/svg" xmlns:xlink="http://www.w3.org/1999/xlink" x="0px" y="0px"
	 viewBox="0 0 800 800" style="enable-background:new 0 0 800 800;" xml:space="preserve">
<style type="text/css">
	.st0{fill:#FFFFFF;}
	.st1{fill:#FCFCFC;}
	.st2{stroke:#000000;stroke-miterlimit:10;}
</style>
<g>
	<g>
		<path d="M374.2,464.1c2.8-10.4,13.1-18.1,24-17.3c10.5,0.8,19.7,9.9,20.9,20.3c0.3,2.7,4.6,2.8,4.3,0
			c-1.5-12.6-11.8-23.3-24.6-24.5c-12.9-1.3-25.5,8-28.8,20.4C369.3,465.6,373.5,466.7,374.2,464.1L374.2,464.1z"/>
	</g>
	<g>
		<path d="M328.8,563.3c7.3-22.1,27.9-36.5,49.9-41.4c23.7-5.4,51.1-2,71.1,12.3c10.3,7.3,18.3,17.5,23.5,28.9
			c0.8,1.8,3.4,2.2,5,1.3c1.9-1.1,2.1-3.2,1.3-5c-5-11-12.7-21-22.2-28.5c-10.4-8.3-22.6-13.8-35.6-16.4
			c-25.7-5.3-55.1-1.7-76.4,14.5c-10.9,8.3-19.4,19.3-23.7,32.4C320.3,565.9,327.3,567.8,328.8,563.3L328.8,563.3z"/>
	</g>
	<g>
		<path class="st0" d="M340.6,371.3c0.1,2.5,0.1,4.9,0.1,7.4c0,3.3-0.2,6.6-0.4,9.8c-0.8,12.9-3.2,25.7-8.1,37.6
			c0,0.1-0.1,0.1-0.1,0.2c-3,7.2-6.9,14.6-13.4,19.2c-6.8,4.8-15.4,5.6-23.3,3.4c-8.2-2.3-15.2-7.9-20.7-14.2
			c-4.8-5.5-8.2-12-10.7-18.8c-5.1-13.6-7.2-28.8-6.2-43.3c-3.8,1.2-7.6,2.2-11.5,3.1c-0.3,0.1-0.5,0-0.8,0v-2.7
			c0.1,0,0.2-0.1,0.3-0.1c9-2,17.7-4.9,26.2-8.5c15-6.4,29-15,41.4-25.5c11.3-9.6,21.3-20.6,29.5-32.9h3.4
			c-4,6.1-8.3,11.9-13.1,17.3c0,0.1,0.1,0.2,0.1,0.2c0.5,1.8,1,3.6,1.5,5.4c3.1,11.9,4.9,24.2,5.6,36.5
			C340.5,367.5,340.6,369.4,340.6,371.3z"/>
		<path class="st0" d="M541.5,370.3c-3.9-0.7-7.8-1.5-11.6-2.5c1.8,14.5,0.5,29.7-3.8,43.5c-2.2,6.9-5.2,13.6-9.7,19.3
			c-5.2,6.6-11.8,12.6-19.9,15.3c-7.8,2.7-16.4,2.3-23.5-2.1c-6.7-4.2-11.1-11.4-14.5-18.5c0-0.1-0.1-0.1-0.1-0.2
			c-5.5-11.6-8.6-24.3-10.1-37.1c-0.4-3.3-0.7-6.5-0.9-9.8c-0.2-2.5-0.3-4.9-0.3-7.4c-0.1-1.9-0.1-3.8-0.1-5.8
			c0-12.3,1.2-24.7,3.6-36.8c0.4-1.8,0.8-3.7,1.2-5.5c0-0.1,0-0.2,0.1-0.2c-5.7-5.9-10.9-12.2-15.6-18.8c-1.1-1.5,1.2-3.3,2.2-1.8
			c9.4,13.4,20.9,25.2,34,35.1c13,9.9,27.4,17.7,42.7,23.3c8.7,3.1,17.6,5.5,26.7,7.1C543.6,367.8,543.3,370.6,541.5,370.3z"/>
		<g>
			<g>
				<path d="M340.7,378.7c0,3.3-0.2,6.6-0.4,9.8c-0.8,12.9-3.2,25.7-8.1,37.6c-1.2,0.6-2.4,1-3.6,1.4c-3.5,1.2-7.2,1.8-11.1,1.7
					c-18.5-0.2-33.2-15.4-33-33.9c0.2-16.8,12.8-30.5,28.9-32.7c1.6-0.2,3.3-0.4,5-0.3c7.2,0.1,13.9,2.5,19.3,6.5
					c1,0.7,2,1.5,2.9,2.4C340.7,373.8,340.7,376.2,340.7,378.7z"/>
				<path class="st1" d="M337.9,381.5c0,2.1-0.1,4.2-0.2,6.3c-0.6,0.7-1.2,1.4-2,2c-2.1,1.7-4.7,2.6-7.6,2.6
					c-6.6-0.1-11.9-5.5-11.8-12.1c0-3.6,1.7-6.8,4.2-8.9c2.1-1.8,4.9-2.9,7.9-2.9c2.8,0,5.3,1,7.4,2.7c0.7,0.6,1.4,1.3,1.9,2
					c0.1,1.2,0.1,2.4,0.1,3.7C337.9,378.3,337.9,379.9,337.9,381.5z"/>
				<g>
					<path class="st2" d="M345.5,302.1c-0.8,1.3-1.7,2.7-2.6,4c-8.2,12.3-18.2,23.4-29.5,32.9c-12.4,10.5-26.4,19.2-41.4,25.5
						c-8.5,3.6-17.2,6.4-26.2,8.5c-0.1,0-0.2,0-0.3,0.1c-1.2,0.5-1.1,2.3,0,2.7c0.2,0.1,0.5,0.1,0.8,0c3.9-0.9,7.7-1.9,11.5-3.1
						c-1.1,14.5,1.1,29.7,6.2,43.3c2.5,6.8,6,13.3,10.7,18.8c5.5,6.3,12.5,11.9,20.7,14.2c7.9,2.2,16.5,1.4,23.3-3.4
						c6.5-4.6,10.5-12,13.4-19.2c0-0.1,0.1-0.1,0.1-0.2c4.9-11.9,7.2-24.7,8.1-37.6c0.2-3.3,0.4-6.6,0.4-9.8c0-2.5,0-4.9-0.1-7.4
						c0-1.9-0.1-3.8-0.2-5.8c-0.7-12.3-2.5-24.6-5.6-36.5c-0.5-1.8-1-3.6-1.5-5.4c0-0.1,0-0.2-0.1-0.2c4.8-5.5,9.1-11.3,13.1-17.3
						c0.5-0.8,1-1.5,1.5-2.3C348.7,302.2,346.4,300.5,345.5,302.1z M337.4,362.4c0.1,2.2,0.3,4.3,0.4,6.5c0,0.5,0,1,0.1,1.6
						c0.2,7,0.1,14.1-0.5,21.1c-0.8,8.8-2.3,17.5-4.9,25.8c-1.1,3.4-2.3,6.8-3.8,10.1c-1.6,3.6-3.6,7.1-6,10.3
						c-5,6.4-12.3,10-20.5,9.4c-15.6-1.1-27.8-14.5-33.8-28c-5.9-13.2-8.4-28.2-8-42.6c0-1.6,0.1-3.2,0.3-4.8v-0.1
						c11-3.6,21.7-8.5,31.7-14.4c14.3-8.4,27.3-19,38.5-31.2c0.1-0.1,0.2-0.2,0.3-0.3C334.4,337.7,336.5,350.1,337.4,362.4z"/>
				</g>
			</g>
			<g>
				<path d="M473.2,427.6c-3.9,0.3-7.6-0.2-11.1-1.1c-1.3-0.3-2.5-0.8-3.7-1.2c-5.5-11.6-8.6-24.3-10.1-37.1
					c-0.4-3.3-0.7-6.5-0.9-9.8c-0.2-2.5-0.3-4.9-0.3-7.4c0.9-0.9,1.8-1.8,2.8-2.5c5.2-4.3,11.7-7,18.9-7.5c1.7-0.1,3.4-0.1,5,0
					c16.2,1.3,29.5,14.4,30.6,31.1C505.5,410.4,491.6,426.3,473.2,427.6z"/>
				<path class="st1" d="M460.4,392c-2.9,0.2-5.7-0.7-7.9-2.2c-0.8-0.5-1.5-1.2-2.1-1.9c-0.3-2.1-0.5-4.3-0.6-6.4
					c-0.1-1.6-0.2-3.2-0.2-4.8c0-1.3-0.1-2.5,0-3.8c0.5-0.8,1.2-1.5,1.9-2.1c2-1.8,4.5-2.9,7.4-3.1c3.1-0.2,6,0.8,8.2,2.5
					c2.7,2.1,4.5,5.2,4.8,8.9C472.2,385.8,467.1,391.6,460.4,392z"/>
				<g>
					<path class="st2" d="M541.8,367.5c-9.1-1.6-18-3.9-26.7-7.1c-15.3-5.5-29.8-13.4-42.7-23.3c-13.1-9.9-24.6-21.7-34-35.1
						c-1.1-1.5-3.3,0.3-2.2,1.8c4.7,6.6,9.9,13,15.6,18.8c0,0.1-0.1,0.2-0.1,0.2c-0.4,1.8-0.8,3.7-1.2,5.5
						c-2.4,12.1-3.6,24.4-3.6,36.8c0,1.9,0,3.8,0.1,5.8c0.1,2.5,0.2,4.9,0.3,7.4c0.2,3.3,0.5,6.5,0.9,9.8
						c1.5,12.8,4.6,25.5,10.1,37.1c0,0.1,0.1,0.1,0.1,0.2c3.3,7,7.7,14.2,14.5,18.5c7.1,4.5,15.7,4.8,23.5,2.1
						c8.1-2.7,14.7-8.7,19.9-15.3c4.5-5.7,7.6-12.4,9.7-19.3c4.3-13.9,5.7-29.1,3.8-43.5c3.9,1,7.7,1.8,11.6,2.5
						C543.3,370.6,543.6,367.8,541.8,367.5z M521.8,414.9c-5.3,13.8-16.8,27.9-32.2,29.7c-8.2,1-15.6-2.2-21-8.3
						c-2.6-3-4.7-6.4-6.5-9.9c-1.7-3.2-3.1-6.6-4.3-9.9c-3-8.2-5-16.8-6.3-25.5c-1-7-1.5-14.1-1.7-21.1c0-0.5,0-1,0-1.6
						c0-2.2,0-4.3,0-6.5c0.2-12.4,1.6-24.8,4.4-36.9l0.3,0.3c11.8,11.7,25.4,21.5,40.1,29.1c10.3,5.4,21.2,9.6,32.4,12.7v0.1
						c0.2,1.6,0.4,3.2,0.5,4.8C528.6,386.3,526.9,401.5,521.8,414.9z"/>
				</g>
			</g>
		</g>
	</g>
</g>
</svg>
