<?xml version="1.0" encoding="utf-8"?>
<!-- Generator: Adobe Illustrator 25.1.0, SVG Export Plug-In . SVG Version: 6.00 Build 0)  -->
<svg version="1.1" id="Layer_1" xmlns="http://www.w3.org/2000/svg" xmlns:xlink="http://www.w3.org/1999/xlink" x="0px" y="0px"
	 viewBox="0 0 800 800" style="enable-background:new 0 0 800 800;" xml:space="preserve">
<style type="text/css">
	.st0{fill:#F9F7F7;}
	.st1{fill:#FFFFFF;}
</style>
<g>
	<g>
		<path d="M369.7,355.8c7-9.2,18.4-14.6,29.9-15c12.1-0.4,23.8,4.6,32.7,12.6c2.1,1.9,5.2-1.2,3.1-3.1c-9.9-8.9-23.1-14.5-36.6-13.9
			c-12.9,0.6-25.1,6.8-33,17.1C364.2,355.9,368,358,369.7,355.8L369.7,355.8z"/>
	</g>
	<g>
		<path d="M385.7,296.9c2.6-5.5,8.1-9.4,14.2-9.6c6.1-0.2,11.9,3.2,14.9,8.5c0.9,1.6,3.5,0.2,2.5-1.5c-3.5-6.1-10.3-10.2-17.4-9.9
			c-7.1,0.3-13.7,4.7-16.7,11.1C382.4,297.2,384.9,298.6,385.7,296.9L385.7,296.9z"/>
	</g>
	<g>
		<g>
			<path class="st0" d="M449.4,240c-4,10.8-7.6,25.6-8,37.1c0,1.1,0,2.3,0.7,3.1c0.7,0.7,1.7,0.9,2.7,1c10.9,1.3,22.1,1.3,33,0
				c9.3-1.1,18.6-3.3,26.8-7.9c8.2-4.6,15.1-11.9,17.8-20.9c2-6.6,2.7-13,0.5-19.6c-1.9-5.8-5.4-11.9-10-15.9
				c-4.7-3.9-12.8-5.3-18.8-4.8c-6.3,0.5-10.9,2.6-16,6.1c-11.6,7.9-20.4,11.9-29,23"/>
			<g>
				<path d="M448,239.6c-3,8.2-5.3,16.6-6.7,25.2c-0.7,4.1-1.3,8.2-1.3,12.3c-0.1,4,2.2,5.2,5.8,5.6c10,1.1,20.2,1.2,30.2,0.1
					c8.9-1,17.8-2.7,26-6.6c14.9-7,26-22.4,23.4-39.4c-1.2-7.9-5.7-16.6-12.1-21.5c-5.8-4.4-14.2-5.4-21.2-4.5
					c-9.2,1.2-16.4,7.2-24,12.1c-7.6,4.9-14.6,10.1-20.2,17.2c-1.2,1.5,0.9,3.5,2.1,2.1c4.4-5.5,9.6-10.1,15.4-14
					c2.8-1.9,5.7-3.7,8.6-5.6c3.1-2,6.1-4.2,9.4-6c6.4-3.4,14-4,21-2.2c7.7,2,12.7,8,15.8,15c6.8,15.3-0.5,32.4-14,41.2
					c-14,9-32.4,10.4-48.6,10c-2.5-0.1-5-0.2-7.5-0.4c-1.3-0.1-2.5-0.2-3.8-0.4c-1.7-0.2-3.3-0.4-3.4-2.4c-0.1-4.1,0.6-8.3,1.3-12.3
					c1.4-8.4,3.7-16.8,6.7-24.8C451.5,238.6,448.7,237.8,448,239.6L448,239.6z"/>
			</g>
		</g>
		<g>
			<path d="M439,255.2c19.8-28.7,52.2-46.9,87-49c3.7-0.2,3.8-6.1,0-5.9c-28.8,1.8-56.4,13.8-77.1,34.1c-5.6,5.4-10.5,11.5-15,17.8
				C431.8,255.3,436.8,258.3,439,255.2L439,255.2z"/>
		</g>
		<circle cx="474.7" cy="252.7" r="22.6"/>
		<circle class="st1" cx="460.4" cy="244.5" r="8.2"/>
	</g>
	<g>
		<g>
			<path class="st0" d="M352.7,238.9c4.7,10.6,9.2,25.1,10.3,36.6c0.1,1.1,0.2,2.3-0.5,3.1c-0.6,0.8-1.7,1-2.6,1.2
				c-10.8,2-21.9,2.7-32.9,2c-9.4-0.6-18.8-2.1-27.2-6.2c-8.4-4.1-15.8-10.9-19.1-19.7c-2.4-6.5-3.5-12.8-1.7-19.6
				c1.5-5.9,4.6-12.2,9-16.4s12.4-6,18.5-6c6.3,0.1,11,1.9,16.4,5.1c12.1,7.2,21.1,10.6,30.4,21.1"/>
			<g>
				<path d="M351.4,239.7c3.1,7.1,5.7,14.5,7.6,22.1c0.9,3.6,1.7,7.3,2.2,11c0.3,2,1.1,4.3-1,5.5c-0.8,0.4-2.2,0.4-3.1,0.6
					c-1.3,0.2-2.7,0.4-4,0.6c-8.7,1.2-17.5,1.5-26.2,0.9c-8.5-0.5-17.1-1.8-24.9-5.3c-13.9-6.1-25.1-20.6-22.1-36.6
					c1.3-7.1,5.1-15.5,11.4-19.4c5.9-3.6,14-4.6,20.7-3.1c4.2,0.9,7.8,3,11.5,5.1c3.4,2,6.9,3.8,10.3,5.8
					c6.9,3.9,13.1,8.4,18.4,14.3c1.3,1.4,3.3-0.7,2.1-2.1c-5.2-5.8-11.3-10.3-18.1-14.2c-3.6-2.1-7.3-4-10.8-6.1
					c-3.6-2.1-7.1-4.1-11.1-5.3c-7.2-2-15.4-1.2-22.2,1.9c-7.2,3.3-11.6,11-13.9,18.3c-5.3,16.4,3.8,33.6,18.2,41.8
					c7.7,4.4,16.6,6.4,25.3,7.4c10,1.1,20.3,0.9,30.3-0.4c2.6-0.3,5.3-0.7,7.9-1.2c1.8-0.3,3.6-0.8,4.4-2.6c0.8-1.8,0.3-3.9,0-5.7
					c-0.3-2.2-0.7-4.5-1.1-6.7c-2-9.6-5.1-19.1-9.1-28C353.2,236.5,350.7,237.9,351.4,239.7L351.4,239.7z"/>
			</g>
		</g>
		<g>
			<path d="M368.6,249.7c-17.3-22-42.2-37.5-69.5-43.1c-8.2-1.7-16.6-2.6-25-2.5c-3.8,0-3.8,5.9,0,5.9c35.2,0,68.6,16.3,90.4,44
				C366.8,256.8,370.9,252.7,368.6,249.7L368.6,249.7z"/>
		</g>
		<circle cx="328.3" cy="253.2" r="22.6"/>
		<circle class="st1" cx="342.1" cy="244.1" r="8.2"/>
	</g>
</g>
</svg>
