<?xml version="1.0" encoding="utf-8"?>
<!-- Generator: Adobe Illustrator 25.1.0, SVG Export Plug-In . SVG Version: 6.00 Build 0)  -->
<svg version="1.1" id="Layer_1" xmlns="http://www.w3.org/2000/svg" xmlns:xlink="http://www.w3.org/1999/xlink" x="0px" y="0px"
	 viewBox="0 0 800 800" style="enable-background:new 0 0 800 800;" xml:space="preserve">
<style type="text/css">
	.st0{fill:#FCFCFC;}
	.st1{fill:#FFFFFF;}
	.st2{fill:#F98F8F;}
</style>
<g>
	<g>
		<g>
			<path class="st0" d="M437,277.6c-2.3-10.7-1.5-22,2.4-32.2c3.9-10.2,10.8-19.2,19.7-25.6c9.3-6.7,22.2-8.3,32.9-4.3
				c6.5,2.4,11.1,5.3,15,11c4.4,6.3,7.3,13.7,7.6,21.4c0.3,7.7-2.3,15.6-7.7,21.1c-6.3,6.4-15.6,8.8-24.5,10
				C467.3,281,451.9,281.1,437,277.6"/>
			<g>
				<path d="M438.1,277.3c-3.3-15.3,0.1-31.6,9.3-44.3c4.1-5.7,9.5-11,15.7-14.4c6.2-3.4,13.5-4.7,20.5-3.9
					c6.5,0.7,13.5,3.3,18.3,7.8c5.4,4.9,9.1,12.3,10.7,19.3c1.7,7.2,0.9,15-2.8,21.5c-3.7,6.4-10,10.2-16.9,12.3
					c-8.5,2.6-17.8,3.3-26.7,3.5c-9.8,0.3-19.5-0.5-29-2.7c-1.4-0.3-2.1,1.9-0.6,2.2c9,2.1,18.2,2.9,27.4,2.8
					c8.6-0.1,17.5-0.8,26-2.7c7.2-1.7,14.5-4.8,19.3-10.7c4.8-5.9,6.9-13.6,6.4-21.2c-0.6-8.1-3.9-16.1-8.8-22.5
					c-4.3-5.5-10.5-9-17.2-10.9c-7.2-2-15.1-1.8-22.1,0.6c-7.2,2.4-13.2,7.2-18.2,12.8c-12.4,13.8-17.4,32.8-13.5,50.9
					C436.2,279.4,438.4,278.7,438.1,277.3L438.1,277.3z"/>
			</g>
		</g>
		<g>
			<path d="M385.1,283.7c1.5-5.6,7-9.7,12.8-9.3c5.6,0.4,10.6,5.3,11.2,10.9c0.2,1.5,2.5,1.5,2.3,0c-0.8-6.7-6.3-12.5-13.1-13.1
				c-6.9-0.7-13.7,4.3-15.4,10.9C382.5,284.6,384.7,285.2,385.1,283.7L385.1,283.7z"/>
		</g>
		<g>
			<path d="M460.9,207c8.2-5.6,18.5-7.9,28.3-6.1c9.2,1.7,17.6,6.9,23.2,14.4c0.7,1,2,1.5,3.2,0.8c1-0.6,1.6-2.2,0.8-3.2
				c-10.3-13.7-27.8-20.1-44.5-15.9c-4.8,1.2-9.3,3.2-13.4,6C456.1,204.7,458.4,208.7,460.9,207L460.9,207z"/>
		</g>
		<circle cx="464.6" cy="253.4" r="21.4"/>
		<circle class="st0" cx="479.3" cy="243.2" r="7.9"/>
		<g>
			<path class="st1" d="M364.4,278.6c3.2-10.4,1.9-21-1.1-31.5c-3-10.5-7.8-20.9-16.1-27.9c-8.7-7.4-21.5-10.1-32.4-7
				c-6.7,1.9-11.5,4.4-15.9,9.7c-4.9,5.9-8.5,13.1-9.4,20.7s2.5,17.4,7.4,23.3c5.8,6.9,13.3,8.4,22.1,10.3
				C333.9,279.4,349.2,280.8,364.4,278.6"/>
			<g>
				<path d="M365.5,278.9c2.6-8.7,2.3-17.9,0.3-26.7c-1.8-7.9-4.5-15.8-8.7-22.8c-3.9-6.5-9.1-12.2-15.9-15.6
					c-6.7-3.4-14.3-4.7-21.7-3.8c-6.8,0.9-13.7,3.4-18.8,8.1c-5.6,5.2-9.8,12.7-11.7,20.1c-1.8,7.3-0.6,14.6,2.5,21.4
					c3.1,6.6,8.1,11.6,14.8,14.3c3.3,1.3,6.9,2.1,10.4,2.9c4.4,1,8.9,1.9,13.4,2.5c9.2,1.3,18.5,1.8,27.8,1.1
					c2.2-0.2,4.5-0.4,6.7-0.8c1.5-0.2,0.8-2.4-0.6-2.2c-16.9,2.4-34.1,0.4-50.6-3.7c-6.5-1.6-12.6-4.2-16.7-9.8
					c-4.1-5.5-6.7-12.8-6.4-19.7c0.3-7.3,3.8-14.5,8.2-20.3c2.1-2.7,4.4-5.1,7.3-7c2.8-1.7,5.9-2.9,9-3.7c6.8-1.9,14.1-1.5,20.8,0.8
					c6.9,2.4,12.6,7,16.9,12.9c4.9,6.7,7.9,14.7,10.1,22.7c2.5,9.4,3.3,19.2,0.5,28.7C362.8,279.7,365.1,280.3,365.5,278.9
					L365.5,278.9z"/>
			</g>
		</g>
		<g>
			<path d="M340.7,198.7c-7.6-4.4-16.7-6.5-25.5-5.6c-8.3,0.8-16,4.1-22.5,9.2c-3.6,2.8-6.6,6.3-9.1,10.1c-1.6,2.5,2.4,4.8,4,2.3
				c5-7.7,12.8-13.5,21.7-15.9c9.7-2.7,20.4-1.2,29.1,3.8C341,204.2,343.3,200.2,340.7,198.7L340.7,198.7z"/>
		</g>
		<circle cx="320.1" cy="249.6" r="21.4"/>
		<circle class="st0" cx="337.8" cy="241" r="7.9"/>
	</g>
	<g>
		<path class="st2" d="M427.2,356.4c-4.2,0.9-8.5,0.4-12.7-0.1c-4.4-0.5-8.7-0.9-13.1-1c-9.7-0.3-19.4,0.6-28.9,2.4
			c-4.4,0.9-9.1,2.5-13.6,1.5c-0.3-0.1-0.6-0.2-0.9-0.3c5.2-9.8,14.5-17.2,25.3-20c10.7-2.9,22.1-0.8,31.4,5.1
			C419.8,347.1,424.1,351.4,427.2,356.4z"/>
		<g>
			<path d="M357.5,355.2c-6.3-13.9,1.4-29.1,12.5-37.9c10.9-8.6,25.7-12.1,39-7.6c6.5,2.2,12.3,6.3,16.5,11.8
				c4.2,5.5,7,12.2,8.4,18.9c0.7,3.5,0.9,7.4-1,10.5c-1.7,2.8-4.8,4.4-7.9,5.2c-3.7,1-7.6,0.6-11.3,0.3c-4.1-0.4-8.1-0.9-12.2-1
				c-8.8-0.3-17.6,0.4-26.3,2c-4.3,0.8-9.1,2.6-13.5,1.5c-3.3-0.8-4.3-3.8-5.3-6.8c-0.5-1.4-2.7-0.8-2.2,0.6
				c0.9,2.7,1.9,5.6,4.3,7.3c3,2,7.2,1.6,10.6,1c4.5-0.8,9-1.9,13.6-2.4c4.4-0.5,8.8-0.8,13.3-0.9c4.4-0.1,8.9,0.1,13.3,0.6
				c4.5,0.4,9,1.2,13.5,0.7c6.8-0.8,13.1-4.9,13.9-12.1c0.4-3.8-0.5-7.6-1.6-11.1c-1.1-3.6-2.6-7.1-4.4-10.4
				c-3.6-6.5-8.9-11.9-15.6-15.4c-13.6-7-29.8-5.2-42.5,2.9c-7,4.5-13.1,10.8-16.5,18.4c-3.6,8-4.1,17.2-0.5,25.2
				C356.1,357.7,358.1,356.6,357.5,355.2L357.5,355.2z"/>
		</g>
		<g>
			<path d="M360.6,359.1c4.6-9,13-15.7,22.6-18.6c9.9-2.9,20.6-1.2,29.3,4.3c4.9,3.1,9.1,7.2,12,12.2c0.8,1.3,2.8,0.1,2-1.2
				c-5.6-9.4-15.3-16.1-26.1-18.3c-10.5-2.1-21.5,0.5-30.2,6.8c-4.9,3.6-8.9,8.2-11.7,13.6C357.9,359.2,359.9,360.4,360.6,359.1
				L360.6,359.1z"/>
		</g>
		<g>
			<path d="M369.5,317.9c16.2,8.5,36,8.7,52.4,0.6c1.3-0.7,0.2-2.6-1.2-2c-15.6,7.7-34.7,7.4-50.1-0.6
				C369.3,315.2,368.2,317.2,369.5,317.9L369.5,317.9z"/>
		</g>
		<path d="M435.3,343.2c0.5,3.5,0.3,7.2-1.7,10c-1.5,2.1-3.7,3.4-6.1,4.3c-5.6-9.4-15-16.3-25.5-18.8c-11-2.6-22.4-0.2-31.6,6.4
			c-5,3.6-9.2,8.4-12.1,13.9c-0.8-0.9-1.4-2-1.9-3.2c-0.3-0.7-0.5-1.4-0.8-2.2l0-0.1c-4.1-13.7,3.3-27.9,13.8-36.4
			c11.4-9.2,27-12.7,40.9-7.3C424.1,315.1,433.1,328.7,435.3,343.2z"/>
		<path class="st1" d="M420.7,316.6c-15.3,7.5-34,7.4-49.2-0.3c11-8.1,25.6-11,38.6-6.1C414,311.6,417.6,313.8,420.7,316.6z"/>
	</g>
</g>
</svg>
