<?xml version="1.0" encoding="utf-8"?>
<!-- Generator: Adobe Illustrator 25.1.0, SVG Export Plug-In . SVG Version: 6.00 Build 0)  -->
<svg version="1.1" id="Layer_1" xmlns="http://www.w3.org/2000/svg" xmlns:xlink="http://www.w3.org/1999/xlink" x="0px" y="0px"
	 viewBox="0 0 800 800" style="enable-background:new 0 0 800 800;" xml:space="preserve">
<style type="text/css">
	.st0{fill:#FCFCFC;}
	.st1{fill:#0C0A0A;}
	.st2{fill:#FFFFFF;}
	.st3{fill:#F98F8F;}
</style>
<g>
	<g>
		<path d="M468.1,210.3c20.7-4.7,43.7,4.2,55.8,21.6c2.5,3.6,8.3,0.2,5.8-3.4c-13.8-20.1-39.6-30.2-63.4-24.7
			C462.1,204.8,463.9,211.3,468.1,210.3L468.1,210.3z"/>
	</g>
	<g>
		<path d="M333.7,195c-23.8-5.4-49.6,4.7-63.4,24.7c-2.5,3.6,3.4,7,5.8,3.4c12.1-17.5,35.1-26.4,55.8-21.6
			C336.1,202.5,337.9,196,333.7,195L333.7,195z"/>
	</g>
	<g>
		<path class="st0" d="M436.4,280.3c-0.1-10.8,1.9-21.8,6.7-31.5s12.6-18.1,22.4-22.7c9.8-4.6,21.7-5,31.4-0.2s16.8,15.1,16.8,25.9
			c0,10.4-6.3,20.1-14.8,26.1s-19,8.6-29.3,9.4C458,288.1,446.1,286.3,436.4,280.3"/>
		<g>
			<path d="M437.7,280.3c0-15,3.8-30.5,13.9-42c9.5-10.8,24.2-17.1,38.5-13.4c12.8,3.3,23.1,15.4,22,29c-1.2,14.6-13.8,25-27,29.1
				c-15.5,4.9-34,4.8-48.1-3.8c-1.5-0.9-2.9,1.4-1.4,2.3c13.7,8.3,30.9,8.9,46.2,5.2c14.5-3.5,28.5-12.9,32.2-28.1
				c3.4-13.7-4.4-28.1-16.9-34.1c-14.1-6.8-30.9-3-42.5,6.9c-14.2,12.1-19.7,30.8-19.7,48.9C435,282,437.7,282,437.7,280.3
				L437.7,280.3z"/>
		</g>
	</g>
	<g>
		<path class="st0" d="M362.5,277.4c0.6-10.8-0.7-21.9-5-31.8c-4.3-10-11.6-18.8-21.1-23.9c-9.6-5.1-21.4-6.2-31.4-1.9
			c-10,4.3-17.5,14.2-18.1,25c-0.6,10.4,5.2,20.4,13.4,26.9c8.2,6.4,18.5,9.6,28.8,10.9C340.5,284.1,352.4,282.9,362.5,277.4"/>
		<g>
			<path d="M363.9,277.4c0.9-16.1-2.6-32.8-13-45.5c-9.6-11.7-24.9-18.5-40.1-15.3c-13.6,2.9-25.1,15-25.2,29.3
				c-0.2,15.3,11.5,27.6,24.8,33.2c16.3,6.9,36.9,8.1,52.8-0.5c1.5-0.8,0.2-3.2-1.4-2.3c-13.3,7.1-29.4,6.8-43.6,2.8
				c-13.5-3.9-26.4-13.1-29.5-27.6c-2.8-13.4,6.1-26.7,18.7-31.1c13.9-4.8,29.2,0.5,39.1,10.9c11.7,12.3,15.4,29.7,14.6,46.2
				C361.1,279.2,363.8,279.2,363.9,277.4L363.9,277.4z"/>
		</g>
	</g>
	<g>
		<path class="st1" d="M345.4,319.3c0.3-4.7,4.3-8.5,8.7-10.2c4.4-1.7,9.3-1.6,14-1.5c20.6,0.3,41.2,0.6,61.8,1
			c5.8,0.1,12.1,0.4,16.5,4.2c3.1,2.7,4.6,6.9,4.8,11c0.1,4.1-1,8.2-2.7,11.9c-7.4,16.7-24.9,28-43.1,29.4s-36.6-6.6-49.2-19.9
			c-6.9-7.3-11.8-16.7-10.6-26.6"/>
		<g>
			<path d="M346.7,319.3c1.1-9.9,13.4-10.5,20.9-10.4c10,0.1,20,0.3,30,0.5c10,0.2,20,0.3,30,0.5c8.2,0.1,18.3,0.1,21.4,9.5
				c2.6,8.1-1.7,17.1-6.3,23.6c-4.5,6.2-10.5,11.3-17.3,14.9c-14.1,7.5-30.7,7.7-45.5,1.9c-16.2-6.4-35-21.9-33.1-41.1
				c0.2-1.7-2.5-1.7-2.7,0c-1.8,18.4,14.4,33.7,29.5,41.2c15.7,7.9,34.1,9.1,50.2,1.8c7.5-3.4,14.3-8.5,19.4-14.9
				c5.3-6.6,10-15.6,9.1-24.3c-0.4-4-2.1-7.9-5.1-10.6c-3.1-2.7-7.1-3.8-11.1-4.3c-5.1-0.6-10.2-0.4-15.3-0.5
				c-5.7-0.1-11.3-0.2-17-0.3c-12.7-0.2-25.5-0.6-38.2-0.6c-8.9,0-20.5,2.4-21.6,13.1C343.8,321,346.5,321,346.7,319.3L346.7,319.3z
				"/>
		</g>
	</g>
	<g>
		<path d="M357.6,309.8c2.5,6.7,8.5,10.7,15.1,12.6c7.9,2.3,16.7,2.7,24.9,2.5c13.1-0.4,30.5-2.2,38.1-14.4c0.9-1.5-1.4-2.8-2.3-1.4
			c-6.9,11.1-23.2,12.6-34.9,13c-7.4,0.3-15.1-0.1-22.3-1.7c-6.6-1.4-13.4-4.7-15.9-11.4C359.6,307.5,357,308.2,357.6,309.8
			L357.6,309.8z"/>
	</g>
	<g>
		<path d="M372.1,356.7c6.4-7.3,16.1-11.9,25.9-11.5c9.9,0.4,19.3,5.9,24.8,14.1c1,1.4,3.3,0.1,2.3-1.4c-6-8.9-15.8-14.7-26.5-15.4
			c-10.7-0.7-21.5,4.4-28.5,12.3C369.1,356.1,371,358.1,372.1,356.7L372.1,356.7z"/>
	</g>
	<g>
		<path d="M386.6,289c2.4-5,7.7-8.3,13.3-8.1c5.3,0.2,10.4,3.8,12.4,8.7c0.9,2.1,4.4,1.2,3.5-1c-2.6-6.4-8.5-10.9-15.4-11.4
			c-6.9-0.5-13.8,3.7-16.8,9.9C382.5,289.3,385.6,291.1,386.6,289L386.6,289z"/>
	</g>
	<g>
		<circle cx="470.2" cy="259" r="22"/>
		<circle class="st2" cx="455.5" cy="247.7" r="6.1"/>
	</g>
	<g>
		<circle cx="331" cy="256.8" r="22"/>
		<circle class="st2" cx="316.3" cy="245.5" r="6.1"/>
	</g>
	<g>
		<path class="st2" d="M360.5,309.2c2.6-0.3,5.2-0.3,7.3-0.3c10,0.1,20,0.3,29.9,0.5c10,0.2,20,0.3,30,0.5c1.7,0,3.5,0.1,5.3,0.2
			c-7.2,10.3-22.9,11.7-34.4,12.1c-7.4,0.3-15.1-0.1-22.3-1.6C369.8,319.1,363,315.9,360.5,309.2z"/>
		<path class="st3" d="M422.9,359.2c-13.5,6.2-28.9,6-42.7,0.5c-2.4-0.9-4.9-2.1-7.3-3.4c6.4-7,15.8-11.4,25.4-11
			C408,345.6,417.3,351.1,422.9,359.2z"/>
	</g>
</g>
</svg>
