<?xml version="1.0" encoding="utf-8"?>
<!-- Generator: Adobe Illustrator 25.1.0, SVG Export Plug-In . SVG Version: 6.00 Build 0)  -->
<svg version="1.1" id="Layer_1" xmlns="http://www.w3.org/2000/svg" xmlns:xlink="http://www.w3.org/1999/xlink" x="0px" y="0px"
	 viewBox="0 0 800 800" style="enable-background:new 0 0 800 800;" xml:space="preserve">
<style type="text/css">
	.st0{fill:#FCFCFC;}
	.st1{fill:#F98F8F;}
	.st2{fill:#8DB0F7;}
</style>
<g>
	<path d="M440.6,354.2c-2.8,1.3-5.6,1.8-8.4,1.7c-6.6-0.1-13.3-2.9-19.6-4.5c-15.2-4-30.3,1.8-45.5,2.8c-1.3,0.1-2.6,0.2-3.9,0.1
		l-13.2-2.7c-2.1-1.7-3.2-4.2-4.4-6.5c-1.2-2.5-1.9-5.1-2-7.8l3-15c2.6-5.5,6.5-10.3,11.3-13.8c1.1-0.8,2.1-1.5,3.2-2.1
		c7.3-4.3,16-6.2,24.4-7.3c5.4-0.7,10.9-0.9,16.3-1.1c5.5-0.1,11.1-0.3,16.6-0.1c0.4,0,0.8,0,1.2,0.1l17.5,3.5
		c3,1.3,5.8,2.9,8.3,5.2c3.2,2.9,5.7,6.5,6.9,10.7c1.3,4.6,1,9.4,0.3,14.1C451.2,339.9,449,350.3,440.6,354.2z"/>
	<path class="st0" d="M434.4,300.5l-1,3.8c-3.3,2.4-7.1,4.8-10.9,6.5c-18.2,8.1-38.7,5.1-55.4-5.6c-0.1-0.1,1.5-0.8,1.4-0.9
		c-2,0.9,1.1-1.1-0.7,0.1l-6.6,2c7.3-4.3,16-6.2,24.4-7.3c5.4-0.7,10.9-0.9,16.3-1.1c5.5-0.1,11.1-0.3,16.6-0.1c0.4,0,0.8,0,1.2,0.1
		c0.7,0,1.4,0.1,2.1,0.1c0.7,0,1.4,0.1,2.1,0.2c0.9,0.1,1.8,0.2,2.7,0.3c1.4,0.2,2.7,0.4,4,0.8C431.8,299.7,433.1,300.1,434.4,300.5
		z"/>
	<path class="st1" d="M432.4,354.7l-0.2,1.2c-6.6-0.1-13.3-2.9-19.6-4.5c-15.2-4-30.3,1.8-45.5,2.8l-7.7-1.5l3.5,0.2
		c1.1,0.1,1.2,0.3,2.3,0.3c0.5,0-0.3-0.3,0.2-0.3c1.5-5.4,4.5-9.7,9-12.9c9-6.3,20-6.7,30.5-4.6c10,2.1,19.3,8,21.6,18.6
		C428.1,354.3,430.8,354.7,432.4,354.7z"/>
	<g>
		<g>
			<path class="st2" d="M304.3,263.5c-10.4-4.3-25-2.9-33.4,4.6c-2.4,2.2-4.6,5.5-3.4,8.5c0.8,1.9,2.7,3,4.7,3.3
				c2,0.2,4-0.3,5.8-1.2c4.7-2.1,8.5-5.9,12.6-9.2c4.1-3.2,8.9-6.1,14.1-5.7"/>
			<g>
				<path d="M304.5,263c-10-4-22.9-3.3-31.8,3.1c-3.6,2.6-8.7,8.2-4.4,12.5c4.6,4.6,11.9,0.2,16-3c6.2-4.7,12.1-11.6,20.6-11.2
					c0.7,0,0.7-1.1,0-1.1c-5.4-0.2-10.2,2.5-14.3,5.7c-4.6,3.6-9.2,8.7-15.1,10.1c-3.5,0.8-8.3-0.7-7.6-5.1c0.5-3,3.2-5.4,5.6-7.1
					c4.2-2.9,9.2-4.5,14.3-5c5.6-0.6,11.3,0.1,16.5,2.2C304.8,264.3,305.1,263.2,304.5,263L304.5,263z"/>
			</g>
		</g>
		<g>
			<g>
				<path d="M456.6,199.2c13.6-5.9,29.7-0.4,37.2,12.3c1.8,3,6.6,0.3,4.7-2.8c-4.1-7-10.5-12.3-18.1-15.2c-8.6-3.3-18.2-2.6-26.6,1
					C450.6,195.9,453.4,200.6,456.6,199.2L456.6,199.2z"/>
			</g>
			<g>
				<path d="M313.2,201.5c9.7-11.7,26.3-14.4,39.2-6.2c3,1.9,5.8-2.8,2.8-4.7c-14.8-9.4-34.6-6.5-45.8,7
					C307.1,200.4,311,204.3,313.2,201.5L313.2,201.5z"/>
			</g>
			<g>
				<path d="M393.9,285.4c1.9-4.4,6.7-7.4,11.5-7.1c4.7,0.3,8.9,3.8,10.3,8.3c0.4,1.3,2.5,0.8,2.1-0.6c-1.7-5.4-6.7-9.5-12.4-9.9
					c-5.9-0.4-11.4,3.4-13.6,8.7C391.2,286.1,393.4,286.6,393.9,285.4L393.9,285.4z"/>
			</g>
			<g>
				<path d="M437.3,261.4c4.7-8.3,14.2-13.5,23.8-12.7c9.3,0.7,17.8,7.3,21.1,16c1,2.6,5.3,1.5,4.2-1.2c-4-10.4-13.5-18-24.6-19.2
					c-11.3-1.2-22.7,5.1-28.2,14.9C432.1,261.6,435.9,263.9,437.3,261.4L437.3,261.4z"/>
			</g>
			<g>
				<path class="st2" d="M483.7,272.6c-3.5,7.3-6.2,15.4-7,23.5c-0.2,1.8-0.2,3.9,1,5.3c1.7,1.8,4.8,1.3,6.7-0.3
					c3.3-2.8,4.1-7.5,4-11.8c-0.2-6-1.7-11.9-4.4-17.2"/>
				<g>
					<path d="M483.2,272.3c-2.3,4.9-4.3,10-5.6,15.3c-0.6,2.6-1.1,5.3-1.4,7.9c-0.2,1.9-0.4,4.1,0.8,5.8c2.3,3.3,7,1.4,9.1-1.1
						c2.6-3.2,3.1-7.6,2.9-11.5c-0.3-5.9-1.8-11.7-4.5-17c-0.3-0.6-1.3-0.1-0.9,0.6c2.6,5.1,4.1,10.7,4.4,16.4
						c0.2,4.5-0.5,10.9-5.3,12.9c-1.1,0.5-2.5,0.6-3.6,0c-1.4-0.7-1.7-2.3-1.8-3.7c0-2.8,0.6-5.6,1.2-8.3c1.3-5.8,3.4-11.3,5.9-16.6
						C484.4,272.2,483.5,271.7,483.2,272.3L483.2,272.3z"/>
				</g>
			</g>
			<g>
				<path class="st2" d="M506.7,282.8c11.5-3.6,26.5-0.2,34,9.2c2.5,3.1,4.3,7.6,2.2,10.9c-2.2,3.5-7.7,3.5-11.2,1.3
					c-3.5-2.2-5.8-6-8.4-9.2c-4.4-5.4-10.2-9.6-16.6-12.2"/>
				<g>
					<path d="M506.8,283.3c10.6-3.3,23.9-0.9,31.8,7.2c2.2,2.2,4.3,5.2,4.5,8.4c0.3,3.6-2.3,6-5.7,6.2c-6.8,0.4-10.4-6.3-14.1-10.8
						c-4.5-5.4-10.2-9.5-16.7-12.1c-0.7-0.3-0.9,0.8-0.3,1.1c7.6,3.1,13.5,8.2,18.4,14.7c3.5,4.6,8.2,9.8,14.6,8
						c6.5-1.8,5.3-9.3,2.2-13.6c-3.5-4.8-8.8-8-14.3-9.8c-6.7-2.1-14-2.3-20.7-0.3C505.9,282.5,506.1,283.6,506.8,283.3L506.8,283.3
						z"/>
				</g>
			</g>
			<g>
				<path d="M313.1,258.5c5.7-8.2,15.5-13.3,25.5-13.2c10,0.1,19.6,5.5,25.1,13.8c1.6,2.3,5.4,0.1,3.8-2.2
					c-6.4-9.6-17.3-15.8-28.9-16c-11.6-0.2-22.7,5.9-29.3,15.3C307.7,258.6,311.5,260.8,313.1,258.5L313.1,258.5z"/>
			</g>
		</g>
	</g>
	<g>
		<path d="M452.6,331.5c0.8-4.6,1-9.5-0.3-14.1c-1.2-4.2-3.7-7.8-6.9-10.7c-2.5-2.3-5.3-3.9-8.3-5.2c-0.9-0.4-1.8-0.7-2.8-1
			c-1.3-0.4-2.6-0.8-3.9-1.1c-1.3-0.3-2.6-0.6-4-0.8c-0.9-0.1-1.8-0.2-2.7-0.3c-0.7-0.1-1.4-0.1-2.1-0.2c-0.7-0.1-1.4-0.1-2.1-0.1
			c-0.4,0-0.8,0-1.2-0.1c-5.5-0.2-11.1,0-16.6,0.1c-5.4,0.2-10.9,0.4-16.3,1.1c-8.4,1-17,2.9-24.4,7.3c-1.1,0.6-2.2,1.4-3.2,2.1
			c-4.8,3.6-8.8,8.4-11.3,13.8c-1.4,2.9-2.3,6.1-2.8,9.3c-0.3,1.9-0.4,3.8-0.2,5.7c0.2,2.7,0.8,5.3,2,7.8c1.2,2.4,2.3,4.9,4.4,6.5
			c0.4,0.3,0.8,0.6,1.3,0.9c1.6,0.9,3.5,1.2,5.3,1.5c0.1,0,0.1,0,0.2,0c0,0,0,0,0,0c2.1,0.3,4.3,0.4,6.4,0.3c1.3,0,2.6,0,3.9-0.1
			c15.2-1,30.3-6.8,45.5-2.8c6.2,1.6,13,4.4,19.6,4.5c2.8,0.1,5.7-0.4,8.4-1.7C449,350.3,451.2,339.9,452.6,331.5z M448.3,340.6
			c-1.2,4.1-3.2,8.2-6.8,10.6c-2.8,1.9-5.8,2.6-9,2.6c-1.5,0-3.1-0.2-4.6-0.4c-0.8-0.1-1.6-0.3-2.4-0.5c-3.5-0.8-6.9-2-10-2.9
			c-4.5-1.3-9-2.2-13.7-2.2c-4.3-0.1-8.7,0.4-12.9,1.1c-7.5,1.1-14.9,2.8-22.4,3.3c-0.8,0-1.5,0.1-2.3,0.1c-0.5,0-0.9,0-1.4,0
			c-1.1,0-2.2,0-3.3-0.1c-0.8-0.1-1.7-0.2-2.5-0.3c-0.2,0-0.3,0-0.5-0.1c-0.1,0-0.2,0-0.3,0c-3-0.5-5.3-1.6-6.9-4.3
			c-2.1-3.5-3.5-7.2-3.6-11.4c-0.2-8.9,4.5-17.7,10.9-23.6c1.3-1.1,2.6-2.2,4-3.1c1.8-1.2,3.7-2.2,5.7-3.1c0.8-0.4,1.6-0.7,2.4-1
			c4.2-1.6,8.7-2.7,13.1-3.4c10-1.6,20.2-1.7,30.3-1.8c7.1-0.1,14.5,0.2,21.3,2.4c0.2,0.1,0.4,0.1,0.5,0.2c0.6,0.2,1.3,0.4,1.9,0.7
			c1.5,0.6,3,1.4,4.4,2.2c3.5,2.1,6.5,5.1,8.4,8.7c2.2,4.1,2.6,8.8,2.2,13.3C450.6,332,449.6,336.4,448.3,340.6z"/>
	</g>
	<g>
		<path d="M425.9,354.2c-0.1-0.4-0.2-0.9-0.3-1.3c-1.2-4.4-4.1-8.2-7.7-11.1c-8.2-6.3-20.1-7.4-30-5.8c-9.2,1.4-18.4,6.9-21.3,16.1
			c-0.1,0.3-0.2,0.6-0.2,0.9c-0.2,0.7-0.8,0.9-1.4,0.8c-0.5-0.1-1-0.6-0.8-1.2c0-0.1,0.1-0.2,0.1-0.3c1.5-5.4,5.1-9.9,9.6-13.1
			c9-6.3,21.5-7,32-4.8c10,2.1,19.9,8.5,22.2,19.1c0,0.1,0,0.1,0,0.1C428.2,354.9,426.2,355.6,425.9,354.2z"/>
	</g>
	<g>
		<path d="M436,303.3c-0.1,0-0.1,0.1-0.1,0.1c-0.8,0.6-1.6,1.3-2.4,1.9c-3.3,2.4-6.9,4.5-10.7,6.2c-18.2,8.1-39.5,5.8-56.2-5
			c-0.1-0.1-0.2-0.1-0.2-0.2c-0.7-0.8,0.2-2.4,1.2-1.7c0.4,0.3,0.8,0.5,1.2,0.7c4.4,2.7,9,4.8,13.9,6.3c9.2,2.8,18.9,3.4,28.3,1.4
			c8.2-1.7,15.9-5.4,22.5-10.5c0.3-0.2,0.5-0.3,0.7-0.5c0.2-0.2,0.5-0.4,0.7-0.5C435.9,300.6,437.1,302.4,436,303.3z"/>
	</g>
</g>
</svg>
