<?xml version="1.0" encoding="utf-8"?>
<!-- Generator: Adobe Illustrator 25.1.0, SVG Export Plug-In . SVG Version: 6.00 Build 0)  -->
<svg version="1.1" id="Layer_1" xmlns="http://www.w3.org/2000/svg" xmlns:xlink="http://www.w3.org/1999/xlink" x="0px" y="0px"
	 viewBox="0 0 800 800" style="enable-background:new 0 0 800 800;" xml:space="preserve">
<style type="text/css">
	.st0{clip-path:url(#SVGID_2_);}
	.st1{fill:#5E7F8C;}
	.st2{fill:#516C7D;}
	.st3{fill:#FFFFFF;}
	.st4{fill:#F5E5CE;}
	.st5{fill:#DCF2E0;}
	.st6{fill:#F2BF5E;}
	.st7{fill:none;}
</style>
<g id="Group_10536" transform="translate(-0.021 0.385)">
	<g>
		<defs>
			<rect id="SVGID_1_" x="9.4" y="6.5" width="781.2" height="786.3"/>
		</defs>
		<clipPath id="SVGID_2_">
			<use xlink:href="#SVGID_1_"  style="overflow:visible;"/>
		</clipPath>
		<g id="Group_8808" transform="translate(0)" class="st0">
			<g id="Group_8807" transform="translate(14.948)">
				<g id="Group_8793">
					<path id="Path_6311" d="M687.4,269.8c-42.5-12-83.5-8.2-112.6,10.4c-25.1,16.1-40.6,41.8-46,76.4c-5.2,33.5-9.8,60.1-18.7,84.9
						c-28.6-22.2-66.5-31.6-91.5-35.6c-8.8-20.7-17-36.4-20.7-43.2c31.7-12.4,59.1-33.6,79-61.2c7.3,3.9,15.4,6.2,23.7,6.8
						c0.7,0,1.4,0,2.1-0.1c4.4,0.1,8.2-3.2,8.8-7.5c0.5-5.4-1-10.7-4.3-15c2.4,0.7,5,0.5,7.2-0.8c3.5-2.2,4.3-7.1,2.5-14.8
						c-3.2-12.4-9.4-23.9-18-33.4c0.1-1.2,0.1-2.4,0.1-3.6c-0.2-26.6-9.2-52.3-25.4-73.3c28.8-76.1-1.8-147.7-2.8-149.9
						c0,0,0,0,0-0.1c-0.1-0.2-0.2-0.4-0.4-0.6c-0.2-0.2-0.3-0.3-0.5-0.4l0,0c-0.3-0.2-0.6-0.3-1-0.4c-0.1,0-0.2,0-0.4,0
						c-0.1,0-0.3,0-0.4,0c-58.5,3.4-105.5,56.7-123.5,80.3c-26.8-4.1-54.1-3.9-80.8,0.5c-18.3-23.8-65-76.5-123.2-79.8
						c-0.1,0-0.2,0-0.3,0H140c-0.6,0-1.1,0.2-1.5,0.6c-0.1,0.1-0.2,0.2-0.2,0.2c-0.2,0.2-0.3,0.4-0.4,0.6
						c-0.3,0.8-31.4,74.9-2,151.9c-15,20.4-23.2,45.1-23.5,70.4c0,1.2,0,2.4,0.1,3.6c-8.6,9.5-14.7,21-18,33.4
						c-1.8,7.7-1,12.6,2.5,14.8c2.2,1.2,4.8,1.5,7.2,0.8c-3.3,4.3-4.8,9.6-4.3,15c0.6,4.4,4.4,7.6,8.8,7.5c0.7,0.1,1.4,0.1,2.2,0.1
						c8.3-0.6,16.3-2.9,23.7-6.8c19.9,27.6,47.3,48.8,79,61.2c-4.2,7.7-12.3,23.2-20.8,43.2c-29.1,4.7-75.4,16.7-104.3,47.3
						c-26.1,27.6-17.7,43.3-12.9,48.8c6.1,6.2,14.5,9.5,23.2,9.1c10.1-0.1,20-3.4,28.2-9.3c13.2-8.7,27.1-16.2,41.6-22.4
						c-10.7,47.7-7.7,86.2,8.8,114.5c4.3,7.4,9.6,14.2,15.8,20.1c-22.6,51.5-54.9,136.1-37.8,165.4c3.8,6.6,10.8,10.7,18.4,10.8
						c0.6,0,1.3,0.1,1.9,0.1c46.4,0,71.1-91.4,81.7-145.7c16,3,32.2,4.5,48.5,4.5c17.5,0.1,35-1.7,52.1-5.3
						c10.5,54.2,35.2,146.4,81.8,146.4c0.6,0,1.3,0,1.9-0.1c7.6,0,14.6-4.1,18.4-10.8c17.4-29.8-16.4-116.8-39-168
						c0.4-0.4,0.8-0.9,1.2-1.3c5.6-6.1,10.4-12.9,14.2-20.2c10.7-5,20.4-11.9,28.6-20.4c18.2-17.9,34.6-37.5,49.2-58.4
						c8.2,0.1,16-3.2,21.7-9.1c3.6-4.1,9.3-14.1,0.6-30.6c15-33.4,21.1-67.1,27.7-109.3c3.7-24,13.8-41.5,29.9-51.8
						c20.4-13.1,50.8-15.3,83.5-6.1c9.5,2.7,19.4-2.8,22.1-12.3c0,0,0,0,0,0C702.5,282.4,696.9,272.5,687.4,269.8z M468.6,17.7
						L468.6,17.7c6.5,18.1,23.3,75.1,2,136c-0.2,0.6-0.4,1.1-0.6,1.7c-20.5-24.2-47-42.7-76.8-53.7c-0.6-0.2-1.2-0.5-1.9-0.7
						c17.6-27.5,64.8-74.7,76.3-86C467.9,15.7,468.3,16.6,468.6,17.7L468.6,17.7z M462.1,13.8c-14.7,14.5-58.6,58.9-75.3,85.6
						c-0.3-0.1-0.7-0.2-1-0.4c-11.6-4.2-23.5-7.5-35.6-9.8C368.3,66.1,410.3,20.1,462.1,13.8L462.1,13.8z M258.4,90.2
						c-0.5,0.1-0.9,0.2-1.4,0.3c-0.2,0-0.3,0-0.4,0.1c-1,0.2-1.9,0.4-2.9,0.6l-1.3,0.3c-0.5,0.1-1.1,0.2-1.6,0.4
						c-1.4,0.3-2.8,0.6-4.2,1c-0.2,0-0.4,0.1-0.6,0.1c-1.3,0.3-2.5,0.6-3.8,1c-0.7,0.2-1.3,0.3-2,0.5c-3.2,0.9-6.4,1.8-9.6,2.8l0,0
						c-1.2,0.4-2.4,0.8-3.6,1.2l-1.5,0.5c-1.3,0.4-2.5,0.9-3.8,1.3c-16.7-26.7-60.6-71.1-75.3-85.6C198.3,21,240.3,67,258.4,90.2
						L258.4,90.2z M140,18.8c0.4-1.1,0.7-2,1-2.8c11.5,11.4,58.7,58.5,76.3,86c-30.6,11.3-57.5,30.7-78,56.1c-0.2-0.6-0.5-1.3-0.7-2
						C117.3,95.4,133.6,37.4,140,18.8L140,18.8z M138.6,299.2c2.7-1.4,5-3.5,6.5-6.1c0.5-1.2-0.2-2.6-1.4-3.1
						c-0.5-0.2-1-0.2-1.4-0.1c-0.8,0.2-1.4,0.7-1.7,1.5c-1.3,1.6-2.9,2.9-4.7,3.8c-0.7,0.4-1.4,0.8-2.2,1.2
						c-0.7,0.4-1.4,0.7-2.1,1.1c-6.9,3.8-14.7,5.9-22.6,5.9c-3.7-0.4-4.4-2.1-4.6-3.5c-1.2-8.3,6.6-15.9,11.7-19.9
						c2.1-1.4,3.8-2.6,4.5-3.2c0.1-0.1,0.1-0.1,0.2-0.2c0.9-0.9,1-2.4,0.1-3.3c-0.4-0.4-1-0.7-1.6-0.7c-0.5,0-0.9,0.1-1.3,0.3
						c-1.6,1-3.2,2-4.6,3.2c-5.3,3.4-11.7,6.3-14,4.8c-1.5-0.9-1.6-4.6-0.4-9.7c2.6-10,7.3-19.4,13.8-27.4c0.7-0.9,1.5-1.8,2.2-2.7
						c0.7-0.8,1.5-1.8,2.2-2.6c3.1-3.4,6.4-6.7,10-9.6l0.8-0.6c1.1-0.8,1.3-2.3,0.5-3.3c-0.8-1.1-2.3-1.3-3.3-0.5l0,0
						c-2.8,2.2-5.5,4.6-8,7.2c0.6-24.2,8.7-47.7,23.2-67.1l0.2-0.3c20.7-27.1,48.9-47.5,81.1-58.8c0,0,0.2-0.1,0.2-0.1
						c0.1,0,0.1,0,0.2-0.1l0.1-0.1c13.3-5,27.1-8.7,41.1-11.1l0.2-0.1c0.2,0,0.4-0.1,0.7-0.1c28.4-4.8,57.4-4.6,85.8,0.5
						c11,2,21.8,4.7,32.4,8.2c0,0,0.1,0,0.1,0c1.8,0.6,3.5,1.2,5.2,1.8l0,0c1.4,0.5,2.7,1,4.1,1.5c30.2,11,56.8,30.1,77,55.1l0,0
						c0.3,0.3,0.5,0.6,0.7,1c15.6,19.9,24.3,44.3,24.9,69.5c-2.5-2.6-5.2-5-8.1-7.2c-1.1-0.8-2.6-0.6-3.3,0.5
						c-0.8,1.1-0.6,2.6,0.5,3.3c0,0,0.3,0.2,0.8,0.6c3.6,2.9,6.9,6.1,10,9.6c0.7,0.8,1.5,1.7,2.2,2.6s1.4,1.8,2.2,2.7l0,0
						c6.5,8,11.2,17.4,13.8,27.4c1.2,5.1,1.1,8.8-0.4,9.7c-2.4,1.5-8.7-1.4-14-4.8c-1.5-1.2-3-2.2-4.6-3.2c-1.1-0.7-2.6-0.3-3.3,0.8
						c-0.6,1-0.4,2.2,0.4,3c0.1,0.1,0.1,0.1,0.2,0.2c0.8,0.6,2.4,1.8,4.5,3.2c5.1,4,12.9,11.6,11.7,19.9c-0.2,1.4-0.9,3-4.6,3.5
						c-7.9-0.1-15.7-2.1-22.6-5.9c-0.7-0.4-1.4-0.7-2-1.1c-0.8-0.4-1.5-0.8-2.1-1.2c-1.9-0.9-3.5-2.2-4.7-3.8
						c-0.3-0.7-0.9-1.3-1.7-1.5c-0.5-0.1-1-0.1-1.4,0.1c-1.2,0.5-1.8,1.8-1.4,3.1c1.6,2.6,3.8,4.7,6.5,6.1
						c-19.8,27.2-47.1,48-78.6,59.9h0c-0.1,0-0.2,0-0.3,0.1l-0.3,0.1c-0.5,0.1-0.9,0.3-1.4,0.4c-56.7,14.4-116.1,14.4-172.8,0
						c-0.6-0.1-1.1-0.3-1.7-0.5c-0.1,0-0.2,0-0.3,0c0,0,0,0,0,0C185.7,347.2,158.4,326.4,138.6,299.2L138.6,299.2z M175.5,785.5
						c-0.5,0-1.1,0-1.6,0c-6,0-11.6-3.2-14.5-8.4c-15.7-27,15.3-108.6,37.5-159.5c16.1,13.1,35.2,22.1,55.6,26.1
						C241.9,696.7,218.1,785.5,175.5,785.5L175.5,785.5z M455.8,777.1c-3,5.2-8.5,8.4-14.5,8.4c-0.5,0-1.1,0-1.6,0
						c-42.9,0-66.7-89.8-77.1-142.8c20.3-4.4,39.1-13.9,54.7-27.7C439.5,665.8,471.7,749.6,455.8,777.1L455.8,777.1z M461.6,566.2
						c-6.4,6.6-13.8,12.2-21.9,16.7c0.3-0.6,0.5-1.3,0.8-1.9c4.8-12.5,7.6-25.8,8.3-39.2c12.5-12.8,24.1-26.4,34.7-40.7
						c0.4,0.3,0.8,0.5,1.1,0.8c7,5.1,15.3,8.2,23.9,9.1C494.5,530.7,478.8,549.2,461.6,566.2L461.6,566.2z M442.8,479.4
						c12.7,5.5,24.9,11.9,36.7,19c-9.4,12.7-19.6,24.8-30.5,36.2C449.1,516,447,497.5,442.8,479.4L442.8,479.4z M532.3,498.9
						c-3.9,4-9.1,6.5-14.7,7.1c-1,0.2-2,0.3-3.1,0.3c-1,0.1-1.9,0.1-2.9,0.1c-8.7-0.3-17.2-3.2-24.3-8.3c-0.4-0.3-0.7-0.5-1.1-0.8
						c-0.6-0.5-1.3-0.9-2-1.4c-0.7-0.5-1.3-0.9-2-1.3c-13.1-8-26.8-15-40.9-21c-0.9-0.4-1.7-0.8-2.6-1.1c-1-0.4-1.9-0.8-2.9-1.2l0,0
						c-24.6-10.7-47.5-18.9-49.1-19.5c-0.2-0.1-0.3-0.1-0.5-0.1c-1.1-0.1-2.2,0.5-2.5,1.6c-0.4,1.2,0.2,2.6,1.4,3c0,0,0,0,0,0
						c0.4,0.2,25.9,9.3,52.2,20.9c4.4,17.8,6.7,36.1,7,54.5c0,2.8-0.1,5.5-0.2,8.2c-0.1,1.2-0.1,2.4-0.2,3.6l0,0
						c-0.1,1.2-0.2,2.5-0.3,3.7c-1,11-3.5,21.8-7.5,32.1c-0.9,2.4-2,4.7-3.1,6.9c-0.6,1.1-1.1,2.2-1.7,3.3c-0.6,1.1-1.2,2.2-1.8,3.2
						c-3,5-6.6,9.8-10.6,14.1c-0.1,0.1-0.1,0.1-0.2,0.2c-0.5,0.6-1.1,1.2-1.7,1.7c-0.6,0.6-1.2,1.2-1.8,1.8
						c-15.1,13.8-33.6,23.3-53.5,27.6c-0.8,0.2-1.6,0.4-2.3,0.6s-1.6,0.4-2.4,0.6l0,0c-16.9,3.5-34,5.2-51.2,5.2
						c-16,0-31.9-1.4-47.6-4.4c-0.8-0.2-1.6-0.3-2.4-0.5s-1.6-0.3-2.4-0.5c-20.1-3.9-38.8-12.8-54.4-26c-0.6-0.6-1.3-1.1-1.9-1.7
						c-0.6-0.6-1.3-1.2-1.9-1.8c-5.4-5.3-10-11.3-13.8-17.8c-18.7-32.1-16.7-74.7-7.3-114.6c26.3-11.6,51.7-20.7,52.2-20.9
						c1.2-0.4,1.9-1.8,1.4-3c0,0,0,0,0,0c-0.4-1.1-1.4-1.7-2.5-1.6c-0.2,0-0.3,0.1-0.5,0.1c-1.7,0.6-24.5,8.8-49.1,19.5
						c-1,0.4-1.9,0.8-2.9,1.3s-1.9,0.8-2.8,1.2c-16,6.7-31.3,14.9-45.8,24.4c-16.5,11.9-36.9,10-44.9,0.9
						c-8.3-9.5-3.7-24.9,12.8-42.3c26.7-28.3,70-40.2,98.6-45.2c1-0.2,1.9-0.3,2.8-0.5c0.9-0.2,1.9-0.3,2.9-0.5
						c7.7-1.2,15.5-2.1,23.4-2.5c0.1,0,0.1,0,0.2,0c1.2-0.1,2.1-1.2,2.1-2.4c0-1.3-1.1-2.3-2.4-2.3c0,0-0.1,0-0.1,0
						c-1.1,0-9.1,0.4-21,2c8.5-19.6,16.2-34.3,19.7-40.6c0-0.1,0.1-0.2,0.1-0.3l0,0c6.7,1.8,13.4,3.3,20.3,4.6c0,0,0,0,0.1,0
						c12.3,2.4,24.8,4.1,37.3,5.1c0,0,0,0,0,0c9.9,0.8,19.8,1.2,29.9,1.2c10,0,19.9-0.4,29.7-1.2h0.1c12.6-1,25.1-2.7,37.5-5.1
						c0.1,0,0.1,0,0.2,0c6.8-1.3,13.5-2.8,20.1-4.6h0c0.1,0.1,0.1,0.2,0.1,0.3c3.4,6.2,11.2,20.9,19.7,40.6c-11.9-1.7-19.9-2-21-2
						c-1.3,0-2.4,1-2.5,2.3c-0.1,1.2,0.9,2.3,2.1,2.4c0.1,0,0.1,0,0.2,0c7.8,0.5,15.7,1.3,23.4,2.5l0,0c0.9,0.1,1.9,0.3,2.9,0.5
						c0.9,0.1,1.8,0.3,2.7,0.4c24.9,4.3,61,13.9,87.5,35c0.7,0.5,1.3,1.1,2,1.6c0.7,0.6,1.3,1.1,1.9,1.7c2.5,2.2,5,4.5,7.3,7
						c4.4,4.6,8.3,9.6,11.6,15.1c0.5,0.9,1,1.8,1.4,2.6c0.5,1,0.9,1.9,1.3,2.9C537.6,485.8,537.2,493.4,532.3,498.9L532.3,498.9z
						 M695.2,290.6L695.2,290.6c-2,6.9-9.2,11-16.1,9c0,0,0,0-0.1,0c-34-9.6-65.9-7.2-87.4,6.7c-17.3,11.1-28.1,29.6-32.1,55.1
						c-6.3,40.5-12.1,73-25.9,105c-3.1-4.7-6.6-9-10.5-13.1c-2.8-3-5.8-5.8-9-8.5c9.4-25.6,14.1-52.9,19.5-87.4
						c5.2-33.2,19.9-57.8,43.8-73.1c27.9-17.9,67.5-21.5,108.7-9.8C693,276.4,697.1,283.6,695.2,290.6L695.2,290.6z"/>
					<path id="Path_6312" class="st1" d="M695.1,290.6L695.1,290.6c-2,6.9-9.2,11-16.1,9c0,0,0,0-0.1,0c-34-9.6-65.9-7.2-87.4,6.7
						c-17.3,11.1-28.1,29.6-32.1,55.1c-6.3,40.5-12.1,73-25.9,105c-3.1-4.7-6.6-9-10.5-13.1c-2.8-3-5.8-5.8-9-8.5
						c9.4-25.6,14.1-52.9,19.5-87.4c5.2-33.2,19.9-57.8,43.8-73.1c27.9-17.9,67.5-21.5,108.7-9.8C693,276.4,697.1,283.6,695.1,290.6
						z"/>
					<path id="Path_6313" class="st1" d="M508.5,510.9c-14,19.7-29.7,38.2-46.9,55.2c-6.4,6.6-13.8,12.2-21.9,16.7
						c0.3-0.6,0.5-1.3,0.8-1.9c4.8-12.5,7.6-25.8,8.3-39.2c12.5-12.8,24.1-26.4,34.7-40.7c0.4,0.3,0.8,0.5,1.1,0.8
						C491.6,506.9,499.9,510.1,508.5,510.9z"/>
					<path id="Path_6314" class="st2" d="M258.4,90.2c-0.5,0.1-0.9,0.2-1.4,0.3c-0.2,0-0.3,0-0.4,0.1c-1,0.2-1.9,0.4-2.9,0.6
						l-1.3,0.3c-0.5,0.1-1.1,0.2-1.6,0.4c-1.4,0.3-2.8,0.6-4.2,1c-0.2,0-0.4,0.1-0.6,0.1c-1.3,0.3-2.5,0.6-3.8,1
						c-0.7,0.2-1.3,0.3-2,0.5c-3.2,0.9-6.4,1.8-9.6,2.8l0,0c-1.2,0.4-2.4,0.8-3.6,1.2l-1.5,0.5c-1.3,0.4-2.5,0.9-3.8,1.3
						c-16.7-26.7-60.6-71.1-75.3-85.6C198.3,21,240.3,67,258.4,90.2z"/>
					<g id="Group_8781" transform="translate(13.465 0.19)">
						<path id="Path_6315" d="M126.5,9.2c-0.6,0-1.1,0.2-1.5,0.6C125.4,9.4,126,9.2,126.5,9.2z"/>
					</g>
					<g id="Group_8782" transform="translate(11.395 1.495)">
						<path id="Path_6316" class="st3" d="M376,103.1c-0.2,0-0.4-0.1-0.6-0.2c-0.1,0-0.2,0-0.2-0.1l-0.1,0c-1.4-0.5-2.8-1-4.2-1.5
							C372.6,101.9,374.3,102.5,376,103.1z"/>
						<path id="Path_6317" class="st3" d="M457.9,160.7c-0.3-0.2-0.6-0.6-0.7-1C457.4,160.1,457.7,160.4,457.9,160.7z"/>
						<path id="Path_6318" class="st4" d="M205.8,100.5c-30.6,11.3-57.5,30.7-78,56.1c-0.2-0.7-0.5-1.3-0.7-2
							c-21.2-60.8-4.9-118.8,1.5-137.3c0.4-1.1,0.7-2,1-2.8C141.1,25.9,188.3,73,205.8,100.5z"/>
					</g>
					<g id="Group_8785" transform="translate(55.198 0.005)">
						<g id="Group_8783" transform="translate(0 1.051)">
							<path id="Path_6319" d="M327,101.7c1.4,0.5,2.8,1,4.2,1.5l0.1,0c0.1,0,0.2,0.1,0.2,0.1c0.2,0.1,0.4,0.1,0.6,0.2
								C330.5,102.9,328.8,102.3,327,101.7z"/>
							<path id="Path_6320" class="st2" d="M406.9,12.7c-14.7,14.5-58.6,58.9-75.3,85.6c-0.3-0.1-0.7-0.2-1-0.4
								c-11.6-4.2-23.5-7.5-35.6-9.8C313.1,65,355.1,19,406.9,12.7z"/>
						</g>
						<g id="Group_8784" transform="translate(8.122)">
							<path id="Path_6321" class="st4" d="M407.3,153.7l-0.6,1.7c-20.5-24.2-47-42.7-76.8-53.7c-0.6-0.2-1.2-0.5-1.9-0.7
								c17.6-27.5,64.8-74.7,76.3-86c0.3,0.8,0.6,1.6,1,2.7l0,0C411.8,35.7,428.6,92.8,407.3,153.7z"/>
							<path id="Path_6322" d="M406,162.2c-0.3-0.2-0.6-0.6-0.7-1C405.5,161.5,405.7,161.9,406,162.2z"/>
							<path id="Path_6323" d="M406.5,8.8c-0.3-0.2-0.6-0.3-1-0.4C405.8,8.5,406.2,8.6,406.5,8.8z"/>
						</g>
					</g>
					<g id="Group_8786" transform="translate(63.21 119.59)">
						<path id="Path_6324" class="st1" d="M355.7,499.4c-0.6-1.3-1.2-2.5-1.8-3.8c0.1,0,0.1-0.1,0.1-0.1
							C354.6,496.8,355.1,498.1,355.7,499.4z"/>
						<path id="Path_6325" class="st5" d="M392.6,657.5c-3,5.2-8.5,8.4-14.5,8.4c-0.5,0-1.1,0-1.6,0c-20.3,0-36.4-20.2-48.8-47.2
							c11.2,11.7,24.1,19.1,38.9,19.1c0.7,0,1.3,0,2-0.1c6.9,0.2,13.4-2.9,17.6-8.4c5.6-7.9,6.3-20.5,3.9-35.7
							C397.1,621,399.8,645,392.6,657.5z"/>
					</g>
					<g id="Group_8788" transform="translate(16.727 120.076)">
						<path id="Path_6326" class="st1" d="M140.2,615.7c0.4-2.5,0.9-5.1,1.5-7.8C141.2,610.6,140.7,613.1,140.2,615.7z"/>
						<path id="Path_6327" class="st1" d="M179.9,657.6c1.1-0.8,2.1-1.7,3.2-2.7C182,655.9,181,656.8,179.9,657.6z"/>
						<path id="Path_6328" class="st1" d="M184.6,653.5c2.1-2.1,4.1-4.3,6-6.6C188.7,649.2,186.7,651.4,184.6,653.5z"/>
						<path id="Path_6329" class="st1" d="M190.6,646.9c5.2-6.6,9.6-13.7,13.4-21.2C200.2,633.2,195.7,640.3,190.6,646.9z"/>
						<path id="Path_6330" class="st1" d="M203.9,625.7c0.9-1.7,1.7-3.4,2.5-5.2C205.6,622.3,204.8,624,203.9,625.7z"/>
						<path id="Path_6331" class="st1" d="M235.6,523.5c-5.5,27.8-14.6,65.3-28.2,94.8c-11.2,11.7-24.1,19-38.9,19c-0.7,0-1.3,0-2,0
							c-6.9,0.2-13.4-2.9-17.6-8.4c-5.6-7.9-6.3-20.5-3.9-35.7c9.3-32.7,21-64.7,34.9-95.7C196.2,510.6,215.2,519.6,235.6,523.5z"/>
						<path id="Path_6332" class="st1" d="M207,619.3l-0.6,1.2L207,619.3z"/>
						<path id="Path_6333" class="st1" d="M207.5,618.3c-0.2,0.4-0.3,0.7-0.5,1.1C207.2,619,207.3,618.7,207.5,618.3L207.5,618.3z"
							/>
						<g id="Group_8787" transform="translate(0 18.873)">
							<path id="Path_6334" class="st5" d="M207.5,599.4c-1.2,2.5-2.4,5-3.6,7.4c-3.7,7.5-8.2,14.6-13.4,21.2
								c-1.9,2.3-3.9,4.5-6,6.6c-0.5,0.5-1,1-1.6,1.5c-1,0.9-2.1,1.8-3.2,2.7c-0.5,0.4-1.1,0.8-1.6,1.2l0,0
								c-1.1,0.8-2.2,1.5-3.3,2.1c-0.1,0-0.1,0.1-0.2,0.1c-0.5,0.3-1,0.6-1.5,0.8c-0.5,0.3-1.1,0.6-1.7,0.8s-1.1,0.5-1.6,0.7
								c-0.7,0.3-1.3,0.5-2,0.7c-0.5,0.1-0.9,0.3-1.4,0.4c-0.2,0.1-0.4,0.1-0.6,0.2c-0.5,0.1-1,0.2-1.5,0.3
								c-0.6,0.1-1.2,0.2-1.8,0.3c-0.6,0.1-1.2,0.1-1.9,0.2c-0.6,0-1.3,0.1-1.9,0.1c-0.5,0-1.1,0-1.6,0c-6,0-11.6-3.2-14.5-8.4
								c-3.5-7.1-4.9-15.1-4.2-23c0-0.8,0-1.5,0.1-2.3c0.2-4.3,0.7-8.5,1.3-12.7c0.1-0.9,0.3-1.8,0.4-2.7c0-0.2,0.1-0.4,0.1-0.6
								c0.4-2.5,0.9-5.1,1.5-7.8c0.3-1.6,0.7-3.2,1.1-4.9c0.1-0.3,0.1-0.6,0.2-0.9c0.2-0.8,0.4-1.7,0.6-2.5c0.5-2.1,1-4.2,1.6-6.4
								c-2.4,15.2-1.7,27.8,3.9,35.7c4.1,5.5,10.7,8.6,17.6,8.4c0.7,0,1.3,0,2,0C183.4,618.5,196.3,611.1,207.5,599.4z"/>
						</g>
					</g>
					<g id="Group_8789" transform="translate(57.632 119.612)">
						<path id="Path_6335" class="st1" d="M391.7,629.4c-4.1,5.5-10.7,8.6-17.6,8.4c-0.6,0-1.3,0.1-2,0.1
							c-14.8,0-27.7-7.3-38.9-19.1c-13.7-29.8-22.8-67.8-28.3-95.6c20.2-4.4,39-13.9,54.5-27.5c0.6,1.3,1.2,2.5,1.8,3.8v0.1
							c13.6,30.5,25.1,62,34.2,94.2c0,0,0,0.1,0,0.1C398,608.9,397.2,621.5,391.7,629.4z"/>
						<path id="Path_6336" class="st1" d="M395.5,593.6c-9.1-32.2-20.6-63.6-34.2-94.2C376.4,530.7,391.1,566.3,395.5,593.6z"/>
					</g>
					<g id="Group_8790" transform="translate(0.933 70.143)">
						<path id="Path_6337" class="st1" d="M502.4,435.1c-5.8-1.3-11.2-3.8-15.9-7.3c-0.4-0.3-0.7-0.5-1.1-0.8
							c-0.1-0.1-0.1-0.1-0.2-0.1c-0.6-0.4-1.2-0.8-1.8-1.2c-0.6-0.4-1.3-0.9-2-1.3c-13.1-8-26.8-15-40.9-21
							c-0.9-0.4-1.7-0.8-2.6-1.1c-1-0.4-1.9-0.8-2.9-1.2l0,0c-24.6-10.7-47.5-18.9-49.1-19.5c-0.2-0.1-0.3-0.1-0.5-0.1
							c-1.1-0.1-2.2,0.5-2.5,1.6c-0.4,1.2,0.2,2.6,1.4,3c0,0,0,0,0,0c0.4,0.2,25.9,9.3,52.2,20.9c4.4,17.8,6.7,36.1,7,54.5
							c0,2.8-0.1,5.5-0.2,8.2c-0.1,1.2-0.1,2.4-0.2,3.6l0,0c-0.1,1.2-0.2,2.5-0.3,3.7c-1,11-3.5,21.8-7.5,32.1
							c-0.9,2.4-2,4.7-3.1,6.9c-0.6,1.1-1.1,2.2-1.7,3.3s-1.2,2.2-1.8,3.2c-3,5-6.6,9.8-10.6,14.1c-0.1,0.1-0.1,0.1-0.2,0.2
							c-0.5,0.6-1.1,1.2-1.7,1.7c-0.3,0.3-0.6,0.6-0.9,0.9c-7.1-64.3-53.8-114-110.4-114s-103.3,49.7-110.4,114l-0.2-0.2
							c-5.4-5.3-10-11.3-13.8-17.8c-18.7-32.1-16.7-74.7-7.3-114.6c26.3-11.6,51.7-20.7,52.2-20.9c1.2-0.4,1.9-1.8,1.4-3
							c0,0,0,0,0,0c-0.4-1.1-1.4-1.7-2.5-1.6c-0.2,0-0.3,0.1-0.5,0.1c-1.7,0.6-24.5,8.8-49.1,19.5c-1,0.4-1.9,0.8-2.9,1.3
							s-1.9,0.8-2.8,1.2c-16,6.7-31.3,14.9-45.8,24.4c-16.5,11.9-36.9,10-44.9,0.9c-8.3-9.5-3.7-24.9,12.8-42.3
							c26.7-28.3,70-40.2,98.6-45.2c1-0.2,1.9-0.3,2.8-0.5c0.9-0.2,1.9-0.3,2.9-0.5c7.7-1.2,15.5-2.1,23.4-2.5c0.1,0,0.1,0,0.2,0
							c1.2-0.1,2.1-1.2,2.1-2.4c0-1.3-1.1-2.3-2.4-2.3c0,0-0.1,0-0.1,0c-1.1,0-9.1,0.4-21,2c8.5-19.6,16.2-34.3,19.7-40.6
							c0-0.1,0.1-0.2,0.1-0.3l0,0c6.7,1.8,13.4,3.3,20.3,4.6c0,0,0,0,0.1,0c12.3,2.4,24.8,4.1,37.3,5.1c0,0,0,0,0,0
							c9.8,0.8,19.8,1.2,29.9,1.2c10,0,19.9-0.4,29.7-1.2h0.1c12.6-1,25.1-2.7,37.5-5.1c0.1,0,0.1,0,0.2,0
							c6.8-1.3,13.5-2.8,20.1-4.6h0c0.1,0.1,0.1,0.2,0.1,0.3c3.4,6.2,11.2,20.9,19.7,40.6c-11.9-1.7-19.9-2-21-2
							c-1.3,0-2.4,1-2.5,2.3c-0.1,1.2,0.9,2.3,2.1,2.4c0.1,0,0.1,0,0.2,0c7.8,0.5,15.7,1.3,23.4,2.5l0,0c0.9,0.1,1.9,0.3,2.9,0.5
							c0.9,0.1,1.8,0.3,2.7,0.4c23.2,4,56,12.6,81.9,30.8c1.9,1.4,3.8,2.8,5.7,4.2c0.2,0.2,0.4,0.3,0.6,0.5
							C514.3,391.7,522.8,420.4,502.4,435.1z"/>
						<path id="Path_6338" class="st5" d="M531.4,428.8c-3.9,4-9.1,6.5-14.7,7.1c-1,0.2-2,0.3-3.1,0.3c-1,0.1-1.9,0.1-2.9,0
							c-2.8-0.1-5.6-0.4-8.3-1.1c20.4-14.7,11.9-43.5,5.6-58.5c0.5,0.4,0.9,0.7,1.4,1.1c0.7,0.5,1.3,1.1,1.9,1.7
							c2.5,2.2,5,4.5,7.3,7c4.4,4.6,8.3,9.6,11.6,15.1c0.5,0.9,1,1.8,1.4,2.6c0.5,1,0.9,1.9,1.3,2.9
							C536.7,415.7,536.2,423.2,531.4,428.8z"/>
						<path id="Path_6339" class="st5" d="M78,428.7c3.9,4,9.1,6.5,14.7,7.1c1,0.2,2,0.3,3.1,0.3c1,0.1,1.9,0.1,2.9,0.1
							c2.8-0.1,5.6-0.4,8.3-1.1c-20.4-14.7-11.9-43.5-5.6-58.5c-0.5,0.4-0.9,0.7-1.4,1.1c-0.7,0.5-1.3,1.1-1.9,1.7
							c-2.6,2.2-5,4.5-7.3,7c-4.4,4.6-8.3,9.6-11.6,15.1c-0.5,0.9-1,1.8-1.4,2.6c-0.5,1-0.9,1.9-1.3,2.9
							C72.7,415.6,73.2,423.2,78,428.7z"/>
						<path id="Path_6340" class="st5" d="M415.1,539.4c-0.3,0.3-0.6,0.6-0.9,0.9c-15.1,13.8-33.6,23.3-53.5,27.6
							c-0.8,0.2-1.6,0.4-2.3,0.6s-1.6,0.4-2.4,0.6l0,0c-16.9,3.5-34,5.2-51.2,5.2c-16,0-31.9-1.4-47.6-4.4c-0.8-0.2-1.6-0.3-2.4-0.5
							c-0.8-0.2-1.6-0.3-2.4-0.5c-20.1-3.9-38.8-12.8-54.4-26c-0.6-0.6-1.3-1.1-1.9-1.7c-0.6-0.5-1.1-1.1-1.7-1.6
							c7.1-64.3,53.8-114,110.4-114S408,475.1,415.1,539.4z"/>
					</g>
					<g id="Group_8792" transform="translate(5.54 16.192)">
						<g id="Group_8791">
							<path id="Path_6341" class="st5" d="M506.3,264.7c-2.4,1.5-8.7-1.4-14-4.8c-1.5-1.2-3-2.2-4.6-3.2c-0.4-0.2-0.8-0.4-1.3-0.3
								c-1.3,0-2.3,1.1-2.3,2.4c0,0.6,0.3,1.2,0.7,1.7c0.1,0.1,0.1,0.1,0.2,0.2c0.8,0.6,2.4,1.8,4.5,3.2c5.1,4,12.9,11.6,11.7,19.9
								c-0.2,1.4-0.9,3-4.6,3.5c-7.9-0.1-15.7-2.1-22.6-5.9c-0.7-0.4-1.4-0.7-2-1.1c-0.8-0.4-1.5-0.8-2.1-1.2
								c-1.9-0.9-3.5-2.2-4.7-3.8c-0.5-1.2-1.8-1.9-3.1-1.4c-1.2,0.5-1.9,1.8-1.4,3.1l0,0c1.6,2.6,3.8,4.7,6.5,6.1
								c-19.8,27.2-47.1,48-78.6,59.9h0c-0.1,0-0.2,0-0.3,0.1l-0.3,0.1c-0.5,0.1-0.9,0.3-1.5,0.4c-56.7,14.4-116.1,14.4-172.8,0
								c-0.6-0.1-1.1-0.3-1.7-0.5c-0.1,0-0.2,0-0.3-0.1c0,0,0,0-0.1,0c-31.5-11.9-58.8-32.7-78.6-59.9c2.7-1.4,5-3.5,6.5-6.1
								c0.4-1.2-0.2-2.6-1.4-3c-0.5-0.2-1-0.2-1.4-0.1c-0.8,0.2-1.4,0.7-1.7,1.5c-1.2,1.6-2.9,2.9-4.7,3.8c-0.7,0.4-1.4,0.8-2.2,1.2
								c-0.6,0.4-1.3,0.7-2.1,1.1c-6.9,3.8-14.7,5.9-22.6,5.9c-3.7-0.4-4.4-2.1-4.6-3.5c-1.2-8.3,6.6-15.9,11.7-19.9
								c2.1-1.4,3.8-2.6,4.5-3.2c0.1-0.1,0.1-0.1,0.2-0.2c0.9-0.9,1-2.4,0.1-3.3c-0.8-0.8-2-1-2.9-0.4c-1.6,1-3.2,2-4.6,3.2
								c-5.3,3.4-11.7,6.3-14,4.8c-1.5-0.9-1.6-4.6-0.4-9.7c2.6-10,7.3-19.4,13.8-27.4c0.7-0.9,1.4-1.8,2.2-2.7
								c0.7-0.8,1.5-1.8,2.2-2.6c3.1-3.5,6.4-6.7,10-9.6c0.5-0.4,0.8-0.6,0.8-0.6c1.1-0.8,1.3-2.3,0.5-3.3s-2.3-1.3-3.3-0.5l0,0
								c-2.8,2.2-5.5,4.6-8,7.2c0.6-24.2,8.7-47.7,23.2-67.1l0.2-0.3c1.1-1.5,2.2-2.9,3.3-4.3c20.5-24.9,47.4-43.7,77.8-54.5
								c0,0,0.2-0.1,0.2-0.1c0.1,0,0.1,0,0.2-0.1l0.1-0.1c13.3-5,27.1-8.7,41.1-11.1l0.2-0.1c0.2,0,0.4-0.1,0.7-0.1
								c14-2.4,28.2-3.5,42.4-3.4c14.5,0,29,1.3,43.3,3.9c11,2,21.8,4.8,32.3,8.3c0,0,0.1,0,0.1,0c1.4,0.5,2.8,1,4.2,1.5l0.1,0.1
								c0.1,0,0.1,0,0.2,0.1c0.2,0.1,0.4,0.1,0.6,0.2l0,0c1.4,0.5,2.7,1,4.1,1.5c30.2,11,56.8,30.1,77,55.1l0,0
								c0.2,0.4,0.4,0.7,0.7,1c15.6,19.9,24.3,44.3,24.9,69.5c-2.5-2.6-5.2-5-8.1-7.2c-1-0.8-2.5-0.7-3.4,0.3
								c-0.8,1-0.7,2.5,0.3,3.4c0,0,0.1,0.1,0.1,0.1c0,0,0.3,0.2,0.8,0.6c3.6,2.9,6.9,6.2,10,9.6c0.7,0.8,1.5,1.7,2.2,2.6
								c0.7,0.8,1.4,1.8,2.2,2.7l0,0c6.5,8,11.2,17.4,13.8,27.4C507.9,260.2,507.7,263.8,506.3,264.7z"/>
						</g>
						<path id="Path_6342" class="st6" d="M308.4,117.7c0,66.4-38.5,154.8-86,154.8c-41.5,0-76.1-67.4-84.2-128.7
							c20.5-24.9,47.4-43.7,77.8-54.5c0,0,0.2-0.1,0.2-0.1c0.1,0,0.1,0,0.2-0.1l0.1-0.1c13.3-5,27.1-8.7,41.1-11.1l0.2-0.1
							c0.2,0,0.4-0.1,0.7-0.1c14-2.4,28.2-3.5,42.4-3.4C306.3,88.2,308.8,102.9,308.4,117.7z"/>
					</g>
				</g>
				<g id="Group_8806" transform="translate(24.378 25.823)">
					<g id="Group_8802" transform="translate(22.335 29.052)">
						<g id="Group_8801">
							<line id="Line_1" class="st7" x1="260.4" y1="232.8" x2="260.4" y2="231.9"/>
						</g>
					</g>
					<g id="Group_8804" transform="translate(11.659 21.953)">
						<path id="Path_6352" d="M290.7,272.6c0.1,0.3,0.1,0.6,0.2,0.8l0,0C290.9,273.2,290.8,272.9,290.7,272.6z"/>
						<path id="Path_6353" d="M271.3,227.9l13.2-3.5c3.9-1.3,6.5-4.9,6.5-9c0-5.1-4.2-9.3-9.3-9.3H260c-5.2,0-9.3,4.3-9.3,9.5
							c0,4.1,2.7,7.6,6.5,8.9L271.3,227.9"/>
					</g>
					<g id="Group_8805" transform="translate(0 16.933)">
						<path id="Path_6354" d="M234.4,213l-62-15.3c-1.3-0.3-2.6,0.5-2.9,1.7c-0.3,1.3,0.5,2.6,1.7,2.9l0,0l62,15.3
							c1.3,0.4,2.6-0.4,2.9-1.7s-0.4-2.6-1.7-2.9C234.5,213,234.4,213,234.4,213L234.4,213z"/>
						<path id="Path_6355" d="M230.8,229.5l-44.8,3.6c-1.3,0.1-2.3,1.2-2.2,2.5c0.1,1.3,1.1,2.2,2.4,2.2h0.2l44.8-3.6
							c1.3-0.1,2.3-1.3,2.2-2.6C233.3,230.4,232.1,229.4,230.8,229.5L230.8,229.5z"/>
						<path id="Path_6357" d="M393,197.6c-0.3-1.3-1.6-2.1-2.9-1.7c0,0,0,0,0,0l-62,15.3c-1.3,0.3-2.1,1.6-1.8,2.9
							c0.3,1.1,1.2,1.8,2.3,1.8c0.2,0,0.4,0,0.6-0.1l62-15.3C392.5,200.2,393.3,198.9,393,197.6z"/>
						<path id="Path_6358" d="M376.5,231.3l-44.8-3.6c-1.3-0.1-2.5,0.9-2.5,2.2c-0.1,1.3,0.9,2.4,2.2,2.5l44.8,3.6h0.2
							c1.3,0,2.4-1,2.4-2.4C378.8,232.4,377.8,231.4,376.5,231.3L376.5,231.3z"/>
					</g>
				</g>
			</g>
		</g>
	</g>
</g>
</svg>
