<?xml version="1.0" encoding="utf-8"?>
<!-- Generator: Adobe Illustrator 25.1.0, SVG Export Plug-In . SVG Version: 6.00 Build 0)  -->
<svg version="1.1" id="Layer_1" xmlns="http://www.w3.org/2000/svg" xmlns:xlink="http://www.w3.org/1999/xlink" x="0px" y="0px"
	 viewBox="0 0 800 800" style="enable-background:new 0 0 800 800;" xml:space="preserve">
<style type="text/css">
	.st0{fill:#741BA1;}
	.st1{fill:#B135F0;}
</style>
<g id="Group_11131" transform="translate(-7095.733 -9955.357)">
	<g id="Group_9315" transform="translate(7095.733 9955.357)">
		<path id="Path_7604" d="M732.7,427l-7.1-44.1c-0.2-0.9,0.3-1.8,1.1-2.2c0.8-0.4,1.8-0.3,2.5,0.3l9,7.9c2.3,2,5.7,2.2,8.2,0.5
			c2.3-1.7,3.3-4.6,2.6-7.4c-7.6-30.6-12.9-52.7-15.2-62.5c1.7,1.6,4.1,4,7.3,7.5c2.1,2.3,5.5,2.9,8.3,1.4c2.7-1.5,4-4.7,3.1-7.6
			l-19.5-66.1c-0.4-1.1,0.3-2.3,1.4-2.7c0.6-0.2,1.3-0.1,1.8,0.3l1.9,1.3c2.5,1.7,5.8,1.7,8.2-0.1c2.3-1.8,3.1-5,1.9-7.7
			c-23.9-56.1-75.3-89.8-96.2-101.7c-0.4-0.3-0.9-0.5-1.4-0.8c-1.2-0.7-2.3-1.3-3.1-1.7l-1.1-0.6c-0.7-0.4-1.3-0.6-1.7-0.8l0,0
			c-7.5-3.8-15.3-7-23.3-9.8c-3.1-1.9-44.1-26.7-63.2-52.7c-3-4-8.7-4.8-12.7-1.8c-1.9,1.4-3.1,3.5-3.5,5.8l-1.1,6.8
			c-0.4,2.5-2.8,4.2-5.2,3.8c-1.3-0.2-2.5-1-3.2-2.2c-5.9-9.2-9.6-19.6-10.7-30.5c-0.3-3.6-2.7-6.7-6.2-7.9
			c-3.4-1.1-7.1-0.2-9.5,2.5c-8.4,8.8-15.7,18.7-21.7,29.4c-1.1,2.2-3.8,3.1-6,2c-0.5-0.3-1-0.6-1.3-1l-21.4-23
			c-0.5-0.5-1.2-0.8-1.9-0.7c-0.7,0.1-1.4,0.5-1.7,1.1l-17.6,33c-3.1,5.7-8.4,9.7-14.7,11.1l-30.3,6.6c-56.5,3.5-95.4,12-126,27.4
			c0,0-0.6,0.3-1.7,0.9l-1.1,0.6c-0.9,0.4-1.9,1-3.1,1.7L256,144c-21,11.9-72.4,45.5-96.2,101.7c-1.2,2.7-0.4,5.8,1.9,7.7
			c2.3,1.9,5.5,2,8,0.4l2.2-1.5c1-0.7,2.3-0.4,3,0.6c0.4,0.5,0.5,1.2,0.3,1.8l-19.6,66.1c-0.9,2.9,0.4,6.1,3.1,7.6
			c1,0.6,2.2,0.9,3.3,0.9c1.8,0,3.5-0.8,4.8-2.1c3.4-3.5,5.8-6,7.5-7.7c-2.2,9.6-7.2,30.3-14.3,59.1c-6.3-6-11.7-12.8-16.2-20.2
			c-19.5-32.7-42.4-53.7-64.6-59.1c-3.8-0.9-7.6-1.4-11.5-1.4c-8.5,0-16.8,2.5-24,7.1c-14.7,9.2-32.9,25.2-35.8,49.2
			c-2.7,22.2,8.5,46.5,33.2,72.1c48.4,49.9,99.6,75.9,148,75.9c8.6,0,17.1-0.8,25.5-2.4l-5.8,55.4c-0.4,3.6,2.2,6.9,5.8,7.3
			c2.8,0.3,5.5-1.2,6.7-3.7l15.2-31.2c0.5-1.1,1.8-1.5,2.9-1c0.7,0.3,1.1,1,1.2,1.7l6,55.7c0.3,3.1,2.8,5.6,5.9,5.9
			c3.3,0.2,6.3-1.9,7.1-5l0.5-1.8c0.3-1.1,1.5-1.8,2.6-1.5c0.9,0.2,1.5,1,1.6,1.9l4.6,45.5c0.3,2.9,2.4,5.3,5.3,5.8
			c3,0.5,5.9-1,7.3-3.7l3-5.6c0.5-1.1,1.8-1.5,2.9-1c0.7,0.3,1.1,1,1.2,1.7l3,32.1c0.3,3.6,3.6,6.3,7.2,6c1.9-0.2,3.6-1.1,4.7-2.7
			l6.2-8.4c0.7-0.9,2.1-1.1,3-0.4c0.4,0.3,0.7,0.8,0.8,1.3l6.1,35.7c0.6,3.6,4,6,7.6,5.5c2-0.3,3.7-1.6,4.7-3.3l10.1-18.1
			c10.8,17.6,19.9,31.8,25.8,40.8c0.9,1.3,1.9,2.9,2.9,4.6c7.3,11.7,18.3,29.4,30.2,29.4c29.7,0,35-28.9,38.2-46.3
			c0.3-1.4,0.5-2.8,0.7-4l12-53.1c0.2-1.2,1.4-1.9,2.5-1.6c0.8,0.2,1.5,0.8,1.6,1.6l12,53c0.2,1.3,0.5,2.7,0.8,4.1
			c3.2,17.3,8.5,46.3,38.2,46.3c11.9,0,22.9-17.7,30.2-29.4c1.1-1.7,2.1-3.3,2.9-4.6c5.8-9,14.9-23.2,25.8-40.8l10.1,18.1
			c1.8,3.2,5.8,4.3,9,2.5c1.8-1,3-2.7,3.3-4.7l6.1-35.7c0.1-0.8,0.8-1.5,1.6-1.7c0.8-0.2,1.7,0.1,2.2,0.8l6.2,8.4
			c2.2,3,6.3,3.6,9.3,1.4c1.5-1.1,2.5-2.8,2.7-4.7l3-32.1c0.1-1.2,1.2-2,2.3-1.9c0.7,0.1,1.4,0.5,1.7,1.1l3,5.5
			c1.4,2.7,4.3,4.2,7.2,3.7c2.9-0.5,5.1-2.9,5.4-5.8l4.6-45.5c0.1-1,0.9-1.8,1.9-1.9c1-0.1,2,0.5,2.3,1.6l0.6,2.1
			c1,3.5,4.7,5.5,8.2,4.5c2.6-0.8,4.4-3,4.7-5.7l6-55.7c0.1-1,0.8-1.7,1.8-1.9c0.9-0.2,1.9,0.3,2.3,1.2l2.7,5.5
			c1.6,12,0.9,24.2-2.1,35.9c-9.4,36.9-8,68,3.9,87.5c3.2,5.3,7.4,9.9,12.4,13.6c5,3.6,10.7,6.1,16.7,7.5c7.2,1.7,14.6,2.6,22,2.6
			c13.7,0.4,27.2-3.9,38.2-12.1c17.7-13.8,26.9-38.9,27.5-74.5C793.8,518.1,772.7,460.4,732.7,427z M44.3,423.1
			c-23.8-24.6-34.6-47.6-32-68.4c2.7-22.3,19.8-37.3,33.7-45.9c9.5-6.1,21.1-8,32-5.1c21,5.1,43,25.4,61.8,57.1
			c5.1,8.6,11.4,16.3,18.9,23c-0.2,3.6,2.6,6.7,6.2,6.9c0.7,0,1.4,0,2-0.2c4.1,3,8.3,5.7,12.8,8.1l-6,37.5c-0.6,3.1,1.2,6.3,4.3,7.3
			c3,1.1,6.4-0.1,8-2.9l4.6-7.7c0.5-0.9,1.6-1.3,2.5-0.9c1,0.3,1.6,1.3,1.4,2.3l-7.8,55c-0.5,3.6,2,7,5.7,7.5
			c2.5,0.3,4.9-0.7,6.3-2.8l14.6-20.8c0.7-1,2-1.2,3-0.6c0.7,0.4,1,1.2,0.9,2l-2.2,20.6C160.5,506.3,100.6,481.2,44.3,423.1
			L44.3,423.1z M171.1,387.8l7.7-6.8c0.7-0.6,1.7-0.7,2.5-0.3c0.8,0.4,1.2,1.3,1.1,2.2l-1.7,10.8C177.3,392,174.1,389.9,171.1,387.8
			L171.1,387.8z M672.1,522.3c-1.2-0.5-2.5-0.7-3.8-0.4c-2.9,0.5-5.1,2.9-5.4,5.8l-6,55.7c-0.1,1.2-1.2,2-2.3,1.9
			c-0.9-0.1-1.6-0.7-1.8-1.5l-0.6-2.1c-1-3.5-4.7-5.5-8.3-4.5c-2.6,0.8-4.4,3-4.7,5.7l-4.6,45.4c-0.1,1.2-1.2,2-2.3,1.9
			c-0.7-0.1-1.3-0.5-1.7-1.1l-3.1-5.9c-1.8-3.2-5.8-4.4-9-2.7c-1.9,1.1-3.2,3-3.4,5.2l-3,32.1c-0.1,0.9-0.7,1.6-1.6,1.9
			c-0.9,0.3-1.8,0-2.3-0.8l-6.2-8.4c-2.2-2.9-6.3-3.6-9.3-1.4c-1.4,1-2.3,2.5-2.6,4.2l-6.1,35.7c-0.1,0.9-0.8,1.6-1.7,1.7
			c-0.9,0.2-1.8-0.2-2.3-1.1l-11.9-21.3c-0.2-0.5-0.6-0.9-1.2-1.1c-1-0.4-2.2,0-2.8,0.9c-11.7,19.1-21.5,34.5-27.7,44
			c-0.9,1.4-1.9,3-3,4.7c-6.3,10.2-17,27.3-26.4,27.3c-25.9,0-30.7-25.6-33.8-42.6c-0.2-1.4-0.5-2.8-0.8-4.2l-12-53.1
			c-0.8-3.6-4.4-5.8-8-5c-2.5,0.6-4.4,2.5-5,5l-12,53.2c-0.3,1.3-0.5,2.7-0.8,4.1c-3.1,17-7.8,42.6-33.8,42.6
			c-9.4,0-20-17.1-26.4-27.3c-1.1-1.7-2.1-3.4-3-4.7c-6.2-9.5-16-24.9-27.7-44c-0.5-0.9-1.5-1.3-2.5-1c-0.6,0.2-1.1,0.6-1.4,1.1
			l-12,21.4c-0.6,1-1.9,1.4-2.9,0.8c-0.6-0.3-0.9-0.9-1.1-1.5l-6.1-35.4c-0.4-2.6-2.2-4.7-4.7-5.6c-2.7-0.9-5.6,0.1-7.3,2.4
			l-6.2,8.4c-0.7,0.9-2,1.1-3,0.4c-0.5-0.4-0.8-0.9-0.9-1.5l-3-32.1c-0.3-3.6-3.6-6.3-7.2-6c-2.2,0.2-4.2,1.5-5.2,3.4l-3.2,5.9
			c-0.4,0.8-1.4,1.3-2.3,1.1c-0.9-0.1-1.7-0.9-1.7-1.9l-4.6-45.4c-0.4-3.6-3.6-6.3-7.3-5.9c-2.7,0.3-4.9,2.1-5.7,4.7l-0.6,2.1
			c-0.3,1.1-1.5,1.8-2.6,1.5c-0.8-0.2-1.5-1-1.5-1.9l-6-55.7c-0.3-2.9-2.5-5.3-5.4-5.8c-2.9-0.5-5.8,1-7.1,3.6l-15.2,31.2
			c-0.4,1-1.5,1.5-2.5,1.1c-1-0.2-1.7-1.3-1.5-2.3l6-56.9l0.3-2.3l0.2-2.4l2-19.2c0.4-3-1.4-5.9-4.3-6.9c-2.9-1-6.1,0.1-7.9,2.7
			l-14.4,20.6c-0.5,0.8-1.6,1.2-2.5,0.8c-1-0.3-1.5-1.3-1.3-2.3l7.8-55c0.5-3.1-1.4-6.2-4.4-7.2c-3.1-1-6.5,0.3-8.1,3.1l-4.4,7.5
			c-0.6,1-1.9,1.4-2.9,0.8c-0.8-0.4-1.2-1.3-1-2.2l5.8-36.1l0.3-2.2l0.4-2.4l2-12.4c0.5-2.9-1-5.7-3.6-7c-2.6-1.2-5.6-0.7-7.7,1.2
			l-8.1,7.2l-0.6,0.5c-0.5,0.5-1.2,0.6-1.8,0.5c-0.3,0-0.5-0.1-0.7-0.3c-0.4-0.2-0.7-0.6-0.9-1c-0.2-0.4-0.2-0.9-0.1-1.3l0.3-1.5
			c16.3-66,16.3-67.5,16.3-68.1c0-1-0.6-1.8-1.5-2.2c-0.3-0.1-0.6-0.2-0.9-0.3c-1.4,0-3.9,1.9-14.1,12.6c-0.7,0.7-1.8,0.9-2.6,0.4
			c-0.9-0.5-1.3-1.5-1-2.5l19.5-66.1c0.8-2.7-0.2-5.7-2.6-7.3c-2.4-1.5-5.5-1.5-7.8,0.2l-1.9,1.3c-0.8,0.6-1.8,0.5-2.6-0.1
			c-0.7-0.6-1-1.6-0.6-2.5c23.3-54.9,73.7-87.9,94.3-99.5l1.3-0.7c1.2-0.6,2.2-1.2,3-1.7l1.1-0.6c0.9-0.5,1.4-0.7,1.6-0.8
			c0.1,0,0.1,0,0.1,0c30-15.1,68.3-23.4,124.3-26.9c0.2,0,0.4,0,0.6-0.1l30.3-6.6c7.6-1.6,14.1-6.5,17.7-13.4l15.3-28.5
			c0.3-0.7,1.1-0.9,1.8-0.6c0.1,0.1,0.3,0.2,0.4,0.3l17.9,19.3c3.4,3.7,9.1,3.9,12.8,0.5c0.8-0.7,1.4-1.6,1.9-2.6
			c5.8-10.3,12.8-19.8,20.9-28.3c1.2-1.3,3-1.8,4.7-1.2c1.8,0.6,3,2.2,3.1,4c1.2,11.6,5.1,22.7,11.4,32.5c2,3.2,5.8,4.9,9.5,4.1
			c3.7-0.7,6.6-3.7,7.2-7.4l1.2-6.8c0.3-1.8,1.6-3.3,3.4-3.7c1.7-0.5,3.6,0.2,4.7,1.7c20.1,27.2,62.5,52.6,64.8,54
			c0.1,0.1,0.3,0.1,0.4,0.2c7.9,2.7,15.5,5.9,23,9.6c0,0,0.6,0.3,1.6,0.8l1.1,0.6c0.8,0.4,1.8,1,3,1.7l1.3,0.7
			c20.6,11.6,71,44.6,94.3,99.5c0.4,0.9,0.1,1.9-0.6,2.5c-0.7,0.6-1.8,0.7-2.6,0.1l-1.9-1.3c-2.3-1.6-5.4-1.7-7.8-0.2
			c-2.4,1.6-3.5,4.6-2.6,7.3l19.6,66.1c0.3,1-0.1,2-1,2.5c-0.9,0.5-2,0.4-2.6-0.4c-12.8-13.3-13.4-13.1-15-12.4
			c-0.9,0.4-1.5,1.2-1.5,2.2c0,0.6,0,2.2,16.6,69.6c0.2,0.9-0.2,1.9-1,2.3c-0.8,0.5-1.8,0.4-2.5-0.2l-8.8-7.7
			c-2.1-1.9-5.1-2.4-7.7-1.1c-2.6,1.3-4,4.1-3.5,6.9l6.3,39.2l0.5,3.2l0.5,3.3l1.2,7.3c0.2,1.2-0.6,2.3-1.8,2.5
			c-0.9,0.1-1.7-0.3-2.2-1l-4.6-7.8c-1.9-3.2-5.9-4.2-9.1-2.3c-2.3,1.4-3.6,4-3.2,6.6l7.8,55c0.2,1-0.4,2-1.3,2.3
			c-0.9,0.4-2,0.1-2.5-0.8l-14.6-20.8c-2.1-3-6.2-3.7-9.2-1.6c-2,1.4-3,3.7-2.8,6.1l8.5,80.8c0.1,1.2-0.7,2.2-1.9,2.3
			c-0.9,0.1-1.7-0.4-2.1-1.2l-12.2-25.1l-3-6.1c-0.1-0.2-0.2-0.5-0.4-0.7l0,0C674.3,523.6,673.3,522.8,672.1,522.3L672.1,522.3z
			 M762.3,664.3c-17.7,13.8-40.4,12.3-56.4,8.7c-11-2.4-20.5-9.3-26.3-19c-11.3-18.5-12.4-48.3-3.4-84c2.2-8.6,3.2-17.4,3.1-26.2
			l7.3,14.9c1.6,3.3,5.5,4.7,8.8,3.1c2.5-1.2,4-3.9,3.7-6.7l-8.5-80.7c-0.1-1.2,0.7-2.2,1.8-2.4c0.8-0.1,1.6,0.2,2,0.9l14.6,20.8
			c2.1,3,6.3,3.7,9.3,1.6c2-1.4,3.1-3.9,2.8-6.3l-7.8-55c-0.2-1.2,0.7-2.2,1.8-2.4c0.9-0.1,1.7,0.3,2.1,1l4.6,7.7
			c1.6,2.8,4.9,4,7.9,2.9c3.1-1.2,4.9-4.4,4.3-7.6l-0.3-1.7c36.4,33,55.4,88.1,54.2,159.3C787.5,627.5,778.8,651.3,762.3,664.3
			L762.3,664.3z"/>
		<path id="Path_7605" class="st0" d="M788,593.3c-0.6,34.2-9.2,58.1-25.8,71c-17.7,13.8-40.4,12.3-56.4,8.7
			c-11-2.4-20.5-9.3-26.2-19c-11.3-18.5-12.5-48.3-3.4-84c2.2-8.6,3.2-17.4,3.1-26.2l7.3,14.9c1.6,3.3,5.6,4.7,8.8,3.1
			c2.5-1.2,4-3.9,3.7-6.7l-8.5-80.7c-0.1-1.2,0.7-2.2,1.9-2.4c0.8-0.1,1.5,0.3,2,0.9l14.6,20.8c2.1,3,6.2,3.7,9.2,1.6
			c2-1.4,3.1-3.9,2.8-6.3l-7.8-55c-0.2-1.2,0.7-2.2,1.8-2.4c0.8-0.1,1.7,0.3,2.1,1l4.6,7.7c1.9,3.2,5.9,4.2,9.1,2.3
			c2.3-1.4,3.6-4.1,3.2-6.8l-0.3-2C770.2,467,789.2,522.1,788,593.3z"/>
		<path id="Path_7606" class="st1" d="M783.9,627.6c-2.9,14.3-10.5,27.3-21.7,36.7c-17.7,13.8-40.4,12.3-56.4,8.6
			c-11-2.4-20.5-9.3-26.2-19c-7.5-12.3-10.5-29.6-9.1-50.3C687.8,618.8,730.6,648.5,783.9,627.6z"/>
		<path id="Path_7607" class="st0" d="M217.3,474.3l-2.2,20.7c-54.6,11.3-114.5-13.7-170.8-71.9c-23.8-24.5-34.5-47.6-32-68.4
			c2.7-22.3,19.8-37.3,33.7-46c9.5-6.1,21.1-7.9,32-5.1c21,5.1,43,25.3,61.8,57c5.1,8.6,11.5,16.3,18.9,23c-0.2,2.4,1.1,4.7,3.2,6
			c1.5,1,3.4,1.2,5.1,0.8c4.1,3,8.3,5.7,12.8,8l-6,37.5c-0.6,3.6,1.9,7,5.5,7.6c2.7,0.4,5.4-0.8,6.8-3.2l4.6-7.7
			c0.6-1,1.9-1.3,2.9-0.8c0.7,0.4,1.1,1.3,1,2.1l-7.7,55c-0.5,3.6,2,7,5.7,7.5c2.5,0.3,4.9-0.7,6.3-2.8l14.6-20.8c0.7-1,2-1.2,3-0.5
			C217,472.8,217.4,473.5,217.3,474.3L217.3,474.3z"/>
		<path id="Path_7608" class="st1" d="M108.1,320.7c-44,19.3-58.4,74.8-63,103.3c-0.2-0.2-0.5-0.5-0.7-0.7
			c-23.8-24.5-34.6-47.6-32-68.4c2.7-22.3,19.8-37.3,33.7-45.9c9.5-6.1,21.1-7.9,32-5.1C89.3,306.9,99.6,312.7,108.1,320.7z"/>
		<path id="Path_7609" class="st1" d="M747.2,324.5c-0.9,0.5-2,0.4-2.6-0.4c-12.8-13.3-13.4-13.1-15-12.4c-0.9,0.4-1.5,1.2-1.5,2.2
			c0,0.6,0,2.2,16.6,69.6c0.2,0.9-0.2,1.9-1,2.3c-0.8,0.5-1.8,0.4-2.5-0.2l-8.8-7.7c-2.1-1.9-5.1-2.4-7.7-1.1
			c-2.6,1.3-4,4.1-3.5,6.9l6.3,39.2l0.5,3.2l0.5,3.3l1.2,7.3c0.2,1.2-0.6,2.3-1.8,2.5c-0.9,0.1-1.7-0.3-2.2-1l-4.6-7.8
			c-1.9-3.2-5.9-4.2-9.1-2.3c-2.3,1.4-3.6,4-3.2,6.6l7.8,55c0.2,1-0.4,2-1.3,2.3c-0.9,0.4-2,0.1-2.5-0.8l-14.6-20.8
			c-2.1-3-6.2-3.7-9.2-1.6c-2,1.4-3,3.7-2.8,6.1l8.5,80.8c0.1,1.2-0.7,2.2-1.9,2.3c-0.9,0.1-1.7-0.4-2.1-1.2l-12.2-25.1l-3-6.1
			c-0.1-0.2-0.2-0.5-0.4-0.7l0,0c-0.7-1.1-1.7-2-2.9-2.5c-1.2-0.5-2.5-0.7-3.8-0.4c-2.9,0.5-5.1,2.9-5.4,5.8l-6,55.7
			c-0.1,1.2-1.2,2-2.3,1.9c-0.9-0.1-1.6-0.7-1.8-1.5l-0.6-2.1c-1-3.5-4.7-5.5-8.3-4.5c-2.6,0.8-4.4,3-4.7,5.7l-4.6,45.4
			c-0.1,1.2-1.2,2-2.3,1.9c-0.7-0.1-1.3-0.5-1.7-1.1l-3.1-5.9c-1.8-3.2-5.8-4.4-9-2.6c-1.9,1.1-3.2,3-3.4,5.2l-3,32.1
			c-0.1,0.9-0.7,1.6-1.6,1.9c-0.9,0.3-1.8,0-2.3-0.8l-6.2-8.4c-2.2-2.9-6.3-3.6-9.3-1.4c-1.4,1-2.3,2.5-2.6,4.2L584,689
			c-0.1,0.9-0.8,1.6-1.7,1.7c-0.9,0.2-1.8-0.3-2.2-1.1l-11.9-21.3c-0.2-0.5-0.6-0.9-1.2-1.1c-1-0.4-2.2,0-2.8,0.9
			c-11.7,19.1-21.5,34.5-27.7,44c-0.9,1.4-1.9,3-3,4.7c-6.3,10.2-17,27.3-26.4,27.3c-25.9,0-30.7-25.6-33.8-42.6
			c-0.3-1.4-0.5-2.8-0.8-4.2l-12-53.1c-0.8-3.6-4.4-5.8-8-5c-2.5,0.6-4.4,2.5-5,5l-4.3,19c-13.4,62.3-82.3,31-83.3,30.5l0,0
			c-4.7-7.5-10.1-16.1-16-25.7c-0.5-0.9-1.5-1.3-2.5-1c-0.6,0.2-1.1,0.6-1.4,1.1l-12,21.4c-0.6,1-1.9,1.4-2.9,0.8
			c-0.6-0.3-0.9-0.9-1.1-1.5l-6.1-35.4c-0.4-2.6-2.2-4.7-4.7-5.6c-2.7-0.9-5.6,0.1-7.3,2.4l-6.2,8.4c-0.7,0.9-2,1.1-3,0.4
			c-0.5-0.4-0.8-0.9-0.9-1.5l-3-32.1c-0.3-3.6-3.6-6.3-7.2-6c-2.2,0.2-4.2,1.5-5.2,3.4l-3.2,5.9c-0.4,0.8-1.4,1.3-2.3,1.1
			c-0.9-0.1-1.7-0.9-1.7-1.9l-4.6-45.4c-0.4-3.6-3.6-6.3-7.3-5.9c-2.7,0.3-4.9,2.1-5.7,4.7l-0.6,2.1c-0.3,1.1-1.5,1.8-2.6,1.4
			c-0.8-0.2-1.4-1-1.5-1.8l-6-55.7c-0.3-2.9-2.5-5.3-5.4-5.8c-2.9-0.5-5.8,1-7.1,3.6l-15.2,31.2c-0.4,1-1.5,1.5-2.5,1.1
			c-1-0.2-1.7-1.3-1.5-2.3l6-56.9l0.3-2.3l0.2-2.4l2-19.2c0.4-3-1.4-5.9-4.3-6.9c-2.9-0.9-6.1,0.2-7.9,2.7l-14.4,20.6
			c-0.5,0.9-1.6,1.2-2.5,0.8c-1-0.3-1.5-1.3-1.3-2.3l7.8-55c0.5-3.1-1.4-6.2-4.4-7.2c-3.1-1-6.5,0.3-8.1,3.1l-4.4,7.5
			c-0.6,1-1.9,1.3-2.9,0.7c-0.8-0.4-1.2-1.3-1-2.2l5.8-36.1l0.3-2.2l0.4-2.4l2-12.4c0.5-2.9-1-5.7-3.6-7c-2.6-1.2-5.6-0.7-7.7,1.2
			l-8.1,7.2l-0.6,0.5c-0.5,0.5-1.2,0.6-1.8,0.5c-0.3,0-0.5-0.1-0.7-0.3c-0.4-0.2-0.7-0.6-0.9-1c-0.2-0.4-0.2-0.9-0.1-1.3
			c0.1-0.5,0.2-1,0.3-1.5c16.3-66,16.3-67.5,16.3-68.1c0-1-0.6-1.8-1.5-2.2c-0.3-0.1-0.6-0.2-0.9-0.3c-1.4,0-3.8,1.9-14.1,12.6
			c-0.7,0.7-1.8,0.9-2.6,0.4c-0.9-0.5-1.3-1.5-1-2.5l19.5-66.1c0.8-2.7-0.2-5.7-2.6-7.3c-2.4-1.5-5.5-1.5-7.8,0.2l-1.9,1.3
			c-0.8,0.6-1.8,0.5-2.6-0.1c-0.7-0.6-1-1.6-0.6-2.5c23.3-54.9,73.7-87.9,94.3-99.5l1.3-0.7c1.2-0.6,2.2-1.2,3-1.7l1.1-0.6
			c0.9-0.5,1.4-0.7,1.6-0.8s0.1,0,0.1,0c30-15.1,68.3-23.4,124.3-26.9c0.2,0,0.4,0,0.6-0.1l30.3-6.6c7.6-1.6,14.1-6.5,17.7-13.4
			l15.3-28.5c0.3-0.7,1.1-0.9,1.8-0.6c0.1,0.1,0.3,0.2,0.4,0.3l17.9,19.3c2,2.2,5,3.2,7.9,2.8c2.9-0.4,5.5-2.3,6.8-4.9
			c5.8-10.3,12.8-19.8,20.9-28.3c1.2-1.3,3-1.8,4.7-1.2c1.8,0.6,3,2.2,3.1,4c1.2,11.6,5.1,22.7,11.4,32.5c2,3.2,5.8,4.9,9.5,4.1
			c3.7-0.7,6.6-3.7,7.2-7.4l1.2-6.8c0.3-1.8,1.6-3.3,3.4-3.7c1.7-0.5,3.6,0.2,4.7,1.7c20.1,27.2,62.5,52.6,64.8,54
			c0.1,0.1,0.3,0.1,0.4,0.2c7.9,2.7,15.5,5.9,23,9.6c0,0,0.6,0.3,1.6,0.8l1.1,0.6c0.8,0.4,1.8,1,3,1.7l1.3,0.7
			c20.6,11.6,71,44.6,94.3,99.5c0.4,0.9,0.2,1.9-0.6,2.5c-0.7,0.6-1.8,0.7-2.6,0.1l-1.9-1.3c-2.3-1.6-5.4-1.7-7.8-0.2
			c-2.4,1.6-3.5,4.6-2.6,7.3l19.6,66.1C748.7,322.9,748.1,324,747.2,324.5z"/>
		<g id="Group_9303" transform="translate(61.301 106.51)">
			<path id="Path_7610" class="st0" d="M381.9,556.9l-7.7,34.1c-0.3,1.3-0.5,2.7-0.8,4.1c-3.1,17-7.8,42.6-33.8,42.6
				c-9.4,0-20-17.1-26.4-27.3c-1.1-1.7-2.1-3.4-3-4.7c-3.1-4.7-7.1-11-11.7-18.3C299.6,587.9,368.5,619.2,381.9,556.9z"/>
			<path id="Path_7611" class="st0" d="M403.4,556.9l7.7,34.1c0.3,1.3,0.5,2.7,0.8,4.1c3.1,17,7.9,42.6,33.8,42.6
				c9.4,0,20-17.1,26.4-27.3c1.1-1.7,2.1-3.4,3-4.7c3.1-4.7,7.1-11,11.7-18.3C485.7,587.9,416.7,619.2,403.4,556.9z"/>
		</g>
	</g>
</g>
</svg>
