<?xml version="1.0" encoding="utf-8"?>
<!-- Generator: Adobe Illustrator 25.1.0, SVG Export Plug-In . SVG Version: 6.00 Build 0)  -->
<svg version="1.1" id="Layer_1" xmlns="http://www.w3.org/2000/svg" xmlns:xlink="http://www.w3.org/1999/xlink" x="0px" y="0px"
	 viewBox="0 0 800 800" style="enable-background:new 0 0 800 800;" xml:space="preserve">
<style type="text/css">
	.st0{fill:#8AF0FC;}
	.st1{fill:#BCF5FE;}
	.st2{fill:#FFFFFF;}
</style>
<g>
	<g id="Group_10503" transform="translate(0 0)">
		<path id="Path_10143" class="st0" d="M296.4,678.1c-6.4,5.7-14.3,9.3-22.7,10.5c-7.5,1.5-15.2-0.6-20.8-5.7
			c-10.3-9.9-12.1-30.6-11.6-47.2c10.8-7.2,20-16.6,26.7-27.8c1.4-2.5,4.3-3.6,7-2.8c3,1.1,4.8,4.1,4.4,7.3
			c-1.7,17.4-2.5,48.5,11.1,61.6C292.2,675.7,294.2,677.1,296.4,678.1z"/>
		<path id="Path_10144" class="st0" d="M384.4,690.2c-7.3,7.9-17.7,12.3-28.5,12h-0.3c-14,0-22.5-14.8-27.3-28.1
			c8.7-5.5,15.8-13.1,20.9-22.1c1.6-3,4.9-4.7,8.3-4.3c3.6,0.6,6.5,3.4,7.2,6.9C367.6,665.8,373.6,682.8,384.4,690.2z"/>
		<path id="Path_10145" class="st0" d="M464.9,688c-4.9,8-11.7,14.2-20.7,14.2h-0.3c-11.1,0.3-21.7-4.3-29-12.6
			c22.7-11.3,23.4-41.5,23.4-43h6.1C444.4,648.1,445,675.7,464.9,688z"/>
		<path id="Path_10146" class="st0" d="M553.1,673.4c-1.5,3.5-3.6,6.8-6.4,9.5c-5.6,5.1-13.4,7.3-20.8,5.7
			c-6.9-0.9-13.5-3.6-19.1-7.7c5.1-8.1,8.8-17,11-26.3c0.8-3.6,3.6-6.3,7.2-6.9c3.4-0.4,6.7,1.3,8.3,4.3
			C538.3,660.5,545,667.9,553.1,673.4z"/>
		<path id="Path_10147" class="st0" d="M633.1,629.7c-5,13.8-11.7,19-17.7,20.6c-4.3,1-8.7,0.6-12.8-0.9c1.7-12.2,1.8-24.6,0.5-36.9
			c-0.4-3.1,1.4-6.2,4.4-7.3c2.7-0.9,5.6,0.3,7,2.8C619.6,616.1,625.8,623.5,633.1,629.7z"/>
		<g id="Group_10499">
			<path id="Path_10148" class="st0" d="M351.9,52.4c-9.4,7.4-19.3,16-30.2,25.8l-0.3,0.2c-0.3,0.3-35.7,25.3-68.9,98
				c-30.7,67.2-65.7,190-58.3,393.3c1.6,44.8,11.1,62.3,20.4,68.4c-0.5,0.5-1,0.9-1.5,1.3c-0.5,0.4-1,0.9-1.5,1.3
				c-0.5,0.4-1.1,0.8-1.6,1.3c-0.4,0.3-0.8,0.6-1.3,0.9c-1.6,1.2-3.3,2.3-5,3.3c-0.4,0.3-0.8,0.5-1.2,0.7c-0.8,0.4-1.5,0.8-2.2,1.1
				c-0.5,0.2-0.9,0.4-1.4,0.6c-1,0.4-2,0.8-3,1.1c-0.3,0.1-0.6,0.2-0.9,0.3c-0.5,0.1-0.9,0.2-1.4,0.3c-0.5,0.1-1,0.2-1.5,0.3
				c-0.4,0.1-0.8,0.1-1.2,0.1c-0.2,0-0.4,0.1-0.6,0.1c-2,0.2-4.1,0-6.1-0.5c-10.4-2.7-23.3-16.9-25.2-69.1
				c-3-68.6-0.1-137.4,8.8-205.5c4.5,3.6,8.7,7.5,12.6,11.7c1,1.3,2.8,1.6,4.2,0.6c1.3-1,1.6-2.8,0.6-4.2l0,0c0-0.1-0.5-0.6-1.3-1.4
				c-4.7-4.9-9.7-9.3-15.1-13.4c-1.7-1.3-3.5-2.6-5.4-3.9c-14.3-9.5-33.2-17.3-49.8-7.5c-25.2,14.9-17.8,31.8-11.9,45.3
				c1.6,3.5,3,7,4.1,10.7c1,2.9,0.3,6.2-2,8.3c-2.6,2.4-6.4,3.1-9.7,1.9c-4.8-1.7-8-6.7-8.9-14.1c-0.3-2.2-2.2-3.8-4.4-3.5
				c-1.6,0.2-2.9,1.3-3.4,2.9c-0.3,0.9-0.5,1.8-0.8,2.7c-2,6.7-4.9,16.8-9.2,18.2c-2.2,0.3-4.5-0.4-6.1-2.1
				c-4.2-3.2-3.7-8.8-2.9-14.3c0.3-1.9-0.6-3.9-2.4-4.8c-1.7-0.8-3.7-0.5-5.1,0.8c-4.7,4.8-9,7.5-11.7,7.3c-0.9-0.1-1.7-0.6-2.2-1.4
				c-5.1-7.3,2.4-19.9,4.8-23.6c0.9-1.4,0.7-3.4-0.7-4.4c-1.3-1.1-3.2-1-4.4,0.2c-5.7,5.5-13.8,10.2-18.6,8.6
				c-2.6-0.9-4.3-3.9-5-8.9c-1.8-12.9,10.3-28.7,32.5-42.3c34.4-21.1,84-32,124.6-19.5c1.9,0.6,3.8,1.2,5.6,1.9
				c7.8,2.8,15.1,6.6,21.9,11.4c0.2,0.2,0.5,0.3,0.8,0.4c1.6,0.5,3.2-0.3,3.8-1.9c0.4-1.2,0-2.6-1.1-3.4
				c-7.4-5.2-15.5-9.4-24.1-12.4c8.3-42.6,21.3-84.1,38.8-123.7c32.3-70.9,66.8-95.3,67.1-95.5l0.3-0.2c6.9-6.3,13.5-12,19.8-17.3
				c2.5-2.1,5-4.1,7.4-6.1c1.2-1,2.4-1.9,3.6-2.9c2.4-1.9,4.8-3.6,7.1-5.4c0.1-0.1,0.2-0.2,0.4-0.3c1-0.8,2.1-1.5,3.1-2.2
				c1.1-0.8,2.3-1.6,3.5-2.4c1.2-0.8,2.3-1.5,3.4-2.3l0.3-0.2c1.1-0.7,2.1-1.3,3.1-2c1.1-0.7,2.3-1.4,3.4-2c1.1-0.7,2.2-1.3,3.3-1.9
				c0.1,0,0.2-0.1,0.2-0.1c1-0.6,2-1.1,3.1-1.6c0.3-0.2,0.6-0.3,0.9-0.5l2.6-1.2C349.6,53.5,350.7,52.9,351.9,52.4z"/>
			<path id="Path_10149" d="M757.6,340.1c-35.6-21.7-86.8-33-129.2-20.1c-8.4-43-21.6-85-39.4-125c-32.2-70.3-65.8-95.1-68.7-97.2
				c-38.6-34.8-72-61.4-120.4-60.8h-1.7c-47.5,0-80.5,26.4-118.7,60.8c-3,2.1-36.5,26.9-68.7,97.2c-17.8,40-31,81.9-39.4,124.9
				c-42.3-12.7-93.4-1.5-128.9,20.3c-24.6,15-37.4,32.6-35.3,48.1c1,7.4,4,12.1,8.9,13.7c5.3,1.2,10.9,0.2,15.4-2.9
				c-3.1,6.3-2.9,13.8,0.6,20c1.5,2.2,3.9,3.7,6.5,3.9c5.1-0.2,9.8-2.4,13.3-6.1c-1.1,5.9,1.1,11.9,5.7,15.8
				c2.4,2.1,5.4,3.3,8.6,3.4c1,0,2-0.2,2.9-0.5c6.2-2,9.4-10,11.8-18c1.7,5.4,5.8,9.8,11.1,11.9c5.4,2,11.5,0.8,15.8-3.1
				c3.9-3.7,5.3-9.3,3.6-14.3c-1.2-3.9-2.7-7.7-4.4-11.4c-6-13.8-11.2-25.7,9.5-37.8c14.9-8.8,32.8-0.4,45.9,8.9
				c-9.3,69.5-12.4,139.8-9.3,209.8c1.6,44.8,11.6,69.9,29.6,74.6c20.4,5.3,43.5-18.3,53.3-34.5c0.1,0.2,0.2,0.5,0.1,0.8
				c-2.1,22-1.6,51.1,12.6,64.8c6.9,6.4,16.4,9.1,25.7,7.3c20.5-2.7,33.4-17.8,40.7-30.1c0.4-0.8,1.2-1.3,2.1-1.3
				c1.1,0.3,1.9,1.2,2.1,2.4c5.1,19.5,15.5,42.6,36.2,42.6h0.4c28.2-0.4,39.4-19.8,43.9-34.8c4.5,15,15.7,34.4,43.9,34.8h0.4
				c20.6,0,31.1-23.1,36.2-42.6c0.2-1.1,1-2.1,2.1-2.4c0.9,0,1.8,0.5,2.1,1.3c7.2,12.2,20.2,27.4,40.7,30.1
				c9.2,1.8,18.8-0.9,25.7-7.3c14.3-13.8,14.7-42.9,12.6-64.8c0-0.3,0-0.5,0.1-0.8c9.8,16.1,32.9,39.8,53.3,34.5
				c18-4.7,28-29.8,29.6-74.6c3.1-70,0-140.2-9.3-209.6c13.1-9.4,31.1-17.9,46.1-9.1c20.7,12.2,15.5,24.1,9.5,37.8
				c-1.7,3.7-3.2,7.5-4.4,11.4c-1.7,5.1-0.3,10.7,3.6,14.3c4.3,3.9,10.4,5.1,15.8,3.1c5.3-2.1,9.4-6.5,11.1-11.9
				c2.5,8,5.6,16,11.8,18c0.9,0.3,1.9,0.5,2.9,0.5c3.2-0.2,6.2-1.4,8.6-3.4c4.6-3.9,6.7-9.9,5.7-15.8c3.5,3.7,8.2,5.9,13.3,6.1
				c2.7-0.2,5.1-1.7,6.5-3.9c3.5-6.1,3.7-13.6,0.6-20c4.5,3.1,10.1,4.1,15.4,2.9c4.9-1.7,7.9-6.3,8.9-13.7
				C795,372.7,782.1,355.1,757.6,340.1z M786.9,387.4c-0.7,5-2.4,8-5,8.9c-4.7,1.6-12.9-3.1-18.5-8.6c-1.3-1.3-3.5-1.3-4.8,0.1
				c-1.1,1.1-1.3,2.9-0.4,4.2c2.4,3.7,9.9,16.3,4.8,23.6c-0.4,0.8-1.3,1.3-2.2,1.4c-4.6-1-8.8-3.5-11.7-7.3
				c-1.3-1.4-3.4-1.7-5.1-0.8c-1.7,0.9-2.7,2.8-2.4,4.7c0.8,5.5,1.3,11.1-2.9,14.3c-1.6,1.6-3.8,2.4-6.1,2.1
				c-4.3-1.4-7.3-11.5-9.2-18.2c-0.3-0.9-0.5-1.8-0.8-2.7c-0.6-2.1-2.9-3.3-5-2.7c-1.6,0.5-2.7,1.8-2.9,3.4
				c-1,7.4-4.1,12.4-8.9,14.1c-3.3,1.2-7.1,0.5-9.7-1.9c-2.2-2.1-3-5.4-2-8.3c1.2-3.6,2.5-7.2,4.1-10.7
				c5.9-13.6,13.3-30.5-11.9-45.3c-16.7-9.8-35.8-1.9-50.1,7.7c-1.9,1.3-3.7,2.6-5.4,3.9c-5.3,4-10.2,8.5-14.9,13.2
				c-0.8,0.8-1.3,1.4-1.3,1.4c-1,1.3-0.7,3.2,0.6,4.2c1.3,1,3.1,0.7,4.1-0.6c0,0,0,0,0-0.1c3.8-4.1,8-8,12.4-11.5
				c8.8,68,11.7,136.7,8.7,205.3c-0.1,1.6-0.1,3.2-0.2,4.8c0,0.8-0.1,1.5-0.1,2.3c0,0.8-0.1,1.5-0.1,2.3s-0.1,1.5-0.2,2.2
				c0,0.7-0.1,1.4-0.2,2.1c-0.1,1.3-0.2,2.5-0.3,3.7c-0.1,0.6-0.1,1.2-0.2,1.7c-0.3,2.5-0.6,4.9-0.9,7.1c-0.1,0.9-0.3,1.7-0.4,2.6
				c-0.3,1.8-0.6,3.6-0.9,5.3c-0.1,0.5-0.2,0.9-0.3,1.4c-0.5,2.4-1.1,4.6-1.6,6.6c-0.4,1.6-0.9,3-1.3,4.4c-0.2,0.7-0.5,1.4-0.7,2
				c-5,13.8-11.7,19-17.7,20.6c-4.3,1-8.7,0.6-12.8-0.9c-7.2-2.9-13.8-7.2-19.3-12.7c-0.8-0.7-1.5-1.4-2.2-2.2
				c-0.7-0.7-1.3-1.4-2-2.1c-1.7-1.8-3.3-3.7-4.7-5.6c-0.9-1.2-1.8-2.3-2.6-3.5c-0.2-0.3-0.4-0.5-0.5-0.8c-0.4-0.6-0.8-1.2-1.2-1.8
				c-0.5-0.8-1-1.5-1.4-2.3c-1.3-2.4-4.2-3.5-6.8-2.7c-2.9,1.1-4.7,4-4.3,7.1c0.6,6.5,0.9,13.1,0.8,19.6c0,0.7,0,1.4,0,2.1
				c-0.1,4.6-0.5,9.2-1.2,13.7c-0.1,0.9-0.3,1.8-0.5,2.7c-0.1,0.6-0.2,1.1-0.3,1.6c-0.1,0.5-0.2,0.9-0.3,1.4c-0.2,1-0.4,1.9-0.7,2.8
				c-0.1,0.5-0.3,0.9-0.4,1.3c-0.2,0.8-0.5,1.6-0.8,2.4c-0.3,1-0.7,1.9-1.1,2.8c-1.5,3.5-3.6,6.8-6.4,9.5
				c-5.6,5.1-13.4,7.3-20.8,5.7c-6.9-0.9-13.5-3.6-19.1-7.7c-1.6-1.1-3.1-2.3-4.5-3.6c-0.7-0.6-1.3-1.2-1.9-1.8
				c-2.4-2.4-4.7-5-6.7-7.8c-0.5-0.7-1-1.4-1.4-2.1c-1-1.4-1.9-2.9-2.7-4.3c-1.6-2.9-4.8-4.6-8.1-4.2c-3.5,0.6-6.3,3.3-7,6.7
				c-0.1,0.4-0.2,0.9-0.4,1.4c-0.3,0.9-0.5,1.8-0.8,2.8c-0.1,0.5-0.3,1.1-0.5,1.6c-0.2,0.5-0.3,1-0.5,1.5c-0.5,1.5-1.1,3.1-1.7,4.7
				c-0.2,0.5-0.4,1.1-0.6,1.6c-0.4,1-0.8,1.9-1.2,2.9c-0.2,0.4-0.4,0.8-0.6,1.2c-0.4,0.8-0.7,1.5-1.1,2.3c-0.3,0.5-0.6,1-0.8,1.5
				c-0.5,0.8-1,1.7-1.5,2.5c-4.9,8-11.7,14.2-20.7,14.2h-0.3c-11.1,0.3-21.7-4.3-29-12.6c-0.3-0.3-0.5-0.6-0.8-0.9
				c-0.3-0.3-0.5-0.6-0.7-0.9c-1.7-2.2-3.2-4.6-4.4-7.2c-0.2-0.3-0.3-0.7-0.5-1c-0.9-2-1.7-4.1-2.4-6.2c-0.5-1.3-0.8-2.6-1.2-3.9
				c0-0.1,0-0.2-0.1-0.2c-0.2-0.8-0.4-1.5-0.5-2.2c-0.1-0.5-0.2-1-0.3-1.4c-0.1-0.6-0.2-1.2-0.3-1.7c-0.1-0.9-0.3-1.7-0.4-2.5
				c-0.2-1.1-0.2-2.1-0.3-2.9c0-0.4-0.1-0.8-0.1-1.1c0-0.4,0-0.7,0-1s0-0.4,0-0.4h-5.9c0,0.1,0,0.3,0,0.5c0,0.2,0,0.4,0,0.7
				c0,0.2,0,0.4,0,0.6c0,0.2,0,0.4,0,0.6c-0.3,3.7-0.9,7.3-1.8,10.8c-0.3,1.3-0.7,2.6-1.2,4c0,0.2-0.1,0.4-0.2,0.5
				c-0.1,0.4-0.3,0.8-0.4,1.3c-1.9,5.5-4.9,10.6-8.7,15c-7.3,7.9-17.7,12.3-28.5,12h-0.3c-14,0-22.5-14.8-27.3-28.1
				c-0.5-1.5-1-2.9-1.5-4.4c-0.2-0.5-0.3-1-0.5-1.5s-0.3-1-0.4-1.4c-0.1-0.5-0.3-1-0.4-1.4c-0.1-0.5-0.3-0.9-0.4-1.4
				c-0.7-3.5-3.5-6.1-7-6.7c-3.3-0.4-6.5,1.3-8.1,4.2c-0.8,1.4-1.8,3-2.9,4.4c-0.4,0.7-0.9,1.3-1.4,2c-1.7,2.3-3.4,4.4-5.4,6.4
				c-1.3,1.3-2.6,2.6-4,3.8c-6.4,5.7-14.3,9.3-22.7,10.5c-7.5,1.5-15.2-0.6-20.8-5.7c-10.3-9.9-12.1-30.6-11.6-47.2
				c0.1-4.7,0.4-9.1,0.8-12.8c0.4-3.1-1.4-6-4.3-7.1c-2.6-0.8-5.5,0.3-6.8,2.7c-2.1,3.5-4.5,6.8-7.2,10c-0.7,0.8-1.4,1.6-2.1,2.5
				l0,0c-0.7,0.8-1.5,1.6-2.2,2.5c-0.1,0.1-0.2,0.2-0.2,0.2c-0.4,0.4-0.7,0.7-1.1,1.1l-1.1,1.1c-0.8,0.8-1.6,1.5-2.4,2.3l0,0
				c-0.5,0.5-1,0.9-1.5,1.3c-0.5,0.4-1,0.9-1.5,1.3s-1.1,0.8-1.6,1.3c-0.4,0.3-0.8,0.6-1.3,0.9c-1.6,1.2-3.3,2.3-5,3.3
				c-0.4,0.3-0.8,0.5-1.2,0.7c-0.8,0.4-1.5,0.8-2.2,1.1c-0.5,0.2-0.9,0.4-1.4,0.6c-1,0.4-2,0.8-3,1.1c-0.3,0.1-0.6,0.2-0.9,0.3
				c-0.5,0.1-0.9,0.2-1.4,0.3c-0.5,0.1-1,0.2-1.5,0.3c-0.4,0.1-0.8,0.1-1.2,0.1c-0.2,0-0.4,0.1-0.6,0.1c-2,0.2-4.1,0-6.1-0.5
				c-10.4-2.7-23.3-16.9-25.2-69.1c-3-68.6-0.1-137.4,8.8-205.5c4.5,3.6,8.7,7.5,12.6,11.7c1,1.3,2.8,1.6,4.2,0.6
				c1.3-1,1.6-2.8,0.6-4.2c0-0.1-0.5-0.6-1.3-1.4c-4.7-4.9-9.7-9.3-15.1-13.4c-1.7-1.3-3.5-2.6-5.4-3.9
				c-14.3-9.5-33.2-17.3-49.8-7.5c-25.2,14.9-17.8,31.8-11.9,45.3c1.6,3.5,3,7,4.1,10.7c1,2.9,0.3,6.2-2,8.3
				c-2.6,2.4-6.4,3.1-9.7,1.9c-4.8-1.7-8-6.7-8.9-14.1c-0.3-2.2-2.2-3.8-4.4-3.5c-1.6,0.2-2.9,1.3-3.4,2.9c-0.3,0.9-0.5,1.8-0.8,2.7
				c-2,6.7-4.9,16.8-9.2,18.2c-2.2,0.3-4.5-0.4-6.1-2.1c-4.2-3.2-3.7-8.8-2.9-14.3c0.3-1.9-0.6-3.9-2.4-4.8
				c-1.7-0.8-3.7-0.5-5.1,0.8c-4.7,4.8-9,7.5-11.7,7.3c-0.9-0.1-1.7-0.6-2.2-1.4c-5.1-7.3,2.4-19.9,4.8-23.6
				c0.9-1.4,0.7-3.4-0.7-4.4c-1.3-1.1-3.2-1-4.4,0.2c-5.7,5.5-13.8,10.2-18.6,8.6c-2.6-0.9-4.3-3.9-5-8.9
				c-1.8-12.9,10.3-28.7,32.5-42.3c34.4-21.1,84-32,124.6-19.5c1.9,0.6,3.8,1.2,5.6,1.9c7.8,2.8,15.1,6.6,21.9,11.4
				c0.2,0.2,0.5,0.3,0.8,0.4c1.6,0.5,3.2-0.3,3.8-1.9c0.4-1.2,0-2.6-1.1-3.4c-7.4-5.2-15.5-9.4-24.1-12.4
				c8.3-42.6,21.3-84.1,38.8-123.7c32.3-70.9,66.8-95.3,67.1-95.5l0.3-0.2c6.9-6.3,13.5-12,19.8-17.3c2.5-2.1,5-4.1,7.4-6.1
				c1.2-1,2.4-1.9,3.6-2.9c2.4-1.9,4.8-3.6,7.1-5.4c0.1-0.1,0.2-0.2,0.4-0.3c1-0.8,2.1-1.5,3.1-2.2c1.1-0.8,2.3-1.6,3.5-2.4
				c1.2-0.8,2.3-1.5,3.4-2.3l0.3-0.2c1.1-0.7,2.1-1.3,3.1-2c1.1-0.7,2.3-1.4,3.4-2s2.2-1.3,3.3-1.9c0.1,0,0.2-0.1,0.2-0.1
				c1-0.6,2-1.1,3.1-1.6c0.3-0.2,0.6-0.3,0.9-0.5l2.6-1.2c1.2-0.5,2.3-1.1,3.4-1.6l0,0c0.9-0.4,1.8-0.8,2.8-1.2
				c0.7-0.3,1.4-0.6,2.1-0.9c0.7-0.3,1.5-0.6,2.3-0.9s1.4-0.5,2.2-0.8c2.6-0.9,5.3-1.7,7.9-2.4c1-0.3,2-0.5,3-0.7
				c0.1,0,0.3-0.1,0.4-0.1c0.8-0.2,1.5-0.3,2.3-0.5c0.6-0.2,1.3-0.3,1.9-0.4c0.9-0.2,1.8-0.3,2.7-0.5c1.1-0.2,2.2-0.4,3.3-0.5
				c0.1,0,0.1,0,0.2,0c1.2-0.2,2.4-0.3,3.6-0.4c0.1,0,0.2,0,0.3,0c0.8-0.1,1.6-0.1,2.4-0.2c0.8-0.1,1.7-0.1,2.6-0.2
				c2.6-0.1,5.3-0.2,8.1-0.1c0.6,0,1.2,0,1.8,0c41.5,0,70.3,19.3,114.7,59.4l0.3,0.2c0.3,0.2,34.8,24.7,67.2,95.5
				c17.6,39.7,30.6,81.2,38.8,123.8c-8.4,3-16.5,7.2-23.8,12.3c-1.3,0.9-1.7,2.8-0.7,4.1c0.8,1.1,2.1,1.5,3.4,1.1
				c0.3-0.1,0.5-0.2,0.8-0.4c6.7-4.7,13.9-8.5,21.6-11.3c1.9-0.7,3.7-1.3,5.7-1.9c40.7-12.6,90.4-1.7,124.9,19.4
				C776.6,358.7,788.7,374.5,786.9,387.4L786.9,387.4z"/>
		</g>
		<g id="Group_10502" transform="translate(37.704 1.201)">
			<path id="Path_10150" class="st1" d="M749.2,386.2c-0.7,5-2.4,8-5,8.9c-4.7,1.6-12.9-3.1-18.5-8.6c-1.3-1.3-3.5-1.3-4.8,0.1
				c-1.1,1.1-1.3,2.9-0.4,4.2c2.4,3.7,9.9,16.3,4.8,23.6c-0.4,0.8-1.3,1.3-2.2,1.4c-4.6-1-8.8-3.5-11.7-7.3
				c-1.3-1.4-3.4-1.7-5.1-0.8c-1.7,0.9-2.7,2.8-2.4,4.7c0.8,5.5,1.3,11.1-2.9,14.3c-1.6,1.6-3.8,2.4-6.1,2.1
				c-4.3-1.4-7.3-11.5-9.2-18.2c-0.3-0.9-0.5-1.8-0.8-2.7c-0.6-2.1-2.9-3.3-5-2.7c-1.6,0.5-2.7,1.8-2.9,3.4
				c-1,7.4-4.1,12.4-8.9,14.1c-3.3,1.2-7.1,0.5-9.7-1.9c-2.2-2.1-3-5.4-2-8.3c1.2-3.6,2.5-7.2,4.1-10.7
				c5.9-13.6,13.3-30.5-11.9-45.3c-16.7-9.8-35.8-1.9-50.1,7.7c-1.9,1.3-3.7,2.6-5.4,3.9c-5.3,4-10.2,8.5-14.9,13.2
				c-0.8,0.8-1.3,1.4-1.3,1.4c-1,1.3-0.7,3.2,0.6,4.2c1.3,1,3.1,0.7,4.1-0.6c0,0,0,0,0-0.1c3.8-4.1,8-8,12.4-11.5
				c8.8,68,11.7,136.7,8.7,205.3c-0.1,1.6-0.1,3.2-0.2,4.8c0,0.8-0.1,1.5-0.1,2.3c0,0.8-0.1,1.5-0.1,2.3c0,0.7-0.1,1.5-0.2,2.2
				c0,0.7-0.1,1.4-0.2,2.1c-0.1,1.3-0.2,2.5-0.3,3.7c-0.1,0.6-0.1,1.2-0.2,1.7c-0.3,2.5-0.6,4.9-0.9,7.1c-0.1,0.9-0.3,1.7-0.4,2.6
				c-0.3,1.8-0.6,3.6-0.9,5.3c-0.1,0.5-0.2,0.9-0.3,1.4c-0.5,2.4-1.1,4.6-1.6,6.6c-0.4,1.5-0.9,3-1.3,4.4c-0.2,0.7-0.5,1.4-0.7,2
				c-7.3-6.3-13.5-13.6-18.6-21.8c-1.4-2.5-4.3-3.6-7-2.8c-3,1.1-4.8,4.1-4.4,7.3c1.3,12.3,1.2,24.7-0.5,36.9
				c-7.2-2.9-13.8-7.2-19.3-12.7c-0.8-0.7-1.5-1.4-2.2-2.2c-0.7-0.7-1.3-1.4-2-2.1c-1.7-1.8-3.3-3.7-4.7-5.6
				c-0.9-1.2-1.8-2.3-2.6-3.5c-0.2-0.3-0.4-0.5-0.5-0.8c-0.4-0.6-0.8-1.2-1.2-1.8c-0.5-0.8-1-1.5-1.4-2.3c-1.3-2.4-4.2-3.5-6.8-2.7
				c-2.9,1.1-4.7,4-4.3,7.1c0.6,6.5,0.9,13.1,0.8,19.6c0,0.7,0,1.4,0,2.1c-0.1,4.6-0.5,9.2-1.2,13.7c-0.1,0.9-0.3,1.8-0.5,2.7
				c-0.1,0.6-0.2,1.1-0.3,1.6c-0.1,0.5-0.2,0.9-0.3,1.4c-0.2,1-0.4,1.9-0.7,2.8c-0.1,0.5-0.3,0.9-0.4,1.3c-0.2,0.8-0.5,1.6-0.8,2.4
				c-0.3,0.9-0.7,1.9-1.1,2.8c-8.1-5.5-14.9-12.8-19.7-21.4c-1.6-3-4.9-4.7-8.3-4.3c-3.6,0.6-6.4,3.4-7.2,7c-2.2,9.3-6,18.2-11,26.3
				c-1.6-1.1-3.1-2.3-4.5-3.6c-0.7-0.6-1.3-1.2-1.9-1.8c-2.4-2.4-4.7-5-6.7-7.8c-0.5-0.7-1-1.4-1.4-2.1c-1-1.4-1.9-2.9-2.7-4.3
				c-1.6-2.9-4.8-4.6-8.1-4.2c-3.5,0.6-6.3,3.3-7,6.7c-0.1,0.4-0.2,0.9-0.4,1.4c-0.3,0.9-0.5,1.8-0.8,2.8c-0.1,0.5-0.3,1.1-0.5,1.6
				c-0.2,0.5-0.3,1-0.5,1.5c-0.5,1.5-1.1,3.1-1.7,4.7c-0.2,0.5-0.4,1.1-0.6,1.6c-0.4,1-0.8,1.9-1.2,2.9c-0.2,0.4-0.4,0.8-0.6,1.2
				c-0.4,0.8-0.7,1.5-1.1,2.3c-0.3,0.5-0.6,1-0.8,1.5c-0.5,0.8-1,1.7-1.5,2.5c-19.8-12.3-20.5-39.9-20.5-41.4h-6.1
				c0,1.6-0.8,31.8-23.4,43c-0.3-0.3-0.5-0.6-0.8-0.9c-0.3-0.3-0.5-0.6-0.7-0.9c-1.7-2.2-3.2-4.6-4.4-7.2c-0.2-0.3-0.3-0.7-0.5-1
				c-0.9-2-1.7-4.1-2.4-6.2c-0.4-1.3-0.8-2.6-1.2-3.9c0-0.1,0-0.2-0.1-0.2c-0.2-0.8-0.4-1.5-0.5-2.2c-0.1-0.5-0.2-1-0.3-1.4
				c-0.1-0.6-0.2-1.2-0.3-1.7c-0.1-0.9-0.3-1.7-0.4-2.5c-0.2-1.1-0.2-2.1-0.3-2.9c0-0.4-0.1-0.8-0.1-1.1c0-0.4,0-0.7,0-1
				s0-0.4,0-0.4h-5.9c0,0.1,0,0.3,0,0.5c0,0.2,0,0.4,0,0.7c0,0.2,0,0.4,0,0.6s0,0.4,0,0.6c-0.3,3.7-0.9,7.3-1.8,10.8
				c-0.3,1.3-0.7,2.6-1.2,4c0,0.2-0.1,0.4-0.2,0.5c-0.1,0.4-0.3,0.8-0.4,1.3c-1.9,5.5-4.9,10.6-8.7,15
				c-10.8-7.4-16.9-24.3-19.8-35.5c-0.8-3.6-3.6-6.3-7.2-6.9c-3.4-0.4-6.7,1.3-8.3,4.3c-5,9-12.2,16.5-20.9,22.1
				c-0.5-1.5-1-2.9-1.5-4.4c-0.2-0.5-0.3-1-0.5-1.5s-0.3-1-0.4-1.4c-0.1-0.5-0.3-0.9-0.4-1.4c-0.1-0.5-0.3-0.9-0.4-1.4
				c-0.7-3.5-3.5-6.1-7-6.7c-3.3-0.4-6.5,1.3-8.1,4.2c-0.8,1.4-1.8,3-2.9,4.4c-0.4,0.7-0.9,1.3-1.4,2c-1.7,2.3-3.4,4.4-5.4,6.4
				c-1.3,1.3-2.6,2.6-4,3.8c-2.2-1-4.2-2.4-5.9-4.1c-13.6-13.1-12.8-44.2-11.1-61.6c0.4-3.2-1.4-6.2-4.4-7.3c-2.7-0.9-5.6,0.3-7,2.8
				c-6.7,11.1-15.9,20.6-26.7,27.8c0.1-4.7,0.4-9.1,0.8-12.8c0.4-3.1-1.4-6-4.3-7.1c-2.6-0.8-5.5,0.3-6.8,2.7
				c-2.1,3.5-4.5,6.8-7.2,10c-0.7,0.8-1.4,1.6-2.1,2.5l0,0c-0.7,0.8-1.5,1.6-2.2,2.5c-0.1,0.1-0.2,0.2-0.2,0.2
				c-0.4,0.4-0.7,0.7-1.1,1.1l-1.1,1.1c-0.8,0.8-1.6,1.5-2.4,2.3l0,0c-9.3-6.1-18.8-23.7-20.4-68.4c-7.4-203.2,27.6-326,58.3-393.3
				c33.2-72.7,68.5-97.8,68.9-98L284,77c10.9-9.8,20.7-18.4,30.2-25.8l0,0c0.9-0.4,1.8-0.8,2.8-1.2c0.7-0.3,1.4-0.6,2.1-0.9
				c0.7-0.3,1.5-0.6,2.3-0.9c0.8-0.3,1.4-0.5,2.2-0.8c2.6-0.9,5.3-1.7,7.9-2.4c1-0.3,2-0.5,3-0.7c0.1,0,0.3-0.1,0.4-0.1
				c0.8-0.2,1.5-0.3,2.3-0.5c0.6-0.1,1.3-0.3,1.9-0.4c0.9-0.2,1.8-0.3,2.7-0.5c1.1-0.2,2.2-0.4,3.3-0.5c0.1,0,0.1,0,0.2,0
				c1.2-0.2,2.4-0.3,3.6-0.4c0.1,0,0.2,0,0.3,0c0.8-0.1,1.6-0.1,2.4-0.2c0.8-0.1,1.7-0.1,2.6-0.2c2.6-0.1,5.3-0.2,8.1-0.1
				c0.6,0,1.2,0,1.8,0c41.5,0,70.3,19.3,114.7,59.4l0.3,0.2c0.3,0.2,34.8,24.7,67.2,95.5c17.6,39.7,30.6,81.2,38.8,123.8
				c-8.4,3-16.5,7.2-23.8,12.3c-1.3,0.9-1.7,2.8-0.7,4.1c0.8,1.1,2.1,1.5,3.4,1.1c0.3-0.1,0.5-0.2,0.8-0.4
				c6.7-4.7,13.9-8.5,21.6-11.3c1.9-0.7,3.7-1.3,5.7-1.9c40.7-12.6,90.4-1.7,124.9,19.4C738.9,357.5,751,373.3,749.2,386.2z"/>
			<g id="Group_10500" transform="translate(63.704 17.684)">
				<path id="Path_10151" class="st2" d="M493.1,292.9c-2.1,0-3.9-1.7-4-3.8c-4.1-81.7-80.9-170.4-81.6-171.3
					c-1.4-1.6-1.3-4.2,0.4-5.6c1.6-1.4,4.2-1.3,5.6,0.4l0,0c3.2,3.7,79.3,91.7,83.6,176.1c0.1,2.2-1.6,4-3.7,4.2c0,0,0,0,0,0
					L493.1,292.9z"/>
			</g>
			<g id="Group_10501" transform="translate(99.009 58.003)">
				<path id="Path_10152" class="st2" d="M634.5,315.2c-0.9,0-1.7-0.4-2.3-1.1c-27.1-32.6-83.4-38.1-83.9-38.1
					c-1.6-0.1-2.8-1.6-2.7-3.2c0.2-1.6,1.6-2.8,3.2-2.7l0,0c2.4,0.2,59.3,5.8,88,40.2c1.1,1.3,0.9,3.1-0.4,4.2
					C635.9,315,635.2,315.2,634.5,315.2L634.5,315.2z"/>
			</g>
		</g>
	</g>
	<ellipse id="Ellipse_1685" class="st0" cx="400" cy="747.5" rx="227.8" ry="15.7"/>
</g>
</svg>
