<?xml version="1.0" encoding="utf-8"?>
<!-- Generator: Adobe Illustrator 25.1.0, SVG Export Plug-In . SVG Version: 6.00 Build 0)  -->
<svg version="1.1" id="Layer_1" xmlns="http://www.w3.org/2000/svg" xmlns:xlink="http://www.w3.org/1999/xlink" x="0px" y="0px"
	 viewBox="0 0 800 800" style="enable-background:new 0 0 800 800;" xml:space="preserve">
<style type="text/css">
	.st0{fill:#FCFCFC;}
	.st1{fill:#0C0A0A;}
	.st2{fill:#FFFFFF;}
	.st3{fill:#F98F8F;}
</style>
<g>
	<g>
		<path d="M482.3,200.3c26.2-6,55.3,5.3,70.6,27.4c3.1,4.5,10.5,0.2,7.4-4.3C542.7,198,510.1,185.2,480,192
			C474.6,193.3,476.9,201.5,482.3,200.3L482.3,200.3z"/>
	</g>
	<g>
		<path d="M312.2,181c-30.1-6.9-62.7,5.9-80.2,31.3c-3.1,4.5,4.3,8.8,7.4,4.3c15.3-22.1,44.4-33.3,70.6-27.4
			C315.3,190.4,317.5,182.2,312.2,181L312.2,181z"/>
	</g>
	<g>
		<path class="st0" d="M442.1,288.8c-0.1-13.7,2.4-27.6,8.4-39.9c6-12.3,15.9-23,28.3-28.7c12.4-5.8,27.5-6.3,39.8-0.3
			c12.3,6.1,21.2,19.1,21.2,32.8c0,13.2-7.9,25.5-18.7,33c-10.8,7.6-24,10.8-37.1,11.9C469.5,298.7,454.5,296.5,442.1,288.8"/>
		<g>
			<path d="M443.8,288.8c0-19,4.8-38.6,17.6-53.2c12-13.7,30.6-21.6,48.7-17c16.3,4.1,29.2,19.5,27.9,36.7
				c-1.5,18.5-17.5,31.6-34.1,36.9c-19.6,6.2-43,6-60.9-4.9c-1.9-1.1-3.6,1.8-1.7,3c17.3,10.5,39.1,11.3,58.4,6.6
				c18.3-4.4,36-16.4,40.8-35.6c4.3-17.3-5.6-35.5-21.4-43.1c-17.8-8.6-39.1-3.8-53.7,8.7c-17.9,15.3-24.9,39-24.9,61.9
				C440.4,291,443.8,291,443.8,288.8L443.8,288.8z"/>
		</g>
	</g>
	<g>
		<path class="st0" d="M348.7,285.2c0.8-13.7-0.9-27.7-6.3-40.3s-14.6-23.8-26.7-30.2c-12.1-6.4-27.1-7.8-39.7-2.4
			c-12.6,5.4-22.2,17.9-22.9,31.6c-0.7,13.1,6.6,25.9,16.9,34c10.3,8.1,23.4,12.1,36.4,13.8C320.8,293.6,335.9,292.2,348.7,285.2"/>
		<g>
			<path d="M350.4,285.2c1.1-20.4-3.3-41.4-16.5-57.5c-12.2-14.8-31.5-23.4-50.7-19.4c-17.3,3.6-31.7,19-31.9,37
				c-0.2,19.3,14.6,34.9,31.4,42c20.7,8.8,46.7,10.2,66.8-0.6c1.9-1,0.2-4-1.7-3c-16.8,9-37.2,8.6-55.1,3.5
				c-17.1-4.9-33.5-16.6-37.3-34.9c-3.5-16.9,7.7-33.8,23.7-39.4c17.6-6.1,36.9,0.6,49.4,13.8c14.8,15.6,19.5,37.5,18.4,58.5
				C346.8,287.4,350.2,287.4,350.4,285.2L350.4,285.2z"/>
		</g>
	</g>
	<g>
		<path class="st1" d="M327,338.2c0.4-6,5.4-10.8,11-12.9c5.6-2.1,11.7-2.1,17.7-2c26.1,0.4,52.1,0.8,78.2,1.2
			c7.3,0.1,15.4,0.5,20.9,5.3c3.9,3.4,5.9,8.7,6,13.9c0.2,5.2-1.3,10.3-3.4,15.1c-9.3,21.1-31.5,35.5-54.6,37.2
			c-23.1,1.7-46.3-8.4-62.2-25.2c-8.7-9.2-14.9-21.1-13.5-33.7"/>
		<g>
			<path d="M328.7,338.2c1.3-12.5,17-13.3,26.4-13.2c12.6,0.2,25.3,0.4,37.9,0.6c12.7,0.2,25.3,0.4,38,0.6
				c10.4,0.2,23.2,0.2,27.1,12c3.3,10.2-2.1,21.6-8,29.8c-5.6,7.9-13.3,14.3-21.9,18.8c-17.9,9.5-38.9,9.7-57.5,2.4
				c-20.5-8.1-44.3-27.7-41.9-52c0.2-2.2-3.2-2.2-3.4,0c-2.3,23.3,18.2,42.6,37.4,52.2c19.8,9.9,43.1,11.5,63.5,2.3
				c9.5-4.3,18.1-10.8,24.6-18.9c6.7-8.4,12.7-19.7,11.6-30.8c-0.5-5-2.6-10-6.4-13.4c-3.9-3.5-9-4.9-14-5.4
				c-6.4-0.7-12.9-0.5-19.4-0.6c-7.2-0.1-14.4-0.2-21.5-0.3c-16.1-0.3-32.2-0.7-48.3-0.7c-11.3,0-25.9,3.1-27.4,16.6
				C325,340.4,328.4,340.4,328.7,338.2L328.7,338.2z"/>
		</g>
	</g>
	<g>
		<path d="M342.5,326.2c3.1,8.4,10.7,13.5,19.1,16c10,2.9,21.1,3.4,31.5,3.1c16.5-0.5,38.6-2.7,48.3-18.2c1.2-1.9-1.8-3.6-3-1.7
			c-8.8,14-29.3,15.9-44.2,16.5c-9.4,0.4-19.1-0.1-28.3-2.1c-8.3-1.8-17-5.9-20.2-14.4C345,323.2,341.7,324.1,342.5,326.2
			L342.5,326.2z"/>
	</g>
	<g>
		<path d="M360.8,385.6c8.1-9.2,20.4-15.1,32.7-14.6c12.6,0.5,24.4,7.5,31.4,17.9c1.2,1.8,4.2,0.1,3-1.7
			c-7.5-11.2-20-18.6-33.5-19.5c-13.5-0.9-27.2,5.5-36,15.6C356.9,384.8,359.4,387.2,360.8,385.6L360.8,385.6z"/>
	</g>
	<g>
		<path d="M379.1,299.9c3.1-6.3,9.7-10.5,16.8-10.3c6.7,0.2,13.1,4.8,15.7,11.1c1.1,2.7,5.5,1.5,4.4-1.2
			c-3.2-8.1-10.8-13.8-19.5-14.4c-8.7-0.6-17.4,4.7-21.3,12.5C373.9,300.2,377.8,302.5,379.1,299.9L379.1,299.9z"/>
	</g>
	<g>
		<circle cx="485" cy="261.9" r="27.8"/>
		<circle class="st2" cx="466.3" cy="247.6" r="7.8"/>
	</g>
	<g>
		<circle cx="308.8" cy="259.1" r="27.8"/>
		<circle class="st2" cx="290.2" cy="244.8" r="7.8"/>
	</g>
	<g>
		<path class="st2" d="M346.1,325.5c3.3-0.4,6.5-0.4,9.3-0.4c12.6,0.2,25.3,0.4,37.9,0.6c12.7,0.2,25.3,0.4,38,0.6
			c2.2,0,4.4,0.1,6.7,0.2c-9.1,13-29,14.8-43.5,15.4c-9.4,0.4-19.1-0.1-28.3-2.1C357.9,338,349.3,333.9,346.1,325.5z"/>
		<path class="st3" d="M425,388.7c-17.1,7.8-36.6,7.6-54.1,0.7c-3.1-1.2-6.2-2.6-9.3-4.3c8.1-8.9,20-14.5,32.1-14
			C406.3,371.5,418,378.4,425,388.7z"/>
	</g>
</g>
</svg>
