<?xml version="1.0" encoding="utf-8"?>
<!-- Generator: Adobe Illustrator 25.1.0, SVG Export Plug-In . SVG Version: 6.00 Build 0)  -->
<svg version="1.1" id="Layer_1" xmlns="http://www.w3.org/2000/svg" xmlns:xlink="http://www.w3.org/1999/xlink" x="0px" y="0px"
	 viewBox="0 0 800 800" style="enable-background:new 0 0 800 800;" xml:space="preserve">
<style type="text/css">
	.st0{fill:#FCFCFC;}
	.st1{fill:#FFFFFF;}
	.st2{fill:#F98F8F;}
</style>
<g>
	<g>
		<g>
			<path class="st0" d="M442.6,287.9c-3-13.5-1.9-27.9,3.1-40.8c4.9-12.9,13.7-24.3,24.9-32.4c11.7-8.5,28.1-10.5,41.7-5.4
				c8.2,3.1,14,6.7,19,13.9c5.5,8,9.3,17.4,9.7,27.1s-2.9,19.8-9.7,26.7c-8,8.1-19.8,11.1-31,12.6
				C481,292.2,461.5,292.3,442.6,287.9"/>
			<g>
				<path d="M444,287.5c-4.1-19.4,0.2-40,11.8-56.1c5.2-7.2,12-14,19.9-18.2c7.9-4.3,17.1-5.9,26-5c8.2,0.9,17.1,4.2,23.2,9.8
					c6.9,6.2,11.5,15.6,13.5,24.5c2.1,9.1,1.2,19-3.6,27.2c-4.6,8.1-12.6,12.9-21.4,15.6c-10.8,3.3-22.6,4.1-33.8,4.5
					c-12.4,0.4-24.7-0.6-36.8-3.4c-1.8-0.4-2.6,2.4-0.8,2.8c11.4,2.6,23.1,3.7,34.7,3.5c10.9-0.1,22.2-1,32.9-3.4
					c9.2-2.1,18.4-6.1,24.4-13.5c6.1-7.5,8.8-17.3,8.1-26.8c-0.7-10.2-4.9-20.4-11.2-28.5c-5.4-7-13.3-11.4-21.8-13.8
					c-9.1-2.6-19.1-2.3-28,0.8c-9.1,3.1-16.8,9.2-23.1,16.2c-15.7,17.4-22,41.6-17.1,64.5C441.6,290.1,444.4,289.4,444,287.5
					L444,287.5z"/>
			</g>
		</g>
		<g>
			<path d="M376.9,295.7c1.9-7.1,8.9-12.3,16.2-11.8c7.1,0.5,13.4,6.7,14.2,13.8c0.2,1.8,3.1,1.9,2.9,0c-1-8.5-8-15.8-16.6-16.6
				c-8.8-0.9-17.3,5.5-19.5,13.9C373.6,296.8,376.4,297.5,376.9,295.7L376.9,295.7z"/>
		</g>
		<g>
			<path d="M472.9,198.5c10.4-7,23.4-10.1,35.8-7.7c11.6,2.2,22.3,8.7,29.4,18.2c0.9,1.3,2.5,1.9,4,1c1.2-0.7,2-2.7,1-4
				c-13-17.3-35.2-25.5-56.4-20.2c-6,1.5-11.8,4.1-16.9,7.6C466.8,195.5,469.7,200.6,472.9,198.5L472.9,198.5z"/>
		</g>
		<circle cx="477.7" cy="257.3" r="27.1"/>
		<circle class="st0" cx="496.2" cy="244.3" r="10"/>
		<g>
			<path class="st1" d="M350.6,289.2c4.1-13.2,2.4-26.6-1.4-39.9s-9.9-26.4-20.4-35.4c-11-9.4-27.2-12.8-41.1-8.9
				c-8.5,2.4-14.5,5.5-20.1,12.3c-6.2,7.5-10.7,16.6-11.9,26.2c-1.2,9.7,3.1,22,9.4,29.5c7.3,8.7,16.9,10.7,28,13.1
				C312,290.2,331.4,292,350.6,289.2"/>
			<g>
				<path d="M352,289.6c3.3-11.1,2.9-22.6,0.4-33.8c-2.2-10-5.7-20-11-28.9c-4.9-8.2-11.6-15.4-20.1-19.8c-8.4-4.3-18.2-6-27.5-4.8
					c-8.6,1.1-17.4,4.3-23.8,10.3c-7.1,6.6-12.4,16.1-14.8,25.5c-2.3,9.2-0.8,18.5,3.2,27.1c3.9,8.3,10.2,14.7,18.8,18.1
					c4.2,1.7,8.7,2.7,13.1,3.7c5.6,1.2,11.2,2.3,16.9,3.2c11.7,1.7,23.5,2.3,35.2,1.4c2.8-0.2,5.7-0.6,8.5-1
					c1.9-0.3,1.1-3.1-0.8-2.8c-21.4,3.1-43.2,0.5-64.1-4.7c-8.3-2.1-16-5.4-21.2-12.4c-5.2-7-8.4-16.3-8.1-25
					c0.4-9.3,4.8-18.4,10.4-25.7c2.6-3.4,5.6-6.5,9.3-8.8c3.5-2.2,7.5-3.6,11.4-4.7c8.6-2.4,17.9-1.9,26.4,1c8.8,3,16,8.9,21.4,16.3
					c6.2,8.5,10,18.6,12.7,28.7c3.2,11.9,4.2,24.4,0.6,36.4C348.7,290.6,351.5,291.4,352,289.6L352,289.6z"/>
			</g>
		</g>
		<g>
			<path d="M320.7,187.9c-9.7-5.6-21.1-8.2-32.3-7.1c-10.5,1-20.3,5.1-28.5,11.7c-4.5,3.6-8.4,8-11.5,12.8c-2.1,3.2,3,6.1,5.1,3
				c6.3-9.8,16.2-17.1,27.5-20.2c12.3-3.4,25.8-1.5,36.8,4.8C321,194.9,323.9,189.8,320.7,187.9L320.7,187.9z"/>
		</g>
		<circle cx="294.6" cy="252.4" r="27.1"/>
		<circle class="st0" cx="317" cy="241.5" r="10"/>
	</g>
	<g>
		<path class="st2" d="M430.2,387.7c-5.3,1.1-10.8,0.5-16.1-0.1c-5.5-0.6-11-1.1-16.6-1.2c-12.3-0.3-24.5,0.7-36.6,3
			c-5.5,1.1-11.5,3.2-17.2,1.9c-0.4-0.1-0.8-0.2-1.1-0.4c6.6-12.4,18.4-21.7,32.1-25.4c13.5-3.6,28-1.1,39.8,6.4
			C420.8,376,426.2,381.4,430.2,387.7z"/>
		<g>
			<path d="M341.9,386.2c-7.9-17.6,1.8-36.9,15.9-48c13.8-10.9,32.5-15.3,49.4-9.6c8.3,2.8,15.6,8,20.9,14.9
				c5.3,6.9,8.8,15.4,10.6,23.9c0.9,4.4,1.2,9.4-1.3,13.3c-2.2,3.5-6.1,5.6-9.9,6.6c-4.7,1.2-9.6,0.8-14.3,0.3
				c-5.2-0.5-10.3-1.1-15.5-1.3c-11.1-0.4-22.3,0.5-33.3,2.5c-5.5,1-11.5,3.3-17.1,1.9c-4.2-1-5.5-4.9-6.7-8.6
				c-0.6-1.8-3.4-1-2.8,0.8c1.1,3.4,2.4,7.1,5.5,9.2c3.8,2.6,9.1,2,13.4,1.2c5.8-1.1,11.4-2.4,17.3-3.1c5.6-0.7,11.2-1.1,16.8-1.1
				c5.6-0.1,11.3,0.2,16.9,0.7c5.7,0.6,11.4,1.5,17.1,0.9c8.6-1,16.6-6.2,17.7-15.4c0.5-4.8-0.6-9.6-2-14.1c-1.4-4.6-3.2-9-5.6-13.2
				c-4.6-8.2-11.3-15.1-19.8-19.5c-17.2-8.8-37.8-6.6-53.8,3.7c-8.9,5.7-16.6,13.7-21,23.3c-4.6,10.1-5.2,21.7-0.6,32
				C340.1,389.4,342.6,388,341.9,386.2L341.9,386.2z"/>
		</g>
		<g>
			<path d="M345.8,391.2c5.9-11.4,16.4-19.9,28.7-23.5c12.6-3.7,26.1-1.5,37.1,5.4c6.2,3.9,11.5,9.2,15.2,15.5
				c1,1.6,3.5,0.1,2.5-1.5c-7.1-11.9-19.4-20.5-33-23.2c-13.3-2.7-27.3,0.6-38.2,8.7c-6.2,4.5-11.3,10.4-14.9,17.2
				C342.4,391.4,345,392.8,345.8,391.2L345.8,391.2z"/>
		</g>
		<g>
			<path d="M357.1,338.9c20.5,10.7,45.6,11,66.4,0.8c1.7-0.8,0.2-3.4-1.5-2.5c-19.8,9.7-43.9,9.4-63.4-0.8
				C356.9,335.5,355.4,338,357.1,338.9L357.1,338.9z"/>
		</g>
		<path d="M440.5,371c0.7,4.4,0.4,9.1-2.2,12.7c-1.9,2.6-4.7,4.3-7.7,5.4c-7.1-11.9-19-20.7-32.3-23.9c-13.9-3.3-28.4-0.2-40,8.1
			c-6.4,4.6-11.7,10.6-15.3,17.6c-1-1.1-1.8-2.5-2.4-4c-0.4-0.9-0.7-1.8-1-2.8l0-0.1c-5.2-17.3,4.2-35.4,17.5-46.1
			c14.5-11.6,34.2-16.1,51.9-9.2C426.3,335.4,437.7,352.7,440.5,371z"/>
		<path class="st1" d="M422,337.3c-19.4,9.5-43,9.4-62.3-0.3c14-10.3,32.4-14,48.9-7.8C413.5,331,418,333.8,422,337.3z"/>
	</g>
</g>
</svg>
