<?xml version="1.0" encoding="utf-8"?>
<!-- Generator: Adobe Illustrator 25.1.0, SVG Export Plug-In . SVG Version: 6.00 Build 0)  -->
<svg version="1.1" id="Layer_1" xmlns="http://www.w3.org/2000/svg" xmlns:xlink="http://www.w3.org/1999/xlink" x="0px" y="0px"
	 viewBox="0 0 800 800" style="enable-background:new 0 0 800 800;" xml:space="preserve">
<style type="text/css">
	.st0{fill:#FCFCFC;}
	.st1{fill:#F98F8F;}
	.st2{fill:#8DB0F7;}
</style>
<g>
	<path d="M457.8,377.6c-3.8,1.7-7.6,2.4-11.4,2.3c-8.9-0.1-18-3.9-26.5-6.1c-20.6-5.4-41,2.4-61.6,3.8c-1.8,0.1-3.5,0.2-5.2,0.2
		l-17.8-3.6c-2.8-2.2-4.4-5.6-6-8.8c-1.6-3.3-2.5-6.9-2.8-10.5l4.1-20.4c3.5-7.4,8.8-13.9,15.3-18.7c1.4-1,2.9-2,4.4-2.9
		c9.9-5.9,21.6-8.4,33-9.8c7.3-0.9,14.7-1.3,22.1-1.5c7.5-0.2,15.1-0.4,22.5-0.1c0.5,0,1.1,0,1.6,0.1l23.7,4.8
		c4.1,1.7,7.9,4,11.3,7.1c4.3,3.9,7.7,8.8,9.3,14.5c1.8,6.2,1.4,12.7,0.3,19C472.3,358.2,469.3,372.3,457.8,377.6z"/>
	<path class="st0" d="M449.5,304.9l-1.4,5.2c-4.5,3.3-9.6,6.6-14.8,8.9c-24.7,10.9-52.5,6.9-75-7.6c-0.1-0.1,2-1.1,1.9-1.2
		c-2.7,1.2,1.5-1.5-1,0.1l-9,2.7c9.9-5.9,21.6-8.4,33-9.8c7.3-0.9,14.7-1.3,22.1-1.5c7.5-0.2,15.1-0.4,22.5-0.1c0.5,0,1.1,0,1.6,0.1
		c1,0,1.9,0.1,2.9,0.2c0.9,0,1.9,0.1,2.8,0.2c1.2,0.1,2.4,0.3,3.6,0.5c1.8,0.3,3.6,0.6,5.4,1C446,303.8,447.8,304.3,449.5,304.9z"/>
	<path class="st1" d="M446.7,378.3l-0.3,1.7c-8.9-0.1-18-3.9-26.5-6.1c-20.6-5.4-41,2.4-61.6,3.8l-10.4-2.1l4.8,0.2
		c1.5,0.1,1.6,0.4,3.1,0.4c0.6,0-0.4-0.4,0.3-0.4c2-7.3,6.1-13.1,12.3-17.5c12.2-8.5,27.1-9.1,41.3-6.2
		c13.6,2.8,26.2,10.8,29.2,25.2C440.9,377.7,444.7,378.3,446.7,378.3z"/>
	<g>
		<g>
			<path class="st2" d="M273.3,254.7c-14.1-5.8-33.9-3.9-45.2,6.3c-3.3,2.9-6.2,7.4-4.6,11.5c1,2.5,3.7,4.1,6.4,4.4
				c2.7,0.3,5.4-0.5,7.9-1.6c6.4-2.9,11.5-8,17-12.4s12.1-8.2,19.1-7.8"/>
			<g>
				<path d="M273.5,254c-13.6-5.4-31-4.4-43.1,4.2c-4.8,3.5-11.7,11.2-6,16.9c6.3,6.3,16.1,0.2,21.6-4c8.4-6.4,16.4-15.7,27.9-15.2
					c1,0,1-1.4,0-1.5c-7.3-0.3-13.8,3.3-19.3,7.7c-6.3,4.9-12.4,11.8-20.5,13.7c-4.7,1.1-11.3-0.9-10.3-6.9c0.7-4.1,4.3-7.4,7.5-9.6
					c5.7-4,12.5-6.1,19.3-6.8c7.6-0.8,15.3,0.1,22.3,2.9C274,255.8,274.4,254.4,273.5,254L273.5,254z"/>
			</g>
		</g>
		<g>
			<g>
				<path d="M479.6,167.6c18.5-8,40.2-0.5,50.3,16.6c2.4,4.1,8.9,0.4,6.4-3.8c-5.6-9.5-14.2-16.7-24.5-20.6
					c-11.7-4.4-24.7-3.6-36,1.3C471.4,163.1,475.2,169.5,479.6,167.6L479.6,167.6z"/>
			</g>
			<g>
				<path d="M285.4,170.8c13.2-15.8,35.7-19.4,53.1-8.3c4.1,2.6,7.8-3.9,3.8-6.4c-20-12.7-46.9-8.7-62.1,9.5
					C277.1,169.2,282.3,174.5,285.4,170.8L285.4,170.8z"/>
			</g>
			<g>
				<path d="M394.6,284.3c2.5-6,9-10,15.5-9.6c6.4,0.4,12.1,5.2,13.9,11.2c0.6,1.8,3.4,1,2.9-0.8c-2.3-7.4-9.1-12.9-16.8-13.4
					c-7.9-0.5-15.4,4.6-18.4,11.8C391,285.3,393.9,286.1,394.6,284.3L394.6,284.3z"/>
			</g>
			<g>
				<path d="M453.4,251.9c6.4-11.3,19.2-18.3,32.2-17.3c12.6,1,24.1,10,28.6,21.7c1.3,3.5,7.1,2,5.7-1.6
					c-5.4-14.1-18.3-24.4-33.4-26c-15.3-1.6-30.7,6.9-38.3,20.1C446.4,252.2,451.5,255.2,453.4,251.9L453.4,251.9z"/>
			</g>
			<g>
				<path class="st2" d="M516.2,267c-4.7,9.9-8.4,20.9-9.5,31.8c-0.2,2.5-0.3,5.3,1.4,7.1c2.3,2.5,6.5,1.7,9.1-0.5
					c4.5-3.7,5.5-10.2,5.4-16c-0.3-8.1-2.3-16.1-6-23.3"/>
				<g>
					<path d="M515.6,266.6c-3.1,6.7-5.8,13.6-7.6,20.7c-0.9,3.5-1.5,7.1-1.9,10.7c-0.3,2.6-0.5,5.6,1.1,7.8
						c3.1,4.4,9.5,1.9,12.3-1.5c3.5-4.3,4.2-10.3,3.9-15.6c-0.4-8-2.5-15.8-6.1-23c-0.4-0.9-1.7-0.1-1.3,0.8
						c3.5,6.9,5.6,14.5,5.9,22.2c0.3,6.1-0.7,14.8-7.2,17.4c-1.5,0.6-3.4,0.9-4.9,0.1c-1.9-1-2.4-3.1-2.4-5.1
						c-0.1-3.7,0.8-7.6,1.6-11.2c1.7-7.8,4.5-15.3,7.9-22.5C517.3,266.5,516,265.8,515.6,266.6L515.6,266.6z"/>
				</g>
			</g>
			<g>
				<path class="st2" d="M547.4,280.9c15.5-4.9,35.9-0.3,46,12.4c3.3,4.2,5.8,10.3,2.9,14.8c-3,4.8-10.4,4.7-15.2,1.7
					c-4.8-3-7.8-8.1-11.4-12.5c-6-7.3-13.8-13-22.5-16.5"/>
				<g>
					<path d="M547.6,281.6c14.4-4.4,32.3-1.2,43.1,9.8c3,3,5.8,7,6.1,11.3c0.4,4.8-3.1,8.2-7.8,8.4c-9.2,0.5-14.1-8.6-19.1-14.7
						c-6-7.3-13.9-12.8-22.6-16.4c-0.9-0.4-1.3,1.1-0.4,1.4c10.3,4.2,18.3,11.1,25,19.9c4.7,6.2,11.1,13.3,19.8,10.8
						c8.9-2.5,7.2-12.5,3-18.4c-4.7-6.5-11.9-10.9-19.4-13.3c-9-2.9-19-3.1-28.1-0.3C546.3,280.4,546.7,281.9,547.6,281.6
						L547.6,281.6z"/>
				</g>
			</g>
			<g>
				<path d="M285.2,248c7.8-11.1,21-18,34.5-17.8c13.6,0.2,26.6,7.5,34.1,18.7c2.1,3.2,7.3,0.2,5.1-3c-8.7-13-23.4-21.5-39.2-21.7
					C304,224,289,232.2,280,245C277.8,248.1,283,251.1,285.2,248L285.2,248z"/>
			</g>
		</g>
	</g>
	<g>
		<path d="M474.2,346.9c1.1-6.3,1.4-12.8-0.3-19c-1.6-5.6-5-10.6-9.3-14.5c-3.4-3.1-7.2-5.3-11.3-7.1c-1.2-0.5-2.5-1-3.7-1.4
			c-1.7-0.6-3.5-1.1-5.3-1.5c-1.8-0.4-3.6-0.8-5.4-1c-1.2-0.2-2.4-0.3-3.6-0.5c-0.9-0.1-1.8-0.2-2.8-0.2c-1-0.1-1.9-0.1-2.9-0.2
			c-0.5,0-1.1-0.1-1.6-0.1c-7.5-0.3-15-0.1-22.5,0.1c-7.4,0.2-14.7,0.6-22.1,1.5c-11.4,1.4-23.1,4-33,9.8c-1.5,0.9-3,1.8-4.4,2.9
			c-6.5,4.8-11.9,11.3-15.3,18.7c-1.9,4-3.2,8.2-3.8,12.6c-0.4,2.6-0.5,5.2-0.3,7.8c0.2,3.6,1.1,7.2,2.8,10.5c1.6,3.2,3.2,6.6,6,8.8
			c0.5,0.4,1.1,0.8,1.7,1.2c2.2,1.2,4.7,1.7,7.2,2c0.1,0,0.2,0,0.3,0c0,0,0.1,0,0.1,0c2.9,0.4,5.8,0.5,8.6,0.5
			c1.8,0,3.5-0.1,5.2-0.2c20.6-1.4,41-9.3,61.6-3.8c8.5,2.2,17.5,6,26.5,6.1c3.8,0.1,7.7-0.6,11.4-2.3
			C469.3,372.3,472.3,358.2,474.2,346.9z M468.4,359.1c-1.7,5.5-4.3,11.1-9.2,14.4c-3.8,2.5-7.9,3.5-12.2,3.5
			c-2.1,0-4.2-0.2-6.3-0.6c-1.1-0.2-2.1-0.4-3.2-0.6c-4.7-1.1-9.4-2.7-13.6-3.9c-6.1-1.8-12.2-2.9-18.5-3
			c-5.9-0.1-11.7,0.5-17.5,1.5c-10.1,1.5-20.2,3.8-30.4,4.4c-1,0.1-2.1,0.1-3.1,0.2c-0.6,0-1.3,0-1.9,0c-1.5,0-2.9,0-4.4-0.1
			c-1.1-0.1-2.3-0.2-3.4-0.4c-0.2,0-0.4-0.1-0.6-0.1c-0.1,0-0.3,0-0.5-0.1c-4.1-0.6-7.1-2.1-9.4-5.8c-2.8-4.8-4.7-9.8-4.9-15.4
			c-0.2-12.1,6-24,14.8-32c1.7-1.5,3.5-2.9,5.4-4.2c2.5-1.6,5-3,7.7-4.2c1.1-0.5,2.2-0.9,3.3-1.3c5.7-2.2,11.8-3.6,17.8-4.6
			c13.6-2.2,27.4-2.3,41.1-2.4c9.6-0.1,19.6,0.2,28.8,3.2c0.2,0.1,0.5,0.2,0.7,0.3c0.9,0.3,1.7,0.6,2.6,1c2.1,0.8,4.1,1.9,6,3
			c4.7,2.9,8.8,6.9,11.4,11.7c3,5.5,3.6,11.9,3,18C471.4,347.5,470.1,353.4,468.4,359.1z"/>
	</g>
	<g>
		<path d="M438,377.6c-0.1-0.6-0.3-1.2-0.5-1.8c-1.7-6-5.5-11.1-10.5-15c-11.1-8.5-27.3-10-40.7-7.9c-12.4,2-24.9,9.3-28.8,21.8
			c-0.1,0.4-0.2,0.8-0.3,1.2c-0.2,0.9-1.1,1.2-1.8,1.1s-1.3-0.8-1.1-1.7c0-0.1,0.1-0.3,0.1-0.5c2-7.3,6.8-13.4,13-17.8
			c12.2-8.5,29.1-9.5,43.3-6.5c13.6,2.8,27,11.5,30,25.9c0,0.1,0,0.1,0.1,0.2C441.2,378.5,438.4,379.5,438,377.6z"/>
	</g>
	<g>
		<path d="M451.7,308.6c-0.1,0-0.1,0.1-0.2,0.1c-1.1,0.9-2.2,1.7-3.3,2.5c-4.5,3.3-9.4,6.1-14.6,8.4c-24.7,10.9-53.5,7.8-76.1-6.8
			c-0.1-0.1-0.2-0.2-0.3-0.3c-1-1.1,0.2-3.3,1.7-2.3c0.5,0.4,1.1,0.7,1.6,1c5.9,3.6,12.2,6.5,18.9,8.6c12.4,3.8,25.6,4.6,38.3,1.9
			c11.1-2.4,21.6-7.3,30.5-14.2c0.3-0.2,0.6-0.4,0.9-0.7c0.3-0.2,0.6-0.5,0.9-0.7C451.5,304.9,453.2,307.4,451.7,308.6z"/>
	</g>
</g>
</svg>
