<?xml version="1.0" encoding="utf-8"?>
<!-- Generator: Adobe Illustrator 25.1.0, SVG Export Plug-In . SVG Version: 6.00 Build 0)  -->
<svg version="1.1" id="Layer_1" xmlns="http://www.w3.org/2000/svg" xmlns:xlink="http://www.w3.org/1999/xlink" x="0px" y="0px"
	 viewBox="0 0 800 800" style="enable-background:new 0 0 800 800;" xml:space="preserve">
<style type="text/css">
	.st0{fill:#FCFCFC;}
	.st1{fill:#FFFFFF;}
	.st2{fill:#F98F8F;}
</style>
<g>
	<g>
		<g>
			<path class="st0" d="M441.6,413.3c-2.5-11.2-1.6-23.2,2.6-34c4.1-10.8,11.4-20.3,20.8-27c9.8-7,23.4-8.7,34.7-4.5
				c6.9,2.6,11.7,5.6,15.8,11.6c4.6,6.7,7.7,14.5,8.1,22.6c0.3,8.1-2.4,16.4-8.1,22.2c-6.7,6.7-16.4,9.3-25.8,10.5
				C473.6,416.9,457.3,417,441.6,413.3"/>
			<g>
				<path d="M442.8,413c-3.5-16.2,0.1-33.3,9.8-46.7c4.3-6,10-11.6,16.5-15.2c6.6-3.6,14.3-4.9,21.7-4.1c6.8,0.7,14.2,3.5,19.3,8.2
					c5.7,5.2,9.6,13,11.3,20.4c1.7,7.6,1,15.8-3,22.7c-3.9,6.7-10.5,10.8-17.8,13c-9,2.7-18.8,3.4-28.1,3.7
					c-10.3,0.3-20.6-0.5-30.6-2.8c-1.5-0.3-2.2,2-0.6,2.3c9.5,2.2,19.2,3.1,28.9,2.9c9.1-0.1,18.5-0.8,27.4-2.9
					c7.6-1.8,15.3-5.1,20.3-11.3c5.1-6.2,7.3-14.4,6.8-22.3c-0.6-8.5-4.1-16.9-9.3-23.7c-4.5-5.9-11.1-9.5-18.1-11.5
					c-7.6-2.1-15.9-1.9-23.3,0.6c-7.5,2.6-13.9,7.6-19.2,13.5c-13,14.5-18.3,34.6-14.2,53.7C440.7,415.2,443.1,414.5,442.8,413
					L442.8,413z"/>
			</g>
		</g>
		<g>
			<path d="M386.9,419.8c1.6-5.9,7.4-10.2,13.5-9.8c5.9,0.4,11.1,5.6,11.8,11.4c0.2,1.5,2.6,1.6,2.4,0c-0.8-7.1-6.7-13.1-13.9-13.8
				c-7.3-0.7-14.4,4.5-16.3,11.5C384.2,420.7,386.5,421.3,386.9,419.8L386.9,419.8z"/>
		</g>
		<g>
			<path d="M466.8,338.9c8.6-5.9,19.5-8.4,29.8-6.4c9.6,1.8,18.6,7.3,24.5,15.1c0.8,1,2.1,1.6,3.3,0.9c1-0.6,1.7-2.3,0.9-3.3
				c-10.8-14.4-29.3-21.2-46.9-16.8c-5,1.3-9.8,3.4-14.1,6.3C461.7,336.5,464.2,340.7,466.8,338.9L466.8,338.9z"/>
		</g>
		<circle cx="470.8" cy="387.9" r="22.6"/>
		<circle class="st0" cx="486.2" cy="377.1" r="8.3"/>
		<g>
			<path class="st1" d="M365,414.4c3.4-11,2-22.1-1.2-33.2c-3.2-11.1-8.3-22-17-29.5c-9.1-7.8-22.6-10.6-34.2-7.4
				c-7,2-12.1,4.6-16.7,10.2c-5.1,6.3-8.9,13.8-9.9,21.8c-1,8,2.6,18.3,7.8,24.5c6.1,7.3,14,8.9,23.3,10.9
				C332.9,415.3,349,416.7,365,414.4"/>
			<g>
				<path d="M366.2,414.7c2.8-9.2,2.4-18.8,0.3-28.1c-1.9-8.3-4.7-16.7-9.1-24c-4.1-6.8-9.6-12.8-16.7-16.4c-7-3.6-15.1-5-22.9-4
					c-7.1,0.9-14.5,3.6-19.8,8.6c-5.9,5.5-10.4,13.4-12.3,21.2c-1.9,7.7-0.7,15.4,2.7,22.6c3.3,6.9,8.5,12.2,15.6,15.1
					c3.5,1.4,7.2,2.3,10.9,3.1c4.7,1,9.4,2,14.1,2.6c9.7,1.4,19.5,1.9,29.3,1.1c2.4-0.2,4.7-0.5,7.1-0.8c1.5-0.2,0.9-2.6-0.6-2.3
					c-17.8,2.5-35.9,0.4-53.3-3.9c-6.9-1.7-13.3-4.5-17.6-10.3c-4.3-5.8-7-13.5-6.7-20.8c0.3-7.7,4-15.3,8.6-21.4
					c2.2-2.9,4.7-5.4,7.7-7.3c2.9-1.8,6.2-3,9.5-3.9c7.2-2,14.9-1.6,21.9,0.8c7.3,2.5,13.3,7.4,17.8,13.6
					c5.1,7.1,8.4,15.5,10.6,23.9c2.6,9.9,3.5,20.3,0.5,30.3C363.4,415.5,365.8,416.2,366.2,414.7L366.2,414.7z"/>
			</g>
		</g>
		<g>
			<path d="M340.1,330.1c-8.1-4.7-17.6-6.8-26.8-5.9c-8.7,0.9-16.9,4.3-23.7,9.7c-3.8,3-7,6.6-9.6,10.7c-1.7,2.6,2.5,5.1,4.2,2.5
				c5.3-8.1,13.5-14.2,22.9-16.8c10.3-2.8,21.5-1.3,30.7,4C340.4,335.9,342.8,331.7,340.1,330.1L340.1,330.1z"/>
		</g>
		<circle cx="318.4" cy="383.8" r="22.6"/>
		<circle class="st0" cx="337.1" cy="374.7" r="8.3"/>
	</g>
	<g>
		<path class="st2" d="M431.3,496.4c-4.4,0.9-9,0.4-13.4-0.1c-4.6-0.5-9.2-0.9-13.8-1c-10.2-0.3-20.4,0.6-30.4,2.5
			c-4.6,0.9-9.6,2.6-14.3,1.6c-0.3-0.1-0.6-0.2-0.9-0.3c5.5-10.3,15.3-18.1,26.7-21.1c11.3-3,23.3-0.9,33.1,5.3
			C423.4,486.6,428,491.1,431.3,496.4z"/>
		<g>
			<path d="M357.7,495.2c-6.6-14.7,1.5-30.7,13.2-40c11.5-9.1,27.1-12.8,41.1-8c6.9,2.3,13,6.6,17.4,12.4c4.4,5.8,7.4,12.8,8.8,19.9
				c0.8,3.7,1,7.8-1.1,11.1c-1.8,2.9-5,4.6-8.3,5.5c-3.9,1-8,0.7-11.9,0.3c-4.3-0.4-8.6-0.9-12.9-1c-9.3-0.3-18.6,0.4-27.7,2.1
				c-4.6,0.8-9.6,2.7-14.3,1.6c-3.5-0.8-4.6-4-5.6-7.1c-0.5-1.5-2.8-0.8-2.3,0.6c0.9,2.8,2,5.9,4.5,7.7c3.2,2.1,7.6,1.7,11.1,1
				c4.8-0.9,9.5-2,14.4-2.6c4.6-0.6,9.3-0.9,14-0.9c4.7-0.1,9.4,0.1,14,0.6c4.7,0.5,9.5,1.3,14.2,0.7c7.2-0.8,13.8-5.1,14.7-12.8
				c0.4-4-0.5-8-1.7-11.8c-1.2-3.8-2.7-7.5-4.6-11c-3.8-6.9-9.4-12.6-16.4-16.2c-14.3-7.4-31.5-5.5-44.8,3.1
				c-7.4,4.7-13.8,11.4-17.4,19.4c-3.8,8.4-4.3,18.1-0.5,26.6C356.3,497.8,358.4,496.6,357.7,495.2L357.7,495.2z"/>
		</g>
		<g>
			<path d="M361.1,499.2c4.9-9.5,13.7-16.6,23.9-19.6c10.4-3.1,21.7-1.2,30.9,4.5c5.2,3.2,9.6,7.6,12.7,12.9
				c0.8,1.3,2.9,0.1,2.1-1.2c-5.9-9.9-16.1-17-27.5-19.3c-11.1-2.2-22.7,0.5-31.8,7.2c-5.2,3.8-9.4,8.6-12.4,14.3
				C358.2,499.4,360.3,500.6,361.1,499.2L361.1,499.2z"/>
		</g>
		<g>
			<path d="M370.4,455.8c17.1,8.9,38,9.2,55.2,0.7c1.4-0.7,0.2-2.8-1.2-2.1c-16.5,8.1-36.5,7.8-52.8-0.7
				C370.3,452.9,369,455,370.4,455.8L370.4,455.8z"/>
		</g>
		<path d="M439.8,482.4c0.6,3.7,0.4,7.5-1.8,10.6c-1.6,2.2-3.9,3.6-6.4,4.5c-5.9-9.9-15.8-17.2-26.9-19.9
			c-11.6-2.8-23.6-0.2-33.3,6.7c-5.3,3.8-9.7,8.8-12.8,14.6c-0.9-0.9-1.5-2.1-2-3.3c-0.3-0.7-0.6-1.5-0.8-2.3l0-0.1
			c-4.4-14.4,3.5-29.4,14.6-38.4c12.1-9.7,28.5-13.4,43.2-7.7C428,452.8,437.5,467.2,439.8,482.4z"/>
		<path class="st1" d="M424.4,454.4c-16.1,7.9-35.8,7.8-51.9-0.3c11.6-8.5,27-11.6,40.7-6.5C417.4,449.2,421.2,451.5,424.4,454.4z"
			/>
	</g>
</g>
</svg>
