<?xml version="1.0" encoding="utf-8"?>
<!-- Generator: Adobe Illustrator 25.1.0, SVG Export Plug-In . SVG Version: 6.00 Build 0)  -->
<svg version="1.1" id="Layer_1" xmlns="http://www.w3.org/2000/svg" xmlns:xlink="http://www.w3.org/1999/xlink" x="0px" y="0px"
	 viewBox="0 0 800 800" style="enable-background:new 0 0 800 800;" xml:space="preserve">
<style type="text/css">
	.st0{fill:#FCFCFC;}
	.st1{fill:#0C0A0A;}
	.st2{fill:#FFFFFF;}
	.st3{fill:#F98F8F;}
</style>
<g>
	<g>
		<path d="M474.6,339.1c21.5-4.9,45.4,4.3,58,22.5c2.6,3.7,8.7,0.2,6.1-3.6c-14.4-20.9-41.2-31.4-65.9-25.7
			C468.3,333.3,470.2,340.1,474.6,339.1L474.6,339.1z"/>
	</g>
	<g>
		<path d="M334.9,323.2c-24.7-5.7-51.5,4.9-65.9,25.7c-2.6,3.7,3.5,7.3,6.1,3.6c12.5-18.2,36.5-27.4,58-22.5
			C337.4,331,339.3,324.2,334.9,323.2L334.9,323.2z"/>
	</g>
	<g>
		<path class="st0" d="M441.6,411.8c-0.1-11.3,1.9-22.7,6.9-32.8c5-10.1,13.1-18.9,23.3-23.6c10.2-4.8,22.6-5.2,32.7-0.2
			c10.1,5,17.4,15.7,17.4,26.9c0,10.8-6.5,20.9-15.4,27.1c-8.8,6.2-19.7,8.9-30.5,9.7C464.1,420,451.8,418.1,441.6,411.8"/>
		<g>
			<path d="M443,411.8c0-15.6,3.9-31.7,14.4-43.7c9.9-11.3,25.1-17.8,40-14c13.4,3.4,24,16,22.9,30.2c-1.2,15.2-14.4,26-28,30.3
				c-16.1,5.1-35.3,4.9-50-4c-1.6-0.9-3,1.5-1.4,2.4c14.2,8.6,32.2,9.3,48,5.4c15-3.6,29.6-13.4,33.5-29.2
				c3.5-14.2-4.6-29.2-17.6-35.4c-14.6-7-32.1-3.1-44.1,7.1c-14.7,12.5-20.5,32.1-20.5,50.8C440.2,413.6,443,413.6,443,411.8
				L443,411.8z"/>
		</g>
	</g>
	<g>
		<path class="st0" d="M364.8,408.9c0.7-11.2-0.7-22.7-5.2-33.1s-12-19.5-22-24.8c-9.9-5.3-22.3-6.4-32.6-2s-18.2,14.7-18.8,26
			c-0.6,10.8,5.4,21.2,13.9,27.9c8.5,6.7,19.2,10,29.9,11.4C342,415.8,354.4,414.6,364.8,408.9"/>
		<g>
			<path d="M366.2,408.9c0.9-16.8-2.7-34.1-13.5-47.3c-10-12.2-25.9-19.3-41.6-15.9c-14.2,3-26.1,15.6-26.2,30.4
				c-0.2,15.9,12,28.6,25.8,34.5c17,7.2,38.4,8.4,54.9-0.5c1.6-0.9,0.2-3.3-1.4-2.4c-13.8,7.4-30.6,7.1-45.3,2.9
				c-14-4-27.5-13.6-30.6-28.7c-2.9-13.9,6.3-27.8,19.5-32.3c14.5-5,30.3,0.5,40.6,11.3c12.2,12.8,16.1,30.8,15.1,48
				C363.3,410.7,366.2,410.7,366.2,408.9L366.2,408.9z"/>
		</g>
	</g>
	<g>
		<path class="st1" d="M347,452.4c0.4-4.9,4.4-8.9,9-10.6s9.6-1.7,14.5-1.6c21.4,0.3,42.8,0.7,64.2,1c6,0.1,12.6,0.4,17.2,4.4
			c3.2,2.8,4.8,7.2,5,11.4s-1.1,8.5-2.8,12.4c-7.7,17.4-25.9,29.1-44.8,30.6c-18.9,1.4-38-6.9-51.1-20.7
			c-7.2-7.5-12.2-17.3-11.1-27.7"/>
		<g>
			<path d="M348.4,452.4c1.1-10.2,13.9-10.9,21.7-10.8c10.4,0.1,20.8,0.3,31.1,0.5c10.4,0.2,20.8,0.3,31.2,0.5
				c8.5,0.1,19.1,0.2,22.2,9.9c2.7,8.4-1.7,17.8-6.6,24.5c-4.6,6.5-10.9,11.7-18,15.5c-14.7,7.8-31.9,8-47.3,2
				c-16.8-6.6-36.4-22.7-34.4-42.8c0.2-1.8-2.6-1.8-2.8,0c-1.9,19.2,15,35,30.7,42.9c16.3,8.2,35.4,9.5,52.2,1.9
				c7.8-3.5,14.8-8.9,20.2-15.5c5.5-6.9,10.4-16.2,9.5-25.3c-0.4-4.1-2.1-8.2-5.3-11c-3.2-2.8-7.4-4-11.5-4.5
				c-5.3-0.6-10.6-0.4-15.9-0.5c-5.9-0.1-11.8-0.2-17.7-0.3c-13.2-0.2-26.5-0.6-39.7-0.6c-9.2,0-21.3,2.5-22.5,13.6
				C345.4,454.2,348.2,454.2,348.4,452.4L348.4,452.4z"/>
		</g>
	</g>
	<g>
		<path d="M359.8,442.5c2.6,6.9,8.8,11.1,15.7,13.1c8.2,2.4,17.4,2.8,25.9,2.6c13.6-0.4,31.7-2.2,39.7-15c1-1.5-1.5-3-2.4-1.4
			c-7.2,11.5-24.1,13.1-36.3,13.6c-7.7,0.3-15.7-0.1-23.2-1.7c-6.8-1.5-14-4.9-16.6-11.9C361.8,440.1,359.1,440.8,359.8,442.5
			L359.8,442.5z"/>
	</g>
	<g>
		<path d="M374.8,491.3c6.7-7.6,16.7-12.4,26.9-12c10.3,0.4,20.1,6.2,25.8,14.7c1,1.5,3.4,0.1,2.4-1.4c-6.2-9.2-16.4-15.3-27.5-16
			c-11.1-0.7-22.3,4.5-29.6,12.8C371.7,490.7,373.6,492.7,374.8,491.3L374.8,491.3z"/>
	</g>
	<g>
		<path d="M389.9,420.9c2.5-5.2,8-8.6,13.8-8.4c5.5,0.2,10.8,4,12.9,9.1c0.9,2.2,4.5,1.2,3.6-1c-2.7-6.6-8.9-11.3-16.1-11.8
			c-7.2-0.5-14.3,3.9-17.5,10.3C385.6,421.2,388.8,423.1,389.9,420.9L389.9,420.9z"/>
	</g>
	<g>
		<circle cx="476.8" cy="389.7" r="22.9"/>
		<circle class="st2" cx="461.5" cy="378" r="6.4"/>
	</g>
	<g>
		<circle cx="332.1" cy="387.4" r="22.9"/>
		<circle class="st2" cx="316.8" cy="375.7" r="6.4"/>
	</g>
	<g>
		<path class="st2" d="M362.7,441.9c2.7-0.3,5.4-0.4,7.6-0.3c10.4,0.2,20.8,0.3,31.1,0.5c10.4,0.2,20.8,0.3,31.2,0.5
			c1.8,0,3.6,0.1,5.5,0.2c-7.5,10.7-23.8,12.2-35.7,12.6c-7.7,0.3-15.7-0.1-23.2-1.7C372.4,452.2,365.4,448.8,362.7,441.9z"/>
		<path class="st3" d="M427.6,493.8c-14,6.4-30.1,6.2-44.4,0.6c-2.5-1-5.1-2.2-7.6-3.6c6.6-7.3,16.5-11.9,26.4-11.5
			C412.2,479.8,421.9,485.4,427.6,493.8z"/>
	</g>
</g>
</svg>
