<?xml version="1.0" encoding="utf-8"?>
<!-- Generator: Adobe Illustrator 25.1.0, SVG Export Plug-In . SVG Version: 6.00 Build 0)  -->
<svg version="1.1" id="Layer_1" xmlns="http://www.w3.org/2000/svg" xmlns:xlink="http://www.w3.org/1999/xlink" x="0px" y="0px"
	 viewBox="0 0 800 800" style="enable-background:new 0 0 800 800;" xml:space="preserve">
<style type="text/css">
	.st0{fill:#F9F7F7;}
	.st1{fill:#FFFFFF;}
</style>
<g>
	<g>
		<path d="M372.2,482.2c6.6-8.6,17.3-13.7,28-14c11.3-0.3,22.3,4.3,30.6,11.8c2,1.8,4.9-1.1,2.9-2.9c-9.3-8.4-21.6-13.6-34.2-13
			c-12.1,0.6-23.5,6.4-30.9,16C367.1,482.2,370.6,484.2,372.2,482.2L372.2,482.2z"/>
	</g>
	<g>
		<path d="M387.2,427c2.4-5.1,7.6-8.8,13.3-9c5.7-0.2,11.2,3,14,7.9c0.9,1.5,3.2,0.2,2.4-1.4c-3.2-5.7-9.7-9.5-16.3-9.3
			c-6.6,0.2-12.8,4.4-15.6,10.4C384.1,427.2,386.4,428.6,387.2,427L387.2,427z"/>
	</g>
	<g>
		<g>
			<path class="st0" d="M446.9,373.7c-3.8,10.1-7.1,24-7.5,34.8c0,1,0,2.1,0.7,2.9c0.6,0.7,1.6,0.8,2.5,0.9
				c10.3,1.2,20.7,1.2,30.9,0c8.7-1.1,17.5-3.1,25.1-7.4c7.6-4.3,14.1-11.1,16.7-19.6c1.9-6.2,2.5-12.2,0.5-18.4
				c-1.8-5.4-5-11.2-9.4-14.8s-11.9-4.9-17.6-4.5c-5.9,0.4-10.2,2.4-15,5.7c-10.9,7.4-19.1,11.1-27.2,21.5"/>
			<g>
				<path d="M445.6,373.3c-2.8,7.6-5,15.6-6.3,23.6c-0.6,3.8-1.2,7.7-1.2,11.6c-0.1,3.7,2,4.9,5.4,5.3c9.4,1.1,18.9,1.1,28.3,0.1
					c8.4-0.9,16.7-2.6,24.4-6.1c14-6.6,24.4-20.9,22-36.9c-1.1-7.4-5.3-15.5-11.4-20.1c-5.4-4.1-13.3-5.1-19.9-4.2
					c-8.6,1.1-15.4,6.8-22.4,11.3c-7.1,4.6-13.6,9.5-18.9,16.1c-1.1,1.4,0.8,3.3,1.9,1.9c4.1-5.2,9-9.5,14.4-13.1
					c2.7-1.8,5.4-3.5,8.1-5.2c2.9-1.9,5.7-4,8.8-5.6c6-3.2,13.1-3.7,19.6-2.1c7.2,1.8,11.9,7.4,14.8,14.1
					c6.3,14.4-0.4,30.4-13.1,38.6c-13.1,8.4-30.3,9.8-45.5,9.4c-2.4-0.1-4.7-0.2-7.1-0.4c-1.2-0.1-2.4-0.2-3.5-0.3
					c-1.6-0.2-3.1-0.4-3.2-2.3c-0.1-3.8,0.6-7.8,1.2-11.5c1.3-7.9,3.5-15.7,6.2-23.2C448.8,372.4,446.2,371.7,445.6,373.3
					L445.6,373.3z"/>
			</g>
		</g>
		<g>
			<path d="M437.1,387.9c18.6-26.8,48.9-43.9,81.5-45.9c3.5-0.2,3.5-5.7,0-5.5c-27,1.7-52.8,12.9-72.2,31.9
				c-5.2,5.1-9.9,10.7-14,16.7C430.3,388,435.1,390.8,437.1,387.9L437.1,387.9z"/>
		</g>
		<circle cx="470.5" cy="385.6" r="21.1"/>
		<circle class="st1" cx="457.1" cy="377.9" r="7.7"/>
	</g>
	<g>
		<g>
			<path class="st0" d="M356.3,372.7c4.4,9.9,8.6,23.5,9.6,34.3c0.1,1,0.1,2.1-0.5,2.9c-0.6,0.7-1.6,0.9-2.5,1.1
				c-10.2,1.9-20.5,2.5-30.9,1.9c-8.8-0.5-17.6-2-25.5-5.8s-14.8-10.2-17.9-18.5c-2.3-6.1-3.3-12-1.6-18.3
				c1.4-5.5,4.3-11.5,8.5-15.4c4.1-3.9,11.6-5.7,17.3-5.6c5.9,0.1,10.3,1.8,15.4,4.8c11.3,6.7,19.8,9.9,28.5,19.8"/>
			<g>
				<path d="M355.1,373.4c2.9,6.7,5.3,13.6,7.1,20.7c0.9,3.4,1.6,6.8,2,10.3c0.3,1.8,1,4.1-1,5.2c-0.7,0.4-2.1,0.4-2.9,0.5
					c-1.2,0.2-2.5,0.4-3.8,0.6c-8.1,1.1-16.4,1.4-24.5,0.9c-7.9-0.5-16-1.7-23.3-4.9c-13-5.7-23.5-19.3-20.7-34.2
					c1.2-6.6,4.8-14.6,10.7-18.2c5.5-3.4,13.1-4.3,19.4-2.9c3.9,0.9,7.3,2.8,10.8,4.8c3.2,1.9,6.4,3.6,9.6,5.4
					c6.4,3.7,12.3,7.8,17.2,13.4c1.2,1.3,3.1-0.6,1.9-1.9c-4.9-5.4-10.6-9.7-16.9-13.3c-3.4-1.9-6.8-3.8-10.2-5.7
					c-3.3-1.9-6.7-3.9-10.4-4.9c-6.7-1.9-14.5-1.2-20.8,1.8c-6.8,3.1-10.8,10.3-13,17.1c-4.9,15.4,3.6,31.5,17,39.1
					c7.2,4.1,15.5,6,23.7,6.9c9.4,1,19,0.8,28.3-0.3c2.5-0.3,4.9-0.7,7.4-1.1c1.7-0.3,3.4-0.8,4.1-2.5c0.7-1.6,0.3-3.7,0-5.4
					c-0.3-2.1-0.6-4.2-1-6.2c-1.8-9-4.8-17.8-8.5-26.3C356.7,370.4,354.4,371.8,355.1,373.4L355.1,373.4z"/>
			</g>
		</g>
		<g>
			<path d="M371.2,382.8c-16.2-20.6-39.5-35.1-65.1-40.4c-7.7-1.6-15.6-2.4-23.4-2.4c-3.5,0-3.5,5.5,0,5.5c33,0,64.3,15.3,84.7,41.2
				C369.5,389.4,373.3,385.5,371.2,382.8L371.2,382.8z"/>
		</g>
		<circle cx="333.4" cy="386" r="21.1"/>
		<circle class="st1" cx="346.3" cy="377.5" r="7.7"/>
	</g>
</g>
</svg>
