<?xml version="1.0" encoding="utf-8"?>
<!-- Generator: Adobe Illustrator 25.1.0, SVG Export Plug-In . SVG Version: 6.00 Build 0)  -->
<svg version="1.1" id="Layer_1" xmlns="http://www.w3.org/2000/svg" xmlns:xlink="http://www.w3.org/1999/xlink" x="0px" y="0px"
	 viewBox="0 0 800 800" style="enable-background:new 0 0 800 800;" xml:space="preserve">
<style type="text/css">
	.st0{fill:#FCFCFC;}
	.st1{fill:#F98F8F;}
	.st2{fill:#8DB0F7;}
</style>
<g>
	<path d="M446.8,485.5c-3,1.4-6.1,1.9-9.2,1.9c-7.2-0.1-14.5-3.1-21.3-4.9c-16.6-4.4-33,2-49.6,3.1c-1.4,0.1-2.8,0.2-4.2,0.2
		l-14.4-2.9c-2.3-1.8-3.5-4.5-4.8-7.1c-1.3-2.7-2-5.5-2.2-8.5l3.3-16.4c2.8-5.9,7.1-11.2,12.3-15.1c1.1-0.8,2.3-1.6,3.5-2.3
		c8-4.7,17.4-6.8,26.5-7.9c5.9-0.7,11.8-1,17.8-1.2c6-0.1,12.1-0.3,18.1-0.1c0.4,0,0.9,0,1.3,0.1l19.1,3.9c3.3,1.4,6.3,3.2,9.1,5.7
		c3.5,3.1,6.2,7.1,7.5,11.6c1.4,5,1.1,10.3,0.3,15.3C458.5,469.9,456.1,481.3,446.8,485.5z"/>
	<path class="st0" d="M440.1,427l-1.1,4.2c-3.6,2.7-7.7,5.3-11.9,7.1c-19.8,8.8-42.2,5.6-60.4-6.1c-0.1-0.1,1.6-0.9,1.5-1
		c-2.2,1,1.2-1.2-0.8,0.1l-7.2,2.2c8-4.7,17.4-6.8,26.5-7.9c5.9-0.7,11.8-1,17.8-1.2c6-0.1,12.1-0.3,18.1-0.1c0.4,0,0.9,0,1.3,0.1
		c0.8,0,1.5,0.1,2.3,0.2c0.8,0,1.5,0.1,2.2,0.2c1,0.1,2,0.2,2.9,0.4c1.5,0.2,2.9,0.5,4.3,0.8C437.3,426.1,438.8,426.5,440.1,427z"/>
	<path class="st1" d="M437.9,486.1l-0.3,1.3c-7.2-0.1-14.5-3.1-21.3-4.9c-16.6-4.4-33,2-49.6,3.1l-8.3-1.7l3.8,0.2
		c1.2,0.1,1.3,0.3,2.5,0.3c0.5,0-0.3-0.3,0.2-0.3c1.6-5.9,4.9-10.6,9.9-14c9.8-6.9,21.8-7.3,33.2-5c10.9,2.3,21.1,8.7,23.5,20.2
		C433.2,485.6,436.2,486.1,437.9,486.1z"/>
	<g>
		<g>
			<path class="st2" d="M298.4,386.7c-11.4-4.7-27.2-3.1-36.4,5.1c-2.6,2.4-5,6-3.7,9.2c0.8,2,3,3.3,5.2,3.6
				c2.2,0.3,4.4-0.4,6.4-1.3c5.2-2.3,9.3-6.5,13.7-10c4.4-3.5,9.7-6.6,15.4-6.2"/>
			<g>
				<path d="M298.5,386.1c-10.9-4.4-25-3.6-34.7,3.4c-3.9,2.8-9.4,9-4.8,13.6c5,5,13,0.2,17.4-3.2c6.7-5.2,13.2-12.6,22.5-12.2
					c0.8,0,0.8-1.2,0-1.2c-5.9-0.3-11.1,2.7-15.6,6.2c-5,4-10,9.5-16.5,11c-3.8,0.9-9.1-0.7-8.3-5.6c0.5-3.3,3.4-5.9,6.1-7.8
					c4.6-3.2,10-4.9,15.5-5.5c6.1-0.6,12.3,0.1,18,2.4C298.9,387.5,299.2,386.4,298.5,386.1L298.5,386.1z"/>
			</g>
		</g>
		<g>
			<g>
				<path d="M464.3,316.6c14.9-6.4,32.3-0.4,40.5,13.4c2,3.3,7.1,0.3,5.2-3c-4.5-7.6-11.4-13.5-19.7-16.6c-9.4-3.6-19.8-2.9-29,1.1
					C457.8,312.9,460.8,318.1,464.3,316.6L464.3,316.6z"/>
			</g>
			<g>
				<path d="M308.1,319.1c10.6-12.7,28.7-15.6,42.7-6.7c3.3,2.1,6.3-3.1,3-5.2c-16.1-10.3-37.7-7-49.9,7.6
					C301.4,317.8,305.6,322.1,308.1,319.1L308.1,319.1z"/>
			</g>
			<g>
				<path d="M396,410.5c2-4.8,7.3-8.1,12.5-7.7c5.1,0.3,9.7,4.2,11.2,9c0.5,1.5,2.8,0.8,2.3-0.6c-1.8-5.9-7.3-10.4-13.5-10.8
					c-6.4-0.4-12.4,3.7-14.8,9.5C393.1,411.3,395.4,411.9,396,410.5L396,410.5z"/>
			</g>
			<g>
				<path d="M443.3,384.4c5.2-9.1,15.4-14.7,25.9-13.9c10.1,0.8,19.4,8,23,17.5c1.1,2.9,5.7,1.6,4.6-1.3
					c-4.3-11.3-14.7-19.6-26.8-20.9c-12.3-1.3-24.7,5.5-30.8,16.2C437.6,384.6,441.7,387.1,443.3,384.4L443.3,384.4z"/>
			</g>
			<g>
				<path class="st2" d="M493.8,396.5c-3.8,8-6.8,16.8-7.6,25.6c-0.2,2-0.2,4.3,1.1,5.7c1.8,2,5.3,1.4,7.3-0.4
					c3.6-3,4.5-8.2,4.3-12.9c-0.2-6.5-1.9-13-4.8-18.8"/>
				<g>
					<path d="M493.3,396.2c-2.5,5.4-4.7,10.9-6.1,16.7c-0.7,2.8-1.2,5.7-1.6,8.6c-0.2,2.1-0.4,4.5,0.9,6.3c2.5,3.6,7.6,1.5,9.9-1.2
						c2.9-3.4,3.4-8.3,3.2-12.6c-0.3-6.5-2-12.7-4.9-18.5c-0.3-0.7-1.4-0.1-1,0.6c2.8,5.6,4.5,11.7,4.7,17.9
						c0.2,4.9-0.5,11.9-5.8,14c-1.2,0.5-2.7,0.7-4,0.1c-1.5-0.8-1.9-2.5-1.9-4.1c0-3,0.6-6.1,1.3-9.1c1.4-6.3,3.7-12.3,6.4-18.1
						C494.7,396.2,493.6,395.5,493.3,396.2L493.3,396.2z"/>
				</g>
			</g>
			<g>
				<path class="st2" d="M518.9,407.7c12.5-4,28.9-0.3,37,10c2.7,3.4,4.7,8.3,2.4,11.9c-2.4,3.8-8.4,3.8-12.2,1.4
					c-3.9-2.4-6.3-6.5-9.2-10c-4.8-5.9-11.1-10.5-18.1-13.3"/>
				<g>
					<path d="M519.1,408.3c11.6-3.6,26-1,34.7,7.8c2.4,2.4,4.6,5.6,4.9,9.1c0.3,3.9-2.5,6.6-6.2,6.8c-7.4,0.4-11.3-6.9-15.4-11.8
						c-4.9-5.9-11.2-10.3-18.2-13.2c-0.7-0.3-1,0.9-0.3,1.2c8.2,3.4,14.7,9,20.1,16c3.8,5,9,10.7,15.9,8.7c7.1-2,5.8-10.1,2.4-14.8
						c-3.8-5.2-9.6-8.8-15.6-10.7c-7.3-2.3-15.3-2.5-22.6-0.3C518,407.4,518.3,408.5,519.1,408.3L519.1,408.3z"/>
				</g>
			</g>
			<g>
				<path d="M307.9,381.2c6.3-8.9,16.9-14.5,27.8-14.3c10.9,0.1,21.4,6,27.4,15.1c1.7,2.6,5.9,0.2,4.1-2.4
					c-7-10.5-18.9-17.3-31.5-17.4c-12.7-0.2-24.7,6.4-31.9,16.7C302,381.3,306.2,383.7,307.9,381.2L307.9,381.2z"/>
			</g>
		</g>
	</g>
	<g>
		<path d="M460,460.8c0.9-5.1,1.1-10.3-0.3-15.3c-1.3-4.5-4-8.5-7.5-11.6c-2.7-2.5-5.8-4.3-9.1-5.7c-1-0.4-2-0.8-3-1.1
			c-1.4-0.5-2.8-0.9-4.2-1.2c-1.4-0.3-2.9-0.6-4.3-0.8c-1-0.1-2-0.3-2.9-0.4c-0.7-0.1-1.5-0.2-2.2-0.2c-0.8-0.1-1.5-0.1-2.3-0.2
			c-0.4,0-0.9-0.1-1.3-0.1c-6-0.2-12.1,0-18.1,0.1c-5.9,0.2-11.9,0.5-17.8,1.2c-9.1,1.1-18.5,3.2-26.5,7.9c-1.2,0.7-2.4,1.5-3.5,2.3
			c-5.2,3.9-9.5,9.1-12.3,15.1c-1.5,3.2-2.6,6.6-3.1,10.1c-0.3,2.1-0.4,4.2-0.2,6.3c0.2,2.9,0.9,5.8,2.2,8.5
			c1.3,2.6,2.5,5.3,4.8,7.1c0.4,0.4,0.9,0.7,1.4,0.9c1.8,1,3.8,1.4,5.8,1.6c0.1,0,0.1,0,0.2,0c0,0,0,0,0,0c2.3,0.3,4.6,0.4,6.9,0.4
			c1.4,0,2.8,0,4.2-0.2c16.6-1.1,33-7.4,49.6-3.1c6.8,1.8,14.1,4.8,21.3,4.9c3.1,0.1,6.2-0.5,9.2-1.9
			C456.1,481.3,458.5,469.9,460,460.8z M455.3,470.6c-1.4,4.4-3.5,8.9-7.4,11.6c-3,2-6.4,2.8-9.8,2.8c-1.7,0-3.4-0.2-5-0.5
			c-0.9-0.1-1.7-0.3-2.6-0.5c-3.8-0.9-7.5-2.1-10.9-3.2c-4.9-1.5-9.8-2.3-14.9-2.4c-4.7-0.1-9.4,0.4-14.1,1.2
			c-8.1,1.2-16.2,3.1-24.4,3.5c-0.8,0-1.7,0.1-2.5,0.1c-0.5,0-1,0-1.5,0c-1.2,0-2.4,0-3.5-0.1c-0.9-0.1-1.8-0.2-2.7-0.3
			c-0.2,0-0.4,0-0.5-0.1c-0.1,0-0.3,0-0.4-0.1c-3.3-0.5-5.7-1.7-7.5-4.7c-2.3-3.8-3.8-7.9-3.9-12.4c-0.2-9.7,4.9-19.3,11.9-25.7
			c1.4-1.2,2.8-2.4,4.3-3.4c2-1.3,4.1-2.4,6.2-3.4c0.9-0.4,1.7-0.7,2.6-1.1c4.6-1.8,9.5-2.9,14.3-3.7c10.9-1.8,22-1.9,33.1-2
			c7.7-0.1,15.8,0.2,23.2,2.6c0.2,0.1,0.4,0.1,0.6,0.2c0.7,0.2,1.4,0.5,2.1,0.8c1.7,0.7,3.3,1.5,4.8,2.4c3.8,2.3,7.1,5.5,9.2,9.4
			c2.4,4.4,2.9,9.6,2.4,14.5C457.7,461.3,456.7,466.1,455.3,470.6z"/>
	</g>
	<g>
		<path d="M430.8,485.5c-0.1-0.5-0.2-1-0.4-1.4c-1.3-4.8-4.4-9-8.4-12c-8.9-6.8-21.9-8-32.7-6.3c-10,1.6-20,7.5-23.2,17.5
			c-0.1,0.3-0.2,0.6-0.3,1c-0.2,0.7-0.9,1-1.5,0.9s-1.1-0.6-0.9-1.4c0-0.1,0.1-0.3,0.1-0.4c1.6-5.9,5.5-10.8,10.5-14.3
			c9.8-6.9,23.4-7.6,34.8-5.3c10.9,2.3,21.7,9.3,24.1,20.8c0,0.1,0,0.1,0,0.1C433.4,486.2,431.2,487,430.8,485.5z"/>
	</g>
	<g>
		<path d="M441.9,430c-0.1,0-0.1,0.1-0.1,0.1c-0.9,0.7-1.7,1.4-2.6,2c-3.6,2.7-7.6,4.9-11.7,6.8c-19.8,8.8-43.1,6.3-61.2-5.4
			c-0.1-0.1-0.2-0.1-0.3-0.2c-0.8-0.9,0.2-2.6,1.4-1.9c0.4,0.3,0.8,0.5,1.3,0.8c4.7,2.9,9.8,5.2,15.2,6.9c10,3.1,20.6,3.7,30.8,1.5
			c9-1.9,17.4-5.8,24.6-11.4c0.3-0.2,0.5-0.4,0.7-0.5c0.3-0.2,0.5-0.4,0.8-0.6C441.8,427.1,443.1,429.1,441.9,430z"/>
	</g>
</g>
</svg>
