<?xml version="1.0" encoding="utf-8"?>
<!-- Generator: Adobe Illustrator 25.1.0, SVG Export Plug-In . SVG Version: 6.00 Build 0)  -->
<svg version="1.1" id="Layer_1" xmlns="http://www.w3.org/2000/svg" xmlns:xlink="http://www.w3.org/1999/xlink" x="0px" y="0px"
	 viewBox="0 0 800 800" style="enable-background:new 0 0 800 800;" xml:space="preserve">
<style type="text/css">
	.st0{clip-path:url(#SVGID_2_);}
	.st1{fill:#B1E001;}
	.st2{fill:#CEF09D;}
</style>
<g id="Group_10540" transform="translate(0.062 0.436)">
	<g>
		<defs>
			<rect id="SVGID_1_" x="8.9" y="8.5" width="782.1" height="782.1"/>
		</defs>
		<clipPath id="SVGID_2_">
			<use xlink:href="#SVGID_1_"  style="overflow:visible;"/>
		</clipPath>
		<g id="Group_8559" transform="translate(0 0)" class="st0">
			<g id="Group_8558" transform="translate(0 14.1)">
				<g id="Group_8550">
					<path id="Path_5995" d="M667.2,288.9c-15.2-37.2-35.3-72.1-59.9-103.9C547.4,107.6,473.6,65,399.5,65s-148,42.6-207.9,119.9
						c-24.6,31.8-44.7,66.8-59.9,104c-15.6,3.1-129.4,28.5-122.1,96.8c1.6,15.3,7.4,24.8,17,28.4c2.9,1.1,6,1.6,9.2,1.5
						c24.4,0,58.5-27,72.1-38.7c-1.3,10.3-2,20.6-2,30.9c-1.2,57.2,26.3,111.1,73.2,143.8c-5.6,14.2-35,92.8-12.4,133.3
						c7,12.6,19.7,21.1,34,22.8c4,0.6,8,1,12,1c28.9,0,58.2-16.6,85.5-48.6c14.1-16.8,26.3-35.2,36.3-54.8
						c43.2,4.8,86.9,4.8,130.1,0c10,19.6,22.2,37.9,36.3,54.8c27.3,32,56.7,48.6,85.5,48.6c4,0,8-0.3,12-1c14.3-1.7,27-10.2,34-22.8
						c22.6-40.5-6.8-119.1-12.4-133.3c46.9-32.7,74.4-86.6,73.2-143.8c0-10.4-0.7-20.7-2.1-31c13.6,11.7,47.8,38.8,72.3,38.8
						c3.1,0,6.2-0.5,9.2-1.5c9.7-3.6,15.4-13.2,17-28.4C796.9,317.1,681.7,291.8,667.2,288.9z M28.5,408.8
						c-7.5-2.8-11.9-10.7-13.3-23.7c-6.3-58.6,90.2-84.4,113.9-89.8c-9.2,23.5-16,47.9-20.1,72.9C102.4,374.3,53,418,28.5,408.8z
						 M201.4,702.1c-12.6-1.5-23.7-8.9-29.9-19.9c-20.5-36.6,5.9-110.6,12.2-127.1c2.8,1.9,5.6,3.8,8.5,5.6
						c36.1,22.3,82.4,37.2,136,44C318.4,623.8,268.2,712.9,201.4,702.1L201.4,702.1z M627.3,682.2c-6.2,11.1-17.3,18.5-29.9,19.9
						c-3.7,0.6-7.4,0.9-11.2,0.9c-61.1,0-106.3-80.3-115.7-98.3c53.6-6.9,99.9-21.7,136-44c2.9-1.8,5.7-3.7,8.5-5.6
						C621.4,571.6,647.8,645.5,627.3,682.2L627.3,682.2z M603.5,555.8c-50.3,31.1-120.9,47.5-204.1,47.5s-153.8-16.4-204.1-47.5
						c-55.6-34.3-83.8-84.1-83.8-147.9c0-68,32.4-152.1,84.6-219.4c58.8-75.9,131-117.7,203.4-117.7S544,112.6,602.8,188.5
						c52.2,67.3,84.6,151.4,84.6,219.4C687.4,471.7,659.2,521.5,603.5,555.8L603.5,555.8z M783.9,385.2
						c-1.4,12.9-5.9,20.9-13.3,23.6c-24.5,9.2-74.1-34.6-80.7-40.6c-4.1-24.9-10.8-49.4-20.1-72.9
						C693,300.6,790.2,326.3,783.9,385.2L783.9,385.2z"/>
					<g id="Group_8546" transform="translate(135.99 47.413)">
						<path id="Path_5996" class="st1" d="M630.5,293.4c-8.6,21.3-21.4,40.5-37.7,56.6c-13.8-8.6-26.8-18.4-38.9-29.3
							c-4.1-24.9-10.8-49.4-20.1-72.9C550.1,251.6,602.6,265.3,630.5,293.4z"/>
						<path id="Path_5997" class="st2" d="M647.9,337.7c-1.4,12.9-5.9,20.9-13.3,23.6c-11,4.1-26.9-2.4-41.8-11.3
							c16.3-16.1,29.1-35.4,37.7-56.6C642.4,305.5,649.8,320.1,647.9,337.7z"/>
					</g>
					<g id="Group_8547" transform="translate(1.157 47.42)">
						<path id="Path_5998" class="st1" d="M31.4,293.5c8.6,21.3,21.4,40.5,37.7,56.6c13.8-8.6,26.8-18.4,38.9-29.3
							c4.1-24.9,10.8-49.4,20.1-72.9C111.8,251.6,59.2,265.3,31.4,293.5z"/>
						<path id="Path_5999" class="st2" d="M14,337.8c1.4,12.9,5.9,20.9,13.3,23.7c11,4.1,26.9-2.4,41.8-11.3
							C52.8,334,40,314.7,31.4,293.5C19.5,305.5,12.1,320.2,14,337.8z"/>
					</g>
					<g id="Group_8548" transform="translate(94.985 100.89)">
						<path id="Path_6000" class="st2" d="M532.4,581.3c-6.2,11.1-17.3,18.5-29.9,19.9c-3.7,0.6-7.4,0.9-11.2,0.9
							c-24.4,0-46.3-12.8-64.3-29.4c26.9,6.4,82.4,12.9,113-32.2C541,554.6,538.4,568.7,532.4,581.3z"/>
						<path id="Path_6001" class="st1" d="M539.9,540.6c-30.6,45-86.1,38.6-113,32.2c-20.7-20.1-38.1-43.4-51.3-69
							c53.6-6.9,99.9-21.7,136-44c2.9-1.8,5.7-3.7,8.5-5.6C524.5,465.8,538.7,505.3,539.9,540.6z"/>
					</g>
					<g id="Group_8549" transform="translate(31.852 100.89)">
						<path id="Path_6002" class="st2" d="M139.7,581.3c6.2,11.1,17.3,18.5,29.9,19.9c3.7,0.6,7.4,0.9,11.2,0.9
							c24.4,0,46.3-12.8,64.4-29.4c-26.9,6.4-82.4,12.9-113-32.2C131,554.6,133.6,568.6,139.7,581.3z"/>
						<path id="Path_6003" class="st1" d="M132.2,540.6c30.6,45,86.1,38.6,113,32.2c20.7-20.1,38.1-43.4,51.3-69
							c-53.6-6.9-99.9-21.7-136-44c-2.9-1.8-5.7-3.7-8.5-5.6C147.5,465.8,133.3,505.3,132.2,540.6z"/>
					</g>
					<path id="Path_6004" class="st2" d="M687.4,407.9c0,63.8-28.2,113.5-83.8,147.9c-50.3,31.1-120.9,47.5-204.1,47.5
						s-153.8-16.4-204.1-47.5c-55.6-34.3-83.8-84.1-83.8-147.9c0-68,32.4-152.1,84.6-219.4c58.8-75.9,131-117.7,203.4-117.7
						S544,112.6,602.8,188.5C655,255.9,687.4,339.9,687.4,407.9z"/>
					<path id="Path_6005" class="st1" d="M666.2,402c0,113.4-105.6,165.3-204.7,177.2c-98.6,11.9-239,2.8-301.7-87.5
						c-60.4-87-9.1-210.6,46.7-286.1c61.7-83.5,162.6-143.9,266.3-100.4C581.1,150.7,666.2,285,666.2,402z"/>
				</g>
			</g>
		</g>
	</g>
</g>
</svg>
