<?xml version="1.0" encoding="utf-8"?>
<!-- Generator: Adobe Illustrator 25.1.0, SVG Export Plug-In . SVG Version: 6.00 Build 0)  -->
<svg version="1.1" id="Layer_1" xmlns="http://www.w3.org/2000/svg" xmlns:xlink="http://www.w3.org/1999/xlink" x="0px" y="0px"
	 viewBox="0 0 800 800" style="enable-background:new 0 0 800 800;" xml:space="preserve">
<style type="text/css">
	.st0{fill:#FFFFFF;}
	.st1{fill:#FFE0B1;}
	.st2{fill:#FF4C4C;}
	.st3{fill:#5C1C30;}
	.st4{fill:#01C7A4;}
</style>
<g>
	<path id="Path_9720" class="st0" d="M276.1,643.1c0.4,0,0.8,0,1.1,0.1L276.1,643.1L276.1,643.1z"/>
	<path id="Path_9721" class="st0" d="M305.4,647.7c0.3,0.1,0.5,0.1,0.8,0.2l0,0L305.4,647.7z"/>
	<path id="Path_9722" class="st0" d="M334.5,537.2L334.5,537.2c-2.5-0.8-4.9-1.8-7.3-2.8L334.5,537.2z"/>
	<path id="Path_9723" d="M328.7,529.2c3.7,1.5,7.4,2.9,11.1,4.2L328.7,529.2z"/>
	<path id="Path_9724" d="M796.1,334.2c-0.9-2.8-3.2-4.9-6-5.7c-5-1.3-12.1,1.6-19,7.8c-0.2,0.1-0.4,0.2-0.6,0
		c-0.2-0.2-0.3-0.4-0.3-0.7c5-20.9,3-33.3-5.8-36.9c-2.9-1.4-6.4-1.3-9.3,0.1c-6.7,3.5-9.9,14.3-12.1,24.3c0,0.4-0.4,0.6-0.7,0.6
		c-0.4,0-0.7-0.2-0.7-0.6c-5.8-26.6-11.3-31-15-32.1c-2.2-0.6-4.7-0.2-6.5,1.3c-9.2,7.3-10.7,38.5-10.2,54l0.1,4.1
		c0.7,4.8,0.5,9.8-0.5,14.6c-3,0-5.9-0.6-8.6-1.6l-2-0.6c-7.7-2.4-15.9,1.9-18.3,9.6c-0.1,0.3-0.2,0.5-0.2,0.8
		c-0.1,0.4-0.2,0.7-0.2,1.1c-11.1,0.4-22.2-1-32.9-4.3c4.2-18,6.3-36.4,6.3-54.9C653.4,184.5,547.3,78.5,416.6,78.6
		C285.8,78.7,179.9,184.8,180,315.5c0,18.1,2.1,36.2,6.3,53.9c-29.7,3-59.1-7.6-80.1-28.8c2-1.4,4.2-2.5,6.5-3.3
		c7.3-2.3,11.4-10.1,9.1-17.4c-0.1-0.3-0.2-0.5-0.3-0.8c-2.4-7.7-10.6-11.9-18.2-9.5c-0.3,0.1-0.6,0.2-0.9,0.3l-2,0.7
		c-2.7,1.2-5.6,1.9-8.5,2.1c-1.2-4.7-1.7-9.6-1.4-14.5l-0.1-4.1c-0.5-15.5-3.9-46.6-13.6-53.2c-1.9-1.4-4.3-1.7-6.5-0.9
		c-3.6,1.3-8.9,6-13,32.9c0,0.4-0.3,0.6-0.7,0.7c-0.3,0.1-0.7-0.1-0.7-0.5c0,0,0-0.1,0-0.1c-2.9-9.9-6.7-20.4-13.6-23.5
		c-3-1.3-6.4-1.1-9.3,0.4c-8.6,4.1-9.7,16.7-3.5,37.2c0.1,0.3,0,0.6-0.3,0.7c-0.2,0.1-0.4,0.1-0.6,0c-7.3-5.7-14.6-8.2-19.5-6.6
		c-2.8,0.9-4.9,3.2-5.7,6c-2,9,0.3,18.4,6.2,25.4c1.3,1.7,2.8,3.4,4.3,5.2c2.3,2.8,4.9,5.7,7,8.7c2.1,2.8,3.7,5.9,4.7,9.2
		c1.1,4,2.5,8,4.3,11.7c4.7,10.8,15.8,17.3,27.5,16.3c6.5-0.1,13-1,19.2-2.7c1.2-0.3,2.5-0.7,3.6-1.1c24.7,27,59.7,42.4,96.4,42.2
		c6.5,0,12.9-0.4,19.3-1.3c20.1,51.7,57.7,94.7,106.2,121.5c-22.4,36.1-33.4,78.1-31.6,120.6c-8.7,0-17.3,1.6-25.4,4.7
		c-14.3,6.1-29.1,11.1-44.2,14.9c-34.9,0.3-59.9,9.9-74.3,28.3c-1.3,1.6-1.9,3.6-2,5.6v17.1c0,4.3,3.5,7.7,7.8,7.7h181.1
		c4.3,0,7.8-3.5,7.8-7.7v-10.4c2.3-9.2,3.6-18.5,3.9-28c0-13.1-3.5-21.3-10.5-24.5l-0.2-0.1c-0.1,0-1.1-0.4-3-1
		c-6.1-55.4,21.8-101.2,27.9-110.5c49.6,17,103.4,17.1,153,0.3c6,9.3,32.9,54.3,26.6,110.2c-1.9,0.6-3,1-3,1l-0.2,0.1
		c-6.9,3.2-10.4,11.4-10.4,24.5c0.2,9.5,1.5,18.9,3.8,28.1v10.3c0,4.3,3.5,7.7,7.8,7.7h181.1c4.3,0,7.8-3.5,7.8-7.7v-17.1
		c0-0.1,0-0.3,0-0.4c-0.1-1.9-0.7-3.7-1.9-5.2c-14.3-18.4-39.3-27.9-74.3-28.3c-15.1-3.9-29.8-8.9-44.2-14.9
		c-8.1-3.1-16.7-4.7-25.4-4.7c1.8-42.1-9-83.7-31-119.7c49.1-26.9,87.2-70.2,107.7-122.3c1.8,0.5,3.5,1,5.3,1.5
		c21.7,5.8,44.5,5.8,66.2,0.1c2.9,2.5,6,4.6,9.3,6.5l0,0l0.6,0.5l5.3,2c1.2,0.4,2.4,0.7,3.7,0.9c6.4,1.3,12.9,1.8,19.4,1.5
		c11.8,0.3,22.5-6.9,26.5-18c1.5-3.9,2.7-7.9,3.5-11.9c2.2-6.9,5.8-13.2,10.6-18.6c1.4-1.9,2.8-3.7,4-5.5
		C797,352.5,798.7,343,796.1,334.2z M83.1,352.8C83.1,352.8,83.1,352.8,83.1,352.8c-2.4,1.5-5,2.5-7.7,3.2
		c-15.2,3.6-33.5,5.7-40.6-10.6c-1.6-3.5-2.9-7.2-3.9-10.9c-2.8-7.5-7.2-14.4-12.8-20.1c-1.5-1.7-3-3.4-4.2-5
		c-4.7-5.7-6.7-13.3-5.2-20.5c0.2-1.2,1.1-2.1,2.2-2.4c0.5-0.2,1-0.3,1.6-0.3c4.8,0.7,9.3,2.7,12.9,6c2,1.6,4.9,1.7,7,0.2
		c2.2-1.5,3.1-4.2,2.3-6.7c-5.1-16.9-4.9-28.1,0.7-30.8c1.4-0.9,3.2-1,4.8-0.3c4.9,2.2,8.4,12.5,10.6,20.1c0.9,3.2,4.3,5.1,7.5,4.2
		c2.3-0.7,4-2.6,4.4-5c3.9-25.5,8.6-28.4,9.5-28.7c0.6-0.2,1.2-0.1,1.7,0.3c5.5,3.7,10.5,25.7,11.2,48.9l0.1,4.1
		c0.3,11.7,0.5,16.5,3.7,18.8c2.9,2,6.6,0.8,13.3-1.4l2-0.7c4.6-2,10,0.2,11.9,4.8c0.1,0.3,0.3,0.6,0.4,1c1.8,4.4-0.3,9.4-4.7,11.1
		c-0.2,0.1-0.5,0.2-0.7,0.3c-6.6,2.6-12.5,6.7-17.3,11.9l-0.7,0.7C90,347.8,86.7,350.5,83.1,352.8L83.1,352.8z M316.2,713.6
		c0,1.3-1.1,2.4-2.4,2.3H132.6c-1.3,0-2.4-1-2.4-2.3v-8h185.9L316.2,713.6z M312.8,655.7c6,2.8,7.3,12.2,7.3,19.5
		c-0.2,8.4-1.3,16.8-3.3,25H134c-1.4,0-2.7-0.8-3.3-2.1c-0.6-1.3-0.5-2.8,0.4-3.9c13.3-17.1,37-25.9,70.3-26.2l0.5,0
		c15.5-3.9,30.6-8.9,45.3-15.2c7.9-3,16.4-4.5,24.9-4.3h1.4c11.9,0.3,23.6,2.3,34.9,5.8c0.3,0.1,0.6,0.2,0.9,0.3
		c0.2,0.1,0.5,0.2,0.7,0.2C311.5,655.3,312.5,655.6,312.8,655.7L312.8,655.7z M334.5,537.2c-7.5,11.6-33.4,56.5-28.3,110.7
		c-0.3-0.1-0.5-0.1-0.8-0.2c-0.3-0.1-0.6-0.1-1-0.2c-0.7-0.2-1.6-0.4-2.4-0.7c-0.6-0.1-1.2-0.3-1.9-0.4c-0.9-0.2-1.9-0.4-2.9-0.6
		c-2-0.4-4.1-0.8-6.3-1.2c-0.7-0.1-1.3-0.2-2-0.3c-0.8-0.1-1.6-0.3-2.4-0.3c-1-0.1-2.1-0.2-3.1-0.3s-2.2-0.2-3.4-0.3
		c-0.6,0-1.2-0.1-1.7-0.1c-0.4-0.1-0.7-0.1-1.1-0.1c-0.4,0-0.7,0-1.1,0c-0.2-3.6-0.3-7.2-0.3-10.8c0.4-38,11.2-75.1,31.2-107.4
		c6.4,3.4,13.1,6.5,19.8,9.2l0.4,0.2L334.5,537.2C334.5,537.2,334.5,537.2,334.5,537.2L334.5,537.2z M700.8,713.6
		c0,1.3-1,2.3-2.3,2.3c0,0,0,0,0,0H517.3c-1.3,0-2.3-1-2.3-2.3c0,0,0,0,0,0v-8h185.9L700.8,713.6z M558.9,648.4
		c8.5-0.2,17,1.3,25,4.3c14.7,6.3,29.8,11.3,45.3,15.2l0.5,0c33.4,0.3,57,9.2,70.3,26.2c1.3,1.6,1,3.9-0.6,5.2
		c-0.6,0.5-1.4,0.8-2.3,0.8H514.3c-2-8.2-3.1-16.6-3.3-25c0-7.4,1.3-16.7,7.2-19.5c0.3-0.1,1.3-0.5,2.8-1l0.7-0.2l0.9-0.3
		c11.3-3.5,23.1-5.5,35-5.8L558.9,648.4z M555.1,643.1c-0.7,0-1.5,0-2.2,0.1c-1.7,0.1-3.5,0.2-5.1,0.4c-1,0.1-2.1,0.2-3.1,0.3
		c-0.8,0.1-1.6,0.2-2.4,0.3c-0.7,0.1-1.3,0.2-2,0.3c-1.8,0.3-3.5,0.6-5.2,0.9l-1.2,0.3c-1,0.2-1.9,0.4-2.8,0.6
		c-0.5,0.1-1,0.3-1.5,0.3c-0.3,0.1-0.7,0.2-1,0.3c-0.7,0.2-1.3,0.3-2,0.5c-0.1,0-0.1,0-0.2,0.1c-0.5,0.1-1,0.2-1.4,0.3
		c2.9-38.7-6.6-77.4-27-110.4l3.6-1.3c3.3-1.2,6.5-2.6,9.7-3.9c1.1-0.5,2.2-0.9,3.2-1.4c1-0.5,2.1-1,3.1-1.5c1-0.4,1.9-0.9,2.8-1.3
		c0.7-0.3,1.4-0.7,2.2-1c0.7-0.3,1.5-0.7,2.2-1.1C546.3,561.1,556.8,601.9,555.1,643.1L555.1,643.1z M643.9,397.4
		c-4.8-1.2-9.5-2.8-14.1-4.5c-0.9-0.3-1.7-0.7-2.6-1c-0.8-0.3-1.7-0.7-2.6-1c-10.2-4.3-19.9-9.6-29-15.9c-1.2-0.8-2.9-0.5-3.7,0.7
		c0,0,0,0,0,0c-0.8,1.2-0.5,2.9,0.7,3.8c9.1,6.2,18.7,11.5,28.8,15.9l5.1,2.1c1.8,0.7,3.6,1.3,5.4,2
		c-20.2,50.8-57.5,93.1-105.4,119.5l-2.2,1.1c-8,4.2-16.3,8-24.7,11.2h0c-2,0.8-3.9,1.5-5.9,2.2l-0.3,0.1l-0.5,0.2l-1.5,0.5
		l-1.9,0.7c-48.7,16.1-101.3,15.6-149.7-1.3c-3.7-1.3-7.4-2.7-11.1-4.3c-7.3-3-14.5-6.4-21.4-10.1c-48.3-25.8-85.8-68-105.8-118.9
		c9.9-1.7,19.7-4.3,29.2-7.7c1.4-0.5,2.1-2.1,1.6-3.5c-0.5-1.4-2-2.1-3.4-1.6c0,0,0,0,0,0c-9.6,3.4-19.4,5.9-29.4,7.6
		c-0.9,0.2-1.8,0.3-2.7,0.4c-0.9,0.1-1.8,0.3-2.7,0.3c-5.8,0.7-11.6,1.1-17.4,1.1c-34.5,0.2-67.5-14-91.2-39.1l0.7-0.5
		c3.8-2.4,7.2-5.2,10.4-8.4l5.7-4.6c22.3,22.6,53.7,33.9,85.3,30.5c0.9-0.1,1.8-0.2,2.7-0.3s1.8-0.2,2.7-0.3
		c9.8-1.4,19.5-3.7,28.8-7.1c1.4-0.5,2.1-2,1.6-3.4c-0.5-1.4-2-2.1-3.4-1.7c0,0,0,0-0.1,0c-9.2,3.3-18.7,5.6-28.3,6.9
		C162,244.6,238.7,119.8,363,90.1s249.1,47,278.8,171.3c4.2,17.6,6.3,35.7,6.3,53.8c0,17.9-2.1,35.8-6.2,53.3l-3-1
		c-9.9-3.8-19.4-8.7-28.1-14.7c-1.2-0.8-2.8-0.6-3.7,0.6c0,0,0,0.1-0.1,0.1c-0.8,1.2-0.5,2.9,0.7,3.8c0,0,0,0,0,0
		c8.9,6.1,18.5,11.1,28.5,15.1c0.8,0.3,1.7,0.7,2.5,0.9l2.6,0.9c12.4,4.2,25.4,6.2,38.5,5.7c0.8,5.4,4.9,9.8,10.3,11
		c2.3,0.7,4.6,1.6,6.7,2.9l4.2,3.4l2,1.4C683.5,402.9,663.2,402.5,643.9,397.4L643.9,397.4z M787.2,356.9c-1.2,1.6-2.5,3.4-3.9,5.3
		c-2.3,3.1-4.9,6.5-7,9.9c-2.1,3.3-3.7,7-4.6,10.9c-0.8,3.8-1.8,7.5-3.3,11.1c-6.1,16.7-24.5,15.7-39.9,13.1
		c-2.7-0.5-5.3-1.4-7.8-2.7c0,0,0,0-0.1,0v0h0c-1.9-1-3.8-2.2-5.6-3.6c-1.6-1.2-3.2-2.5-4.8-3.8l-0.1-0.1c-0.1-0.1-0.1-0.1-0.2-0.2
		c-0.1-0.1-0.2-0.2-0.3-0.3c-5.1-4.9-11.3-8.6-18-10.9c-3.1-0.7-5.5-3.1-6.2-6.2c-0.4-1.6-0.4-3.2,0.1-4.8c0-0.2,0.1-0.4,0.2-0.6
		c1-3.6,4.2-6.1,7.9-6.4c1.3,0,2.5,0.1,3.8,0.4l2.1,0.5c2.3,0.6,4.3,1.1,6,1.5c2.5,0.9,5.2,0.6,7.4-0.9c0.8-0.7,1.4-1.5,1.8-2.5
		c1.2-5.4,1.4-11,0.7-16.5l-0.1-4.1c-0.7-23.2,2.9-45.5,8.2-49.5c0.4-0.5,1.1-0.6,1.6-0.4c0.9,0.2,5.7,2.8,11.2,28
		c0.7,3.3,4,5.4,7.3,4.7c2.4-0.5,4.2-2.3,4.7-4.7c1.7-7.7,4.5-18.2,9.3-20.7c1.5-0.8,3.3-0.8,4.7,0c5.7,2.3,6.7,13.5,2.6,30.7
		c-0.6,2.6,0.6,5.2,2.8,6.5c2.2,1.4,5,1.1,6.9-0.6c3.6-4,8.7-6.4,14.2-6.6c1.1,0.3,2,1.2,2.3,2.3
		C793.1,343.3,791.6,350.9,787.2,356.9L787.2,356.9z"/>
	<path id="Path_9725" class="st1" d="M703,398.5c-19.5,4.4-39.9,4-59.2-1.2c-4.8-1.2-9.5-2.8-14.1-4.5c-0.9-0.3-1.7-0.7-2.6-1
		c-0.8-0.3-1.7-0.7-2.6-1c-10.2-4.3-19.9-9.6-29-15.9c-1.2-0.8-2.9-0.5-3.7,0.7c0,0,0,0,0,0c-0.8,1.2-0.5,2.9,0.7,3.8
		c9.1,6.2,18.7,11.5,28.8,15.9l5.1,2.1c1.8,0.7,3.6,1.3,5.4,2c-20.2,50.8-57.5,93.1-105.4,119.5l-2.2,1.1c-8,4.2-16.3,8-24.7,11.2h0
		c-2,0.8-3.9,1.5-5.9,2.2l-0.3,0.1l-0.5,0.2l-1.5,0.5l-1.9,0.7c-48.7,16.1-101.3,15.6-149.7-1.3c-3.7-1.3-7.4-2.7-11.1-4.3
		c-7.3-3-14.5-6.4-21.4-10.1c-48.3-25.8-85.8-68-105.8-118.9c9.9-1.7,19.7-4.3,29.2-7.7c1.4-0.5,2.1-2.1,1.6-3.5
		c-0.5-1.4-2-2.1-3.4-1.6c0,0,0,0,0,0c-9.6,3.4-19.4,5.9-29.4,7.6c-0.9,0.2-1.8,0.3-2.7,0.4c-0.9,0.1-1.8,0.3-2.7,0.3
		c-5.8,0.7-11.6,1.1-17.4,1.1c-34.5,0.2-67.5-14-91.2-39.1l0.7-0.5c3.8-2.4,7.2-5.2,10.4-8.4l5.7-4.6c22.3,22.6,53.7,33.9,85.3,30.5
		c0.9-0.1,1.8-0.2,2.7-0.3c0.9-0.1,1.8-0.2,2.7-0.3c9.8-1.4,19.5-3.7,28.8-7.1c1.4-0.5,2.1-2,1.6-3.4c-0.5-1.4-2-2.1-3.4-1.7
		c0,0,0,0-0.1,0c-9.2,3.3-18.7,5.6-28.3,6.9c-29.7-124.3,47-249.1,171.3-278.8s249.1,47,278.8,171.3c4.2,17.6,6.3,35.7,6.3,53.8
		c0,17.9-2.1,35.8-6.2,53.3l-3-1c-9.9-3.8-19.4-8.7-28.1-14.7c-1.2-0.8-2.8-0.6-3.7,0.6c0,0,0,0.1-0.1,0.1c-0.8,1.2-0.5,2.9,0.7,3.8
		c0,0,0,0,0,0c8.9,6.1,18.5,11.1,28.5,15.1c0.8,0.3,1.7,0.7,2.5,0.9l2.6,0.9c12.4,4.2,25.4,6.2,38.5,5.7c0.8,5.4,4.9,9.8,10.3,11
		c2.3,0.7,4.6,1.6,6.7,2.9l4.2,3.4L703,398.5z"/>
	<path id="Path_9726" class="st2" d="M787.1,356.9c-1.2,1.6-2.5,3.4-3.9,5.3c-2.3,3.1-4.9,6.5-7,9.9c-2.1,3.3-3.7,7-4.6,10.9
		c-0.8,3.8-1.8,7.5-3.3,11.1c-6.1,16.7-24.5,15.7-39.9,13.1c-2.7-0.5-5.3-1.4-7.8-2.7c0,0,0,0-0.1,0v0h0c-1.9-1-3.8-2.2-5.6-3.6
		c-1.6-1.2-3.2-2.5-4.8-3.8l-0.1-0.1c-0.1-0.1-0.1-0.1-0.2-0.2c-0.1-0.1-0.2-0.2-0.3-0.3c-5.1-4.9-11.3-8.6-18-10.9
		c-3.1-0.7-5.5-3.1-6.2-6.2c-0.4-1.6-0.4-3.2,0.1-4.8c0-0.2,0.1-0.4,0.2-0.6c1-3.6,4.2-6.1,7.9-6.4c1.3,0,2.5,0.1,3.8,0.4l2.1,0.5
		c2.3,0.6,4.3,1.1,6,1.5c2.5,0.9,5.2,0.6,7.4-0.9c0.8-0.7,1.4-1.5,1.8-2.5c1.2-5.4,1.4-11,0.7-16.5l-0.1-4.1
		c-0.7-23.2,2.9-45.5,8.2-49.5c0.4-0.5,1.1-0.6,1.6-0.4c0.9,0.2,5.7,2.8,11.2,28c0.7,3.3,4,5.4,7.3,4.7c2.4-0.5,4.2-2.3,4.7-4.7
		c1.7-7.7,4.5-18.2,9.3-20.7c1.5-0.8,3.3-0.8,4.7,0c5.7,2.3,6.7,13.5,2.6,30.7c-0.6,2.6,0.6,5.2,2.8,6.5c2.2,1.4,5,1.1,6.9-0.6
		c3.6-4,8.7-6.4,14.2-6.6c1.1,0.3,2,1.2,2.3,2.3C793,343.3,791.5,350.9,787.1,356.9z"/>
	<path id="Path_9727" class="st2" d="M110.9,332.2c-6.6,2.6-12.5,6.7-17.4,12c-0.2,0.2-0.4,0.4-0.7,0.6c-3,3-6.3,5.6-9.8,7.9
		c0,0,0,0,0,0c-2.4,1.4-5,2.5-7.7,3.2c-15.2,3.6-33.5,5.7-40.6-10.5c-1.6-3.5-2.9-7.2-3.9-10.9c-2.8-7.5-7.2-14.4-12.8-20.1
		c-1.5-1.8-2.9-3.4-4.2-5.1c-4.7-5.7-6.6-13.2-5.2-20.5c0.2-1.2,1.1-2.1,2.2-2.5c0.5-0.2,1-0.2,1.6-0.2c4.8,0.7,9.3,2.7,12.9,5.9
		c2,1.6,4.8,1.7,7,0.2c2.2-1.5,3.1-4.2,2.4-6.7c-5.1-16.9-4.9-28.1,0.7-30.8c1.4-0.9,3.2-1,4.8-0.3c4.9,2.2,8.4,12.5,10.6,20.1
		c0.9,3.3,4.3,5.1,7.6,4.2c2.3-0.7,4-2.6,4.4-5c3.9-25.5,8.6-28.4,9.4-28.7c0.6-0.2,1.2-0.1,1.7,0.3c5.5,3.8,10.5,25.7,11.2,48.9
		l0.1,4.1c0.3,11.7,0.5,16.5,3.7,18.8c2.9,2,6.6,0.8,13.3-1.4l2-0.7c4.7-2,10,0.2,12,4.9c0.1,0.3,0.2,0.6,0.3,0.9
		c1.8,4.4-0.4,9.4-4.8,11.2C111.4,332.1,111.2,332.2,110.9,332.2z"/>
	<path id="Path_9728" class="st3" d="M700.8,705.7v8c0,1.3-1.1,2.4-2.4,2.4c0,0,0,0,0,0H517.3c-1.3,0-2.4-1.1-2.4-2.4c0,0,0,0,0,0
		v-8H700.8z"/>
	<path id="Path_9729" class="st4" d="M700.4,698.2c-0.6,1.3-1.9,2.1-3.3,2.1H514.3c-2-8.2-3.1-16.6-3.3-25c0-7.4,1.3-16.7,7.2-19.6
		c0.3-0.1,1.3-0.5,2.8-1l0.7-0.2l0.9-0.3c11.3-3.5,23.1-5.5,35-5.8h1.2c8.5-0.2,17,1.3,25,4.3c14.7,6.3,29.8,11.3,45.3,15.2l0.6,0.1
		c33.3,0.3,57,9.1,70.4,26.2C700.9,695.4,701.1,696.9,700.4,698.2z"/>
	<path id="Path_9730" class="st1" d="M555,643.1L555,643.1c-0.8,0-1.5,0.1-2.2,0.1c-1.7,0.1-3.5,0.2-5.2,0.4c-1,0.1-2.1,0.2-3.1,0.4
		c-0.8,0.1-1.6,0.2-2.4,0.3c-0.7,0.1-1.3,0.2-2,0.3c-1.8,0.3-3.5,0.6-5.2,0.9c-0.4,0.1-0.8,0.1-1.2,0.2c-1,0.2-1.9,0.4-2.8,0.6
		c-0.5,0.1-1,0.2-1.5,0.3c-0.3,0.1-0.7,0.2-1,0.3c-0.7,0.2-1.3,0.3-1.9,0.5c-0.1,0-0.2,0.1-0.2,0.1l-1.4,0.4
		c2.9-38.7-6.6-77.4-27-110.4l3.6-1.3c3.3-1.2,6.5-2.6,9.7-3.9c1.1-0.5,2.1-0.9,3.2-1.4s2.1-0.9,3.1-1.4c0.9-0.4,1.9-0.9,2.8-1.3
		c0.7-0.3,1.5-0.7,2.2-1.1s1.5-0.7,2.2-1.1C546.2,561.1,556.8,601.9,555,643.1z"/>
	<path id="Path_9731" class="st1" d="M306.1,647.9c-0.3-0.1-0.5-0.1-0.8-0.2c-0.3-0.1-0.6-0.2-1-0.3l-2.4-0.6l-1.9-0.4
		c-0.9-0.2-1.9-0.4-2.9-0.6c-2-0.4-4.1-0.8-6.3-1.2c-0.7-0.1-1.3-0.2-2-0.3c-0.8-0.1-1.6-0.2-2.4-0.3c-1-0.1-2-0.3-3.1-0.4
		c-1.1-0.1-2.2-0.2-3.4-0.3l-1.8-0.1c-0.4,0-0.7-0.1-1.1-0.1c-0.4,0-0.7-0.1-1.1-0.1c-1.9-41.6,8.9-82.8,30.9-118.1
		c6.6,3.5,13.2,6.5,19.8,9.2l0.4,0.2c2.4,1,4.9,1.9,7.3,2.8C327,548.9,301.1,593.7,306.1,647.9z"/>
	<g id="Group_10305" transform="translate(22.755 100.636)">
		<g id="Group_10303">
			<path id="Path_9732" class="st4" d="M297.3,574.6c-0.2,8.4-1.3,16.8-3.3,25H111.2c-2,0-3.7-1.7-3.7-3.7c0-0.8,0.3-1.6,0.8-2.3
				c13.3-17.1,37-25.9,70.3-26.2l0.6-0.1c15.5-3.9,30.6-9,45.3-15.2c7.9-3,16.3-4.5,24.8-4.3h1.4c11.9,0.3,23.6,2.3,34.9,5.8
				c0.3,0.1,0.6,0.2,0.9,0.3c0.3,0.1,0.5,0.1,0.7,0.2c1.5,0.5,2.5,0.9,2.8,1C296,557.9,297.3,567.3,297.3,574.6z"/>
			<path id="Path_9733" d="M253.3,542.5L253.3,542.5l1.1,0.1C254.1,542.5,253.7,542.5,253.3,542.5z M282.6,547.1l0.8,0.2l0,0
				C283.1,547.3,282.9,547.2,282.6,547.1z"/>
		</g>
		<g id="Group_10304" transform="translate(0.001 11.146)">
			<path id="Path_9734" class="st3" d="M293.4,593.9v8c0,1.3-1.1,2.4-2.4,2.4c0,0,0,0,0,0H109.9c-1.3,0-2.4-1.1-2.4-2.4c0,0,0,0,0,0
				v-8H293.4z"/>
		</g>
	</g>
</g>
</svg>
