<?xml version="1.0" encoding="utf-8"?>
<!-- Generator: Adobe Illustrator 25.1.0, SVG Export Plug-In . SVG Version: 6.00 Build 0)  -->
<svg version="1.1" id="Layer_1" xmlns="http://www.w3.org/2000/svg" xmlns:xlink="http://www.w3.org/1999/xlink" x="0px" y="0px"
	 viewBox="0 0 800 800" style="enable-background:new 0 0 800 800;" xml:space="preserve">
<style type="text/css">
	.st0{clip-path:url(#SVGID_2_);}
	.st1{fill:#BF06A0;}
	.st2{fill:#F2059F;}
	.st3{fill:#FF6699;}
</style>
<g id="Group_10533" transform="translate(-0.473 0.438)">
	<g>
		<defs>
			<rect id="SVGID_1_" x="7.5" y="4" width="786" height="791.2"/>
		</defs>
		<clipPath id="SVGID_2_">
			<use xlink:href="#SVGID_1_"  style="overflow:visible;"/>
		</clipPath>
		<g id="Group_8922" transform="translate(0 0)" class="st0">
			<g id="Group_8921" transform="translate(0 16.122)">
				<path id="Path_6537" d="M793.8,396.8c-3.5-7.5-26.1-7.8-35.4-7.5c-14.7-26.2-46.3-47.8-70.5-61.5c-3.7-42.2-23-81.3-53.6-113.7
					c4.3-8.8,29.8-63.7,16.6-102.9c-4.5-14-14.9-25.5-28.4-31.4c-14.2-7-30.7-7.7-45.4-1.8c-32.1,12.7-52.8,51.5-58.6,63.6
					c-77.1-26.1-160.7-26.1-237.8,0c-5.8-12.1-26.5-50.9-58.6-63.6c-14.7-5.9-31.2-5.2-45.4,1.8c-13.5,6-23.8,17.4-28.4,31.4
					c-13.2,39.2,12.3,94,16.6,102.9c-30.5,32.4-49.9,71.5-53.6,113.7c-24.2,13.6-55.8,35.2-70.5,61.5c-9.3-0.3-31.9-0.1-35.4,7.5
					c-1.1,2.6-0.5,5.5,1.6,7.4c4.4,5.1,10.8,7.9,17.5,7.6c2.9,0,5.8-0.4,8.7-1.1c-0.6,3.4-0.3,7,1,10.2
					c-7.3,7.3-20.6,21.6-18.2,28.6c0.9,2.3,3.1,3.9,5.6,3.8c0.3,0,0.7,0,1,0c14.2,0,30.3-24.1,32.1-26.9l-0.1-0.1
					c2.6-0.6,5.1-1.3,7.6-2.2c-4.5,11.1-9.3,25.6-5.2,30c0.9,0.9,2.2,1.5,3.5,1.4c1.1,0,2.1-0.3,3.1-0.7c12.2-5.3,19.1-33,20.7-40.1
					c11.4-5.7,23.4-12.7,34.6-19.7c16.2,50.9,55.6,95,109.2,125.2l0,0c7.1,35.5,13.4,94,4.6,107.6c-1.3,2-2.4,2.1-3.3,1.9
					c-30.1-5.5-56.6-4.3-105.3,4.6c-29.7,5.4-35,18.4-35.9,22.2c-1.1,3.8,0.2,7.9,3.3,10.4c5,3,11.3,2.7,15.9-0.7
					c10.5-5.1,22-7.6,33.6-7.4c1.7,0,3.2,1,3.8,2.5c0.7,1.6,0.4,3.4-0.9,4.7c-11.1,11.1-10.3,19.2-7.8,24c2.1,3.7,6.1,5.8,10.3,5.3
					c9.7-1.1,19.2-3.5,28.3-7.1c17.5-5.8,39.2-13.1,62.6-13.7c23.9-0.6,35.8-3.6,40.9-10.4c4.6-6,2.8-14,0.8-23.2
					c-0.3-1.4-0.6-2.9-1-4.4c-2.5-12.3-5-58.9-6.6-95.9c82.6,30.5,173.4,30.5,256,0c-1.6,37-4,83.6-6.6,95.9c-0.3,1.5-0.6,3-1,4.4
					c-2,9.2-3.8,17.1,0.8,23.2c5.1,6.7,17,9.7,40.9,10.4c23.4,0.6,45.2,7.9,62.6,13.7c9,3.7,18.6,6.1,28.3,7.1
					c4.2,0.4,8.2-1.6,10.3-5.3c2.6-4.8,3.3-12.9-7.8-24c-1.2-1.2-1.6-3.1-0.9-4.7c0.6-1.5,2.1-2.5,3.7-2.5h0.1
					c11.6-0.2,23.1,2.3,33.6,7.4c4.7,3.5,11,3.8,15.9,0.7c3.1-2.5,4.4-6.6,3.3-10.4c-0.9-3.8-6.1-16.8-35.9-22.2
					c-48.7-8.9-75.3-10.1-105.3-4.6c-0.9,0.2-2,0.1-3.3-1.9c-8.8-13.6-2.6-72.1,4.6-107.6c53.5-30.3,92.9-74.3,109.2-125.2
					c11.2,7,23.2,14,34.6,19.7l0,0c1.6,7.2,8.5,34.8,20.7,40.1c1,0.4,2,0.7,3.1,0.7c1.3,0,2.6-0.5,3.5-1.4
					c4.1-4.3-0.6-18.8-5.2-29.9c2.7,0.9,5.2,1.6,7.6,2.1l-0.1,0.1c1.8,2.8,17.9,26.9,32.2,26.9c0.4,0,0.7,0,1,0
					c2.5,0.1,4.8-1.5,5.6-3.8c2.4-7-10.9-21.3-18.2-28.6c1.3-3.2,1.6-6.8,1-10.2c2.8,0.7,5.7,1.1,8.7,1.1c6.7,0.3,13.1-2.5,17.5-7.6
					C794.2,402.4,794.8,399.4,793.8,396.8z M579.1,83.2c13.4-5.3,28.3-4.7,41.2,1.7c12.1,5.3,21.4,15.6,25.5,28.2
					c11.7,34.7-9.9,84.8-15.6,96.9c-30.2-29.8-66.6-52.5-106.6-66.6C529.6,131.3,549.6,94.8,579.1,83.2L579.1,83.2z M153.5,113.1
					c4.1-12.6,13.4-22.9,25.5-28.2c12.9-6.4,27.9-7,41.2-1.7c29.5,11.6,49.4,48.2,55.4,60.3c-40,14.1-76.4,36.8-106.5,66.6
					C163.4,197.9,141.8,147.9,153.5,113.1L153.5,113.1z M11.2,400.7c-0.8-1-0.8-1.5-0.8-1.5c0.4-2.2,12.7-4.6,27.8-4.4
					c-1.5,3.2-2.7,6.5-3.6,9.9C31.4,405.7,18.4,409.3,11.2,400.7L11.2,400.7z M22.2,447.9c-0.4,0-0.7-0.1-1-0.2
					c-0.7-2.5,7.1-12.9,16.7-22.5c0.1,0.1,0.2,0.1,0.3,0.2c2.5,1.5,5.4,2.2,8.3,2.1c0.4,0,0.8,0,1.3,0
					C41.6,435.7,30.3,448.6,22.2,447.9L22.2,447.9z M61.7,449.8c-0.2,0.1-0.5,0.2-0.7,0.2c-0.9-3.1,2.9-15.8,8.4-28.4
					c2.8-1.1,5.8-2.4,8.8-3.8C75.3,428.9,69.3,446.6,61.7,449.8L61.7,449.8z M738.3,450.1c-0.2-0.1-0.5-0.1-0.7-0.2
					c-7.5-3.3-13.6-20.9-16.5-32c3,1.4,5.9,2.7,8.8,3.8C735.4,434.3,739.2,447,738.3,450.1L738.3,450.1z M681.9,389.7
					c-1.6-1-3.2-2-4.7-3c-14.1-9-27.9-18.5-39.7-27.1c-0.2-0.1-0.3-0.2-0.5-0.3c-1.2-0.5-2.5-0.1-3.2,0.9c-0.9,1.2-0.6,2.9,0.6,3.8
					c4.1,3,20.9,15.2,41.2,28.1c-15.2,48.8-52.3,91.3-103,121c1.2-6.6,3.2-13.1,6-19.2c0.8-1.3,0.5-3-0.8-3.8
					c-1.2-0.8-2.9-0.5-3.7,0.7c0,0,0,0.1-0.1,0.1c-0.3,0.5-0.6,1-0.8,1.5c-3.2,7.8-5.6,16-7.1,24.3c-0.5,2.2-0.9,4.5-1.4,7
					c-7.1,37.1-12.1,92.8-2.8,107.2c1.7,3.1,5.2,4.9,8.7,4.3c29.4-5.4,55.5-4.2,103.5,4.6c21.1,3.9,30.2,12.2,31.6,18.1
					c0.6,1.7,0.1,3.6-1.3,4.7c-1.7,1.3-5.2,1.7-10-1.1c-11.2-5.6-23.6-8.4-36.1-8.1c-3.9-0.1-7.5,2.2-9,5.9
					c-1.6,3.7-0.7,7.9,2.1,10.8c4.8,4.8,9.8,11.8,6.8,17.5c-2.9,5.4-15.8,1-32.2-4.4c-17.8-6-39.9-13.4-64.1-14
					c-21.3-0.6-33-3.2-36.8-8.2c-3-4-1.7-10.1,0.2-18.6c0.3-1.5,0.6-2.9,1-4.5c2.7-13.1,5.2-61.7,6.8-99.2c0.1-2,0.2-4,0.2-6
					c0.9-21.5,1.5-38.1,1.5-40v-0.1c0-1.5-1.1-2.7-2.6-2.7c-1.5,0-2.7,1.1-2.7,2.6l0,0c0,0.5-0.6,18.8-1.6,42.3
					c-82.7,31.1-173.8,31.1-256.5,0c-1-23.6-1.6-41.9-1.6-42.3c0-1.5-1.2-2.6-2.7-2.6c0,0-0.1,0-0.1,0c-1.5,0.1-2.6,1.3-2.6,2.8v0.1
					c0.1,1.8,0.6,18.4,1.5,40c0,0.3,0,0.7,0,1.1c0,0.9,0.1,1.8,0.1,2.7c0,0.8,0.1,1.5,0.1,2.3c1.6,37.4,4.1,86.1,6.8,99.2
					c0.3,1.5,0.6,3,1,4.5c1.9,8.5,3.2,14.6,0.2,18.6c-3.8,5.1-15.5,7.7-36.8,8.2c-24.2,0.6-46.3,8.1-64.1,14
					c-16.4,5.5-29.3,9.8-32.2,4.4c-3-5.7,2-12.6,6.8-17.5c2.8-2.8,3.6-7.1,2.1-10.7c-1.4-3.7-5-6-9-5.9c-12.5-0.2-24.9,2.6-36.1,8.1
					c-4.8,2.8-8.3,2.4-10,1.1c-1.4-1.2-1.9-3-1.3-4.7c1.4-5.9,10.5-14.2,31.6-18.1c48-8.8,74.1-9.9,103.5-4.6c3.5,0.6,7-1.1,8.7-4.3
					c9.3-14.5,4.3-70.1-2.8-107.2c-0.5-2.4-0.9-4.7-1.4-7c-1.5-8.3-3.9-16.5-7.1-24.3c-0.2-0.5-0.5-1-0.8-1.5
					c-0.8-1.2-2.4-1.6-3.6-0.9c0,0-0.1,0-0.1,0.1c-1.2,0.9-1.6,2.5-0.8,3.8c2.8,6.1,4.9,12.6,6,19.2c-50.7-29.7-87.8-72.2-103-121
					c20.3-12.9,37-25.1,41.2-28.1c1.2-0.9,1.5-2.6,0.6-3.8c-0.7-1-2.1-1.4-3.2-0.9c-0.2,0.1-0.4,0.2-0.5,0.3
					c-11.8,8.6-25.6,18.2-39.7,27.1c-1.6,1-3.2,2-4.7,3c-33.2,20.7-66.6,37.5-76.4,31c-2.5-1.6-3.2-5.4-2-11.1
					c6.2-31.3,43.4-58.4,72.1-75c1.9-1.1,3.8-2.2,5.6-3.2c16.1-8.9,28.3-14.1,28.6-14.3l0,0c1.4-0.6,2-2.2,1.4-3.6
					c-0.5-1.4-2-2.1-3.4-1.6c0,0,0,0-0.1,0c-1.3,0.5-11.9,5-26,12.6c12.1-110.3,134.2-197.2,282.5-197.2S670,214.4,682.1,324.7
					c-14.1-7.6-24.7-12.1-26-12.6c-1.4-0.6-2.9,0.1-3.5,1.5c0,0,0,0,0,0.1c-0.5,1.4,0.1,3,1.5,3.6l0,0c0.3,0.1,12.5,5.3,28.6,14.2
					c1.8,1,3.7,2.1,5.6,3.2c28.7,16.6,65.9,43.7,72.1,75c1.1,5.7,0.4,9.5-2,11.2c-1.8,1-3.8,1.5-5.9,1.4
					C738.6,422.2,710.2,407.4,681.9,389.7L681.9,389.7z M778.2,447.6c-0.3,0.2-0.7,0.3-1.1,0.3c-8.1,0.7-19.4-12.1-25.5-20.4
					c0.4,0,0.9,0,1.3,0c2.9,0.1,5.8-0.6,8.3-2.1c0.1-0.1,0.2-0.1,0.3-0.2C771.1,434.8,778.9,445.2,778.2,447.6L778.2,447.6z
					 M788.1,400.6c-7.2,8.6-20.2,5.1-23.4,4c-0.9-3.4-2.1-6.7-3.6-9.9c15-0.2,27.3,2.2,27.8,4.4
					C788.9,399.3,788.9,399.7,788.1,400.6L788.1,400.6z"/>
				<path id="Path_6538" class="st1" d="M788.9,399.2c0,0,0,0.5-0.8,1.5c-7.2,8.6-20.2,5.1-23.4,4c-0.9-3.4-2.1-6.7-3.6-9.9
					C776.2,394.6,788.5,397,788.9,399.2z"/>
				<path id="Path_6539" class="st1" d="M778.2,447.6c-0.3,0.2-0.7,0.3-1.1,0.3c-8.1,0.7-19.4-12.1-25.5-20.4c0.4,0,0.9,0,1.3,0
					c2.9,0.1,5.8-0.6,8.3-2.1c0.1-0.1,0.2-0.1,0.3-0.2C771.1,434.8,778.9,445.2,778.2,447.6z"/>
				<path id="Path_6540" class="st1" d="M738.3,450.1c-0.2-0.1-0.5-0.1-0.7-0.2c-7.5-3.3-13.6-20.9-16.5-32c3,1.4,5.9,2.7,8.8,3.8
					C735.4,434.3,739.2,447,738.3,450.1z"/>
				<path id="Path_6541" class="st1" d="M78.2,417.9c-2.9,11-8.9,28.7-16.5,32c-0.2,0.1-0.5,0.2-0.7,0.2c-0.9-3.1,2.9-15.8,8.4-28.4
					C72.2,420.5,75.2,419.3,78.2,417.9z"/>
				<path id="Path_6542" class="st1" d="M38.2,394.8c-1.5,3.2-2.7,6.5-3.6,9.9c-3.2,1.1-16.2,4.6-23.4-4c-0.8-1-0.8-1.5-0.8-1.5
					C10.9,397,23.2,394.6,38.2,394.8z"/>
				<path id="Path_6543" class="st1" d="M47.6,427.4c-6.1,8.3-17.3,21.2-25.5,20.4c-0.4,0-0.7-0.1-1-0.2
					c-0.7-2.5,7.1-12.9,16.7-22.5l0.3,0.2c2.5,1.5,5.4,2.2,8.3,2.1C46.8,427.5,47.2,427.5,47.6,427.4z"/>
				<path id="Path_6544" class="st2" d="M758.3,420.8c-1.8,1-3.8,1.5-5.9,1.4c-13.9,0-42.3-14.8-70.5-32.5c-1.6-1-3.2-2-4.7-3
					c-14.1-9-27.9-18.5-39.7-27.1c-0.2-0.1-0.3-0.2-0.5-0.3c-1.2-0.5-2.5-0.1-3.2,0.9c-0.9,1.2-0.6,2.9,0.6,3.8
					c4.1,3,20.9,15.2,41.2,28.1c-15.2,48.8-52.3,91.3-103,121c1.2-6.6,3.2-13.1,6-19.2c0.8-1.3,0.5-3-0.8-3.8
					c-1.2-0.8-2.9-0.5-3.7,0.7c0,0,0,0.1-0.1,0.1c-0.3,0.5-0.6,1-0.8,1.5c-3.2,7.8-5.6,16-7.1,24.3c-0.5,2.2-0.9,4.5-1.4,7
					c-7.1,37.1-12.1,92.8-2.8,107.2c1.7,3.1,5.2,4.9,8.7,4.3c29.4-5.4,55.5-4.2,103.5,4.6c21.1,3.9,30.2,12.2,31.6,18.1
					c0.6,1.7,0.1,3.6-1.3,4.7c-1.7,1.3-5.2,1.7-10-1.1c-11.2-5.6-23.6-8.4-36.1-8.1c-3.9-0.1-7.5,2.2-9,5.9
					c-1.6,3.7-0.7,7.9,2.1,10.8c4.8,4.8,9.8,11.8,6.8,17.5c-2.9,5.4-15.8,1-32.2-4.4c-17.8-6-39.9-13.4-64.1-14
					c-21.3-0.6-33-3.2-36.8-8.2c-3-4-1.7-10.1,0.2-18.6c0.3-1.5,0.6-2.9,1-4.5c2.7-13.1,5.2-61.7,6.8-99.2c0.1-2,0.2-4,0.2-6
					c0.9-21.5,1.5-38.1,1.5-40v-0.1c0-1.5-1.1-2.7-2.6-2.7c-1.5,0-2.7,1.1-2.7,2.6c0,0.5-0.6,18.8-1.6,42.3
					c-82.7,31.1-173.8,31.1-256.5,0c-1-23.6-1.6-41.9-1.6-42.3c0-1.5-1.2-2.7-2.7-2.6c0,0-0.1,0-0.1,0c-1.5,0.1-2.6,1.3-2.6,2.8v0.1
					c0.1,1.8,0.6,18.4,1.5,40c0,0.3,0,0.7,0,1.1c0,0.9,0.1,1.8,0.1,2.7c0,0.8,0.1,1.5,0.1,2.3c1.6,37.4,4.1,86.1,6.8,99.2
					c0.3,1.6,0.6,3,1,4.5c1.9,8.5,3.2,14.6,0.2,18.6c-3.8,5.1-15.5,7.7-36.8,8.2c-24.2,0.6-46.3,8.1-64.1,14
					c-16.4,5.5-29.3,9.8-32.2,4.4c-3-5.7,2-12.6,6.8-17.5c2.8-2.8,3.6-7.1,2.1-10.7c-1.4-3.7-5-6-9-5.9c-12.5-0.2-24.9,2.6-36.1,8.1
					c-4.8,2.8-8.3,2.4-10,1.1c-1.4-1.2-1.9-3-1.3-4.7c1.4-5.9,10.5-14.2,31.6-18.1c48-8.8,74.1-9.9,103.5-4.6c3.5,0.6,7-1.1,8.7-4.3
					c9.3-14.5,4.3-70.1-2.8-107.2c-0.5-2.4-0.9-4.7-1.4-7c-1.5-8.3-3.9-16.5-7.1-24.3c-0.2-0.5-0.5-1-0.8-1.5
					c-0.8-1.2-2.4-1.6-3.6-0.9c0,0-0.1,0-0.1,0.1c-1.2,0.8-1.6,2.5-0.8,3.8c2.8,6.1,4.9,12.6,6,19.2c-50.7-29.7-87.8-72.2-103-121
					c20.3-12.9,37.1-25.1,41.2-28.1c1.2-0.9,1.5-2.6,0.6-3.8c-0.7-1.1-2.1-1.5-3.2-0.9c-0.2,0.1-0.4,0.2-0.5,0.3
					c-11.8,8.6-25.6,18.2-39.7,27.1c-1.6,1-3.2,2-4.7,3c-33.2,20.7-66.6,37.5-76.4,31c-2.5-1.7-3.2-5.4-2-11.1
					c6.2-31.3,43.4-58.4,72.1-75c1.9-1.1,3.8-2.2,5.6-3.2c16.1-8.9,28.3-14.1,28.6-14.3l0,0c1.4-0.6,2-2.2,1.5-3.6
					c-0.5-1.4-2.1-2.1-3.4-1.6c0,0,0,0-0.1,0c-1.3,0.5-11.9,5-26,12.6c12.1-110.3,134.2-197.2,282.5-197.2S670,214.5,682.2,324.7
					c-14.1-7.6-24.7-12.1-26-12.6c-1.4-0.6-2.9,0.1-3.5,1.5c0,0,0,0,0,0.1c-0.5,1.4,0.1,3,1.5,3.6l0,0c0.3,0.1,12.5,5.3,28.6,14.2
					c1.8,1,3.7,2.1,5.6,3.2c28.7,16.6,65.9,43.7,72.1,75C761.5,415.4,760.8,419.1,758.3,420.8z"/>
				<g id="Group_8914" transform="translate(99.642 1.062)">
					<path id="Path_6545" class="st1" d="M530.6,209c-2.4-2.4-4.9-4.8-7.4-7.2c6.2-17.1,17.1-53.4,8.5-79.6
						c-3.3-10.9-11-19.9-21.3-24.8c-10.5-5.5-23-5.8-33.8-0.9c-21.1,9.5-35.9,36.2-42.3,49.9c-3.4-1.4-6.8-2.7-10.3-3.9
						c5.9-12.1,25.9-48.7,55.4-60.3c13.4-5.3,28.3-4.7,41.2,1.7c12.1,5.3,21.4,15.6,25.5,28.2C557.9,146.8,536.3,196.8,530.6,209z"
						/>
					<path id="Path_6546" class="st3" d="M523.2,201.8c-26-23.7-56.1-42.5-88.9-55.4c6.4-13.7,21.2-40.4,42.3-49.9
						c10.8-4.9,23.3-4.6,33.8,0.9c10.3,4.9,18.1,13.9,21.3,24.8C540.3,148.4,529.4,184.7,523.2,201.8z"/>
				</g>
				<g id="Group_8915" transform="translate(27.867 1.062)">
					<path id="Path_6547" class="st1" d="M141.2,209c2.4-2.4,4.9-4.8,7.4-7.2c-6.2-17.1-17.1-53.4-8.5-79.6
						c3.3-10.9,11-19.9,21.3-24.8c10.5-5.5,23-5.9,33.8-0.9c21.1,9.5,35.9,36.2,42.3,49.9c3.4-1.4,6.8-2.7,10.3-3.9
						c-5.9-12.1-25.9-48.7-55.4-60.3c-13.4-5.3-28.3-4.7-41.2,1.7c-12.1,5.3-21.4,15.6-25.5,28.2C113.9,146.8,135.5,196.8,141.2,209
						z"/>
					<path id="Path_6548" class="st3" d="M148.6,201.8c26-23.7,56.1-42.5,88.9-55.4c-6.4-13.7-21.2-40.4-42.3-49.9
						c-10.8-4.9-23.3-4.6-33.8,0.9c-10.3,4.9-18.1,13.9-21.3,24.8C131.5,148.4,142.4,184.7,148.6,201.8z"/>
				</g>
				<g id="Group_8920" transform="translate(49.095 49.113)">
					<ellipse id="Ellipse_147" class="st3" cx="224.1" cy="300.7" rx="12.6" ry="20.2"/>
					<ellipse id="Ellipse_148" class="st3" cx="477" cy="300.7" rx="12.6" ry="20.2"/>
				</g>
			</g>
		</g>
	</g>
</g>
</svg>
