<?xml version="1.0" encoding="utf-8"?>
<!-- Generator: Adobe Illustrator 25.1.0, SVG Export Plug-In . SVG Version: 6.00 Build 0)  -->
<svg version="1.1" id="Layer_1" xmlns="http://www.w3.org/2000/svg" xmlns:xlink="http://www.w3.org/1999/xlink" x="0px" y="0px"
	 viewBox="0 0 800 800" style="enable-background:new 0 0 800 800;" xml:space="preserve">
<style type="text/css">
	.st0{fill:#FCFCFC;}
	.st1{fill:#0C0A0A;}
	.st2{fill:#FFFFFF;}
	.st3{fill:#F98F8F;}
</style>
<g>
	<g>
		<path d="M497.1,300.6c29.5-6.7,62.3,5.9,79.5,30.8c3.5,5.1,11.9,0.3,8.3-4.9c-19.7-28.6-56.5-43-90.4-35.3
			C488.5,292.7,491.1,302,497.1,300.6L497.1,300.6z"/>
	</g>
	<g>
		<path d="M305.4,278.8c-33.9-7.8-70.7,6.7-90.4,35.3c-3.5,5.1,4.8,10,8.3,4.9c17.2-24.9,50-37.6,79.5-30.8
			C308.9,289.5,311.5,280.2,305.4,278.8L305.4,278.8z"/>
	</g>
	<g>
		<path class="st0" d="M451.8,400.4c-0.1-15.5,2.7-31.1,9.5-44.9c6.8-13.9,17.9-25.9,31.9-32.4c14-6.5,31-7.1,44.8-0.3
			c13.8,6.9,23.9,21.5,23.9,36.9c0,14.8-9,28.7-21.1,37.2s-27.1,12.2-41.8,13.4C482.7,411.6,465.8,409,451.8,400.4"/>
		<g>
			<path d="M453.8,400.4c0-21.4,5.4-43.5,19.8-59.9c13.5-15.5,34.5-24.4,54.9-19.2c18.3,4.7,33,22,31.4,41.4
				c-1.7,20.8-19.7,35.6-38.4,41.5c-22.1,6.9-48.5,6.8-68.6-5.5c-2.1-1.3-4.1,2-1.9,3.3c19.5,11.9,44.1,12.7,65.9,7.5
				c20.6-5,40.6-18.4,45.9-40.1c4.8-19.5-6.3-40-24.1-48.6c-20.1-9.6-44-4.3-60.6,9.8c-20.2,17.2-28.1,44-28.1,69.7
				C449.9,402.9,453.8,402.9,453.8,400.4L453.8,400.4z"/>
		</g>
	</g>
	<g>
		<path class="st0" d="M346.5,396.3c0.9-15.4-1-31.2-7.1-45.4c-6.1-14.2-16.5-26.8-30.1-34.1s-30.5-8.8-44.7-2.7
			c-14.2,6.1-25,20.2-25.8,35.6c-0.8,14.8,7.4,29.1,19.1,38.3c11.7,9.2,26.4,13.7,41.1,15.6C315.1,405.8,332.2,404.2,346.5,396.3"/>
		<g>
			<path d="M348.5,396.3c1.2-23-3.7-46.7-18.6-64.9c-13.7-16.7-35.5-26.4-57.1-21.9c-19.5,4.1-35.7,21.4-36,41.7
				c-0.3,21.8,16.4,39.3,35.4,47.4c23.3,9.9,52.6,11.5,75.3-0.7c2.2-1.2,0.2-4.5-1.9-3.3c-18.9,10.1-41.9,9.7-62.1,3.9
				c-19.2-5.5-37.7-18.7-42-39.3c-4-19.1,8.7-38.1,26.7-44.4c19.9-6.9,41.6,0.7,55.7,15.5c16.7,17.6,22,42.3,20.8,65.9
				C344.5,398.8,348.3,398.8,348.5,396.3L348.5,396.3z"/>
		</g>
	</g>
	<g>
		<path class="st1" d="M322.1,456c0.5-6.7,6.1-12.2,12.4-14.5c6.3-2.4,13.2-2.3,19.9-2.2c29.4,0.5,58.8,0.9,88.1,1.4
			c8.3,0.1,17.3,0.5,23.5,6c4.4,3.9,6.6,9.8,6.8,15.7c0.2,5.9-1.5,11.6-3.8,17c-10.5,23.8-35.5,40-61.5,41.9s-52.2-9.5-70.1-28.3
			c-9.8-10.3-16.8-23.8-15.2-37.9"/>
		<g>
			<path d="M324,456c1.5-14.1,19.1-15,29.8-14.8c14.2,0.2,28.5,0.4,42.7,0.7c14.3,0.2,28.5,0.4,42.8,0.7
				c11.7,0.2,26.1,0.2,30.5,13.6c3.8,11.5-2.4,24.4-9,33.6c-6.4,8.9-15,16.1-24.6,21.2c-20.1,10.7-43.8,11-64.8,2.7
				c-23.1-9.1-49.9-31.2-47.2-58.6c0.2-2.5-3.6-2.5-3.9,0c-2.6,26.3,20.5,48,42.1,58.8c22.4,11.2,48.6,13,71.5,2.6
				c10.7-4.8,20.4-12.1,27.7-21.3c7.6-9.5,14.3-22.2,13-34.7c-0.6-5.6-2.9-11.3-7.2-15.1c-4.4-3.9-10.1-5.5-15.8-6.1
				c-7.2-0.8-14.6-0.6-21.8-0.7c-8.1-0.1-16.2-0.3-24.3-0.4c-18.1-0.3-36.3-0.8-54.5-0.8c-12.7,0-29.2,3.5-30.9,18.7
				C319.9,458.5,323.8,458.5,324,456L324,456z"/>
		</g>
	</g>
	<g>
		<path d="M339.6,442.5c3.5,9.5,12.1,15.2,21.6,18c11.3,3.3,23.8,3.8,35.5,3.5c18.6-0.5,43.5-3.1,54.4-20.5c1.3-2.1-2-4.1-3.3-1.9
			c-9.9,15.8-33.1,18-49.8,18.6c-10.6,0.4-21.5-0.1-31.9-2.4c-9.4-2-19.1-6.7-22.7-16.3C342.4,439.2,338.7,440.2,339.6,442.5
			L339.6,442.5z"/>
	</g>
	<g>
		<path d="M360.2,509.4c9.2-10.4,22.9-17,36.9-16.4c14.1,0.6,27.5,8.5,35.4,20.1c1.4,2.1,4.7,0.1,3.3-1.9c-8.5-12.6-22.5-21-37.8-22
			c-15.2-1-30.6,6.2-40.6,17.5C355.9,508.5,358.6,511.3,360.2,509.4L360.2,509.4z"/>
	</g>
	<g>
		<path d="M380.9,412.9c3.5-7.1,10.9-11.8,18.9-11.6c7.6,0.3,14.8,5.4,17.7,12.5c1.2,3,6.2,1.7,5-1.4c-3.7-9.1-12.2-15.6-22-16.2
			c-9.8-0.7-19.6,5.3-24,14.1C375,413.2,379.4,415.8,380.9,412.9L380.9,412.9z"/>
	</g>
	<g>
		<circle cx="500.1" cy="370" r="31.4"/>
		<circle class="st2" cx="479.1" cy="354" r="8.8"/>
	</g>
	<g>
		<circle cx="301.7" cy="366.8" r="31.4"/>
		<circle class="st2" cx="280.6" cy="350.8" r="8.8"/>
	</g>
	<g>
		<path class="st2" d="M343.6,441.7c3.7-0.4,7.4-0.5,10.5-0.4c14.2,0.2,28.5,0.4,42.7,0.7c14.3,0.2,28.5,0.5,42.8,0.7
			c2.4,0.1,5,0.1,7.5,0.2c-10.3,14.7-32.7,16.7-49,17.3c-10.6,0.4-21.5-0.1-31.9-2.3C357,455.7,347.3,451.1,343.6,441.7z"/>
		<path class="st3" d="M432.6,512.9c-19.3,8.8-41.2,8.5-61,0.8c-3.4-1.3-6.9-3-10.5-4.9c9.1-10,22.6-16.3,36.2-15.8
			C411.5,493.6,424.7,501.4,432.6,512.9z"/>
	</g>
</g>
</svg>
