<?xml version="1.0" encoding="utf-8"?>
<!-- Generator: Adobe Illustrator 25.1.0, SVG Export Plug-In . SVG Version: 6.00 Build 0)  -->
<svg version="1.1" id="Layer_1" xmlns="http://www.w3.org/2000/svg" xmlns:xlink="http://www.w3.org/1999/xlink" x="0px" y="0px"
	 viewBox="0 0 800 800" style="enable-background:new 0 0 800 800;" xml:space="preserve">
<style type="text/css">
	.st0{fill:#F9F7F7;}
	.st1{fill:#FFFFFF;}
</style>
<g>
	<g>
		<path d="M361.5,498.4c8.9-11.7,23.5-18.6,38.1-19c15.4-0.4,30.3,5.8,41.6,16.1c2.7,2.4,6.6-1.5,3.9-3.9
			c-12.6-11.4-29.4-18.5-46.5-17.6c-16.5,0.8-32,8.6-42,21.8C354.5,498.4,359.3,501.2,361.5,498.4L361.5,498.4z"/>
	</g>
	<g>
		<path d="M381.8,423.4c3.3-6.9,10.3-12,18-12.2c7.8-0.3,15.2,4.1,19,10.8c1.2,2.1,4.4,0.2,3.2-1.9c-4.4-7.8-13.2-12.9-22.2-12.6
			c-9,0.3-17.4,6-21.3,14.1C377.6,423.7,380.8,425.6,381.8,423.4L381.8,423.4z"/>
	</g>
	<g>
		<g>
			<path class="st0" d="M462.9,351c-5.1,13.8-9.7,32.6-10.2,47.3c0,1.4,0,2.9,0.9,3.9c0.8,0.9,2.2,1.1,3.4,1.3
				c13.9,1.7,28.1,1.7,42-0.1c11.8-1.4,23.7-4.2,34.1-10c10.4-5.9,19.2-15.1,22.7-26.6c2.5-8.5,3.4-16.6,0.7-25
				c-2.4-7.4-6.8-15.2-12.8-20.2c-5.9-5-16.2-6.7-24-6.1c-8,0.6-13.8,3.3-20.4,7.8c-14.8,10.1-26,15.1-37,29.2"/>
			<g>
				<path d="M461.1,350.5c-3.8,10.4-6.7,21.1-8.6,32.1c-0.9,5.2-1.6,10.5-1.7,15.7c-0.1,5.1,2.7,6.6,7.4,7.2
					c12.7,1.5,25.7,1.5,38.4,0.1c11.4-1.2,22.7-3.5,33.1-8.4c19-8.9,33.1-28.4,29.8-50.2c-1.5-10.1-7.3-21.1-15.4-27.3
					c-7.3-5.6-18.1-6.9-27-5.7c-11.6,1.5-20.9,9.2-30.5,15.3c-9.6,6.2-18.5,12.9-25.7,21.9c-1.5,1.9,1.1,4.5,2.6,2.6
					c5.6-7.1,12.2-12.8,19.6-17.9c3.6-2.4,7.3-4.7,11-7.1c3.9-2.5,7.7-5.4,11.9-7.6c8.2-4.3,17.8-5.1,26.7-2.8
					c9.8,2.5,16.1,10.1,20.1,19.1c8.6,19.5-0.6,41.3-17.9,52.4c-17.8,11.4-41.2,13.3-61.8,12.7c-3.2-0.1-6.4-0.3-9.6-0.5
					c-1.6-0.1-3.2-0.3-4.8-0.5c-2.2-0.2-4.2-0.5-4.3-3.1c-0.1-5.2,0.8-10.5,1.6-15.6c1.8-10.7,4.7-21.3,8.5-31.5
					C465.5,349.2,462,348.2,461.1,350.5L461.1,350.5z"/>
			</g>
		</g>
		<g>
			<path d="M449.6,370.3c25.2-36.5,66.4-59.7,110.7-62.4c4.8-0.3,4.8-7.7,0-7.4c-36.7,2.3-71.8,17.6-98.1,43.4
				c-7.1,6.9-13.4,14.6-19,22.7C440.4,370.5,446.9,374.2,449.6,370.3L449.6,370.3z"/>
		</g>
		<circle cx="495.1" cy="367.2" r="28.7"/>
		<circle class="st1" cx="476.8" cy="356.7" r="10.5"/>
	</g>
	<g>
		<g>
			<path class="st0" d="M339.8,349.6c6,13.4,11.7,31.9,13.1,46.5c0.1,1.4,0.2,2.9-0.7,3.9c-0.8,1-2.1,1.3-3.3,1.5
				c-13.8,2.5-27.9,3.4-41.9,2.6c-11.9-0.7-23.9-2.7-34.7-7.9c-10.7-5.2-20.1-13.9-24.3-25.1c-3.1-8.3-4.4-16.3-2.2-24.9
				c1.9-7.5,5.9-15.6,11.5-20.9c5.6-5.4,15.8-7.7,23.5-7.6c8,0.1,14,2.4,20.9,6.5c15.4,9.1,26.8,13.4,38.7,26.9"/>
			<g>
				<path d="M338.2,350.5c4,9.1,7.2,18.5,9.6,28.1c1.2,4.6,2.1,9.2,2.8,13.9c0.3,2.5,1.4,5.5-1.3,7c-1,0.5-2.8,0.5-3.9,0.7
					c-1.7,0.3-3.4,0.5-5.1,0.8c-11,1.5-22.2,1.9-33.4,1.2c-10.8-0.6-21.7-2.3-31.7-6.7c-17.7-7.8-31.9-26.3-28.2-46.5
					c1.7-9,6.5-19.8,14.6-24.7c7.5-4.6,17.8-5.9,26.3-4c5.3,1.2,10,3.8,14.7,6.5c4.3,2.5,8.7,4.9,13.1,7.3
					c8.7,5,16.7,10.6,23.4,18.2c1.6,1.8,4.2-0.9,2.6-2.6c-6.6-7.4-14.4-13.1-23-18.1c-4.6-2.6-9.2-5.1-13.8-7.8
					c-4.5-2.6-9-5.3-14.1-6.7c-9.2-2.6-19.7-1.6-28.3,2.4c-9.2,4.3-14.7,13.9-17.7,23.3c-6.7,20.9,4.9,42.8,23.2,53.2
					c9.8,5.6,21.1,8.2,32.2,9.4c12.8,1.4,25.8,1.1,38.5-0.5c3.3-0.4,6.7-0.9,10-1.5c2.3-0.4,4.6-1.1,5.6-3.4c1-2.2,0.3-5,0-7.3
					c-0.4-2.8-0.8-5.7-1.4-8.5c-2.5-12.3-6.5-24.2-11.5-35.7C340.4,346.5,337.2,348.4,338.2,350.5L338.2,350.5z"/>
			</g>
		</g>
		<g>
			<path d="M360,363.4c-22-27.9-53.7-47.7-88.5-54.9c-10.5-2.2-21.1-3.2-31.8-3.2c-4.8,0-4.8,7.4,0,7.4c44.8,0,87.3,20.8,115,55.9
				C357.7,372.4,363,367.1,360,363.4L360,363.4z"/>
		</g>
		<circle cx="308.7" cy="367.7" r="28.7"/>
		<circle class="st1" cx="326.3" cy="356.2" r="10.5"/>
	</g>
</g>
</svg>
