<?xml version="1.0" encoding="utf-8"?>
<!-- Generator: Adobe Illustrator 25.1.0, SVG Export Plug-In . SVG Version: 6.00 Build 0)  -->
<svg version="1.1" id="Layer_1" xmlns="http://www.w3.org/2000/svg" xmlns:xlink="http://www.w3.org/1999/xlink" x="0px" y="0px"
	 viewBox="0 0 800 800" style="enable-background:new 0 0 800 800;" xml:space="preserve">
<style type="text/css">
	.st0{fill:#FCFCFC;}
	.st1{fill:#FFFFFF;}
	.st2{fill:#F98F8F;}
</style>
<g>
	<g>
		<g>
			<path class="st0" d="M451.5,400.6c-3.2-14.9-2.1-30.7,3.4-44.9c5.4-14.2,15.1-26.8,27.4-35.7c12.9-9.3,30.9-11.5,45.8-6
				c9.1,3.4,15.4,7.4,20.9,15.3c6.1,8.8,10.2,19.1,10.7,29.8c0.4,10.7-3.1,21.7-10.7,29.3c-8.8,8.9-21.7,12.2-34.1,13.9
				C493.7,405.3,472.3,405.4,451.5,400.6"/>
			<g>
				<path d="M453.1,400.1c-4.6-21.4,0.2-43.9,13-61.6c5.7-7.9,13.2-15.4,21.9-20.1c8.7-4.7,18.8-6.5,28.6-5.5
					c9,1,18.8,4.6,25.6,10.8c7.5,6.8,12.6,17.1,14.9,26.9c2.3,10,1.3,20.9-3.9,29.9c-5.1,8.9-13.9,14.2-23.5,17.1
					c-11.9,3.6-24.8,4.6-37.2,4.9c-13.6,0.4-27.2-0.7-40.4-3.7c-2-0.5-2.9,2.6-0.9,3.1c12.5,2.9,25.4,4.1,38.2,3.9
					c12-0.2,24.4-1.1,36.2-3.8c10.1-2.3,20.2-6.7,26.9-14.9c6.7-8.2,9.7-19,8.9-29.5c-0.8-11.3-5.4-22.4-12.3-31.3
					c-6-7.7-14.7-12.6-24-15.2c-10-2.8-21-2.5-30.8,0.9c-10,3.4-18.4,10.1-25.4,17.8c-17.2,19.2-24.2,45.7-18.8,70.9
					C450.4,403,453.5,402.2,453.1,400.1L453.1,400.1z"/>
			</g>
		</g>
		<g>
			<path d="M379.3,409.1c2.1-7.8,9.8-13.5,17.9-12.9c7.8,0.6,14.7,7.4,15.6,15.1c0.2,2,3.5,2.1,3.2,0c-1.1-9.4-8.8-17.3-18.3-18.3
				c-9.6-1-19,6-21.5,15.2C375.6,410.3,378.7,411.1,379.3,409.1L379.3,409.1z"/>
		</g>
		<g>
			<path d="M484.8,302.3c11.4-7.7,25.8-11.1,39.4-8.5c12.7,2.4,24.5,9.6,32.4,20c1,1.4,2.8,2.1,4.4,1.2c1.4-0.8,2.2-3,1.2-4.4
				c-14.3-19-38.7-28.1-62-22.2c-6.6,1.7-13,4.5-18.6,8.3C478.1,299,481.3,304.6,484.8,302.3L484.8,302.3z"/>
		</g>
		<circle cx="490" cy="366.9" r="29.8"/>
		<circle class="st0" cx="510.4" cy="352.7" r="11"/>
		<g>
			<path class="st1" d="M350.4,401.9c4.5-14.5,2.7-29.3-1.5-43.9s-10.9-29-22.5-38.9c-12.1-10.3-29.9-14-45.2-9.7
				c-9.3,2.6-16,6.1-22.1,13.5c-6.8,8.3-11.8,18.2-13.1,28.9s3.4,24.2,10.3,32.4c8,9.6,18.6,11.7,30.8,14.4
				C307.9,403.1,329.2,405,350.4,401.9"/>
			<g>
				<path d="M351.9,402.4c3.6-12.2,3.2-24.9,0.4-37.2c-2.5-11-6.3-22-12.1-31.7c-5.4-9-12.7-16.9-22.1-21.7
					c-9.3-4.7-20-6.6-30.3-5.3c-9.4,1.2-19.1,4.8-26.2,11.3c-7.8,7.3-13.7,17.7-16.2,28c-2.5,10.2-0.9,20.4,3.5,29.8
					c4.3,9.2,11.2,16.2,20.7,19.9c4.7,1.9,9.6,3,14.5,4.1c6.2,1.4,12.4,2.6,18.6,3.5c12.8,1.9,25.8,2.6,38.7,1.5
					c3.1-0.3,6.2-0.6,9.3-1.1c2-0.3,1.2-3.4-0.9-3.1c-23.5,3.4-47.5,0.5-70.4-5.2c-9.1-2.3-17.5-5.9-23.3-13.7
					c-5.7-7.7-9.3-17.9-8.9-27.5c0.5-10.2,5.3-20.2,11.4-28.2c2.9-3.8,6.2-7.2,10.2-9.7c3.9-2.4,8.2-4,12.6-5.2
					c9.5-2.6,19.7-2.1,29,1.1c9.6,3.3,17.6,9.7,23.5,17.9c6.8,9.4,11,20.4,14,31.6c3.5,13.1,4.7,26.8,0.7,40
					C348.2,403.5,351.3,404.3,351.9,402.4L351.9,402.4z"/>
			</g>
		</g>
		<g>
			<path d="M317.4,290.7c-10.6-6.2-23.2-9-35.5-7.8c-11.5,1.1-22.3,5.7-31.3,12.9c-5,4-9.2,8.8-12.7,14.1c-2.3,3.5,3.3,6.7,5.6,3.2
				c7-10.8,17.8-18.8,30.2-22.2c13.6-3.8,28.3-1.7,40.5,5.3C317.8,298.3,321,292.7,317.4,290.7L317.4,290.7z"/>
		</g>
		<circle cx="288.8" cy="361.5" r="29.8"/>
		<circle class="st0" cx="313.4" cy="349.5" r="11"/>
	</g>
	<g>
		<path class="st2" d="M437.9,510.3c-5.8,1.2-11.9,0.5-17.7-0.1c-6.1-0.6-12.1-1.2-18.2-1.3c-13.5-0.4-27,0.8-40.2,3.3
			c-6.1,1.2-12.7,3.5-18.9,2.1c-0.5-0.1-0.8-0.2-1.2-0.4c7.3-13.6,20.3-23.9,35.2-27.9c14.9-4,30.8-1.2,43.7,7
			C427.5,497.4,433.5,503.3,437.9,510.3z"/>
		<g>
			<path d="M340.7,508.7c-8.7-19.4,2-40.6,17.5-52.8c15.2-12,35.7-16.9,54.3-10.5c9.1,3.1,17.1,8.8,23,16.4
				c5.8,7.6,9.7,16.9,11.7,26.3c1,4.9,1.3,10.3-1.4,14.7c-2.4,3.8-6.7,6.1-10.9,7.2c-5.1,1.3-10.6,0.9-15.8,0.4
				c-5.7-0.6-11.3-1.2-17-1.4c-12.2-0.4-24.5,0.5-36.6,2.8c-6,1.1-12.7,3.6-18.9,2.1c-4.6-1.1-6-5.3-7.4-9.4c-0.7-2-3.8-1.1-3.1,0.9
				c1.2,3.7,2.6,7.8,6,10.1c4.2,2.8,10,2.2,14.7,1.3c6.3-1.2,12.6-2.6,19-3.4c6.1-0.8,12.3-1.2,18.5-1.3c6.2-0.1,12.4,0.2,18.5,0.8
				c6.2,0.6,12.5,1.7,18.8,0.9c9.5-1.1,18.3-6.8,19.4-16.9c0.6-5.2-0.7-10.6-2.2-15.5c-1.5-5-3.6-9.9-6.1-14.5
				c-5.1-9.1-12.4-16.6-21.7-21.4c-18.9-9.7-41.6-7.3-59.2,4c-9.7,6.2-18.2,15.1-23,25.7c-5,11.1-5.7,23.9-0.7,35.2
				C338.8,512.2,341.6,510.6,340.7,508.7L340.7,508.7z"/>
		</g>
		<g>
			<path d="M345.1,514.1c6.4-12.5,18-21.9,31.5-25.9c13.8-4.1,28.7-1.6,40.8,5.9c6.8,4.3,12.6,10.1,16.8,17c1.1,1.8,3.8,0.2,2.8-1.6
				c-7.8-13.1-21.3-22.5-36.3-25.5c-14.7-2.9-30,0.7-42,9.5c-6.8,5-12.5,11.4-16.3,18.9C341.4,514.3,344.2,515.9,345.1,514.1
				L345.1,514.1z"/>
		</g>
		<g>
			<path d="M357.5,456.6c22.5,11.8,50.2,12.1,73,0.9c1.9-0.9,0.2-3.7-1.6-2.8c-21.7,10.7-48.3,10.3-69.7-0.9
				C357.3,452.9,355.7,455.7,357.5,456.6L357.5,456.6z"/>
		</g>
		<path d="M449.2,491.9c0.8,4.8,0.5,10-2.4,14c-2.1,2.9-5.1,4.8-8.4,5.9c-7.8-13.1-20.9-22.7-35.5-26.2c-15.3-3.7-31.2-0.3-43.9,8.9
			c-7,5-12.8,11.6-16.8,19.3c-1.1-1.2-1.9-2.7-2.6-4.4c-0.4-1-0.7-2-1.1-3l0-0.1c-5.8-19.1,4.6-38.9,19.3-50.7
			c15.9-12.8,37.7-17.7,57-10.1C433.6,452.8,446.1,471.8,449.2,491.9z"/>
		<path class="st1" d="M428.8,454.8c-21.3,10.4-47.3,10.3-68.5-0.4c15.4-11.3,35.6-15.3,53.7-8.5C419.6,448,424.5,451,428.8,454.8z"
			/>
	</g>
</g>
</svg>
