<?xml version="1.0" encoding="utf-8"?>
<!-- Generator: Adobe Illustrator 25.1.0, SVG Export Plug-In . SVG Version: 6.00 Build 0)  -->
<svg version="1.1" id="Layer_1" xmlns="http://www.w3.org/2000/svg" xmlns:xlink="http://www.w3.org/1999/xlink" x="0px" y="0px"
	 viewBox="0 0 800 800" style="enable-background:new 0 0 800 800;" xml:space="preserve">
<style type="text/css">
	.st0{fill:#FCFCFC;}
	.st1{fill:#F98F8F;}
	.st2{fill:#8DB0F7;}
</style>
<g>
	<path d="M460,525.8c-4.2,1.9-8.5,2.7-12.8,2.6c-10-0.1-20.2-4.3-29.6-6.8c-23.1-6.1-45.9,2.7-68.9,4.3c-2,0.1-3.9,0.2-5.9,0.2
		l-20-4c-3.1-2.5-4.9-6.3-6.7-9.9c-1.8-3.7-2.8-7.7-3.1-11.8l4.6-22.8c3.9-8.3,9.9-15.6,17.2-21c1.6-1.2,3.2-2.2,4.9-3.2
		c11.1-6.6,24.2-9.4,36.9-11c8.2-1,16.4-1.4,24.7-1.7c8.4-0.2,16.9-0.4,25.2-0.1c0.6,0,1.2,0,1.8,0.1l26.5,5.4
		c4.5,1.9,8.8,4.5,12.6,7.9c4.8,4.3,8.7,9.9,10.4,16.2c2,6.9,1.6,14.3,0.4,21.3C476.2,504.1,472.9,519.9,460,525.8z"/>
	<path class="st0" d="M450.7,444.4l-1.5,5.8c-5.1,3.7-10.7,7.3-16.5,9.9c-27.6,12.2-58.7,7.8-84-8.5c-0.2-0.1,2.3-1.2,2.2-1.4
		c-3,1.3,1.7-1.7-1.1,0.1l-10.1,3.1c11.1-6.6,24.2-9.4,36.9-11c8.2-1,16.4-1.4,24.7-1.7c8.4-0.2,16.9-0.4,25.2-0.1
		c0.6,0,1.2,0,1.8,0.1c1.1,0,2.2,0.1,3.2,0.2c1,0,2.1,0.1,3.1,0.3c1.4,0.1,2.7,0.3,4.1,0.5c2,0.3,4,0.7,6,1.1
		C446.8,443.2,448.8,443.7,450.7,444.4z"/>
	<path class="st1" d="M447.6,526.5l-0.4,1.9c-10-0.1-20.2-4.3-29.6-6.8c-23.1-6.1-45.9,2.7-68.9,4.3l-11.6-2.3l5.3,0.2
		c1.6,0.1,1.8,0.4,3.5,0.4c0.7,0-0.4-0.4,0.3-0.4c2.3-8.1,6.8-14.7,13.7-19.5c13.6-9.6,30.3-10.2,46.2-6.9
		c15.2,3.2,29.3,12.1,32.7,28.2C441.1,525.9,445.3,526.5,447.6,526.5z"/>
	<g>
		<g>
			<path class="st2" d="M253.5,388.3c-15.8-6.5-37.9-4.4-50.6,7c-3.7,3.3-7,8.3-5.1,12.9c1.2,2.8,4.1,4.6,7.2,5
				c3,0.4,6.1-0.5,8.9-1.8c7.2-3.3,12.9-9,19-13.9c6.2-4.9,13.5-9.2,21.4-8.7"/>
			<g>
				<path d="M253.8,387.5c-15.2-6.1-34.7-5-48.2,4.7c-5.4,3.9-13.1,12.5-6.7,18.9c7,7,18,0.2,24.2-4.5c9.4-7.2,18.4-17.6,31.3-17
					c1.1,0,1.1-1.6,0-1.7c-8.2-0.4-15.4,3.7-21.6,8.6c-7,5.5-13.9,13.2-22.9,15.4c-5.3,1.2-12.6-1-11.5-7.7
					c0.7-4.6,4.8-8.2,8.4-10.8c6.3-4.4,14-6.8,21.6-7.6c8.5-0.9,17.1,0.1,25,3.3C254.3,389.5,254.7,387.9,253.8,387.5L253.8,387.5z"
					/>
			</g>
		</g>
		<g>
			<g>
				<path d="M484.4,290.8c20.7-8.9,44.9-0.6,56.3,18.6c2.7,4.6,9.9,0.4,7.2-4.2c-6.3-10.6-15.9-18.7-27.4-23.1
					c-13.1-5-27.6-4-40.3,1.5C475.2,285.8,479.5,293,484.4,290.8L484.4,290.8z"/>
			</g>
			<g>
				<path d="M267,294.4c14.7-17.7,39.9-21.8,59.4-9.3c4.5,2.9,8.7-4.3,4.2-7.2c-22.4-14.3-52.5-9.8-69.5,10.6
					C257.7,292.6,263.6,298.5,267,294.4L267,294.4z"/>
			</g>
			<g>
				<path d="M389.3,421.4c2.8-6.7,10.1-11.2,17.4-10.8c7.1,0.5,13.5,5.8,15.6,12.5c0.6,2,3.8,1.2,3.2-0.9
					c-2.5-8.2-10.2-14.4-18.8-15c-8.9-0.6-17.2,5.2-20.6,13.2C385.3,422.5,388.5,423.4,389.3,421.4L389.3,421.4z"/>
			</g>
			<g>
				<path d="M455.1,385.1c7.2-12.6,21.5-20.5,36-19.3c14.1,1.1,27,11.1,32,24.3c1.5,4,8,2.2,6.4-1.8c-6-15.8-20.5-27.3-37.3-29.1
					c-17.1-1.8-34.4,7.7-42.8,22.5C447.2,385.5,453,388.8,455.1,385.1L455.1,385.1z"/>
			</g>
			<g>
				<path class="st2" d="M525.4,402c-5.3,11.1-9.4,23.3-10.6,35.6c-0.3,2.8-0.3,5.9,1.6,8c2.6,2.8,7.3,1.9,10.2-0.5
					c5-4.2,6.2-11.4,6-17.9c-0.3-9.1-2.6-18.1-6.7-26.1"/>
				<g>
					<path d="M524.7,401.6c-3.5,7.5-6.5,15.2-8.5,23.2c-1,3.9-1.7,8-2.2,12c-0.3,2.9-0.6,6.2,1.2,8.7c3.5,5,10.6,2.1,13.7-1.7
						c4-4.8,4.7-11.5,4.4-17.5c-0.4-9-2.8-17.7-6.8-25.7c-0.5-1-1.9-0.1-1.4,0.8c3.9,7.7,6.2,16.2,6.6,24.9
						c0.3,6.8-0.7,16.6-8.1,19.5c-1.7,0.7-3.8,1-5.5,0.1c-2.1-1.1-2.6-3.5-2.7-5.7c-0.1-4.2,0.9-8.5,1.8-12.6
						c1.9-8.7,5.1-17.1,8.9-25.2C526.6,401.5,525.1,400.7,524.7,401.6L524.7,401.6z"/>
				</g>
			</g>
			<g>
				<path class="st2" d="M560.3,417.6c17.4-5.5,40.2-0.4,51.5,13.9c3.7,4.7,6.5,11.5,3.3,16.5c-3.4,5.4-11.7,5.3-17,1.9
					s-8.8-9-12.8-14c-6.7-8.2-15.4-14.6-25.2-18.5"/>
				<g>
					<path d="M560.5,418.4c16.1-5,36.2-1.4,48.2,10.9c3.3,3.4,6.5,7.8,6.9,12.7c0.4,5.4-3.5,9.2-8.7,9.4
						c-10.2,0.5-15.7-9.6-21.4-16.4c-6.8-8.1-15.5-14.4-25.3-18.4c-1-0.4-1.4,1.2-0.4,1.6c11.5,4.7,20.5,12.5,27.9,22.2
						c5.3,6.9,12.5,14.8,22.2,12.1c9.9-2.7,8.1-14,3.4-20.6c-5.2-7.3-13.3-12.2-21.7-14.9c-10.1-3.2-21.3-3.5-31.4-0.4
						C559,417.1,559.5,418.7,560.5,418.4L560.5,418.4z"/>
				</g>
			</g>
			<g>
				<path d="M266.8,380.7c8.7-12.4,23.5-20.1,38.6-20c15.2,0.2,29.7,8.4,38.1,20.9c2.4,3.6,8.1,0.2,5.8-3.4
					c-9.7-14.6-26.2-24-43.9-24.3c-17.6-0.2-34.3,9-44.4,23.3C258.6,380.9,264.4,384.2,266.8,380.7L266.8,380.7z"/>
			</g>
		</g>
	</g>
	<g>
		<path d="M478.4,491.4c1.2-7,1.6-14.4-0.4-21.3c-1.8-6.3-5.6-11.8-10.4-16.2c-3.8-3.4-8.1-6-12.6-7.9c-1.3-0.6-2.8-1.1-4.2-1.6
			c-1.9-0.7-3.9-1.2-5.9-1.6c-2-0.5-4-0.9-6-1.1c-1.4-0.2-2.7-0.4-4.1-0.5c-1-0.1-2.1-0.2-3.1-0.3c-1.1-0.1-2.1-0.2-3.2-0.2
			c-0.6-0.1-1.2-0.1-1.8-0.1c-8.4-0.3-16.8-0.1-25.2,0.1c-8.2,0.2-16.5,0.6-24.7,1.7c-12.7,1.6-25.8,4.4-36.9,11
			c-1.7,1-3.3,2.1-4.9,3.2c-7.3,5.4-13.3,12.7-17.2,21c-2.1,4.4-3.6,9.2-4.3,14.1c-0.4,2.9-0.6,5.8-0.3,8.7c0.3,4.1,1.3,8,3.1,11.8
			c1.8,3.6,3.5,7.4,6.7,9.9c0.6,0.5,1.2,0.9,1.9,1.3c2.4,1.3,5.3,1.9,8,2.2c0.1,0,0.2,0,0.3,0c0,0,0.1,0,0.1,0
			c3.2,0.4,6.5,0.6,9.7,0.5c2,0,3.9-0.1,5.9-0.2c23-1.5,45.9-10.4,68.9-4.3c9.5,2.5,19.6,6.7,29.6,6.8c4.3,0.1,8.6-0.6,12.8-2.6
			C472.9,519.9,476.2,504.1,478.4,491.4z M471.8,505.1c-1.9,6.1-4.8,12.4-10.3,16.1c-4.2,2.8-8.8,3.9-13.6,3.9c-2.3,0-4.7-0.2-7-0.6
			c-1.2-0.2-2.4-0.4-3.6-0.7c-5.3-1.2-10.5-3-15.2-4.4c-6.8-2-13.6-3.3-20.7-3.3c-6.6-0.1-13.1,0.6-19.6,1.6
			c-11.3,1.7-22.6,4.3-34,4.9c-1.2,0.1-2.3,0.1-3.5,0.2c-0.7,0-1.4,0-2.1,0c-1.7,0-3.3-0.1-4.9-0.1c-1.3-0.1-2.5-0.2-3.8-0.4
			c-0.3,0-0.5-0.1-0.7-0.1c-0.2,0-0.4,0-0.5-0.1c-4.5-0.7-8-2.4-10.5-6.5c-3.2-5.3-5.3-11-5.4-17.2c-0.3-13.5,6.7-26.8,16.5-35.8
			c1.9-1.7,3.9-3.3,6-4.7c2.7-1.8,5.6-3.4,8.6-4.7c1.2-0.5,2.4-1,3.7-1.5c6.4-2.5,13.2-4,19.9-5.1c15.2-2.4,30.7-2.6,46-2.7
			c10.8-0.1,22,0.3,32.2,3.6c0.3,0.1,0.5,0.2,0.8,0.3c1,0.3,1.9,0.7,2.9,1.1c2.3,0.9,4.5,2.1,6.7,3.4c5.3,3.2,9.8,7.7,12.8,13.1
			c3.3,6.1,4,13.3,3.3,20.1C475.2,492.1,473.7,498.8,471.8,505.1z"/>
	</g>
	<g>
		<path d="M437.8,525.8c-0.1-0.7-0.3-1.4-0.5-2c-1.9-6.7-6.2-12.5-11.7-16.8c-12.4-9.5-30.5-11.2-45.5-8.8
			c-13.9,2.2-27.9,10.4-32.3,24.4c-0.1,0.5-0.3,0.9-0.4,1.4c-0.3,1-1.2,1.4-2,1.2c-0.8-0.2-1.5-0.8-1.2-1.9c0-0.2,0.1-0.4,0.1-0.5
			c2.3-8.1,7.7-15,14.6-19.9c13.6-9.6,32.6-10.6,48.5-7.3c15.2,3.2,30.2,12.9,33.6,28.9c0.1,0.1,0,0.1,0.1,0.2
			C441.4,526.8,438.2,527.9,437.8,525.8z"/>
	</g>
	<g>
		<path d="M453.1,448.6c-0.1,0.1-0.1,0.1-0.2,0.2c-1.2,1-2.4,1.9-3.7,2.8c-5.1,3.7-10.5,6.9-16.3,9.4c-27.6,12.2-59.9,8.7-85.1-7.6
			c-0.2-0.1-0.3-0.2-0.4-0.3c-1.1-1.3,0.2-3.7,1.9-2.6c0.6,0.4,1.2,0.7,1.8,1.1c6.6,4.1,13.7,7.3,21.1,9.6
			c13.9,4.3,28.6,5.2,42.9,2.1c12.5-2.6,24.2-8.1,34.2-15.9c0.4-0.2,0.7-0.5,1-0.8c0.4-0.3,0.7-0.5,1-0.8
			C453,444.5,454.8,447.3,453.1,448.6z"/>
	</g>
</g>
</svg>
