<?xml version="1.0" encoding="utf-8"?>
<!-- Generator: Adobe Illustrator 25.1.0, SVG Export Plug-In . SVG Version: 6.00 Build 0)  -->
<svg version="1.1" id="Layer_1" xmlns="http://www.w3.org/2000/svg" xmlns:xlink="http://www.w3.org/1999/xlink" x="0px" y="0px"
	 viewBox="0 0 800 800" style="enable-background:new 0 0 800 800;" xml:space="preserve">
<style type="text/css">
	.st0{fill:#F9F7F7;}
	.st1{fill:#FFFFFF;}
</style>
<g>
	<g>
		<path d="M417.6,464.2c9.3-12.1,24.3-19.3,39.5-19.7c15.9-0.5,31.4,6.1,43.1,16.6c2.8,2.5,6.9-1.6,4.1-4.1
			c-13.1-11.8-30.4-19.1-48.2-18.3c-17,0.8-33.1,9-43.5,22.5C410.3,464.3,415.3,467.2,417.6,464.2L417.6,464.2z"/>
	</g>
	<g>
		<path d="M438.6,386.6c3.4-7.2,10.6-12.4,18.7-12.7c8-0.3,15.7,4.2,19.6,11.2c1.2,2.2,4.6,0.2,3.3-1.9c-4.6-8.1-13.6-13.4-23-13.1
			c-9.3,0.3-18.1,6.2-22,14.6C434.3,386.9,437.6,388.9,438.6,386.6L438.6,386.6z"/>
	</g>
	<g>
		<g>
			<path class="st0" d="M522.6,311.5c-5.3,14.3-10.1,33.7-10.5,49c0,1.4,0,3,0.9,4c0.9,1,2.3,1.2,3.6,1.3
				c14.4,1.7,29.1,1.7,43.5-0.1c12.3-1.5,24.6-4.3,35.3-10.4s19.9-15.7,23.5-27.5c2.6-8.8,3.5-17.2,0.7-25.9
				c-2.5-7.6-7.1-15.7-13.2-20.9c-6.1-5.2-16.8-6.9-24.8-6.3c-8.3,0.6-14.3,3.4-21.2,8.1c-15.3,10.4-26.9,15.6-38.3,30.3"/>
			<g>
				<path d="M520.8,311c-4,10.8-7,21.9-8.9,33.2c-0.9,5.4-1.7,10.8-1.7,16.3c-0.1,5.3,2.8,6.9,7.7,7.4c13.2,1.5,26.6,1.5,39.8,0.1
					c11.8-1.3,23.5-3.6,34.3-8.7c19.7-9.2,34.3-29.5,30.9-52c-1.6-10.4-7.5-21.9-16-28.3c-7.6-5.8-18.7-7.2-27.9-5.9
					c-12.1,1.6-21.6,9.5-31.6,15.9c-10,6.4-19.2,13.3-26.6,22.7c-1.5,1.9,1.2,4.7,2.7,2.7c5.8-7.3,12.6-13.3,20.3-18.5
					c3.7-2.5,7.6-4.9,11.4-7.3c4.1-2.6,8-5.6,12.3-7.8c8.5-4.4,18.4-5.2,27.6-2.9c10.2,2.6,16.7,10.5,20.8,19.8
					c8.9,20.2-0.6,42.8-18.5,54.3c-18.4,11.8-42.7,13.7-64,13.2c-3.3-0.1-6.6-0.3-10-0.5c-1.7-0.1-3.3-0.3-5-0.5
					c-2.2-0.3-4.4-0.6-4.4-3.2c-0.1-5.4,0.8-10.9,1.7-16.2c1.9-11.1,4.9-22.1,8.8-32.7C525.4,309.7,521.6,308.7,520.8,311L520.8,311
					z"/>
			</g>
		</g>
		<g>
			<path d="M508.8,331.6c26.1-37.8,68.8-61.8,114.7-64.6c4.9-0.3,5-8,0-7.7c-38,2.3-74.4,18.2-101.6,44.9
				c-7.3,7.2-13.9,15.1-19.7,23.5C499.3,331.8,506,335.6,508.8,331.6L508.8,331.6z"/>
		</g>
		<circle cx="555.9" cy="328.3" r="29.8"/>
		<circle class="st1" cx="537" cy="317.5" r="10.8"/>
	</g>
	<g>
		<g>
			<path class="st0" d="M395.1,310.1c6.2,13.9,12.1,33,13.6,48.2c0.1,1.4,0.2,3-0.7,4.1c-0.8,1-2.2,1.3-3.5,1.5
				c-14.3,2.6-28.9,3.5-43.4,2.6c-12.3-0.7-24.8-2.8-35.9-8.2c-11.1-5.4-20.8-14.4-25.1-26c-3.2-8.6-4.6-16.9-2.3-25.8
				c2-7.8,6.1-16.1,11.9-21.7s16.4-8,24.4-7.9c8.3,0.1,14.5,2.5,21.6,6.7c16,9.5,27.8,13.9,40.1,27.8"/>
			<g>
				<path d="M393.4,311.1c4.1,9.4,7.5,19.2,10,29.1c1.2,4.8,2.2,9.6,2.9,14.4c0.4,2.6,1.4,5.7-1.4,7.3c-1,0.6-2.9,0.5-4,0.7
					c-1.8,0.3-3.5,0.6-5.3,0.8c-11.4,1.5-23,1.9-34.6,1.2c-11.2-0.7-22.5-2.4-32.8-7c-18.4-8.1-33-27.2-29.2-48.2
					c1.7-9.3,6.7-20.5,15.1-25.6c7.8-4.8,18.4-6.1,27.2-4.1c5.5,1.2,10.3,3.9,15.2,6.8c4.5,2.6,9,5.1,13.5,7.6
					c9.1,5.1,17.3,11,24.3,18.8c1.7,1.9,4.4-0.9,2.7-2.7c-6.9-7.7-14.9-13.6-23.8-18.7c-4.7-2.7-9.6-5.3-14.3-8
					c-4.7-2.7-9.4-5.4-14.6-6.9c-9.5-2.7-20.4-1.6-29.3,2.5c-9.5,4.4-15.3,14.4-18.4,24.1c-7,21.6,5,44.3,24,55.1
					c10.2,5.8,21.8,8.5,33.4,9.7c13.2,1.4,26.7,1.2,39.9-0.5c3.5-0.4,6.9-0.9,10.4-1.6c2.3-0.4,4.7-1.1,5.8-3.5c1-2.3,0.4-5.2,0-7.6
					c-0.4-2.9-0.9-5.9-1.5-8.8c-2.6-12.7-6.7-25.1-12-37C395.8,306.9,392.4,308.9,393.4,311.1L393.4,311.1z"/>
			</g>
		</g>
		<g>
			<path d="M416.1,324.4c-22.8-28.9-55.6-49.4-91.7-56.9c-10.8-2.2-21.9-3.4-32.9-3.4c-5,0-5,7.7,0,7.7c46.4,0,90.5,21.5,119.2,58
				C413.7,333.7,419.1,328.3,416.1,324.4L416.1,324.4z"/>
		</g>
		<circle cx="362.9" cy="328.9" r="29.8"/>
		<circle class="st1" cx="381.1" cy="317" r="10.8"/>
	</g>
</g>
</svg>
