<?xml version="1.0" encoding="utf-8"?>
<!-- Generator: Adobe Illustrator 25.1.0, SVG Export Plug-In . SVG Version: 6.00 Build 0)  -->
<svg version="1.1" id="Layer_1" xmlns="http://www.w3.org/2000/svg" xmlns:xlink="http://www.w3.org/1999/xlink" x="0px" y="0px"
	 viewBox="0 0 800 800" style="enable-background:new 0 0 800 800;" xml:space="preserve">
<style type="text/css">
	.st0{fill:#FCFCFC;}
	.st1{fill:#F98F8F;}
	.st2{fill:#8DB0F7;}
</style>
<g>
	<path d="M512.6,475.4c-4.1,1.9-8.3,2.6-12.5,2.5c-9.7-0.1-19.6-4.2-28.8-6.7c-22.4-5.9-44.7,2.7-67.1,4.2c-1.9,0.1-3.8,0.2-5.7,0.2
		l-19.4-3.9c-3-2.4-4.8-6.1-6.5-9.6c-1.8-3.6-2.8-7.5-3-11.5l4.5-22.2c3.8-8,9.6-15.1,16.7-20.4c1.6-1.1,3.1-2.2,4.8-3.1
		c10.8-6.4,23.6-9.2,35.9-10.7c8-1,16-1.4,24-1.6c8.2-0.2,16.4-0.4,24.6-0.1c0.6,0,1.2,0,1.8,0.1l25.8,5.2c4.4,1.9,8.6,4.3,12.3,7.7
		c4.7,4.2,8.4,9.6,10.2,15.8c1.9,6.7,1.5,13.9,0.4,20.7C528.4,454.2,525.1,469.6,512.6,475.4z"/>
	<path class="st0" d="M503.5,396.2l-1.5,5.6c-4.9,3.6-10.4,7.1-16.1,9.6c-26.9,11.9-57.1,7.5-81.7-8.3c-0.1-0.1,2.2-1.2,2.1-1.3
		c-2.9,1.3,1.6-1.7-1.1,0.1l-9.8,3c10.8-6.4,23.6-9.2,35.9-10.7c8-1,16-1.4,24-1.6c8.2-0.2,16.4-0.4,24.6-0.1c0.6,0,1.2,0,1.8,0.1
		c1,0,2.1,0.1,3.1,0.2c1,0,2,0.1,3,0.2c1.3,0.1,2.7,0.3,4,0.5c2,0.3,3.9,0.7,5.9,1.1C499.7,395,501.7,395.5,503.5,396.2z"/>
	<path class="st1" d="M500.5,476.1l-0.4,1.8c-9.7-0.1-19.6-4.2-28.8-6.7c-22.4-5.9-44.7,2.7-67.1,4.2l-11.3-2.3l5.2,0.2
		c1.6,0.1,1.8,0.4,3.4,0.4c0.7,0-0.4-0.4,0.3-0.4c2.2-7.9,6.6-14.3,13.3-19c13.3-9.3,29.5-9.9,44.9-6.7
		c14.8,3.1,28.5,11.8,31.8,27.4C494.2,475.4,498.3,476.1,500.5,476.1z"/>
	<g>
		<g>
			<path class="st2" d="M311.7,341.6c-15.4-6.3-36.9-4.3-49.2,6.8c-3.6,3.2-6.8,8.1-5,12.5c1.1,2.7,4,4.5,7,4.8s5.9-0.5,8.6-1.7
				c7-3.2,12.5-8.8,18.5-13.5s13.2-9,20.8-8.4"/>
			<g>
				<path d="M311.9,340.8c-14.8-5.9-33.8-4.8-46.9,4.6c-5.3,3.8-12.8,12.1-6.5,18.4c6.8,6.8,17.5,0.2,23.5-4.4
					c9.1-7,17.9-17.1,30.4-16.6c1,0,1-1.6,0-1.6c-7.9-0.3-15,3.6-21,8.4c-6.8,5.4-13.5,12.9-22.3,14.9c-5.1,1.2-12.3-1-11.2-7.5
					c0.7-4.5,4.6-8,8.2-10.5c6.2-4.3,13.6-6.6,21-7.4c8.2-0.9,16.6,0.1,24.3,3.2C312.4,342.7,312.9,341.2,311.9,340.8L311.9,340.8z"
					/>
			</g>
		</g>
		<g>
			<g>
				<path d="M536.3,246.7c20.1-8.7,43.7-0.6,54.8,18.1c2.7,4.5,9.7,0.4,7-4.1c-6.1-10.3-15.5-18.2-26.7-22.5
					c-12.7-4.8-26.8-3.9-39.2,1.5C527.4,241.8,531.5,248.8,536.3,246.7L536.3,246.7z"/>
			</g>
			<g>
				<path d="M324.8,250.2c14.3-17.2,38.8-21.2,57.8-9.1c4.4,2.8,8.5-4.2,4.1-7c-21.8-13.9-51-9.5-67.6,10.3
					C315.8,248.4,321.5,254.2,324.8,250.2L324.8,250.2z"/>
			</g>
			<g>
				<path d="M443.8,373.8c2.7-6.6,9.8-10.9,16.9-10.5c6.9,0.4,13.2,5.6,15.2,12.2c0.6,2,3.7,1.1,3.1-0.9c-2.5-8-9.9-14.1-18.3-14.6
					c-8.6-0.6-16.8,5-20,12.9C439.9,374.8,443,375.7,443.8,373.8L443.8,373.8z"/>
			</g>
			<g>
				<path d="M507.8,338.5c7-12.2,20.9-19.9,35-18.8c13.7,1.1,26.2,10.8,31.1,23.6c1.5,3.9,7.7,2.2,6.3-1.7
					c-5.8-15.3-19.9-26.6-36.3-28.3c-16.7-1.7-33.4,7.5-41.7,21.9C500.1,338.8,505.7,342.1,507.8,338.5L507.8,338.5z"/>
			</g>
			<g>
				<path class="st2" d="M576.2,354.9c-5.1,10.8-9.1,22.7-10.3,34.6c-0.3,2.7-0.3,5.8,1.5,7.8c2.5,2.7,7.1,1.8,9.9-0.5
					c4.9-4.1,6-11.1,5.8-17.5c-0.3-8.8-2.5-17.6-6.6-25.4"/>
				<g>
					<path d="M575.5,354.5c-3.4,7.3-6.3,14.8-8.3,22.6c-1,3.8-1.7,7.7-2.1,11.7c-0.3,2.8-0.6,6.1,1.2,8.5c3.4,4.8,10.3,2,13.4-1.6
						c3.9-4.7,4.5-11.2,4.3-17c-0.4-8.7-2.7-17.2-6.6-25c-0.5-0.9-1.9-0.1-1.4,0.8c3.8,7.5,6,15.8,6.4,24.2c0.3,6.6-0.7,16.1-7.8,19
						c-1.7,0.7-3.7,0.9-5.4,0.1c-2.1-1.1-2.6-3.4-2.6-5.5c-0.1-4.1,0.8-8.3,1.7-12.2c1.9-8.5,4.9-16.7,8.6-24.5
						C577.3,354.4,575.9,353.6,575.5,354.5L575.5,354.5z"/>
				</g>
			</g>
			<g>
				<path class="st2" d="M610.1,370c16.9-5.4,39.1-0.4,50.1,13.5c3.6,4.6,6.3,11.2,3.2,16.1c-3.3,5.2-11.3,5.2-16.6,1.9
					c-5.2-3.3-8.5-8.8-12.5-13.6c-6.5-7.9-15-14.2-24.5-18"/>
				<g>
					<path d="M610.3,370.8c15.7-4.8,35.2-1.3,46.9,10.6c3.2,3.3,6.3,7.6,6.7,12.4c0.4,5.3-3.4,8.9-8.4,9.2c-10,0.5-15.3-9.3-20.8-16
						c-6.6-7.9-15.1-14-24.6-17.9c-1-0.4-1.4,1.2-0.4,1.6c11.2,4.6,19.9,12.1,27.2,21.6c5.1,6.7,12.1,14.4,21.6,11.8
						c9.6-2.7,7.9-13.7,3.3-20c-5.1-7.1-12.9-11.9-21.2-14.5c-9.8-3.1-20.7-3.4-30.6-0.4C608.9,369.6,609.3,371.1,610.3,370.8
						L610.3,370.8z"/>
				</g>
			</g>
			<g>
				<path d="M324.6,334.2c8.5-12,22.8-19.6,37.6-19.4c14.8,0.2,28.9,8.1,37.1,20.4c2.3,3.5,7.9,0.2,5.6-3.3
					c-9.5-14.2-25.5-23.4-42.7-23.6c-17.2-0.2-33.4,8.7-43.2,22.6C316.6,334.3,322.2,337.6,324.6,334.2L324.6,334.2z"/>
			</g>
		</g>
	</g>
	<g>
		<path d="M530.4,441.9c1.2-6.8,1.5-14-0.4-20.7c-1.7-6.1-5.4-11.5-10.2-15.8c-3.7-3.3-7.9-5.8-12.3-7.7c-1.3-0.6-2.7-1.1-4.1-1.5
			c-1.9-0.6-3.8-1.2-5.7-1.6c-1.9-0.5-3.9-0.9-5.9-1.1c-1.3-0.2-2.6-0.4-4-0.5c-1-0.1-2-0.2-3-0.2c-1-0.1-2.1-0.2-3.1-0.2
			c-0.6-0.1-1.2-0.1-1.8-0.1c-8.1-0.3-16.4-0.1-24.6,0.1c-8,0.2-16,0.6-24,1.6c-12.4,1.5-25.1,4.3-35.9,10.7c-1.6,1-3.2,2-4.8,3.1
			c-7.1,5.3-12.9,12.3-16.7,20.4c-2,4.3-3.5,9-4.2,13.7c-0.4,2.8-0.5,5.6-0.3,8.5c0.3,4,1.2,7.8,3,11.5c1.7,3.5,3.4,7.2,6.5,9.6
			c0.6,0.5,1.2,0.9,1.9,1.3c2.4,1.3,5.1,1.8,7.8,2.1c0.1,0,0.2,0,0.3,0c0,0,0.1,0,0.1,0c3.1,0.4,6.3,0.5,9.4,0.5
			c1.9,0,3.8-0.1,5.7-0.2c22.4-1.5,44.6-10.1,67.1-4.2c9.2,2.4,19.1,6.5,28.8,6.7c4.2,0.1,8.4-0.6,12.5-2.5
			C525.1,469.6,528.4,454.2,530.4,441.9z M524.1,455.2c-1.8,6-4.7,12.1-10,15.7c-4.1,2.7-8.6,3.8-13.2,3.8c-2.3,0-4.6-0.2-6.8-0.6
			c-1.2-0.2-2.3-0.4-3.5-0.7c-5.1-1.2-10.2-2.9-14.8-4.3c-6.6-2-13.3-3.2-20.2-3.2c-6.4-0.1-12.8,0.6-19.1,1.6
			c-11,1.7-22,4.2-33.1,4.8c-1.1,0.1-2.3,0.1-3.4,0.2c-0.7,0-1.4,0-2.1,0c-1.6,0-3.2-0.1-4.8-0.1c-1.2-0.1-2.5-0.2-3.7-0.4
			c-0.3,0-0.5-0.1-0.7-0.1c-0.2,0-0.4,0-0.5-0.1c-4.4-0.7-7.8-2.3-10.2-6.3c-3.1-5.2-5.2-10.7-5.3-16.8
			c-0.3-13.1,6.6-26.1,16.1-34.8c1.9-1.7,3.8-3.2,5.9-4.6c2.7-1.8,5.5-3.3,8.4-4.6c1.2-0.5,2.4-1,3.6-1.5c6.2-2.4,12.8-3.9,19.4-5
			c14.8-2.4,29.8-2.5,44.7-2.6c10.5-0.1,21.4,0.2,31.4,3.5c0.2,0.1,0.5,0.2,0.8,0.3c0.9,0.3,1.9,0.6,2.8,1.1c2.3,0.9,4.4,2,6.5,3.3
			c5.1,3.2,9.6,7.5,12.4,12.8c3.2,6,3.9,12.9,3.3,19.6C527.3,442.5,525.9,449,524.1,455.2z"/>
	</g>
	<g>
		<path d="M491,475.3c-0.1-0.7-0.3-1.3-0.5-2c-1.8-6.6-6-12.1-11.4-16.3c-12-9.2-29.7-10.9-44.3-8.6c-13.5,2.1-27.1,10.1-31.4,23.7
			c-0.1,0.4-0.2,0.9-0.4,1.3c-0.3,1-1.2,1.3-2,1.2c-0.8-0.2-1.5-0.8-1.2-1.8c0-0.2,0.1-0.3,0.1-0.5c2.2-7.9,7.5-14.6,14.2-19.3
			c13.3-9.3,31.7-10.3,47.1-7.1c14.8,3.1,29.4,12.6,32.7,28.1c0.1,0.1,0,0.1,0.1,0.2C494.4,476.3,491.4,477.4,491,475.3z"/>
	</g>
	<g>
		<path d="M505.9,400.3c-0.1,0.1-0.1,0.1-0.2,0.2c-1.2,1-2.4,1.9-3.6,2.8c-4.9,3.6-10.2,6.7-15.9,9.2c-26.9,11.9-58.3,8.5-82.8-7.4
			c-0.1-0.1-0.3-0.2-0.4-0.3c-1.1-1.2,0.2-3.6,1.8-2.5c0.6,0.4,1.1,0.7,1.7,1.1c6.4,3.9,13.3,7.1,20.5,9.3
			c13.5,4.2,27.8,5.1,41.7,2.1c12.1-2.6,23.5-7.9,33.2-15.5c0.4-0.2,0.7-0.5,1-0.7c0.4-0.3,0.7-0.5,1-0.8
			C505.7,396.2,507.5,398.9,505.9,400.3z"/>
	</g>
</g>
</svg>
