<?xml version="1.0" encoding="utf-8"?>
<!-- Generator: Adobe Illustrator 25.1.0, SVG Export Plug-In . SVG Version: 6.00 Build 0)  -->
<svg version="1.1" id="Layer_1" xmlns="http://www.w3.org/2000/svg" xmlns:xlink="http://www.w3.org/1999/xlink" x="0px" y="0px"
	 viewBox="0 0 800 800" style="enable-background:new 0 0 800 800;" xml:space="preserve">
<style type="text/css">
	.st0{fill:#FCFCFC;}
	.st1{fill:#FFFFFF;}
	.st2{fill:#F98F8F;}
</style>
<g>
	<g>
		<g>
			<path class="st0" d="M507.5,361c-3.2-14.5-2-30,3.3-43.8s14.7-26.1,26.8-34.8c12.6-9.1,30.2-11.2,44.8-5.8
				c8.9,3.3,15.1,7.2,20.4,15c5.9,8.6,10,18.7,10.4,29.2c0.4,10.5-3.1,21.2-10.4,28.7c-8.6,8.7-21.2,11.9-33.4,13.5
				C548.8,365.6,527.8,365.8,507.5,361"/>
			<g>
				<path d="M509,360.6c-4.5-20.9,0.2-42.9,12.7-60.2c5.6-7.7,12.9-15,21.4-19.6c8.5-4.6,18.4-6.4,28-5.3c8.8,1,18.3,4.5,25,10.6
					c7.4,6.7,12.3,16.7,14.5,26.3c2.3,9.8,1.2,20.4-3.8,29.3c-5,8.7-13.6,13.9-22.9,16.7c-11.6,3.5-24.2,4.4-36.3,4.8
					c-13.3,0.4-26.6-0.7-39.5-3.6c-2-0.5-2.8,2.6-0.8,3c12.2,2.8,24.8,4,37.3,3.8c11.8-0.2,23.9-1,35.3-3.7
					c9.8-2.3,19.7-6.5,26.3-14.5c6.5-8,9.4-18.6,8.7-28.8c-0.8-11-5.3-21.9-12-30.6c-5.8-7.6-14.3-12.3-23.4-14.9
					c-9.8-2.8-20.5-2.4-30.1,0.8c-9.7,3.3-18,9.8-24.8,17.4c-16.8,18.7-23.6,44.7-18.4,69.3C506.4,363.4,509.4,362.6,509,360.6
					L509,360.6z"/>
			</g>
		</g>
		<g>
			<path d="M436.9,369.4c2-7.6,9.6-13.2,17.5-12.6c7.6,0.6,14.4,7.2,15.2,14.8c0.2,2,3.4,2,3.1,0c-1.1-9.2-8.6-16.9-17.9-17.9
				c-9.4-0.9-18.6,5.9-21,14.9C433.4,370.5,436.4,371.4,436.9,369.4L436.9,369.4z"/>
		</g>
		<g>
			<path d="M540,265c11.2-7.6,25.2-10.8,38.5-8.3c12.5,2.4,24,9.4,31.6,19.5c1,1.4,2.7,2.1,4.3,1.1c1.3-0.8,2.2-2.9,1.1-4.3
				c-14-18.6-37.9-27.4-60.5-21.7c-6.5,1.6-12.7,4.4-18.2,8.1C533.5,261.8,536.7,267.3,540,265L540,265z"/>
		</g>
		<circle cx="545.2" cy="328.2" r="29.2"/>
		<circle class="st0" cx="565.1" cy="314.2" r="10.7"/>
		<g>
			<path class="st1" d="M408.7,362.4c4.4-14.2,2.6-28.6-1.5-42.9c-4.1-14.3-10.7-28.4-22-38c-11.8-10.1-29.2-13.7-44.1-9.5
				c-9.1,2.6-15.6,5.9-21.6,13.2c-6.6,8.1-11.5,17.8-12.8,28.2c-1.3,10.4,3.3,23.6,10.1,31.6c7.9,9.4,18.1,11.5,30.1,14.1
				C367.2,363.5,388,365.4,408.7,362.4"/>
			<g>
				<path d="M410.2,362.8c3.6-11.9,3.1-24.3,0.4-36.3c-2.4-10.7-6.1-21.5-11.8-31c-5.2-8.8-12.4-16.6-21.6-21.2
					c-9.1-4.6-19.5-6.5-29.6-5.2c-9.2,1.2-18.7,4.7-25.6,11.1c-7.6,7.1-13.4,17.3-15.9,27.4c-2.4,9.9-0.9,19.9,3.5,29.1
					c4.2,9,11,15.8,20.2,19.5c4.5,1.8,9.4,2.9,14.1,4c6,1.3,12.1,2.5,18.2,3.4c12.5,1.8,25.2,2.5,37.9,1.5c3-0.2,6.1-0.6,9.1-1
					c2-0.3,1.1-3.3-0.8-3c-23,3.3-46.4,0.5-68.8-5.1c-8.9-2.2-17.1-5.8-22.7-13.3c-5.6-7.5-9.1-17.5-8.6-26.9
					c0.4-10,5.2-19.7,11.1-27.6c2.8-3.7,6.1-7,10-9.5c3.8-2.4,8-3.9,12.3-5.1c9.3-2.6,19.2-2.1,28.3,1c9.4,3.2,17.2,9.5,23,17.5
					c6.6,9.2,10.8,19.9,13.7,30.8c3.4,12.8,4.6,26.2,0.7,39.1C406.6,363.9,409.6,364.7,410.2,362.8L410.2,362.8z"/>
			</g>
		</g>
		<g>
			<path d="M376.5,253.7c-10.4-6-22.7-8.8-34.7-7.6c-11.3,1.1-21.8,5.5-30.6,12.6c-4.9,3.9-9,8.6-12.4,13.8
				c-2.2,3.4,3.2,6.6,5.4,3.2c6.8-10.5,17.4-18.4,29.5-21.7c13.3-3.7,27.7-1.7,39.6,5.2C376.8,261.1,380,255.7,376.5,253.7
				L376.5,253.7z"/>
		</g>
		<circle cx="348.5" cy="322.9" r="29.2"/>
		<circle class="st0" cx="372.6" cy="311.2" r="10.7"/>
	</g>
	<g>
		<path class="st2" d="M494.2,468.3c-5.7,1.2-11.6,0.5-17.3-0.1c-5.9-0.6-11.9-1.2-17.8-1.3c-13.2-0.3-26.4,0.8-39.3,3.3
			c-5.9,1.2-12.4,3.4-18.5,2c-0.4-0.1-0.8-0.2-1.2-0.4c7.1-13.3,19.8-23.3,34.4-27.3c14.5-3.9,30.1-1.1,42.7,6.9
			C484.1,455.7,489.9,461.4,494.2,468.3z"/>
		<g>
			<path d="M399.3,466.7c-8.5-19,1.9-39.6,17.1-51.6c14.8-11.7,34.9-16.5,53.1-10.3c8.9,3,16.7,8.6,22.4,16
				c5.7,7.4,9.5,16.5,11.4,25.7c1,4.7,1.3,10-1.4,14.3c-2.3,3.8-6.5,6-10.7,7.1c-5,1.3-10.3,0.9-15.4,0.3
				c-5.5-0.6-11.1-1.2-16.7-1.4c-12-0.4-24,0.5-35.8,2.7c-5.9,1.1-12.4,3.5-18.4,2.1c-4.5-1.1-5.9-5.2-7.2-9.2
				c-0.6-1.9-3.7-1.1-3,0.8c1.2,3.6,2.5,7.7,5.9,9.9c4.1,2.8,9.8,2.2,14.4,1.3c6.2-1.1,12.3-2.5,18.5-3.3c6-0.7,12-1.1,18.1-1.2
				c6-0.1,12.1,0.2,18.1,0.8c6.1,0.6,12.2,1.6,18.3,0.9c9.3-1.1,17.9-6.6,19-16.5c0.6-5.1-0.7-10.3-2.2-15.2
				c-1.5-4.9-3.5-9.7-6-14.2c-5-8.9-12.2-16.2-21.2-20.9c-18.5-9.5-40.6-7.1-57.8,4c-9.5,6.1-17.8,14.7-22.5,25.1
				c-4.9,10.9-5.6,23.4-0.7,34.3C397.4,470.1,400.1,468.5,399.3,466.7L399.3,466.7z"/>
		</g>
		<g>
			<path d="M403.6,472c6.3-12.2,17.6-21.4,30.8-25.3c13.5-4,28-1.6,39.9,5.8c6.7,4.2,12.3,9.9,16.4,16.6c1,1.7,3.8,0.2,2.7-1.6
				c-7.7-12.8-20.8-22-35.5-24.9c-14.3-2.9-29.3,0.7-41.1,9.3c-6.7,4.9-12.2,11.1-16,18.5C399.9,472.2,402.6,473.8,403.6,472
				L403.6,472z"/>
		</g>
		<g>
			<path d="M415.7,415.8c22,11.5,49,11.8,71.3,0.9c1.8-0.9,0.2-3.6-1.6-2.7c-21.2,10.5-47.2,10.1-68.1-0.9
				C415.4,412.2,413.9,414.9,415.7,415.8L415.7,415.8z"/>
		</g>
		<path d="M505.2,450.3c0.7,4.7,0.5,9.7-2.4,13.6c-2,2.8-5,4.7-8.2,5.8c-7.6-12.8-20.4-22.2-34.7-25.6c-14.9-3.6-30.5-0.2-42.9,8.7
			c-6.9,4.9-12.5,11.4-16.5,18.9c-1.1-1.2-1.9-2.7-2.6-4.3c-0.4-1-0.7-2-1.1-3l0-0.1c-5.6-18.6,4.5-38,18.8-49.5
			c15.6-12.5,36.8-17.2,55.7-9.9C490,412,502.2,430.6,505.2,450.3z"/>
		<path class="st1" d="M485.4,414.1c-20.8,10.2-46.2,10.1-67-0.4c15-11,34.8-15,52.5-8.4C476.3,407.4,481.1,410.4,485.4,414.1z"/>
	</g>
</g>
</svg>
