<?xml version="1.0" encoding="utf-8"?>
<!-- Generator: Adobe Illustrator 25.1.0, SVG Export Plug-In . SVG Version: 6.00 Build 0)  -->
<svg version="1.1" id="Layer_1" xmlns="http://www.w3.org/2000/svg" xmlns:xlink="http://www.w3.org/1999/xlink" x="0px" y="0px"
	 viewBox="0 0 800 800" style="enable-background:new 0 0 800 800;" xml:space="preserve">
<style type="text/css">
	.st0{fill:#FCFCFC;}
	.st1{fill:#0C0A0A;}
	.st2{fill:#FFFFFF;}
	.st3{fill:#F98F8F;}
</style>
<g>
	<g>
		<path d="M550.4,281.8c28.2-6.4,59.6,5.7,76,29.5c3.3,4.9,11.3,0.2,8-4.7c-18.9-27.3-54-41.1-86.4-33.7
			C542.1,274.2,544.6,283.1,550.4,281.8L550.4,281.8z"/>
	</g>
	<g>
		<path d="M367.1,260.9c-32.4-7.4-67.5,6.4-86.4,33.7c-3.4,4.9,4.6,9.5,8,4.7c16.4-23.8,47.8-35.9,76-29.5
			C370.5,271.2,372.9,262.3,367.1,260.9L367.1,260.9z"/>
	</g>
	<g>
		<path class="st0" d="M507.1,377.1c-0.1-14.8,2.6-29.7,9.1-43c6.5-13.3,17.1-24.7,30.5-31c13.4-6.2,29.6-6.8,42.8-0.3
			c13.2,6.5,22.8,20.5,22.8,35.3c0,14.2-8.6,27.4-20.1,35.6c-11.6,8.1-25.9,11.7-40,12.8C536.5,387.8,520.4,385.4,507.1,377.1"/>
		<g>
			<path d="M508.9,377.1c0-20.5,5.1-41.6,18.9-57.3c12.9-14.8,32.9-23.3,52.5-18.3c17.5,4.5,31.5,21,30,39.5
				c-1.6,19.9-18.9,34.1-36.7,39.7c-21.1,6.6-46.3,6.5-65.6-5.2c-2-1.2-3.9,2-1.9,3.2c18.6,11.3,42.1,12.2,62.9,7.1
				c19.7-4.8,38.8-17.6,43.9-38.3c4.6-18.7-6-38.2-23-46.4c-19.2-9.2-42.1-4.1-57.9,9.3c-19.3,16.4-26.8,42-26.8,66.6
				C505.2,379.5,508.9,379.5,508.9,377.1L508.9,377.1z"/>
		</g>
	</g>
	<g>
		<path class="st0" d="M406.4,373.2c0.9-14.7-1-29.8-6.8-43.4c-5.8-13.6-15.8-25.6-28.8-32.5s-29.2-8.4-42.8-2.6
			c-13.6,5.8-23.9,19.3-24.7,34c-0.8,14.1,7.1,27.9,18.2,36.6c11.1,8.7,25.2,13.1,39.2,14.9C376.4,382.3,392.7,380.7,406.4,373.2"/>
		<g>
			<path d="M408.3,373.2c1.2-22-3.5-44.6-17.7-62c-13.1-16-34-25.2-54.6-20.9c-18.6,3.9-34.2,20.4-34.4,39.9
				c-0.3,20.8,15.7,37.6,33.8,45.3c22.2,9.5,50.3,11,72-0.7c2.1-1.1,0.2-4.3-1.9-3.2c-18.1,9.7-40.1,9.3-59.4,3.7
				c-18.4-5.3-36-17.8-40.1-37.6c-3.8-18.2,8.3-36.5,25.5-42.4c19-6.6,39.8,0.7,53.3,14.8c16,16.8,21,40.4,19.8,63
				C404.5,375.6,408.2,375.6,408.3,373.2L408.3,373.2z"/>
		</g>
	</g>
	<g>
		<path class="st1" d="M383.1,430.3c0.5-6.4,5.8-11.6,11.8-13.9s12.6-2.2,19-2.1c28.1,0.4,56.1,0.9,84.2,1.3
			c7.9,0.1,16.6,0.5,22.5,5.8c4.2,3.7,6.3,9.4,6.5,15c0.2,5.6-1.4,11.1-3.7,16.2c-10.1,22.8-33.9,38.2-58.8,40.1
			c-24.8,1.9-49.9-9-67-27.1c-9.4-9.9-16-22.7-14.5-36.3"/>
		<g>
			<path d="M384.9,430.3c1.5-13.4,18.3-14.3,28.5-14.2c13.6,0.2,27.2,0.4,40.8,0.6c13.6,0.2,27.3,0.4,40.9,0.6
				c11.2,0.2,25,0.2,29.2,13c3.6,11-2.3,23.3-8.6,32.1c-6.1,8.5-14.3,15.4-23.5,20.3c-19.2,10.2-41.8,10.5-62,2.6
				c-22.1-8.7-47.7-29.8-45.1-56c0.2-2.4-3.5-2.3-3.7,0c-2.5,25.1,19.6,45.9,40.2,56.2c21.4,10.7,46.4,12.4,68.4,2.4
				c10.2-4.6,19.5-11.6,26.5-20.4c7.2-9,13.7-21.2,12.4-33.1c-0.6-5.4-2.8-10.8-6.9-14.4c-4.2-3.7-9.7-5.2-15.1-5.8
				c-6.9-0.8-13.9-0.5-20.9-0.6c-7.7-0.1-15.5-0.2-23.2-0.4c-17.3-0.3-34.7-0.8-52-0.8c-12.1,0-27.9,3.3-29.5,17.9
				C381,432.6,384.7,432.6,384.9,430.3L384.9,430.3z"/>
		</g>
	</g>
	<g>
		<path d="M399.8,417.4c3.4,9.1,11.6,14.6,20.6,17.2c10.8,3.1,22.8,3.7,33.9,3.3c17.8-0.5,41.6-2.9,52-19.6c1.3-2-1.9-3.9-3.2-1.9
			c-9.4,15.1-31.6,17.2-47.6,17.8c-10.1,0.4-20.5-0.1-30.5-2.3c-9-2-18.3-6.4-21.7-15.5C402.5,414.2,398.9,415.1,399.8,417.4
			L399.8,417.4z"/>
	</g>
	<g>
		<path d="M419.5,481.3c8.7-9.9,21.9-16.3,35.3-15.7c13.5,0.5,26.3,8.1,33.8,19.2c1.3,2,4.5,0.1,3.2-1.9
			c-8.1-12.1-21.5-20.1-36.1-21c-14.5-1-29.3,6-38.8,16.8C415.4,480.5,418,483.1,419.5,481.3L419.5,481.3z"/>
	</g>
	<g>
		<path d="M439.3,389c3.3-6.8,10.4-11.3,18.1-11c7.2,0.3,14.2,5.2,16.9,11.9c1.2,2.9,5.9,1.6,4.7-1.3c-3.5-8.7-11.6-14.9-21-15.5
			c-9.4-0.6-18.8,5.1-22.9,13.4C433.6,389.4,437.9,391.9,439.3,389L439.3,389z"/>
	</g>
	<g>
		<circle cx="553.2" cy="348.1" r="30"/>
		<circle class="st2" cx="533.2" cy="332.8" r="8.4"/>
	</g>
	<g>
		<circle cx="363.6" cy="345.1" r="30"/>
		<circle class="st2" cx="343.5" cy="329.7" r="8.4"/>
	</g>
	<g>
		<path class="st2" d="M403.7,416.6c3.5-0.4,7-0.5,10-0.4c13.6,0.2,27.2,0.4,40.8,0.6c13.7,0.2,27.3,0.4,40.9,0.6
			c2.3,0,4.8,0.1,7.2,0.2c-9.8,14-31.2,16-46.8,16.6c-10.1,0.4-20.5-0.1-30.5-2.2C416.4,430,407.1,425.6,403.7,416.6z"/>
		<path class="st3" d="M488.7,484.6c-18.4,8.4-39.4,8.1-58.3,0.7c-3.3-1.3-6.6-2.9-10-4.7c8.7-9.5,21.6-15.6,34.6-15.1
			C468.5,466.2,481.2,473.6,488.7,484.6z"/>
	</g>
</g>
</svg>
