<?xml version="1.0" encoding="utf-8"?>
<!-- Generator: Adobe Illustrator 25.1.0, SVG Export Plug-In . SVG Version: 6.00 Build 0)  -->
<svg version="1.1" id="Layer_1" xmlns="http://www.w3.org/2000/svg" xmlns:xlink="http://www.w3.org/1999/xlink" x="0px" y="0px"
	 viewBox="0 0 800 800" style="enable-background:new 0 0 800 800;" xml:space="preserve">
<style type="text/css">
	.st0{fill:#F2059F;}
	.st1{fill:#BF06A0;}
	.st2{fill:#6B0899;}
	.st3{fill:#2B0069;}
</style>
<g id="Group_10673" transform="translate(-7153.242 -9973.781)">
	<g id="Group_10650" transform="translate(7153.242 9973.781)">
		<path id="Path_10277" d="M400.1,391.2v0.5C400.1,391.6,400.1,391.4,400.1,391.2L400.1,391.2z"/>
		<path id="Path_6949" d="M792,329.1c-7.1-7.8-24.8-2.5-39,1.9c-2.1,0.6-4.5,1.3-6.5,1.9c13.8-17.7,19.5-30.2,16.9-37.3
			c-1.2-3.2-4.2-5.5-7.6-6c-10.9-2.2-25.3,14.2-35.8,26.2l-3.9,4.4c0.2-12.3-5.1-29.9-12.5-34.3c-2.8-1.8-6.4-1.5-8.9,0.7
			c-8.7,7.4-8.3,34.5-7.9,43.7l-85.5,46.7L420.9,64.2c-6.7-11.5-21.4-15.5-33-8.8c-3.7,2.1-6.7,5.1-8.8,8.8L198.6,376.8l-85.5-46.7
			c0.5-9.2,1-36.3-7.8-43.7c-2.4-2.2-6.1-2.5-8.9-0.7c-7.4,4.5-12.7,22.1-12.5,34.3c-1.2-1.4-2.6-2.9-3.9-4.4
			c-10.5-12-24.9-28.3-35.8-26.2c-3.5,0.4-6.4,2.7-7.6,6c-2.5,7.1,3.1,19.6,16.9,37.3c-2.1-0.6-4.4-1.3-6.6-1.9
			c-14.2-4.3-31.9-9.7-39-1.9c-3,3.3-3.6,8.1-1.5,12.1c5.4,12.7,28.9,26.6,39.5,27.5c-1.5,3.2-3.3,6.2-5.3,9.1
			c-5.9,9.2-13.4,20.6-5.6,26.3c9.3,6.8,19.3-3.4,28.1-12.4c5.1-5.1,11.3-11.5,14.5-11c5.8,1.2,45.9,31.7,83.3,61.2L93.6,558.7
			c-6.7,11.6-2.7,26.3,8.9,33c3.6,2.1,7.8,3.2,12,3.2h125.2l5.8,32c1.6,10.9,2,22,1.4,33.1c-16.2,7.8-26.5,24.1-26.7,42.1
			c0,0.8,0,1.6,0.1,2.4c0.6,0,1.1-0.1,1.6-0.1h1.5c0.1,1.1,0.2,2.1,0.3,3.2h-1.8c-0.4,0-0.9,0-1.3,0.1h0c-0.1-1-0.2-2.1-0.2-3.2
			c-6.3,0.8-11,6.2-11,12.5v18.2c0,7,5.7,12.6,12.6,12.6h94c7,0,12.6-5.7,12.6-12.6V717c0-6.4-4.7-11.7-11-12.5
			c0.1-0.8,0.1-1.6,0.1-2.4c-0.1-15.6-7.9-30.1-20.9-38.7c0.9-14.5,0.3-29.1-1.7-43.5l-3.6-24.9H523l-3.6,24.9
			c-2.1,14.4-2.7,29-1.7,43.6c-13,8.6-20.8,23.1-20.9,38.7c0,0.8,0,1.6,0.1,2.4c-6.3,0.8-11.1,6.2-11,12.5v18.2
			c0,7,5.7,12.6,12.6,12.6h94c7,0,12.6-5.7,12.6-12.6V717c0-6.4-4.7-11.7-11-12.5c0-0.8,0.1-1.6,0.1-2.4
			c-0.1-18-10.5-34.3-26.6-42.1c-0.7-11-0.2-22.1,1.3-33l5-32.1h111.6c13.3,0,24.1-10.8,24.1-24.1c0-4.2-1.1-8.4-3.2-12.1L639,441.9
			c37.4-29.5,77.4-60,83.2-61.2c3.2-0.5,9.5,5.9,14.5,11c8.8,9,18.8,19.1,28.1,12.4c7.8-5.7,0.4-17.1-5.6-26.3
			c-2-2.9-3.8-5.9-5.3-9.1c10.5-0.9,34.2-14.9,39.5-27.5C795.5,337.2,794.9,332.4,792,329.1z M246.2,594.9L246.2,594.9l38.8,0v0
			l3.7,25.8c0.3,2.5,0.7,4.9,0.9,7.4c1,8.9,1.3,17.8,1.1,26.8c0,1.7-0.1,3.4-0.2,5c-2-1-4-1.8-6.1-2.4c-3-1-6.1-1.7-9.3-2.1
			c-0.5-0.1-0.9-0.1-1.3-0.2c-7-0.7-14,0-20.6,2.2c0.5-10.5-0.1-21-1.6-31.4L246.2,594.9z M320.4,712.5c1.2,1.2,1.8,2.8,1.8,4.4h0
			v18.2c0,3.5-2.8,6.3-6.2,6.3c0,0-0.1,0-0.1,0h-94c-3.4,0-6.3-2.8-6.3-6.2c0,0,0,0,0-0.1V717c0-1.7,0.7-3.3,1.8-4.4
			c0.3-0.3,0.6-0.6,1-0.8c1-0.7,2.2-1.1,3.5-1.1h94C317.6,710.7,319.2,711.3,320.4,712.5L320.4,712.5z M293.2,668.6
			c0.7,0.5,1.5,1,2.2,1.5c0.3,0.2,0.6,0.4,0.8,0.6c0.6,0.5,1.2,1,1.7,1.5c0.6,0.5,1.1,1,1.7,1.6c0.7,0.7,1.5,1.5,2.2,2.4
			c0.8,0.9,1.5,1.8,2.1,2.7c4.8,6.7,7.4,14.8,7.4,23.1c0,0.8,0,1.5-0.1,2.3h-84.6c-0.1-0.8-0.1-1.5-0.1-2.3
			c0.1-14.1,7.6-27.2,19.7-34.5c1.1-0.7,2.2-1.3,3.4-1.9c1.1-0.6,2.2-1,3.3-1.5c12.2-4.8,25.8-3.9,37.3,2.5
			C291.3,667.3,292.3,667.9,293.2,668.6L293.2,668.6z M598.8,717v18.2c0,1.7-0.7,3.3-1.9,4.4c-1.2,1.2-2.8,1.8-4.4,1.8h-94
			c-1.7,0-3.3-0.7-4.5-1.8c-1.2-1.2-1.8-2.8-1.8-4.4V717c0-1.7,0.7-3.3,1.8-4.4c0.3-0.3,0.6-0.5,1-0.8c1-0.7,2.3-1.1,3.5-1.1h94
			C596,710.7,598.8,713.5,598.8,717L598.8,717z M567.5,667.1c0.2,0.1,0.5,0.3,0.7,0.4c12.2,7.2,19.6,20.3,19.7,34.5
			c0,0.8,0,1.5,0,2.3h-84.6c0-0.8,0-1.5,0-2.3c0-3,0.3-6,1-9c0.3-1.4,0.8-2.9,1.2-4.3c1.5-4.2,3.7-8.2,6.5-11.7
			c1.9-2.4,4-4.5,6.4-6.4c0.9-0.7,1.9-1.5,2.9-2.2c1-0.7,2-1.3,3-1.9c6.5-3.6,13.8-5.5,21.2-5.5c5.5,0,10.9,1,16,3
			c1.1,0.4,2.3,0.9,3.3,1.5C565.7,666.1,566.6,666.6,567.5,667.1L567.5,667.1z M562.7,626c-0.3,2-0.6,4-0.7,6.1c-0.5,4-0.7,8-0.9,12
			c0,0,0,0.1,0,0.1c0,0,0,0,0,0c-0.2,4.4-0.2,8.8,0,13.2c-12.3-4-25.6-3.2-37.2,2.5h0c-0.6-13.1,0-26.2,1.9-39.1l3.7-25.8h38
			L562.7,626z M787.7,338.7c-4.4,10.3-26.4,23.5-34.6,23.7c-2.1-0.1-4,1-5.1,2.8c-2,3.7,1.2,8.6,6,16c3.8,5.9,10.1,15.6,7.2,17.8
			c-4.5,3.3-11.1-2.7-19.9-11.7c-7-7.1-13.6-13.9-20.1-12.8c-7.6,1.3-51.6,35.1-85.4,61.8l-2.5,2c-0.8,0.6-1.7,1.3-2.5,2
			c-13.6,10.8-25.1,20-30.9,24.7c-0.3,0.2-0.6,0.5-0.9,0.7c-1.3,1.2-1.4,3.2-0.2,4.5c1.1,1.2,2.8,1.4,4.1,0.5c0,0,0,0,0,0
			c0,0,0,0,0,0c9.3-7.5,20-16,31.1-24.8L701,561.8c4.9,8.5,1.9,19.4-6.6,24.3c-2.7,1.5-5.7,2.4-8.8,2.4h-571
			c-9.8,0-17.8-8-17.8-17.9c0-3.1,0.8-6.1,2.4-8.8l67-115.9c11,8.8,21.7,17.3,31,24.8c0.6,0.5,1.3,0.7,2,0.7c1.7,0,3.2-1.4,3.2-3.2
			c0-1-0.4-1.9-1.2-2.5c-0.3-0.3-0.6-0.5-1-0.7c-5.8-4.7-17.2-13.9-30.9-24.7c-0.8-0.7-1.7-1.3-2.5-2l-2.5-2
			c-33.8-26.7-77.8-60.6-85.5-61.8c-6.4-1.2-13.1,5.6-20.1,12.8c-8.8,8.9-15.3,15-19.8,11.7c-2.9-2.2,3.4-11.9,7.1-17.8
			c4.8-7.4,8-12.3,6-16.1c-1-1.8-3-2.9-5.1-2.8c-8.2-0.2-30.2-13.4-34.6-23.7c-1.2-3-0.5-4.4,0.4-5.4c4.4-4.9,22.7,0.7,32.5,3.7
			c10.5,3.2,14.8,4.5,17,1.3c1.7-2.6-0.5-5.4-1.2-6.3c-15.6-19.4-19.7-30.4-18.4-34.2c0.2-0.4,0.6-1.5,2.9-2
			c7.4-1.5,21.9,15.2,29.8,24.1c7.9,9.1,10.4,11.8,13.6,10.1c2.7-1.4,2-4.7,1.7-5.8c-2.2-10.3,3.8-29.9,8.9-33.1
			c0.5-0.4,1.2-0.3,1.6,0.1c0,0,0,0,0,0c4.3,3.6,5.7,18.3,5.7,30.9c0,3.4-0.1,6.7-0.3,9.6c-0.1,1.2,0.6,2.4,1.7,3l87.1,47.6l2.7,1.5
			l2.8,1.5l20.9,11.4c0.2,0.1,0.4,0.2,0.6,0.2c1.6,0.5,3.4-0.3,3.9-2c0,0,0,0,0,0c0.5-1.4-0.1-3-1.5-3.8l-20.8-11.3L384.7,67.4
			c4.9-8.5,15.8-11.4,24.3-6.5c2.7,1.6,4.9,3.8,6.5,6.5l180.4,312.5l-20.8,11.3c-1.5,0.9-2.1,2.8-1.2,4.3c0.7,1.3,2.3,1.9,3.7,1.5
			c0.2,0,0.4-0.1,0.6-0.2l20.9-11.4l2.8-1.5l2.7-1.5l87.1-47.6c1.1-0.6,1.7-1.7,1.7-3c-0.9-14.2,0.2-36.1,5.4-40.5
			c0.7-0.6,1-0.5,1.5-0.2c5.2,3.2,11.2,22.8,9,33.1c-0.2,1.1-1,4.5,1.8,5.8c3.2,1.7,5.6-1.1,13.6-10.1c7.9-8.9,22.5-25.5,29.8-24.1
			c2.4,0.5,2.8,1.5,2.9,2c1.4,3.8-2.7,14.8-18.4,34.2c-0.7,1-2.9,3.7-1.2,6.3c2.1,3.2,6.5,1.9,17-1.3c9.8-3,28.1-8.5,32.5-3.7
			C788.1,334.3,788.9,335.7,787.7,338.7L787.7,338.7z"/>
		<path id="Path_10278" class="st0" d="M787.4,333.3c-4.4-4.9-22.7,0.7-32.5,3.7c-10.5,3.2-14.9,4.5-17,1.3
			c-1.7-2.6,0.5-5.4,1.2-6.3c15.7-19.4,19.7-30.4,18.4-34.2c-0.1-0.4-0.5-1.5-2.9-2c-7.3-1.4-22,15.2-29.8,24.1
			c-8,9.1-10.3,11.8-13.6,10.1c-2.8-1.3-2-4.7-1.8-5.8c2.2-10.3-3.8-29.9-9-33.1c-0.6-0.3-0.9-0.4-1.5,0.2
			c-5.2,4.4-6.4,26.3-5.4,40.5c0.1,1.2-0.6,2.4-1.7,3l-87.1,47.6l-2.7,1.5l-2.8,1.5l-20.9,11.4c-0.2,0.1-0.4,0.2-0.6,0.2
			c-1.4,0.5-3-0.1-3.7-1.5c-0.8-1.5-0.3-3.4,1.2-4.3l20.8-11.3L415.5,67.4c-1.6-2.7-3.8-4.9-6.5-6.5c-8.5-4.9-19.4-2-24.3,6.5
			L204.2,379.9l20.8,11.3c1.3,0.7,1.9,2.3,1.5,3.8c-0.5,1.6-2.3,2.5-3.9,2c0,0,0,0,0,0c-0.2-0.1-0.4-0.1-0.6-0.2l-20.9-11.4
			l-2.8-1.5l-2.7-1.5l-87.1-47.6c-1.1-0.6-1.7-1.7-1.7-3c0.2-2.9,0.3-6.1,0.3-9.6c0-12.5-1.4-27.3-5.7-30.9
			c-0.4-0.5-1.1-0.6-1.6-0.2c0,0,0,0,0,0c-5.1,3.2-11.2,22.8-8.9,33.1c0.2,1.1,1,4.4-1.7,5.8c-3.2,1.7-5.7-1.1-13.6-10.1
			c-7.9-8.9-22.5-25.6-29.8-24.1c-2.4,0.5-2.8,1.5-2.9,2c-1.4,3.8,2.7,14.8,18.4,34.2c0.7,0.9,3,3.7,1.2,6.3
			c-2.2,3.2-6.5,1.9-17-1.3c-9.8-3-28.1-8.5-32.5-3.7c-0.9,0.9-1.7,2.4-0.4,5.4c4.4,10.3,26.4,23.5,34.6,23.7c2.1-0.1,4,1,5.1,2.8
			c2,3.7-1.2,8.6-6,16.1c-3.8,5.8-10.1,15.6-7.1,17.8c4.5,3.3,11-2.7,19.8-11.7c7-7.1,13.7-13.9,20.1-12.8
			c7.6,1.3,51.7,35.2,85.5,61.8l2.5,2c0.8,0.6,1.7,1.3,2.5,2c13.7,10.8,25.1,20,30.9,24.7c0.3,0.2,0.7,0.5,1,0.7
			c0.7,0.6,1.2,1.5,1.2,2.5c0,1.7-1.4,3.2-3.2,3.2c-0.7,0-1.4-0.3-2-0.7c-9.3-7.5-20-16-31-24.8l-67,115.9c-4.9,8.5-2,19.4,6.6,24.3
			c2.7,1.5,5.7,2.4,8.8,2.4h571c9.8,0,17.8-8,17.8-17.9c0-3.1-0.8-6.1-2.4-8.8l-66.9-116c-11,8.8-21.7,17.3-31.1,24.8c0,0,0,0,0,0
			c0,0,0,0,0,0c-1.4,1-3.4,0.6-4.4-0.8c-0.9-1.3-0.7-3,0.5-4.1c0.3-0.2,0.6-0.5,0.9-0.7c5.8-4.7,17.2-13.9,30.9-24.7
			c0.8-0.6,1.7-1.3,2.5-2l2.5-2c33.8-26.7,77.8-60.5,85.4-61.8c6.5-1.2,13.1,5.6,20.1,12.8c8.8,8.9,15.3,15,19.9,11.7
			c2.9-2.2-3.4-11.9-7.2-17.8c-4.8-7.4-8-12.3-6-16c1-1.8,3-2.9,5.1-2.8c8.2-0.2,30.2-13.4,34.6-23.7
			C788.9,335.7,788.1,334.3,787.4,333.3z M400.1,391.7c0-0.2,0-0.3,0-0.5l0,0V391.7z"/>
		<path id="Path_6950" class="st1" d="M562.7,626c-1.5,10.4-2,20.9-1.6,31.3c-12.3-4-25.6-3.1-37.2,2.5c-0.6-13.1,0-26.2,1.9-39.1
			l3.7-25.8h38.1L562.7,626z"/>
		<path id="Path_6951" class="st2" d="M587.9,702c0,0.8,0,1.5-0.1,2.3h-84.6c0-0.8-0.1-1.5-0.1-2.3c0-12.2,5.6-23.7,15.1-31.3
			c0.9-0.8,1.9-1.5,2.9-2.2s2-1.3,3-1.9c6.5-3.6,13.8-5.5,21.3-5.5c5.5,0,10.9,1,16,3.1c1.1,0.4,2.2,0.9,3.3,1.5
			c1.1,0.6,2.3,1.2,3.3,1.9C580.3,674.8,587.8,687.9,587.9,702z"/>
		<path id="Path_6952" class="st3" d="M598.8,717v18.2c0,3.5-2.8,6.3-6.3,6.3h-94c-3.5,0-6.3-2.8-6.3-6.3V717c0-3.5,2.8-6.3,6.3-6.3
			h94C596,710.7,598.8,713.5,598.8,717C598.8,717,598.8,717,598.8,717z"/>
		<path id="Path_6953" class="st1" d="M290.7,659.8c-11.6-5.6-25-6.5-37.3-2.5c0.5-10.5-0.1-21-1.6-31.4l-5.6-31H285l3.7,25.8
			C290.6,633.6,291.3,646.7,290.7,659.8z"/>
		<path id="Path_6954" class="st2" d="M311.3,702c0,0.8,0,1.5-0.1,2.3h-84.6c0-0.8-0.1-1.5-0.1-2.3c0.1-14.1,7.6-27.2,19.7-34.5
			c1.1-0.7,2.2-1.3,3.3-1.9c1.1-0.5,2.2-1,3.3-1.5c12.2-4.8,25.8-3.9,37.3,2.5c1,0.6,2,1.2,3,1.9c1,0.7,2,1.4,2.9,2.2
			C305.7,678.4,311.3,689.9,311.3,702z"/>
		<g id="Group_9177" transform="translate(37.894 117.528)">
			<g id="Group_9175" transform="translate(0.847)">
				<path id="Path_6958" d="M184.8,586.8h-1.5c-0.5,0-1.1,0-1.6,0.1c0,1.1,0.1,2.1,0.2,3.2c0.4-0.1,0.9-0.1,1.3-0.1h1.8
					C184.9,588.9,184.8,587.9,184.8,586.8z"/>
			</g>
			<g id="Group_9176">
				<path id="Rectangle_532" class="st3" d="M184.1,593.1h94c3.5,0,6.3,2.8,6.3,6.3l0,0l0,0v18.2c0,3.5-2.8,6.3-6.3,6.3c0,0,0,0,0,0
					h-94c-3.5,0-6.3-2.8-6.3-6.3l0,0v-18.2C177.8,596,180.6,593.1,184.1,593.1z"/>
				<path id="Path_6959" d="M185.6,586.8h-1.5c-0.5,0-1.1,0-1.6,0.1c0,1.1,0.1,2.1,0.2,3.2c0.4-0.1,0.9-0.1,1.3-0.1h1.8
					C185.8,588.9,185.7,587.9,185.6,586.8z"/>
			</g>
		</g>
	</g>
</g>
</svg>
