<?xml version="1.0" encoding="utf-8"?>
<!-- Generator: Adobe Illustrator 25.1.0, SVG Export Plug-In . SVG Version: 6.00 Build 0)  -->
<svg version="1.1" id="Layer_1" xmlns="http://www.w3.org/2000/svg" xmlns:xlink="http://www.w3.org/1999/xlink" x="0px" y="0px"
	 viewBox="0 0 800 800" style="enable-background:new 0 0 800 800;" xml:space="preserve">
<style type="text/css">
	.st0{fill:#0080FF;}
	.st1{fill:#B3C7FF;}
	.st2{fill:#3B028C;}
	.st3{fill:#3300CC;}
</style>
<g id="Group_10714" transform="translate(0 0)">
	<path id="Path_10363" d="M792,450c-13.8-30.8-58.9-57.4-97-75.2l-4.3-22.6c-0.2-1.1,0.2-2.1,1.1-2.7c0.9-0.6,2-0.6,2.9,0l14.1,9.1
		c4.1,2.6,9.5,1.5,12.2-2.6c1.5-2.2,1.8-5,1-7.6L689,246.8c-0.3-1-0.1-2.1,0.7-2.8c0.7-0.7,1.8-0.9,2.8-0.5l16.1,6.3
		c4.6,1.8,9.7-0.5,11.5-5c0.7-1.7,0.8-3.6,0.3-5.4C668.8,30.5,411,40.9,400.1,41.4h-0.2c-10.9-0.6-268.7-10.9-320.3,198
		c-1.2,4.7,1.6,9.5,6.4,10.8c1.8,0.5,3.7,0.3,5.4-0.3l16.1-6.3c0.9-0.4,2-0.2,2.8,0.5c0.8,0.7,1,1.8,0.7,2.8L78,348.4
		c-1.5,4.6,1,9.6,5.6,11.2c2.5,0.8,5.3,0.5,7.6-1l14.1-9.1c0.9-0.6,2-0.6,2.9,0c0.9,0.6,1.3,1.7,1.1,2.7l-4.3,22.6
		C66.9,392.6,21.8,419.2,8,450c-5.4,11.2-5.7,24.2-0.7,35.6c3.5,10,12.2,17.3,22.7,19c1.7,0.3,3.5,0.4,5.3,0.4
		c25.3,0,60.6-25.4,90.2-51.7v58.3c0,4.9,3.9,8.8,8.8,8.8c2.9,0,5.6-1.4,7.3-3.8l11.9-17.3c0.5-0.7,1.3-1.2,2.2-1.2
		c1.2,0,2.3,0.8,2.6,2l17.9,66.7c1.3,4.7,6.1,7.5,10.8,6.2c2.4-0.6,4.4-2.3,5.6-4.5l14.2-27.9c0.5-0.9,1.4-1.5,2.4-1.5
		c1,0,2,0.6,2.4,1.6l12.8,28c-25.3,44-74.8,144.8-21,182.9c6,4.5,13.2,7,20.7,7.2c4,0,7.9-0.8,11.6-2.2
		c34.3-12.9,62-81.6,77.8-130.3l10.3,16.2c2.6,4.1,8,5.3,12.2,2.8c2.2-1.4,3.7-3.7,4-6.3l5.2-38.8c0.2-1.5,1.5-2.5,2.9-2.3
		c0.9,0.1,1.7,0.7,2.1,1.5l23.3,44.9c1.5,2.9,4.5,4.8,7.8,4.7h0.5c3.5-0.2,6.5-2.4,7.7-5.7l7.3-19c0.9-1.2,2.9-3.2,4.1-3
		c0.7,0.1,1.9,1.2,3,4.1c0,0.1,0.1,0.2,0.1,0.2l6.8,17.7c1.7,4.5,6.8,6.8,11.4,5.1c2-0.8,3.7-2.3,4.7-4.2l23.3-44.9
		c0.6-1.3,2.2-1.9,3.5-1.2c0.8,0.4,1.4,1.2,1.5,2.1l5.2,38.8c0.6,4.8,5.1,8.2,9.9,7.6c2.6-0.3,4.9-1.8,6.3-4l10.3-16.2
		c15.8,48.7,43.5,117.4,77.8,130.3c3.7,1.4,7.6,2.2,11.5,2.2c7.5-0.2,14.7-2.7,20.7-7.2c53.8-38.1,4.3-138.9-21-182.9l12.8-27.9
		c0.4-1,1.3-1.6,2.4-1.6h0.1c1,0,1.9,0.6,2.4,1.5l14.2,27.9c2.2,4.3,7.5,6,11.9,3.8c2.2-1.1,3.9-3.2,4.5-5.6l17.9-66.7
		c0.3-1,1.1-1.8,2.1-1.9c1-0.2,2.1,0.3,2.6,1.2l11.9,17.3c2.7,4,8.2,5.1,12.2,2.4c2.4-1.6,3.9-4.4,3.9-7.4v-58.3
		c29.7,26.2,64.9,51.7,90.2,51.7c1.8,0,3.5-0.1,5.2-0.4c10.5-1.7,19.2-9,22.7-19C797.7,474.3,797.4,461.2,792,450z M233.4,750.9
		c-9,3.4-19.1,1.8-26.5-4.3c-47.6-33.8-4.2-126.4,20.7-170.8l19.5,42.6c1.4,3.2,4.6,5.2,8,5.1h0.2c3.5,0,6.7-2.2,8-5.5L279,580
		c0.4-0.9,1.2-1.6,2.3-1.7c1-0.1,2,0.4,2.5,1.2l25.3,39.9C293.8,667.3,266.2,738.6,233.4,750.9L233.4,750.9z M593.1,746.6
		c-7.4,6-17.5,7.7-26.5,4.3c-32.8-12.3-60.4-83.5-75.6-131.4l25.3-39.9c0.8-1.2,2.5-1.6,3.7-0.8c0.5,0.3,0.8,0.7,1,1.3l15.8,38.1
		c1.3,3.3,4.5,5.4,8,5.4h0.2c3.5,0,6.6-2,8-5.1l19.5-42.6C597.3,620.3,640.8,712.9,593.1,746.6L593.1,746.6z M787,483.2
		c-2.7,8-9.6,13.9-18,15.3c-24.3,3.8-63-25-94.5-53.5c-1-0.9-2.1-1.9-3.1-2.8c-1-0.9-2.1-1.9-3.1-2.8
		c-25.9-24.1-45.7-46.5-46.2-47.1c-0.3-0.4-0.7-0.7-1.2-0.8c-1.1-0.4-2.3-0.2-3.1,0.6c-1.3,1.1-1.4,3-0.3,4.3c0,0,0,0,0,0
		c16,18,33,35.2,50.8,51.5v63.8c0,1.2-0.7,2.2-1.9,2.6c-1.1,0.4-2.3-0.1-3-1.1l-11.9-17.3c-2.7-4-8.2-5.1-12.2-2.4
		c-1.8,1.2-3,3-3.6,5l-17.9,66.7c-0.4,1.4-1.8,2.3-3.2,1.9c-0.7-0.2-1.4-0.7-1.7-1.4l-14.3-27.9c-1.6-3-4.7-4.9-8.1-4.8
		c-3.4,0.1-6.4,2.1-7.8,5.2l-11,24l-1.6,3.5l-1.6,3.5l-21.3,46.7c-0.4,1-1.4,1.6-2.5,1.6c-1.1,0-2-0.7-2.4-1.7l-15.8-38.1
		c-1.9-4.5-7-6.7-11.5-4.8c-1.7,0.7-3.1,1.9-4.1,3.4l-22.5,35.5l-2.2,3.5l-2.2,3.5l-13,20.6c-0.8,1.2-2.4,1.6-3.6,0.9
		c-0.7-0.4-1.1-1.1-1.2-1.9l-5.2-38.8c-0.6-4.8-5-8.2-9.8-7.6c-2.9,0.4-5.4,2.1-6.7,4.7l-23.3,44.9c-0.5,0.9-1.5,1.5-2.5,1.4
		c-1.1,0-2-0.7-2.3-1.7l-6.7-17.6c-0.1-0.2-0.2-0.4-0.2-0.6c-1.9-4.8-4.7-7.5-8.1-7.8c-4,0.1-7.7,2.3-9.8,5.7
		c-0.2,0.3-0.4,0.5-0.5,0.9l-7.4,19.4c-0.5,1.4-2.1,2.1-3.4,1.5c-0.6-0.2-1.1-0.7-1.4-1.3l-23.3-44.9c-1.5-2.9-4.5-4.8-7.8-4.8
		c-0.5,0-1.1,0-1.6,0.1c-3.8,0.6-6.8,3.7-7.2,7.5l-5.2,38.8c-0.2,1.4-1.5,2.5-2.9,2.3c-0.8-0.1-1.5-0.5-1.9-1.2l-13-20.6l-2.2-3.5
		l-2.2-3.4l-22.5-35.5c-2.6-4.1-8.1-5.3-12.2-2.7c-1.5,1-2.7,2.4-3.4,4.1l-15.7,38.1c-0.4,1-1.4,1.7-2.4,1.7
		c-1.1,0.1-2.1-0.6-2.5-1.6l-21.3-46.7l-1.6-3.5l-1.6-3.5l-11-24.1c-2-4.4-7.3-6.4-11.7-4.4c-1.8,0.8-3.3,2.2-4.2,4L187,565.8
		c-0.6,1.3-2.2,1.8-3.5,1.2c-0.7-0.3-1.2-1-1.4-1.7l-18-66.7c-1.2-4.7-6-7.5-10.7-6.2c-2,0.5-3.8,1.8-5,3.6l-11.9,17.3
		c-0.6,1-1.8,1.4-2.9,1c-1.1-0.3-1.9-1.4-1.9-2.6v-63.8c17.8-16.3,34.7-33.5,50.8-51.5c1.1-1.3,1-3.2-0.3-4.3c0,0,0,0,0,0
		c-0.9-0.8-2.1-1-3.1-0.6c-0.5,0.2-0.9,0.4-1.2,0.8c-0.5,0.5-20.2,22.9-46.2,47.1c-1,0.9-2.1,1.9-3.1,2.8c-1,1-2.1,1.9-3.1,2.8
		c-31.5,28.5-70.2,57.3-94.5,53.5c-8.4-1.4-15.3-7.3-18-15.3c-4.3-9.8-4.1-21.1,0.7-30.7c12.5-27.8,53.6-52.7,89.9-70.1
		c1.2-0.6,2.3-1.1,3.4-1.6c1.1-0.5,2.3-1.1,3.4-1.6c17.9-8.3,36.3-15.7,55-22.1l0.2-0.1c1.6-0.6,2.4-2.3,1.8-3.9s-2.3-2.4-3.9-1.8
		l0,0c-2.2,0.7-24.4,8.1-51.6,20.4l3.5-18.3c0.9-4.8-2.2-9.4-7-10.3c-2.2-0.4-4.5,0-6.4,1.2l-14.1,9.1c-0.9,0.6-2.2,0.6-3.1-0.1
		c-0.9-0.7-1.3-1.9-0.9-3l32.9-101.6c1.5-4.6-1-9.6-5.6-11.1c-2-0.6-4.1-0.6-6,0.2l-16.1,6.3c-0.9,0.4-2,0.2-2.7-0.5
		c-0.8-0.7-1.1-1.7-0.8-2.7c50.2-203,300.6-194,313.9-193.4c0.4,0.1,0.8,0.1,1.2,0c13.2-0.6,263.7-9.6,313.9,193.4
		c0.3,1-0.1,2-0.8,2.7c-0.7,0.7-1.8,0.9-2.7,0.5l-16.1-6.3c-4.5-1.8-9.6,0.4-11.4,5c-0.8,1.9-0.8,4-0.2,6l32.9,101.6
		c0.4,1.1,0,2.3-0.9,3c-0.9,0.7-2.1,0.8-3.1,0.1l-14.1-9.1c-4.1-2.6-9.6-1.4-12.2,2.7c-1.2,1.9-1.6,4.2-1.2,6.4l3.5,18.3
		c-27.2-12.3-49.4-19.7-51.6-20.4c-1.6-0.6-3.4,0.2-3.9,1.8s0.2,3.4,1.8,3.9l0.2,0.1c18.7,6.4,37,13.8,55,22.1
		c1.2,0.5,2.3,1.1,3.4,1.6c1.2,0.5,2.3,1.1,3.4,1.6c36.3,17.4,77.4,42.3,89.9,70.1C791.1,462.1,791.4,473.4,787,483.2L787,483.2z"/>
	<g id="Group_10713" transform="translate(1.104 1.107)">
		<path id="Path_10364" class="st0" d="M785.9,482.1c-2.7,8-9.6,13.9-18,15.3c-24.3,3.8-63-25-94.5-53.5c-1-0.9-2.1-1.9-3.1-2.8
			c-1-0.9-2.1-1.9-3.1-2.9c-25.9-24.1-45.7-46.5-46.2-47.1c-0.3-0.4-0.7-0.7-1.2-0.8c-1.1-0.4-2.3-0.2-3.1,0.6
			c-1.3,1.1-1.4,3-0.3,4.3c0,0,0,0,0,0c16,18,33,35.2,50.8,51.5v63.8c0,1.2-0.7,2.2-1.9,2.6c-1.1,0.4-2.3-0.1-3-1.1l-11.9-17.3
			c-2.7-4-8.2-5.1-12.2-2.4c-1.8,1.2-3,3-3.6,5l-17.9,66.7c-0.4,1.4-1.8,2.3-3.2,1.9c-0.7-0.2-1.4-0.7-1.7-1.4l-14.3-27.9
			c-1.6-3-4.7-4.9-8.1-4.8c-3.4,0.1-6.4,2.1-7.8,5.2l-11,24l-1.6,3.5l-1.6,3.5l-21.3,46.7c-0.4,1-1.4,1.6-2.5,1.6
			c-1.1,0-2-0.7-2.4-1.7l-15.8-38.1c-1.9-4.5-7-6.7-11.5-4.8c-1.7,0.7-3.1,1.9-4.1,3.4l-22.5,35.5l-2.2,3.5l-2.2,3.5l-13,20.6
			c-0.8,1.2-2.4,1.6-3.6,0.9c-0.7-0.4-1.1-1.1-1.2-1.9l-5.2-38.8c-0.6-4.8-5-8.2-9.8-7.6c-2.9,0.4-5.4,2.1-6.7,4.7l-23.3,44.9
			c-0.5,0.9-1.5,1.5-2.5,1.4c-1.1,0-2-0.7-2.3-1.7l-6.7-17.6c-0.1-0.2-0.2-0.4-0.2-0.6c-1.9-4.8-4.7-7.5-8.1-7.8
			c-4,0.1-7.7,2.3-9.8,5.7c-0.2,0.3-0.4,0.5-0.5,0.9l-7.4,19.4c-0.5,1.4-2.1,2.1-3.4,1.5c-0.6-0.2-1.1-0.7-1.4-1.3l-23.3-44.9
			c-1.5-2.9-4.5-4.8-7.8-4.8c-0.5,0-1.1,0-1.6,0.1c-3.8,0.6-6.7,3.7-7.2,7.5l-5.2,38.8c-0.2,1.4-1.5,2.5-2.9,2.3
			c-0.8-0.1-1.5-0.5-1.9-1.2l-13-20.6l-2.2-3.5l-2.2-3.4l-22.5-35.5c-2.6-4.1-8.1-5.3-12.2-2.7c-1.5,1-2.7,2.4-3.4,4.1l-15.7,38.1
			c-0.4,1-1.4,1.7-2.4,1.7c-1.1,0.1-2.1-0.6-2.5-1.6l-21.3-46.7l-1.6-3.5l-1.6-3.5l-11-24c-2-4.4-7.3-6.4-11.7-4.4
			c-1.8,0.8-3.3,2.2-4.2,4l-14.2,27.9c-0.7,1.3-2.2,1.8-3.5,1.2c-0.7-0.3-1.2-1-1.4-1.7l-18-66.7c-1.2-4.7-6-7.5-10.7-6.2
			c-2,0.5-3.8,1.8-5,3.6l-11.9,17.3c-0.6,1-1.8,1.4-2.9,1c-1.1-0.3-1.9-1.4-1.9-2.6v-63.8c17.8-16.3,34.7-33.5,50.8-51.5
			c1.1-1.3,1-3.2-0.3-4.3c-0.9-0.8-2.1-1-3.2-0.6c-0.5,0.2-0.9,0.4-1.2,0.8c-0.5,0.5-20.2,22.9-46.2,47.1c-1,0.9-2,1.9-3.1,2.9
			c-1,1-2.1,1.9-3.1,2.8c-15.4,14.3-32.1,27.3-49.7,38.7c-3.3,2.1-6.7,4-9.9,5.7C52.1,465,49.5,431.6,49.2,412l4.2-2.9
			c15.6-10.4,32-19.7,49-27.7c1.2-0.6,2.3-1.1,3.4-1.6c1.1-0.5,2.3-1.1,3.4-1.6c17.9-8.3,36.3-15.7,55-22.1l0.2-0.1
			c1.6-0.6,2.4-2.3,1.8-3.9c-0.6-1.6-2.3-2.4-3.9-1.8l0,0c-2.2,0.7-24.4,8.1-51.6,20.4l3.5-18.3c0.9-4.8-2.2-9.4-7-10.3
			c-2.2-0.4-4.5,0-6.4,1.2l-14.1,9.1c-0.9,0.6-2.2,0.6-3.1-0.1c-0.9-0.7-1.3-1.9-0.9-3l32.9-101.6c1.5-4.6-1-9.6-5.6-11.1
			c-2-0.6-4.1-0.6-6,0.2L87.9,243c-0.9,0.4-2,0.2-2.7-0.5c-0.8-0.7-1.1-1.7-0.8-2.7c50.2-203,300.6-194,313.9-193.4
			c0.4,0.1,0.8,0.1,1.2,0c13.2-0.6,263.7-9.6,313.9,193.4c0.3,1-0.1,2-0.8,2.7c-0.7,0.7-1.8,0.9-2.7,0.5l-16.1-6.3
			c-4.5-1.8-9.6,0.4-11.4,5c-0.8,1.9-0.8,4-0.2,6L715,349.1c0.4,1.1,0,2.3-0.9,3c-0.9,0.7-2.1,0.8-3.1,0.1l-14.1-9.1
			c-4.1-2.6-9.6-1.4-12.2,2.7c-1.2,1.9-1.6,4.2-1.2,6.4l3.5,18.3c-27.2-12.3-49.4-19.7-51.6-20.4c-1.6-0.6-3.4,0.2-3.9,1.8
			s0.2,3.4,1.8,3.9l0,0l0.2,0.1c18.7,6.4,37,13.8,55,22.1c1.2,0.5,2.3,1.1,3.4,1.6c1.1,0.5,2.3,1.1,3.4,1.6
			c36.3,17.4,77.4,42.3,89.9,70.1C790,461,790.2,472.3,785.9,482.1z"/>
		<path id="Path_10365" class="st1" d="M64.8,488.4c-13,6.9-25.1,10.6-34.9,9.1c-8.4-1.4-15.3-7.3-18-15.3
			c-4.3-9.8-4.1-21.1,0.7-30.7c6.3-14.1,20-27.5,36.8-39.4C49.6,431.7,52.2,465,64.8,488.4z"/>
		<path id="Path_10366" class="st1" d="M733,488.4c13,6.9,25.1,10.6,34.9,9.1c8.4-1.4,15.3-7.3,18-15.3c4.3-9.8,4.1-21.1-0.7-30.7
			c-6.3-14.1-20-27.5-36.8-39.4C748.2,431.7,745.6,465,733,488.4z"/>
	</g>
	<path id="Path_10367" class="st2" d="M309,619.5c-15.2,47.8-42.8,119.1-75.6,131.4c-9,3.4-19.1,1.8-26.5-4.3
		c-47.6-33.8-4.2-126.4,20.7-170.8l19.5,42.6c1.4,3.2,4.6,5.2,8,5.1h0.2c3.5,0,6.7-2.2,8-5.5L279,580c0.6-1.4,2.1-2,3.5-1.5
		c0.5,0.2,0.9,0.6,1.2,1L309,619.5z"/>
	<path id="Path_10368" class="st2" d="M593.1,746.6c-7.4,6-17.5,7.7-26.5,4.3c-32.8-12.3-60.4-83.5-75.6-131.4l25.3-39.9
		c0.8-1.2,2.5-1.6,3.7-0.8c0.5,0.3,0.8,0.7,1,1.2l15.8,38.1c1.3,3.3,4.5,5.4,8,5.4h0.2c3.5,0,6.6-2,8-5.1l19.5-42.6
		C597.3,620.3,640.8,712.9,593.1,746.6z"/>
	<path id="Path_10369" class="st3" d="M593.2,746.6c-7.4,6-17.5,7.7-26.5,4.3c-17.5-6.5-33.4-29.8-46.9-57.3
		c7.7,4.8,16.1,8.4,24.9,10.6c14.1,3.4,28.9,1.9,41.9-4.3c10.6-4.3,19.7-11.5,26.2-20.8C617.3,706.8,613.6,732.1,593.2,746.6z"/>
	<path id="Path_10370" class="st3" d="M206.9,746.6c7.4,6,17.5,7.7,26.5,4.3c17.5-6.5,33.4-29.8,46.9-57.3
		c-7.7,4.8-16.1,8.4-24.9,10.6c-14.1,3.4-28.9,1.9-41.9-4.3c-10.6-4.3-19.7-11.5-26.2-20.8C182.7,706.8,186.4,732.1,206.9,746.6z"/>
</g>
</svg>
