<?xml version="1.0" encoding="utf-8"?>
<!-- Generator: Adobe Illustrator 25.1.0, SVG Export Plug-In . SVG Version: 6.00 Build 0)  -->
<svg version="1.1" id="Layer_1" xmlns="http://www.w3.org/2000/svg" xmlns:xlink="http://www.w3.org/1999/xlink" x="0px" y="0px"
	 viewBox="0 0 800 800" style="enable-background:new 0 0 800 800;" xml:space="preserve">
<style type="text/css">
	.st0{fill:#FAE200;}
	.st1{fill:#FFFF00;}
	.st2{fill:#FFCC33;}
</style>
<g id="Group_11125" transform="translate(-7112.013 -9148.999)">
	<path id="Path_6216" d="M7878.3,9567.8l-97.2-33c-9-3.1-13.9-12.9-10.8-21.9c0,0,0,0,0,0c1.3-3.8,3.9-7.1,7.3-9.2l87.5-53.5
		c11-6.7,14.5-21.1,7.8-32.1c0,0,0,0,0,0c-4.8-7.8-13.7-12.2-22.8-11l-101.9,12.4c-9.5,1.1-18.1-5.6-19.2-15.1c0,0,0,0,0,0
		c-0.5-4,0.4-8.1,2.6-11.5l55.7-86.2c7-10.9,3.8-25.4-7-32.3l0,0c-7.7-5-17.6-5-25.3,0l-86.4,55.4c-8,5.1-18.7,2.8-23.9-5.2
		c0,0,0,0,0,0c-2.2-3.4-3.1-7.4-2.6-11.5l12.8-101.8c1.6-12.8-7.5-24.5-20.3-26.1c-9.1-1.1-18,3.1-22.8,11l-53.8,87.4
		c-5,8.1-15.6,10.6-23.7,5.7c-3.4-2.1-6-5.4-7.3-9.2l-32.7-97.3c-4.1-12.2-17.4-18.8-29.6-14.7c-8.7,2.9-14.9,10.6-15.8,19.8
		l-10.5,102.1c-1,9.5-9.5,16.4-19,15.4c-4-0.4-7.7-2.2-10.5-5.1l-71.7-73.4c-9-9.2-23.8-9.4-33.1-0.4c0,0,0,0,0,0
		c-6.5,6.4-8.8,16-5.7,24.6l34.8,96.6c3.2,9-1.4,18.9-10.4,22.1c-3.8,1.4-8,1.4-11.8,0l-96.4-35.1c-12.1-4.4-25.6,1.8-30,14
		c-3.1,8.6-1,18.3,5.6,24.7l73.2,71.9c6.8,6.7,7,17.6,0.3,24.4c-2.8,2.9-6.6,4.7-10.7,5.1l-102.1,10.2
		c-12.9,1.3-22.2,12.8-20.9,25.6c0,0,0,0,0,0c0.9,9.1,7.1,16.9,15.8,19.8l97.2,33c9,3.1,13.9,12.9,10.8,21.9c0,0,0,0,0,0
		c-1.3,3.8-3.9,7.1-7.3,9.2l-87.6,53.6c-11,6.8-14.4,21.2-7.7,32.2c0,0,0,0,0,0c4.8,7.8,13.6,12.1,22.7,11l101.9-12.4
		c9.5-1.1,18.1,5.6,19.2,15.1c0,0,0,0,0,0c0.5,4-0.5,8-2.6,11.4l-55.7,86.2c-7,10.9-3.9,25.3,7,32.3c7.7,5,17.6,5,25.3,0l86.4-55.4
		c8-5.2,18.7-2.8,23.9,5.2c2.2,3.4,3.1,7.5,2.6,11.5l-12.7,101.8c-1.6,12.8,7.5,24.5,20.3,26.1c9.1,1.1,18-3.1,22.8-10.9l53.8-87.4
		c5-8.1,15.6-10.6,23.8-5.6c3.4,2.1,6,5.4,7.3,9.2l32.7,97.3c3,9.6,12,16.1,22.1,15.9c0.9,0,1.8-0.1,2.6-0.1
		c11-1.1,19.7-9.8,20.7-20.9l10.5-102.1c1-9.5,9.5-16.4,19-15.4c4,0.4,7.7,2.2,10.5,5.1l71.7,73.4c9,9.2,23.8,9.4,33.1,0.4
		c0,0,0,0,0,0c6.6-6.4,8.8-16,5.7-24.7l-34.8-96.6c-3.2-9,1.4-18.8,10.4-22.1c0,0,0,0,0,0c3.8-1.4,8-1.4,11.8,0l96.4,35.1
		c12.1,4.4,25.6-1.8,30-14c0,0,0,0,0,0c3.1-8.6,0.9-18.3-5.6-24.7l-73.2-71.9c-6.8-6.7-6.9-17.6-0.3-24.4c0,0,0,0,0,0
		c2.8-2.9,6.6-4.7,10.6-5.1l102.1-10.2c12.9-1.3,22.2-12.8,20.9-25.6c0,0,0,0,0,0C7893.2,9578.5,7887,9570.8,7878.3,9567.8
		L7878.3,9567.8z M7887.9,9591.9c-0.7,8.2-7.3,14.6-15.4,15.2l-102.1,10.2c-12.9,1.3-22.2,12.8-20.9,25.6c0,0,0,0,0,0
		c0.5,5.4,3,10.5,6.9,14.4l73.2,71.9c6.8,6.7,6.9,17.6,0.2,24.4c-4.7,4.8-11.8,6.4-18.2,4.1l-96.5-35.1c-12.1-4.4-25.6,1.9-30,14
		c0,0,0,0,0,0c-1.9,5.1-1.9,10.8,0,15.9l34.8,96.6c3.3,9-1.4,18.9-10.3,22.1c0,0,0,0,0,0c-6.4,2.3-13.5,0.7-18.3-4.2l-71.7-73.4
		c-9-9.2-23.8-9.4-33.1-0.4c-3.9,3.8-6.4,8.9-6.9,14.4l-10.5,102.1c-1,9.5-9.5,16.4-19,15.4c-6.7-0.7-12.4-5.2-14.6-11.6l-32.7-97.3
		c-2.9-8.6-10.5-14.8-19.5-15.8c-0.9-0.1-1.8-0.2-2.7-0.2c-8.1,0-15.6,4.2-19.8,11.1l-53.8,87.4c-5,8.1-15.6,10.6-23.8,5.6
		c-5.8-3.6-8.9-10.2-8.1-16.9l12.7-101.8c1.6-12.8-7.5-24.5-20.3-26.1c-5.4-0.7-10.9,0.6-15.5,3.5l-86.4,55.4
		c-8,5.1-18.7,2.8-23.8-5.3c0,0,0,0,0,0c-3.6-5.7-3.6-13,0-18.7l55.7-86.2c7-10.8,3.9-25.3-6.9-32.3c-4.6-3-10.1-4.2-15.6-3.6
		l-101.9,12.4c-9.5,1.2-18.1-5.6-19.2-15.1c-0.8-6.7,2.4-13.3,8.1-16.8l87.5-53.5c11-6.7,14.5-21.1,7.8-32.1c0,0,0,0,0,0
		c-2.9-4.7-7.3-8.2-12.5-10l-97.2-33c-9-3.1-13.9-12.9-10.8-21.9c0,0,0,0,0,0c2.2-6.4,7.9-10.9,14.6-11.6l102.1-10.2
		c12.8-1.3,22.2-12.7,21-25.6c-0.5-5.5-3-10.6-6.9-14.4l-73.2-71.9c-6.8-6.7-6.9-17.6-0.2-24.4c0,0,0,0,0,0
		c4.7-4.8,11.9-6.4,18.2-4.1l96.5,35c12.1,4.4,25.6-1.8,30-14c0,0,0,0,0,0c1.9-5.1,1.9-10.8,0-15.9l-34.8-96.6
		c-3.3-9,1.3-18.9,10.3-22.1c0,0,0,0,0,0c6.4-2.3,13.6-0.7,18.3,4.2l71.7,73.5c9,9.3,23.8,9.4,33.1,0.4c0,0,0,0,0,0
		c3.9-3.8,6.4-8.9,6.9-14.3l10.5-102.1c1-9.5,9.5-16.3,19-15.3c6.7,0.7,12.4,5.3,14.5,11.6l32.7,97.3c4.1,12.2,17.4,18.8,29.6,14.7
		c0,0,0,0,0,0c5.2-1.7,9.6-5.3,12.5-9.9l53.9-87.4c5-8.1,15.6-10.7,23.7-5.7c5.8,3.5,9,10.2,8.1,16.9l-12.7,101.8
		c-1.6,12.8,7.5,24.5,20.3,26.1c5.4,0.7,11-0.6,15.6-3.5l86.4-55.4c8-5.1,18.7-2.8,23.9,5.2c3.7,5.7,3.6,13,0,18.7l-55.7,86.2
		c-7,10.9-3.9,25.3,7,32.3c0,0,0,0,0,0c4.6,3,10.1,4.2,15.5,3.6l101.9-12.4c9.5-1.2,18.1,5.6,19.2,15c0.8,6.7-2.4,13.3-8.2,16.9
		l-87.6,53.5c-11,6.8-14.5,21.2-7.7,32.2c0,0,0,0,0,0c2.9,4.6,7.2,8.1,12.4,9.9l97.2,33C7884.1,9576.1,7889,9583.8,7887.9,9591.9
		L7887.9,9591.9z"/>
	<path id="Path_6217" class="st0" d="M7876.3,9573.6l-97.2-33c-12.2-4.2-18.8-17.5-14.6-29.7c0,0,0,0,0,0c1.8-5.2,5.3-9.5,9.9-12.4
		l87.6-53.5c8.2-4.9,10.8-15.6,5.8-23.7c0,0,0,0,0,0c-3.5-5.8-10.1-9-16.9-8.2l-101.9,12.4c-12.8,1.6-24.5-7.6-26-20.4c0,0,0,0,0,0
		c-0.7-5.4,0.6-10.9,3.6-15.5l55.7-86.2c5.2-8,2.8-18.7-5.2-23.9v0c-5.7-3.6-13-3.7-18.7,0l-86.4,55.4c-10.9,7-25.3,3.9-32.3-7
		c0,0,0,0,0,0c-3-4.6-4.2-10.1-3.5-15.6l12.7-101.8c1.2-9.5-5.5-18.1-14.9-19.3c-6.7-0.9-13.4,2.3-16.9,8.1l-53.8,87.4
		c-6.8,11-21.2,14.4-32.2,7.7c-4.7-2.9-8.2-7.3-9.9-12.5l-32.7-97.3c-3.1-9-12.9-13.9-21.9-10.8c-6.4,2.2-10.9,7.8-11.6,14.5
		l-10.5,102.1c-1.3,12.9-12.8,22.2-25.7,20.9c0,0,0,0,0,0c-5.5-0.6-10.5-3-14.4-6.9l-71.7-73.5c-6.6-6.8-17.6-7-24.4-0.4
		c-4.9,4.7-6.5,11.9-4.2,18.3l34.8,96.6c4.4,12.2-1.9,25.6-14.1,29.9c-5.1,1.9-10.8,1.8-15.9,0l-96.4-35.1
		c-9-3.3-18.9,1.3-22.1,10.3c0,0,0,0,0,0c-2.3,6.4-0.7,13.5,4.1,18.2l73.2,71.9c9.2,9,9.4,23.8,0.4,33c0,0,0,0,0,0
		c-3.9,4-9,6.4-14.5,6.9l-102.1,10.2c-9.5,0.9-16.4,9.4-15.5,18.9c0.7,6.7,5.2,12.5,11.6,14.6l97.2,33c12.2,4.1,18.8,17.4,14.6,29.7
		c0,0,0,0,0,0c-1.8,5.2-5.3,9.6-10,12.5l-87.5,53.5c-8.1,5-10.7,15.6-5.7,23.7c3.5,5.8,10.1,9,16.8,8.1l101.9-12.4
		c12.8-1.6,24.5,7.6,26.1,20.4c0.7,5.4-0.6,10.9-3.6,15.5l-55.7,86.2c-5.2,8-2.9,18.7,5.2,23.9c5.7,3.7,13,3.7,18.7,0l86.4-55.4
		c10.9-7,25.3-3.8,32.3,7.1c3,4.6,4.2,10.1,3.5,15.5l-12.7,101.8c-1.2,9.5,5.5,18.1,15,19.3c0,0,0,0,0,0c6.7,0.9,13.3-2.3,16.9-8.1
		l53.8-87.4c4.2-6.9,11.7-11.2,19.8-11.1c0.9,0,1.8,0.1,2.7,0.2c9,1,16.7,7.2,19.5,15.8l32.7,97.3c3.1,9,12.9,13.9,21.9,10.8
		c0,0,0,0,0,0c6.4-2.2,10.9-7.9,11.6-14.6l10.5-102.1c1.3-12.8,12.8-22.2,25.6-20.9c0,0,0,0,0,0c5.4,0.6,10.5,3,14.4,6.9l71.7,73.4
		c6.6,6.8,17.6,7,24.4,0.4c0,0,0,0,0,0c4.9-4.7,6.5-11.9,4.2-18.3l-34.8-96.6c-4.4-12.1,1.9-25.6,14.1-29.9c0,0,0,0,0,0
		c5.1-1.9,10.8-1.9,15.9,0l96.5,35.1c9,3.2,18.9-1.4,22.1-10.4c0,0,0,0,0,0c2.3-6.3,0.7-13.4-4.1-18.2l-73.3-71.9
		c-9.2-9.1-9.4-23.9-0.3-33.1c3.8-3.9,8.9-6.3,14.4-6.9l102.1-10.2c9.5-1,16.4-9.5,15.4-19c0,0,0,0,0,0
		C7887.2,9581.5,7882.7,9575.8,7876.3,9573.6L7876.3,9573.6z M7511.9,9776.9c-125.9,0-227.9-102.1-227.9-227.9c0,0,0,0,0,0
		c0-125.9,102.1-227.9,227.9-227.9l0,0c125.9,0,227.9,102.1,227.9,227.9l0,0C7739.8,9674.8,7637.8,9776.9,7511.9,9776.9
		L7511.9,9776.9L7511.9,9776.9z"/>
	<path id="Path_6220" d="M7512.1,9321.1c-125.9-0.1-228,101.9-228.1,227.8c-0.1,125.9,101.9,228.1,227.8,228.2
		c125.9,0.1,228-101.9,228.1-227.8v-0.4C7739.8,9423.1,7637.8,9321.2,7512.1,9321.1z M7598.4,9753.4c-13.5,5.6-27.4,10-41.7,13.1
		c-14.7,3-29.6,4.5-44.6,4.5c-8.7,0.1-17.5-0.5-26.1-1.6c-5.3-0.8-10.6-1.6-15.5-2.4c-0.5-0.1-1.1-0.1-1.6-0.2
		c-0.7-0.1-1.5-0.3-2.2-0.5c-0.4-0.1-0.8-0.2-1.1-0.3c-0.3-0.1-0.6-0.2-0.8-0.3l-4.7-0.9c-4.8-1.1-9.5-2.4-14.1-4
		c-12.7-4-25-9.1-36.8-15.1c-1-0.4-2-0.9-2.8-1.6c-2.9-1.6-5.7-3.3-8.6-5c-2.8-1.7-5.7-3.4-8.6-5.3l-13.5-9.8
		c-2.2-1.8-4.5-3.7-6.7-5.5c-0.7-0.6-1.5-1.2-2.2-1.8c-5.7-4.9-11.2-10.1-16.4-15.7c-3.4-3.6-6.7-7.4-10-11.3
		c-3.2-3.9-6.2-8-9.1-12.1c-1.4-2.1-2.8-4.2-4.2-6.3c-3.6-5.2-6.9-10.7-9.8-16.3c-4.6-8.3-8.5-16.9-11.9-25.8
		c-2.2-5-4.1-10.2-5.5-15.4c-0.1-0.1-0.1-0.3-0.1-0.4c0,0-0.1,0-0.1,0c0,0,0,0,0,0v-0.1c-35.3-117.3,31.2-241,148.5-276.3
		c0,0,0,0,0.1,0c20.8-6.3,42.3-9.4,64-9.4c79.5,0,152.8,42.6,192.1,111.7c0.1,0.1,0.1,0.2,0.1,0.2c0.2,0.3,0.4,0.6,0.5,0.9
		c0.6,1.1,1.2,2.1,1.8,3.3c3.6,6.2,6.7,12.6,9.4,19.2c2.2,4.9,4.1,10,5.7,15.1c1.7,4.2,3,8.6,3.9,13c0.1,0.3,0.1,0.6,0.2,0.8
		c1.7,5.9,3.1,12,4.2,18c1.1,6.1,1.9,12.2,2.4,18.3c0.8,6.9,1.2,13.9,1.2,20.9C7733.7,9638,7680.4,9718.5,7598.4,9753.4z"/>
	<path id="Path_10665" class="st1" d="M7602.7,9693.9c-106,61.4-241.7,25.2-303.1-80.8c0,0-0.1,0-0.1,0c0,0,0,0,0,0v-0.1
		c-35.3-117.3,31.2-241,148.5-276.3c0,0,0,0,0.1,0c20.8-6.3,42.3-9.4,64-9.4c79.5,0,152.8,42.6,192.1,111.7c0.1,0.1,0.1,0.2,0.1,0.2
		C7733.3,9537.3,7691.3,9642.6,7602.7,9693.9z"/>
	<path id="Path_10666" class="st2" d="M7733.7,9548.9c0,89.1-53.3,169.6-135.3,204.5c-13.4,5.7-27.4,10.1-41.7,13.1
		c-14.7,3-29.6,4.5-44.6,4.5c-8.7,0.1-17.5-0.5-26.1-1.6c-5.3-0.8-10.6-1.6-15.5-2.4c-0.5-0.1-1.1-0.1-1.6-0.2
		c-0.7-0.1-1.5-0.3-2.2-0.5c-0.4-0.1-0.8-0.2-1.1-0.3c-0.3,0-0.6-0.1-0.8-0.2c-1.6-0.3-3.2-0.6-4.7-1c-4.8-1.1-9.5-2.4-14.1-4
		c-12.7-3.8-25.1-8.9-36.8-15.1c-1-0.4-2-0.9-2.8-1.6c-2.9-1.6-5.7-3.3-8.6-5c-2.8-1.7-5.7-3.4-8.6-5.2l-13.5-9.9
		c-2.4-1.8-4.6-3.6-6.7-5.5c-0.7-0.6-1.5-1.2-2.2-1.8c-5.7-4.9-11.2-10.1-16.4-15.7c-3.4-3.6-6.7-7.4-10-11.3
		c-3.2-3.9-6.2-8-9.1-12.1c-1.4-2.1-2.8-4.2-4.2-6.3c-3.6-5.2-6.9-10.7-9.8-16.3c-4.6-8.3-8.5-16.9-11.9-25.8
		c-2-5.2-4-10.3-5.5-15.4c-0.1-0.2-0.1-0.3-0.2-0.5c0,0,0,0.1,0.1,0.1c0,0,0,0,0,0c61.4,106,197.1,142.2,303.1,80.8
		c88.6-51.3,130.6-156.6,101.6-254.8c0-0.1-0.1-0.2-0.1-0.2c0.2,0.4,0.4,0.8,0.6,1.2c0.6,1.1,1.2,2.1,1.8,3.3
		c3.6,6.2,6.7,12.6,9.4,19.2c2.2,4.9,4.1,10,5.7,15.1c1.5,4.3,2.8,8.6,3.9,13c0.1,0.3,0.2,0.6,0.2,0.8c1.7,5.9,3.1,12,4.2,18
		c1.1,6.1,1.9,12.2,2.4,18.3C7733.3,9535,7733.7,9541.9,7733.7,9548.9z"/>
</g>
</svg>
