<?xml version="1.0" encoding="utf-8"?>
<!-- Generator: Adobe Illustrator 25.1.0, SVG Export Plug-In . SVG Version: 6.00 Build 0)  -->
<svg version="1.1" id="Layer_1" xmlns="http://www.w3.org/2000/svg" xmlns:xlink="http://www.w3.org/1999/xlink" x="0px" y="0px"
	 viewBox="0 0 800 800" style="enable-background:new 0 0 800 800;" xml:space="preserve">
<style type="text/css">
	.st0{fill:#FCFCFC;}
	.st1{fill:#F98F8F;}
	.st2{fill:#8DB0F7;}
</style>
<g>
	<path d="M455.5,539.9c-4.6,2.1-9.4,2.9-14.1,2.8c-11-0.1-22.2-4.8-32.6-7.5c-25.4-6.7-50.5,3-75.9,4.7c-2.2,0.2-4.3,0.3-6.4,0.2
		l-22-4.4c-3.4-2.8-5.4-6.9-7.3-10.9c-2-4.1-3.1-8.5-3.4-13l5.1-25.1c4.3-9.1,10.9-17.1,18.9-23.1c1.8-1.3,3.5-2.5,5.4-3.6
		c12.2-7.2,26.7-10.4,40.6-12.1c9-1.1,18.1-1.6,27.2-1.8c9.3-0.2,18.6-0.5,27.8-0.2c0.7,0,1.3,0,2,0.1l29.2,5.9
		c5,2.1,9.7,4.9,13.9,8.7c5.3,4.8,9.5,10.9,11.5,17.8c2.2,7.6,1.7,15.7,0.4,23.5C473.4,515.9,469.7,533.4,455.5,539.9z"/>
	<path class="st0" d="M445.3,450.3l-1.7,6.4c-5.6,4.1-11.8,8.1-18.2,10.9c-30.4,13.4-64.6,8.5-92.4-9.4c-0.2-0.1,2.5-1.3,2.4-1.5
		c-3.3,1.5,1.8-1.9-1.2,0.1l-11.1,3.4c12.2-7.2,26.7-10.4,40.6-12.1c9-1.1,18.1-1.6,27.2-1.8c9.3-0.2,18.6-0.5,27.8-0.2
		c0.7,0,1.3,0,2,0.1c1.2,0.1,2.4,0.1,3.5,0.2c1.2,0,2.3,0.2,3.4,0.3c1.5,0.2,3,0.3,4.5,0.6c2.3,0.3,4.5,0.7,6.6,1.3
		C441,449,443.1,449.6,445.3,450.3z"/>
	<path class="st1" d="M441.8,540.7l-0.4,2.1c-11-0.1-22.2-4.8-32.6-7.5c-25.4-6.7-50.5,3-75.9,4.7l-12.8-2.6l5.9,0.3
		c1.8,0.1,2,0.5,3.8,0.5c0.8,0-0.5-0.5,0.3-0.5c2.5-9,7.5-16.2,15.1-21.5c15-10.5,33.3-11.2,50.8-7.6c16.7,3.5,32.2,13.3,36,31
		C434.7,539.9,439.3,540.7,441.8,540.7z"/>
	<g>
		<g>
			<path class="st2" d="M228.2,388.6c-17.4-7.1-41.7-4.8-55.7,7.7c-4,3.6-7.7,9.1-5.6,14.1c1.3,3.1,4.6,5.1,7.9,5.5
				c3.3,0.4,6.7-0.6,9.7-1.9c7.9-3.6,14.2-9.9,21-15.3c6.8-5.4,14.9-10.1,23.6-9.6"/>
			<g>
				<path d="M228.5,387.7c-16.7-6.7-38.2-5.5-53.1,5.2c-6,4.3-14.4,13.7-7.3,20.8c7.7,7.7,19.9,0.3,26.6-4.9
					c10.3-7.9,20.2-19.3,34.4-18.7c1.2,0.1,1.2-1.8,0-1.8c-9-0.4-16.9,4.1-23.8,9.5c-7.7,6.1-15.3,14.6-25.2,16.9
					c-5.8,1.4-13.9-1.1-12.7-8.5c0.8-5.1,5.3-9.1,9.3-11.9c7-4.9,15.4-7.5,23.8-8.4c9.3-1,18.8,0.2,27.5,3.6
					C229.1,389.9,229.5,388.1,228.5,387.7L228.5,387.7z"/>
			</g>
		</g>
		<g>
			<g>
				<path d="M482.3,281.3c22.7-9.8,49.5-0.7,62,20.5c3,5.1,10.9,0.5,7.9-4.6c-6.9-11.7-17.5-20.6-30.2-25.4
					c-14.4-5.5-30.4-4.4-44.3,1.7C472.3,275.7,476.9,283.6,482.3,281.3L482.3,281.3z"/>
			</g>
			<g>
				<path d="M243.1,285.2c16.2-19.5,43.9-23.9,65.3-10.3c5,3.2,9.6-4.8,4.6-7.9c-24.6-15.7-57.7-10.8-76.5,11.7
					C232.8,283.2,239.3,289.7,243.1,285.2L243.1,285.2z"/>
			</g>
			<g>
				<path d="M376.9,424.8c2.5-6,8.1-10.5,14.4-12c6.3-1.5,13,0.5,17.8,4.9c2.7,2.5,4.7,5.6,5.8,9.1c0.4,1.2,2.3,0.7,1.9-0.5
					c-2.1-6.8-7.5-12.3-14.2-14.7c-6.9-2.5-14.6-1-20.4,3.4c-3.2,2.4-5.7,5.6-7.2,9.4C374.4,425.4,376.4,425.9,376.9,424.8
					L376.9,424.8z"/>
			</g>
			<g>
				<path d="M450.1,385c7.9-13.9,23.6-22.5,39.6-21.3c15.5,1.2,29.7,12.3,35.2,26.7c1.7,4.4,8.8,2.5,7.1-2
					c-6.6-17.3-22.5-30.1-41.1-32c-18.9-2-37.8,8.5-47.1,24.8C441.4,385.4,447.7,389.1,450.1,385L450.1,385z"/>
			</g>
			<g>
				<path class="st2" d="M527.4,403.7c-5.8,12.2-10.3,25.7-11.7,39.2c-0.3,3.1-0.4,6.5,1.7,8.8c2.8,3,8.1,2.1,11.2-0.6
					c5.5-4.6,6.8-12.6,6.6-19.7c-0.3-10-2.9-19.9-7.4-28.7"/>
				<g>
					<path d="M526.7,403.2c-3.9,8.2-7.1,16.7-9.3,25.5c-1.1,4.3-1.9,8.8-2.4,13.2c-0.3,3.2-0.6,6.9,1.3,9.6
						c3.9,5.5,11.7,2.3,15.1-1.8c4.4-5.3,5.1-12.7,4.8-19.3c-0.4-9.9-3.1-19.5-7.5-28.3c-0.5-1.1-2.1-0.1-1.6,0.9
						c4.3,8.5,6.8,17.9,7.3,27.4c0.3,7.5-0.8,18.2-8.9,21.5c-1.9,0.8-4.2,1.1-6.1,0.1c-2.3-1.2-2.9-3.9-2.9-6.3
						c-0.1-4.6,1-9.4,1.9-13.9c2.1-9.6,5.6-18.9,9.8-27.8C528.7,403.1,527.2,402.1,526.7,403.2L526.7,403.2z"/>
				</g>
			</g>
			<g>
				<path class="st2" d="M565.8,420.8c19.1-6.1,44.2-0.4,56.7,15.3c4.1,5.2,7.2,12.6,3.6,18.2c-3.7,5.9-12.8,5.8-18.7,2.1
					c-5.9-3.7-9.7-10-14.1-15.4c-7.3-9-17-16-27.8-20.4"/>
				<g>
					<path d="M566.1,421.6c17.8-5.5,39.8-1.5,53.1,12c3.7,3.7,7.1,8.6,7.6,14c0.5,5.9-3.8,10.1-9.6,10.4
						c-11.3,0.6-17.3-10.6-23.5-18.1c-7.5-9-17.1-15.8-27.8-20.2c-1.1-0.4-1.6,1.3-0.5,1.8c12.6,5.2,22.5,13.7,30.7,24.5
						c5.8,7.6,13.7,16.3,24.4,13.4c10.9-3,8.9-15.5,3.7-22.7c-5.8-8-14.7-13.4-23.9-16.4c-11.1-3.6-23.4-3.9-34.6-0.4
						C564.5,420.2,565,422,566.1,421.6L566.1,421.6z"/>
				</g>
			</g>
			<g>
				<path d="M242.8,380.2c9.6-13.6,25.8-22.2,42.5-22c16.7,0.2,32.7,9.2,42,23.1c2.6,3.9,9,0.2,6.3-3.7
					c-10.7-16-28.9-26.4-48.3-26.7c-19.4-0.3-37.8,9.9-48.9,25.6C233.8,380.4,240.2,384,242.8,380.2L242.8,380.2z"/>
			</g>
		</g>
	</g>
	<g>
		<path d="M475.7,502c1.3-7.7,1.7-15.8-0.4-23.5c-2-6.9-6.2-13-11.5-17.8c-4.2-3.8-8.9-6.6-13.9-8.7c-1.5-0.6-3-1.2-4.6-1.8
			c-2.1-0.7-4.3-1.3-6.5-1.8c-2.2-0.5-4.4-1-6.6-1.3c-1.5-0.2-3-0.4-4.5-0.6c-1.1-0.1-2.3-0.2-3.4-0.3c-1.2-0.1-2.4-0.2-3.5-0.2
			c-0.7-0.1-1.3-0.1-2-0.1c-9.2-0.3-18.5-0.1-27.8,0.2c-9.1,0.3-18.2,0.7-27.2,1.8c-14,1.7-28.4,4.9-40.6,12.1
			c-1.9,1.1-3.6,2.3-5.4,3.6c-8,5.9-14.6,14-18.9,23.1c-2.3,4.9-3.9,10.1-4.7,15.5c-0.5,3.2-0.6,6.4-0.4,9.6c0.3,4.5,1.4,8.9,3.4,13
			c2,4,3.9,8.1,7.3,10.9c0.6,0.5,1.3,1,2.1,1.4c2.7,1.5,5.8,2.1,8.8,2.4c0.1,0,0.2,0,0.3,0c0,0,0.1,0,0.1,0
			c3.5,0.5,7.1,0.6,10.6,0.6c2.2,0,4.3-0.1,6.4-0.2c25.4-1.7,50.5-11.4,75.9-4.7c10.4,2.7,21.6,7.4,32.6,7.5
			c4.7,0.1,9.5-0.7,14.1-2.8C469.7,533.4,473.4,515.9,475.7,502z M468.5,517.1c-2.1,6.8-5.3,13.6-11.3,17.7c-4.6,3.1-9.7,4.3-15,4.3
			c-2.5,0-5.2-0.3-7.7-0.7c-1.3-0.2-2.6-0.5-4-0.8c-5.8-1.3-11.5-3.3-16.7-4.8c-7.5-2.2-15-3.6-22.8-3.7c-7.2-0.1-14.4,0.7-21.6,1.8
			c-12.4,1.9-24.8,4.7-37.4,5.4c-1.3,0.1-2.6,0.2-3.9,0.2c-0.8,0-1.5,0-2.3,0c-1.8,0-3.6-0.1-5.4-0.2c-1.4-0.1-2.8-0.3-4.2-0.4
			c-0.3,0-0.5-0.1-0.8-0.1c-0.2,0-0.4,0-0.6-0.1c-5-0.8-8.8-2.6-11.5-7.2c-3.5-5.9-5.8-12.1-6-19c-0.3-14.8,7.4-29.5,18.2-39.4
			c2.1-1.9,4.3-3.6,6.6-5.2c3-2,6.2-3.7,9.5-5.2c1.3-0.6,2.7-1.1,4-1.7c7.1-2.7,14.5-4.4,21.9-5.6c16.7-2.7,33.8-2.9,50.6-3
			c11.9-0.1,24.2,0.3,35.5,4c0.3,0.1,0.6,0.2,0.9,0.3c1.1,0.4,2.1,0.7,3.2,1.2c2.6,1,5,2.3,7.4,3.7c5.8,3.6,10.8,8.4,14.1,14.5
			c3.7,6.8,4.4,14.6,3.7,22.2C472.2,502.8,470.6,510.1,468.5,517.1z"/>
	</g>
	<g>
		<path d="M431,539.9c-0.1-0.7-0.3-1.5-0.6-2.2c-2.1-7.4-6.8-13.7-12.9-18.4c-13.6-10.5-33.6-12.3-50.1-9.7
			c-15.3,2.4-30.7,11.4-35.5,26.9c-0.1,0.5-0.3,1-0.4,1.5c-0.3,1.1-1.4,1.5-2.3,1.3c-0.9-0.2-1.6-0.9-1.3-2.1c0-0.2,0.1-0.4,0.2-0.6
			c2.5-9,8.4-16.5,16-21.9c15-10.5,35.8-11.7,53.3-8.1c16.7,3.5,33.2,14.2,37,31.8c0.1,0.1,0.1,0.1,0.1,0.2
			C435,541,431.5,542.2,431,539.9z"/>
	</g>
	<g>
		<path d="M447.9,455c-0.1,0.1-0.1,0.1-0.2,0.2c-1.3,1.1-2.7,2.1-4,3.1c-5.6,4.1-11.6,7.5-17.9,10.4c-30.4,13.4-65.9,9.6-93.7-8.3
			c-0.2-0.1-0.3-0.2-0.4-0.4c-1.2-1.4,0.3-4,2.1-2.9c0.7,0.4,1.3,0.8,2,1.2c7.3,4.5,15.1,8,23.2,10.5c15.3,4.7,31.5,5.7,47.2,2.3
			c13.7-2.9,26.6-8.9,37.6-17.5c0.4-0.3,0.8-0.6,1.1-0.8c0.4-0.3,0.8-0.6,1.2-0.9C447.7,450.4,449.8,453.5,447.9,455z"/>
	</g>
</g>
</svg>
