<?xml version="1.0" encoding="utf-8"?>
<!-- Generator: Adobe Illustrator 25.1.0, SVG Export Plug-In . SVG Version: 6.00 Build 0)  -->
<svg version="1.1" id="Layer_1" xmlns="http://www.w3.org/2000/svg" xmlns:xlink="http://www.w3.org/1999/xlink" x="0px" y="0px"
	 viewBox="0 0 800 800" style="enable-background:new 0 0 800 800;" xml:space="preserve">
<style type="text/css">
	.st0{fill:#FCFCFC;}
	.st1{fill:#FFFFFF;}
	.st2{fill:#F98F8F;}
</style>
<g>
	<g>
		<g>
			<path class="st0" d="M460.1,401.4c-3.8-17.3-2.4-35.8,3.9-52.3s17.6-31.2,32-41.6c15-10.8,36.1-13.4,53.5-7
				c10.6,3.9,18,8.6,24.4,17.9c7.1,10.3,11.9,22.3,12.4,34.8c0.5,12.5-3.7,25.4-12.5,34.2c-10.3,10.4-25.4,14.3-39.8,16.2
				C509.4,406.9,484.4,407,460.1,401.4"/>
			<g>
				<path d="M461.9,400.9c-5.3-24.9,0.2-51.3,15.2-71.9c6.7-9.2,15.4-17.9,25.5-23.4c10.1-5.5,22-7.6,33.4-6.4
					c10.6,1.1,21.9,5.4,29.8,12.6c8.8,8,14.7,20,17.4,31.4c2.7,11.7,1.5,24.4-4.6,34.9c-6,10.4-16.2,16.6-27.4,20
					c-13.9,4.2-28.9,5.3-43.4,5.7c-15.9,0.5-31.7-0.8-47.2-4.3c-2.4-0.5-3.4,3.1-1,3.6c14.6,3.3,29.6,4.7,44.6,4.5
					c14-0.2,28.5-1.2,42.2-4.4c11.8-2.7,23.6-7.8,31.4-17.4c7.8-9.6,11.3-22.2,10.4-34.4c-0.9-13.1-6.3-26.1-14.3-36.5
					c-6.9-9-17.1-14.7-28-17.7c-11.7-3.3-24.5-2.9-36,1c-11.6,3.9-21.5,11.8-29.6,20.8c-20.1,22.4-28.2,53.4-22,82.8
					C458.8,404.2,462.4,403.2,461.9,400.9L461.9,400.9z"/>
			</g>
		</g>
		<g>
			<path d="M375.8,411.4c2.4-9.1,11.4-15.8,20.8-15.1c9.1,0.7,17.2,8.6,18.2,17.6c0.3,2.4,4,2.4,3.8,0c-1.3-11-10.3-20.2-21.4-21.3
				c-11.2-1.1-22.2,7-25.1,17.8C371.6,412.7,375.2,413.7,375.8,411.4L375.8,411.4z"/>
		</g>
		<g>
			<path d="M498.9,286.7c13.3-9,30.1-12.9,46-9.9c14.9,2.8,28.6,11.2,37.8,23.3c1.2,1.6,3.2,2.5,5.1,1.3c1.6-0.9,2.6-3.5,1.3-5.1
				c-16.7-22.2-45.2-32.7-72.3-25.9c-7.7,1.9-15.1,5.3-21.7,9.7C491.2,282.9,494.9,289.4,498.9,286.7L498.9,286.7z"/>
		</g>
		<circle cx="505.1" cy="362.1" r="34.8"/>
		<circle class="st0" cx="528.9" cy="345.5" r="12.8"/>
		<g>
			<path class="st1" d="M342.1,403c5.2-17,3.1-34.1-1.8-51.2c-4.9-17-12.7-33.9-26.2-45.4C300,294.3,279.2,290,261.4,295
				c-10.9,3-18.6,7.1-25.8,15.8c-7.9,9.7-13.8,21.3-15.3,33.7c-1.5,12.4,4,28.2,12,37.8c9.4,11.2,21.6,13.7,35.9,16.8
				C292.5,404.4,317.4,406.6,342.1,403"/>
			<g>
				<path d="M343.9,403.5c4.3-14.2,3.7-29,0.5-43.4c-2.9-12.8-7.3-25.7-14.1-37c-6.3-10.5-14.8-19.8-25.8-25.4
					c-10.8-5.5-23.3-7.7-35.3-6.2c-11,1.4-22.3,5.6-30.5,13.2c-9.1,8.5-16,20.6-18.9,32.7c-2.9,11.9-1,23.8,4.1,34.8
					c5,10.7,13.1,18.8,24.1,23.3c5.4,2.2,11.2,3.5,16.9,4.7c7.2,1.6,14.4,3,21.7,4.1c15,2.2,30.1,3,45.2,1.8
					c3.6-0.3,7.3-0.7,10.9-1.2c2.4-0.3,1.4-4-1-3.6c-27.5,3.9-55.4,0.6-82.2-6c-10.6-2.6-20.5-6.9-27.2-15.9
					c-6.6-9-10.8-20.9-10.3-32.1c0.5-11.9,6.2-23.6,13.3-32.9c3.3-4.4,7.2-8.4,11.9-11.3c4.5-2.8,9.6-4.7,14.7-6.1
					c11.1-3.1,23-2.5,33.8,1.2c11.2,3.9,20.5,11.4,27.5,20.9c7.9,11,12.9,23.8,16.3,36.8c4.1,15.3,5.4,31.3,0.8,46.7
					C339.6,404.8,343.2,405.8,343.9,403.5L343.9,403.5z"/>
			</g>
		</g>
		<g>
			<path d="M303.7,273.1c-12.4-7.2-27.1-10.5-41.4-9.1c-13.5,1.3-26,6.6-36.6,15c-5.8,4.6-10.8,10.2-14.8,16.5
				c-2.6,4.1,3.9,7.8,6.5,3.8c8.1-12.5,20.8-21.9,35.2-25.9c15.8-4.4,33.1-2,47.3,6.2C304.1,282,307.8,275.6,303.7,273.1
				L303.7,273.1z"/>
		</g>
		<circle cx="270.2" cy="355.9" r="34.8"/>
		<circle class="st0" cx="299" cy="341.8" r="12.8"/>
	</g>
	<g>
		<path class="st2" d="M444.2,529.4c-6.8,1.4-13.8,0.6-20.7-0.1c-7.1-0.8-14.2-1.4-21.2-1.6c-15.7-0.4-31.5,0.9-46.9,3.9
			c-7.1,1.4-14.8,4-22.1,2.4c-0.5-0.1-1-0.3-1.4-0.5c8.5-15.9,23.6-27.9,41.1-32.6c17.4-4.6,35.9-1.4,51,8.2
			C432.1,514.4,439.1,521.3,444.2,529.4z"/>
		<g>
			<path d="M330.9,527.5c-10.2-22.6,2.3-47.3,20.4-61.6c17.7-14,41.7-19.7,63.4-12.3c10.6,3.6,20,10.2,26.8,19.1
				c6.8,8.9,11.3,19.7,13.6,30.7c1.2,5.7,1.5,12-1.7,17.1c-2.8,4.5-7.8,7.2-12.8,8.5c-6,1.5-12.3,1.1-18.4,0.4
				c-6.6-0.7-13.2-1.4-19.9-1.6c-14.3-0.5-28.6,0.6-42.7,3.2c-7,1.3-14.8,4.2-22,2.5c-5.4-1.3-7-6.2-8.6-11c-0.8-2.3-4.4-1.3-3.6,1
				c1.4,4.3,3,9.1,7,11.8c4.9,3.3,11.7,2.6,17.2,1.6c7.4-1.4,14.7-3,22.1-4c7.2-0.9,14.4-1.4,21.6-1.5c7.2-0.1,14.4,0.2,21.6,0.9
				c7.3,0.7,14.6,1.9,21.9,1.1c11.1-1.3,21.3-7.9,22.7-19.7c0.7-6.1-0.8-12.3-2.6-18.1c-1.8-5.9-4.1-11.6-7.1-17
				c-5.9-10.6-14.5-19.4-25.3-25c-22-11.3-48.5-8.5-69.1,4.7c-11.4,7.3-21.3,17.6-26.9,29.9c-5.9,13-6.7,27.9-0.8,41
				C328.6,531.6,331.8,529.7,330.9,527.5L330.9,527.5z"/>
		</g>
		<g>
			<path d="M336,533.8c7.5-14.6,21.1-25.6,36.8-30.2c16.1-4.7,33.4-1.9,47.6,6.9c8,5,14.7,11.8,19.6,19.8c1.2,2.1,4.5,0.2,3.2-1.9
				c-9.2-15.3-24.9-26.2-42.3-29.7c-17.1-3.4-35,0.8-49.1,11.1c-7.9,5.8-14.5,13.3-19.1,22.1C331.6,534.1,334.8,536,336,533.8
				L336,533.8z"/>
		</g>
		<g>
			<path d="M350.4,466.8c26.3,13.8,58.5,14.1,85.1,1c2.2-1.1,0.3-4.3-1.9-3.2c-25.4,12.5-56.3,12.1-81.4-1
				C350.2,462.4,348.3,465.7,350.4,466.8L350.4,466.8z"/>
		</g>
		<path d="M457.4,507.9c0.9,5.6,0.5,11.6-2.8,16.3c-2.4,3.3-6,5.6-9.8,6.9c-9.1-15.3-24.4-26.5-41.4-30.6
			c-17.8-4.3-36.4-0.3-51.3,10.4c-8.2,5.9-15,13.6-19.7,22.6c-1.3-1.4-2.3-3.2-3-5.1c-0.5-1.1-0.9-2.3-1.3-3.5l0-0.2
			c-6.7-22.2,5.3-45.4,22.5-59.2c18.6-14.9,43.9-20.6,66.5-11.8C439.2,462.3,453.8,484.5,457.4,507.9z"/>
		<path class="st1" d="M433.6,464.7c-24.9,12.2-55.2,12.1-80-0.4c17.9-13.2,41.6-17.9,62.7-10C422.8,456.7,428.6,460.3,433.6,464.7z
			"/>
	</g>
</g>
</svg>
