<?xml version="1.0" encoding="utf-8"?>
<!-- Generator: Adobe Illustrator 25.1.0, SVG Export Plug-In . SVG Version: 6.00 Build 0)  -->
<svg version="1.1" id="Layer_1" xmlns="http://www.w3.org/2000/svg" xmlns:xlink="http://www.w3.org/1999/xlink" x="0px" y="0px"
	 viewBox="0 0 800 800" style="enable-background:new 0 0 800 800;" xml:space="preserve">
<style type="text/css">
	.st0{fill:#F9F7F7;}
	.st1{fill:#FFFFFF;}
</style>
<g>
	<g>
		<path d="M352.2,523.8c11.1-14.5,29.2-23.1,47.3-23.6c19.1-0.6,37.6,7.3,51.7,19.9c3.3,3,8.2-1.9,4.9-4.9
			c-15.7-14.1-36.5-22.9-57.8-21.9c-20.4,1-39.7,10.7-52.1,27C343.5,523.8,349.5,527.3,352.2,523.8L352.2,523.8z"/>
	</g>
	<g>
		<path d="M377.4,430.8c4.1-8.6,12.8-14.9,22.4-15.2c9.6-0.4,18.8,5,23.5,13.4c1.5,2.6,5.5,0.3,4-2.3c-5.5-9.7-16.3-16.1-27.5-15.7
			c-11.2,0.4-21.6,7.4-26.4,17.5C372.2,431.1,376.2,433.5,377.4,430.8L377.4,430.8z"/>
	</g>
	<g>
		<g>
			<path class="st0" d="M478.1,340.8c-6.4,17.1-12.1,40.4-12.6,58.7c-0.1,1.7,0,3.6,1.1,4.8c1.1,1.1,2.7,1.4,4.3,1.6
				c17.3,2.1,34.9,2.1,52.1-0.1c14.7-1.8,29.4-5.2,42.4-12.5c12.9-7.3,23.9-18.8,28.1-33c3.2-10.5,4.2-20.6,0.8-31
				c-3-9.2-8.5-18.8-15.9-25c-7.4-6.2-20.2-8.3-29.8-7.6c-9.9,0.7-17.1,4.1-25.4,9.7c-18.4,12.5-32.2,18.7-45.9,36.3"/>
			<g>
				<path d="M475.9,340.1c-4.8,12.9-8.4,26.3-10.6,39.8c-1.1,6.4-2,13-2.1,19.5c-0.1,6.3,3.4,8.2,9.2,8.9
					c15.8,1.8,31.9,1.8,47.7,0.1c14.1-1.5,28.2-4.3,41.1-10.4c23.6-11.1,41.1-35.3,37-62.3c-1.9-12.5-9-26.2-19.2-34
					c-9.1-7-22.4-8.6-33.5-7.1c-14.5,1.9-25.9,11.4-37.9,19.1c-12,7.7-23,16-31.9,27.2c-1.8,2.3,1.4,5.6,3.3,3.3
					c6.9-8.8,15.1-15.9,24.3-22.2c4.5-3,9.1-5.9,13.6-8.8c4.9-3.2,9.6-6.7,14.8-9.4c10.1-5.3,22.1-6.3,33.1-3.5
					c12.2,3.1,20,12.6,24.9,23.8c10.7,24.2-0.7,51.3-22.2,65.1c-22,14.2-51.2,16.5-76.7,15.8c-4-0.1-8-0.3-11.9-0.6
					c-2-0.2-4-0.3-5.9-0.6c-2.7-0.3-5.3-0.7-5.3-3.8c-0.1-6.4,1-13.1,2-19.4c2.3-13.3,5.8-26.5,10.5-39.2
					C481.4,338.6,476.9,337.4,475.9,340.1L475.9,340.1z"/>
			</g>
		</g>
		<g>
			<path d="M461.6,364.8c31.3-45.3,82.5-74.1,137.5-77.5c5.9-0.4,6-9.6,0-9.2c-45.6,2.8-89.2,21.8-121.8,53.8
				c-8.8,8.6-16.6,18.1-23.6,28.2C450.2,365,458.2,369.6,461.6,364.8L461.6,364.8z"/>
		</g>
		<circle cx="518.1" cy="360.9" r="35.7"/>
		<circle class="st1" cx="495.4" cy="347.9" r="13"/>
	</g>
	<g>
		<g>
			<path class="st0" d="M325.2,339.1c7.4,16.7,14.5,39.6,16.2,57.8c0.2,1.7,0.2,3.6-0.8,4.9c-1,1.2-2.6,1.6-4.2,1.9
				c-17.1,3.1-34.7,4.2-52.1,3.2c-14.8-0.9-29.7-3.4-43-9.8c-13.3-6.5-25-17.3-30.1-31.2c-3.8-10.3-5.5-20.3-2.7-30.9
				c2.4-9.3,7.3-19.3,14.3-26s19.6-9.5,29.2-9.4c9.9,0.1,17.4,3,25.9,8.1c19.1,11.4,33.3,16.7,48.1,33.4"/>
			<g>
				<path d="M323.3,340.2c5,11.2,9,23,12,34.9c1.4,5.7,2.7,11.5,3.5,17.3c0.4,3.1,1.7,6.9-1.6,8.7c-1.2,0.7-3.5,0.7-4.8,0.9
					c-2.1,0.3-4.2,0.7-6.3,0.9c-13.7,1.8-27.6,2.3-41.4,1.5c-13.4-0.8-27-2.9-39.4-8.3c-22-9.7-39.6-32.6-35-57.8
					c2.1-11.1,8.1-24.6,18.1-30.7c9.3-5.7,22.1-7.3,32.7-4.9c6.6,1.5,12.4,4.7,18.2,8.1c5.4,3.1,10.8,6.1,16.2,9.1
					c10.9,6.2,20.7,13.2,29.1,22.5c2,2.2,5.2-1.1,3.3-3.3c-8.2-9.2-17.9-16.3-28.6-22.4c-5.7-3.3-11.5-6.3-17.1-9.6
					c-5.6-3.3-11.2-6.5-17.5-8.3c-11.4-3.2-24.4-2-35.1,3c-11.4,5.3-18.3,17.3-22,28.9c-8.3,25.9,6,53.1,28.8,66
					c12.2,7,26.2,10.2,40,11.6c15.9,1.7,32,1.4,47.8-0.6c4.2-0.5,8.3-1.1,12.4-1.9c2.8-0.5,5.7-1.3,6.9-4.2c1.2-2.8,0.4-6.2,0-9.1
					c-0.5-3.5-1.1-7-1.8-10.5c-3.1-15.2-8.1-30.1-14.3-44.3C326,335.2,322.1,337.5,323.3,340.2L323.3,340.2z"/>
			</g>
		</g>
		<g>
			<path d="M350.4,356.2c-27.3-34.7-66.6-59.2-109.9-68.2c-13-2.7-26.2-4-39.5-4c-5.9,0-6,9.2,0,9.2c55.7,0,108.4,25.8,142.9,69.5
				C347.5,367.4,354,360.8,350.4,356.2L350.4,356.2z"/>
		</g>
		<circle cx="286.7" cy="361.6" r="35.7"/>
		<circle class="st1" cx="308.5" cy="347.2" r="13"/>
	</g>
</g>
</svg>
