<?xml version="1.0" encoding="utf-8"?>
<!-- Generator: Adobe Illustrator 25.1.0, SVG Export Plug-In . SVG Version: 6.00 Build 0)  -->
<svg version="1.1" id="Layer_1" xmlns="http://www.w3.org/2000/svg" xmlns:xlink="http://www.w3.org/1999/xlink" x="0px" y="0px"
	 viewBox="0 0 800 800" style="enable-background:new 0 0 800 800;" xml:space="preserve">
<style type="text/css">
	.st0{fill:#97ED8A;}
	.st1{fill:#45BF55;}
	.st2{fill:#FAE200;}
	.st3{fill:#F2B407;}
</style>
<g id="Group_8692" transform="translate(0 0)">
	<path id="Path_6169" class="st0" d="M635.7,528.3l17.6,102.5l-158.2,94.9L411.8,682c-7.2-3.8-15.9-3.8-23.1,0l-83.5,44L147,631.1
		l17.5-102.5c2.2-13.2-2.1-26.7-11.7-36L50.2,392.6L87,259.5l90.7-13.2c49.4-7.2,92.1-38.3,114.2-83l47.8-96.9
		c11.1-23.2,34.6-37.8,60.3-37.5h0c25.7-0.3,49.2,14.3,60.2,37.4l47.9,96.9c22.1,44.8,64.9,75.8,114.3,82.9l90.7,13.1l36.8,133.2
		l-102.5,100C637.8,501.7,633.5,515.1,635.7,528.3z"/>
	<path id="Path_6170" class="st1" d="M611.4,512.8c3.5,20.2,22.8,71.6,15.5,89.9c-6.2,15.6-52.3,33.6-67.2,42.5
		c-17.6,10.6-54.1,43.3-74.8,44.4c-27.8,1.4-55.1-41.9-84.7-41.6c-29.4,0.3-56.9,43.1-84.5,41.6c-21.1-1.1-57-33.2-75.2-44.2
		c-14.3-8.6-60.7-26.3-67.3-41.3c-3.8-8.5,6.2-36.2,7.7-45.2c2.5-14.5,7.6-30.8,7.8-45.6c0.4-35.2-39-60.5-62.2-83.1
		C105,409.5,85,402.2,90.9,373.8c3.8-18.1,10-36.1,14.9-54c2.7-9.9,5.4-40.4,13.1-47.4c13.1-12,62.3-9,80.7-12.4
		c50.4-9.3,84.8-38.3,107.6-83.3c14.9-29.4,27-73.4,51.9-96.3c83.1-76.1,124.1,101.3,163.2,140.6c36.4,36.6,84.6,39.8,132.6,46.7
		c16.1,2.3,20.5,0.3,27.8,11.3c10.4,15.5,12.6,45.7,17.6,63.8c2.8,10.3,15.7,36.9,13.1,47.5c-1.8,7.5-18.1,18.5-23.6,23.9
		C668.6,434.9,605.3,477.7,611.4,512.8z"/>
	<path id="Path_6171" d="M771,380.7c29.1-28.4,29.6-75.1,1.2-104.2c-11.3-11.6-26.1-19.1-42.1-21.4l-106.9-15.5
		c-47.3-6.8-88.2-36.5-109.4-79.4l-47.9-96.9c-12.3-25.2-38-41.1-66-41h0c-28.1-0.1-53.7,15.9-66,41.1l-47.8,96.9
		c-21.1,42.9-62,72.6-109.3,79.5L69.8,255.4C29.5,261.3,1.7,298.8,7.6,339c2.3,16,9.9,30.8,21.5,42.1l119.3,116.1
		c8.1,7.9,11.8,19.2,9.9,30.3l-28.1,164c-7,40,19.9,78.1,59.9,85.1c16.1,2.8,32.6,0.2,47-7.5l154.6-81.4c5.3-2.8,11.7-2.8,17.1,0
		L563.5,769c36,18.9,80.6,5,99.5-31c7.5-14.3,10.1-30.7,7.4-46.7l-28.2-164c-1.9-11.1,1.7-22.4,9.8-30.3L771,380.7z M729.2,261.4
		c36.7,5.3,62.2,39.4,56.9,76.2c-2.1,14.6-9,28.1-19.6,38.4l-11.4,11.1l-35.1-127L729.2,261.4z M33.6,376.4
		C7,350.6,6.4,308,32.3,281.4c10.3-10.6,23.8-17.5,38.5-19.6l9.2-1.3l-35.1,127L33.6,376.4z M234,763.4
		c-32.8,17.3-73.5,4.7-90.8-28.2c-6.9-13.1-9.3-28.1-6.8-42.6l9.3-54.7l152.6,91.6L234,763.4z M664,692.3
		c6.3,36.6-18.3,71.3-54.8,77.6c-14.6,2.5-29.5,0.1-42.6-6.7l-64.6-33.9l152.7-91.6L664,692.3z M635.8,528.3l17.6,102.5l-158.2,94.9
		L411.8,682c-7.2-3.8-15.9-3.8-23.1,0l-83.5,44L147,631.1l17.5-102.5c2.2-13.2-2.1-26.7-11.7-36l-102.6-100L87,259.4l90.7-13.2
		c49.4-7.2,92.1-38.3,114.2-83l47.8-96.9c11.1-23.2,34.6-37.8,60.3-37.5h0c25.7-0.3,49.2,14.3,60.2,37.4l47.9,96.9
		c22.1,44.8,64.8,75.8,114.3,82.9l90.7,13.1l36.8,133.2l-102.4,100C637.8,501.6,633.5,515.1,635.8,528.3L635.8,528.3z"/>
	<path id="Path_6172" class="st2" d="M766.5,376.1l-11.4,11.1l-35.1-127l9.2,1.3c36.7,5.3,62.2,39.4,56.9,76.2
		C784,352.3,777.1,365.8,766.5,376.1z"/>
	<path id="Path_6173" class="st2" d="M637.3,758.1c-20.6,15.3-48.2,17.4-70.8,5.1l-64.6-33.9l152.7-91.6l9.4,54.7
		C668.6,717.6,658.2,743.2,637.3,758.1z"/>
	<path id="Path_6174" class="st2" d="M80,260.5l-35.1,127l-11.3-11C7,350.6,6.4,308,32.3,281.5c10.3-10.6,23.8-17.5,38.5-19.6
		L80,260.5z"/>
	<path id="Path_6175" class="st2" d="M298.4,729.5L234,763.4c-32.8,17.3-73.5,4.7-90.8-28.2c-6.9-13.1-9.3-28.1-6.8-42.6l9.3-54.7
		L298.4,729.5z"/>
	<path id="Path_6181" class="st3" d="M740.9,277.6c-2.3,0-4.2,1.9-4.2,4.2s1.9,4.2,4.2,4.2c2.3,0,4.2-1.9,4.2-4.2
		C745.1,279.5,743.2,277.6,740.9,277.6C740.9,277.6,740.9,277.6,740.9,277.6z"/>
	<path id="Path_6182" class="st3" d="M757.8,347c-2.3,0-4.2,1.9-4.2,4.2s1.9,4.2,4.2,4.2c2.3,0,4.2-1.9,4.2-4.2
		C762.1,348.9,760.2,347,757.8,347C757.9,347,757.8,347,757.8,347z"/>
	<path id="Path_6183" class="st3" d="M773.4,326.9c-2.3,0-4.2,1.9-4.2,4.2s1.9,4.2,4.2,4.2c2.3,0,4.2-1.9,4.2-4.2l0,0
		C777.6,328.8,775.7,326.9,773.4,326.9z"/>
	<path id="Path_6184" class="st3" d="M750.6,319.2c-1.1,0-1.9,0.9-1.9,1.9c0,1.1,0.9,1.9,1.9,1.9s1.9-0.9,1.9-1.9l0,0
		C752.5,320.1,751.6,319.2,750.6,319.2L750.6,319.2z"/>
	<path id="Path_6185" class="st3" d="M763,298.2c-3.4,0-6.1,2.8-6.1,6.1c0,3.4,2.8,6.1,6.1,6.1c3.4,0,6.1-2.8,6.1-6.1
		C769.2,300.9,766.4,298.2,763,298.2C763,298.2,763,298.2,763,298.2z"/>
	<path id="Path_6186" class="st3" d="M63.2,272.8c-2.5,0-4.6,2-4.6,4.5c0,2.5,2,4.6,4.5,4.6c2.5,0,4.6-2,4.6-4.5l0,0
		C67.7,274.9,65.7,272.8,63.2,272.8z"/>
	<path id="Path_6187" class="st3" d="M38.3,346.5c-3.2,0-5.8,2.6-5.8,5.9c0,3.2,2.6,5.8,5.9,5.8s5.8-2.6,5.8-5.9c0,0,0,0,0,0l0,0
		C44.2,349.1,41.5,346.5,38.3,346.5z"/>
	<path id="Path_6188" class="st3" d="M48.6,320.9c-1.7,0-3,1.4-3,3c0,1.7,1.4,3,3,3s3-1.4,3-3l0,0C51.6,322.3,50.3,320.9,48.6,320.9
		z"/>
	<path id="Path_6189" class="st3" d="M21.7,324.3c-0.7,0-1.3,0.6-1.3,1.3c0,0.7,0.6,1.3,1.3,1.3c0.7,0,1.3-0.6,1.3-1.3l0,0
		C22.9,324.9,22.4,324.3,21.7,324.3C21.7,324.3,21.7,324.3,21.7,324.3z"/>
	<path id="Path_6190" class="st3" d="M35.5,293.8c-3.9,0-7.1,3.2-7.1,7.1c0,3.9,3.2,7.1,7.1,7.1s7.1-3.2,7.1-7.1l0,0l0,0
		C42.6,297,39.4,293.8,35.5,293.8L35.5,293.8L35.5,293.8z"/>
	<path id="Path_6191" class="st3" d="M164.1,671.5c-4.3,0-7.9,3.5-7.9,7.9c0,4.3,3.5,7.9,7.9,7.9c4.3,0,7.9-3.5,7.9-7.9l0,0
		C172,675.1,168.4,671.5,164.1,671.5z"/>
	<path id="Path_6192" class="st3" d="M254.4,718.3c-2.2,0-4,1.8-4,4c0,2.2,1.8,4,4,4c2.2,0,4-1.8,4-4
		C258.5,720.1,256.7,718.3,254.4,718.3C254.4,718.3,254.4,718.3,254.4,718.3z"/>
	<path id="Path_6193" class="st3" d="M227.2,739.3c-2.2,0-4,1.8-4,4c0,2.2,1.8,4,4,4c2.2,0,4-1.8,4-4l0,0
		C231.3,741.1,229.5,739.3,227.2,739.3z"/>
	<path id="Path_6194" class="st3" d="M204.5,700.2c-3.4,0-6.2,2.8-6.2,6.2c0,3.4,2.8,6.2,6.2,6.2c3.4,0,6.2-2.8,6.2-6.2
		C210.7,703,207.9,700.2,204.5,700.2C204.5,700.2,204.5,700.2,204.5,700.2z"/>
	<path id="Path_6195" class="st3" d="M179.2,727.5c-5.5,0-9.9,4.4-9.9,9.9c0,5.5,4.4,9.9,9.9,9.9c5.5,0,9.9-4.4,9.9-9.9l0,0
		C189.2,731.9,184.7,727.5,179.2,727.5L179.2,727.5z"/>
	<path id="Path_6196" class="st3" d="M597.4,739.3c-5.5,0-9.9,4.4-9.9,9.9c0,5.5,4.4,9.9,9.9,9.9c5.5,0,9.9-4.4,9.9-9.9l0,0l0,0
		C607.4,743.8,602.9,739.3,597.4,739.3z"/>
	<path id="Path_6197" class="st3" d="M633,668.2c-6.9,0-12.6,5.6-12.6,12.6c0,6.9,5.6,12.6,12.6,12.6c6.9,0,12.6-5.6,12.6-12.6l0,0
		l0,0C645.5,673.8,639.9,668.2,633,668.2z"/>
	<path id="Path_6198" class="st3" d="M575.6,703.5c-3.4,0-6.2,2.8-6.2,6.2c0,3.4,2.8,6.2,6.2,6.2c3.4,0,6.2-2.8,6.2-6.2l0,0l0,0
		C581.8,706.3,579,703.5,575.6,703.5z"/>
	<path id="Path_6199" class="st3" d="M628.7,714c-2.4,0-4.3,1.9-4.3,4.3c0,2.4,1.9,4.3,4.3,4.3c2.4,0,4.3-1.9,4.3-4.3l0,0
		C633,715.9,631,714,628.7,714z"/>
	<path id="Path_6200" class="st3" d="M546.9,728.3c-2.4,0-4.3,1.9-4.3,4.3c0,2.4,1.9,4.3,4.3,4.3c2.4,0,4.3-1.9,4.3-4.3
		C551.2,730.2,549.3,728.3,546.9,728.3L546.9,728.3z"/>
</g>
</svg>
