<?xml version="1.0" encoding="utf-8"?>
<!-- Generator: Adobe Illustrator 25.1.0, SVG Export Plug-In . SVG Version: 6.00 Build 0)  -->
<svg version="1.1" id="Layer_1" xmlns="http://www.w3.org/2000/svg" xmlns:xlink="http://www.w3.org/1999/xlink" x="0px" y="0px"
	 viewBox="0 0 800 800" style="enable-background:new 0 0 800 800;" xml:space="preserve">
<style type="text/css">
	.st0{fill:#F9F7F7;}
	.st1{fill:#FFFFFF;}
</style>
<g>
	<g>
		<path d="M372.2,226.7c6.4-8.4,16.9-13.4,27.5-13.7c11.1-0.3,21.8,4.2,30,11.6c1.9,1.7,4.8-1.1,2.8-2.8
			c-9.1-8.2-21.2-13.3-33.5-12.7c-11.9,0.6-23,6.2-30.3,15.7C367.2,226.8,370.7,228.8,372.2,226.7L372.2,226.7z"/>
	</g>
	<g>
		<path d="M386.9,172.7c2.4-5,7.4-8.6,13-8.8c5.6-0.2,10.9,2.9,13.7,7.8c0.9,1.5,3.2,0.2,2.3-1.4c-3.2-5.6-9.5-9.3-16-9.1
			c-6.5,0.2-12.6,4.3-15.3,10.2C383.9,172.9,386.2,174.3,386.9,172.7L386.9,172.7z"/>
	</g>
	<g>
		<g>
			<path class="st0" d="M445.4,120.5c-3.7,9.9-7,23.5-7.3,34.1c0,1,0,2.1,0.7,2.8c0.6,0.7,1.6,0.8,2.5,0.9c10,1.2,20.2,1.2,30.3,0
				c8.5-1,17.1-3,24.6-7.2c7.5-4.2,13.9-10.9,16.3-19.2c1.8-6.1,2.4-12,0.5-18c-1.7-5.3-4.9-10.9-9.2-14.5
				c-4.3-3.6-11.7-4.8-17.3-4.4c-5.8,0.4-10,2.4-14.7,5.6c-10.7,7.3-18.7,10.9-26.6,21.1"/>
			<g>
				<path d="M444.1,120.1c-2.8,7.5-4.9,15.2-6.2,23.1c-0.6,3.7-1.2,7.5-1.2,11.3c-0.1,3.7,2,4.8,5.3,5.2c9.2,1,18.5,1.1,27.7,0.1
					c8.2-0.9,16.4-2.5,23.9-6c13.7-6.4,23.9-20.5,21.5-36.2c-1.1-7.2-5.2-15.2-11.1-19.7c-5.3-4-13-5-19.5-4.1
					c-8.4,1.1-15.1,6.6-22,11.1c-7,4.5-13.4,9.3-18.5,15.8c-1.1,1.3,0.8,3.3,1.9,1.9c4-5.1,8.8-9.3,14.1-12.9
					c2.6-1.8,5.3-3.4,7.9-5.1c2.8-1.8,5.6-3.9,8.6-5.5c5.9-3.1,12.8-3.6,19.2-2c7.1,1.8,11.6,7.3,14.5,13.8
					c6.2,14.1-0.4,29.8-12.9,37.8c-12.8,8.2-29.7,9.6-44.6,9.2c-2.3-0.1-4.6-0.2-6.9-0.4c-1.2-0.1-2.3-0.2-3.5-0.3
					c-1.6-0.2-3.1-0.4-3.1-2.2c-0.1-3.7,0.6-7.6,1.2-11.3c1.3-7.7,3.4-15.4,6.1-22.7C447.3,119.2,444.7,118.5,444.1,120.1
					L444.1,120.1z"/>
			</g>
		</g>
		<g>
			<path d="M435.7,134.4c18.2-26.3,47.9-43,79.8-45c3.4-0.2,3.5-5.6,0-5.4c-26.5,1.6-51.8,12.7-70.7,31.3c-5.1,5-9.7,10.5-13.7,16.4
				C429.1,134.6,433.8,137.2,435.7,134.4L435.7,134.4z"/>
		</g>
		<circle cx="468.5" cy="132.1" r="20.7"/>
		<circle class="st1" cx="455.4" cy="124.6" r="7.5"/>
	</g>
	<g>
		<g>
			<path class="st0" d="M356.6,119.5c4.3,9.7,8.4,23,9.4,33.6c0.1,1,0.1,2.1-0.5,2.8c-0.6,0.7-1.5,0.9-2.4,1.1
				c-10,1.8-20.1,2.4-30.2,1.8c-8.6-0.5-17.3-2-25-5.7c-7.7-3.8-14.5-10-17.5-18.1c-2.2-6-3.2-11.8-1.6-17.9
				c1.4-5.4,4.2-11.2,8.3-15.1c4-3.9,11.4-5.5,17-5.5c5.8,0.1,10.1,1.7,15,4.7c11.1,6.6,19.3,9.7,27.9,19.4"/>
			<g>
				<path d="M355.4,120.2c2.9,6.5,5.2,13.3,6.9,20.3c0.8,3.3,1.5,6.7,2,10.1c0.2,1.8,1,4-0.9,5.1c-0.7,0.4-2,0.4-2.8,0.5
					c-1.2,0.2-2.5,0.4-3.7,0.6c-8,1.1-16,1.3-24,0.9c-7.8-0.5-15.7-1.7-22.9-4.8c-12.8-5.6-23-18.9-20.3-33.5
					c1.2-6.5,4.7-14.3,10.5-17.8c5.4-3.3,12.8-4.2,19-2.9c3.8,0.9,7.2,2.7,10.6,4.7c3.1,1.8,6.3,3.5,9.4,5.3
					c6.3,3.6,12,7.7,16.9,13.1c1.2,1.3,3-0.6,1.9-1.9c-4.8-5.3-10.4-9.5-16.6-13c-3.3-1.9-6.7-3.7-10-5.6c-3.3-1.9-6.5-3.8-10.2-4.8
					c-6.6-1.9-14.2-1.1-20.4,1.7c-6.6,3.1-10.6,10.1-12.8,16.8c-4.8,15.1,3.5,30.8,16.7,38.3c7.1,4,15.2,5.9,23.2,6.8
					c9.2,1,18.6,0.8,27.8-0.3c2.4-0.3,4.8-0.6,7.2-1.1c1.6-0.3,3.3-0.8,4-2.4c0.7-1.6,0.2-3.6,0-5.3c-0.3-2-0.6-4.1-1-6.1
					c-1.8-8.8-4.7-17.5-8.3-25.7C357.1,117.2,354.7,118.6,355.4,120.2L355.4,120.2z"/>
			</g>
		</g>
		<g>
			<path d="M371.2,129.4c-15.9-20.1-38.7-34.4-63.8-39.6c-7.5-1.6-15.2-2.3-22.9-2.3c-3.5,0-3.5,5.4,0,5.4c32.3,0,63,15,82.9,40.3
				C369.5,135.9,373.3,132.1,371.2,129.4L371.2,129.4z"/>
		</g>
		<circle cx="334.2" cy="132.6" r="20.7"/>
		<circle class="st1" cx="346.9" cy="124.2" r="7.5"/>
	</g>
</g>
</svg>
