<?xml version="1.0" encoding="utf-8"?>
<!-- Generator: Adobe Illustrator 25.1.0, SVG Export Plug-In . SVG Version: 6.00 Build 0)  -->
<svg version="1.1" id="Layer_1" xmlns="http://www.w3.org/2000/svg" xmlns:xlink="http://www.w3.org/1999/xlink" x="0px" y="0px"
	 viewBox="0 0 800 800" style="enable-background:new 0 0 800 800;" xml:space="preserve">
<style type="text/css">
	.st0{fill:#FCFCFC;}
	.st1{fill:#0C0A0A;}
	.st2{fill:#FFFFFF;}
	.st3{fill:#F98F8F;}
</style>
<g>
	<g>
		<path d="M470.6,76.3c21.4-5.2,45.4,3.6,58.2,21.5c2.6,3.7,8.6,0.1,6-3.6c-14.7-20.6-41.6-30.6-66.1-24.6
			C464.3,70.6,466.3,77.4,470.6,76.3L470.6,76.3z"/>
	</g>
	<g>
		<path d="M331,62.6c-24.8-5.2-51.3,5.7-65.3,26.7c-2.5,3.8,3.6,7.2,6.1,3.4c12.2-18.3,35.9-27.9,57.5-23.3
			C333.6,70.4,335.4,63.6,331,62.6L331,62.6z"/>
	</g>
	<g>
		<path class="st0" d="M438.9,149.3c-0.2-11.2,1.6-22.6,6.4-32.8c4.8-10.2,12.7-19,22.8-23.9c10.1-4.9,22.4-5.5,32.6-0.7
			c10.1,4.8,17.6,15.4,17.8,26.6c0.2,10.8-6.2,21-14.9,27.3c-8.7,6.3-19.5,9.2-30.3,10.2C461.4,157.1,449.1,155.5,438.9,149.3"/>
		<g>
			<path d="M440.3,149.3c-0.2-15.6,3.4-31.7,13.7-43.8c9.7-11.4,24.8-18.1,39.7-14.6c13.4,3.2,24.2,15.6,23.3,29.7
				c-1,15.2-13.9,26.1-27.5,30.6c-16,5.3-35.2,5.5-50-3.2c-1.6-0.9-2.9,1.5-1.4,2.4c14.3,8.4,32.2,8.7,48,4.7
				c14.9-3.9,29.3-13.9,32.9-29.7c3.3-14.3-5-29-18.1-35c-14.7-6.8-32.1-2.6-43.9,7.8c-14.5,12.7-19.9,32.3-19.6,51
				C437.5,151.2,440.3,151.1,440.3,149.3L440.3,149.3z"/>
		</g>
	</g>
	<g>
		<path class="st0" d="M362.2,147.6c0.5-11.2-1.1-22.7-5.7-32.9s-12.3-19.3-22.3-24.4c-10-5.1-22.3-6-32.6-1.4
			c-10.3,4.6-18,15-18.4,26.2c-0.4,10.8,5.7,21.1,14.3,27.6s19.3,9.6,30,10.9C339.5,154.9,351.9,153.5,362.2,147.6"/>
		<g>
			<path d="M363.6,147.6c0.6-16.7-3.2-33.9-14.2-46.9c-10.2-12-26.1-18.8-41.8-15.2c-14.1,3.2-25.7,16-25.7,30.8
				c0.1,15.8,12.4,28.4,26.3,34c17,6.9,38.4,7.7,54.8-1.4c1.6-0.9,0.1-3.3-1.5-2.4c-13.6,7.6-30.4,7.5-45.1,3.6
				c-14.1-3.8-27.6-13.1-31-28.1c-3.1-13.8,5.9-27.8,18.9-32.6c14.4-5.2,30.3,0,40.7,10.7c12.3,12.6,16.5,30.5,15.8,47.7
				C360.8,149.4,363.6,149.4,363.6,147.6L363.6,147.6z"/>
		</g>
	</g>
	<g>
		<path class="st1" d="M345.1,191.3c0.3-4.9,4.3-8.9,8.8-10.7s9.6-1.8,14.5-1.8c21.4,0,42.7,0,64.1,0c6,0,12.6,0.2,17.2,4.1
			c3.2,2.8,4.9,7.1,5.1,11.3s-0.9,8.5-2.6,12.4c-7.4,17.5-25.4,29.5-44.2,31.2c-18.9,1.7-38-6.3-51.3-19.8
			c-7.3-7.4-12.5-17.1-11.5-27.4"/>
		<g>
			<path d="M346.6,191.3c0.9-10.2,13.7-11.1,21.5-11.1c10.4,0,20.7,0,31.1,0c10.4,0,20.7,0,31.1,0c8.5,0,19-0.1,22.3,9.5
				c2.9,8.3-1.5,17.7-6.2,24.5c-4.5,6.5-10.7,11.9-17.7,15.7c-14.5,8-31.7,8.5-47.1,2.7c-16.9-6.3-36.7-22.1-35-42.1
				c0.1-1.8-2.7-1.7-2.8,0c-1.6,19.1,15.5,34.7,31.3,42.3c16.4,7.9,35.5,8.9,52,1c7.7-3.6,14.7-9.1,19.9-15.8
				c5.4-7,10.2-16.3,9.1-25.3c-0.5-4.1-2.3-8.2-5.4-10.9c-3.2-2.8-7.4-3.9-11.6-4.3c-5.3-0.5-10.6-0.2-15.9-0.2
				c-5.9,0-11.8,0-17.6,0c-13.2,0-26.4-0.2-39.6,0c-9.2,0.1-21.2,2.9-22.2,14C343.6,193.1,346.4,193,346.6,191.3L346.6,191.3z"/>
		</g>
	</g>
	<g>
		<path d="M357.7,181.2c2.7,6.9,9,10.9,15.9,12.8c8.3,2.3,17.4,2.5,25.9,2.1c13.5-0.6,31.6-2.7,39.3-15.6c0.9-1.6-1.5-2.9-2.4-1.4
			c-7,11.6-23.8,13.4-36,14.1c-7.7,0.4-15.6,0.2-23.2-1.3c-6.8-1.4-14-4.6-16.7-11.6C359.7,178.8,357,179.6,357.7,181.2L357.7,181.2
			z"/>
	</g>
	<g>
		<path d="M373.5,229.7c6.5-7.6,16.5-12.6,26.6-12.4c10.3,0.3,20.1,5.8,26,14.2c1,1.5,3.4,0,2.4-1.5c-6.3-9.1-16.6-15-27.7-15.6
			c-11.1-0.5-22.2,4.9-29.3,13.2C370.3,229.1,372.3,231.1,373.5,229.7L373.5,229.7z"/>
	</g>
	<g>
		<path d="M387.4,159.2c2.5-5.2,7.8-8.7,13.6-8.6c5.5,0.1,10.8,3.8,13,8.9c0.9,2.2,4.5,1.2,3.6-1.1c-2.8-6.6-9-11.2-16.2-11.5
			c-7.2-0.4-14.2,4.1-17.3,10.5C383.1,159.6,386.4,161.4,387.4,159.2L387.4,159.2z"/>
	</g>
	<g>
		<circle cx="473.6" cy="126.7" r="22.8"/>
		<circle class="st2" cx="458.2" cy="115.3" r="6.4"/>
	</g>
	<g>
		<circle cx="329.3" cy="126.7" r="22.8"/>
		<circle class="st2" cx="313.8" cy="115.3" r="6.4"/>
	</g>
	<g>
		<path class="st2" d="M360.6,180.6c2.7-0.4,5.3-0.4,7.6-0.4c10.4,0,20.7,0,31.1,0c10.4,0,20.8,0,31.1,0c1.8,0,3.6,0,5.5,0.1
			c-7.3,10.8-23.6,12.5-35.4,13.2c-7.7,0.4-15.6,0.2-23.2-1.3C370.5,190.7,363.4,187.4,360.6,180.6z"/>
		<path class="st3" d="M426.2,231.4c-13.9,6.6-29.9,6.7-44.3,1.3c-2.5-0.9-5.1-2.1-7.7-3.4c6.5-7.4,16.2-12.1,26.2-11.9
			C410.6,217.6,420.3,223.1,426.2,231.4z"/>
	</g>
</g>
</svg>
