<?xml version="1.0" encoding="utf-8"?>
<!-- Generator: Adobe Illustrator 25.1.0, SVG Export Plug-In . SVG Version: 6.00 Build 0)  -->
<svg version="1.1" id="Layer_1" xmlns="http://www.w3.org/2000/svg" xmlns:xlink="http://www.w3.org/1999/xlink" x="0px" y="0px"
	 viewBox="0 0 800 800" style="enable-background:new 0 0 800 800;" xml:space="preserve">
<style type="text/css">
	.st0{fill:#FCFCFC;}
	.st1{fill:#F98F8F;}
	.st2{fill:#8DB0F7;}
</style>
<g>
	<path d="M429.6,217.8c-2.3,1.1-4.7,1.5-7.1,1.4c-5.6-0.1-11.2-2.4-16.5-3.8c-12.8-3.4-25.5,1.5-38.3,2.4c-1.1,0.1-2.2,0.1-3.3,0.1
		l-11.1-2.2c-1.7-1.4-2.7-3.5-3.7-5.5c-1-2.1-1.6-4.3-1.7-6.6l2.6-12.7c2.2-4.6,5.5-8.7,9.5-11.7c0.9-0.7,1.8-1.2,2.7-1.8
		c6.2-3.6,13.5-5.2,20.5-6.1c4.6-0.6,9.1-0.8,13.7-0.9c4.7-0.1,9.4-0.2,14-0.1c0.3,0,0.7,0,1,0.1l14.7,3c2.5,1.1,4.9,2.5,7,4.4
		c2.7,2.4,4.8,5.5,5.8,9c1.1,3.9,0.9,7.9,0.2,11.8C438.7,205.7,436.8,214.5,429.6,217.8z"/>
	<path class="st0" d="M424.5,172.5l-0.8,3.2c-2.8,2.1-6,4.1-9.2,5.5c-15.4,6.8-32.7,4.3-46.7-4.7c-0.1-0.1,1.3-0.7,1.2-0.8
		c-1.7,0.7,0.9-1-0.6,0.1l-5.6,1.7c6.2-3.6,13.5-5.2,20.5-6.1c4.6-0.6,9.1-0.8,13.7-0.9c4.7-0.1,9.4-0.2,14-0.1c0.3,0,0.7,0,1,0.1
		c0.6,0,1.2,0.1,1.8,0.1c0.6,0,1.2,0.1,1.7,0.1c0.8,0.1,1.5,0.2,2.3,0.3c1.1,0.2,2.3,0.4,3.4,0.6
		C422.3,171.8,423.4,172.1,424.5,172.5z"/>
	<path class="st1" d="M422.7,218.2l-0.2,1c-5.6-0.1-11.2-2.4-16.5-3.8c-12.8-3.4-25.5,1.5-38.3,2.4l-6.5-1.3l3,0.1
		c0.9,0.1,1,0.2,1.9,0.2c0.4,0-0.2-0.2,0.2-0.2c1.3-4.5,3.8-8.2,7.6-10.9c7.6-5.3,16.8-5.7,25.7-3.8c8.4,1.8,16.3,6.7,18.2,15.7
		C419.1,217.8,421.4,218.2,422.7,218.2z"/>
	<g>
		<g>
			<path class="st2" d="M314.8,141.3c-8.8-3.6-21.1-2.4-28.1,3.9c-2,1.8-3.9,4.6-2.8,7.1c0.6,1.6,2.3,2.6,4,2.8s3.4-0.3,4.9-1
				c4-1.8,7.2-5,10.6-7.7s7.5-5.1,11.9-4.8"/>
			<g>
				<path d="M314.9,140.9c-8.4-3.4-19.3-2.8-26.8,2.6c-3,2.2-7.3,6.9-3.7,10.5c3.9,3.9,10,0.1,13.5-2.5c5.2-4,10.2-9.8,17.4-9.5
					c0.6,0,0.6-0.9,0-0.9c-4.5-0.2-8.6,2.1-12,4.8c-3.9,3.1-7.7,7.4-12.7,8.5c-2.9,0.7-7-0.6-6.4-4.3c0.4-2.6,2.7-4.6,4.7-6
					c3.5-2.5,7.8-3.8,12-4.2c4.7-0.5,9.5,0.1,13.9,1.8C315.2,142,315.5,141.1,314.9,140.9L314.9,140.9z"/>
			</g>
		</g>
		<g>
			<g>
				<path d="M443.2,87.1c11.5-5,25-0.3,31.3,10.3c1.5,2.6,5.5,0.2,4-2.3c-3.5-5.9-8.9-10.4-15.3-12.8c-7.3-2.8-15.3-2.2-22.4,0.8
					C438.1,84.3,440.5,88.3,443.2,87.1L443.2,87.1z"/>
			</g>
			<g>
				<path d="M322.3,89.1c8.2-9.8,22.2-12.1,33-5.2c2.5,1.6,4.9-2.4,2.3-4c-12.4-7.9-29.2-5.4-38.6,5.9
					C317.1,88.1,320.4,91.4,322.3,89.1L322.3,89.1z"/>
			</g>
			<g>
				<path d="M390.3,159.7c1.6-3.7,5.6-6.2,9.7-6c4,0.3,7.5,3.2,8.7,7c0.3,1.1,2.1,0.7,1.8-0.5c-1.4-4.6-5.7-8-10.5-8.3
					c-4.9-0.3-9.6,2.9-11.5,7.4C388.1,160.3,389.9,160.8,390.3,159.7L390.3,159.7z"/>
			</g>
			<g>
				<path d="M426.9,139.5c4-7,11.9-11.4,20-10.7c7.8,0.6,15,6.2,17.8,13.5c0.8,2.2,4.4,1.3,3.6-1c-3.3-8.8-11.4-15.2-20.8-16.2
					c-9.5-1-19.1,4.3-23.8,12.5C422.5,139.7,425.7,141.6,426.9,139.5L426.9,139.5z"/>
			</g>
			<g>
				<path class="st2" d="M466,148.9c-2.9,6.2-5.2,13-5.9,19.8c-0.2,1.6-0.2,3.3,0.9,4.4c1.4,1.5,4.1,1.1,5.7-0.3
					c2.8-2.3,3.4-6.3,3.3-10c-0.2-5-1.4-10-3.7-14.5"/>
				<g>
					<path d="M465.6,148.7c-2,4.1-3.6,8.4-4.7,12.9c-0.5,2.2-1,4.4-1.2,6.7c-0.2,1.6-0.3,3.5,0.7,4.9c2,2.8,5.9,1.2,7.6-0.9
						c2.2-2.7,2.6-6.4,2.4-9.7c-0.2-5-1.5-9.9-3.8-14.3c-0.3-0.5-1.1-0.1-0.8,0.5c2.2,4.3,3.5,9,3.7,13.8c0.2,3.8-0.4,9.2-4.5,10.8
						c-1,0.4-2.1,0.5-3.1,0c-1.2-0.6-1.5-1.9-1.5-3.2c0-2.3,0.5-4.7,1-7c1.1-4.9,2.8-9.5,4.9-14
						C466.6,148.6,465.8,148.2,465.6,148.7L465.6,148.7z"/>
				</g>
			</g>
			<g>
				<path class="st2" d="M485.4,157.6c9.7-3.1,22.4-0.2,28.6,7.7c2.1,2.6,3.6,6.4,1.8,9.2c-1.9,3-6.5,2.9-9.5,1.1
					c-3-1.9-4.9-5-7.1-7.8c-3.7-4.5-8.6-8.1-14-10.3"/>
				<g>
					<path d="M485.5,158c9-2.8,20.1-0.8,26.8,6.1c1.9,1.9,3.6,4.3,3.8,7.1c0.2,3-1.9,5.1-4.8,5.3c-5.7,0.3-8.7-5.3-11.9-9.1
						c-3.8-4.5-8.6-8-14.1-10.2c-0.6-0.2-0.8,0.7-0.2,0.9c6.4,2.6,11.4,6.9,15.5,12.4c2.9,3.8,6.9,8.2,12.3,6.8
						c5.5-1.5,4.5-7.8,1.9-11.5c-2.9-4-7.4-6.8-12.1-8.3c-5.6-1.8-11.8-2-17.5-0.2C484.7,157.3,484.9,158.2,485.5,158L485.5,158z"/>
				</g>
			</g>
			<g>
				<path d="M322.2,137.1c4.8-6.9,13.1-11.2,21.5-11.1c8.5,0.1,16.5,4.7,21.2,11.7c1.3,2,4.5,0.1,3.2-1.9
					c-5.4-8.1-14.6-13.4-24.4-13.5c-9.8-0.1-19.1,5-24.7,12.9C317.6,137.2,320.8,139,322.2,137.1L322.2,137.1z"/>
			</g>
		</g>
	</g>
	<g>
		<path d="M439.8,198.6c0.7-3.9,0.9-8-0.2-11.8c-1-3.5-3.1-6.6-5.8-9c-2.1-1.9-4.5-3.3-7-4.4c-0.7-0.3-1.5-0.6-2.3-0.9
			c-1.1-0.4-2.2-0.7-3.3-0.9c-1.1-0.3-2.2-0.5-3.4-0.6c-0.8-0.1-1.5-0.2-2.3-0.3c-0.6-0.1-1.1-0.1-1.7-0.1c-0.6,0-1.2-0.1-1.8-0.1
			c-0.3,0-0.7,0-1-0.1c-4.7-0.2-9.4,0-14,0.1c-4.6,0.1-9.2,0.4-13.7,0.9c-7.1,0.9-14.3,2.5-20.5,6.1c-0.9,0.5-1.8,1.1-2.7,1.8
			c-4,3-7.4,7.1-9.5,11.7c-1.2,2.5-2,5.1-2.4,7.8c-0.2,1.6-0.3,3.2-0.2,4.8c0.1,2.3,0.7,4.5,1.7,6.6c1,2,2,4.1,3.7,5.5
			c0.3,0.3,0.7,0.5,1.1,0.7c1.4,0.7,2.9,1,4.5,1.2c0.1,0,0.1,0,0.2,0c0,0,0,0,0,0c1.8,0.2,3.6,0.3,5.4,0.3c1.1,0,2.2,0,3.3-0.1
			c12.8-0.9,25.5-5.8,38.3-2.4c5.3,1.4,10.9,3.7,16.5,3.8c2.4,0,4.8-0.4,7.1-1.4C436.8,214.5,438.7,205.7,439.8,198.6z M436.2,206.3
			c-1.1,3.4-2.7,6.9-5.7,9c-2.3,1.6-4.9,2.2-7.6,2.2c-1.3,0-2.6-0.1-3.9-0.4c-0.7-0.1-1.3-0.2-2-0.4c-2.9-0.7-5.8-1.7-8.5-2.4
			c-3.8-1.1-7.6-1.8-11.5-1.9c-3.7-0.1-7.3,0.3-10.9,0.9c-6.3,1-12.6,2.4-18.9,2.7c-0.7,0-1.3,0.1-1.9,0.1c-0.4,0-0.8,0-1.2,0
			c-0.9,0-1.8,0-2.7-0.1c-0.7-0.1-1.4-0.1-2.1-0.2c-0.1,0-0.3,0-0.4-0.1c-0.1,0-0.2,0-0.3,0c-2.5-0.4-4.4-1.3-5.8-3.6
			c-1.8-3-2.9-6.1-3-9.6c-0.1-7.5,3.8-14.9,9.2-19.9c1.1-1,2.2-1.8,3.3-2.6c1.5-1,3.1-1.9,4.8-2.6c0.7-0.3,1.3-0.6,2-0.8
			c3.6-1.4,7.3-2.2,11.1-2.9c8.4-1.4,17.1-1.5,25.6-1.5c6-0.1,12.2,0.1,17.9,2c0.1,0,0.3,0.1,0.4,0.2c0.5,0.2,1.1,0.4,1.6,0.6
			c1.3,0.5,2.5,1.2,3.7,1.9c2.9,1.8,5.5,4.3,7.1,7.3c1.8,3.4,2.2,7.4,1.9,11.2C438.1,199,437.3,202.7,436.2,206.3z"/>
	</g>
	<g>
		<path d="M417.3,217.8c-0.1-0.4-0.2-0.8-0.3-1.1c-1-3.7-3.4-6.9-6.5-9.3c-6.9-5.3-17-6.2-25.3-4.9c-7.7,1.2-15.5,5.8-18,13.6
			c-0.1,0.3-0.1,0.5-0.2,0.8c-0.2,0.6-0.7,0.8-1.1,0.7s-0.8-0.5-0.7-1c0-0.1,0.1-0.2,0.1-0.3c1.3-4.5,4.3-8.4,8.1-11.1
			c7.6-5.3,18.1-5.9,26.9-4.1c8.4,1.8,16.8,7.2,18.7,16.1c0,0,0,0.1,0,0.1C419.3,218.3,417.5,218.9,417.3,217.8z"/>
	</g>
	<g>
		<path d="M425.8,174.9c0,0-0.1,0.1-0.1,0.1c-0.7,0.5-1.4,1.1-2,1.6c-2.8,2.1-5.8,3.8-9.1,5.2c-15.4,6.8-33.3,4.8-47.4-4.2
			c-0.1-0.1-0.1-0.1-0.2-0.2c-0.6-0.7,0.1-2,1.1-1.5c0.3,0.2,0.7,0.4,1,0.6c3.7,2.3,7.6,4.1,11.7,5.3c7.7,2.4,15.9,2.9,23.8,1.2
			c6.9-1.5,13.4-4.5,19-8.9c0.2-0.1,0.4-0.3,0.6-0.4c0.2-0.1,0.4-0.3,0.6-0.4C425.7,172.6,426.7,174.1,425.8,174.9z"/>
	</g>
</g>
</svg>
