<?xml version="1.0" encoding="utf-8"?>
<!-- Generator: Adobe Illustrator 25.1.0, SVG Export Plug-In . SVG Version: 6.00 Build 0)  -->
<svg version="1.1" id="Layer_1" xmlns="http://www.w3.org/2000/svg" xmlns:xlink="http://www.w3.org/1999/xlink" x="0px" y="0px"
	 viewBox="0 0 800 800" style="enable-background:new 0 0 800 800;" xml:space="preserve">
<style type="text/css">
	.st0{fill:#FCFCFC;}
	.st1{fill:#FFFFFF;}
	.st2{fill:#F98F8F;}
</style>
<g>
	<g>
		<g>
			<path class="st0" d="M440.7,149.1c-2.4-10.9-1.5-22.5,2.5-33s11.1-19.7,20.2-26.2c9.5-6.8,22.8-8.5,33.7-4.4
				c6.7,2.5,11.3,5.4,15.4,11.3c4.5,6.5,7.5,14.1,7.8,21.9c0.3,7.9-2.3,16-7.9,21.6c-6.5,6.5-16,9-25.1,10.2
				C471.7,152.6,456,152.7,440.7,149.1"/>
			<g>
				<path d="M441.8,148.8c-3.4-15.7,0.1-32.3,9.6-45.3c4.2-5.8,9.7-11.3,16.1-14.8c6.4-3.5,13.8-4.8,21-4c6.7,0.7,13.8,3.4,18.8,8
					c5.5,5,9.3,12.6,10.9,19.8c1.7,7.4,0.9,15.4-2.9,22c-3.8,6.5-10.2,10.5-17.3,12.6c-8.7,2.7-18.2,3.3-27.3,3.6
					c-10,0.3-20-0.5-29.7-2.7c-1.5-0.3-2.1,1.9-0.6,2.3c9.2,2.1,18.7,3,28.1,2.9c8.8-0.1,18-0.8,26.6-2.8
					c7.4-1.7,14.8-4.9,19.8-10.9c4.9-6,7.1-14,6.6-21.7c-0.6-8.3-4-16.5-9-23c-4.4-5.7-10.8-9.3-17.6-11.2
					c-7.4-2.1-15.4-1.8-22.7,0.6c-7.3,2.5-13.5,7.4-18.7,13.1c-12.7,14.1-17.8,33.6-13.8,52.2C439.9,150.9,442.1,150.3,441.8,148.8
					L441.8,148.8z"/>
			</g>
		</g>
		<g>
			<path d="M387.5,155.4c1.5-5.7,7.2-9.9,13.1-9.5c5.8,0.4,10.8,5.4,11.5,11.1c0.2,1.5,2.5,1.5,2.4,0c-0.8-6.9-6.5-12.8-13.5-13.5
				c-7.1-0.7-14,4.4-15.8,11.2C384.9,156.3,387.2,156.9,387.5,155.4L387.5,155.4z"/>
		</g>
		<g>
			<path d="M465.2,76.8c8.4-5.7,19-8.1,29-6.2c9.4,1.8,18.1,7.1,23.8,14.7c0.8,1,2,1.5,3.2,0.8c1-0.6,1.6-2.2,0.8-3.2
				c-10.5-14-28.5-20.6-45.6-16.3c-4.9,1.2-9.5,3.3-13.7,6.1C460.3,74.4,462.6,78.6,465.2,76.8L465.2,76.8z"/>
		</g>
		<circle cx="469" cy="124.4" r="21.9"/>
		<circle class="st0" cx="484" cy="113.9" r="8.1"/>
		<g>
			<path class="st1" d="M366.3,150.2c3.3-10.7,2-21.5-1.1-32.3s-8-21.4-16.5-28.6c-8.9-7.6-22-10.3-33.2-7.2
				c-6.8,1.9-11.8,4.5-16.3,10c-5,6.1-8.7,13.4-9.6,21.2s2.5,17.8,7.6,23.8c5.9,7.1,13.6,8.6,22.6,10.6
				C335.1,151,350.7,152.4,366.3,150.2"/>
			<g>
				<path d="M367.4,150.5c2.7-8.9,2.3-18.3,0.3-27.3c-1.8-8.1-4.6-16.2-8.9-23.3c-3.9-6.6-9.3-12.5-16.3-16
					c-6.8-3.5-14.7-4.9-22.3-3.9c-6.9,0.9-14.1,3.5-19.3,8.3c-5.8,5.4-10.1,13-11.9,20.6c-1.8,7.5-0.6,15,2.6,21.9
					c3.2,6.7,8.2,11.9,15.2,14.7c3.4,1.4,7,2.2,10.6,3c4.5,1,9.1,1.9,13.7,2.6c9.4,1.4,19,1.9,28.5,1.1c2.3-0.2,4.6-0.5,6.9-0.8
					c1.5-0.2,0.9-2.5-0.6-2.3c-17.3,2.5-34.9,0.4-51.8-3.8c-6.7-1.7-12.9-4.3-17.1-10c-4.2-5.6-6.8-13.2-6.5-20.2
					c0.3-7.5,3.9-14.9,8.4-20.8c2.1-2.8,4.6-5.3,7.5-7.1c2.9-1.8,6-2.9,9.3-3.8c7-1.9,14.5-1.6,21.3,0.8c7.1,2.4,12.9,7.2,17.3,13.2
					c5,6.9,8.1,15,10.3,23.2c2.6,9.7,3.4,19.7,0.5,29.4C364.7,151.3,367,151.9,367.4,150.5L367.4,150.5z"/>
			</g>
		</g>
		<g>
			<path d="M342.1,68.3c-7.8-4.5-17.1-6.6-26.1-5.7c-8.5,0.8-16.4,4.2-23.1,9.5c-3.7,2.9-6.8,6.5-9.3,10.4c-1.7,2.6,2.4,4.9,4.1,2.4
				c5.1-7.9,13.1-13.8,22.2-16.3c10-2.8,20.8-1.3,29.8,3.9C342.3,73.9,344.7,69.8,342.1,68.3L342.1,68.3z"/>
		</g>
		<circle cx="321" cy="120.4" r="21.9"/>
		<circle class="st0" cx="339.1" cy="111.6" r="8.1"/>
	</g>
	<g>
		<path class="st2" d="M430.6,229.9c-4.3,0.9-8.7,0.4-13-0.1c-4.5-0.5-8.9-0.9-13.4-1c-9.9-0.3-19.8,0.6-29.6,2.5
			c-4.5,0.9-9.3,2.5-13.9,1.5c-0.3-0.1-0.6-0.2-0.9-0.3c5.4-10,14.9-17.6,25.9-20.5c10.9-2.9,22.6-0.9,32.2,5.2
			C423,220.4,427.5,224.7,430.6,229.9z"/>
		<g>
			<path d="M359.2,228.7c-6.4-14.3,1.5-29.8,12.8-38.8c11.2-8.8,26.3-12.4,39.9-7.7c6.7,2.3,12.6,6.4,16.9,12.1
				c4.3,5.6,7.1,12.4,8.6,19.3c0.8,3.6,1,7.6-1.1,10.8c-1.8,2.8-4.9,4.5-8,5.3c-3.8,1-7.8,0.7-11.6,0.3c-4.2-0.4-8.3-0.9-12.5-1
				c-9-0.3-18,0.4-26.9,2c-4.4,0.8-9.3,2.6-13.9,1.6c-3.4-0.8-4.4-3.9-5.4-6.9c-0.5-1.4-2.8-0.8-2.3,0.6c0.9,2.7,1.9,5.8,4.4,7.4
				c3.1,2.1,7.4,1.6,10.8,1c4.7-0.9,9.2-1.9,14-2.5c4.5-0.6,9.1-0.9,13.6-0.9c4.5-0.1,9.1,0.1,13.6,0.6c4.6,0.5,9.2,1.2,13.8,0.7
				c7-0.8,13.5-5,14.3-12.4c0.4-3.9-0.5-7.8-1.6-11.4c-1.1-3.7-2.6-7.3-4.5-10.7c-3.7-6.7-9.2-12.2-16-15.7
				c-13.9-7.1-30.6-5.3-43.5,3c-7.2,4.6-13.4,11.1-16.9,18.9c-3.7,8.2-4.2,17.6-0.5,25.9C357.8,231.2,359.8,230,359.2,228.7
				L359.2,228.7z"/>
		</g>
		<g>
			<path d="M362.4,232.6c4.7-9.2,13.3-16.1,23.2-19c10.2-3,21.1-1.2,30,4.4c5,3.1,9.3,7.4,12.3,12.5c0.8,1.3,2.8,0.1,2-1.2
				c-5.8-9.6-15.7-16.5-26.7-18.8c-10.8-2.2-22.1,0.5-30.9,7c-5,3.7-9.2,8.4-12,13.9C359.7,232.8,361.7,234,362.4,232.6L362.4,232.6
				z"/>
		</g>
		<g>
			<path d="M371.5,190.4c16.6,8.7,36.9,8.9,53.7,0.7c1.4-0.7,0.2-2.7-1.2-2c-16,7.9-35.5,7.6-51.3-0.7
				C371.4,187.6,370.2,189.7,371.5,190.4L371.5,190.4z"/>
		</g>
		<path d="M439,216.3c0.6,3.6,0.3,7.3-1.8,10.3c-1.5,2.1-3.8,3.5-6.2,4.4c-5.8-9.7-15.4-16.7-26.1-19.3c-11.2-2.7-23-0.2-32.3,6.5
			c-5.2,3.7-9.4,8.6-12.4,14.2c-0.8-0.9-1.4-2-1.9-3.2c-0.3-0.7-0.5-1.5-0.8-2.2l0-0.1c-4.2-14,3.4-28.6,14.2-37.3
			c11.7-9.4,27.7-13,41.9-7.5C427.5,187.5,436.7,201.5,439,216.3z"/>
		<path class="st1" d="M424,189.1c-15.7,7.7-34.8,7.6-50.4-0.3c11.3-8.3,26.2-11.3,39.5-6.3C417.2,184,420.8,186.3,424,189.1z"/>
	</g>
</g>
</svg>
