<?xml version="1.0" encoding="utf-8"?>
<!-- Generator: Adobe Illustrator 25.1.0, SVG Export Plug-In . SVG Version: 6.00 Build 0)  -->
<svg version="1.1" id="Layer_1" xmlns="http://www.w3.org/2000/svg" xmlns:xlink="http://www.w3.org/1999/xlink" x="0px" y="0px"
	 viewBox="0 0 800 800" style="enable-background:new 0 0 800 800;" xml:space="preserve">
<style type="text/css">
	.st0{fill:#FCFCFC;}
	.st1{fill:#0C0A0A;}
	.st2{fill:#FFFFFF;}
	.st3{fill:#F98F8F;}
</style>
<g>
	<g>
		<path d="M485.5,233.7c26.8-6.1,56.7,5.4,72.4,28.1c3.2,4.6,10.8,0.2,7.6-4.4c-18-26.1-51.4-39.2-82.3-32.1
			C477.7,226.5,480,235,485.5,233.7L485.5,233.7z"/>
	</g>
	<g>
		<path d="M311,213.8c-30.9-7.1-64.3,6.1-82.3,32.1c-3.2,4.7,4.4,9.1,7.6,4.4c15.7-22.7,45.6-34.2,72.4-28.1
			C314.1,223.6,316.5,215.1,311,213.8L311,213.8z"/>
	</g>
	<g>
		<path class="st0" d="M444.3,324.5c-0.1-14.1,2.4-28.3,8.6-40.9s16.3-23.6,29.1-29.5c12.8-5.9,28.2-6.5,40.8-0.3
			c12.6,6.2,21.8,19.6,21.8,33.6c0,13.5-8.1,26.1-19.2,33.9c-11,7.8-24.6,11.1-38.1,12.2C472.4,334.7,457,332.4,444.3,324.5"/>
		<g>
			<path d="M446,324.5c0-19.5,4.9-39.6,18-54.6c12.3-14.1,31.4-22.2,50-17.4c16.7,4.3,30,20,28.6,37.7c-1.5,19-18,32.4-35,37.8
				c-20.1,6.3-44.1,6.2-62.5-5c-1.9-1.2-3.7,1.9-1.8,3c17.8,10.8,40.2,11.6,60,6.8c18.8-4.5,36.9-16.8,41.8-36.5
				c4.4-17.8-5.7-36.4-22-44.2c-18.3-8.8-40.1-3.9-55.1,8.9c-18.4,15.6-25.6,40-25.6,63.5C442.5,326.8,446,326.8,446,324.5
				L446,324.5z"/>
		</g>
	</g>
	<g>
		<path class="st0" d="M348.4,320.8c0.8-14-0.9-28.4-6.4-41.3s-15-24.4-27.4-31c-12.4-6.6-27.8-8-40.7-2.4
			c-12.9,5.6-22.8,18.4-23.5,32.4c-0.7,13.5,6.7,26.5,17.4,34.9s24,12.4,37.4,14.2C319.8,329.5,335.3,328,348.4,320.8"/>
		<g>
			<path d="M350.2,320.8c1.1-20.9-3.4-42.5-16.9-59c-12.5-15.2-32.4-24.1-52-19.9c-17.7,3.7-32.5,19.5-32.8,38
				c-0.2,19.8,14.9,35.8,32.2,43.1c21.2,9,47.9,10.5,68.6-0.6c2-1.1,0.2-4.1-1.8-3c-17.2,9.2-38.2,8.8-56.6,3.6
				c-17.5-5-34.3-17-38.2-35.8c-3.6-17.4,7.9-34.7,24.3-40.4c18.1-6.3,37.9,0.6,50.7,14.1c15.2,16,20.1,38.5,18.9,60
				C346.5,323.1,350,323.1,350.2,320.8L350.2,320.8z"/>
		</g>
	</g>
	<g>
		<path class="st1" d="M326.2,375.2c0.4-6.1,5.5-11.1,11.3-13.2c5.7-2.2,12-2.1,18.1-2c26.7,0.4,53.5,0.8,80.2,1.3
			c7.5,0.1,15.8,0.5,21.4,5.5c4,3.5,6,8.9,6.2,14.3c0.2,5.3-1.3,10.6-3.5,15.5c-9.6,21.7-32.3,36.4-56,38.2
			c-23.7,1.8-47.5-8.6-63.8-25.8c-9-9.4-15.3-21.6-13.8-34.5"/>
		<g>
			<path d="M327.9,375.2c1.4-12.8,17.4-13.6,27.1-13.5c13,0.2,25.9,0.4,38.9,0.6c13,0.2,26,0.4,39,0.6c10.7,0.2,23.8,0.2,27.8,12.4
				c3.4,10.5-2.2,22.2-8.2,30.6c-5.8,8.1-13.6,14.7-22.4,19.3c-18.3,9.7-39.9,10-59,2.4c-21-8.3-45.5-28.4-43-53.4
				c0.2-2.2-3.3-2.2-3.5,0c-2.4,23.9,18.7,43.7,38.3,53.6c20.4,10.2,44.2,11.8,65.1,2.3c9.7-4.4,18.5-11.1,25.2-19.4
				c6.9-8.6,13-20.2,11.9-31.6c-0.5-5.1-2.7-10.3-6.6-13.7c-4-3.5-9.2-5-14.4-5.6c-6.6-0.7-13.3-0.5-19.9-0.6
				c-7.4-0.1-14.7-0.2-22.1-0.3c-16.5-0.3-33.1-0.7-49.6-0.8c-11.5,0-26.6,3.2-28.1,17C324.1,377.4,327.7,377.4,327.9,375.2
				L327.9,375.2z"/>
		</g>
	</g>
	<g>
		<path d="M342.1,362.9c3.2,8.7,11,13.9,19.6,16.4c10.3,3,21.7,3.5,32.3,3.2c17-0.5,39.6-2.8,49.5-18.7c1.2-1.9-1.8-3.7-3-1.8
			c-9,14.4-30.1,16.4-45.4,16.9c-9.6,0.4-19.6-0.1-29-2.1c-8.5-1.9-17.4-6.1-20.7-14.8C344.7,359.8,341.3,360.7,342.1,362.9
			L342.1,362.9z"/>
	</g>
	<g>
		<path d="M360.9,423.8c8.3-9.4,20.9-15.5,33.6-15c12.9,0.5,25.1,7.7,32.2,18.3c1.3,1.9,4.3,0.1,3-1.8c-7.7-11.5-20.5-19.1-34.4-20
			c-13.8-0.9-27.9,5.7-37,16C356.9,423,359.4,425.5,360.9,423.8L360.9,423.8z"/>
	</g>
	<g>
		<path d="M379.7,335.9c3.2-6.5,10-10.8,17.2-10.5c6.9,0.3,13.5,5,16.1,11.3c1.1,2.8,5.7,1.6,4.5-1.2c-3.3-8.3-11.1-14.2-20.1-14.8
			c-9-0.6-17.9,4.8-21.8,12.8C374.3,336.2,378.3,338.6,379.7,335.9L379.7,335.9z"/>
	</g>
	<g>
		<circle cx="488.3" cy="296.9" r="28.6"/>
		<circle class="st2" cx="469.1" cy="282.3" r="8"/>
	</g>
	<g>
		<circle cx="307.6" cy="294" r="28.6"/>
		<circle class="st2" cx="288.4" cy="279.4" r="8"/>
	</g>
	<g>
		<path class="st2" d="M345.8,362.1c3.4-0.4,6.7-0.4,9.5-0.4c13,0.2,25.9,0.4,38.9,0.6c13,0.2,26,0.4,39,0.6c2.2,0,4.5,0.1,6.9,0.2
			c-9.4,13.4-29.8,15.2-44.6,15.8c-9.6,0.4-19.6-0.1-29-2.1C357.9,374.9,349.1,370.7,345.8,362.1z"/>
		<path class="st3" d="M426.8,427c-17.5,8-37.5,7.8-55.5,0.7c-3.1-1.2-6.3-2.7-9.5-4.5c8.3-9.1,20.6-14.8,33-14.3
			C407.5,409.4,419.6,416.5,426.8,427z"/>
	</g>
</g>
</svg>
