<?xml version="1.0" encoding="utf-8"?>
<!-- Generator: Adobe Illustrator 25.1.0, SVG Export Plug-In . SVG Version: 6.00 Build 0)  -->
<svg version="1.1" id="Layer_1" xmlns="http://www.w3.org/2000/svg" xmlns:xlink="http://www.w3.org/1999/xlink" x="0px" y="0px"
	 viewBox="0 0 800 800" style="enable-background:new 0 0 800 800;" xml:space="preserve">
<style type="text/css">
	.st0{fill:#F9F7F7;}
	.st1{fill:#FFFFFF;}
</style>
<g>
	<g>
		<path d="M359,405.2c7.9-10.3,20.7-16.4,33.6-16.8c13.6-0.4,26.7,5.2,36.7,14.2c2.4,2.1,5.8-1.4,3.5-3.5
			c-11.1-10-25.9-16.3-41.1-15.6c-14.5,0.7-28.2,7.6-37.1,19.2C352.8,405.2,357.1,407.7,359,405.2L359,405.2z"/>
	</g>
	<g>
		<path d="M377,339.1c2.9-6.1,9.1-10.6,15.9-10.8c6.8-0.3,13.4,3.6,16.7,9.5c1,1.8,3.9,0.2,2.8-1.7c-3.9-6.9-11.6-11.4-19.6-11.1
			c-7.9,0.3-15.4,5.3-18.8,12.4C373.2,339.3,376.1,341,377,339.1L377,339.1z"/>
	</g>
	<g>
		<g>
			<path class="st0" d="M448.6,275.1c-4.5,12.2-8.6,28.8-9,41.7c0,1.2,0,2.5,0.8,3.4c0.7,0.8,1.9,1,3,1.1c12.3,1.5,24.8,1.5,37.1,0
				c10.5-1.3,20.9-3.7,30.1-8.9c9.2-5.2,17-13.4,20-23.5c2.2-7.5,3-14.7,0.6-22.1c-2.1-6.5-6-13.4-11.3-17.8s-14.3-5.9-21.2-5.4
				c-7,0.5-12.2,2.9-18,6.9c-13.1,8.9-22.9,13.3-32.6,25.8"/>
			<g>
				<path d="M447,274.6c-3.4,9.2-5.9,18.7-7.6,28.3c-0.8,4.6-1.4,9.2-1.5,13.9c-0.1,4.5,2.4,5.9,6.5,6.3c11.3,1.3,22.7,1.3,33.9,0.1
					c10-1.1,20-3.1,29.2-7.4c16.8-7.9,29.2-25.1,26.3-44.3c-1.3-8.9-6.4-18.6-13.6-24.2c-6.5-4.9-15.9-6.1-23.8-5.1
					c-10.3,1.4-18.4,8.1-26.9,13.6c-8.5,5.5-16.4,11.4-22.7,19.4c-1.3,1.6,1,4,2.3,2.3c4.9-6.2,10.7-11.3,17.3-15.8
					c3.2-2.1,6.5-4.2,9.7-6.3c3.5-2.3,6.8-4.8,10.5-6.7c7.2-3.8,15.7-4.5,23.5-2.5c8.7,2.2,14.2,8.9,17.7,16.9
					c7.6,17.2-0.5,36.5-15.8,46.3c-15.7,10.1-36.4,11.7-54.6,11.2c-2.8-0.1-5.7-0.2-8.5-0.5c-1.4-0.1-2.8-0.2-4.2-0.4
					c-1.9-0.2-3.7-0.5-3.8-2.7c-0.1-4.6,0.7-9.3,1.4-13.8c1.6-9.5,4.2-18.8,7.5-27.9C450.9,273.5,447.7,272.6,447,274.6L447,274.6z"
					/>
			</g>
		</g>
		<g>
			<path d="M436.8,292.1c22.3-32.2,58.7-52.7,97.7-55.1c4.2-0.3,4.2-6.8,0-6.6c-32.4,2-63.4,15.5-86.6,38.3
				c-6.2,6.1-11.8,12.9-16.8,20.1C428.7,292.3,434.4,295.6,436.8,292.1L436.8,292.1z"/>
		</g>
		<circle cx="476.9" cy="289.3" r="25.4"/>
		<circle class="st1" cx="460.8" cy="280.1" r="9.2"/>
	</g>
	<g>
		<g>
			<path class="st0" d="M339.8,273.8c5.3,11.9,10.3,28.2,11.6,41.1c0.1,1.2,0.2,2.5-0.6,3.5c-0.7,0.9-1.9,1.1-3,1.3
				c-12.2,2.2-24.6,3-37,2.3c-10.5-0.6-21.1-2.4-30.6-7c-9.5-4.6-17.8-12.3-21.4-22.2c-2.7-7.3-3.9-14.4-2-22
				c1.7-6.6,5.2-13.7,10.2-18.5c5-4.7,13.9-6.8,20.8-6.7c7.1,0.1,12.3,2.1,18.4,5.7c13.6,8.1,23.7,11.9,34.2,23.7"/>
			<g>
				<path d="M338.4,274.7c3.5,8,6.4,16.3,8.5,24.8c1,4.1,1.9,8.2,2.5,12.3c0.3,2.2,1.2,4.9-1.2,6.2c-0.8,0.5-2.5,0.5-3.4,0.6
					c-1.5,0.2-3,0.5-4.5,0.7c-9.8,1.3-19.6,1.7-29.5,1.1c-9.5-0.6-19.2-2.1-28-5.9c-15.6-6.9-28.2-23.2-24.9-41.1
					c1.5-7.9,5.7-17.5,12.9-21.8c6.6-4.1,15.7-5.2,23.2-3.5c4.7,1.1,8.8,3.4,12.9,5.8c3.8,2.2,7.7,4.3,11.5,6.5
					c7.7,4.4,14.7,9.4,20.7,16c1.4,1.6,3.7-0.8,2.3-2.3c-5.8-6.5-12.7-11.6-20.3-16c-4-2.3-8.2-4.5-12.2-6.9c-4-2.3-8-4.6-12.5-5.9
					c-8.1-2.3-17.4-1.4-25,2.1c-8.1,3.8-13,12.3-15.6,20.5c-5.9,18.4,4.3,37.8,20.5,47c8.7,4.9,18.6,7.2,28.5,8.3
					c11.3,1.2,22.8,1,34-0.4c3-0.4,5.9-0.8,8.8-1.3c2-0.4,4-0.9,4.9-3c0.9-2,0.3-4.4,0-6.4c-0.3-2.5-0.7-5-1.3-7.5
					c-2.2-10.8-5.7-21.4-10.2-31.5C340.4,271.1,337.6,272.8,338.4,274.7L338.4,274.7z"/>
			</g>
		</g>
		<g>
			<path d="M357.7,286c-19.4-24.7-47.4-42.1-78.1-48.5c-9.2-1.9-18.7-2.9-28.1-2.9c-4.2,0-4.2,6.6,0,6.6
				c39.6,0,77.1,18.3,101.6,49.4C355.7,294,360.3,289.3,357.7,286L357.7,286z"/>
		</g>
		<circle cx="312.4" cy="289.9" r="25.4"/>
		<circle class="st1" cx="327.9" cy="279.7" r="9.2"/>
	</g>
</g>
</svg>
