<?xml version="1.0" encoding="utf-8"?>
<!-- Generator: Adobe Illustrator 25.1.0, SVG Export Plug-In . SVG Version: 6.00 Build 0)  -->
<svg version="1.1" id="Layer_1" xmlns="http://www.w3.org/2000/svg" xmlns:xlink="http://www.w3.org/1999/xlink" x="0px" y="0px"
	 viewBox="0 0 800 800" style="enable-background:new 0 0 800 800;" xml:space="preserve">
<style type="text/css">
	.st0{fill:#FCFCFC;}
	.st1{fill:#FFFFFF;}
	.st2{fill:#F98F8F;}
</style>
<g>
	<g>
		<g>
			<path class="st0" d="M442.9,321c-3-13.9-1.9-28.7,3.2-42c5.1-13.3,14.1-25,25.7-33.3c12.1-8.7,28.9-10.8,42.9-5.6
				c8.5,3.2,14.4,6.9,19.6,14.3c5.7,8.2,9.6,17.9,10,27.9c0.4,10-2.9,20.3-10,27.4c-8.2,8.3-20.3,11.4-31.9,13
				C482.3,325.4,462.3,325.5,442.9,321"/>
			<g>
				<path d="M444.3,320.6c-4.3-20,0.2-41.1,12.2-57.6c5.4-7.4,12.4-14.4,20.4-18.8c8.1-4.4,17.6-6.1,26.8-5.1
					c8.5,0.9,17.5,4.3,23.9,10.1c7,6.4,11.8,16,13.9,25.2c2.2,9.4,1.2,19.6-3.7,28c-4.8,8.3-13,13.3-22,16
					c-11.1,3.4-23.2,4.3-34.8,4.6c-12.7,0.4-25.4-0.6-37.8-3.5c-1.9-0.4-2.7,2.5-0.8,2.9c11.7,2.7,23.7,3.8,35.7,3.6
					c11.2-0.1,22.8-1,33.8-3.5c9.4-2.2,18.9-6.2,25.1-13.9c6.2-7.7,9-17.8,8.4-27.6c-0.7-10.5-5.1-20.9-11.5-29.3
					c-5.6-7.2-13.7-11.8-22.4-14.2c-9.4-2.6-19.6-2.3-28.8,0.8c-9.3,3.2-17.2,9.4-23.8,16.7c-16.1,17.9-22.6,42.8-17.6,66.3
					C441.8,323.3,444.7,322.5,444.3,320.6L444.3,320.6z"/>
			</g>
		</g>
		<g>
			<path d="M375.3,329c1.9-7.3,9.1-12.6,16.7-12.1c7.3,0.5,13.7,6.9,14.6,14.1c0.2,1.9,3.2,1.9,3,0c-1-8.8-8.2-16.2-17.1-17.1
				c-9-0.9-17.8,5.6-20.1,14.3C371.9,330.1,374.8,330.9,375.3,329L375.3,329z"/>
		</g>
		<g>
			<path d="M474,229.1c10.7-7.2,24.1-10.3,36.9-7.9c11.9,2.3,23,9,30.3,18.7c1,1.3,2.6,2,4.1,1.1c1.3-0.7,2.1-2.8,1.1-4.1
				c-13.4-17.8-36.2-26.2-58-20.7c-6.2,1.6-12.1,4.2-17.4,7.8C467.8,226,470.8,231.2,474,229.1L474,229.1z"/>
		</g>
		<circle cx="478.9" cy="289.5" r="27.9"/>
		<circle class="st0" cx="498" cy="276.2" r="10.2"/>
		<g>
			<path class="st1" d="M348.3,322.3c4.2-13.6,2.5-27.4-1.4-41s-10.2-27.2-21-36.4c-11.3-9.7-27.9-13.1-42.3-9.1
				c-8.7,2.4-14.9,5.7-20.7,12.7c-6.3,7.7-11,17-12.2,27c-1.2,9.9,3.2,22.6,9.6,30.3c7.5,9,17.3,11,28.8,13.5
				C308.6,323.4,328.5,325.2,348.3,322.3"/>
			<g>
				<path d="M349.7,322.7c3.4-11.4,2.9-23.3,0.4-34.7c-2.3-10.3-5.9-20.6-11.3-29.7c-5-8.4-11.9-15.8-20.7-20.3
					c-8.7-4.4-18.7-6.2-28.3-5c-8.8,1.1-17.9,4.5-24.5,10.6c-7.3,6.8-12.8,16.5-15.2,26.2c-2.3,9.5-0.8,19.1,3.3,27.9
					c4,8.6,10.5,15.1,19.3,18.6c4.4,1.7,9,2.8,13.5,3.8c5.8,1.3,11.6,2.4,17.4,3.3c12,1.7,24.1,2.4,36.2,1.4c2.9-0.2,5.8-0.6,8.7-1
					c1.9-0.3,1.1-3.2-0.8-2.9c-22,3.1-44.4,0.5-65.9-4.8c-8.5-2.1-16.4-5.5-21.8-12.8c-5.3-7.2-8.7-16.7-8.3-25.7
					c0.4-9.6,5-18.9,10.7-26.4c2.7-3.5,5.8-6.7,9.6-9.1c3.6-2.3,7.7-3.7,11.8-4.9c8.9-2.5,18.4-2,27.1,1c9,3.1,16.5,9.1,22,16.8
					c6.4,8.8,10.3,19.1,13.1,29.5c3.3,12.3,4.4,25.1,0.7,37.4C346.3,323.7,349.2,324.5,349.7,322.7L349.7,322.7z"/>
			</g>
		</g>
		<g>
			<path d="M317.5,218.2c-10-5.8-21.7-8.4-33.2-7.3c-10.8,1.1-20.9,5.3-29.3,12c-4.7,3.7-8.6,8.2-11.9,13.2c-2.1,3.3,3.1,6.3,5.2,3
				c6.5-10.1,16.7-17.6,28.2-20.8c12.7-3.5,26.5-1.6,37.9,5C317.8,225.3,320.8,220.1,317.5,218.2L317.5,218.2z"/>
		</g>
		<circle cx="290.7" cy="284.5" r="27.9"/>
		<circle class="st0" cx="313.7" cy="273.3" r="10.2"/>
	</g>
	<g>
		<path class="st2" d="M430.1,423.6c-5.4,1.1-11.1,0.5-16.6-0.1c-5.7-0.6-11.3-1.1-17-1.2c-12.6-0.3-25.2,0.7-37.6,3.1
			c-5.7,1.1-11.9,3.2-17.7,1.9c-0.4-0.1-0.8-0.2-1.2-0.4c6.8-12.8,19-22.3,33-26.1c13.9-3.7,28.8-1.1,40.9,6.6
			C420.4,411.6,426,417.1,430.1,423.6z"/>
		<g>
			<path d="M339.3,422.1c-8.1-18.1,1.9-37.9,16.3-49.4c14.2-11.2,33.4-15.8,50.8-9.8c8.5,2.9,16,8.2,21.5,15.3
				c5.4,7.1,9.1,15.8,10.9,24.6c1,4.5,1.2,9.6-1.3,13.7c-2.2,3.6-6.2,5.7-10.2,6.8c-4.8,1.2-9.9,0.8-14.7,0.3
				c-5.3-0.6-10.6-1.1-15.9-1.3c-11.5-0.4-22.9,0.5-34.2,2.6c-5.6,1-11.9,3.3-17.6,2c-4.3-1-5.7-5-6.9-8.8c-0.6-1.8-3.5-1-2.9,0.8
				c1.2,3.5,2.4,7.3,5.6,9.5c4,2.6,9.4,2.1,13.8,1.3c5.9-1.1,11.8-2.4,17.7-3.2c5.7-0.7,11.5-1.1,17.3-1.2
				c5.8-0.1,11.6,0.2,17.3,0.7c5.8,0.6,11.7,1.5,17.5,0.9c8.9-1,17.1-6.3,18.2-15.8c0.5-4.9-0.7-9.9-2.1-14.5
				c-1.4-4.7-3.3-9.3-5.7-13.6c-4.7-8.5-11.6-15.5-20.3-20c-17.7-9.1-38.9-6.8-55.4,3.8c-9.1,5.8-17.1,14.1-21.6,24
				c-4.7,10.4-5.4,22.4-0.6,32.9C337.5,425.4,340.1,423.9,339.3,422.1L339.3,422.1z"/>
		</g>
		<g>
			<path d="M343.4,427.2c6-11.7,16.9-20.5,29.5-24.2c12.9-3.8,26.8-1.5,38.2,5.6c6.4,4,11.8,9.4,15.7,15.9c1,1.7,3.6,0.1,2.6-1.5
				c-7.3-12.2-20-21-33.9-23.8c-13.7-2.8-28.1,0.7-39.3,8.9c-6.4,4.7-11.7,10.7-15.3,17.7C339.9,427.4,342.5,428.9,343.4,427.2
				L343.4,427.2z"/>
		</g>
		<g>
			<path d="M354.9,373.4c21.1,11,46.9,11.3,68.2,0.8c1.7-0.9,0.2-3.5-1.5-2.6c-20.3,10-45.1,9.7-65.2-0.8
				C354.7,369.9,353.2,372.5,354.9,373.4L354.9,373.4z"/>
		</g>
		<path d="M440.7,406.4c0.7,4.5,0.4,9.3-2.3,13.1c-1.9,2.7-4.8,4.5-7.9,5.6c-7.3-12.3-19.5-21.2-33.2-24.5
			c-14.3-3.4-29.2-0.2-41.1,8.3c-6.6,4.7-12,10.9-15.8,18.1c-1.1-1.1-1.8-2.6-2.4-4.1c-0.4-0.9-0.7-1.9-1-2.8l0-0.1
			c-5.4-17.8,4.3-36.4,18-47.4c14.9-12,35.2-16.5,53.3-9.5C426.1,369.8,437.8,387.6,440.7,406.4z"/>
		<path class="st1" d="M421.7,371.8c-19.9,9.8-44.3,9.7-64.1-0.3c14.4-10.5,33.3-14.4,50.3-8C413,365.3,417.6,368.2,421.7,371.8z"/>
	</g>
</g>
</svg>
