<?xml version="1.0" encoding="utf-8"?>
<!-- Generator: Adobe Illustrator 25.1.0, SVG Export Plug-In . SVG Version: 6.00 Build 0)  -->
<svg version="1.1" id="Layer_1" xmlns="http://www.w3.org/2000/svg" xmlns:xlink="http://www.w3.org/1999/xlink" x="0px" y="0px"
	 viewBox="0 0 800 800" style="enable-background:new 0 0 800 800;" xml:space="preserve">
<style type="text/css">
	.st0{fill:#FCFCFC;}
	.st1{fill:#F98F8F;}
	.st2{fill:#8DB0F7;}
</style>
<g>
	<path d="M452,426c-3.7,1.7-7.5,2.4-11.3,2.3c-8.8-0.1-17.8-3.8-26.1-6c-20.3-5.4-40.4,2.4-60.7,3.8c-1.7,0.1-3.4,0.2-5.2,0.2
		l-17.6-3.6c-2.8-2.2-4.3-5.5-5.9-8.7c-1.6-3.3-2.5-6.8-2.7-10.4l4.1-20.1c3.4-7.3,8.7-13.7,15.1-18.4c1.4-1,2.8-2,4.3-2.8
		c9.8-5.8,21.3-8.3,32.5-9.7c7.2-0.9,14.5-1.3,21.7-1.5c7.4-0.2,14.8-0.4,22.2-0.1c0.5,0,1.1,0,1.6,0.1l23.3,4.7
		c4,1.7,7.8,3.9,11.1,6.9c4.3,3.8,7.6,8.7,9.2,14.3c1.7,6.1,1.4,12.6,0.3,18.8C466.3,406.8,463.3,420.7,452,426z"/>
	<path class="st0" d="M443.8,354.3l-1.3,5.1c-4.5,3.3-9.4,6.5-14.5,8.7c-24.3,10.8-51.7,6.8-73.9-7.5c-0.1-0.1,2-1.1,1.9-1.2
		c-2.6,1.2,1.5-1.5-1,0.1l-8.9,2.7c9.8-5.8,21.3-8.3,32.5-9.7c7.2-0.9,14.5-1.3,21.7-1.5c7.4-0.2,14.8-0.4,22.2-0.1
		c0.5,0,1.1,0,1.6,0.1c0.9,0,1.9,0.1,2.8,0.2c0.9,0,1.8,0.1,2.7,0.2c1.2,0.1,2.4,0.3,3.6,0.5c1.8,0.3,3.6,0.6,5.3,1
		C440.4,353.2,442.1,353.7,443.8,354.3z"/>
	<path class="st1" d="M441.1,426.6l-0.3,1.6c-8.8-0.1-17.8-3.8-26.1-6c-20.3-5.4-40.4,2.4-60.7,3.8l-10.2-2.1l4.7,0.2
		c1.5,0.1,1.6,0.4,3.1,0.4c0.6,0-0.4-0.4,0.3-0.4c2-7.2,6-12.9,12.1-17.2c12-8.4,26.7-9,40.7-6.1c13.4,2.8,25.8,10.7,28.8,24.8
		C435.4,426,439.1,426.6,441.1,426.6z"/>
	<g>
		<g>
			<path class="st2" d="M270.2,304.9c-13.9-5.7-33.4-3.9-44.5,6.2c-3.2,2.9-6.2,7.3-4.5,11.3c1,2.5,3.6,4.1,6.3,4.4
				c2.7,0.3,5.4-0.4,7.8-1.6c6.3-2.9,11.3-7.9,16.8-12.2c5.4-4.3,11.9-8.1,18.9-7.6"/>
			<g>
				<path d="M270.4,304.2c-13.4-5.3-30.6-4.4-42.5,4.2c-4.8,3.4-11.6,11-5.9,16.7c6.2,6.2,15.9,0.2,21.3-4
					c8.3-6.3,16.2-15.5,27.5-15c0.9,0,0.9-1.4,0-1.5c-7.2-0.3-13.6,3.3-19,7.6c-6.2,4.8-12.2,11.6-20.2,13.5
					c-4.6,1.1-11.1-0.9-10.2-6.8c0.7-4,4.2-7.3,7.4-9.5c5.6-3.9,12.3-6,19-6.7c7.4-0.8,15.1,0.1,22,2.9
					C270.9,306,271.3,304.5,270.4,304.2L270.4,304.2z"/>
			</g>
		</g>
		<g>
			<g>
				<path d="M473.4,219.1c18.2-7.9,39.6-0.5,49.6,16.4c2.4,4.1,8.7,0.4,6.3-3.7c-5.5-9.3-14-16.5-24.1-20.3
					c-11.5-4.4-24.3-3.5-35.5,1.3C465.4,214.6,469.1,220.9,473.4,219.1L473.4,219.1z"/>
			</g>
			<g>
				<path d="M282.1,222.2c13-15.6,35.1-19.2,52.3-8.2c4,2.5,7.7-3.8,3.7-6.3c-19.7-12.6-46.2-8.6-61.2,9.4
					C273.9,220.6,279.1,225.8,282.1,222.2L282.1,222.2z"/>
			</g>
			<g>
				<path d="M389.8,334c2.5-5.9,8.9-9.9,15.3-9.5c6.3,0.4,11.9,5.1,13.7,11c0.6,1.8,3.4,1,2.8-0.8c-2.2-7.3-8.9-12.7-16.6-13.2
					c-7.8-0.5-15.2,4.5-18.1,11.6C386.2,335,389,335.8,389.8,334L389.8,334z"/>
			</g>
			<g>
				<path d="M447.7,302.1c6.3-11.1,18.9-18,31.7-17c12.4,1,23.7,9.8,28.1,21.4c1.3,3.5,7,2,5.7-1.6c-5.3-13.9-18-24-32.9-25.6
					c-15.1-1.6-30.2,6.8-37.7,19.8C440.7,302.4,445.8,305.4,447.7,302.1L447.7,302.1z"/>
			</g>
			<g>
				<path class="st2" d="M509.6,317c-4.6,9.8-8.3,20.6-9.4,31.3c-0.2,2.5-0.3,5.2,1.4,7c2.3,2.4,6.5,1.7,9-0.5
					c4.4-3.7,5.5-10,5.3-15.8c-0.3-8-2.3-15.9-5.9-23"/>
				<g>
					<path d="M508.9,316.6c-3.1,6.6-5.7,13.4-7.5,20.4c-0.9,3.5-1.5,7-1.9,10.6c-0.3,2.5-0.5,5.5,1.1,7.7c3.1,4.4,9.3,1.9,12.1-1.5
						c3.5-4.2,4.1-10.1,3.9-15.4c-0.4-7.9-2.5-15.6-6-22.7c-0.4-0.8-1.7-0.1-1.3,0.7c3.4,6.8,5.5,14.3,5.8,21.9
						c0.3,6-0.7,14.6-7.1,17.2c-1.5,0.6-3.3,0.9-4.9,0.1c-1.9-1-2.3-3.1-2.3-5c-0.1-3.7,0.8-7.5,1.6-11.1c1.7-7.7,4.5-15.1,7.8-22.2
						C510.6,316.5,509.3,315.8,508.9,316.6L508.9,316.6z"/>
				</g>
			</g>
			<g>
				<path class="st2" d="M540.3,330.7c15.3-4.8,35.4-0.3,45.3,12.2c3.3,4.1,5.7,10.1,2.9,14.6c-3,4.7-10.3,4.7-15,1.7
					c-4.7-3-7.7-8-11.3-12.3c-5.9-7.2-13.6-12.8-22.2-16.3"/>
				<g>
					<path d="M540.5,331.4c14.2-4.4,31.9-1.2,42.5,9.6c2.9,3,5.7,6.9,6,11.2c0.4,4.8-3.1,8.1-7.6,8.3c-9,0.5-13.8-8.5-18.8-14.4
						c-6-7.2-13.7-12.6-22.3-16.2c-0.9-0.4-1.3,1.1-0.4,1.4c10.1,4.1,18,11,24.6,19.6c4.6,6.1,11,13.1,19.5,10.7
						c8.7-2.4,7.1-12.4,3-18.1c-4.6-6.4-11.7-10.7-19.1-13.1c-8.9-2.8-18.7-3.1-27.7-0.3C539.2,330.2,539.6,331.6,540.5,331.4
						L540.5,331.4z"/>
				</g>
			</g>
			<g>
				<path d="M281.9,298.2c7.7-10.9,20.7-17.7,34-17.6c13.4,0.2,26.2,7.4,33.6,18.4c2.1,3.1,7.2,0.2,5.1-3
					c-8.6-12.8-23.1-21.1-38.6-21.3c-15.5-0.2-30.2,7.9-39.1,20.5C274.7,298.4,279.8,301.3,281.9,298.2L281.9,298.2z"/>
			</g>
		</g>
	</g>
	<g>
		<path d="M468.2,395.6c1-6.2,1.4-12.7-0.3-18.8c-1.6-5.6-4.9-10.4-9.2-14.3c-3.3-3-7.1-5.2-11.1-6.9c-1.2-0.5-2.4-1-3.7-1.4
			c-1.7-0.6-3.4-1.1-5.2-1.4c-1.7-0.4-3.5-0.8-5.3-1c-1.2-0.2-2.4-0.3-3.6-0.5c-0.9-0.1-1.8-0.2-2.7-0.2c-0.9-0.1-1.9-0.1-2.8-0.2
			c-0.5,0-1.1-0.1-1.6-0.1c-7.4-0.3-14.8-0.1-22.2,0.1c-7.3,0.2-14.5,0.6-21.7,1.5c-11.2,1.4-22.7,3.9-32.5,9.7
			c-1.5,0.9-2.9,1.8-4.3,2.8c-6.4,4.8-11.7,11.2-15.1,18.4c-1.8,3.9-3.1,8.1-3.8,12.4c-0.4,2.6-0.5,5.1-0.3,7.7
			c0.2,3.6,1.1,7.1,2.7,10.4c1.6,3.2,3.1,6.5,5.9,8.7c0.5,0.4,1.1,0.8,1.7,1.1c2.2,1.2,4.6,1.7,7.1,1.9c0.1,0,0.2,0,0.3,0
			c0,0,0.1,0,0.1,0c2.8,0.4,5.7,0.5,8.5,0.5c1.7,0,3.4-0.1,5.2-0.2c20.3-1.4,40.4-9.1,60.7-3.8c8.3,2.2,17.3,5.9,26.1,6
			c3.8,0.1,7.6-0.6,11.3-2.3C463.3,420.7,466.3,406.8,468.2,395.6z M462.4,407.7c-1.7,5.4-4.2,10.9-9.1,14.2
			c-3.7,2.5-7.8,3.4-12,3.4c-2,0-4.1-0.2-6.2-0.6c-1-0.2-2.1-0.4-3.2-0.6c-4.6-1.1-9.2-2.6-13.4-3.9c-6-1.8-12-2.9-18.2-2.9
			c-5.8-0.1-11.5,0.5-17.2,1.4c-10,1.5-19.9,3.8-29.9,4.3c-1,0.1-2.1,0.1-3.1,0.2c-0.6,0-1.2,0-1.9,0c-1.5,0-2.9,0-4.3-0.1
			c-1.1-0.1-2.2-0.2-3.3-0.3c-0.2,0-0.4-0.1-0.6-0.1c-0.1,0-0.3,0-0.5-0.1c-4-0.6-7-2.1-9.2-5.7c-2.8-4.7-4.7-9.7-4.8-15.2
			c-0.2-11.9,5.9-23.6,14.6-31.5c1.7-1.5,3.5-2.9,5.3-4.1c2.4-1.6,5-3,7.6-4.2c1.1-0.5,2.1-0.9,3.2-1.3c5.7-2.2,11.6-3.6,17.5-4.5
			c13.4-2.1,27-2.3,40.5-2.4c9.5-0.1,19.3,0.2,28.4,3.2c0.2,0.1,0.5,0.2,0.7,0.3c0.8,0.3,1.7,0.6,2.5,1c2,0.8,4,1.8,5.9,3
			c4.6,2.9,8.7,6.8,11.3,11.6c2.9,5.4,3.5,11.7,2.9,17.7C465.4,396.2,464.1,402.1,462.4,407.7z"/>
	</g>
	<g>
		<path d="M432.5,425.9c-0.1-0.6-0.3-1.2-0.5-1.8c-1.6-5.9-5.4-11-10.3-14.8c-10.9-8.4-26.8-9.9-40.1-7.8
			c-12.2,1.9-24.5,9.1-28.4,21.5c-0.1,0.4-0.2,0.8-0.3,1.2c-0.2,0.9-1.1,1.2-1.8,1.1s-1.3-0.7-1.1-1.7c0-0.1,0.1-0.3,0.1-0.5
			c2-7.2,6.7-13.2,12.8-17.5c12-8.4,28.7-9.3,42.7-6.4c13.4,2.8,26.6,11.4,29.6,25.5c0,0.1,0,0.1,0.1,0.2
			C435.6,426.8,432.8,427.8,432.5,425.9z"/>
	</g>
	<g>
		<path d="M446,358c-0.1,0-0.1,0.1-0.2,0.1c-1,0.9-2.1,1.7-3.2,2.5c-4.5,3.3-9.2,6-14.3,8.3c-24.3,10.8-52.7,7.7-75-6.7
			c-0.1-0.1-0.2-0.2-0.3-0.3c-1-1.1,0.2-3.2,1.7-2.3c0.5,0.3,1,0.7,1.6,1c5.8,3.6,12.1,6.4,18.6,8.4c12.2,3.8,25.2,4.6,37.7,1.9
			c11-2.3,21.3-7.1,30.1-14c0.3-0.2,0.6-0.4,0.9-0.7c0.3-0.2,0.6-0.5,0.9-0.7C445.8,354.4,447.4,356.8,446,358z"/>
	</g>
</g>
</svg>
