<?xml version="1.0" encoding="utf-8"?>
<!-- Generator: Adobe Illustrator 25.1.0, SVG Export Plug-In . SVG Version: 6.00 Build 0)  -->
<svg version="1.1" id="Layer_1" xmlns="http://www.w3.org/2000/svg" xmlns:xlink="http://www.w3.org/1999/xlink" x="0px" y="0px"
	 viewBox="0 0 800 800" style="enable-background:new 0 0 800 800;" xml:space="preserve">
<style type="text/css">
	.st0{fill:#FFFFFF;}
	.st1{fill:#FF9933;}
	.st2{fill:#00CCCC;}
	.st3{fill:#01F4F0;}
	.st4{fill:#FFB204;}
	.st5{fill:#FAE200;}
</style>
<g>
	<g id="Group_10811" transform="translate(4.437 14.834)">
		<path id="Path_10519" class="st0" d="M205.1,239.4c-0.8,0.7-2,0.7-2.8-0.1c0,0,0,0,0,0c-25.9-28-79-67.3-143.2-16.3
			c-12.1,9-23.1,19.3-32.8,30.8c-0.4,0.5-1,0.8-1.6,0.8c-0.4,0-0.8-0.1-1.2-0.4c-0.9-0.6-1.1-1.9-0.4-2.7c0,0,0,0,0,0
			c9.9-11.8,21.1-22.4,33.5-31.6c66.6-53,121.6-12.3,148.5,16.7C206,237.4,206,238.6,205.1,239.4
			C205.2,239.4,205.2,239.4,205.1,239.4z"/>
	</g>
	<path id="Path_10520" class="st0" d="M361.8,170.1L361.8,170.1l-2.6-1.3L361.8,170.1z"/>
	<path id="Path_10521" class="st0" d="M575.7,294.7L575.7,294.7L565,277.3L575.7,294.7z"/>
	<path id="Path_10522" d="M359.2,168.7l2.6,1.3l0,0L359.2,168.7z M570.8,279.3l7.1,11.6l0,0L570.8,279.3z M359.2,168.7l2.6,1.3l0,0
		L359.2,168.7z"/>
	<path id="Path_10523" d="M746.8,223.3c-36.4-28.9-73.7-37.2-110.9-24.6c-30,10.2-53.6,31.9-68.4,48.8l-24.8-18.6l7.7,3
		c1.3,0.5,2.8-0.1,3.3-1.4c0.4-1,0.1-2.1-0.6-2.8l-7.8-7.2c3.2-4.8,6.7-9.5,10.5-13.9c12.8-16,28.8-36,20.4-52.4
		c-1.6-3.6-5-6-8.9-6.4c-16-2-45.5,25.8-60.8,41.5c-0.6-0.4-1.3-0.7-2-1.1l-0.2-0.1c-2.7-1.4-5.5-2.9-8.5-4.4c-2-1-4.2-2-6.5-3.1
		c-1.9-0.9-3.8-1.8-5.8-2.6c-10.2-4.5-20.6-8.5-31.3-11.8c-0.4-0.1-0.7-0.2-1.1-0.3l-0.4-0.1c-15.8-5-32.1-7.9-48.7-8.7
		c-8-0.3-16,0.2-23.8,1.4l-1.4,0.3l3.9-13c0.4-1.2-0.2-2.5-1.3-3c-1.1-0.6-2.5-0.2-3.2,0.8l-15,20.7l-0.6,0.8l-0.4-0.2l-17.8-9.4
		c-1.3-0.7-2.8-0.2-3.5,1.1c-0.4,0.8-0.4,1.9,0.2,2.7l5.1,7.3l-33-14c-1.3-0.6-2.8,0-3.4,1.3c-0.5,1-0.2,2.2,0.7,3l24.1,20.2
		l-15.8,10.8c-15.6-15.9-43.8-42-59.4-40c-3.9,0.4-7.3,2.9-8.9,6.4c-8.4,16.4,7.6,36.4,20.4,52.4c3.8,4.8,7.8,9.7,10.4,13.9
		l-1.1,0.7c-1.2,0.8-1.5,2.4-0.7,3.6c0.5,0.7,1.2,1.1,2,1.1c-12.2,8-23.4,17.2-33.5,27.7c-0.8,0.9-0.9,2.2-0.2,3.2
		c0.7,1,1.9,1.4,3.1,0.9l1.9-0.7l-5.5,6.8c-10.1-14.1-47.6-61.7-100-69.6c-31-4.6-62,5.2-92.2,29.1C6.4,260.5,5.3,272.6,8.5,278.5
		c8.2,15.2,64.3-3.3,66.7-4.1c1.1-0.4,2.3,0.2,2.6,1.3c0.1,0.4,0.1,0.9,0,1.3c-3.9,11.5-3.5,19.7,1.3,23.8
		c6.8,5.8,21.3,2.8,44.2-9.3c0.6-0.3,1.4-0.3,2,0c0.6,0.3,1,0.9,1,1.6c0.6,6.4,2.9,14.9,10.1,18.8c2.8,1.5,5.9,2.3,9.1,2.2
		c6.8-0.4,13.4-2.2,19.4-5.5c17.3-8.1,36-12.8,55.1-13.9l-1.9,2.4c-0.9,1.1-0.7,2.7,0.4,3.6c0.8,0.7,2,0.8,2.9,0.2l9.4-5.7
		l-36.6,62.1c-0.7,1.2-0.3,2.8,0.9,3.5c0.9,0.5,2,0.5,2.9-0.2l14.4-11l-32.1,69.3c-0.6,1.3-0.1,2.8,1.2,3.4c0.8,0.4,1.8,0.3,2.5-0.2
		l20.3-13.3L179.9,474c-0.5,1.3,0.2,2.8,1.5,3.3c0.8,0.3,1.7,0.2,2.4-0.3l19.9-14.2l-11.3,62.5c-0.3,1.4,0.7,2.7,2.1,3
		c0.8,0.2,1.7-0.1,2.3-0.7l25.3-24.9l-11.3,56.7c-0.3,1.4,0.6,2.7,2,3c0.8,0.2,1.7-0.1,2.3-0.7l27.2-28.1l-7.3,59.1
		c-0.2,1.4,0.8,2.7,2.2,2.8c1,0.1,1.9-0.3,2.5-1.2L261,561l2.6,38.6c0.1,1.4,1.3,2.5,2.8,2.4c0.8-0.1,1.5-0.5,1.9-1.1l13.1-19.2
		l8.4,38.6c0.3,1.4,1.6,2.3,3,2c0.7-0.2,1.4-0.6,1.7-1.3l10.1-19.2l10.2,35.5c0.4,1.4,1.8,2.1,3.2,1.7c0.6-0.2,1.2-0.6,1.5-1.2
		l11.8-21.9l10.6,28.3c0.3,0.8,1,1.5,1.9,1.6c0.9,0.2,1.8-0.1,2.3-0.8l18.3-19.6l16.8,30.9c0.4,0.8,1.3,1.3,2.2,1.3h0
		c1,0,1.8-0.6,2.2-1.4l12.8-26l21.8,23.1c0.6,0.7,1.5,1,2.4,0.8c0.9-0.2,1.6-0.9,1.9-1.7l8.1-25.6l28.4,27.9c1,1,2.6,1,3.6,0
		c0.5-0.5,0.8-1.1,0.8-1.8v-30.9l20.8,19.5c0.7,0.7,1.7,0.9,2.6,0.5c0.9-0.3,1.6-1.1,1.7-2.1l4.1-34.4l16.2,15.3
		c1,1,2.6,0.9,3.6-0.1c0.3-0.3,0.5-0.8,0.6-1.2l7.6-37l14.8,25.8c0.7,1.2,2.3,1.6,3.5,0.9c0.6-0.4,1.1-1,1.2-1.8l8.5-47.9L569,589
		c0.8,1.2,2.3,1.6,3.5,0.8c0.7-0.5,1.2-1.3,1.2-2.2V519c15.9,22.2,17.5,22,18.8,21.9c0.8-0.1,1.4-0.5,1.8-1.2
		c0.3-0.7,1.1-2.3,0.3-59.6l15.9,26.4c0.7,1.2,2.3,1.6,3.5,0.9c0.9-0.5,1.4-1.6,1.2-2.6l-13-76.8l13,13.7c1,1,2.6,1.1,3.6,0.1
		c0.7-0.7,1-1.7,0.7-2.6l-19.2-60.9l15,11.1c0.9,0.7,2.2,0.7,3.1-0.1c0.9-0.8,1.2-2,0.7-3.1l-28.5-58.3l8.6,7.4
		c1.1,0.9,2.7,0.8,3.6-0.3c0.7-0.8,0.8-2.1,0.2-3l-22.7-37c18.9,1.1,37.5,5.8,54.7,13.9c6,3.3,12.6,5.1,19.4,5.5
		c3.2,0.1,6.3-0.7,9.1-2.2c7.2-4,9.5-12.5,10.1-18.8c0.1-0.7,0.5-1.3,1.1-1.6c0.6-0.3,1.4-0.3,2,0c22.9,12.1,37.4,15.1,44.2,9.3
		c4.8-4.1,5.3-12.4,1.3-23.8c-0.4-1.1,0.2-2.3,1.3-2.6c0.4-0.1,0.9-0.2,1.3,0c2.4,0.8,58.5,19.3,66.7,4.1
		C794.7,272.6,793.6,260.5,746.8,223.3z M566.7,151.6c2.6,0.3,4.8,1.9,5.9,4.3c7.2,14.2-7.8,33-20,48.2c-4,5-7.7,9.6-10.3,13.7
		l-14.1-12.9c-5.6-5.2-11.7-9.8-18.3-13.7C526.8,174,553.6,150,566.7,151.6L566.7,151.6z M272.1,204.1c-12.1-15.2-27.2-34-20-48.2
		c1.1-2.4,3.3-4,5.9-4.3c0.4-0.1,0.9-0.1,1.3-0.1c13.2,0,38,22,54.2,38.5l-13.7,9.4c-1,0.7-1.4,2-0.9,3.1c0.5,1.1,1.7,1.8,2.9,1.5
		l3.9-0.8l-23.1,15.1C279.4,213.4,275.9,208.7,272.1,204.1L272.1,204.1z M163.2,305.3c-10.9,5.4-19.3,6.5-24.9,3.4
		c-5.7-3.2-7.5-10.4-8.1-15.8c-0.2-2-1.3-3.7-3.1-4.7c-1.8-0.9-3.9-1-5.7,0c-26.2,13.8-36.1,12.9-39.8,9.8c-4.6-4-2.1-14-0.2-19.6
		c1.1-3.1-0.6-6.5-3.7-7.6c-1.2-0.4-2.6-0.4-3.8,0c-22.9,7.6-57.3,14.5-62,5.9c-2.2-4,0.6-16,43.7-50.3
		c29.3-23.3,59.2-32.8,89.1-28.3c52.1,7.8,89.2,56.3,98,68.8l-19.5,23.9C202.5,291.5,182.1,296.4,163.2,305.3z M595.2,326.5l-6.9-6
		c-0.9-0.8-2.2-0.9-3.2-0.1c-1,0.7-1.3,2.1-0.8,3.2l29,59.3l-13.9-10.2c-0.9-0.7-2.1-0.7-3,0c-0.9,0.6-1.3,1.8-0.9,2.8l18.7,59.2
		l-12-12.7c-1-1-2.6-1.1-3.6-0.1c-0.6,0.6-0.9,1.5-0.8,2.3l12.5,74.1l-14.8-24.6c-0.7-1.2-2.3-1.6-3.5-0.9c-0.8,0.5-1.2,1.3-1.2,2.2
		c0.4,29.8,0.5,51.8,0.3,59.9c-2.9-3.3-8.4-10.5-16.4-21.7c-0.8-1.2-2.4-1.5-3.6-0.7c-0.7,0.5-1.1,1.3-1.1,2.1v68.1l-17.6-28.6
		c-0.7-1.2-2.3-1.6-3.5-0.8c-0.6,0.4-1.1,1-1.2,1.7l-8.5,47.7l-14.7-25.6c-0.7-1.2-2.3-1.7-3.5-1c-0.6,0.4-1.1,1-1.2,1.7l-7.8,38.1
		l-16.3-15.4c-1-1-2.6-1-3.6,0.1c-0.4,0.4-0.6,0.9-0.7,1.5l-4.1,34.5l-21.1-19.8c-1-1-2.7-0.9-3.6,0.1c-0.4,0.5-0.7,1.1-0.7,1.8
		v30.8l-27.6-27.2c-1-1-2.6-1-3.6,0c-0.3,0.3-0.5,0.6-0.6,1l-8,25.5l-21.5-22.9c-0.6-0.6-1.4-0.9-2.2-0.8c-0.8,0.1-1.5,0.6-1.9,1.4
		L383.6,652l-16.5-30.2c-0.4-0.7-1.1-1.2-1.9-1.3c-0.1,0-0.2,0-0.3,0c-0.7,0-1.4,0.3-1.9,0.8l-18.1,19.4l-10.9-29
		c-0.5-1.3-2-2-3.3-1.5c-0.6,0.2-1,0.6-1.3,1.2L317.7,633l-10.2-35.5c-0.3-1-1.1-1.7-2.1-1.9c-1.1-0.1-2.1,0.4-2.6,1.3l-10,18.8
		l-8.3-38.1c-0.2-1-1-1.7-2-1.9c-1-0.2-2,0.2-2.6,1.1l-12.6,18.6l-2.6-38.8c-0.1-1.4-1.3-2.5-2.7-2.4c-0.8,0.1-1.5,0.5-2,1.2
		l-20.4,31.8l7.1-57.2c0.2-1.4-0.8-2.7-2.2-2.8c-0.8-0.1-1.6,0.2-2.1,0.8l-26.8,27.7l11.3-56.5c0.3-1.4-0.6-2.7-2-3
		c-0.8-0.2-1.7,0.1-2.3,0.7l-25.4,25l11.1-61.6c0.2-1.4-0.7-2.7-2.1-3c-0.7-0.1-1.4,0-1.9,0.4l-19,13.6l24.1-64.5
		c0.4-1,0-2.2-0.8-2.9c-0.9-0.7-2.1-0.8-3-0.1l-19.7,12.9l32.5-70c0.6-1.3,0-2.8-1.2-3.4c-0.9-0.4-1.9-0.3-2.6,0.3l-13.2,10.1
		l35.3-59.9l0.4-0.8c0.6-1,0.4-2.3-0.4-3.1c-0.8-0.8-2.1-1-3.1-0.4l-7.3,4.4l21.7-26.6l9.5-11.7c0.8-0.9,0.8-2.2,0.1-3.1
		c-0.7-1-1.9-1.3-3-0.9l-0.9,0.4c9.1-8.6,18.9-16.3,29.3-23.2c0.7-0.4,1.3-0.9,1.9-1.3c0.6-0.4,1.2-0.8,1.8-1.2
		c1.1-0.7,2.1-1.3,2.9-1.9c1.1-0.7,1.5-2,1-3.2c-0.4-0.9-1.3-1.5-2.2-1.5l26.1-17.1c1-0.7,1.4-2,0.9-3.1c-0.5-1.1-1.7-1.8-2.9-1.5
		l-4.4,0.9l8.6-5.9l1.6-1.1l1.6-1.1l16.7-11.4c0.7-0.4,1.1-1.2,1.1-2c0.1-0.8-0.3-1.6-0.9-2.1l-18.5-15.5l29,12.3
		c1.3,0.5,2.8-0.1,3.4-1.4c0.3-0.8,0.2-1.7-0.3-2.5l-4.6-6.5l11.1,5.9l1.4,0.7l1,0.6l0.1,0l2.6,1.3l0.7-1l0.4-0.5l11.8-16.2
		l-2.2,7.5c-0.4,1.3,0.4,2.8,1.7,3.2c0.4,0.1,0.8,0.1,1.2,0.1l3.6-0.7c7.6-1.2,15.3-1.7,23-1.4c16.2,0.8,32.2,3.6,47.7,8.5l0.4,0.1
		c0.3,0.1,0.7,0.2,1,0.3c10.5,3.3,20.8,7.2,30.9,11.7c2,0.9,3.9,1.7,5.8,2.6c2.2,1,4.4,2.1,6.4,3.1c3,1.4,5.8,2.9,8.4,4.3l0.2,0.1
		l0.9,0.5c0.6,0.3,1.2,0.7,1.8,1c0.6,0.3,1.1,0.7,1.7,1c6.6,3.9,12.8,8.5,18.4,13.7l14.7,13.5l1.5,1.4l1.5,1.4l1.8,1.6l-2.1-0.8
		l-1.8-0.7l-1.8-0.7l-4.5-1.8c-1.2-0.5-2.6,0-3.2,1.1c-0.2,0.3-0.3,0.6-0.3,0.9c-0.1,0.9,0.3,1.8,1,2.4l32.7,24.5l4.8,3.6l-5.9-2.2
		l-10.3-3.9c-1.2-0.4-2.5,0-3.1,1.1c-0.7,1.1-0.5,2.4,0.5,3.2l7.4,6.5l25.8,22.8l-15.9-7.9c-1-0.5-2.3-0.3-3,0.6
		c-0.8,0.8-0.9,2.1-0.3,3.1l10.7,17.4L595.2,326.5z M788.1,276.6c-1.5,2.8-6.3,4-12.8,4c-16.8-1-33.3-4.4-49.2-9.9
		c-3.1-1-6.5,0.7-7.6,3.8c-0.4,1.2-0.4,2.6,0,3.8c1.9,5.6,4.4,15.6-0.2,19.6c-3.7,3.2-13.6,4-39.8-9.8c-1.8-0.9-3.9-0.9-5.7,0
		c-1.7,0.9-2.9,2.7-3.1,4.7c-0.5,5.5-2.4,12.6-8.1,15.8c-5.6,3.1-13.9,2-24.9-3.4c-18.5-8.6-38.5-13.5-58.9-14.4l0,0l-7.1-11.6
		l20.9,10.5c0.4,0.2,0.8,0.3,1.2,0.3c0.2,0,0.3,0,0.4-0.1c0.2,0,0.3-0.1,0.4-0.1l0,0c0.2-0.1,0.4-0.2,0.5-0.3
		c0.1-0.1,0.2-0.2,0.4-0.3c0.1-0.1,0.2-0.2,0.3-0.4c0.7-1.1,0.5-2.5-0.4-3.3l-30.9-27.3l-1.5-1.3l-1.5-1.3l-1.6-1.4l2,0.8l1.9,0.7
		l1.9,0.7l12.4,4.7c1.3,0.5,2.8-0.2,3.3-1.5c0.4-1.1,0.1-2.3-0.8-2.9l-9.2-6.9c31.9-36.3,95.6-85.6,173.7-23.5
		C787.5,260.7,790.3,272.6,788.1,276.6L788.1,276.6z"/>
	<path id="Path_10524" class="st1" d="M572.6,155.9c-1.1-2.4-3.3-4-5.9-4.3c-13.1-1.7-40,22.4-56.8,39.6c6.5,3.9,12.7,8.5,18.3,13.7
		l14.1,12.9c2.6-4.1,6.3-8.6,10.3-13.7C564.8,189,579.9,170.1,572.6,155.9z M538,199.5c0-0.1-0.1-0.1-0.1-0.1
		c-1.6-1.7-3.1-3.4-4.7-5.1c-1.1-1.1-2.1-2.2-3.2-3.3c-1.2-1.1-2.4-2.1-3.7-3c1.7,0,3.4,0.5,4.9,1.3c1.5,0.9,2.8,1.9,3.9,3.2
		c1.1,1.2,2.1,2.6,2.9,4c0.8,1.5,1.4,3,1.7,4.7c0,0,0,0,0,0L538,199.5z M550,186.1C550,186.1,550,186,550,186.1
		c-1.6-1.9-3-3.8-4.5-5.6c-1-1.2-1.9-2.4-3-3.5c-1.1-1.2-2.2-2.3-3.5-3.3c1.7,0.1,3.4,0.7,4.8,1.7c1.4,1,2.7,2.1,3.7,3.5
		c1,1.3,1.9,2.7,2.6,4.3c0.7,1.5,1.2,3.1,1.4,4.8c0,0,0,0,0,0L550,186.1z M563.3,175.2C563.3,175.2,563.2,175.2,563.3,175.2
		c-1.6-1.9-3-3.8-4.4-5.6c-1-1.2-1.9-2.4-3-3.5c-1.1-1.2-2.2-2.3-3.5-3.3c1.7,0.1,3.4,0.7,4.8,1.7c1.4,0.9,2.7,2.1,3.7,3.5
		c1,1.3,1.9,2.7,2.6,4.3c0.7,1.5,1.2,3.1,1.4,4.8c0,0,0,0,0,0L563.3,175.2z"/>
	<path id="Path_10525" class="st1" d="M299,202.5c-0.5-1.1-0.1-2.4,0.9-3.1l13.7-9.4c-16.3-16.5-41-38.5-54.2-38.5
		c-0.5,0-0.9,0-1.3,0.1c-2.6,0.3-4.8,1.9-5.9,4.3c-7.2,14.2,7.8,33,20,48.2c3.8,4.5,7.3,9.3,10.6,14.2l23.1-15.1l-3.9,0.8
		C300.7,204.3,299.5,203.7,299,202.5z M268.9,166.1c-1.1,1.1-2,2.3-3,3.5c-1.4,1.8-2.8,3.6-4.4,5.5c0,0,0,0.1-0.1,0.1l-1.7,1.9
		c0,0,0,0,0,0c0.2-1.7,0.7-3.3,1.4-4.8c0.7-1.5,1.6-2.9,2.6-4.3c1-1.3,2.3-2.5,3.7-3.5c1.4-1,3.1-1.6,4.8-1.7
		C271.1,163.9,270,165,268.9,166.1L268.9,166.1z M282.2,177c-1.1,1.1-2,2.3-3,3.5c-1.4,1.8-2.8,3.7-4.4,5.5c0,0,0,0,0,0.1l-1.6,1.9
		c0.2-1.7,0.7-3.3,1.4-4.8c0.7-1.5,1.6-2.9,2.6-4.3c1.1-1.3,2.3-2.5,3.7-3.5c1.4-1,3.1-1.6,4.8-1.7
		C284.4,174.8,283.2,175.9,282.2,177L282.2,177z M294.8,190.9c-1.1,1-2.2,2.2-3.2,3.3c-1.6,1.7-3,3.4-4.7,5.1
		c-0.1,0-0.1,0.1-0.1,0.1l-1.8,1.7c0,0,0,0,0,0c0.3-1.6,0.9-3.2,1.7-4.7c0.8-1.5,1.8-2.8,2.9-4c1.1-1.3,2.5-2.3,4-3.2
		c1.5-0.9,3.2-1.3,4.9-1.3C297.2,188.9,296,189.9,294.8,190.9L294.8,190.9z"/>
	<path id="Path_10526" class="st2" d="M597.7,424.3l12.5,74.1l-14.8-24.6c-0.7-1.2-2.3-1.6-3.5-0.9c-0.8,0.5-1.2,1.3-1.2,2.2
		c0.4,29.8,0.5,51.8,0.3,59.9c-2.9-3.3-8.4-10.5-16.4-21.7c-0.8-1.2-2.4-1.5-3.6-0.7c-0.7,0.5-1.1,1.3-1.1,2.1v68.1l-17.6-28.6
		c-0.7-1.2-2.3-1.6-3.5-0.8c-0.6,0.4-1.1,1-1.2,1.7l-8.5,47.7l-14.7-25.6c-0.7-1.2-2.3-1.7-3.5-1c-0.6,0.4-1.1,1-1.2,1.7l-7.8,38.1
		l-16.3-15.4c-1-1-2.6-1-3.6,0.1c-0.4,0.4-0.6,0.9-0.7,1.5l-4.1,34.5l-21.1-19.8c-1-1-2.7-0.9-3.6,0.1c-0.4,0.5-0.7,1.1-0.7,1.8
		v30.8l-27.6-27.2c-1-1-2.6-1-3.6,0c-0.3,0.3-0.5,0.6-0.6,1l-8,25.5L400.3,626c-1-1-2.6-1.1-3.6-0.1c-0.2,0.2-0.4,0.4-0.5,0.7
		l-12.5,25.4l-16.5-30.2c-0.4-0.7-1.1-1.2-1.9-1.3c-0.1,0-0.2,0-0.3,0c-0.7,0-1.4,0.3-1.9,0.8l-18.1,19.4l-10.9-29
		c-0.5-1.3-2-2-3.3-1.5c-0.6,0.2-1,0.6-1.3,1.2L317.7,633l-10.2-35.5c-0.3-1-1.1-1.7-2.1-1.9c-1.1-0.1-2.1,0.4-2.6,1.3l-10,18.8
		l-8.3-38.1c-0.2-1-1-1.7-2-1.9c-1-0.2-2,0.2-2.6,1.1l-12.7,18.5l-2.6-38.8c-0.1-1.4-1.3-2.5-2.7-2.4c-0.8,0.1-1.5,0.5-2,1.2
		l-20.4,31.8l7.1-57.2c0.1-1.1-0.5-2.1-1.5-2.6c-1-0.5-2.2-0.2-2.9,0.5l-26.8,27.7l11.3-56.5c0.3-1.4-0.6-2.7-2-3
		c-0.8-0.2-1.7,0.1-2.3,0.7l-25.4,25l11.1-61.6c0.2-1.4-0.7-2.7-2.1-3c-0.7-0.1-1.4,0-1.9,0.4l-19,13.6l24.1-64.5
		c0.4-1,0-2.2-0.8-2.9c-0.9-0.7-2.1-0.8-3-0.1l-19.7,12.9l32.5-70c0.6-1.3,0-2.8-1.3-3.4c-0.9-0.4-1.9-0.3-2.6,0.3l-13.2,10.1
		l35.3-59.9l0.4-0.8c0.6-1,0.4-2.3-0.4-3.1c-0.8-0.8-2.1-1-3.1-0.4l-7.3,4.4l21.7-26.6l9.5-11.7c0.8-0.9,0.8-2.2,0.1-3.1
		c-0.7-1-1.9-1.3-3-0.9l-0.9,0.4c9.1-8.6,18.9-16.3,29.3-23.2c0.7-0.4,1.3-0.9,1.9-1.3l1.8-1.2c1.1-0.7,2.1-1.3,2.9-1.9
		c1.1-0.7,1.5-2,1-3.2c-0.4-0.9-1.3-1.5-2.2-1.5l26.1-17.1c1-0.7,1.4-2,0.9-3.1c-0.5-1.1-1.7-1.8-2.9-1.5l-4.4,0.9l8.6-5.9l1.6-1.1
		l1.6-1.1l16.7-11.4c0.7-0.4,1.1-1.2,1.1-2c0.1-0.8-0.3-1.6-0.9-2.1l-18.5-15.5l29,12.3c1.3,0.5,2.8-0.1,3.4-1.4
		c0.3-0.8,0.2-1.7-0.3-2.5l-4.6-6.5l11.1,5.9l1.4,0.7l1,0.6l0.1,0l2.6,1.3l0,0l0.7-1l0.4-0.5l11.8-16.2l-2.2,7.5
		c-0.4,1.4,0.4,2.8,1.7,3.2c0.4,0.1,0.8,0.1,1.2,0.1l3.6-0.7c7.6-1.2,15.3-1.7,23-1.4c16.2,0.8,32.2,3.6,47.7,8.5l0.4,0.1
		c0.3,0.1,0.7,0.2,1,0.3c10.5,3.3,20.8,7.2,30.9,11.7c2,0.9,3.9,1.7,5.8,2.6c2.2,1,4.4,2.1,6.4,3.1c3,1.4,5.8,2.9,8.4,4.3l0.2,0.1
		l0.9,0.5c0.6,0.3,1.2,0.7,1.8,1c0.6,0.3,1.1,0.7,1.7,1c6.6,3.9,12.8,8.5,18.4,13.7l14.7,13.5l1.5,1.4l1.5,1.4l1.8,1.6l-2.1-0.8
		l-1.8-0.7l-1.8-0.7l-4.5-1.8c-1.2-0.5-2.6,0-3.2,1.1c-0.2,0.3-0.3,0.6-0.3,0.9c-0.1,0.9,0.3,1.8,1,2.4l32.7,24.5l4.8,3.6l-5.9-2.2
		l-10.3-3.9c-1.2-0.4-2.5,0-3.1,1.1c-0.7,1.1-0.5,2.4,0.5,3.2l7.4,6.5l25.8,22.8l-15.9-7.9c-1-0.5-2.3-0.3-3,0.6
		c-0.8,0.8-0.9,2.1-0.3,3.1l10.7,17.4l0,0l19.5,31.9l-6.9-6c-0.9-0.8-2.2-0.9-3.2-0.1c-1,0.7-1.3,2.1-0.8,3.2l29,59.3l-13.9-10.2
		c-0.9-0.7-2.1-0.7-3,0c-0.9,0.6-1.3,1.8-0.9,2.8l18.7,59.2l-12-12.7c-1-1-2.6-1.1-3.6-0.1C597.9,422.5,597.6,423.4,597.7,424.3
		L597.7,424.3z"/>
	<g id="Group_10812" transform="translate(42.591 5.468)">
		<path id="Path_10527" class="st3" d="M548.4,419.4l7.1,42.3c-1.5-1.1-3.3-1.6-5.2-1.6c-0.8,0-1.7,0.1-2.5,0.3
			c-4,1.1-6.7,4.8-6.6,8.9c0.2,16.1,0.4,30.1,0.4,40.8c-1.4-1.9-3-4.1-4.7-6.5c-2.2-3.2-6.3-4.7-10.1-3.5c0,0,0,0-0.1,0
			c-3.8,1.2-6.4,4.7-6.4,8.7v44.9l-5.4-8.9c-1.7-2.7-4.6-4.3-7.7-4.3c-0.6,0-1.2,0.1-1.7,0.2c-3.7,0.7-6.6,3.6-7.2,7.3l-5.3,29.9
			l-5.7-9.9c-1.6-2.9-4.6-4.6-7.9-4.6c-0.5,0-0.9,0-1.3,0.1c0,0-0.1,0-0.1,0c-3.8,0.6-6.8,3.5-7.5,7.2l-5.4,26.6l-7.8-7.4
			c-3.6-3.5-9.4-3.3-12.9,0.3c-1.3,1.4-2.2,3.2-2.4,5.1v0.1l-2.6,21.6l-11.7-11c-3.7-3.4-9.5-3.2-12.9,0.5c-1.6,1.7-2.4,3.9-2.4,6.2
			V628l-16.5-16.2c-1.7-1.7-4-2.7-6.4-2.7c-0.7,0-1.4,0.1-2,0.2c-3.1,0.7-5.6,3-6.6,6c0,0.1,0,0.1,0,0.1l-4.7,14.9l-13.9-14.8
			c-1.7-1.8-4.1-2.8-6.6-2.8c-0.5,0-1,0-1.4,0.1c-2.9,0.5-5.5,2.3-6.8,5l-6.9,14.1L330,612.8c-1.4-2.5-3.9-4.3-6.7-4.7
			c-0.1,0-0.1,0-0.2,0c-0.4,0-0.7-0.1-1.1,0c-2.5,0-4.9,1.1-6.7,2.9l-10.8,11.7l-7.2-19.1c-1.3-3.3-4.4-5.7-7.9-5.9c0,0,0,0-0.1,0
			c-0.2,0-0.3,0-0.5,0c-3.4,0-6.5,1.8-8,4.8l-4,7.5l-5.8-20c-1-3.5-4-6.1-7.6-6.6c-0.4,0-0.8-0.1-1.1-0.1c-3.3,0-6.4,1.8-8,4.7
			c0,0.1-0.1,0.1-0.1,0.1l-1.6,3l-4.4-20.5c0,0,0-0.1,0-0.1c-0.8-3.5-3.6-6.1-7.1-6.8c-0.6-0.1-1.2-0.2-1.8-0.2c-3,0-5.8,1.5-7.5,4
			l-2,2.9l-1.3-19.9c-0.3-3.9-3-7.2-6.8-8.2c-0.7-0.2-1.5-0.3-2.2-0.3c-3.1,0-5.9,1.5-7.6,4.1c0,0,0,0-0.1,0.1l-4.9,7.6l3.6-28.7
			c0,0,0-0.1,0-0.1c0.6-5-3.1-9.5-8.1-10c-2.8-0.3-5.6,0.7-7.5,2.7l-11.4,11.7l6.9-34.7c1-4.9-2.2-9.7-7.2-10.7
			c-3-0.6-6,0.3-8.2,2.4l-10.7,10.5l7.5-41.3c0,0,0-0.1,0-0.1c0.6-3.6-1-7.2-4-9.2c0,0-0.1,0-0.1-0.1c-3.1-1.9-7-1.9-10,0.2
			l-0.1,0.1l-1.5,1.1l16.6-44.4c0,0,0-0.1,0-0.1c1.7-4.7-0.8-10-5.5-11.7c-1-0.3-2-0.5-3-0.5c-1.8,0-3.5,0.5-5,1.5l-0.6,0.4
			l22.9-49.3c1.8-3.8,0.7-8.3-2.5-10.9c-0.9-0.7-1.9-1.3-3-1.6l23.5-39.9c0,0,0,0,0-0.1l0.4-0.8c2.1-3.5,1.6-7.9-1.2-10.8l11.5-14.1
			l9.5-11.7c2-2.4,2.6-5.6,1.6-8.6c7.1-6.1,14.6-11.7,22.4-16.9l0.9-0.6l1-0.6l0.5-0.4c0.4-0.3,0.8-0.5,1.2-0.8
			c0.8-0.5,1.6-1,2.3-1.5l0.5-0.4c2.9-1.8,4.5-5,4.2-8.3l20.6-13.5c0,0,0,0,0.1,0c3.4-2.3,4.9-6.6,3.6-10.5l0.4-0.3l1.7-1.1
			l16.7-11.4c2.3-1.6,3.8-4.1,4-6.9l0.5,0.2l0.1,0c1.1,0.4,2.3,0.7,3.5,0.7c2.7,0,5.3-1.2,7.1-3.4c0.2-0.3,0.4-0.6,0.7-0.9l0.1,0.1
			c0.1,0,0.1,0.1,0.2,0.1l2.6,1.3c0.9,0.5,2,0.8,3,0.8c1.7,0,3.4-0.7,4.6-1.9c0.3-0.3,0.5-0.5,0.7-0.8l0.7-1l0.4-0.5l2.6-3.6
			c1.3,0.6,2.6,0.9,4,0.9c0.6,0,1.1-0.1,1.7-0.2l3.5-0.7c5.8-0.9,11.7-1.4,17.5-1.3c1.3,0,2.7,0,4.1,0.1c15.6,0.7,31.1,3.5,46,8.3
			l0.4,0.1c0,0,0.1,0,0.1,0c0.2,0.1,0.5,0.1,0.9,0.2c10.3,3.2,20.4,7,30.2,11.4c2,0.9,4,1.8,5.6,2.5c2.2,1,4.3,2,6.3,3
			c2.9,1.5,5.7,2.9,8.2,4.2l0.2,0.1l0.9,0.5c0,0,0.1,0,0.1,0c0.4,0.2,0.9,0.4,1.3,0.7l0.3,0.1c0.5,0.3,1,0.6,1.5,0.9l0.1,0.1
			c6.2,3.7,12,8,17.3,12.8l5.8,5.3c-0.4,0.5-0.8,1-1.1,1.6c0,0.1-0.1,0.1-0.1,0.2c-2.1,4-1,8.9,2.6,11.6l17.4,13
			c-0.3,0.4-0.6,0.8-0.9,1.2c-2.3,3.8-1.6,8.6,1.7,11.6l7.4,6.5l6.7,5.9c-0.1,0.1-0.2,0.2-0.2,0.2c-2.8,3-3.2,7.5-1.1,10.9
			l10.7,17.4c0.1,0.1,0.1,0.2,0.2,0.3l10.5,17.1c-3.2,2.7-4.2,7.1-2.4,10.9c0,0,0,0.1,0.1,0.1l19.1,39.1c-5,0.2-9,4.4-8.8,9.4
			c0,0.8,0.2,1.7,0.4,2.5l11.8,37.3c-0.2,0-0.5,0-0.7,0c-1.4,0-2.7,0.3-3.9,0.9l-0.1,0C549.7,411.5,547.7,415.5,548.4,419.4z"/>
	</g>
	<path id="Path_10528" d="M272.4,162.9c-1.2,1-2.4,2.1-3.5,3.3c-1.1,1.1-2,2.3-3,3.5c-1.4,1.8-2.8,3.6-4.4,5.5c0,0,0,0-0.1,0.1
		l-1.7,1.9c0,0,0,0,0,0c0.2-1.7,0.7-3.3,1.4-4.8c0.7-1.5,1.6-2.9,2.6-4.3c1-1.3,2.3-2.5,3.7-3.5C269,163.6,270.6,163,272.4,162.9z"
		/>
	<path id="Path_10529" d="M285.6,173.7c-1.2,1-2.4,2.1-3.5,3.3c-1.1,1.1-2,2.3-3,3.5c-1.4,1.8-2.8,3.7-4.4,5.5c0,0,0,0,0,0l-1.6,1.9
		c0.2-1.7,0.7-3.3,1.4-4.8c0.7-1.5,1.6-2.9,2.6-4.3c1.1-1.3,2.3-2.5,3.7-3.5C282.3,174.4,283.9,173.9,285.6,173.7z"/>
	<path id="Path_10530" d="M298.5,188c-1.3,0.9-2.5,1.9-3.7,3c-1.1,1-2.2,2.2-3.2,3.3c-1.6,1.7-3,3.4-4.7,5.1c-0.1,0-0.1,0.1-0.1,0.1
		l-1.8,1.7c0,0,0,0,0,0c0.3-1.6,0.9-3.2,1.7-4.7c0.8-1.5,1.8-2.8,2.9-4c1.1-1.3,2.5-2.3,4-3.2C295.1,188.4,296.8,188,298.5,188z"/>
	<path id="Path_10531" d="M539.7,201.2l-1.8-1.7c0,0-0.1-0.1-0.1-0.1c-1.6-1.7-3.1-3.4-4.7-5.1c-1.1-1.1-2.1-2.2-3.2-3.3
		c-1.2-1.1-2.4-2.1-3.7-3c1.7,0,3.4,0.5,4.9,1.3c1.5,0.9,2.8,1.9,3.9,3.2c1.1,1.2,2.1,2.6,2.9,4C538.8,198,539.4,199.6,539.7,201.2
		C539.7,201.2,539.7,201.2,539.7,201.2z"/>
	<path id="Path_10532" d="M551.7,188l-1.6-1.9c0,0,0,0-0.1-0.1c-1.6-1.8-2.9-3.7-4.4-5.5c-1-1.2-1.9-2.4-3-3.5
		c-1.1-1.2-2.2-2.3-3.5-3.3c1.7,0.1,3.4,0.7,4.8,1.7c1.4,1,2.7,2.1,3.7,3.5c1,1.3,1.9,2.7,2.6,4.3C551,184.7,551.4,186.3,551.7,188
		C551.7,187.9,551.7,187.9,551.7,188z"/>
	<path id="Path_10533" d="M564.9,177.1l-1.6-1.9c0,0,0-0.1-0.1-0.1c-1.5-1.8-2.9-3.7-4.4-5.5c-1-1.2-1.9-2.4-3-3.5
		c-1.1-1.2-2.2-2.3-3.5-3.3c1.7,0.1,3.4,0.7,4.8,1.7c1.4,0.9,2.7,2.1,3.7,3.5c1,1.3,1.9,2.7,2.6,4.3
		C564.2,173.8,564.7,175.4,564.9,177.1C564.9,177.1,564.9,177.1,564.9,177.1z"/>
	<g id="Group_10821" transform="translate(58.612 55.344)">
		<g id="Group_10814" transform="translate(5.131 31.145)">
			<g id="Group_10813">
				<path id="Path_10534" d="M295.3,481.4c-1.2-5.3-4.2-10.1-8.6-13.4c0-0.2,0-0.4,0-0.6c-0.6-7.6-12.3-21.1-13.6-22.6
					c-0.7-0.8-2-0.9-2.8-0.2c-0.6,0.5-0.8,1.4-0.5,2.1c0.1,0.2,0.2,0.4,0.4,0.6c4.4,5,8.3,10.4,11.4,16.3c0.5,1.1,0.9,2.2,1.1,3.4
					l0,0c0,0.1,0,0.1,0,0.2c-0.8,0.2-1.6,0.3-2.4,0.4c-1.2,0.1-2.6,0.1-3.6,0.1c-0.8,0-1.5,0-2.2,0l0,0c-3.3,0.1-6,0.4-7,2.4
					c-0.6,1.4-0.4,3,0.6,4.2c0.3,0.4,0.5,0.8,0.7,1.2c0.8,1.3,1.3,2.7,1.6,4.1c0.1,0.7-0.1,1.5-0.5,2c-0.4,0.5-1.1,0.8-1.8,0.8
					c-0.8,0-1.5-0.1-2.2-0.2l0,0c-0.6-0.1-1.2-0.1-1.7-0.2c-0.7-0.1-1.5-0.2-2.1-0.4c-4.5-0.7-8.7-2.6-12.3-5.3
					c-5.9-4.8-11.3-10.2-16.2-16.1c0,0,0-0.1-0.1-0.1c-0.5-1-1.6-1.4-2.6-0.9c-1,0.5-1.4,1.6-0.9,2.6c1.9,4,14.7,15.3,17.2,17.5
					c4.9,3.9,10.9,6.3,17.2,6.8l0,0c4.9,3.8,10.8,6,17,6.3c4,0.1,7.9-1.4,11-4C294.4,486.6,295.5,484,295.3,481.4z M289.7,485.3
					c-5.9,5-13.3,2.9-18.5,0.3c0.6-0.3,1.2-0.8,1.7-1.3c1.3-1.4,1.8-3.4,1.5-5.3c-0.5-2.4-1.5-4.7-2.9-6.8c0,0,0,0,0,0
					c0,0,0-0.1-0.1-0.1l0.2,0c1.8-0.2,3.5-0.3,5.3-0.3c2.5,0.2,5-0.1,7.5-0.7c3.5,2.7,6,6.4,7.2,10.7
					C291.5,483,290.9,484.4,289.7,485.3L289.7,485.3z"/>
				<path id="Path_10535" class="st1" d="M291.4,481.6c0.1,1.4-0.6,2.8-1.7,3.6c-5.9,5-13.3,2.9-18.5,0.3c0.6-0.3,1.2-0.8,1.7-1.3
					c1.3-1.4,1.8-3.4,1.5-5.3c-0.5-2.4-1.5-4.7-2.9-6.8c0,0,0,0,0,0c0,0,0-0.1-0.1-0.1l0.2,0c1.8-0.2,3.5-0.3,5.3-0.3
					c2.5,0.2,5-0.1,7.5-0.7C287.8,473.6,290.3,477.4,291.4,481.6z"/>
			</g>
		</g>
		<g id="Group_10816" transform="translate(39.457 31.145)">
			<g id="Group_10815">
				<path id="Path_10536" d="M413.9,459.1c-1-0.5-2.1,0-2.6,0.9c0,0,0,0,0,0c0,0,0,0.1-0.1,0.1c-4.9,5.9-10.3,11.3-16.3,16.1
					c-3.6,2.8-7.8,4.6-12.2,5.3l0,0c-0.7,0.1-1.4,0.3-2.1,0.4c-0.5,0.1-1.1,0.2-1.7,0.2l0,0c-0.7,0.1-1.5,0.1-2.2,0.2
					c-0.7,0-1.3-0.2-1.8-0.8c-0.5-0.5-0.7-1.3-0.6-2c0.3-1.5,0.8-2.8,1.6-4.1c0.2-0.4,0.4-0.8,0.7-1.2c1-1.2,1.3-2.8,0.6-4.2
					c-1-1.9-3.7-2.3-7-2.4c-0.7,0-1.5,0-2.2,0c-1,0-2.4,0-3.6-0.1c-0.8,0-1.6-0.1-2.4-0.4c0-0.1,0-0.2,0-0.2
					c0.2-1.2,0.6-2.3,1.1-3.4c3.1-5.9,7-11.4,11.4-16.3c0.2-0.2,0.3-0.4,0.4-0.6c0.3-0.8,0.1-1.6-0.6-2.1c-0.8-0.7-2-0.6-2.7,0.2
					c0,0,0,0,0,0c-1.3,1.5-13.1,15-13.6,22.6c0,0.2,0,0.4,0,0.6c-4.3,3.3-7.4,8.1-8.6,13.4c-0.2,2.7,1,5.2,3.1,6.9c3,2.6,6.9,4,11,4
					c6.2-0.3,12.1-2.5,17-6.3c6.2-0.5,12.2-2.9,17.1-6.7c2.5-2.2,15.3-13.5,17.2-17.5C415.4,460.7,414.9,459.5,413.9,459.1z
					 M355.1,485.3c-1.1-0.9-1.8-2.2-1.7-3.7c1.1-4.3,3.7-8,7.2-10.7c2.4,0.7,5,0.9,7.5,0.7c1.8,0,3.5,0,5.3,0.3l0.2,0
					c0,0-0.1,0.1-0.1,0.1c0,0,0,0,0,0c-1.4,2-2.4,4.3-2.9,6.8c-0.4,1.9,0.2,3.9,1.5,5.3c0.5,0.5,1,1,1.7,1.3
					C368.4,488.2,361,490.3,355.1,485.3L355.1,485.3z"/>
				<path id="Path_10537" class="st1" d="M373.7,485.6c-5.2,2.7-12.6,4.8-18.6-0.3c-1.1-0.8-1.8-2.2-1.7-3.6c1.1-4.3,3.7-8,7.2-10.7
					c2.4,0.6,5,0.9,7.5,0.7c1.8,0,3.5,0.1,5.3,0.3l0.2,0c0,0-0.1,0.1-0.1,0.1c0,0,0,0,0,0c-1.4,2-2.4,4.3-2.9,6.8
					c-0.4,1.9,0.2,3.9,1.5,5.3C372.5,484.8,373,485.2,373.7,485.6z"/>
			</g>
		</g>
		<g id="Group_10818" transform="translate(38.641)">
			<g id="Group_10817">
				<path id="Path_10538" d="M435.9,353.3c-0.8-0.1-1.6,0.4-1.9,1.2c-0.1,0.2-0.1,0.4-0.2,0.7c-3.7,8-8.2,15.6-13.3,22.8
					c-4.3,5.7-17.5,20.6-25.9,20.9c-0.2,0-0.4,0-0.6,0c-1.2-0.1-2.4-0.6-3.3-1.4l0,0c-0.2-0.1-0.3-0.3-0.4-0.4
					c-0.4-0.4-0.8-0.9-1.1-1.3c-1.3-1.6-2-3.6-2-5.7c0-0.5,0.1-1,0.2-1.4c1.1-2.7,2.8-5,5.1-6.7c1.4-1.3,2.4-2.1,2.2-3.4
					c-0.2-1.3-1.4-2.2-2.7-2h-0.1c-0.8,0-1.5,0.1-2.3,0.3c-2.5,0.4-6.2,0.9-8-0.8c-0.5-0.5-0.6-0.8-0.6-0.9c0-0.6,1.8-1.9,2.8-2.6
					c0.9-0.6,1.8-1.3,2.6-2.1c0.9-0.7,1.2-1.9,0.6-2.9c-0.9-1.4-2.3-1-3.6-0.6c-2.4,0.8-5,1.2-7.6,1.1c-0.5,0-1-0.1-1.5-0.2
					c-0.3-0.1-0.6-0.1-0.9-0.2l0,0c-0.6-0.1-1.2-0.3-1.8-0.6c-0.2-0.1-0.5-0.2-0.7-0.3c-0.4-0.2-0.5-0.3-0.5-0.3
					c0.2-1.4,5.5-4.7,8.3-6.5c2.2-1.4,4.4-2.9,6.5-4.5c5-4.8,9.1-10.6,11.9-17c0,0,0,0,0,0c0.4-1,0-2.1-1-2.6c-1-0.4-2.1,0-2.6,1
					c-2.6,5.8-6.3,11.1-10.8,15.5c-2,1.5-4,2.9-6.1,4.2c-5.6,3.6-10.5,6.7-10.1,10.2c0.1,0.7,0.3,1.4,0.8,2
					c-8.2,4.7-21.4,13.8-20.4,23c0.2,1.9,1.2,3.5,2.7,4.6c4.4,3.5,13.9,4.4,22.9,4.4c5.7,0,11.2-0.4,15.1-0.7c1.7,2,4.3,3.1,6.9,3
					h0.4c12-0.4,28.2-21.6,29-22.6c4.1-6.3,13.8-21.3,14-24.9C437.9,354.3,437,353.3,435.9,353.3
					C435.9,353.3,435.9,353.3,435.9,353.3z M384.8,396.1c-11.3,0.8-27.8,1.1-32.9-3c-0.7-0.5-1.2-1.2-1.3-2
					c-0.8-7,12.2-15.7,20.4-20.2c1.9,0.6,3.9,0.9,5.8,0.9c0.6,0,1.1,0,1.6-0.1c-0.4,0.4-0.7,0.8-0.9,1.3c-0.3,0.5-0.5,1.1-0.5,1.8
					c0,1.6,0.6,3.1,1.8,4c1,0.9,2.2,1.6,3.5,1.9c1.8,0.4,3.7,0.5,5.5,0.2c-1.1,1.1-2.1,2.4-3,3.8
					C382.7,388.1,382.7,392.6,384.8,396.1L384.8,396.1z"/>
				<path id="Path_10539" class="st1" d="M384.9,384.6c-2.2,3.5-2.2,7.9-0.1,11.5c-11.3,0.8-27.8,1.1-32.9-3c-0.7-0.5-1.2-1.2-1.3-2
					c-0.8-7,12.2-15.7,20.4-20.2c1.9,0.6,3.9,0.9,5.8,0.9c0.6,0,1.1,0,1.6-0.1c-0.4,0.4-0.7,0.8-0.9,1.3c-0.3,0.5-0.5,1.1-0.5,1.8
					c0,1.6,0.6,3.1,1.8,4c1,0.9,2.2,1.6,3.5,1.9c1.8,0.4,3.7,0.5,5.5,0.2C386.7,382,385.7,383.2,384.9,384.6z"/>
			</g>
		</g>
		<g id="Group_10820">
			<g id="Group_10819">
				<path id="Path_10540" d="M282.5,368.5c0.5-0.6,0.7-1.2,0.8-2c0.3-3.5-4.5-6.6-10.1-10.2c-2.1-1.3-4.2-2.7-6.2-4.2
					c-4.5-4.5-8.2-9.7-10.8-15.5c-0.4-1-1.6-1.4-2.6-1c-1,0.4-1.4,1.6-1,2.6c0,0,0,0,0,0c2.8,6.4,6.9,12.1,11.9,17
					c2.1,1.6,4.3,3.1,6.5,4.5c2.9,1.8,8.1,5.2,8.3,6.4c-0.1,0.2-0.3,0.3-0.6,0.4c-0.2,0.1-0.5,0.2-0.7,0.3c-0.6,0.2-1.2,0.4-1.8,0.6
					c-0.3,0.1-0.6,0.2-0.9,0.2c-0.5,0.1-1,0.1-1.5,0.2c-2.6,0.1-5.2-0.3-7.6-1.1c-1.3-0.4-2.8-0.8-3.6,0.6c-0.6,1-0.3,2.3,0.6,2.9
					c0.8,0.8,1.7,1.5,2.6,2.1c1,0.7,2.7,2,2.8,2.6c0,0.1-0.1,0.4-0.6,0.9c-1.8,1.7-5.5,1.2-8,0.8c-0.8-0.1-1.5-0.2-2.3-0.3
					c-1.3-0.2-2.6,0.7-2.8,2c-0.2,1.3,0.7,2.2,2.2,3.4c2.3,1.7,4.1,4,5.1,6.7c0.1,0.5,0.2,1,0.2,1.4c0,2.1-0.7,4.1-2,5.7
					c-0.3,0.5-0.7,0.9-1.1,1.3c-0.1,0.2-0.3,0.3-0.4,0.4l0,0c-0.9,0.9-2,1.4-3.3,1.4c-0.2,0-0.4,0-0.6,0
					c-8.4-0.3-21.6-15.3-25.9-20.9c-5.1-7.2-9.6-14.9-13.3-22.9c0-1.1-0.9-2-2-1.9c-1.1,0-2,0.9-1.9,2c0,0,0,0.1,0,0.1
					c0.1,3.6,9.8,18.6,14.1,25c0.7,0.9,16.9,22,28.9,22.5h0.4c2.6,0,5.1-1.1,6.9-3c4,0.4,9.5,0.7,15.1,0.7c9.1,0,18.6-0.9,22.9-4.4
					c1.5-1.1,2.5-2.8,2.7-4.6C303.9,382.4,290.7,373.3,282.5,368.5z M299,391.1c-0.1,0.8-0.6,1.5-1.3,2c-5.2,4.1-21.6,3.8-32.9,3
					c2.1-3.5,2.1-8-0.1-11.5c-0.8-1.4-1.8-2.6-3-3.8c1.8,0.2,3.7,0.2,5.5-0.2c1.3-0.3,2.5-0.9,3.5-1.9c1.2-1,1.9-2.5,1.8-4
					c0-0.6-0.2-1.2-0.5-1.8c-0.2-0.5-0.5-0.9-0.9-1.3c0.5,0,1.1,0.1,1.6,0.1c2,0,3.9-0.3,5.8-0.9C286.9,375.4,299.8,384.1,299,391.1
					L299,391.1z"/>
				<path id="Path_10541" class="st1" d="M299,391.1c-0.1,0.8-0.6,1.5-1.3,2c-5.2,4.1-21.6,3.8-32.9,3c2.1-3.6,2.1-8-0.1-11.5
					c-0.8-1.4-1.8-2.6-3-3.8c1.8,0.2,3.7,0.2,5.5-0.2c1.3-0.3,2.5-0.9,3.5-1.9c1.2-1,1.9-2.5,1.8-4c0-0.6-0.2-1.2-0.5-1.8
					c-0.2-0.5-0.5-0.9-0.9-1.3c0.5,0.1,1.1,0.1,1.6,0.1c2,0,3.9-0.3,5.8-0.9C286.9,375.4,299.8,384.1,299,391.1z"/>
			</g>
		</g>
	</g>
	<g id="Group_10822" transform="translate(102.507 55.963)">
		<path id="Path_10542" class="st2" d="M428.8,353.9c-0.1,0.2-0.2,0.4-0.2,0.7c-3.7,8-8.2,15.6-13.3,22.8
			c-4.3,5.7-17.5,20.6-25.9,21c-1.7,0.1-3.3-0.6-4.4-1.9c-1.9-1.8-3.1-4.4-3.1-7.1c0.7-3.3,2.6-6.2,5.4-8.1c1.4-1.3,2.4-2.1,2.2-3.4
			c-0.2-1.3-1.4-2.2-2.7-2h-0.1c-0.8,0-1.5,0.1-2.3,0.3c-2.5,0.4-6.2,0.9-8-0.8c-0.5-0.4-0.6-0.8-0.6-0.9c0-0.6,1.8-1.9,2.8-2.6
			c0.9-0.6,1.8-1.3,2.6-2.1c0.9-0.7,1.2-1.9,0.6-2.9c-0.9-1.4-2.3-1-3.6-0.6c-3.8,1.4-8,1.4-11.9,0.1c-0.4-0.2-0.9-0.4-1.2-0.7
			c0.2-1.4,5.5-4.7,8.3-6.5c2.3-1.4,4.4-2.9,6.5-4.5c5-4.8,9.1-10.6,11.9-17l0,0L428.8,353.9z"/>
	</g>
	<g id="Group_10823" transform="translate(59.451 55.958)">
		<path id="Path_10543" class="st2" d="M214.8,353.9c0.1,0.2,0.2,0.4,0.2,0.7c3.7,8,8.2,15.6,13.3,22.8c4.3,5.7,17.5,20.6,25.9,21
			c1.7,0.1,3.3-0.6,4.4-1.9c1.9-1.8,3.1-4.4,3.1-7.1c-0.7-3.3-2.6-6.2-5.4-8.1c-1.4-1.3-2.4-2.1-2.2-3.4c0.2-1.3,1.4-2.2,2.7-2h0.1
			c0.8,0,1.5,0.1,2.3,0.2c2.5,0.3,6.2,0.9,8-0.8c0.5-0.4,0.6-0.8,0.6-0.9c0-0.6-1.8-1.9-2.8-2.6c-0.9-0.6-1.8-1.3-2.6-2.1
			c-0.9-0.7-1.2-1.9-0.6-2.9c0.9-1.4,2.3-1,3.6-0.6c3.8,1.4,8,1.4,11.9,0.1c0.4-0.2,0.9-0.4,1.2-0.7c-0.2-1.4-5.5-4.7-8.3-6.5
			c-2.3-1.4-4.4-2.9-6.5-4.5c-5-4.8-9.1-10.6-11.9-17l0,0L214.8,353.9z"/>
	</g>
	<g id="Group_10824" transform="translate(100.864 87.082)">
		<path id="Path_10544" class="st3" d="M408.5,459.6c-4.9,5.9-10.3,11.3-16.2,16.1c-5.3,3.9-11.7,6.1-18.3,6
			c-0.7,0.1-1.4-0.2-1.8-0.8c-0.5-0.5-0.7-1.3-0.5-2c0.4-1.9,1.2-3.7,2.3-5.3c1-1.2,1.2-2.8,0.6-4.2c-1.3-2.4-4.9-2.4-9.3-2.4
			c-2,0.1-4.1,0-6.1-0.4c0.7-5.4,9.3-16.2,12.6-19.9c0.2-0.2,0.3-0.4,0.4-0.6L408.5,459.6z"/>
	</g>
	<g id="Group_10825" transform="translate(64.594 87.082)">
		<path id="Path_10545" class="st3" d="M232.7,459.6c4.9,5.9,10.3,11.3,16.2,16.1c5.3,3.9,11.7,6.1,18.3,6c0.7,0,1.4-0.2,1.8-0.8
			c0.5-0.5,0.7-1.3,0.5-2c-0.4-1.9-1.2-3.7-2.3-5.3c-1-1.2-1.2-2.8-0.6-4.2c1.3-2.4,4.9-2.4,9.3-2.4c2,0.1,4.1,0,6.1-0.4
			c-0.7-5.4-9.3-16.2-12.6-19.9c-0.2-0.2-0.3-0.4-0.4-0.6L232.7,459.6z"/>
	</g>
	<g id="Group_10826" transform="translate(122.939 12.107)">
		<path id="Path_10546" class="st4" d="M665.5,260.6c-0.3-0.3-0.6-0.7-0.9-1l-0.7-0.8c-0.7-0.8-1.5-1.6-2.4-2.5
			c-0.4-0.4-0.8-0.8-1.2-1.2c0,0-0.1-0.1-0.1-0.1c-1.2-1.1-2.4-2.4-3.8-3.6c-0.5-0.4-0.9-0.9-1.4-1.3c-1.3-1.2-2.6-2.4-4.1-3.7
			c-1-0.9-2-1.7-3-2.6c-0.2-0.2-0.4-0.3-0.6-0.5c-1.3-1.1-2.7-2.2-4.1-3.4c-1.2-1-2.5-2.1-3.9-3.2l-3.5-2.8l-3.5-2.8
			c-1-0.8-2-1.5-3-2.3c-0.8-0.6-1.5-1.2-2.3-1.8c-0.6-0.5-1.3-1-1.9-1.4c-0.5-0.4-1-0.7-1.5-1.1c0,0-0.1-0.1-0.1-0.1
			c-0.4-0.3-0.9-0.6-1.3-0.9l-1.1-0.8c-0.4-0.3-0.8-0.5-1.1-0.8c-0.8-0.6-1.7-1.2-2.5-1.7c-0.3-0.2-0.7-0.4-1.1-0.7
			c-0.2-0.2-0.5-0.3-0.7-0.5c-0.2-0.2-0.5-0.3-0.7-0.4c-0.7-0.5-1.5-0.9-2.2-1.4l-1.3-0.8c-1.1-0.7-2.2-1.3-3.3-1.9
			c-0.4-0.2-0.7-0.4-1.1-0.6c-0.4-0.2-0.8-0.5-1.3-0.7c-0.4-0.2-0.8-0.4-1.2-0.7c-1.2-0.6-2.3-1.2-3.5-1.8c-0.5-0.3-1.1-0.5-1.6-0.8
			c-0.6-0.3-1.3-0.6-1.9-0.9c-0.5-0.3-1-0.5-1.6-0.7c0,0,0,0-0.1,0c-0.6-0.3-1.3-0.6-1.9-0.9c-0.4-0.2-0.9-0.4-1.4-0.6
			c0,0-0.1,0-0.1,0c-0.9-0.4-1.9-0.8-2.8-1.2c-0.1,0-0.1-0.1-0.2-0.1c-0.1,0-0.2-0.1-0.3-0.1c-0.4-0.1-0.7-0.3-1.1-0.4
			c-0.7-0.3-1.3-0.5-2-0.8c-3.8-1.4-7.7-2.6-11.6-3.6c-1-0.3-2-0.5-3-0.7c0,0-0.1,0-0.1,0l-0.7-0.2c-0.8-0.2-1.6-0.4-2.3-0.5
			c-0.6-0.1-1.1-0.2-1.7-0.3l-1.5-0.3l-1.7-0.3c0,0,0,0-0.1,0c-1.1-0.2-2.1-0.3-3.1-0.4l-1.3-0.1h0c-1.1-0.1-2.1-0.2-3.2-0.3
			c-1.1-0.1-2-0.2-3-0.2c-0.1,0-0.1,0-0.2,0c-0.7,0-1.4-0.1-2.2-0.1c-0.7,0-1.4,0-2.1,0c-0.7,0-1.2,0-1.8,0H545l-1.9,0
			c-0.9,0-1.7,0.1-2.6,0.1c-0.5,0-1.1,0-1.7,0.1c-1.4,0.1-2.8,0.2-4.2,0.4c-1,0.1-1.9,0.2-2.8,0.3c-0.7,0.1-1.3,0.2-2,0.3l-0.7,0.1
			c-0.4,0.1-0.7,0.1-1,0.2c-0.4,0.1-0.7,0.1-1,0.2c0,0-0.1,0-0.1,0c-1.2,0.2-2.4,0.4-3.7,0.7c-1.2,0.3-2.4,0.6-3.6,0.8
			c-0.1,0-0.3,0.1-0.4,0.1c-2.5,0.6-4.9,1.3-7.3,2.1c-0.7,0.2-1.5,0.5-2.2,0.7c-0.7,0.2-1.5,0.5-2.2,0.8c-0.8,0.3-1.5,0.6-2.2,0.8
			c-1,0.4-1.9,0.8-2.9,1.2c-2.8,1.2-5.6,2.4-8.3,3.8c-1.3,0.7-2.7,1.3-4,2c-2.6,1.4-5.2,2.9-7.7,4.4c-1.3,0.8-2.5,1.6-3.7,2.3
			c-0.8,0.5-1.6,1.1-2.4,1.6c-1,0.7-1.9,1.3-2.9,2c-0.6,0.4-1.2,0.9-1.8,1.3c-3.1,2.2-6,4.5-8.9,6.9c-4.1,3.3-7.9,6.8-11.5,10.2
			l-3.7-2.7c0.8-0.9,1.5-1.7,2.3-2.6c0.6-0.6,1.1-1.3,1.7-1.9c1.1-1.1,2.1-2.3,3.3-3.4c0.7-0.7,1.3-1.4,2-2.1l0.2-0.3
			c3.4-3.4,7-6.7,10.8-10c2.7-2.3,5.4-4.5,8.3-6.7c0.6-0.4,1.1-0.9,1.7-1.3c0.9-0.7,1.8-1.3,2.7-1.9c0.7-0.5,1.5-1,2.2-1.6
			c1.1-0.8,2.3-1.5,3.5-2.3c2.3-1.5,4.7-2.9,7.2-4.3c1.2-0.7,2.5-1.3,3.7-2c2.5-1.3,5.1-2.5,7.7-3.7c0.9-0.4,1.8-0.8,2.7-1.1
			c0.7-0.3,1.3-0.5,2.1-0.8l2.1-0.8c0.7-0.2,1.4-0.5,2.1-0.7c2.2-0.8,4.5-1.5,6.8-2.1l0.4-0.1c1.1-0.3,2.2-0.6,3.4-0.8
			c1.1-0.3,2.3-0.5,3.4-0.7c0,0,0.1,0,0.1,0c0.3-0.1,0.6-0.1,1-0.2c0.3-0.1,0.7-0.1,1-0.2l0.7-0.1c0.6-0.1,1.2-0.2,1.8-0.3
			c0.9-0.1,1.8-0.2,2.6-0.3c1.3-0.2,2.6-0.3,3.9-0.4c0.5,0,1.1-0.1,1.6-0.1c0.8-0.1,1.6-0.1,2.4-0.1l1.8,0h1.1c0.6,0,1.1,0,1.7,0
			s1.3,0,1.9,0c0.6,0,1.3,0.1,2,0.1c0.1,0,0.1,0,0.2,0c0.9,0,1.9,0.1,2.8,0.2c1,0.1,2,0.2,3,0.3h0c0.4,0.1,0.8,0.1,1.3,0.1
			c1,0.1,1.9,0.3,2.9,0.4c0,0,0,0,0,0l1.6,0.3c0.4,0.1,0.9,0.2,1.4,0.3c0.5,0.1,1.1,0.2,1.6,0.3c0.7,0.1,1.5,0.3,2.2,0.5l0.7,0.2
			c0,0,0.1,0,0.1,0c0.9,0.2,1.9,0.4,2.8,0.7c3.7,1,7.3,2.2,10.8,3.5c0.6,0.2,1.2,0.5,1.9,0.7c0.3,0.1,0.7,0.3,1,0.4
			c0.1,0,0.2,0.1,0.3,0.1c0.1,0,0.1,0.1,0.2,0.1c0.9,0.4,1.8,0.7,2.6,1.2c0,0,0.1,0,0.1,0c0.4,0.2,0.9,0.4,1.3,0.6
			c0.6,0.3,1.2,0.5,1.8,0.8c0,0,0,0,0.1,0c0.5,0.2,1,0.4,1.4,0.7c0.6,0.3,1.2,0.6,1.8,0.9c0.5,0.2,1,0.5,1.5,0.8
			c1.1,0.6,2.1,1.2,3.2,1.8c0.4,0.2,0.8,0.4,1.2,0.7c0.4,0.2,0.8,0.4,1.2,0.7l1.1,0.6c1,0.6,2,1.2,3,1.9c0.4,0.3,0.8,0.5,1.3,0.8
			c0.7,0.4,1.4,0.9,2.1,1.3c0.2,0.2,0.4,0.3,0.7,0.4c0.2,0.1,0.4,0.3,0.7,0.4c0.3,0.2,0.7,0.4,1,0.7c0.8,0.5,1.6,1.1,2.4,1.7
			l1.1,0.8l1.1,0.8l1.2,0.9c0,0,0.1,0.1,0.1,0.1c0.4,0.4,0.9,0.7,1.4,1.1c0.6,0.4,1.2,0.9,1.8,1.4c0.7,0.6,1.5,1.2,2.2,1.7
			c1,0.8,1.9,1.5,2.8,2.3l3.3,2.7c1.1,0.9,2.2,1.8,3.3,2.7c1.3,1.1,2.5,2.1,3.6,3.1c1.3,1.1,2.6,2.2,3.8,3.3
			c0.2,0.2,0.4,0.3,0.5,0.5c1,0.9,1.9,1.7,2.8,2.5c1.3,1.3,2.6,2.5,3.8,3.6c0.4,0.4,0.9,0.9,1.3,1.3c1.3,1.2,2.4,2.4,3.5,3.5
			c0,0,0.1,0.1,0.1,0.1c0.4,0.4,0.7,0.8,1.1,1.1c0.8,0.8,1.6,1.7,2.2,2.4c0.2,0.3,0.4,0.5,0.7,0.8c0.6,0.7,1.1,1.3,1.7,2
			s0.9,1.1,1.3,1.7l0.1,0.2c0.4,0.6,0.9,1.2,1.3,1.7l0,0c0.4,0.6,0.8,1.1,1.1,1.6l0.1,0.1c0.2,0.4,0.4,0.7,0.7,1.1s0.4,0.7,0.6,1
			c0.2,0.4,0.5,0.9,0.7,1.3c0.4,0.8,0.7,1.5,1,2.3c0,0.2,0.1,0.3,0.2,0.5c0,0.2,0.1,0.3,0.1,0.5S665.5,260.4,665.5,260.6z"/>
		<path id="Path_10547" class="st5" d="M665.1,264.6c0,0-0.1,0.1-0.1,0.1c-0.1,0.2-0.3,0.4-0.4,0.6c-0.1,0.1-0.1,0.2-0.2,0.2
			c-0.1,0.1-0.2,0.2-0.3,0.3c-0.1,0.1-0.2,0.2-0.3,0.3c-0.1,0.1-0.2,0.2-0.3,0.2c-0.1,0-0.1,0.1-0.2,0.1c-0.1,0.1-0.3,0.2-0.4,0.3
			l-0.1,0.1c-0.1,0.1-0.3,0.1-0.4,0.2c-0.1,0.1-0.3,0.1-0.4,0.2c-0.2,0.1-0.4,0.2-0.6,0.2c-0.1,0.1-0.3,0.1-0.4,0.1c0,0-0.1,0-0.1,0
			c-0.2,0.1-0.4,0.1-0.6,0.2c-0.2,0.1-0.4,0.1-0.7,0.2c0,0,0,0-0.1,0c-0.3,0.1-0.6,0.1-0.9,0.2l-0.7,0.1c-0.3,0.1-0.7,0.1-1,0.1
			h-0.1c-0.2,0-0.4,0.1-0.7,0.1c-0.3,0-0.7,0-1,0.1c-0.1,0-0.3,0-0.4,0h-0.1c-0.7,0-1.5,0.1-2.3,0.1c-16.8-1-33.3-4.4-49.2-9.9
			c-2.2-0.7-4.5-0.2-6.1,1.5l0,0c-1.2,1.2-1.8,2.9-1.7,4.6c0,0.1,0,0.3,0.1,0.4c0,0.2,0,0.3,0.1,0.4c0,0.1,0.1,0.3,0.1,0.4l0,0
			c0,0.1,0.1,0.2,0.1,0.3c1.9,5.6,4.4,15.6-0.2,19.6c-0.1,0.1-0.3,0.2-0.4,0.3c-0.4,0.3-0.7,0.5-1.1,0.7c-0.1,0-0.2,0.1-0.3,0.1
			c-0.4,0.2-0.8,0.3-1.2,0.4c-0.1,0-0.2,0.1-0.3,0.1c-0.2,0.1-0.5,0.1-0.8,0.1c-0.3,0-0.6,0.1-1,0.1h0c-0.3,0-0.6,0-0.9,0.1h-0.1
			c-0.8,0-1.7,0-2.5-0.1c-0.3,0-0.6-0.1-0.9-0.1c-0.8-0.1-1.6-0.2-2.5-0.4c-1-0.2-2-0.4-3.1-0.7l-0.3-0.1c-0.8-0.2-1.7-0.5-2.7-0.8
			h0c-1.6-0.5-3.3-1.1-5.1-1.8c-0.1-0.1-0.3-0.1-0.4-0.2c-0.6-0.2-1.3-0.5-1.9-0.8c-1.4-0.6-2.9-1.2-4.4-1.9
			c-0.7-0.3-1.5-0.7-2.3-1.1c-0.4-0.2-0.9-0.4-1.4-0.7c-1-0.4-1.9-1-2.9-1.5c-1-0.5-2-1-3.1-1.6c-1.8-0.9-3.9-0.9-5.7,0
			c-1.3,0.7-2.3,1.8-2.8,3.2c-0.2,0.5-0.3,0.9-0.3,1.4c0,0.3-0.1,0.7-0.1,1s-0.1,0.7-0.2,1.1c-0.1,0.7-0.2,1.5-0.4,2.3
			c-0.1,0.3-0.2,0.7-0.3,1c-0.1,0.3-0.2,0.7-0.3,1.1c-0.1,0.4-0.2,0.7-0.4,1.1c-0.1,0.4-0.3,0.7-0.4,1.1c0,0.1,0,0.1-0.1,0.2
			c-0.3,0.7-0.6,1.3-1,1.9c-0.2,0.3-0.4,0.6-0.6,0.9c-0.1,0.1-0.1,0.2-0.2,0.2c-0.2,0.2-0.3,0.4-0.5,0.7c-0.1,0.1-0.1,0.1-0.2,0.2
			c-0.2,0.2-0.4,0.4-0.6,0.7c-0.1,0.1-0.2,0.2-0.2,0.2c-0.2,0.2-0.4,0.4-0.5,0.5c-0.1,0.1-0.2,0.2-0.3,0.3c-0.2,0.2-0.4,0.3-0.6,0.4
			c-0.9,0.7-1.8,1.2-2.9,1.6c-0.6,0.2-1.1,0.4-1.7,0.5l0,0c-5.4,1.3-12.6-0.3-21.5-4.7c-3.6-1.7-7.1-3.3-10.7-4.7
			c-1-0.4-2-0.8-3.1-1.1c-0.6-0.2-1.1-0.4-1.7-0.6c-0.4-0.1-0.8-0.3-1.2-0.4c-4.4-1.4-8.8-2.6-13.1-3.6c-0.5-0.1-1-0.2-1.5-0.3
			c-0.7-0.2-1.4-0.3-2.1-0.4c-0.4-0.1-0.7-0.2-1.1-0.2c-0.9-0.2-1.8-0.3-2.6-0.5h0c-1.1-0.2-2.1-0.4-3.1-0.5l-0.5-0.1
			c-0.9-0.1-1.8-0.3-2.6-0.4c-0.9-0.1-1.8-0.2-2.7-0.4l-0.4,0c-1-0.1-2-0.2-2.9-0.3c0,0-0.1,0-0.1,0c-0.9-0.1-1.8-0.2-2.7-0.3
			c-1.8-0.2-3.5-0.3-5.1-0.4c-0.5,0-1-0.1-1.5-0.1l-1.5-2.5l-5.6-9.1l0.1,0.1l20.8,10.4c0.4,0.2,0.8,0.3,1.2,0.3
			c0.2,0,0.3,0,0.4-0.1c0.2,0,0.3-0.1,0.4-0.1l0,0c0.2-0.1,0.4-0.2,0.5-0.3c0.1-0.1,0.2-0.2,0.4-0.3c0.1-0.1,0.2-0.2,0.3-0.4
			c0.1-0.1,0.1-0.2,0.2-0.3c0.5-1,0.2-2.3-0.6-3l-22.3-19.7l-5.9-5.2l-2.7-2.4l-0.4-0.4l-1-0.9l-0.2-0.1l-1.3-1.2l-1.6-1.4l2,0.8
			l1.8,0.7l0.1,0.1l1.9,0.7l3.8,1.5l8.6,3.3c0.9,0.4,2,0.1,2.7-0.6c0.1-0.1,0.2-0.2,0.2-0.3c0.1-0.1,0.1-0.2,0.2-0.3
			c0.6-1.1,0.3-2.5-0.7-3.3l-5.6-4.2c3.6-3.4,7.4-6.8,11.5-10.2c2.9-2.3,5.8-4.6,8.9-6.9c0.6-0.4,1.2-0.9,1.8-1.3
			c1-0.7,1.9-1.3,2.9-2c0.8-0.5,1.6-1.1,2.4-1.6c1.2-0.8,2.4-1.6,3.7-2.3c2.5-1.5,5.1-3,7.7-4.4c1.3-0.7,2.6-1.4,4-2
			c2.7-1.3,5.4-2.6,8.3-3.8c1-0.4,1.9-0.8,2.9-1.1c0.7-0.3,1.5-0.6,2.2-0.8s1.5-0.5,2.2-0.8c0.8-0.3,1.5-0.5,2.2-0.7
			c2.4-0.8,4.8-1.5,7.3-2.1c0.1,0,0.3-0.1,0.4-0.1c1.2-0.3,2.4-0.6,3.6-0.9c1.2-0.3,2.4-0.5,3.7-0.7c0,0,0,0,0.1,0
			c0.3-0.1,0.7-0.1,1-0.2c0.4,0,0.7-0.1,1-0.2l0.7-0.1c0.7-0.1,1.3-0.2,2-0.3c0.9-0.1,1.9-0.2,2.8-0.3c1.4-0.2,2.8-0.3,4.2-0.4
			c0.6-0.1,1.1-0.1,1.7-0.1c0.9-0.1,1.7-0.1,2.6-0.1l1.9,0c0.4,0,0.8,0,1.1,0c0.6,0,1.2,0,1.8,0c0.6,0,1.3,0,2.1,0
			c0.7,0,1.4,0.1,2.2,0.1c0.1,0,0.1,0,0.2,0c1,0,2,0.1,3,0.2c1,0.1,2.1,0.2,3.2,0.3h0l1.3,0.1c1,0.1,2.1,0.3,3.1,0.4c0,0,0,0,0.1,0
			l1.7,0.3l1.5,0.3c0.6,0.1,1.1,0.2,1.7,0.3c0.8,0.1,1.5,0.3,2.3,0.5l0.7,0.2c0,0,0.1,0,0.1,0c1,0.2,2,0.5,3,0.7
			c3.9,1,7.8,2.2,11.6,3.6c0.7,0.2,1.3,0.5,2,0.8c0.4,0.1,0.7,0.3,1.1,0.4c0.1,0,0.2,0.1,0.3,0.1c0.1,0,0.2,0.1,0.2,0.1
			c0.9,0.4,1.9,0.8,2.8,1.2c0,0,0.1,0,0.1,0c0.5,0.2,1,0.4,1.4,0.6c0.6,0.3,1.3,0.6,1.9,0.8c0,0,0,0,0.1,0c0.5,0.3,1,0.5,1.6,0.7
			c0.6,0.3,1.3,0.6,1.9,0.9c0.5,0.2,1,0.5,1.6,0.8c1.1,0.6,2.3,1.2,3.5,1.8c0.4,0.2,0.8,0.4,1.2,0.7c0.4,0.2,0.8,0.4,1.3,0.7
			c0.4,0.2,0.8,0.4,1.1,0.6c1.1,0.6,2.2,1.3,3.3,1.9l1.3,0.8c0.7,0.4,1.5,0.9,2.2,1.4c0.2,0.2,0.5,0.3,0.7,0.4
			c0.2,0.1,0.5,0.3,0.7,0.5c0.4,0.2,0.7,0.4,1.1,0.7c0.8,0.5,1.7,1.1,2.5,1.7c0.4,0.2,0.8,0.5,1.1,0.8l1.1,0.8
			c0.4,0.3,0.9,0.6,1.3,0.9c0,0,0.1,0.1,0.1,0.1c0.5,0.4,1,0.7,1.5,1.1c0.6,0.4,1.3,0.9,1.9,1.4c0.8,0.6,1.6,1.2,2.3,1.8
			c1,0.8,2,1.6,3,2.3l3.5,2.8l3.5,2.8c1.3,1.1,2.7,2.2,3.9,3.2c1.4,1.2,2.8,2.3,4.1,3.4c0.2,0.2,0.4,0.3,0.6,0.5
			c1,0.9,2.1,1.7,3,2.6c1.4,1.3,2.8,2.5,4.1,3.7c0.5,0.4,1,0.9,1.4,1.3c1.3,1.2,2.6,2.5,3.8,3.6c0,0,0.1,0.1,0.1,0.1
			c0.4,0.4,0.8,0.8,1.2,1.2c0.9,0.9,1.7,1.7,2.4,2.5l0.7,0.8c0.3,0.3,0.6,0.7,0.9,1l0,0c0,0.1,0.1,0.3,0.1,0.4
			C665.8,262.2,665.7,263.5,665.1,264.6z"/>
	</g>
	<g id="Group_10838" transform="translate(0.894 12.019)">
		<path id="Path_10560" class="st4" d="M241.9,254.4L241.9,254.4c-0.1,0.1,0,0.1,0,0.1l-6.1,7.5c-14.6-18.5-47.9-54-91.9-60.6
			c-29.9-4.5-59.9,5-89.1,28.3c-22.5,17.9-34,29.7-39.6,37.5c-1.7-0.4-3.2-1.5-4.1-2.9c-0.3-0.7-0.5-1.4-0.5-2.2
			c-0.4-5.4,6.4-18.3,44.2-48.4c29.3-23.3,59.2-32.8,89.1-28.3c52.1,7.8,89.2,56.3,98,68.8L241.9,254.4
			C241.9,254.3,241.9,254.4,241.9,254.4z"/>
		<path id="Path_10561" class="st5" d="M235.8,262.1l-13.3,16.4c-20.8,0.7-41.3,5.7-60.2,14.5c-10.9,5.4-19.3,6.5-24.9,3.4
			c-5.7-3.2-7.5-10.4-8.1-15.8c-0.2-2-1.3-3.7-3.1-4.7c-1.8-0.9-3.9-1-5.7,0c-26.2,13.8-36.1,12.9-39.8,9.8c-0.4-0.3-0.7-0.7-1-1.1
			c-1.6-2.8-2.1-6.1-1.4-9.3c0.4-3.1,1.2-6.2,2.2-9.2c1.1-3.1-0.6-6.5-3.7-7.6c-1.2-0.4-2.6-0.4-3.8,0c-19.4,6.5-47,12.4-57.9,8.9
			c5.6-7.8,17.1-19.6,39.6-37.5C84,206.5,114,197,143.9,201.4C187.9,208.1,221.2,243.6,235.8,262.1z"/>
	</g>
	<g id="Group_10839" transform="translate(4.437 14.834)">
		<path id="Path_10562" d="M205.1,239.4c-0.8,0.7-2,0.7-2.8-0.1c0,0,0,0,0,0c-25.9-28-79-67.3-143.2-16.3
			c-12.1,9-23.1,19.3-32.8,30.8c-0.4,0.5-1,0.8-1.6,0.8c-0.4,0-0.8-0.1-1.2-0.4c-0.9-0.6-1.1-1.9-0.4-2.7c0,0,0,0,0,0
			c9.9-11.8,21.1-22.4,33.5-31.6c66.6-53,121.6-12.3,148.5,16.7C206,237.4,206,238.6,205.1,239.4
			C205.2,239.4,205.2,239.4,205.1,239.4z"/>
	</g>
	<g id="Group_10840" transform="translate(124.233 14.834)">
		<path id="Path_10563" d="M453.7,276L453.7,276l-7.1-11.6L453.7,276z"/>
		<path id="Path_10564" d="M451.4,279.9L451.4,279.9l-10.7-17.4L451.4,279.9z"/>
		<path id="Path_10565" d="M648.1,251.5c-9.9-11.8-21.1-22.4-33.5-31.6c-66.6-53-121.6-12.3-148.5,16.7c-0.7,0.8-0.6,2.1,0.2,2.8
			c0.8,0.7,1.9,0.6,2.7-0.1c25.9-28,79.1-67.3,143.2-16.3c12.1,9,23.1,19.3,32.8,30.8c0.7,0.8,1.9,1,2.7,0.3
			C648.5,253.5,648.6,252.3,648.1,251.5L648.1,251.5z"/>
	</g>
</g>
</svg>
