<?xml version="1.0" encoding="utf-8"?>
<!-- Generator: Adobe Illustrator 25.1.0, SVG Export Plug-In . SVG Version: 6.00 Build 0)  -->
<svg version="1.1" id="Layer_1" xmlns="http://www.w3.org/2000/svg" xmlns:xlink="http://www.w3.org/1999/xlink" x="0px" y="0px"
	 viewBox="0 0 800 800" style="enable-background:new 0 0 800 800;" xml:space="preserve">
<style type="text/css">
	.st0{fill:#0080FF;}
	.st1{clip-path:url(#SVGID_2_);}
	.st2{fill:#71A741;}
	.st3{fill:#214003;}
	.st4{fill:#F2C8A2;}
	.st5{fill:#8ABF39;}
	.st6{fill:#C69C6D;}
</style>
<g>
	<circle class="st0" cx="259.5" cy="159.5" r="106.3"/>
	<circle class="st0" cx="542.7" cy="158.8" r="106.3"/>
	<g>
		<defs>
			<rect id="SVGID_1_" x="3.7" y="3.7" width="792.5" height="792.5"/>
		</defs>
		<clipPath id="SVGID_2_">
			<use xlink:href="#SVGID_1_"  style="overflow:visible;"/>
		</clipPath>
		<g id="Group_9237" transform="translate(0 0)" class="st1">
			<g id="Group_9236" transform="translate(0 8.152)">
				<path id="Path_7243" d="M68.6,352.7c0.1,0.1,0.3,0.2,0.5,0.3l0,0C69,352.9,68.8,352.8,68.6,352.7z M777.3,340.5
					c0.6,0.1,1.1,0.2,1.6,0.4c-0.1,0-0.2,0-0.2-0.1C778.2,340.7,777.8,340.6,777.3,340.5z M667.2,381.7c0.1-0.5,0.2-1,0.3-1.6
					c-0.1,0.3-0.1,0.6-0.2,0.9S667.2,381.5,667.2,381.7L667.2,381.7z M666.8,384c0.1-0.5,0.1-1,0.2-1.5c0,0.1,0,0.2,0,0.3
					C667,383.2,666.9,383.6,666.8,384L666.8,384z M599.8,637.8L599.8,637.8L599.8,637.8L599.8,637.8z M599.2,637.9L599.2,637.9
					L599.2,637.9C599.2,637.9,599.2,637.9,599.2,637.9L599.2,637.9z M69.1,353L69.1,353c-0.2-0.1-0.3-0.2-0.5-0.3
					C68.8,352.8,69,352.9,69.1,353L69.1,353z M751.9,399.6c19.1-11.3,47.8-31.6,44-48.8c-1.6-6.6-6.5-11.9-13-13.9
					c-14.8-5.5-38.2-0.4-54.5,11.8c-0.7,0.5-1.6,0.6-2.4,0.2c-1.4-0.6-2.5-1.9-2.7-3.5c-5.2-28.8-12.3-44.5-21-46.6
					c-4.5-1.1-9.1,1.4-13.6,7.4c-20.5,27.4-27,77.1-28,86.4c-30.4,17.8-62,33.2-94.8,46.1c-5.1-12-10.9-23.7-17.5-35
					c51.4-20,71.3-47.9,59.2-83c-8.3-24.3-16.4-47.9-23.8-69.7c55.4-23.5,81.2-87.5,57.7-142.9C617.9,52.9,553.9,27,498.6,50.6
					C474,61,454.1,80.1,442.6,104.3c-5.2-0.6-10.5-1.2-15.8-2c-18.4-2.7-37.1-2.7-55.5,0c-4.7,0.7-9.4,1.3-14.1,1.8
					c-25.8-54.4-90.8-77.5-145.2-51.7s-77.5,90.8-51.7,145.2c11.2,23.5,30.4,42.3,54.3,52.9c-7.4,22-15.6,45.8-24,70.4
					c-12.2,35.5,8.2,63.5,60.7,83.5c-6.5,11.1-12.2,22.6-17.2,34.5c-32.7-12.9-64.4-28.3-94.8-46.1c-1-9.3-7.6-59-28-86.4
					c-4.5-6-9-8.5-13.6-7.4c-8.8,2.1-15.8,17.7-21,46.6c-0.3,1.5-1.3,2.8-2.7,3.5c-0.8,0.3-1.7,0.3-2.4-0.2
					c-16.3-12.2-39.8-17.3-54.5-11.8c-6.5,2-11.5,7.3-13,13.9c-3.8,17.3,24.9,37.5,44,48.8c-12-0.9-26.8,0.1-33.9,9
					c-4.7,5.8-5.2,14.2-1.7,24.7c2.3,7.3,7.8,13,15,15.6c4.6,1.6,9.4,2.4,14.3,2.3c29.9,0,71.6-22.7,79.5-27.2
					c32.2,19.1,65.9,35.5,100.8,49c-5.9,20.2-9.1,41.2-9.3,62.3c-0.1,10.3,1,20.5,3.1,30.6c-16.3,9.8-30.2,23.1-40.8,38.9
					c-9.4,14.4-15.3,30.8-17.2,47.9c-11.4,9.2-18,23.1-18,37.8c0,1.9,0.1,3.8,0.4,5.7h-1.5c-1.4,0-2.5,1.1-2.5,2.5v40.5
					c0,1.4,1.1,2.5,2.5,2.5c0,0,0,0,0,0h99.7c1.4,0,2.5-1.1,2.5-2.5c0,0,0,0,0,0v-40.5c0-1.4-1.1-2.5-2.5-2.5H237
					c0.2-1.9,0.4-3.8,0.4-5.7c0-13.6-5.7-26.5-15.6-35.7c1.3-4.3,3.3-8.5,5.8-12.3c5.5-8.1,12.6-14.9,20.9-20l0,0
					c6.1,5.3,12.7,9.9,19.7,13.8c30.4,16.8,73.5,25,131.8,25s101.5-8.2,131.8-25c8.4-4.6,16.2-10.3,23.2-16.9
					c6.9,4.7,12.9,10.7,17.5,17.7c2.5,3.8,4.4,7.9,5.8,12.3c-10,9.2-15.7,22.1-15.7,35.7c0,1.9,0.1,3.8,0.4,5.7h-1.5
					c-1.4,0-2.5,1.1-2.5,2.5v40.5c0,1.4,1.1,2.5,2.5,2.5h99.7c1.4,0,2.5-1.1,2.5-2.5v-40.5c0-1.4-1.1-2.5-2.5-2.5h-1.5
					c0.2-1.9,0.3-3.8,0.3-5.7c0-14.7-6.6-28.6-18-37.8c-1.9-17.1-7.8-33.5-17.2-47.9c-10.3-15.5-23.9-28.6-39.8-38.4
					c1.4-8.5,2.1-17.1,2.1-25.7c-0.2-21.1-3.4-42.1-9.3-62.3c34.9-13.6,68.6-30,100.8-49c9.3,5.3,65.2,35.6,93.8,24.9
					c7.2-2.5,12.7-8.3,14.9-15.6c3.6-10.5,3-18.8-1.7-24.7C778.7,399.7,763.9,398.7,751.9,399.6L751.9,399.6z M445.7,109.6
					c0.3-0.8,0.7-1.6,1.1-2.4c0.4-0.8,0.7-1.6,1.1-2.4c25.4-51.5,87.7-72.7,139.2-47.3s72.7,87.7,47.3,139.2
					c-11,22.2-29.5,39.8-52.3,49.6c-0.8,0.3-1.5,0.6-2.3,1l-2.3,0.9c-53.8,20.1-113.7-7.2-133.8-60.9
					C434.3,162.2,435,134.3,445.7,109.6L445.7,109.6z M154.9,150.8c0-57.4,46.5-104,103.9-104c39.5,0,75.7,22.4,93.2,57.8
					c0.4,0.8,0.8,1.6,1.1,2.4s0.7,1.6,1.1,2.4c22.9,52.7-1.3,113.9-54,136.8c-25.2,11-53.7,11.5-79.3,1.4c-0.8-0.3-1.5-0.6-2.3-0.9
					c-0.8-0.3-1.5-0.6-2.3-1C179,228.9,154.9,191.8,154.9,150.8L154.9,150.8z M195.5,322.4c8.4-24.4,16.5-48.1,23.9-70
					c56.1,21.9,119.2-5.9,141.1-61.9c10.2-26.3,9.9-55.5-1-81.6c4.2-0.5,8.4-1.1,12.7-1.7c17.9-2.6,36.1-2.6,54.1,0
					c4.8,0.7,9.6,1.3,14.3,1.9c-23.1,55.6,3.3,119.3,58.9,142.4c25.4,10.6,53.9,11.1,79.7,1.5c7.3,21.7,15.4,45.3,23.7,69.4
					c1.9,5.5,3,11.3,3.1,17.1c0,24.8-20.8,45.2-62.1,60.7c-59.5,22.4-141.3,26.3-144.7,26.5c-1.9-0.1-26.8-1.3-58.7-6
					c-1.7-0.2-3.4-0.5-5.2-0.8l-3.2-0.5c-4.5-0.7-9.2-1.5-14-2.4c-2.3-0.4-4.6-0.9-7-1.3c-1.6-0.3-3.2-0.6-4.7-1
					c-1.4-0.3-2.8-0.6-4.3-0.9c-2.8-0.6-5.5-1.2-8.3-1.9c-2.3-0.5-4.5-1.1-6.7-1.7c-1.8-0.4-3.5-0.9-5.2-1.4
					c-8.9-2.4-17.7-5.1-26-8.2C204.4,381.8,184.1,355.4,195.5,322.4L195.5,322.4z M236,736.8h-94.7v-35.5H236L236,736.8z
					 M232.4,690.5c0,1.9-0.1,3.8-0.4,5.7h-86.8c-0.3-1.9-0.4-3.8-0.4-5.7c0-24.2,19.6-43.8,43.8-43.8S232.4,666.4,232.4,690.5
					L232.4,690.5z M658.8,731.4H564v-35.6h94.7V731.4z M655.2,685.1c0,1.9-0.1,3.8-0.4,5.7H568c-0.3-1.9-0.4-3.8-0.4-5.7
					c0-24.2,19.6-43.8,43.8-43.8C635.6,641.3,655.2,660.9,655.2,685.1L655.2,685.1z M784.7,423.4c-0.1,0.8-0.2,1.7-0.4,2.6
					c-0.4,1.9-0.9,3.8-1.5,5.7c-0.1,0.4-0.3,0.8-0.4,1.1l0,0c-0.3,0.7-0.6,1.4-0.9,2.1l0,0c-0.3,0.5-0.5,1-0.8,1.5
					c-0.3,0.5-0.6,0.9-0.9,1.4c-0.4,0.6-0.9,1.1-1.4,1.6c-0.3,0.3-0.7,0.7-1,1c-0.2,0.2-0.4,0.3-0.6,0.5c-0.3,0.2-0.6,0.5-0.9,0.7
					c-0.4,0.3-0.8,0.6-1.2,0.8l-0.6,0.3c-0.1,0-0.1,0.1-0.2,0.1c-0.3,0.1-0.6,0.3-0.9,0.4c-0.7,0.3-1.4,0.7-2.1,0.9
					c-4,1.4-8.3,2.1-12.6,2c-0.6,0-1.1,0-1.7,0s-1,0-1.6-0.1c-0.5,0-1.2-0.1-1.9-0.1c-0.4,0-0.9-0.1-1.3-0.1
					c-6.4-0.7-12.7-2.1-18.9-3.9c-0.6-0.2-1.3-0.4-1.9-0.6c-0.6-0.2-1.3-0.4-1.9-0.6c-1.1-0.3-2.1-0.7-3.2-1
					c-3.7-1.2-7.3-2.6-10.9-4c-1-0.4-2-0.8-3-1.2c-2-0.8-3.9-1.6-5.8-2.5c-0.9-0.4-1.8-0.8-2.7-1.2c-0.4-0.2-0.9-0.4-1.3-0.6
					c-1.8-0.8-3.5-1.6-5.1-2.4l0,0c-0.8-0.4-1.6-0.8-2.4-1.1c-0.8-0.4-1.5-0.7-2.2-1.1c-6.8-3.4-11.4-6-12.4-6.6
					c-0.2-0.2-0.5-0.3-0.8-0.4c-0.3-0.1-0.6-0.1-1-0.1c-0.1,0-0.2,0-0.3,0.1c-0.2,0-0.4,0.1-0.6,0.2c-4.4,2.6-10.9,6.5-19.1,10.9
					c-0.9,0.5-1.9,1.1-2.9,1.6c-7.9,4.3-17.1,9.1-27.3,14.1l-3.6,1.8c-4.5,2.2-9.2,4.4-14.1,6.6c-1,0.4-2,0.9-3,1.4
					c-3,1.4-6.1,2.7-9.2,4c-0.6,0.3-1.2,0.5-1.9,0.8c-2.4,1-4.8,2-7.2,3c-1.4,0.6-2.8,1.1-4.2,1.7c-1.4,0.6-2.8,1.1-4.2,1.7
					c-0.6,0.2-1.1,0.4-1.7,0.7c-1.9,0.7-3.8,1.5-5.7,2.2c-2.5,0.9-5,1.8-7.5,2.7c-2.9,1-5.8,2-8.7,3c-0.9,0.3-1.8,0.6-2.7,0.9
					c-1.4,0.5-2.8,0.9-4.2,1.3c-6.1,1.9-12.2,3.6-18.3,5.2c-2.3,0.6-4.5,1.1-6.8,1.7c-1.1,0.3-2.3,0.5-3.4,0.8s-2.3,0.5-3.4,0.7
					c-3.4,0.7-6.8,1.4-10.2,1.9c-2.3,0.4-4.5,0.7-6.7,1l-0.2,0c-1.3,0.3-2.2,1.6-1.9,3c0.3,1.1,1.3,1.9,2.4,1.9c0.1,0,0.2,0,0.3,0
					c24.3-3.7,48.2-10,71.1-18.8c5.7,19.7,8.8,40.1,9,60.6c0,7.7-0.5,15.3-1.7,22.9c-30.9-18.1-67.9-26.3-98.4-29.8
					c-1.4-0.1-2.6,0.9-2.7,2.2c-0.1,1.3,0.8,2.5,2.1,2.7l0,0l2.8,0.3l2.9,0.4c2.5,0.3,4.9,0.7,7.4,1.1c1.2,0.2,2.5,0.4,3.8,0.6
					s2.5,0.4,3.8,0.7c3.1,0.6,6.2,1.1,9.3,1.8c1.6,0.3,3.1,0.7,4.7,1c1.6,0.3,3.2,0.7,4.7,1.1c2.1,0.5,4.2,1.1,6.3,1.6
					c1.1,0.3,2.1,0.6,3.2,0.9s2.1,0.6,3.2,0.9c1.2,0.4,2.4,0.7,3.7,1.1c0.6,0.2,1.3,0.4,1.9,0.6c0,0,0.1,0,0.1,0
					c1.2,0.4,2.3,0.7,3.5,1.1c2.7,0.9,5.4,1.9,8.1,2.9c0.8,0.3,1.7,0.6,2.5,1c0.9,0.4,1.8,0.7,2.8,1.1c0.9,0.4,1.7,0.7,2.5,1.1
					c0.4,0.2,0.9,0.4,1.3,0.6c0.4,0.2,0.9,0.4,1.3,0.6c0.6,0.2,1.1,0.5,1.7,0.8c1,0.5,2,0.9,3,1.4c0.8,0.4,1.6,0.8,2.4,1.1
					c0.8,0.4,1.6,0.8,2.3,1.2c0.8,0.4,1.7,0.9,2.5,1.3c1,0.6,2.1,1.1,3.1,1.8c1,0.6,1.9,1.1,2.9,1.7c0.1,0,0.2,0.1,0.2,0.1l0,0
					l0.4,0.2l0,0c0.4,0.2,0.7,0.4,1,0.6l0.1,0c0.6,0.4,1.2,0.7,1.8,1.2c0.4,0.2,0.7,0.5,1.1,0.7c1.1,0.7,2.2,1.5,3.3,2.2
					c1.1,0.7,2.2,1.5,3.3,2.3c0.1,0.1,0.2,0.1,0.3,0.2c0.7,0.6,1.5,1.1,2.2,1.7c0.7,0.6,1.5,1.1,2.2,1.7c0.7,0.6,1.6,1.3,2.4,2
					c0.7,0.6,1.3,1.1,2,1.7c0.7,0.6,1.3,1.1,1.9,1.7c0.9,0.8,1.7,1.6,2.6,2.4c0.7,0.7,1.5,1.5,2.2,2.2c0.7,0.7,1.4,1.5,2.1,2.3
					s1.5,1.6,2.2,2.4c0.7,0.8,1.4,1.6,2.1,2.5l0,0c0.7,0.8,1.3,1.6,2,2.5s1.2,1.5,1.8,2.3c0.2,0.3,0.5,0.6,0.7,1
					c0.3,0.5,0.7,0.9,1,1.4c0.3,0.3,0.5,0.7,0.8,1.1c0.5,0.7,1,1.4,1.5,2.2c1.3,2,2.5,3.9,3.6,6c0.2,0.4,0.4,0.8,0.7,1.2l0,0l0,0
					c1.3,2.4,2.5,4.9,3.7,7.4c0.5,1,0.9,2.1,1.3,3.2c0.9,2.1,1.7,4.3,2.4,6.5c0.4,1.1,0.7,2.2,1,3.3c0.1,0.5,0.3,1,0.4,1.5
					c0.1,0.2,0.1,0.3,0.1,0.5c0.2,0.7,0.4,1.3,0.5,2l0.5,2c0.3,1.4,0.6,2.7,0.9,4.1c0.1,0.5,0.2,1.1,0.3,1.6
					c0.1,0.6,0.2,1.3,0.3,1.9l0,0c-0.1,0-0.2-0.1-0.3-0.2c-0.3-0.2-0.6-0.4-0.9-0.5c-0.5-0.3-1-0.6-1.5-0.8
					c-0.2-0.1-0.4-0.2-0.6-0.3c-0.1,0-0.1-0.1-0.2-0.1c0,0-0.1-0.1-0.2-0.1l-0.3-0.1c0,0,0,0,0,0c0,0-0.1,0-0.1,0
					c0,0-0.1-0.1-0.1-0.1c0,0,0,0-0.1,0l-0.2-0.1l-0.1,0l-0.1,0c0,0,0,0-0.1,0l-1-0.4c0,0-0.1-0.1-0.1,0c-0.4-0.2-0.8-0.3-1.2-0.5
					c-0.3-0.1-0.5-0.2-0.8-0.3s-0.5-0.2-0.8-0.3l-0.2-0.1c-0.3-0.1-0.6-0.2-0.9-0.3l-0.2,0c-0.1,0-0.2-0.1-0.4-0.1
					c-0.2-0.1-0.4-0.1-0.7-0.2c-0.2-0.1-0.4-0.1-0.5-0.2c-0.3-0.1-0.6-0.2-0.9-0.3c-0.3-0.1-0.5-0.1-0.8-0.2s-0.5-0.1-0.8-0.2
					c-0.6-0.1-1.3-0.3-1.9-0.4c-0.1,0-0.1,0-0.2,0l-0.2,0c-0.2,0-0.5-0.1-0.8-0.1l-0.3-0.1c-0.1,0-0.3,0-0.4-0.1h-0.1
					c0,0-0.1,0-0.1,0c-0.2,0-0.3,0-0.5-0.1l-0.4,0c0,0,0,0-0.1,0c0,0-0.1,0-0.1,0l-0.9-0.1c-0.3,0-0.6-0.1-0.9-0.1
					c-0.4,0-0.8-0.1-1.2-0.1c0,0-0.1,0-0.1,0c-0.3,0-0.6,0-0.9,0c-0.6,0-1.2,0-1.9,0c-0.4,0-0.9,0-1.4,0c-0.1,0-0.3,0-0.4,0h-0.3
					c-0.2,0-0.3,0-0.5,0l0,0c-0.1,0-0.1,0-0.2,0l-1.1,0.1c-0.4,0-0.8,0.1-1.2,0.1h0c-0.4,0-0.8,0.1-1.3,0.1
					c-1.2,0.2-2.5,0.4-3.7,0.6c-0.1,0-0.2,0-0.4,0.1c-0.1,0-0.2,0-0.4,0.1l0,0l0,0c0,0,0,0,0,0h0l0,0l0,0c0,0,0,0,0,0
					c0,0-0.1,0-0.1,0s0,0,0,0c-0.1,0-0.2,0-0.3,0.1h0h0c0,0,0,0-0.1,0s-0.2,0-0.3,0.1s-0.1,0-0.1,0c0,0,0,0,0,0h0c0,0-0.1,0-0.1,0
					c0,0,0,0,0,0l-0.2,0l0,0h0c-0.1,0-0.2,0-0.2,0.1h0c-0.6,0.2-1.2,0.4-1.8,0.6c-0.5,0.2-1,0.3-1.4,0.5c-0.5,0.2-0.9,0.3-1.4,0.5
					c-0.5,0.2-0.9,0.4-1.4,0.6c-0.2,0.1-0.3,0.1-0.5,0.2c0,0,0,0,0,0c-0.8,0.3-1.6,0.7-2.4,1.1c-0.2,0.1-0.3,0.1-0.5,0.2
					c-0.3,0.1-0.6,0.3-0.8,0.4c-0.1,0-0.2,0.1-0.3,0.2c-0.1,0.1-0.2,0.1-0.3,0.2c-0.1,0-0.2,0.1-0.2,0.1c-0.1,0.1-0.3,0.2-0.4,0.2
					c-0.4,0.2-0.9,0.5-1.3,0.8c-0.1,0.1-0.2,0.1-0.3,0.2c-0.9,0.5-1.7,1.1-2.5,1.7c-0.2,0.1-0.3,0.2-0.5,0.4l0,0l0,0
					c-1.4-4.1-3.3-7.9-5.7-11.5l0,0c-0.6-0.9-1.2-1.8-1.8-2.6c-0.3-0.4-0.6-0.9-1-1.3c-0.3-0.4-0.6-0.8-1-1.3
					c-0.3-0.4-0.7-0.8-1-1.2c-0.7-0.8-1.4-1.6-2.2-2.4c-0.3-0.4-0.7-0.8-1.1-1.1c-0.4-0.4-0.7-0.7-1.1-1.1c-0.2-0.2-0.4-0.4-0.6-0.6
					s-0.4-0.4-0.6-0.6c0,0-0.1-0.1-0.1-0.1c-0.3-0.3-0.6-0.6-1-0.9l-0.3-0.3c-0.2-0.2-0.4-0.4-0.7-0.6c-0.3-0.3-0.7-0.6-1-0.9
					c-0.3-0.3-0.7-0.6-1-0.9l0,0h0c-0.6-0.5-1.2-0.9-1.8-1.4c-0.3-0.2-0.6-0.5-0.9-0.7c-0.3-0.2-0.6-0.4-0.9-0.7
					c-0.1-0.1-0.2-0.2-0.3-0.2c-0.1-0.1-0.1-0.1-0.1-0.1c0,0,0,0-0.1,0c-0.1,0-0.1-0.1-0.2-0.1l-0.2-0.1c-0.2-0.1-0.4-0.3-0.6-0.4
					c0,0-0.1,0-0.1-0.1l0,0c-0.1,0-0.1-0.1-0.2-0.1l-0.1-0.1l-0.1,0c-0.1-0.1-0.2-0.2-0.3-0.2c-0.4-0.3-0.8-0.5-1.2-0.8
					c0,0-0.1-0.1-0.1-0.1c-0.1,0-0.1-0.1-0.2-0.1l0,0l-0.2-0.1c-0.1-0.1-0.2-0.1-0.3-0.2l-0.8-0.5c-0.3-0.2-0.7-0.4-1-0.6
					c-0.3-0.2-0.6-0.4-0.8-0.5h0c0,0-0.1-0.1-0.2-0.1l0,0l-0.2-0.1c-0.6-0.4-1.1-0.7-1.8-1c-0.4-0.2-0.7-0.4-1.1-0.6
					c-0.4-0.2-0.8-0.5-1.3-0.7c-0.6-0.3-1.2-0.6-1.8-1c-0.1,0-0.2-0.1-0.2-0.1c-0.1,0-0.1-0.1-0.2-0.1c0,0,0,0,0,0
					c-0.6-0.3-1.2-0.6-1.8-0.9l0,0c-0.8-0.4-1.6-0.8-2.4-1.1c-0.6-0.3-1.1-0.5-1.7-0.8l-1.7-0.7c-0.4-0.2-0.7-0.3-1.1-0.5
					c0,0,0-0.1-0.1,0l0,0c-0.1,0-0.1-0.1-0.2-0.1c-0.1,0-0.2-0.1-0.2-0.1c-0.2-0.1-0.4-0.2-0.6-0.2c-0.1-0.1-0.2-0.1-0.3-0.1
					c0,0-0.1,0-0.1,0c-0.2-0.1-0.4-0.2-0.6-0.2c-0.9-0.4-1.8-0.7-2.7-1.1l-0.1,0c-0.6-0.2-1.2-0.5-1.8-0.7c-0.3-0.1-0.6-0.3-1-0.4
					c-0.3-0.1-0.8-0.3-1.2-0.4c-0.9-0.4-1.8-0.7-2.7-1c-2.5-0.9-5.1-1.7-7.6-2.5c-0.1,0-0.2-0.1-0.3-0.1c-2.6-0.8-5.3-1.5-7.9-2.2
					c-1.4-0.4-2.8-0.7-4.1-1c-2.1-0.5-4.1-1-6.1-1.4c-0.8-0.2-1.7-0.4-2.5-0.5l-0.2,0c-0.8-0.2-1.6-0.3-2.4-0.5
					c-1.4-0.3-2.8-0.6-4.2-0.8c-1.1-0.2-2.1-0.4-3.2-0.6c-0.3,0-0.5-0.1-0.8-0.1c-0.8-0.1-1.5-0.2-2.3-0.4c-0.5-0.1-1-0.2-1.5-0.2
					c-1-0.1-2-0.3-2.9-0.4l0,0c-0.9-0.1-1.9-0.3-2.8-0.4h0c-1.4-0.1-2.6,0.8-2.7,2.2c-0.1,1.3,0.8,2.5,2.1,2.7
					c20.4,2.8,52.4,9.2,75.8,24c-29.1,26.9-78.8,39.8-150.8,39.8c-69,0-117.6-11.8-147.1-36.5c23-13.2,52.8-19.2,72.1-21.8
					c1.4-0.2,2.3-1.5,2.1-2.8c-0.2-1.3-1.4-2.2-2.7-2.1h0c-1.5,0.2-3.1,0.4-4.7,0.7l-4,0.6c-1,0.2-2.1,0.4-3.1,0.5
					c-2.6,0.5-5.4,1-8.2,1.6c-0.8,0.2-1.7,0.4-2.5,0.5c-3.7,0.8-7.5,1.7-11.4,2.7c-0.8,0.2-1.6,0.4-2.4,0.6
					c-0.7,0.2-1.4,0.4-2.1,0.6c-0.7,0.2-1.3,0.4-2,0.6l-3.5,1.1c-0.8,0.2-1.6,0.5-2.4,0.8c-0.7,0.2-1.3,0.4-2,0.7
					c-1.2,0.4-2.4,0.8-3.6,1.3c-0.1,0.1-0.3,0.1-0.4,0.2c-1,0.4-2.1,0.8-3.1,1.2c-1,0.4-2.1,0.8-3.1,1.2l-2.2,0.9
					c-1,0.4-2,0.9-3,1.3c-0.7,0.3-1.5,0.7-2.2,1c-0.8,0.4-1.7,0.8-2.5,1.2c-0.5,0.3-1,0.5-1.6,0.8c-1.5,0.8-3.1,1.6-4.5,2.5
					c-0.3,0.1-0.6,0.3-0.8,0.5c-0.2,0.1-0.4,0.2-0.6,0.4c-0.6,0.3-1.1,0.6-1.7,1c-0.5,0.3-1,0.6-1.5,1c-0.2,0.1-0.4,0.2-0.6,0.4
					c-0.1,0-0.1,0.1-0.2,0.1c-0.2,0.2-0.5,0.3-0.8,0.5c-0.7,0.5-1.4,1-2.1,1.5c-0.5,0.3-0.9,0.6-1.4,1c-0.3,0.2-0.6,0.5-1,0.7
					c-0.5,0.4-1,0.7-1.4,1.1s-0.9,0.8-1.4,1.1c-0.5,0.4-0.9,0.8-1.4,1.2c-0.9,0.8-1.8,1.6-2.7,2.5c-0.4,0.4-0.9,0.8-1.3,1.3
					c-0.8,0.9-1.6,1.7-2.4,2.6c-0.4,0.4-0.8,0.9-1.1,1.3c-0.4,0.4-0.7,0.9-1.1,1.4c-0.7,0.9-1.4,1.9-2.1,2.8c-0.4,0.5-0.7,1-1,1.5
					c-0.3,0.5-0.6,0.9-0.8,1.4c-0.5,0.8-0.9,1.6-1.4,2.4c-0.2,0.4-0.4,0.8-0.6,1.2c-0.5,1.1-1,2.1-1.5,3.2c-0.2,0.5-0.4,0.9-0.6,1.4
					c-0.2,0.6-0.5,1.3-0.7,1.9l0,0c-0.6-0.4-1.2-0.9-1.8-1.3c-0.4-0.2-0.7-0.5-1.1-0.7l0,0c-0.6-0.4-1.1-0.7-1.7-1
					c-0.1-0.1-0.2-0.2-0.4-0.2c-0.4-0.2-0.8-0.4-1.2-0.6c-0.2-0.1-0.4-0.2-0.6-0.3c-0.4-0.2-0.7-0.4-1.1-0.6c0,0-0.1-0.1-0.2-0.1
					c-0.3-0.2-0.7-0.3-1-0.4l-0.6-0.2l0,0c0,0,0,0-0.1,0c0,0-0.1-0.1-0.1-0.1c-0.3-0.1-0.5-0.2-0.8-0.3c-0.1,0-0.1,0-0.2-0.1
					l-0.2-0.1c0,0-0.1,0-0.1,0c0,0-0.1-0.1-0.1-0.1c-0.2-0.1-0.4-0.2-0.6-0.3c-0.4-0.1-0.9-0.3-1.3-0.4c-0.1,0-0.2-0.1-0.3-0.1
					c-0.2-0.1-0.4-0.1-0.7-0.2c0,0-0.1,0-0.1-0.1l-0.8-0.2c-0.3-0.1-0.6-0.2-0.9-0.3c-0.6-0.2-1.1-0.3-1.7-0.4
					c-0.5-0.1-1.2-0.3-1.8-0.4c-0.5-0.1-0.9-0.2-1.4-0.2c-1.2-0.2-2.5-0.4-3.7-0.5c-0.7-0.1-1.5-0.1-2.2-0.1c-0.7,0-1.5,0-2.2,0
					c-0.5,0-0.9,0-1.3,0c-0.3,0-0.6,0-0.9,0h0c-0.1,0-0.1,0-0.2,0c-0.3,0-0.6,0-0.9,0c-0.5,0-1,0.1-1.6,0.1
					c-1.1,0.1-2.1,0.2-3.1,0.4c-0.5,0.1-1,0.2-1.6,0.3c-0.2,0-0.4,0.1-0.6,0.1c-0.5,0.1-0.9,0.2-1.4,0.3s-0.9,0.2-1.3,0.3
					c-0.3,0.1-0.7,0.2-1,0.3l-0.3,0.1c-0.4,0.1-0.8,0.2-1.2,0.4c-0.3,0.1-0.6,0.2-0.8,0.3c-0.5,0.2-1,0.4-1.5,0.6s-1,0.4-1.5,0.6
					c-0.4,0.1-0.7,0.3-1.1,0.5c-0.3,0.1-0.6,0.2-0.8,0.4c-0.4,0.2-0.9,0.4-1.3,0.7c-0.4,0.2-0.8,0.4-1.2,0.6c-0.5,0.3-1,0.6-1.4,0.8
					l0,0c0.1-0.9,0.3-1.9,0.5-2.8c0.3-1.8,0.7-3.7,1.2-5.5c0.2-0.9,0.4-1.8,0.7-2.7c0.5-1.8,1-3.6,1.6-5.3c0.3-0.9,0.6-1.8,0.9-2.6
					c0.3-0.9,0.6-1.7,1-2.6c0.7-1.7,1.4-3.4,2.1-5.1c0.4-0.9,0.8-1.8,1.2-2.7c0.4-0.8,0.8-1.6,1.1-2.3c0.7-1.4,1.5-2.9,2.3-4.3
					c0.3-0.6,0.7-1.2,1-1.8c0.3-0.4,0.6-0.9,0.8-1.4c0.4-0.7,0.9-1.5,1.4-2.2c1.1-1.7,2.2-3.3,3.4-4.9c0.5-0.7,1-1.4,1.6-2.1
					c0.1-0.2,0.2-0.3,0.3-0.4c0.5-0.7,1-1.3,1.6-2c0.4-0.6,0.9-1.1,1.3-1.6c0.4-0.5,1-1.2,1.5-1.8c0.3-0.4,0.7-0.8,1-1.1
					c0.7-0.8,1.4-1.5,2.1-2.2c0.7-0.7,1.2-1.3,1.8-1.9c0.8-0.8,1.6-1.5,2.4-2.3c0.8-0.8,1.6-1.5,2.4-2.2c0.8-0.7,1.8-1.6,2.7-2.3
					c0.6-0.6,1.3-1.1,2-1.6c0.7-0.5,1.3-1.1,2-1.6c0.4-0.3,0.7-0.6,1.1-0.8c0.8-0.6,1.7-1.3,2.5-1.9c1.8-1.3,3.6-2.6,5.4-3.8
					c0.9-0.6,1.8-1.2,2.8-1.8l0,0c1.4-0.9,2.9-1.8,4.4-2.7c0.5-0.3,1.1-0.6,1.6-0.9c1.3-0.8,2.7-1.5,4.1-2.3
					c0.6-0.3,1.2-0.6,1.8-0.9c0.4-0.2,0.8-0.4,1.1-0.6c1-0.5,2-1,3.1-1.5c0.9-0.4,1.8-0.9,2.7-1.3c0.4-0.2,0.8-0.4,1.2-0.6l2.1-0.9
					l3-1.3c1-0.4,2.1-0.9,3.1-1.3c2-0.8,4.1-1.6,6.2-2.4c0.8-0.3,1.5-0.6,2.3-0.8c0.1,0,0.1,0,0.2-0.1c0.8-0.3,1.6-0.6,2.4-0.8
					c0.1-0.1,0.3-0.1,0.4-0.1c0.4-0.2,0.8-0.3,1.2-0.4c0.1,0,0.2-0.1,0.2-0.1c0.6-0.2,1.3-0.4,1.9-0.6c0.3-0.1,0.6-0.2,1-0.3
					c0.8-0.2,1.5-0.5,2.3-0.7c2.3-0.7,4.6-1.4,6.9-2c1.2-0.4,2.5-0.7,3.7-1c1.5-0.4,2.9-0.8,4.4-1.1c0.7-0.2,1.5-0.4,2.2-0.5
					c0.7-0.2,1.5-0.3,2.2-0.5c2.1-0.5,4.1-0.9,6.2-1.4c1-0.2,2-0.4,3.1-0.6c1-0.2,2-0.4,3.1-0.6c0.6-0.1,1.3-0.2,2-0.4l1.7-0.3
					l2.4-0.4c6-1,11.9-1.8,17.5-2.5c1.4-0.2,2.3-1.4,2.1-2.8c-0.2-1.3-1.4-2.3-2.7-2.1c-30.2,3.5-66.8,11.5-97.5,29.3
					c-1.7-9.2-2.6-18.5-2.5-27.9c0.2-20.5,3.3-40.9,9-60.6c23,8.8,46.8,15.1,71.1,18.8c0.1,0,0.2,0,0.3,0c1.4,0,2.5-1.1,2.5-2.5
					c0-1.2-0.8-2.2-1.9-2.4l-0.2,0c-2.2-0.3-4.5-0.6-6.7-1c-2-0.3-4-0.7-6-1.1c-0.8-0.2-1.7-0.3-2.5-0.5c-0.8-0.2-1.6-0.3-2.4-0.5
					c-1.2-0.2-2.4-0.5-3.6-0.8c-0.2-0.1-0.5-0.1-0.7-0.2l-0.7-0.1c-1.5-0.3-3-0.7-4.4-1l0,0c-0.2,0-0.4-0.1-0.6-0.1
					c-3.1-0.8-6.2-1.6-9.3-2.4l-0.3-0.1l-0.6-0.1c-0.7-0.2-1.3-0.4-2-0.6c-0.9-0.2-1.7-0.5-2.6-0.7c-0.3-0.1-0.6-0.2-0.9-0.3
					c-1.4-0.4-2.8-0.8-4.2-1.3c-2.3-0.7-4.5-1.4-6.8-2.2c-4.5-1.5-9-3-13.4-4.6c-3.9-1.4-7.8-2.9-11.6-4.4c-1.4-0.5-2.8-1.1-4.2-1.7
					l-2.5-1c-15.4-6.2-29.9-13-42.8-19.4c-1.6-0.8-3.2-1.6-4.8-2.4c-0.2-0.1-0.3-0.2-0.5-0.3c-3.1-1.5-6-3.1-8.8-4.5
					c-1.1-0.6-2.3-1.2-3.4-1.8c-0.6-0.3-1.1-0.6-1.6-0.9c-2-1.1-3.9-2.1-5.7-3.1c-0.9-0.5-1.8-1-2.7-1.5c-0.4-0.3-0.9-0.5-1.3-0.7
					c-0.9-0.5-1.7-0.9-2.5-1.4c-0.3-0.2-0.6-0.3-0.8-0.5l-1.6-0.9l-0.2-0.2c-0.6-0.3-1.2-0.7-1.8-1c-0.8-0.5-1.7-0.9-2.5-1.4
					c-0.7-0.4-1.4-0.8-2-1.2c-0.6-0.4-1.3-0.8-1.9-1.1s-1.3-0.8-2-1.1c-0.6-0.4-1.2-0.7-1.8-1.1c-0.1-0.1-0.3-0.2-0.4-0.2
					c-0.2-0.1-0.5-0.3-0.7-0.4c-0.6-0.3-1.3-0.4-1.9-0.3c-0.1,0-0.2,0.1-0.4,0.1l0,0c-0.1,0-0.2,0.1-0.2,0.1c0,0-0.1,0.1-0.1,0.1
					l-1,0.5c-0.1,0.1-0.2,0.1-0.4,0.2c-0.7,0.4-1.6,0.9-2.7,1.5l0,0c-0.6,0.3-1.3,0.7-2,1c-0.4,0.2-0.9,0.5-1.4,0.7l-1.5,0.8
					c-1.1,0.5-2.2,1.1-3.4,1.7l-1.9,0.9c-0.8,0.4-1.5,0.8-2.4,1.1c-5.7,2.7-12.4,5.7-19.5,8.6c-1,0.4-2,0.8-3.1,1.2
					c-1,0.4-2.1,0.8-3.2,1.1c-1.1,0.4-2.1,0.7-3.1,1.1c-16.3,5.5-33.5,8.9-45.2,4.5c-1.4-0.5-2.8-1.2-4.1-2
					c-0.5-0.3-0.9-0.6-1.3-0.9c-0.4-0.3-0.8-0.7-1.2-1c-0.5-0.5-1-1-1.5-1.6c-0.5-0.6-0.9-1.1-1.3-1.8c-0.6-0.9-1.2-1.9-1.6-3
					c-0.3-0.7-0.6-1.5-0.9-2.2c-3-8.8-2.7-15.5,0.8-20c0.3-0.4,0.6-0.7,1-1.1c0.9-0.9,2-1.8,3.2-2.4c0.6-0.4,1.2-0.7,1.8-1
					c0.7-0.3,1.5-0.6,2.3-0.9c5.6-1.7,11.5-2.4,17.4-2c1.5,0,3,0.1,4.3,0.2l0,0c0.7,0.1,1.3,0.1,1.9,0.2c0.6,0.1,1.2,0,1.8-0.2
					c0.4-0.1,0.8-0.3,1.2-0.6c0.8-0.6,1.4-1.4,1.7-2.3c0,0,0-0.1,0-0.1c0.1-0.2,0.1-0.4,0.1-0.6c0-0.2,0.1-0.5,0.1-0.7
					c0-0.6-0.1-1.1-0.3-1.6c-0.2-0.4-0.4-0.8-0.7-1.1c-0.1-0.2-0.3-0.3-0.5-0.5c-0.2-0.1-0.4-0.3-0.6-0.4c-2-1.1-3.9-2.3-5.7-3.4
					l0,0l-0.6-0.4c-0.5-0.3-1.1-0.7-1.6-1c-1.1-0.7-2.1-1.4-3.2-2c-1.1-0.7-2.3-1.5-3.4-2.2c-1.5-1-2.8-2-4.2-3s-2.7-2-3.9-2.9
					c-0.6-0.5-1.2-1-1.9-1.4c-0.6-0.5-1.2-1-1.8-1.4c-1.1-0.9-2.3-1.9-3.3-2.8c-0.5-0.5-1-0.9-1.5-1.4c-0.5-0.5-1-0.9-1.5-1.4
					c-0.5-0.4-0.9-0.9-1.4-1.4c-0.9-0.9-1.7-1.8-2.5-2.6c-0.8-0.9-1.5-1.7-2.2-2.6c-0.7-0.9-1.3-1.7-1.8-2.5
					c-2.8-3.4-4-7.9-3.5-12.2c0.4-1.7,1.1-3.4,2.2-4.9c0.3-0.5,0.7-0.9,1.1-1.4c1.1-1.1,2.4-2.1,3.7-2.8c0.9-0.5,1.9-0.9,2.8-1.3
					c13.1-4.9,35,0,49.8,11.1c0.1,0.1,0.3,0.2,0.5,0.3l0,0c0.2,0.1,0.3,0.2,0.5,0.3l0,0c0.1,0,0.2,0.1,0.3,0.1l0.2,0.1
					c0.3,0.1,0.6,0.2,0.9,0.3c0.2,0.1,0.5,0.1,0.7,0.1l0,0h-0.1l0.4,0h0.1c0,0,0.1,0,0.1,0c0.1,0,0.1,0,0.2,0c0,0,0,0,0.1,0h0.1
					c0.5,0,1,0,1.5-0.1c0.5-0.1,1.1-0.3,1.6-0.4c1.1-0.4,2.1-1.1,3-1.9c0.3-0.3,0.6-0.6,0.8-0.9c1-1.3,1.7-2.8,2-4.4
					c0.6-3.3,1.2-6.5,1.9-9.5c0.2-1,0.4-1.9,0.7-2.9c0.1-0.5,0.2-1.1,0.4-1.6c0.2-1.1,0.5-2.1,0.8-3.1c0,0,0,0,0,0
					c0.3-1.2,0.7-2.4,1-3.6c0.2-0.6,0.4-1.2,0.5-1.8c0.2-0.6,0.3-1.1,0.5-1.7c1.5-5.2,3.8-10.2,6.7-14.7c0.4-0.5,0.7-1,1.2-1.4
					c0.2-0.2,0.4-0.4,0.6-0.6c0.2-0.2,0.4-0.4,0.6-0.5l0,0c0.3-0.2,0.6-0.4,1-0.6c0.4-0.3,0.9-0.5,1.4-0.6c2.3-0.2,4.5,0.7,5.9,2.6
					c0.2,0.1,0.3,0.3,0.5,0.5c0.1,0.1,0.2,0.2,0.2,0.3c0.1,0.1,0.2,0.2,0.2,0.3c0.2,0.2,0.4,0.4,0.5,0.6c0.3,0.4,0.7,0.8,1,1.3
					c0.5,0.7,1,1.4,1.6,2.2c0,0,0,0,0.1,0.1c0.1,0.2,0.2,0.3,0.3,0.5l0,0l0,0c0.6,0.9,1.3,1.9,1.9,2.9c0.6,1,1.2,2,1.8,3.1
					s1.1,2.1,1.7,3.2c1.1,2.1,2.2,4.3,3.1,6.6c1,2.3,1.9,4.5,2.8,6.9c0.4,1.1,0.9,2.3,1.3,3.5s0.8,2.4,1.2,3.5
					c4.9,15.1,8.4,30.6,10.6,46.3c0.1,0.6,0.2,1.2,0.2,1.7c0.1,0.5,0.1,1,0.2,1.5c0,0.2,0.1,0.5,0.1,0.7c0,0.4,0.1,0.8,0.1,1.1
					c0,0.1,0,0.3,0,0.4c0,0.2,0,0.3,0,0.4c0,0.1,0,0.2,0,0.3c0,0.1,0,0.1,0,0.2v0.1l0,0v0.1c0.1,0.8,0.5,1.5,1.2,1.9
					c1.8,1.1,3.9,2.3,6.3,3.7c1.2,0.7,2.5,1.4,3.9,2.2c1.4,0.8,2.8,1.6,4.3,2.4c0.2,0.1,0.4,0.2,0.6,0.4c2.8,1.5,5.8,3.2,9,4.9
					c0.1,0,0.2,0.1,0.3,0.1c2.7,1.4,5.5,2.9,8.4,4.4c0.2,0.1,0.4,0.2,0.6,0.3c1.3,0.7,2.7,1.4,4.1,2.1c0.2,0.1,0.5,0.2,0.7,0.4
					c0.8,0.4,1.6,0.8,2.5,1.3c0.8,0.4,1.7,0.8,2.5,1.3c0.8,0.4,1.7,0.9,2.6,1.3s1.7,0.9,2.6,1.3c1.8,0.9,3.6,1.7,5.4,2.6
					c1.8,0.9,3.7,1.7,5.5,2.6c2.8,1.3,5.7,2.6,8.6,3.9c1.9,0.9,3.9,1.7,5.9,2.6l3,1.3c3,1.3,6,2.6,9.1,3.8c1,0.4,2.1,0.8,3.1,1.3
					c2.1,0.8,4.1,1.6,6.2,2.5c0.4,0.2,0.9,0.3,1.3,0.5l1.9,0.7l0.5,0.2l2.3,0.9c1.2,0.4,2.4,0.9,3.5,1.3l3.2,1.1
					c1.1,0.4,2.1,0.8,3.2,1.1c3.7,1.3,7.5,2.6,11.2,3.7c1.1,0.4,2.2,0.7,3.3,1c3.3,1,6.6,2,9.8,2.8c1.1,0.3,2.1,0.6,3.2,0.9
					c3.7,1,7.4,1.9,11.2,2.7c1.1,0.2,2.1,0.5,3.2,0.7c1.1,0.2,2.1,0.4,3.2,0.6c1.1,0.2,2.1,0.4,3.2,0.6c0.8,0.2,1.6,0.3,2.4,0.4
					c0.6,0.1,1.1,0.2,1.7,0.3c0.7,0.1,1.5,0.2,2.2,0.3c1.1,0.2,2.1,0.3,3.2,0.5c0.1,0,0.1,0,0.2,0c1.4,0.2,2.6-0.8,2.8-2.1
					c0.2-1.4-0.8-2.6-2.1-2.8l0,0c-22.8-3.6-45.2-9.6-66.7-17.9c5-11.8,10.8-23.4,17.3-34.5c3.8,1.4,7.7,2.7,11.6,3.9
					c1,0.3,2,0.6,3,0.9c0.4,0.1,0.7,0.2,1.1,0.3c0.9,0.3,1.8,0.6,2.7,0.8c5.2,1.5,10.5,2.9,15.8,4.2c1,0.2,1.9,0.5,2.9,0.7
					c1,0.2,2.1,0.5,3.1,0.7s2.1,0.5,3.1,0.7c17.8,3.9,35.4,6.7,50.7,8.8c0.9,0.1,1.7,0.2,2.6,0.3c2.6,0.3,5.1,0.6,7.5,0.9l4.1,0.5
					c2.6,0.3,5,0.5,7.3,0.8l3.1,0.3c1.7,0.2,3.3,0.3,4.9,0.4c1.1,0.1,2.2,0.2,3.3,0.3c0.8,0,1.5,0.1,2.3,0.2
					c0.9,0.1,1.8,0.1,2.6,0.2l1.8,0.2c0.8,0,1.6,0.1,2.4,0.2c4.4,0.3,6.9,0.4,7,0.4h0.2c0.1,0,1.6-0.1,4.3-0.2
					c0.6,0,1.1-0.1,1.8-0.1c4.6-0.3,11.5-0.8,20-1.6c1.3-0.1,2.5-0.2,3.8-0.4c1.5-0.1,3-0.3,4.6-0.5c0.8-0.1,1.6-0.2,2.4-0.3
					c1.1-0.1,2.1-0.2,3.2-0.4l2.5-0.3l5.2-0.6c1.8-0.2,3.6-0.5,5.4-0.7c0.9-0.1,1.8-0.2,2.8-0.4l2.8-0.4c1.9-0.3,3.8-0.6,5.7-0.9
					l2.9-0.4c2.5-0.4,5-0.8,7.6-1.3c0.4-0.1,0.9-0.1,1.3-0.2c3-0.5,6-1.1,9.1-1.7l3.1-0.6c1-0.2,2-0.4,3.1-0.6l9.3-2
					c3.1-0.7,6.2-1.4,9.3-2.2l9.5-2.5l2.8-0.8c1-0.3,2-0.6,3.1-0.9c1-0.3,2-0.6,3-0.9l10.6-3.4c0.8-0.3,1.6-0.5,2.3-0.8l2.9-1
					c6.6,11.3,12.5,23,17.6,35l0,0c-21.5,8.4-43.9,14.4-66.8,17.9c-1.4,0.2-2.3,1.4-2.1,2.8c0.2,1.4,1.4,2.3,2.8,2.1l0,0
					c0.1,0,0.1,0,0.2,0l0,0c1-0.1,2.1-0.3,3.1-0.5c0.7-0.1,1.5-0.2,2.2-0.3s1.4-0.2,2.2-0.4c1.2-0.2,2.4-0.4,3.6-0.7
					c1-0.2,2.1-0.4,3.1-0.6c1-0.2,2.2-0.4,3.4-0.7c4.2-0.9,8.5-1.9,12.7-3.1c1.1-0.3,2.3-0.6,3.4-0.9c1.6-0.4,3.2-0.9,4.7-1.3
					c0,0,0.1,0,0.1,0c1.6-0.5,3.3-1,4.9-1.5c1-0.3,2-0.6,3-0.9c1.5-0.5,3-0.9,4.5-1.4c0.8-0.3,1.6-0.5,2.4-0.8
					c0.6-0.2,1.2-0.4,1.8-0.6c5.2-1.8,10.3-3.6,15.4-5.6l3-1.1l2.3-0.9c1.4-0.5,2.7-1.1,4.1-1.6c8.3-3.3,16.3-6.8,23.9-10.3
					c1.5-0.7,3-1.4,4.4-2c0.9-0.4,1.8-0.8,2.7-1.3c0.6-0.3,1.2-0.6,1.8-0.8c0.8-0.3,1.5-0.7,2.3-1.1c2.4-1.1,4.7-2.3,6.9-3.4
					c2.4-1.2,4.8-2.4,7.1-3.5c1.1-0.6,2.3-1.1,3.4-1.7l0.6-0.3c1.6-0.8,3.2-1.6,4.7-2.4c12.3-6.4,22.2-12.1,28.8-15.9l2.3-1.3
					c0.4-0.2,0.7-0.5,0.9-0.9c0.1-0.1,0.1-0.3,0.2-0.4c0-0.1,0.1-0.2,0.1-0.3c0-0.1,0-0.2,0-0.3c0,0,0-0.1,0-0.1c0-0.1,0-0.1,0-0.2
					c0-0.1,0-0.2,0-0.3c0-0.1,0-0.2,0-0.3c0-0.3,0.1-0.7,0.2-1.2c0-0.1,0-0.2,0-0.3c0-0.2,0.1-0.4,0.1-0.7l0,0c0-0.3,0.1-0.6,0.1-1
					l0,0c0.1-0.6,0.2-1.3,0.3-2c0.1-0.7,0.2-1.5,0.4-2.4c0.1-0.6,0.2-1.1,0.3-1.7c0-0.1,0-0.1,0-0.2c0.1-0.5,0.1-1,0.2-1.5
					c0-0.3,0.1-0.5,0.1-0.8c0.1-0.5,0.2-1,0.3-1.6c0.3-2.1,0.8-4.4,1.2-6.8c0.1-0.4,0.2-0.8,0.2-1.3c0.2-1.1,0.4-2.1,0.7-3.2
					c0.4-2.1,0.9-4.2,1.4-6.4c0.4-1.6,0.8-3.2,1.1-4.8c0.7-2.9,1.6-5.9,2.5-8.9c0.2-0.7,0.5-1.5,0.7-2.3c0.5-1.6,1-3.2,1.5-4.8
					c0.3-0.9,0.6-1.9,1-2.8c0.4-1.1,0.7-2.1,1.1-3.2c0.3-0.9,0.7-1.9,1.1-2.8c0-0.1,0.1-0.2,0.1-0.3c0.3-0.6,0.5-1.3,0.8-2
					c0.1-0.1,0.1-0.2,0.1-0.3c0.3-0.6,0.5-1.3,0.8-1.9c1.8-4.3,3.9-8.5,6.3-12.5c0.4-0.7,0.8-1.3,1.2-2c0.6-1,1.2-1.9,1.9-2.8
					c0.4-0.6,0.9-1.2,1.3-1.8c3.2-4.2,6-6.1,8.4-5.5c0.4,0.1,0.8,0.2,1.2,0.4c0.5,0.2,0.9,0.5,1.3,0.9c0.2,0.2,0.4,0.4,0.7,0.6
					c0.2,0.2,0.4,0.4,0.6,0.7l0,0c2.5,3.2,4.4,6.8,5.8,10.6c0.5,1.2,0.9,2.4,1.4,3.8c0.1,0.4,0.3,0.9,0.4,1.4
					c1.2,3.8,2.4,8.2,3.6,13.1c0.4,1.7,0.8,3.5,1.1,5.4l0,0c0.3,1.4,0.6,2.8,0.8,4.3c0.1,0.5,0.2,1,0.3,1.5c0.4,2,1.4,3.8,2.8,5.3
					c0.2,0.2,0.4,0.4,0.7,0.6c0.5,0.4,1,0.7,1.5,1l0,0c0.3,0.1,0.5,0.3,0.8,0.4c0.5,0.2,1,0.3,1.5,0.4c0.7,0.1,1.4,0.2,2,0.1
					c0.2,0,0.4,0,0.6-0.1c0.4,0,0.8-0.1,1.1-0.3c0.2,0,0.3-0.1,0.5-0.2c0.2-0.1,0.4-0.2,0.6-0.3c0.3-0.2,0.7-0.4,1-0.6
					c1.4-1,2.8-2,4.3-2.9c0.6-0.4,1.1-0.7,1.8-1.1c0.3-0.2,0.7-0.4,1.1-0.6s0.7-0.4,1-0.6c0.3-0.2,0.8-0.4,1.2-0.6
					c3-1.5,6.2-2.8,9.4-3.9c0.7-0.2,1.4-0.5,2.2-0.7h0c0.7-0.2,1.3-0.4,2-0.6c0,0,0,0,0.1,0c0.4-0.1,0.8-0.2,1.3-0.3
					c0.1,0,0.1,0,0.2,0c0.7-0.2,1.4-0.3,2.1-0.5c0.4-0.1,0.7-0.2,1.1-0.2l0.8-0.1c0.5-0.1,0.9-0.2,1.4-0.2c0.4-0.1,0.9-0.1,1.4-0.2
					c0.9-0.1,1.8-0.2,2.7-0.3c0.9-0.1,1.8-0.1,2.7-0.1c0.5,0,0.9,0,1.4,0c1.1,0,2.1,0,3.2,0.1c0.4,0,0.8,0,1.2,0.1l0.4,0
					c0.2,0,0.5,0,0.8,0.1c0.1,0,0.3,0,0.4,0.1c0,0,0.1,0,0.1,0c0.6,0.1,1.3,0.2,1.9,0.3c0.6,0.1,1.1,0.2,1.6,0.4c0.1,0,0.2,0,0.2,0
					c0.3,0.1,0.6,0.2,0.9,0.3c0.1,0,0.3,0.1,0.4,0.1c0.2,0.1,0.5,0.2,0.7,0.2c1,0.4,1.9,0.8,2.8,1.3c1.4,0.7,2.7,1.7,3.7,2.8
					c0.4,0.4,0.8,0.9,1.1,1.4c1,1.5,1.8,3.1,2.2,4.9c0.2,0.7,0.2,1.4,0.2,2.1c0,0.3,0,0.7,0,1l-0.1,0.8c0,0.3-0.1,0.6-0.2,0.9v0
					c-0.1,0.3-0.1,0.5-0.2,0.8s-0.1,0.5-0.2,0.8c-0.1,0.3-0.2,0.5-0.3,0.7c-0.6,1.6-1.4,3.1-2.4,4.5c-0.2,0.3-0.4,0.6-0.7,1
					c-1.1,1.6-2.3,3.1-3.6,4.6c-0.3,0.3-0.6,0.7-0.9,1c-0.5,0.6-1,1.1-1.6,1.7c-0.2,0.2-0.4,0.5-0.7,0.7c-1.1,1.1-2.4,2.3-3.7,3.4
					c-1.1,0.9-2.1,1.9-3.3,2.8c-8.3,6.6-17,12.6-26.2,17.8c-0.2,0.1-0.4,0.2-0.6,0.4c0,0,0,0-0.1,0.1c-0.1,0.1-0.3,0.2-0.4,0.4
					c0,0,0,0.1-0.1,0.1c-0.1,0.1-0.2,0.3-0.3,0.5c-0.1,0.2-0.2,0.4-0.3,0.6c-0.1,0.2-0.1,0.3-0.2,0.5c-0.1,0.5-0.2,0.9-0.1,1.4
					c0,0.2,0.1,0.5,0.1,0.7c0,0.1,0,0.3,0.1,0.4c0.2,0.7,0.6,1.3,1.1,1.8l0.3,0.3c0.1,0.1,0.3,0.2,0.4,0.3c0,0,0.1,0,0.1,0.1
					c0,0,0.1,0.1,0.1,0.1c0.1,0.1,0.3,0.1,0.4,0.2c0.3,0.1,0.5,0.2,0.8,0.3l0,0c0.1,0,0.3,0,0.4,0.1c0.1,0,0.3,0,0.4,0
					c0.1,0,0.3,0,0.4,0c0.6-0.1,1.2-0.1,1.9-0.2c0.1,0,0.1,0,0.2,0c1.3-0.1,2.8-0.2,4.2-0.2c1.5-0.1,3,0,4.5,0c0.7,0,1.5,0,2.2,0.1
					s1.5,0.1,2.2,0.2l0,0c0.7,0.1,1.5,0.2,2.2,0.3c0.9,0.1,1.8,0.3,2.7,0.5c0.7,0.2,1.4,0.3,2.1,0.5c0.5,0.1,1,0.3,1.4,0.5
					c0.6,0.2,1.3,0.4,1.9,0.7c0.3,0.1,0.6,0.3,0.9,0.4c0.8,0.4,1.6,0.8,2.3,1.3c0.4,0.3,0.7,0.5,1,0.8l0,0c0.3,0.3,0.6,0.5,0.9,0.8
					c0.1,0.1,0.2,0.2,0.3,0.3c0.3,0.3,0.6,0.6,0.8,0.9c1,1.2,1.7,2.6,2.2,4.1c0.3,0.8,0.4,1.6,0.6,2.4
					C784.7,419.7,784.8,421.5,784.7,423.4L784.7,423.4z M68.7,352.6c0.1,0.1,0.3,0.2,0.5,0.3l0,0C69,352.9,68.8,352.8,68.7,352.6
					L68.7,352.6z M599.8,637.8L599.8,637.8L599.8,637.8L599.8,637.8z M667,382.8c-0.1,0.5-0.1,0.9-0.2,1.4c0-0.1,0-0.1,0-0.2
					c0.1-0.5,0.1-1,0.2-1.5C667.1,382.6,667,382.7,667,382.8L667,382.8z M667.3,381.1c0,0.2-0.1,0.4-0.1,0.7c0.1-0.5,0.2-1,0.3-1.6
					C667.4,380.5,667.3,380.8,667.3,381.1L667.3,381.1z"/>
				<path id="Path_7246" class="st2" d="M655.1,685.1c0,1.9-0.1,3.8-0.4,5.7H568c-0.3-1.9-0.4-3.8-0.4-5.7
					c0-24.2,19.6-43.8,43.8-43.8C635.5,641.3,655.1,660.9,655.1,685.1L655.1,685.1z"/>
				<rect id="Rectangle_562" x="564" y="695.8" class="st3" width="94.7" height="35.6"/>
				<path id="Path_7247" class="st2" d="M232.4,690.6c0,1.9-0.1,3.8-0.4,5.7h-86.8c-0.3-1.9-0.4-3.8-0.4-5.7
					c0-24.2,19.6-43.8,43.8-43.8S232.4,666.4,232.4,690.6L232.4,690.6z"/>
				<rect id="Rectangle_563" x="141.3" y="701.3" class="st3" width="94.7" height="35.5"/>
				<path id="Path_7248" class="st4" d="M605.9,339.5c0,24.8-20.8,45.2-62.1,60.7c-59.5,22.4-141.3,26.3-144.7,26.5
					c-1.9-0.1-26.8-1.3-58.7-6c-1.7-0.2-3.4-0.5-5.2-0.8l-3.2-0.5c-4.5-0.7-9.2-1.5-14-2.4c-2.3-0.4-4.6-0.9-6.9-1.3l-4.7-0.9
					c-1.4-0.3-2.8-0.6-4.3-0.9c-2.8-0.6-5.5-1.2-8.3-1.9c-2.3-0.5-4.5-1.1-6.7-1.7c-1.7-0.4-3.5-0.9-5.2-1.4
					c-8.9-2.4-17.7-5.1-26-8.2c-51.4-19-71.8-45.3-60.5-78.3c8.4-24.4,16.5-48.1,23.9-70c56.1,21.9,119.2-5.9,141.1-61.9
					c10.2-26.3,9.9-55.5-1-81.6c4.2-0.5,8.4-1,12.7-1.7c17.9-2.6,36.1-2.6,54.1,0c4.8,0.7,9.6,1.3,14.3,1.9
					c-23.1,55.6,3.3,119.3,58.9,142.4c25.4,10.6,53.9,11.1,79.7,1.5c7.3,21.7,15.4,45.3,23.7,69.4
					C604.7,327.9,605.8,333.7,605.9,339.5z"/>
				<path id="Path_7249" class="st5" d="M18.9,371.9c-0.9-0.9-1.7-1.8-2.5-2.7C17.2,370.1,18.1,371,18.9,371.9z"/>
				<path id="Path_7250" class="st5" d="M18.1,411.7c0.3-0.4,0.6-0.7,1-1.1C18.7,411,18.4,411.3,18.1,411.7
					c-3.5,4.4-3.8,11.2-0.8,20c0.3,0.8,0.6,1.5,0.9,2.2c-0.3-0.7-0.6-1.5-0.9-2.2C14.3,422.9,14.6,416.2,18.1,411.7z"/>
				<path id="Path_7251" class="st5" d="M19.1,410.6c0.9-0.9,2-1.8,3.2-2.4C21.1,408.9,20,409.7,19.1,410.6z"/>
				<path id="Path_7252" class="st5" d="M21.8,374.6c2,1.8,4.2,3.7,6.6,5.6C26,378.4,23.8,376.5,21.8,374.6z"/>
				<path id="Path_7253" class="st5" d="M22.6,440.2c0.8,0.7,1.7,1.4,2.6,2C24.2,441.6,23.4,440.9,22.6,440.2z"/>
				<path id="Path_7254" class="st5" d="M30.2,381.7c2.5,1.9,5.2,3.9,8.2,5.9C35.5,385.6,32.7,383.6,30.2,381.7z"/>
				<path id="Path_7255" class="st5" d="M54.5,398.6c-0.3-0.8-0.9-1.5-1.7-2c-5.2-3-10.1-6-14.4-9c4.4,3,9.2,6,14.4,9
					C53.6,397,54.2,397.7,54.5,398.6z"/>
				<path id="Path_7256" class="st5" d="M94.3,307.4c0.4-0.5,0.7-1,1.2-1.4C95,306.4,94.6,306.9,94.3,307.4z"/>
				<path id="Path_7257" class="st5" d="M113.9,422.3c0.7-0.4,1.4-0.7,2-1C115.3,421.6,114.6,422,113.9,422.3z"/>
				<path id="Path_7258" class="st5" d="M115.9,421.3c1.1-0.6,2-1.1,2.7-1.5C117.9,420.2,117,420.7,115.9,421.3z"/>
				<path id="Path_7259" class="st5" d="M120,419c0.1-0.1,0.2-0.1,0.3-0.2C120.2,418.9,120.1,419,120,419l-1,0.5
					C119.5,419.3,119.8,419.1,120,419z"/>
				<path id="Path_7260" class="st5" d="M122.6,419c0.2,0.1,0.5,0.3,0.7,0.4C123.1,419.3,122.8,419.1,122.6,419
					c-0.6-0.3-1.3-0.4-1.9-0.2c-0.1,0-0.2,0.1-0.4,0.1c0.1-0.1,0.2-0.1,0.4-0.1C121.3,418.5,122,418.6,122.6,419z"/>
				<path id="Path_7261" class="st5" d="M123.7,419.6c1.1,0.7,2.4,1.4,3.8,2.2C126.1,421.1,124.9,420.3,123.7,419.6z"/>
				<path id="Path_7262" class="st5" d="M164.4,441.9c-4.9-2.5-9.5-4.9-13.8-7.2C154.9,437,159.5,439.4,164.4,441.9z"/>
				<path id="Path_7263" class="st5" d="M230.8,471c4.4,1.6,8.9,3.2,13.4,4.6C239.8,474.2,235.3,472.6,230.8,471z"/>
				<path id="Path_7264" class="st5" d="M251,477.8c13.4,4.2,27,7.5,40.8,9.9C278,485.3,264.4,482,251,477.8z"/>
				<path id="Path_7265" class="st5" d="M518.3,485.7c-3.4,0.7-6.8,1.4-10.2,1.9C511.5,487.1,514.9,486.4,518.3,485.7z"/>
				<path id="Path_7266" class="st5" d="M617.4,421.5c-2.3,1.1-4.6,2.2-6.9,3.4C612.8,423.8,615.1,422.7,617.4,421.5z"/>
				<path id="Path_7267" class="st5" d="M516.4,596.3c-2.6-0.8-5.3-1.5-7.9-2.2C511.2,594.7,513.8,595.5,516.4,596.3z"/>
				<path id="Path_7268" class="st5" d="M524.3,598.8c-2.5-0.9-5.1-1.7-7.6-2.5C519.3,597.1,521.8,597.9,524.3,598.8z"/>
				<path id="Path_7269" class="st5" d="M528.3,600.3c0.3,0.1,0.6,0.2,1,0.4c-0.7-0.3-1.5-0.6-2.2-0.8c-0.9-0.3-1.8-0.7-2.7-1
					C525.6,599.3,527,599.8,528.3,600.3z"/>
				<path id="Path_7270" class="st5" d="M533,602.1c0.5,0.2,1,0.4,1.5,0.6c0,0-0.1,0-0.1,0c-0.2-0.1-0.4-0.2-0.6-0.2
					c-0.9-0.4-1.8-0.7-2.7-1.1l-0.1,0c-0.6-0.2-1.2-0.5-1.8-0.7c1,0.4,2,0.8,3,1.1C532.5,601.9,532.8,602,533,602.1z"/>
				<path id="Path_7271" class="st5" d="M534.8,602.8c0.2,0.1,0.4,0.2,0.6,0.2C535.2,603,535,602.9,534.8,602.8
					c-0.1,0-0.2-0.1-0.3-0.1C534.6,602.7,534.7,602.8,534.8,602.8z"/>
				<path id="Path_7272" class="st5" d="M535.8,603.3C535.8,603.3,535.9,603.3,535.8,603.3L535.8,603.3L535.8,603.3z"/>
				<path id="Path_7273" class="st5" d="M537.1,603.8c0.5,0.2,1.1,0.5,1.6,0.7L537.1,603.8c-0.4-0.2-0.8-0.3-1.2-0.5
					C536.3,603.5,536.7,603.6,537.1,603.8z"/>
				<path id="Path_7274" class="st5" d="M540.4,605.3c0.8,0.4,1.6,0.8,2.3,1.1C541.9,606.1,541.2,605.7,540.4,605.3l-1.7-0.8
					C539.2,604.8,539.8,605.1,540.4,605.3z"/>
				<path id="Path_7275" class="st5" d="M551,611c-0.9-0.6-1.9-1.1-2.9-1.6l-1.3-0.7c0.5,0.2,1,0.5,1.5,0.8l0.9,0.5
					C549.8,610.3,550.4,610.6,551,611z"/>
				<path id="Path_7276" class="st5" d="M551.2,611.1l0.2,0.1L551,611L551.2,611.1z"/>
				<path id="Path_7277" class="st5" d="M554.4,613.1l0.2,0.1c-0.4-0.3-0.9-0.6-1.3-0.8c0.3,0.2,0.5,0.3,0.8,0.5
					C554.2,612.9,554.3,613,554.4,613.1z"/>
				<path id="Path_7278" class="st5" d="M556.4,614.4c-0.1-0.1-0.2-0.2-0.3-0.2c-0.4-0.3-0.8-0.5-1.2-0.8c0.4,0.2,0.8,0.5,1.2,0.8
					C556.2,614.3,556.3,614.4,556.4,614.4z"/>
				<path id="Path_7279" class="st5" d="M558.1,615.6c0,0,0.1,0,0.1,0.1c-0.2-0.1-0.4-0.3-0.6-0.4l0.2,0.1
					C557.9,615.4,558,615.5,558.1,615.6C558.1,615.5,558.1,615.5,558.1,615.6z"/>
				<path id="Path_7280" class="st5" d="M562.2,618.7c-0.7-0.5-1.3-1-2-1.5l-2-1.5c0.1,0.1,0.2,0.1,0.4,0.2c0.3,0.2,0.6,0.4,0.9,0.7
					s0.6,0.4,0.9,0.7C561,617.7,561.6,618.2,562.2,618.7z"/>
				<path id="Path_7281" class="st5" d="M566.2,622.2c-0.4-0.4-0.9-0.8-1.3-1.2c-0.1-0.1-0.2-0.2-0.3-0.3c0.2,0.2,0.4,0.4,0.7,0.6
					C565.6,621.5,565.9,621.8,566.2,622.2z"/>
				<path id="Path_7282" class="st5" d="M163.4,648.8c0.1-0.9,0.3-1.9,0.5-2.8C163.8,646.9,163.6,647.9,163.4,648.8L163.4,648.8z"/>
				<path id="Path_7283" class="st5" d="M163.9,646c0.3-1.8,0.7-3.7,1.2-5.5C164.7,642.3,164.3,644.2,163.9,646z"/>
				<path id="Path_7284" class="st5" d="M169.2,627.3c0.6-1.7,1.4-3.4,2.1-5.1C170.6,623.8,169.9,625.5,169.2,627.3z"/>
				<path id="Path_7285" class="st5" d="M207.9,645.8l0.4,0.2C208.2,645.9,208.1,645.9,207.9,645.8L207.9,645.8z"/>
				<path id="Path_7286" class="st5" d="M207.7,645.7c0,0,0.1,0,0.1,0.1c-0.2-0.1-0.5-0.2-0.7-0.3l-0.6-0.2c-0.1,0-0.2-0.1-0.3-0.1
					c-0.2-0.1-0.4-0.2-0.6-0.3c-0.4-0.1-0.7-0.2-1.1-0.4l-0.2-0.1c-0.6-0.2-1.2-0.4-1.9-0.6c0.6,0.2,1.1,0.3,1.6,0.5
					c0.2,0,0.3,0.1,0.5,0.2c0.7,0.3,1.5,0.5,2.2,0.8l0.2,0.1C207.2,645.5,207.5,645.6,207.7,645.7z"/>
				<path id="Path_7287" class="st5" d="M208.3,645.9c0.4,0.2,0.9,0.4,1.3,0.6c-0.3-0.2-0.7-0.3-1-0.4
					C208.4,646,208.3,646,208.3,645.9z"/>
				<path id="Path_7288" class="st5" d="M209.7,646.6c0.6,0.3,1.2,0.6,1.7,0.9l-0.6-0.3C210.5,647,210.1,646.8,209.7,646.6z"/>
				<path id="Path_7289" class="st5" d="M212.7,648.1c0.7,0.4,1.4,0.8,2.1,1.3c-0.6-0.4-1.1-0.7-1.7-1
					C212.9,648.3,212.8,648.2,212.7,648.1z"/>
				<path id="Path_7290" class="st5" d="M214.7,649.4c0.4,0.2,0.7,0.4,1.1,0.7C215.5,649.9,215.1,649.6,214.7,649.4L214.7,649.4z"/>
				<path id="Path_7291" class="st5" d="M215.8,650.1c0.6,0.4,1.2,0.8,1.8,1.3l0,0C217.1,651,216.5,650.5,215.8,650.1z"/>
				<path id="Path_7292" class="st5" d="M479.4,530.7c-0.2,1.4,0.8,2.6,2.2,2.8l0,0l-6.1,54.2h0c0.9,0.1,1.8,0.2,2.8,0.4
					c-0.9-0.1-1.9-0.3-2.8-0.4h0c-1.4-0.1-2.6,0.8-2.7,2.2c-0.1,1.3,0.8,2.5,2.1,2.7c20.4,2.8,52.4,9.2,75.8,24
					c-29.1,26.9-78.8,39.8-150.8,39.8c-69,0-117.6-11.8-147.1-36.5c23-13.2,52.8-19.2,72.1-21.8c1.4-0.2,2.3-1.5,2.1-2.8
					c-0.2-1.3-1.4-2.2-2.7-2.1l-6.1-54.3c1.4-0.2,2.3-1.4,2.1-2.8c-0.2-1.3-1.4-2.3-2.7-2.1c-30.2,3.5-66.8,11.5-97.5,29.3
					c-1.7-9.2-2.6-18.5-2.5-27.9c0.2-20.5,3.3-40.9,9-60.6c23,8.8,46.8,15.1,71.1,18.8c0.1,0,0.2,0,0.3,0c1.4,0,2.5-1.1,2.5-2.5
					c0-1.2-0.8-2.2-1.9-2.4l-0.2,0c-2.2-0.3-4.5-0.7-6.7-1c2.3,0.4,4.5,0.7,6.7,1l0.2,0l5.9-25.3c0.1,0,0.1,0,0.2,0
					c1.3,0.2,2.6-0.7,2.8-2.1c0,0,0,0,0-0.1c0.2-1.4-0.8-2.6-2.1-2.8c0,0,0,0,0,0c-22.8-3.6-45.2-9.6-66.7-17.9
					c5-11.8,10.8-23.4,17.3-34.5c3.8,1.4,7.7,2.7,11.6,3.9c1,0.3,2,0.6,3,0.9c0.4,0.1,0.7,0.2,1.1,0.3c0.9,0.3,1.8,0.6,2.7,0.8
					c5.2,1.5,10.5,2.9,15.8,4.2l2.9,0.7c1,0.2,2.1,0.5,3.1,0.7l3.1,0.7c17.8,3.9,35.4,6.7,50.7,8.8c0.9,0.1,1.7,0.2,2.6,0.3
					c2.6,0.3,5.1,0.6,7.5,0.9l4.1,0.5c2.6,0.3,5,0.5,7.3,0.8l3.1,0.3c1.7,0.2,3.3,0.3,4.9,0.5c1.1,0.1,2.2,0.2,3.3,0.3
					c0.8,0,1.5,0.1,2.3,0.2c0.9,0.1,1.8,0.1,2.6,0.2l1.8,0.2c0.8,0,1.6,0.1,2.4,0.1c4.4,0.3,6.9,0.4,7,0.4h0.2
					c0.1,0,1.6-0.1,4.3-0.2c0.6,0,1.1-0.1,1.8-0.1c4.6-0.3,11.5-0.8,20-1.6c1.3-0.1,2.5-0.2,3.9-0.4c1.5-0.1,3-0.3,4.6-0.5
					c0.8-0.1,1.6-0.2,2.4-0.3c1.1-0.1,2.1-0.2,3.2-0.4l2.5-0.3l5.2-0.6c1.8-0.2,3.6-0.5,5.4-0.7c0.9-0.1,1.8-0.2,2.8-0.4l2.8-0.4
					c1.9-0.3,3.8-0.6,5.7-0.9l2.9-0.4c2.5-0.4,5-0.8,7.6-1.3c0.4-0.1,0.9-0.1,1.3-0.2c3-0.5,6-1.1,9.1-1.7c1-0.2,2-0.4,3.1-0.6
					c1-0.2,2-0.4,3.1-0.6l9.3-2c3.1-0.7,6.2-1.4,9.3-2.2l9.5-2.5l2.8-0.8c1-0.3,2-0.6,3.1-0.9c1-0.3,2-0.6,3-0.9l10.6-3.4
					c0.8-0.3,1.6-0.5,2.3-0.8l2.9-1c6.6,11.3,12.5,23,17.6,35l0,0c-21.5,8.4-43.9,14.4-66.8,17.9c-1.4,0.2-2.3,1.4-2.1,2.8
					c0.2,1.4,1.4,2.3,2.8,2.1l0,0c0.1,0,0.1,0,0.2,0l0,0l5.9,25.3c0.1,0,0.1,0,0.2,0c2.2-0.3,4.5-0.6,6.7-1c-2.3,0.4-4.5,0.7-6.7,1
					l-0.2,0c-1.3,0.3-2.2,1.6-1.9,3c0.3,1.1,1.3,1.9,2.4,1.9c0.1,0,0.2,0,0.3,0c24.3-3.7,48.2-10,71.1-18.8
					c5.7,19.7,8.8,40.1,9,60.6c0,7.7-0.5,15.3-1.7,22.9c-30.9-18.1-67.9-26.3-98.4-29.8C480.9,528.3,479.6,529.2,479.4,530.7
					C479.4,530.6,479.4,530.6,479.4,530.7z"/>
				<path id="Path_7293" class="st5" d="M582.4,645.9L582.4,645.9L582.4,645.9c-1.4-4.1-3.3-7.9-5.7-11.5
					C579.1,638,581,641.9,582.4,645.9z"/>
				<path id="Path_7294" class="st5" d="M588,642.3c-0.1,0.1-0.2,0.1-0.3,0.2l-0.2,0.1C587.6,642.5,587.8,642.4,588,642.3z"/>
				<path id="Path_7295" class="st5" d="M592.4,640.2L592.4,640.2c-0.2,0-0.3,0.1-0.5,0.2C592.1,640.3,592.3,640.2,592.4,640.2z"/>
				<path id="Path_7296" class="st5" d="M598.5,638.1c0.1,0,0.2-0.1,0.3-0.1C598.7,638,598.6,638.1,598.5,638.1L598.5,638.1z"/>
				<path id="Path_7297" class="st5" d="M599.2,637.9C599.2,637.9,599.2,637.9,599.2,637.9L599.2,637.9L599.2,637.9z"/>
				<path id="Path_7298" class="st5" d="M599.7,637.8C599.7,637.8,599.7,637.8,599.7,637.8l-0.4,0.1
					C599.5,637.8,599.6,637.8,599.7,637.8C599.7,637.8,599.7,637.8,599.7,637.8z"/>
				<path id="Path_7299" class="st5" d="M600.1,637.7C600.1,637.7,600.1,637.7,600.1,637.7C600.1,637.7,600.1,637.7,600.1,637.7
					c-0.1,0-0.2,0-0.3,0.1l0,0C599.9,637.7,600,637.7,600.1,637.7z"/>
				<path id="Path_7300" class="st5" d="M600.3,637.6L600.3,637.6C600.3,637.6,600.2,637.6,600.3,637.6
					C600.2,637.6,600.3,637.6,600.3,637.6L600.3,637.6z"/>
				<path id="Path_7301" class="st5" d="M600.8,637.5l-0.4,0.1l0,0l0,0C600.5,637.6,600.7,637.5,600.8,637.5z"/>
				<path id="Path_7302" class="st5" d="M604.9,636.8c-1.2,0.2-2.5,0.4-3.7,0.6C602.4,637.2,603.6,636.9,604.9,636.8z"/>
				<path id="Path_7303" class="st5" d="M611.4,636.3c0.9,0,1.8,0,2.7,0.1c-0.3,0-0.6,0-0.9,0C612.6,636.4,612,636.4,611.4,636.3
					c-0.5,0-0.9,0-1.4,0c-0.1,0-0.3,0-0.4,0h-0.3c0.3,0,0.6,0,0.9,0C610.6,636.3,611,636.3,611.4,636.3z"/>
				<path id="Path_7304" class="st5" d="M615.5,636.5c-0.5,0-0.9-0.1-1.4-0.1c0,0,0.1,0,0.1,0C614.7,636.5,615.1,636.5,615.5,636.5z
					"/>
				<path id="Path_7305" class="st5" d="M607.4,636.5c-0.4,0-0.8,0.1-1.2,0.1c0.2,0,0.4-0.1,0.6-0.1L607.4,636.5z"/>
				<path id="Path_7306" class="st5" d="M618.4,636.9h0.1l-0.7-0.1L618.4,636.9z"/>
				<path id="Path_7307" class="st5" d="M618.5,636.9c1.4,0.2,2.7,0.4,4,0.8c-1-0.2-2.1-0.4-3.1-0.6l-0.3,0c-0.1,0-0.3-0.1-0.4-0.1
					L618.5,636.9z"/>
				<path id="Path_7308" class="st5" d="M627.7,639.1c-0.3-0.1-0.6-0.2-0.9-0.3l-0.2,0c-0.1,0-0.2-0.1-0.4-0.1
					C626.7,638.8,627.2,639,627.7,639.1z"/>
				<path id="Path_7309" class="st5" d="M633.1,641.4c-0.2-0.1-0.3-0.1-0.5-0.2l0.3,0.1C633,641.4,633,641.4,633.1,641.4z"/>
				<path id="Path_7310" class="st5" d="M632.3,641.1l-0.3-0.1L632.3,641.1C632.2,641,632.3,641,632.3,641.1z"/>
				<path id="Path_7311" class="st5" d="M636.6,643.4L636.6,643.4c-0.1,0-0.2-0.1-0.3-0.2c-0.3-0.2-0.6-0.4-0.9-0.5
					C635.8,642.9,636.2,643.1,636.6,643.4z"/>
				<path id="Path_7312" class="st5" d="M665.4,394.4C665.4,394.4,665.4,394.4,665.4,394.4L665.4,394.4l0,0.3
					C665.4,394.6,665.4,394.5,665.4,394.4z"/>
				<path id="Path_7313" class="st5" d="M665.4,394.2c0.2-1.5,1.1-9.7,3.3-20.8C666.6,384.4,665.6,392.6,665.4,394.2z"/>
				<path id="Path_7314" class="st5" d="M679.3,418.7c0.3,0.1,0.6,0.2,0.8,0.4C679.9,418.9,679.6,418.8,679.3,418.7z"/>
				<path id="Path_7315" class="st5" d="M697.1,427.9c1.6,0.8,3.3,1.6,5.1,2.4C700.4,429.5,698.7,428.7,697.1,427.9z"/>
				<g id="Group_9232" transform="translate(0.877 46.07)">
					<path id="Path_7322" class="st4" d="M303.8,417.3l-5.9,25.3l-0.2,0c-2.2-0.3-4.5-0.7-6.7-1c-13.8-2.4-27.5-5.7-40.8-9.9
						c-2.3-0.7-4.5-1.4-6.8-2.2c-4.5-1.5-9-3-13.4-4.6c-3.9-1.4-7.8-2.9-11.6-4.4c-1.4-0.5-2.8-1.1-4.2-1.7l-2.5-1
						c-15.4-6.2-29.9-13-42.8-19.4c-1.6-0.8-3.2-1.6-4.8-2.4c-0.2-0.1-0.3-0.2-0.5-0.3c-4.9-2.5-9.5-4.9-13.8-7.2
						c-2-1.1-3.9-2.1-5.7-3.1c-0.9-0.5-1.8-1-2.7-1.5c-0.4-0.2-0.9-0.5-1.3-0.7c-0.9-0.5-1.7-1-2.5-1.4c-0.3-0.2-0.6-0.3-0.8-0.5
						l-1.6-0.9l-0.2-0.1l-1.8-1c-0.8-0.5-1.7-0.9-2.5-1.4l-2-1.2c-0.7-0.4-1.3-0.8-1.9-1.1c-1.4-0.8-2.6-1.5-3.8-2.2
						c-0.1-0.1-0.3-0.2-0.4-0.2c-0.2-0.2-0.5-0.3-0.7-0.5c-0.6-0.3-1.3-0.4-1.9-0.3c-0.1,0-0.2,0.1-0.4,0.1l0,0
						c-0.1,0.1-0.2,0.1-0.3,0.2c-0.1,0.1-0.5,0.3-1,0.6c-0.1,0.1-0.2,0.1-0.4,0.2c-0.7,0.4-1.6,0.9-2.7,1.5l0,0
						c-0.6,0.3-1.3,0.7-2,1c-0.4,0.2-0.9,0.5-1.4,0.7l-1.5,0.8c-1.1,0.5-2.2,1.1-3.4,1.7l-1.9,0.9c-0.8,0.4-1.5,0.8-2.4,1.1
						c-5.7,2.7-12.4,5.8-19.5,8.6c-1,0.4-2,0.8-3.1,1.2c-1,0.4-2.1,0.8-3.2,1.1c-1.1,0.4-2.1,0.7-3.1,1.1
						c-16.3,5.5-33.5,8.9-45.2,4.5c-1.4-0.5-2.8-1.2-4.1-2c-0.9-0.6-1.8-1.3-2.6-2c-0.5-0.5-1-1-1.5-1.6c-0.5-0.6-0.9-1.1-1.3-1.7
						c-0.6-0.9-1.2-1.9-1.6-3c-0.3-0.7-0.6-1.4-0.9-2.2c-3-8.8-2.7-15.6,0.8-20c0.3-0.4,0.6-0.7,0.9-1.1c0.9-0.9,2-1.8,3.2-2.4
						c0.6-0.4,1.2-0.7,1.8-1c0.7-0.3,1.5-0.6,2.3-0.9c5.6-1.7,11.5-2.4,17.4-2c1.5,0,3,0.1,4.3,0.2l0,0c0.7,0.1,1.3,0.1,1.9,0.2
						c1.1,0.1,2.1-0.2,3-0.9c0.8-0.6,1.4-1.4,1.7-2.3c0,0,0-0.1,0-0.1c0.1-0.2,0.1-0.4,0.1-0.6c0-0.2,0.1-0.5,0.1-0.7
						c0-0.6-0.1-1.1-0.3-1.6c-0.3-0.8-0.9-1.5-1.7-2c-5.2-3-10.1-6-14.4-9c-2.9-2-5.6-3.9-8.2-5.9c-0.6-0.5-1.2-1-1.9-1.4
						c-2.4-1.9-4.6-3.8-6.6-5.6c-0.5-0.5-1-0.9-1.5-1.4c-0.5-0.4-0.9-0.9-1.4-1.4c-0.9-0.9-1.7-1.8-2.5-2.7s-1.5-1.7-2.2-2.6
						c-0.7-0.9-1.3-1.7-1.8-2.5c-2.8-3.4-4-7.9-3.5-12.2c0.4-1.7,1.1-3.4,2.2-4.9c0.3-0.5,0.7-0.9,1.1-1.4c1.1-1.1,2.3-2.1,3.7-2.8
						c0.9-0.5,1.9-0.9,2.8-1.3c13.1-4.9,35,0,49.8,11.1c1.6,1.2,3.7,1.7,5.7,1.3c0.5-0.1,1.1-0.3,1.6-0.4c1.1-0.4,2.1-1.1,3-1.9
						c0.3-0.3,0.6-0.6,0.8-0.9c1-1.3,1.7-2.8,2-4.4c0.6-3.3,1.2-6.5,1.9-9.5c0.2-1,0.4-1.9,0.7-2.9c0.1-0.5,0.2-1.1,0.4-1.6
						c0.2-1.1,0.5-2.1,0.8-3.1c0,0,0,0,0,0c0.3-1.2,0.7-2.4,1-3.6c0.2-0.6,0.4-1.2,0.5-1.8c0.2-0.6,0.3-1.1,0.5-1.7
						c1.5-5.2,3.8-10.2,6.7-14.7c0.4-0.5,0.7-1,1.2-1.4c0.2-0.2,0.4-0.4,0.6-0.6c0.2-0.2,0.4-0.4,0.6-0.5l0,0c0.3-0.2,0.6-0.4,1-0.6
						c0.4-0.3,0.9-0.5,1.4-0.6c2.3-0.2,4.5,0.7,5.9,2.6c0.2,0.1,0.3,0.3,0.5,0.5c0.7,0.8,1.4,1.6,2,2.5c2.8,3.8,5.2,7.7,7.3,11.9
						c1.1,2.1,2.2,4.3,3.1,6.6c2,4.5,3.7,9.2,5.3,13.9c4.9,15.1,8.4,30.6,10.6,46.3c0.1,0.6,0.2,1.2,0.2,1.7c0.1,0.5,0.1,1,0.2,1.5
						c0,0.2,0.1,0.5,0.1,0.7c0,0.4,0.1,0.8,0.1,1.1c0,0.1,0,0.3,0,0.4c0.1,0.7,0.1,1.1,0.1,1.1c0.1,0.8,0.5,1.5,1.2,1.9
						c3.6,2.1,8.5,5,14.5,8.3c0.2,0.1,0.4,0.2,0.6,0.4c2.8,1.5,5.8,3.2,9,4.9c0.1,0,0.2,0.1,0.3,0.1c2.7,1.4,5.5,2.9,8.4,4.4
						c0.2,0.1,0.4,0.2,0.6,0.3c1.3,0.7,2.7,1.4,4.1,2.1c0.2,0.1,0.5,0.2,0.7,0.4c3.3,1.7,6.7,3.4,10.2,5.1c1.8,0.9,3.6,1.7,5.4,2.6
						s3.7,1.7,5.5,2.6c2.8,1.3,5.7,2.6,8.6,3.9c1.9,0.9,3.9,1.7,5.9,2.6l3,1.3c3,1.3,6,2.6,9.1,3.8c1,0.4,2,0.8,3.1,1.3
						c2.1,0.8,4.1,1.6,6.2,2.5c0.4,0.2,0.9,0.3,1.3,0.5l1.9,0.7l0.5,0.2c0.8,0.3,1.5,0.6,2.3,0.9c1.2,0.4,2.4,0.9,3.5,1.3l3.2,1.1
						c1.1,0.4,2.1,0.8,3.2,1.1c3.7,1.3,7.5,2.6,11.2,3.7c1.1,0.4,2.2,0.7,3.3,1c3.3,1,6.6,2,9.8,2.8c1.1,0.3,2.1,0.6,3.2,0.9
						c3.7,1,7.4,1.9,11.2,2.7c1.1,0.2,2.1,0.5,3.2,0.7c1.1,0.2,2.1,0.5,3.2,0.7c1.1,0.2,2.1,0.4,3.2,0.6c0.8,0.1,1.6,0.3,2.4,0.4
						c0.6,0.1,1.1,0.2,1.7,0.3c0.7,0.1,1.5,0.2,2.2,0.3C301.7,417,302.8,417.2,303.8,417.3z"/>
					<path id="Path_7323" class="st4" d="M42.8,358.3c1.5,0,3,0.1,4.3,0.2C45.8,358.4,44.4,358.3,42.8,358.3z"/>
					<path id="Path_7324" class="st4" d="M49.1,358.7c0.6,0.1,1.2,0,1.8-0.2C50.3,358.7,49.7,358.8,49.1,358.7
						c-0.6-0.1-1.3-0.1-1.9-0.2C47.8,358.6,48.5,358.6,49.1,358.7z"/>
					<path id="Path_7325" class="st4" d="M50.9,358.5c0.4-0.1,0.8-0.4,1.2-0.6C51.7,358.1,51.3,358.3,50.9,358.5z"/>
					<path id="Path_7326" class="st4" d="M71.9,308c0.5,0,1,0,1.5-0.1C72.9,308,72.4,308,71.9,308z"/>
					<path id="Path_7327" class="st4" d="M67.8,306.6c1.2,0.9,2.6,1.4,4.1,1.4C70.4,308,69,307.5,67.8,306.6
						C53,295.5,31.1,290.6,18,295.5c-1,0.4-1.9,0.8-2.8,1.3c0.9-0.5,1.9-0.9,2.8-1.3C31.1,290.6,53,295.5,67.8,306.6z"/>
					<path id="Path_7328" class="st4" d="M106.5,263.2c2.7,3.8,5.2,7.7,7.3,11.9C111.7,270.9,109.2,266.9,106.5,263.2
						c-0.7-0.9-1.3-1.7-2.1-2.5C105.2,261.5,105.9,262.3,106.5,263.2z"/>
					<path id="Path_7329" class="st4" d="M116.9,281.6c2,4.5,3.8,9.2,5.3,13.9C120.7,290.8,118.9,286.1,116.9,281.6z"/>
					<path id="Path_7330" class="st4" d="M133.4,345.7c0,0.4,0.1,0.8,0.1,1.1C133.5,346.5,133.4,346.1,133.4,345.7z"/>
					<path id="Path_7331" class="st4" d="M134.9,350.3c3.6,2.1,8.5,5,14.5,8.3C143.4,355.2,138.5,352.4,134.9,350.3
						c-0.7-0.4-1.2-1.1-1.2-1.9c0,0,0-0.4-0.1-1.1c0.1,0.7,0.1,1.1,0.1,1.1C133.8,349.1,134.2,349.9,134.9,350.3z"/>
					<path id="Path_7332" class="st4" d="M150.1,358.9c2.8,1.5,5.8,3.1,9,4.9C155.9,362.1,152.9,360.5,150.1,358.9z"/>
					<path id="Path_7333" class="st4" d="M159.3,364c2.7,1.4,5.5,2.9,8.4,4.4C164.8,366.9,162,365.4,159.3,364z"/>
					<path id="Path_7334" class="st4" d="M173.1,371.2c3.3,1.7,6.7,3.4,10.2,5.1C179.8,374.5,176.4,372.8,173.1,371.2z"/>
					<path id="Path_7335" class="st4" d="M194.3,381.5c2.8,1.3,5.7,2.6,8.6,3.9C199.9,384.1,197,382.8,194.3,381.5z"/>
					<path id="Path_7336" class="st4" d="M230.1,396.8c1.1,0.4,2.1,0.8,3.2,1.2l-1.9-0.7C231,397.2,230.5,397,230.1,396.8z"/>
					<path id="Path_7337" class="st4" d="M233.7,398.2c1.9,0.7,3.9,1.5,5.8,2.2c-1.2-0.4-2.4-0.9-3.5-1.3
						C235.3,398.8,234.5,398.5,233.7,398.2z"/>
				</g>
				<g id="Group_9233" transform="translate(86.541 46.07)">
					<path id="Path_7338" class="st4" d="M704.7,308c0,0.3,0,0.7,0,1l-0.1,0.8c0,0.3-0.1,0.6-0.2,0.9v0c-0.1,0.3-0.1,0.5-0.2,0.8
						c-0.1,0.3-0.1,0.5-0.2,0.8c-0.1,0.3-0.2,0.5-0.3,0.7c-0.6,1.6-1.4,3.1-2.4,4.5c-0.2,0.3-0.4,0.6-0.7,1
						c-1.1,1.6-2.3,3.1-3.6,4.6c-0.3,0.3-0.6,0.7-0.9,1c-0.5,0.6-1,1.1-1.6,1.7c-0.2,0.2-0.4,0.5-0.7,0.7c-1.1,1.1-2.4,2.3-3.7,3.4
						c-1.1,0.9-2.1,1.9-3.3,2.8c-8.3,6.6-17,12.6-26.2,17.8c-0.2,0.1-0.4,0.2-0.6,0.4c0,0,0,0-0.1,0.1c-0.1,0.1-0.3,0.2-0.4,0.4
						c0,0,0,0.1-0.1,0.1c-0.1,0.1-0.2,0.3-0.3,0.5c-0.1,0.2-0.2,0.4-0.3,0.6c-0.1,0.2-0.1,0.3-0.2,0.5c-0.1,0.5-0.2,0.9-0.1,1.4
						c0,0.2,0.1,0.5,0.1,0.7c0,0.1,0,0.3,0.1,0.4c0.2,0.7,0.6,1.3,1.1,1.8c0.9,1,2.2,1.5,3.5,1.3c0.6-0.1,1.2-0.1,1.9-0.2
						c0.1,0,0.1,0,0.2,0c1.3-0.1,2.8-0.2,4.2-0.2s3,0,4.5,0c0.7,0,1.5,0,2.2,0.1c0.7,0.1,1.5,0.1,2.2,0.2l0,0
						c0.7,0.1,1.5,0.2,2.2,0.3c0.9,0.1,1.8,0.3,2.8,0.5c0.7,0.1,1.4,0.3,2.1,0.5c0.5,0.1,1,0.3,1.4,0.5c0.6,0.2,1.3,0.4,1.9,0.7
						c0.3,0.1,0.6,0.3,0.9,0.4c0.8,0.4,1.6,0.8,2.3,1.3c0.4,0.2,0.7,0.5,1,0.8l0,0c0.3,0.2,0.6,0.5,0.9,0.8c0.1,0.1,0.2,0.2,0.3,0.3
						c0.3,0.3,0.6,0.6,0.8,0.9c1,1.2,1.7,2.6,2.2,4.1c0.3,0.8,0.4,1.6,0.6,2.4c0.2,1.7,0.2,3.4,0,5.1c-0.1,0.8-0.2,1.7-0.4,2.6
						c-0.4,1.9-0.9,3.8-1.5,5.7c-0.1,0.4-0.3,0.8-0.4,1.1l0,0c-0.3,0.7-0.6,1.4-0.9,2.1l0,0c-0.3,0.5-0.5,1-0.8,1.5
						c-0.3,0.5-0.6,0.9-0.9,1.4c-0.4,0.6-0.9,1.1-1.4,1.6c-0.3,0.3-0.7,0.7-1,1c-0.2,0.2-0.4,0.3-0.6,0.5c-0.3,0.2-0.6,0.5-0.9,0.7
						c-0.4,0.3-0.8,0.6-1.2,0.8l-0.6,0.3c-0.1,0-0.1,0.1-0.2,0.1c-0.3,0.2-0.6,0.3-0.9,0.4c-0.7,0.3-1.4,0.6-2.1,0.9
						c-4,1.4-8.3,2.1-12.6,2c-0.6,0-1.1,0-1.7,0c-0.6,0-1,0-1.6-0.1c-0.5,0-1.2-0.1-1.9-0.1c-0.4,0-0.9-0.1-1.3-0.1
						c-6.4-0.7-12.7-2.1-18.9-3.9c-0.6-0.2-1.3-0.4-1.9-0.6c-0.6-0.2-1.3-0.4-1.9-0.6c-1-0.3-2.1-0.7-3.2-1c-3.7-1.2-7.3-2.6-10.9-4
						l-3-1.2c-2-0.8-3.9-1.6-5.8-2.5c-0.9-0.4-1.8-0.8-2.7-1.2c-0.4-0.2-0.9-0.4-1.3-0.6c-1.8-0.8-3.5-1.6-5.1-2.4l0,0
						c-0.8-0.4-1.6-0.8-2.4-1.1l-2.2-1.1c-6.8-3.4-11.5-6-12.4-6.6c-0.2-0.2-0.5-0.3-0.8-0.4c-0.3-0.1-0.6-0.1-1-0.1
						c-0.1,0-0.2,0-0.3,0.1c-0.2,0-0.4,0.1-0.6,0.2c-4.4,2.6-10.9,6.5-19.1,10.9l-2.9,1.6c-7.9,4.3-17.1,9.1-27.3,14.2l-3.6,1.8
						c-4.5,2.2-9.2,4.4-14.1,6.6c-1,0.4-2,0.9-3,1.4c-3,1.4-6.1,2.7-9.2,4c-0.6,0.3-1.2,0.5-1.9,0.8c-2.4,1-4.8,2-7.2,3
						c-1.4,0.6-2.8,1.1-4.2,1.7s-2.8,1.1-4.2,1.7c-0.6,0.2-1.1,0.4-1.7,0.7c-1.9,0.7-3.8,1.5-5.7,2.2c-2.5,0.9-5,1.8-7.5,2.7
						c-2.9,1-5.8,2-8.7,3l-2.7,0.9c-1.4,0.5-2.8,0.9-4.2,1.3c-6.1,1.9-12.2,3.6-18.3,5.2c-2.3,0.6-4.5,1.1-6.8,1.7
						c-1.1,0.3-2.3,0.5-3.4,0.8c-1.1,0.2-2.3,0.5-3.4,0.7c-3.4,0.7-6.8,1.3-10.2,1.9c-2.3,0.4-4.5,0.7-6.7,1c-0.1,0-0.1,0-0.2,0
						l-5.9-25.3c1.1-0.1,2.1-0.3,3.1-0.5c0.7-0.1,1.5-0.2,2.2-0.3s1.4-0.2,2.2-0.4c1.2-0.2,2.4-0.4,3.6-0.7c1-0.2,2.1-0.4,3.1-0.6
						c1-0.2,2.2-0.4,3.4-0.7c4.2-0.9,8.5-1.9,12.7-3.1c1.1-0.3,2.3-0.6,3.4-0.9c1.6-0.4,3.2-0.9,4.7-1.3c0,0,0.1,0,0.1,0
						c1.6-0.5,3.2-0.9,4.9-1.5c1-0.3,2-0.6,3-0.9c1.5-0.5,3-0.9,4.5-1.4c0.8-0.3,1.6-0.5,2.4-0.8c0.6-0.2,1.2-0.4,1.8-0.6
						c5.2-1.8,10.3-3.6,15.4-5.6l3-1.1l2.3-0.9c1.4-0.5,2.7-1.1,4.1-1.6c8.3-3.3,16.3-6.8,23.9-10.3c1.5-0.7,3-1.4,4.4-2
						c0.9-0.4,1.8-0.8,2.7-1.3c0.6-0.3,1.2-0.6,1.8-0.8c0.8-0.3,1.5-0.7,2.3-1.1c2.4-1.1,4.7-2.2,6.9-3.4c2.4-1.2,4.8-2.4,7.1-3.5
						c1.1-0.6,2.3-1.1,3.4-1.7l0.6-0.3c1.6-0.8,3.2-1.6,4.7-2.4c12.3-6.4,22.2-12.1,28.8-15.9l2.3-1.3c0.4-0.2,0.7-0.5,0.9-0.9
						c0.1-0.1,0.2-0.3,0.2-0.4c0-0.1,0.1-0.2,0.1-0.3l0-0.3v-0.1c0-0.1,0-0.1,0-0.2c0.2-1.5,1.1-9.7,3.3-20.8
						c0.1-0.4,0.2-0.8,0.2-1.3c0.2-1.1,0.4-2.1,0.7-3.2c0.4-2.1,0.9-4.2,1.4-6.4c0.4-1.6,0.8-3.2,1.2-4.8c0.7-2.9,1.6-5.9,2.5-8.9
						c0.2-0.7,0.5-1.5,0.7-2.3c0.5-1.6,1-3.2,1.5-4.8c0.3-0.9,0.6-1.9,1-2.8c0.4-1.1,0.7-2.1,1.1-3.2c0.4-0.9,0.7-1.9,1.1-2.8
						c0-0.1,0.1-0.2,0.1-0.3c0.3-0.6,0.5-1.3,0.8-2c0-0.1,0.1-0.2,0.1-0.3c0.3-0.6,0.5-1.3,0.8-1.9c1.8-4.3,3.9-8.5,6.3-12.5
						c0.4-0.7,0.8-1.3,1.2-2c0.6-1,1.2-1.9,1.9-2.8c0.4-0.6,0.9-1.2,1.3-1.8c3.2-4.2,6-6.1,8.4-5.5c0.4,0.1,0.8,0.2,1.2,0.4
						c0.5,0.3,0.9,0.6,1.3,0.9c0.2,0.2,0.4,0.4,0.7,0.6c0.2,0.2,0.4,0.4,0.6,0.7l0,0c2.5,3.2,4.4,6.8,5.8,10.6
						c0.6,1.6,1.2,3.3,1.8,5.2c1.2,3.8,2.4,8.2,3.6,13.1c0.8,3.5,1.5,7.2,2.3,11.1c0.1,0.8,0.4,1.6,0.7,2.3c0.5,1.1,1.2,2.1,2.1,2.9
						c0.2,0.2,0.4,0.4,0.7,0.6c0.5,0.4,1,0.7,1.5,1l0,0c0.3,0.1,0.5,0.3,0.8,0.4c0.5,0.2,1,0.3,1.5,0.4c0.7,0.1,1.4,0.2,2,0.1
						c0.2,0,0.4,0,0.6-0.1c0.4-0.1,0.8-0.1,1.1-0.3c0.2,0,0.3-0.1,0.5-0.2c0.2-0.1,0.4-0.2,0.6-0.3c0.3-0.2,0.7-0.4,1-0.6
						c1.4-1,2.8-2,4.3-2.9c0.6-0.4,1.1-0.7,1.8-1.1c0.3-0.2,0.7-0.4,1.1-0.6c0.4-0.2,0.7-0.4,1.1-0.6c0.4-0.2,0.8-0.4,1.2-0.6
						c3-1.5,6.2-2.8,9.4-3.9c0.7-0.2,1.4-0.5,2.2-0.7h0c0.7-0.2,1.3-0.4,2-0.6c0,0,0,0,0.1,0c0.4-0.1,0.8-0.2,1.3-0.3
						c0.1,0,0.2,0,0.2,0c0.7-0.2,1.4-0.3,2.1-0.5c0.4-0.1,0.7-0.2,1.1-0.2l0.8-0.1c0.5-0.1,0.9-0.2,1.4-0.2c0.4-0.1,0.9-0.1,1.4-0.2
						c0.9-0.1,1.8-0.2,2.7-0.3c0.9-0.1,1.8-0.1,2.7-0.1c4.5-0.2,8.9,0.4,13.1,1.9c1,0.4,1.9,0.8,2.8,1.3c1.4,0.7,2.7,1.7,3.7,2.8
						c0.4,0.4,0.8,0.9,1.1,1.4c1,1.5,1.8,3.1,2.2,4.9C704.7,306.5,704.8,307.2,704.7,308z"/>
					<path id="Path_7339" class="st4" d="M615.7,258.1c0.5,0.2,0.9,0.5,1.3,0.9C616.6,258.6,616.2,258.3,615.7,258.1z"/>
					<path id="Path_7340" class="st4" d="M618.4,260.3c2.5,3.2,4.4,6.8,5.8,10.6C622.8,267.1,620.8,263.5,618.4,260.3z"/>
					<path id="Path_7341" class="st4" d="M624.1,270.9c0.6,1.6,1.2,3.3,1.8,5.2C625.4,274.2,624.8,272.5,624.1,270.9z"/>
					<path id="Path_7342" class="st4" d="M631.8,300.2c0.1,0.8,0.4,1.6,0.7,2.3C632.2,301.8,631.9,301,631.8,300.2
						c-0.7-3.9-1.5-7.6-2.3-11.1C630.3,292.6,631.1,296.3,631.8,300.2z"/>
					<path id="Path_7343" class="st4" d="M641.1,308c-0.7,0.1-1.4,0-2-0.1C639.7,308,640.4,308,641.1,308z"/>
					<path id="Path_7344" class="st4" d="M644.8,306.6c1.4-1,2.8-2,4.3-2.9C647.6,304.6,646.2,305.5,644.8,306.6
						c-0.3,0.2-0.6,0.4-1,0.6C644.2,307,644.5,306.8,644.8,306.6z"/>
					<path id="Path_7345" class="st4" d="M658.9,355.5c0.2,0.7,0.6,1.3,1.1,1.9C659.4,356.9,659.1,356.2,658.9,355.5
						c-0.1-0.1-0.1-0.2-0.1-0.4C658.8,355.3,658.8,355.4,658.9,355.5z"/>
					<path id="Path_7346" class="st4" d="M665.4,358.5c-0.6,0-1.3,0.1-1.9,0.2c-1.3,0.1-2.6-0.4-3.5-1.3c0.9,1,2.2,1.5,3.5,1.3
						C664.1,358.6,664.7,358.6,665.4,358.5z"/>
					<path id="Path_7347" class="st4" d="M669.8,358.3c-1.5,0-2.9,0.1-4.2,0.2C666.8,358.4,668.3,358.3,669.8,358.3z"/>
					<path id="Path_7348" class="st4" d="M694.6,295.5c-4.2-1.4-8.7-2.1-13.1-1.9C685.9,293.4,690.4,294,694.6,295.5
						c1,0.3,1.9,0.8,2.8,1.3C696.5,296.3,695.6,295.8,694.6,295.5z"/>
					<path id="Path_7349" class="st4" d="M696.2,385.6c0.6-1.9,1.2-3.8,1.5-5.7C697.3,381.8,696.8,383.8,696.2,385.6
						c-0.1,0.4-0.2,0.8-0.4,1.1C695.9,386.4,696,386,696.2,385.6z"/>
					<path id="Path_7350" class="st4" d="M698.1,372.2c-0.1-0.8-0.3-1.6-0.6-2.4C697.7,370.6,697.9,371.4,698.1,372.2z"/>
					<path id="Path_7351" class="st4" d="M697.7,379.9c0.2-0.9,0.3-1.8,0.4-2.6C698,378.2,697.9,379.1,697.7,379.9z"/>
				</g>
				<g id="Group_9234" transform="translate(28.112 87.487)">
					<path id="Path_7352" class="st4" d="M296.4,505.6L296.4,505.6c-1.5,0.2-3.1,0.4-4.7,0.7l-4,0.6c-1,0.2-2.1,0.4-3.1,0.5
						c-2.6,0.5-5.4,1-8.2,1.6c-0.8,0.2-1.7,0.4-2.5,0.5c-3.7,0.8-7.5,1.7-11.4,2.7c-0.8,0.2-1.6,0.4-2.4,0.6
						c-0.7,0.2-1.4,0.4-2.1,0.6s-1.3,0.4-2,0.6l-3.5,1.1c-0.8,0.2-1.6,0.5-2.4,0.8c-0.7,0.2-1.3,0.4-2,0.7c-1.2,0.4-2.4,0.8-3.6,1.3
						c-0.1,0-0.3,0.1-0.5,0.2c-1,0.4-2.1,0.8-3.1,1.2s-2.1,0.8-3.1,1.2l-2.2,0.9c-1,0.4-2,0.9-3,1.3c-0.7,0.3-1.5,0.7-2.2,1
						c-0.8,0.4-1.7,0.8-2.5,1.2c-0.5,0.3-1,0.5-1.6,0.8c-1.5,0.8-3.1,1.6-4.5,2.5c-0.3,0.1-0.6,0.3-0.8,0.5l-0.6,0.4
						c-0.6,0.3-1.1,0.6-1.7,1c-0.6,0.3-1,0.6-1.5,1c-0.2,0.1-0.4,0.2-0.6,0.4c-0.3,0.2-0.6,0.4-1,0.7c-0.7,0.5-1.4,1-2.1,1.5
						c-0.5,0.3-0.9,0.6-1.4,1c-0.3,0.2-0.6,0.5-1,0.7c-0.5,0.4-1,0.7-1.4,1.1c-0.5,0.4-0.9,0.7-1.4,1.1c-0.5,0.4-0.9,0.8-1.4,1.2
						c-0.9,0.8-1.8,1.6-2.6,2.5c-0.4,0.4-0.9,0.8-1.3,1.3c-0.8,0.8-1.7,1.7-2.4,2.6c-0.4,0.4-0.8,0.9-1.1,1.3
						c-0.3,0.4-0.8,0.9-1.1,1.4c-0.7,0.9-1.4,1.9-2.1,2.8c-0.4,0.5-0.7,1-1,1.5s-0.6,0.9-0.8,1.4c-0.5,0.8-0.9,1.6-1.4,2.4
						c-0.2,0.4-0.4,0.8-0.6,1.2c-0.5,1-1,2.1-1.5,3.2c-0.2,0.5-0.4,0.9-0.6,1.4c-0.2,0.6-0.5,1.3-0.7,1.9c-0.6-0.4-1.2-0.9-1.8-1.3
						c-0.4-0.3-0.7-0.5-1.1-0.7c-0.7-0.5-1.4-0.9-2.1-1.3c-0.4-0.2-0.8-0.4-1.2-0.6c-0.6-0.3-1.1-0.6-1.7-0.9c0,0-0.1-0.1-0.2-0.1
						c-0.4-0.2-0.8-0.4-1.3-0.6c-1.9-0.8-3.8-1.5-5.8-2.1c-0.3-0.1-0.6-0.2-0.9-0.3c-0.6-0.2-1.1-0.3-1.7-0.4
						c-0.6-0.1-1.2-0.3-1.8-0.4c-0.5-0.1-0.9-0.2-1.4-0.2c-1.2-0.2-2.5-0.4-3.7-0.5c-0.7-0.1-1.5-0.1-2.2-0.1c-0.7,0-1.5,0-2.2,0
						c-0.4,0-0.9,0-1.3,0c-0.3,0-0.6,0-0.9,0c0,0,0,0,0,0l0,0c-0.1,0-0.1,0-0.2,0c-0.3,0-0.6,0-0.9,0c-0.5,0-1,0.1-1.6,0.1
						c-1.1,0.1-2.1,0.2-3.1,0.4c-0.5,0.1-1,0.2-1.6,0.3c-0.2,0-0.4,0.1-0.6,0.1c-0.5,0.1-0.9,0.2-1.4,0.3s-0.9,0.2-1.3,0.3
						c-0.3,0.1-0.7,0.2-1,0.3l-0.2,0l-0.1,0c-0.4,0.1-0.8,0.2-1.2,0.4c-0.3,0.1-0.6,0.2-0.8,0.3c-0.5,0.2-1,0.4-1.5,0.6
						c-0.5,0.2-1,0.4-1.5,0.6c-0.4,0.2-0.7,0.3-1.1,0.5c-0.3,0.1-0.6,0.2-0.8,0.4c-0.4,0.2-0.9,0.4-1.3,0.7s-0.8,0.4-1.1,0.6
						c-0.5,0.3-1,0.6-1.4,0.8c0.1-0.9,0.3-1.9,0.5-2.8c0.3-1.8,0.7-3.7,1.2-5.5c0.2-0.9,0.4-1.8,0.7-2.7c0.5-1.8,1-3.6,1.6-5.3
						c0.3-0.9,0.6-1.8,0.9-2.6c0.3-0.9,0.6-1.7,1-2.6c0.7-1.7,1.4-3.4,2.1-5.1c0.4-0.9,0.8-1.8,1.2-2.7c0.4-0.8,0.8-1.6,1.1-2.3
						c0.7-1.4,1.5-2.9,2.3-4.3c0.3-0.6,0.7-1.2,1-1.8c0.3-0.5,0.6-0.9,0.8-1.4c0.4-0.7,0.9-1.5,1.4-2.2c1.1-1.7,2.2-3.3,3.4-4.9
						c0.5-0.7,1-1.4,1.6-2.1c0.1-0.2,0.2-0.3,0.3-0.4c0.5-0.7,1.1-1.3,1.6-2c0.4-0.6,0.9-1.1,1.3-1.6s1-1.2,1.5-1.8
						c0.3-0.4,0.7-0.8,1-1.1c0.7-0.8,1.4-1.5,2.1-2.2c0.6-0.6,1.2-1.3,1.8-1.9c0.8-0.8,1.6-1.5,2.4-2.3s1.6-1.5,2.4-2.2
						c0.8-0.7,1.8-1.6,2.7-2.3c0.6-0.6,1.3-1.1,2-1.6c0.7-0.5,1.3-1.1,2-1.6c0.4-0.3,0.7-0.6,1.1-0.8c0.8-0.6,1.7-1.3,2.5-1.9
						c1.8-1.3,3.6-2.6,5.4-3.8c0.9-0.6,1.8-1.2,2.8-1.8l0,0c1.4-0.9,2.9-1.8,4.4-2.7c0.5-0.3,1.1-0.6,1.6-0.9
						c1.3-0.8,2.7-1.5,4.1-2.3c0.6-0.3,1.2-0.6,1.8-0.9c0.4-0.2,0.8-0.4,1.1-0.6c1-0.5,2-1,3.1-1.5c0.9-0.4,1.8-0.9,2.7-1.3
						c0.4-0.2,0.8-0.4,1.2-0.6l2.1-0.9l3-1.3c1-0.4,2.1-0.9,3.1-1.3c2-0.8,4.1-1.6,6.2-2.4c0.8-0.3,1.5-0.6,2.3-0.8
						c0.1,0,0.1-0.1,0.2-0.1c0.8-0.3,1.6-0.6,2.4-0.8c0.1-0.1,0.3-0.1,0.4-0.1c0.4-0.1,0.8-0.3,1.2-0.4c0.1,0,0.1-0.1,0.2-0.1
						c0.6-0.2,1.3-0.4,1.9-0.6c0.3-0.1,0.6-0.2,1-0.3c0.8-0.2,1.5-0.5,2.3-0.7c2.3-0.7,4.6-1.4,6.9-2c1.2-0.3,2.5-0.7,3.7-1
						c1.5-0.4,2.9-0.8,4.4-1.1c0.7-0.2,1.5-0.4,2.2-0.5c0.7-0.2,1.5-0.3,2.2-0.5c2.1-0.5,4.1-0.9,6.2-1.4c1-0.2,2-0.4,3.1-0.6
						c1-0.2,2-0.4,3.1-0.6l2-0.4c0.6-0.1,1.1-0.2,1.7-0.3c0.8-0.1,1.6-0.3,2.4-0.4c6-1,11.9-1.8,17.5-2.5L296.4,505.6z"/>
					<path id="Path_7353" class="st4" d="M146.4,556.4l0.2,0l-0.3,0.1L146.4,556.4z"/>
					<path id="Path_7354" class="st4" d="M186.2,485.3c0.9-0.6,1.8-1.2,2.8-1.8l0,0C188,484.1,187.1,484.7,186.2,485.3z"/>
					<path id="Path_7355" class="st4" d="M195.2,552.4c0.3-0.5,0.6-1,1-1.5C195.8,551.4,195.5,551.9,195.2,552.4
						c-0.3,0.5-0.6,0.9-0.8,1.4C194.6,553.2,194.9,552.8,195.2,552.4z"/>
					<path id="Path_7356" class="st4" d="M216.6,531.6c0.2-0.1,0.4-0.2,0.6-0.4c-0.5,0.3-1.1,0.7-1.5,1
						C215.9,532,216.2,531.8,216.6,531.6z"/>
					<path id="Path_7357" class="st4" d="M218.7,530.3c0.6-0.3,1.1-0.7,1.7-1c-1.1,0.6-2.1,1.3-3.2,2
						C217.6,530.9,218.2,530.6,218.7,530.3z"/>
					<path id="Path_7358" class="st4" d="M220.9,528.9c0.3-0.2,0.6-0.3,0.8-0.5c-0.5,0.3-0.9,0.6-1.4,0.8
						C220.5,529.1,220.7,529,220.9,528.9z"/>
					<path id="Path_7359" class="st4" d="M235,462.7c2.3-0.7,4.6-1.4,6.9-2C239.6,461.3,237.3,462,235,462.7z"/>
				</g>
				<g id="Group_9235" transform="translate(83.059 86.524)">
					<path id="Path_7360" class="st4" d="M553.5,556.8c-0.4-0.2-0.8-0.5-1.1-0.7c-0.5-0.3-1-0.6-1.5-0.8c-0.2-0.1-0.4-0.2-0.7-0.3
						c-0.1,0-0.1-0.1-0.2-0.1c-0.1,0-0.1-0.1-0.2-0.1l-0.3-0.1c0,0,0,0,0,0c0,0-0.1,0-0.1,0c0,0-0.1-0.1-0.1-0.1c0,0,0,0-0.1,0
						c-0.5-0.2-1-0.5-1.5-0.7c0,0-0.1-0.1-0.1,0c-0.6-0.3-1.3-0.6-2-0.8c-0.3-0.1-0.5-0.2-0.8-0.3c-0.1,0-0.1,0-0.2-0.1
						c-0.5-0.2-0.9-0.3-1.4-0.5c-0.2-0.1-0.4-0.1-0.7-0.2c-0.2-0.1-0.4-0.1-0.5-0.1c-0.3-0.1-0.6-0.2-0.9-0.3
						c-0.3-0.1-0.5-0.1-0.8-0.2c-0.3-0.1-0.5-0.1-0.8-0.2c-1.7-0.4-3.4-0.7-5.1-0.9c0,0-0.1,0-0.1,0l-0.4,0l-0.6,0
						c-0.3,0-0.6-0.1-0.9-0.1c-0.4-0.1-0.8-0.1-1.2-0.1c0,0-0.1,0-0.2,0c-0.9-0.1-1.8-0.1-2.7-0.1c-0.4,0-0.8,0-1.2,0
						c-0.4,0-0.9,0-1.4,0l0,0c-0.1,0-0.1,0-0.2,0c-0.6,0-1.2,0.1-1.9,0.1c-0.2,0-0.4,0-0.6,0.1c-0.4,0-0.8,0.1-1.3,0.1
						c-1.2,0.1-2.5,0.4-3.7,0.6c-0.1,0-0.2,0-0.4,0.1c-0.1,0-0.2,0-0.4,0.1l0,0l0,0c0,0,0,0,0,0h0l0,0l0,0c0,0,0,0,0,0
						c0,0-0.1,0-0.1,0c0,0,0,0,0,0c0,0,0,0,0,0c-0.1,0-0.2,0-0.3,0.1h0h0c0,0,0,0-0.1,0c-0.1,0-0.2,0-0.3,0.1c0,0-0.1,0-0.1,0h0h0
						c0,0-0.1,0-0.1,0c0,0,0,0,0,0c-0.1,0-0.1,0-0.2,0l0,0h0c-0.1,0-0.2,0-0.3,0.1c-0.6,0.2-1.2,0.3-1.8,0.6c-0.5,0.1-1,0.3-1.4,0.5
						c-0.5,0.1-0.9,0.3-1.4,0.5c-0.5,0.2-0.9,0.3-1.4,0.6c-0.1,0.1-0.3,0.1-0.5,0.2c0,0,0,0,0,0c-0.8,0.3-1.6,0.7-2.4,1.1
						c-0.2,0.1-0.3,0.1-0.5,0.2c-0.3,0.1-0.6,0.3-0.8,0.4c-0.1,0-0.2,0.1-0.3,0.2c-0.2,0.1-0.4,0.2-0.5,0.3
						c-0.1,0.1-0.3,0.1-0.4,0.2c-0.4,0.2-0.9,0.5-1.3,0.8c-0.1,0.1-0.2,0.1-0.3,0.2c-0.9,0.5-1.7,1.1-2.5,1.7l-0.5,0.4
						c-1.4-4.1-3.3-7.9-5.7-11.5l0,0c-0.6-0.9-1.2-1.8-1.8-2.6c-0.3-0.4-0.6-0.9-1-1.3c-0.3-0.4-0.6-0.8-1-1.3
						c-0.3-0.4-0.7-0.8-1-1.2c-0.7-0.8-1.4-1.6-2.2-2.4c-0.4-0.4-0.7-0.8-1.1-1.1c-0.4-0.4-0.7-0.7-1.1-1.1l0,0
						c-0.2-0.2-0.4-0.4-0.6-0.5c-0.2-0.2-0.4-0.4-0.6-0.6c0,0-0.1-0.1-0.1-0.1c-0.3-0.3-0.6-0.6-1-0.9c-0.2-0.2-0.4-0.4-0.7-0.6
						c-0.1-0.1-0.2-0.2-0.3-0.3c-0.3-0.3-0.7-0.6-1-0.8c-0.4-0.3-0.7-0.6-1-0.9l0,0h0c-0.6-0.5-1.2-1-1.8-1.4
						c-0.3-0.2-0.6-0.5-0.9-0.7c-0.3-0.2-0.6-0.5-0.9-0.7c-0.2-0.1-0.3-0.2-0.5-0.3c0,0,0,0-0.1,0c-0.6-0.4-1.3-0.9-1.9-1.3
						c-0.6-0.4-1.1-0.8-1.7-1.1c-0.1-0.1-0.2-0.1-0.3-0.2c-0.9-0.6-1.9-1.2-2.8-1.8c-0.9-0.6-1.9-1.1-2.9-1.7
						c-1.1-0.7-2.3-1.3-3.5-1.9c-0.7-0.4-1.4-0.7-2-1l0,0c-0.8-0.4-1.6-0.8-2.3-1.1c-0.6-0.3-1.1-0.5-1.7-0.8
						c-0.6-0.3-1.1-0.5-1.6-0.7c-0.4-0.2-0.8-0.4-1.3-0.6l0,0c-0.1,0-0.1-0.1-0.2-0.1c-0.1,0-0.2-0.1-0.2-0.1
						c-0.2-0.1-0.4-0.2-0.6-0.2c-0.1-0.1-0.2-0.1-0.3-0.1c-0.5-0.2-1-0.4-1.5-0.6c-0.2-0.1-0.5-0.2-0.7-0.3c-1-0.4-2-0.8-3-1.1
						c-0.3-0.1-0.6-0.3-1-0.4c-1.3-0.5-2.6-1-3.9-1.4c-2.5-0.9-5.1-1.7-7.6-2.5c-0.1,0-0.2-0.1-0.3-0.1c-2.6-0.8-5.3-1.5-7.9-2.2
						c-1.4-0.4-2.8-0.7-4.1-1c-2.1-0.5-4.1-1-6.1-1.4c-0.8-0.2-1.7-0.4-2.5-0.5l-0.2,0c-0.8-0.2-1.6-0.3-2.4-0.5
						c-1.4-0.3-2.8-0.6-4.2-0.8c-1.1-0.2-2.1-0.4-3.2-0.6c-0.3,0-0.5-0.1-0.8-0.1c-0.8-0.1-1.5-0.2-2.3-0.4c-0.5-0.1-1-0.2-1.5-0.2
						c-1-0.2-2-0.3-2.9-0.4l0,0c-0.9-0.1-1.9-0.3-2.8-0.4h0l6.1-54.3l2.8,0.3l2.9,0.4c2.5,0.3,4.9,0.7,7.4,1.1l3.8,0.6l3.8,0.7
						c3.1,0.5,6.2,1.1,9.3,1.8c1.6,0.3,3.1,0.7,4.7,1s3.2,0.7,4.7,1.1c2.1,0.5,4.2,1.1,6.3,1.6c1.1,0.3,2.1,0.6,3.2,0.9
						s2.1,0.6,3.2,0.9c1.2,0.4,2.4,0.7,3.7,1.1c0.6,0.2,1.3,0.4,1.9,0.6c0,0,0.1,0,0.1,0c1.2,0.4,2.3,0.7,3.5,1.1
						c2.7,0.9,5.4,1.9,8.1,2.9c0.8,0.3,1.7,0.6,2.5,1c0.9,0.4,1.8,0.7,2.8,1.1c0.9,0.4,1.7,0.7,2.5,1.1c0.4,0.2,0.9,0.4,1.3,0.6
						c0.4,0.2,0.9,0.4,1.3,0.6c0.6,0.2,1.1,0.5,1.7,0.8c1,0.5,2,0.9,3,1.4c0.8,0.4,1.6,0.8,2.4,1.1c0.8,0.4,1.6,0.8,2.3,1.2
						s1.7,0.9,2.5,1.3c1,0.6,2.1,1.1,3.1,1.8c1,0.6,1.9,1.1,2.9,1.7c0.1,0,0.2,0.1,0.2,0.1l0,0c0.1,0.1,0.3,0.1,0.4,0.2l0,0
						c0.4,0.2,0.7,0.4,1,0.6c0.3,0.2,0.6,0.4,0.8,0.5l1.1,0.7c0.4,0.2,0.7,0.5,1.1,0.7c1.1,0.7,2.2,1.5,3.3,2.2
						c1.1,0.7,2.2,1.5,3.3,2.3c0.1,0.1,0.2,0.1,0.3,0.2c0.7,0.6,1.5,1.1,2.2,1.7c0.7,0.6,1.5,1.1,2.2,1.7c0.7,0.6,1.6,1.3,2.4,2
						c0.7,0.6,1.3,1.1,2,1.7c0.7,0.6,1.3,1.1,1.9,1.7c0.9,0.8,1.7,1.6,2.6,2.4c0.7,0.7,1.5,1.5,2.2,2.2c0.7,0.7,1.4,1.5,2.1,2.3
						c0.7,0.8,1.5,1.6,2.2,2.4c0.7,0.8,1.4,1.6,2.1,2.5l0,0c0.7,0.8,1.3,1.6,2,2.5c0.7,0.8,1.2,1.5,1.8,2.3c0.2,0.3,0.5,0.6,0.7,1
						c0.3,0.5,0.7,0.9,1,1.4c0.3,0.3,0.5,0.7,0.8,1.1c0.5,0.7,1,1.4,1.5,2.2c1.3,2,2.5,3.9,3.6,6c0.2,0.4,0.4,0.8,0.7,1.2l0,0
						c1.3,2.4,2.5,4.9,3.7,7.4c0.5,1.1,0.9,2.1,1.3,3.2c0.9,2.1,1.7,4.3,2.4,6.5c0.4,1.1,0.7,2.2,1,3.3c0.1,0.5,0.3,1,0.4,1.5
						c0.1,0.2,0.1,0.3,0.1,0.5c0.2,0.7,0.4,1.3,0.5,2l0.5,2c0.3,1.4,0.6,2.7,0.9,4.1c0.1,0.5,0.2,1,0.3,1.6
						C553.3,555.6,553.4,556.2,553.5,556.8z"/>
					<path id="Path_7361" class="st6" d="M446.2,514.1c1,0.4,2,0.8,3,1.1c-0.4-0.2-0.8-0.3-1.2-0.5
						C447.4,514.6,446.8,514.3,446.2,514.1z"/>
					<path id="Path_7362" class="st6" d="M450,515.6c0.5,0.2,1,0.4,1.5,0.6c0,0-0.1,0-0.1,0C450.9,516,450.4,515.8,450,515.6z"/>
					<path id="Path_7363" class="st6" d="M451.7,516.3c0.2,0.1,0.4,0.2,0.6,0.2C452.1,516.5,451.9,516.4,451.7,516.3L451.7,516.3z"
						/>
					<path id="Path_7364" class="st6" d="M516.1,551.4L516.1,551.4L516.1,551.4L516.1,551.4z"/>
					<path id="Path_7365" class="st4" d="M401.4,447.2l-2.8-0.3l0,0C399.5,447,400.5,447.1,401.4,447.2z"/>
					<path id="Path_7366" class="st4" d="M428.7,451.7c-3.1-0.6-6.2-1.2-9.3-1.8C422.4,450.5,425.5,451.1,428.7,451.7z"/>
					<path id="Path_7367" class="st4" d="M497,477.2c-0.1-0.1-0.3-0.1-0.4-0.2l0,0L497,477.2z"/>
					<path id="Path_7368" class="st4" d="M499.8,559.1c-0.2,0.1-0.3,0.2-0.5,0.4l0,0L499.8,559.1z"/>
					<path id="Path_7369" class="st4" d="M498.8,478.4c-0.3-0.2-0.6-0.3-0.8-0.5l0.1,0C498.4,478.1,498.6,478.2,498.8,478.4z"/>
					<path id="Path_7370" class="st4" d="M542,522.8L542,522.8L542,522.8c-0.2-0.4-0.4-0.8-0.7-1.2
						C541.5,521.9,541.8,522.4,542,522.8z"/>
					<path id="Path_7371" class="st4" d="M549.4,539.9c-0.7-2.2-1.5-4.4-2.4-6.5C547.9,535.5,548.7,537.7,549.4,539.9z"/>
				</g>
			</g>
		</g>
	</g>
</g>
</svg>
