<?xml version="1.0" encoding="utf-8"?>
<!-- Generator: Adobe Illustrator 25.1.0, SVG Export Plug-In . SVG Version: 6.00 Build 0)  -->
<svg version="1.1" id="Layer_1" xmlns="http://www.w3.org/2000/svg" xmlns:xlink="http://www.w3.org/1999/xlink" x="0px" y="0px"
	 viewBox="0 0 800 800" style="enable-background:new 0 0 800 800;" xml:space="preserve">
<style type="text/css">
	.st0{fill:#F9F7F7;}
	.st1{fill:#FFFFFF;}
</style>
<g>
	<g>
		<path d="M353.2,500.3c10.9-14.2,28.5-22.6,46.3-23.1c18.7-0.5,36.8,7.1,50.6,19.5c3.2,2.9,8.1-1.9,4.8-4.8
			c-15.3-13.8-35.7-22.4-56.6-21.5c-20,0.9-38.9,10.5-51,26.5C344.6,500.3,350.5,503.7,353.2,500.3L353.2,500.3z"/>
	</g>
	<g>
		<path d="M377.9,409.2c4-8.4,12.5-14.5,21.9-14.9c9.4-0.3,18.4,4.9,23.1,13.1c1.4,2.5,5.3,0.3,3.9-2.3c-5.4-9.5-16-15.7-27-15.3
			c-10.9,0.4-21.2,7.3-25.9,17.1C372.8,409.5,376.7,411.8,377.9,409.2L377.9,409.2z"/>
	</g>
	<g>
		<g>
			<path class="st0" d="M476.5,321c-6.2,16.8-11.8,39.6-12.4,57.5c-0.1,1.7,0,3.5,1.1,4.7c1,1.1,2.7,1.4,4.2,1.6
				c16.9,2,34.1,2,51.1-0.1c14.4-1.8,28.8-5.1,41.5-12.2c12.6-7.1,23.4-18.4,27.5-32.3c3.1-10.3,4.1-20.2,0.8-30.4
				c-2.9-9-8.3-18.4-15.5-24.5c-7.2-6.1-19.7-8.1-29.1-7.4c-9.7,0.7-16.8,4-24.8,9.5c-18,12.3-31.6,18.3-44.9,35.5"/>
			<g>
				<path d="M474.3,320.4c-4.7,12.6-8.2,25.7-10.4,39c-1.1,6.3-2,12.7-2,19.1c-0.1,6.2,3.3,8.1,9,8.7c15.5,1.8,31.2,1.8,46.7,0.1
					c13.8-1.5,27.6-4.2,40.3-10.2c23.1-10.8,40.3-34.6,36.3-61c-1.8-12.2-8.8-25.7-18.8-33.3c-8.9-6.8-22-8.4-32.8-7
					c-14.2,1.9-25.4,11.2-37.1,18.7c-11.7,7.5-22.5,15.6-31.2,26.7c-1.8,2.3,1.4,5.5,3.2,3.2c6.8-8.6,14.8-15.6,23.8-21.7
					c4.4-3,8.9-5.8,13.3-8.6c4.8-3.1,9.4-6.6,14.5-9.2c9.9-5.2,21.6-6.1,32.4-3.4c12,3,19.6,12.3,24.4,23.3
					c10.5,23.7-0.7,50.2-21.7,63.7c-21.6,13.9-50.1,16.1-75.1,15.5c-3.9-0.1-7.8-0.3-11.7-0.6c-1.9-0.2-3.9-0.3-5.8-0.6
					c-2.6-0.3-5.2-0.7-5.2-3.8c-0.1-6.3,0.9-12.8,2-19c2.2-13.1,5.7-25.9,10.3-38.4C479.7,318.9,475.3,317.7,474.3,320.4
					L474.3,320.4z"/>
			</g>
		</g>
		<g>
			<path d="M460.3,344.5c30.7-44.3,80.8-72.5,134.6-75.8c5.8-0.4,5.8-9.4,0-9.1c-44.6,2.7-87.3,21.4-119.3,52.7
				c-8.6,8.4-16.3,17.7-23.1,27.6C449.2,344.8,457,349.3,460.3,344.5L460.3,344.5z"/>
		</g>
		<circle cx="515.6" cy="340.7" r="34.9"/>
		<circle class="st1" cx="493.4" cy="328" r="12.7"/>
	</g>
	<g>
		<g>
			<path class="st0" d="M326.8,319.4c7.3,16.3,14.2,38.8,15.9,56.6c0.2,1.7,0.2,3.5-0.8,4.8c-1,1.2-2.6,1.5-4.1,1.8
				c-16.8,3.1-33.9,4.1-51,3.1c-14.5-0.9-29.1-3.3-42.1-9.6s-24.5-16.9-29.5-30.5c-3.7-10.1-5.4-19.9-2.7-30.3
				c2.4-9.1,7.2-18.9,14-25.4c6.8-6.5,19.2-9.3,28.6-9.2c9.7,0.1,17,2.9,25.4,7.9c18.7,11.1,32.6,16.4,47.1,32.7"/>
			<g>
				<path d="M324.9,320.5c4.9,11,8.8,22.5,11.7,34.2c1.4,5.6,2.6,11.2,3.4,17c0.4,3,1.7,6.7-1.6,8.5c-1.2,0.7-3.4,0.6-4.7,0.9
					c-2.1,0.3-4.1,0.7-6.2,0.9c-13.4,1.8-27,2.3-40.6,1.5c-13.1-0.8-26.4-2.8-38.5-8.2c-21.5-9.5-38.8-31.9-34.2-56.6
					c2-10.9,7.9-24,17.7-30.1c9.1-5.6,21.6-7.1,32-4.8c6.5,1.4,12.1,4.6,17.8,7.9c5.3,3.1,10.6,5.9,15.9,8.9
					c10.6,6,20.3,12.9,28.5,22.1c1.9,2.2,5.1-1,3.2-3.2c-8-9-17.5-16-28-22c-5.6-3.2-11.2-6.2-16.8-9.4c-5.5-3.2-11-6.4-17.2-8.1
					c-11.1-3.2-23.9-1.9-34.4,2.9c-11.2,5.2-17.9,17-21.5,28.3c-8.2,25.4,5.9,52,28.2,64.7c12,6.8,25.6,10,39.2,11.4
					c15.5,1.6,31.3,1.4,46.8-0.6c4.1-0.5,8.1-1.1,12.2-1.8c2.7-0.5,5.5-1.3,6.8-4.1c1.2-2.7,0.4-6.1,0-8.9c-0.5-3.5-1-6.9-1.7-10.3
					c-3-14.9-7.9-29.5-14-43.4C327.6,315.6,323.7,317.9,324.9,320.5L324.9,320.5z"/>
			</g>
		</g>
		<g>
			<path d="M351.4,336.1c-26.7-34-65.2-57.9-107.6-66.7c-12.7-2.6-25.7-3.9-38.7-3.9c-5.8,0-5.8,9.1,0,9.1
				c54.5,0,106.2,25.2,139.9,68C348.6,347.1,355,340.6,351.4,336.1L351.4,336.1z"/>
		</g>
		<circle cx="289" cy="341.4" r="34.9"/>
		<circle class="st1" cx="310.4" cy="327.4" r="12.7"/>
	</g>
</g>
</svg>
