<?xml version="1.0" encoding="utf-8"?>
<!-- Generator: Adobe Illustrator 25.1.0, SVG Export Plug-In . SVG Version: 6.00 Build 0)  -->
<svg version="1.1" id="Layer_1" xmlns="http://www.w3.org/2000/svg" xmlns:xlink="http://www.w3.org/1999/xlink" x="0px" y="0px"
	 viewBox="0 0 800 800" style="enable-background:new 0 0 800 800;" xml:space="preserve">
<style type="text/css">
	.st0{fill:#FCFCFC;}
	.st1{fill:#F98F8F;}
	.st2{fill:#8DB0F7;}
</style>
<g>
	<path d="M462.2,516.3c-4.6,2.1-9.3,2.9-13.9,2.8c-10.9-0.1-22-4.7-32.3-7.5c-25.1-6.6-50,3-75.1,4.7c-2.1,0.2-4.2,0.3-6.4,0.2
		l-21.8-4.4c-3.4-2.7-5.3-6.9-7.3-10.8c-2-4.1-3.1-8.4-3.4-12.8l5-24.8c4.2-9,10.8-16.9,18.7-22.8c1.7-1.3,3.5-2.4,5.3-3.5
		c12.1-7.1,26.4-10.3,40.2-12c8.9-1.1,17.9-1.6,26.9-1.8c9.2-0.2,18.4-0.5,27.5-0.2c0.7,0,1.3,0,2,0.1l28.9,5.8
		c4.9,2.1,9.6,4.9,13.8,8.6c5.3,4.7,9.4,10.8,11.4,17.6c2.1,7.5,1.7,15.5,0.4,23.2C479.8,492.6,476.1,509.8,462.2,516.3z"/>
	<path class="st0" d="M452,427.6l-1.7,6.3c-5.5,4-11.7,8-18,10.8c-30.1,13.3-64,8.5-91.5-9.3c-0.2-0.1,2.5-1.3,2.3-1.5
		c-3.3,1.5,1.8-1.9-1.2,0.1l-11,3.3c12.1-7.1,26.4-10.3,40.2-12c8.9-1.1,17.9-1.6,26.9-1.8c9.2-0.2,18.4-0.5,27.5-0.2
		c0.7,0,1.3,0,2,0.1c1.2,0.1,2.3,0.1,3.5,0.2c1.1,0,2.3,0.2,3.4,0.3c1.5,0.2,3,0.3,4.4,0.6c2.2,0.3,4.4,0.7,6.6,1.3
		C447.8,426.3,449.9,426.9,452,427.6z"/>
	<path class="st1" d="M448.6,517.1l-0.4,2c-10.9-0.1-22-4.7-32.3-7.5c-25.1-6.6-50,3-75.1,4.7l-12.6-2.6l5.8,0.3
		c1.8,0.1,2,0.5,3.8,0.5c0.8,0-0.4-0.5,0.3-0.5c2.5-8.9,7.4-16,14.9-21.3c14.9-10.4,33-11.1,50.3-7.5c16.5,3.5,31.9,13.2,35.6,30.7
		C441.5,516.3,446.1,517.1,448.6,517.1z"/>
	<g>
		<g>
			<path class="st2" d="M237.2,366.5c-17.2-7-41.3-4.8-55.1,7.7c-4,3.6-7.6,9-5.6,14c1.3,3.1,4.5,5,7.8,5.4c3.3,0.4,6.6-0.6,9.6-1.9
				c7.8-3.5,14-9.8,20.7-15.2c6.7-5.3,14.8-10,23.3-9.5"/>
			<g>
				<path d="M237.4,365.6c-16.5-6.6-37.8-5.4-52.5,5.1c-5.9,4.2-14.3,13.6-7.3,20.6c7.7,7.6,19.6,0.3,26.4-4.9
					c10.2-7.8,20-19.2,34.1-18.5c1.2,0.1,1.2-1.8,0-1.8c-8.9-0.4-16.8,4.1-23.6,9.4c-7.7,6-15.1,14.4-24.9,16.7
					c-5.7,1.4-13.7-1.1-12.6-8.4c0.8-5,5.2-9,9.2-11.8c6.9-4.8,15.2-7.4,23.6-8.3c9.2-1,18.6,0.2,27.2,3.6
					C238,367.8,238.5,366.1,237.4,365.6L237.4,365.6z"/>
			</g>
		</g>
		<g>
			<g>
				<path d="M488.6,260.3c22.5-9.7,49-0.7,61.4,20.3c3,5,10.8,0.5,7.8-4.6c-6.8-11.5-17.3-20.4-29.9-25.2
					c-14.2-5.4-30.1-4.4-43.9,1.6C478.7,254.8,483.3,262.6,488.6,260.3L488.6,260.3z"/>
			</g>
			<g>
				<path d="M251.9,264.2c16.1-19.3,43.5-23.7,64.7-10.2c4.9,3.2,9.5-4.7,4.6-7.8c-24.4-15.5-57.2-10.7-75.7,11.6
					C241.8,262.2,248.1,268.7,251.9,264.2L251.9,264.2z"/>
			</g>
			<g>
				<path d="M385.1,402.6c3.1-7.3,11-12.2,18.9-11.7c7.8,0.5,14.7,6.3,17,13.7c0.7,2.2,4.2,1.3,3.5-1c-2.8-9-11.1-15.7-20.5-16.3
					c-9.7-0.6-18.8,5.6-22.4,14.4C380.7,403.8,384.2,404.7,385.1,402.6L385.1,402.6z"/>
			</g>
			<g>
				<path d="M456.8,363c7.8-13.7,23.4-22.3,39.2-21c15.4,1.2,29.4,12.1,34.8,26.4c1.6,4.3,8.7,2.5,7-1.9
					c-6.5-17.2-22.3-29.7-40.7-31.7c-18.7-2-37.4,8.4-46.6,24.5C448.2,363.4,454.4,367.1,456.8,363L456.8,363z"/>
			</g>
			<g>
				<path class="st2" d="M533.3,381.5c-5.7,12.1-10.2,25.4-11.6,38.8c-0.3,3-0.4,6.5,1.7,8.7c2.8,3,8,2.1,11.1-0.6
					c5.5-4.6,6.8-12.4,6.5-19.5c-0.3-9.9-2.8-19.7-7.3-28.5"/>
				<g>
					<path d="M532.6,381c-3.8,8.1-7.1,16.5-9.2,25.3c-1.1,4.3-1.9,8.7-2.4,13.1c-0.3,3.1-0.6,6.8,1.3,9.5c3.8,5.4,11.6,2.3,15-1.8
						c4.3-5.2,5.1-12.5,4.8-19.1c-0.4-9.8-3-19.3-7.4-28c-0.5-1-2.1-0.1-1.6,0.9c4.3,8.4,6.8,17.7,7.2,27.1c0.3,7.4-0.8,18-8.8,21.2
						c-1.9,0.8-4.1,1.1-6,0.1c-2.3-1.2-2.9-3.8-2.9-6.2c-0.1-4.6,0.9-9.3,1.9-13.7c2.1-9.5,5.5-18.7,9.7-27.5
						C534.6,380.9,533.1,379.9,532.6,381L532.6,381z"/>
				</g>
			</g>
			<g>
				<path class="st2" d="M571.4,398.4c18.9-6,43.8-0.4,56.1,15.1c4.1,5.1,7.1,12.5,3.6,18c-3.7,5.8-12.7,5.8-18.5,2.1
					c-5.8-3.7-9.6-9.9-13.9-15.2c-7.3-8.9-16.8-15.9-27.5-20.2"/>
				<g>
					<path d="M571.6,399.2c17.6-5.4,39.4-1.5,52.6,11.9c3.6,3.7,7,8.5,7.5,13.8c0.5,5.9-3.8,10-9.5,10.3
						c-11.2,0.6-17.1-10.5-23.3-17.9c-7.4-8.9-16.9-15.6-27.6-20c-1.1-0.4-1.6,1.3-0.5,1.8c12.5,5.1,22.3,13.6,30.4,24.2
						c5.7,7.5,13.6,16.2,24.2,13.2c10.8-3,8.8-15.3,3.7-22.4c-5.7-7.9-14.5-13.3-23.7-16.2c-11-3.5-23.2-3.8-34.3-0.4
						C570,397.8,570.5,399.6,571.6,399.2L571.6,399.2z"/>
				</g>
			</g>
			<g>
				<path d="M251.7,358.2c9.5-13.5,25.6-21.9,42.1-21.7c16.6,0.2,32.4,9.1,41.5,22.8c2.6,3.9,8.9,0.2,6.3-3.7
					c-10.6-15.9-28.6-26.2-47.8-26.4c-19.2-0.3-37.4,9.8-48.4,25.3C242.7,358.4,249,362,251.7,358.2L251.7,358.2z"/>
			</g>
		</g>
	</g>
	<g>
		<path d="M482.1,478.8c1.3-7.7,1.7-15.7-0.4-23.2c-1.9-6.9-6.1-12.9-11.4-17.6c-4.1-3.7-8.8-6.5-13.8-8.6c-1.5-0.6-3-1.2-4.5-1.7
			c-2.1-0.7-4.3-1.3-6.4-1.8c-2.2-0.5-4.4-1-6.6-1.3c-1.5-0.2-3-0.4-4.4-0.6c-1.1-0.1-2.3-0.2-3.4-0.3c-1.2-0.1-2.3-0.2-3.5-0.2
			c-0.7-0.1-1.3-0.1-2-0.1c-9.1-0.3-18.3-0.1-27.5,0.2c-9,0.3-18,0.7-26.9,1.8c-13.8,1.7-28.1,4.8-40.2,12c-1.8,1.1-3.6,2.2-5.3,3.5
			c-7.9,5.9-14.5,13.8-18.7,22.8c-2.3,4.8-3.9,10-4.7,15.3c-0.5,3.2-0.6,6.3-0.4,9.5c0.3,4.4,1.4,8.8,3.4,12.8c2,3.9,3.9,8,7.3,10.8
			c0.6,0.5,1.3,1,2.1,1.4c2.7,1.5,5.7,2,8.7,2.4c0.1,0,0.2,0,0.3,0c0,0,0.1,0,0.1,0c3.5,0.4,7,0.6,10.5,0.6c2.1,0,4.2-0.1,6.4-0.2
			c25.1-1.7,50-11.3,75.1-4.7c10.3,2.7,21.4,7.3,32.3,7.5c4.7,0.1,9.4-0.7,13.9-2.8C476.1,509.8,479.8,492.6,482.1,478.8z
			 M475,493.7c-2.1,6.7-5.2,13.5-11.2,17.6c-4.6,3.1-9.6,4.2-14.8,4.3c-2.5,0-5.1-0.3-7.6-0.7c-1.3-0.2-2.6-0.5-3.9-0.8
			c-5.7-1.3-11.4-3.2-16.6-4.8c-7.4-2.2-14.8-3.6-22.6-3.6c-7.2-0.1-14.3,0.7-21.3,1.8c-12.3,1.9-24.6,4.7-37,5.4
			c-1.3,0.1-2.6,0.2-3.8,0.2c-0.8,0-1.5,0-2.3,0c-1.8,0-3.6-0.1-5.4-0.2c-1.4-0.1-2.8-0.3-4.1-0.4c-0.3,0-0.5-0.1-0.8-0.1
			c-0.2,0-0.4,0-0.6-0.1c-5-0.8-8.7-2.6-11.4-7.1c-3.5-5.8-5.8-12-5.9-18.8c-0.3-14.7,7.4-29.2,18-39c2.1-1.9,4.3-3.6,6.6-5.1
			c3-2,6.2-3.7,9.4-5.1c1.3-0.6,2.6-1.1,4-1.6c7-2.7,14.4-4.4,21.7-5.6c16.5-2.7,33.4-2.8,50.1-3c11.7-0.1,23.9,0.3,35.1,3.9
			c0.3,0.1,0.6,0.2,0.9,0.3c1,0.4,2.1,0.7,3.1,1.2c2.5,1,5,2.3,7.3,3.7c5.7,3.5,10.7,8.4,13.9,14.3c3.6,6.7,4.3,14.5,3.6,21.9
			C478.7,479.5,477.1,486.8,475,493.7z"/>
	</g>
	<g>
		<path d="M437.9,516.3c-0.1-0.7-0.3-1.5-0.6-2.2c-2-7.3-6.7-13.6-12.8-18.3c-13.5-10.4-33.2-12.2-49.6-9.6
			c-15.2,2.4-30.4,11.3-35.2,26.6c-0.1,0.5-0.3,1-0.4,1.5c-0.3,1.1-1.3,1.5-2.2,1.3c-0.9-0.2-1.6-0.9-1.3-2c0-0.2,0.1-0.4,0.2-0.6
			c2.5-8.9,8.3-16.4,15.9-21.7c14.9-10.4,35.5-11.5,52.8-8c16.5,3.5,32.9,14.1,36.6,31.5c0.1,0.1,0,0.1,0.1,0.2
			C441.8,517.3,438.4,518.5,437.9,516.3z"/>
	</g>
	<g>
		<path d="M454.7,432.2c-0.1,0.1-0.1,0.1-0.2,0.2c-1.3,1.1-2.6,2.1-4,3.1c-5.5,4-11.4,7.5-17.8,10.3c-30.1,13.3-65.3,9.5-92.8-8.3
			c-0.2-0.1-0.3-0.2-0.4-0.4c-1.2-1.4,0.2-4,2.1-2.8c0.7,0.4,1.3,0.8,1.9,1.2c7.2,4.4,14.9,7.9,23,10.4c15.1,4.7,31.2,5.7,46.7,2.3
			c13.6-2.9,26.3-8.8,37.2-17.3c0.4-0.2,0.8-0.5,1.1-0.8c0.4-0.3,0.8-0.6,1.1-0.9C454.5,427.7,456.5,430.7,454.7,432.2z"/>
	</g>
</g>
</svg>
