<?xml version="1.0" encoding="utf-8"?>
<!-- Generator: Adobe Illustrator 25.1.0, SVG Export Plug-In . SVG Version: 6.00 Build 0)  -->
<svg version="1.1" id="Layer_1" xmlns="http://www.w3.org/2000/svg" xmlns:xlink="http://www.w3.org/1999/xlink" x="0px" y="0px"
	 viewBox="0 0 800 800" style="enable-background:new 0 0 800 800;" xml:space="preserve">
<style type="text/css">
	.st0{fill:#FCFCFC;}
	.st1{fill:#FFFFFF;}
	.st2{fill:#F98F8F;}
</style>
<g>
	<path d="M377.8,266.6c2.4-9.1,11.4-15.8,20.8-15.1c9.1,0.7,17.2,8.6,18.2,17.6c0.3,2.4,4,2.4,3.8,0c-1.3-11-10.3-20.2-21.4-21.3
		c-11.2-1.1-22.2,7-25.1,17.8C373.5,268,377.2,269,377.8,266.6L377.8,266.6z"/>
</g>
<g>
	<g>
		<path class="st0" d="M486.2,227.6c-3.8-17.3-2.4-35.8,3.9-52.3s17.6-31.2,32-41.6c15-10.8,36.1-13.4,53.5-7
			c10.6,3.9,18,8.6,24.4,17.9c7.1,10.3,11.9,22.3,12.4,34.8c0.5,12.5-3.7,25.4-12.5,34.2c-10.3,10.4-25.4,14.3-39.8,16.2
			C535.5,233,510.5,233.2,486.2,227.6"/>
		<g>
			<path d="M488,227.1c-5.3-24.9,0.2-51.3,15.2-71.9c6.7-9.2,15.4-17.9,25.5-23.4c10.1-5.5,22-7.6,33.4-6.4
				c10.6,1.1,21.9,5.4,29.8,12.6c8.8,8,14.7,20,17.4,31.4c2.7,11.7,1.5,24.4-4.6,34.9c-6,10.4-16.2,16.6-27.4,20
				c-13.9,4.2-28.9,5.3-43.4,5.7c-15.9,0.5-31.7-0.8-47.2-4.3c-2.4-0.5-3.4,3.1-1,3.6c14.6,3.3,29.6,4.7,44.6,4.5
				c14-0.2,28.5-1.2,42.2-4.4c11.8-2.7,23.6-7.8,31.4-17.4c7.8-9.6,11.3-22.2,10.4-34.4c-0.9-13.1-6.3-26.1-14.3-36.5
				c-6.9-9-17.1-14.7-28-17.7c-11.7-3.3-24.5-2.9-36,1c-11.6,3.9-21.5,11.8-29.6,20.8c-20.1,22.4-28.2,53.4-22,82.8
				C484.9,230.4,488.5,229.4,488,227.1L488,227.1z"/>
		</g>
	</g>
	<g>
		<path d="M525,112.8c13.3-9,30.1-12.9,46-9.9c14.9,2.8,28.6,11.2,37.8,23.3c1.2,1.6,3.2,2.5,5.1,1.3c1.6-0.9,2.6-3.5,1.3-5.1
			c-16.7-22.2-45.2-32.7-72.3-25.9c-7.7,1.9-15.1,5.3-21.7,9.7C517.3,109.1,521,115.6,525,112.8L525,112.8z"/>
	</g>
	<circle cx="531.2" cy="188.3" r="34.8"/>
	<circle class="st0" cx="555" cy="171.6" r="12.8"/>
</g>
<g>
	<g>
		<path class="st1" d="M316.1,227.1c5.2-17,3.1-34.1-1.8-51.2s-12.7-33.9-26.2-45.4c-14.1-12.1-34.9-16.4-52.7-11.4
			c-10.9,3-18.6,7.1-25.8,15.8c-7.9,9.7-13.8,21.3-15.3,33.7c-1.5,12.4,4,28.2,12,37.8c9.4,11.2,21.6,13.7,35.9,16.8
			C266.6,228.5,291.4,230.7,316.1,227.1"/>
		<g>
			<path d="M317.9,227.6c4.3-14.2,3.7-29,0.5-43.4c-2.9-12.8-7.3-25.7-14.1-37c-6.3-10.5-14.8-19.8-25.8-25.4
				c-10.8-5.5-23.3-7.7-35.3-6.2c-11,1.4-22.3,5.6-30.5,13.2c-9.1,8.5-16,20.6-18.9,32.7c-2.9,11.9-1,23.8,4.1,34.8
				c5,10.7,13.1,18.8,24.1,23.3c5.4,2.2,11.2,3.5,16.9,4.7c7.2,1.6,14.4,3,21.7,4.1c15,2.2,30.1,3,45.2,1.8
				c3.6-0.3,7.3-0.7,10.9-1.2c2.4-0.3,1.4-4-1-3.6c-27.5,3.9-55.4,0.6-82.2-6c-10.6-2.6-20.5-6.9-27.2-15.9
				c-6.6-9-10.8-20.9-10.3-32.1c0.5-11.9,6.2-23.6,13.3-32.9c3.3-4.4,7.2-8.4,11.9-11.3c4.5-2.8,9.6-4.7,14.7-6.1
				c11.1-3.1,23-2.5,33.8,1.2c11.2,3.9,20.5,11.4,27.5,20.9c7.9,11,12.9,23.8,16.3,36.8c4.1,15.3,5.4,31.3,0.8,46.7
				C313.6,228.9,317.2,229.9,317.9,227.6L317.9,227.6z"/>
		</g>
	</g>
	<g>
		<path d="M277.7,97.3c-12.4-7.2-27.1-10.5-41.4-9.1c-13.5,1.3-26,6.6-36.6,15c-5.8,4.6-10.8,10.2-14.8,16.5
			c-2.6,4.1,3.9,7.8,6.5,3.8c8.1-12.5,20.8-21.9,35.2-25.9c15.8-4.4,33.1-2,47.3,6.2C278.1,106.2,281.9,99.7,277.7,97.3L277.7,97.3z
			"/>
	</g>
	<circle cx="244.2" cy="180" r="34.8"/>
	<circle class="st0" cx="273" cy="166" r="12.8"/>
</g>
<g>
	<path class="st2" d="M449.8,389.3c-6.8,1.4-13.8,0.6-20.7-0.1c-7.1-0.8-14.2-1.4-21.2-1.6c-15.7-0.4-31.5,0.9-46.9,3.9
		c-7.1,1.4-14.8,4-22.1,2.4c-0.5-0.1-1-0.3-1.4-0.5c8.5-15.9,23.6-27.9,41.1-32.6c17.4-4.6,35.9-1.4,51,8.2
		C437.8,374.3,444.8,381.1,449.8,389.3z"/>
	<g>
		<path d="M336.5,387.4c-10.2-22.6,2.3-47.3,20.4-61.6c17.7-14,41.7-19.7,63.4-12.3c10.6,3.6,20,10.2,26.8,19.1
			c6.8,8.9,11.3,19.7,13.6,30.7c1.2,5.7,1.5,12-1.7,17.1c-2.8,4.5-7.8,7.2-12.8,8.5c-6,1.5-12.3,1.1-18.4,0.4
			c-6.6-0.7-13.2-1.4-19.9-1.6c-14.3-0.5-28.6,0.6-42.7,3.2c-7,1.3-14.8,4.2-22,2.5c-5.4-1.3-7-6.2-8.6-11c-0.8-2.3-4.4-1.3-3.6,1
			c1.4,4.3,3,9.1,7,11.8c4.9,3.3,11.7,2.6,17.2,1.6c7.4-1.4,14.7-3,22.1-4c7.2-0.9,14.4-1.4,21.6-1.5c7.2-0.1,14.4,0.2,21.6,0.9
			c7.3,0.7,14.6,1.9,21.9,1.1c11.1-1.3,21.3-7.9,22.7-19.7c0.7-6.1-0.8-12.3-2.6-18.1c-1.8-5.9-4.1-11.6-7.1-17
			c-5.9-10.6-14.5-19.4-25.3-25c-22-11.3-48.5-8.5-69.1,4.7c-11.4,7.3-21.3,17.6-26.9,29.9c-5.9,13-6.7,27.9-0.8,41
			C334.3,391.5,337.5,389.6,336.5,387.4L336.5,387.4z"/>
	</g>
	<g>
		<path d="M341.6,393.7c7.5-14.6,21.1-25.6,36.8-30.2c16.1-4.7,33.4-1.9,47.6,6.9c8,5,14.7,11.8,19.6,19.8c1.2,2.1,4.5,0.2,3.2-1.9
			c-9.2-15.3-24.9-26.2-42.3-29.7c-17.1-3.4-35,0.8-49.1,11.1c-7.9,5.8-14.5,13.3-19.1,22.1C337.3,394,340.5,395.9,341.6,393.7
			L341.6,393.7z"/>
	</g>
	<g>
		<path d="M356.1,326.7c26.3,13.8,58.5,14.1,85.1,1c2.2-1.1,0.3-4.3-1.9-3.2c-25.4,12.5-56.3,12.1-81.4-1
			C355.8,322.3,353.9,325.6,356.1,326.7L356.1,326.7z"/>
	</g>
	<path d="M463,367.8c0.9,5.6,0.5,11.6-2.8,16.3c-2.4,3.3-6,5.6-9.8,6.9c-9.1-15.3-24.4-26.5-41.4-30.6c-17.8-4.3-36.4-0.3-51.3,10.4
		c-8.2,5.9-15,13.6-19.7,22.6c-1.3-1.4-2.3-3.2-3-5.1c-0.5-1.1-0.9-2.3-1.3-3.5l0-0.2c-6.7-22.2,5.3-45.4,22.5-59.2
		c18.6-14.9,43.9-20.6,66.5-11.8C444.9,322.1,459.4,344.4,463,367.8z"/>
	<path class="st1" d="M439.3,324.6c-24.9,12.2-55.2,12.1-80-0.4c17.9-13.2,41.6-17.9,62.7-10C428.5,316.6,434.3,320.1,439.3,324.6z"
		/>
</g>
</svg>
