<?xml version="1.0" encoding="utf-8"?>
<!-- Generator: Adobe Illustrator 25.1.0, SVG Export Plug-In . SVG Version: 6.00 Build 0)  -->
<svg version="1.1" id="Layer_1" xmlns="http://www.w3.org/2000/svg" xmlns:xlink="http://www.w3.org/1999/xlink" x="0px" y="0px"
	 viewBox="0 0 800 800" style="enable-background:new 0 0 800 800;" xml:space="preserve">
<style type="text/css">
	.st0{fill:#F9F7F7;}
	.st1{fill:#FFFFFF;}
</style>
<g>
	<path d="M345.8,377.2c11.5-15.1,30.3-24,49.2-24.6c19.8-0.6,39.1,7.5,53.7,20.7c3.4,3.1,8.5-2,5.1-5.1
		c-16.3-14.7-37.9-23.8-60-22.8c-21.2,1-41.2,11.2-54.1,28.1C336.7,377.2,343,380.8,345.8,377.2L345.8,377.2z"/>
</g>
<g>
	<path d="M373.8,276.5c4.2-9,13.3-15.4,23.3-15.8c10-0.4,19.6,5.2,24.5,13.9c1.5,2.7,5.7,0.3,4.1-2.4c-5.7-10.1-17-16.7-28.6-16.3
		c-11.6,0.4-22.5,7.7-27.4,18.2C368.3,276.9,372.5,279.3,373.8,276.5L373.8,276.5z"/>
</g>
<g>
	<g>
		<path class="st0" d="M487.4,157.9c-6.6,17.8-12.5,42-13.1,61c-0.1,1.8,0,3.7,1.2,5c1.1,1.2,2.8,1.5,4.4,1.7
			c18,2.2,36.2,2.1,54.2-0.1c15.3-1.9,30.6-5.4,44-13c13.4-7.6,24.8-19.5,29.2-34.3c3.3-10.9,4.4-21.4,0.9-32.2
			c-3.1-9.5-8.8-19.6-16.5-26c-7.7-6.5-20.9-8.6-30.9-7.9c-10.3,0.8-17.8,4.2-26.3,10c-19.1,13-33.5,19.5-47.7,37.7"/>
		<g>
			<path d="M485.1,157.3c-4.9,13.4-8.7,27.3-11,41.4c-1.1,6.7-2.1,13.5-2.2,20.3c-0.1,6.6,3.5,8.6,9.6,9.3
				c16.4,1.9,33.1,1.9,49.6,0.1c14.7-1.6,29.3-4.5,42.7-10.8c24.5-11.5,42.7-36.7,38.5-64.8c-2-13-9.4-27.2-19.9-35.3
				c-9.5-7.2-23.3-8.9-34.8-7.4c-15,2-26.9,11.9-39.3,19.8c-12.4,8-23.9,16.6-33.1,28.3c-1.9,2.4,1.5,5.8,3.4,3.4
				c7.2-9.1,15.7-16.6,25.3-23c4.7-3.1,9.4-6.1,14.1-9.2c5.1-3.3,10-7,15.4-9.8c10.5-5.5,22.9-6.5,34.4-3.6
				c12.7,3.2,20.8,13.1,25.9,24.7c11.1,25.2-0.8,53.3-23,67.6c-22.9,14.7-53.2,17.1-79.7,16.4c-4.1-0.1-8.3-0.3-12.4-0.7
				c-2.1-0.2-4.1-0.4-6.2-0.6c-2.8-0.3-5.5-0.7-5.5-4c-0.1-6.7,1-13.6,2.1-20.2c2.4-13.8,6.1-27.5,10.9-40.7
				C490.8,155.6,486.1,154.4,485.1,157.3L485.1,157.3z"/>
		</g>
	</g>
	<g>
		<path d="M470.2,182.9c32.5-47,85.7-77,142.8-80.5c6.1-0.4,6.2-10,0-9.6c-47.4,2.9-92.6,22.7-126.6,55.9
			c-9.1,8.9-17.3,18.8-24.5,29.3C458.3,183.1,466.7,187.9,470.2,182.9L470.2,182.9z"/>
	</g>
	<circle cx="528.8" cy="178.8" r="37.1"/>
	<circle class="st1" cx="505.3" cy="165.3" r="13.5"/>
</g>
<g>
	<g>
		<path class="st0" d="M310.1,159.2c7.7,17.3,15.1,41.2,16.9,60.1c0.2,1.8,0.2,3.7-0.9,5.1c-1,1.2-2.7,1.6-4.3,1.9
			c-17.8,3.3-36,4.4-54.1,3.3c-15.4-0.9-30.9-3.5-44.7-10.2c-13.8-6.7-26-18-31.3-32.4c-3.9-10.7-5.7-21.1-2.9-32.1
			c2.5-9.7,7.6-20.1,14.8-27c7.2-6.9,20.4-9.9,30.4-9.8c10.3,0.1,18,3.1,26.9,8.4c19.9,11.8,34.6,17.3,49.9,34.7"/>
		<g>
			<path d="M308.1,160.4c5.2,11.7,9.3,23.9,12.4,36.2c1.5,5.9,2.8,11.9,3.6,18c0.4,3.2,1.8,7.1-1.7,9.1c-1.2,0.7-3.6,0.7-5,0.9
				c-2.2,0.4-4.4,0.7-6.6,1c-14.2,1.9-28.7,2.4-43,1.6c-13.9-0.8-28.1-3-40.9-8.7c-22.9-10.1-41.1-33.9-36.3-60
				c2.1-11.6,8.4-25.5,18.8-31.9c9.7-5.9,22.9-7.6,33.9-5.1c6.9,1.5,12.9,4.9,18.9,8.4c5.6,3.2,11.3,6.3,16.9,9.5
				c11.3,6.4,21.5,13.7,30.2,23.4c2.1,2.3,5.5-1.1,3.4-3.4c-8.5-9.5-18.6-16.9-29.7-23.3c-5.9-3.4-11.9-6.6-17.8-10
				c-5.8-3.4-11.7-6.8-18.2-8.6c-11.8-3.3-25.4-2-36.5,3.1c-11.9,5.5-19,18-22.9,30c-8.7,26.9,6.3,55.2,29.9,68.6
				c12.7,7.2,27.2,10.6,41.6,12.1c16.5,1.7,33.2,1.4,49.7-0.6c4.3-0.5,8.6-1.1,12.9-1.9c2.9-0.5,5.9-1.4,7.2-4.3
				c1.3-2.9,0.4-6.4,0.1-9.4c-0.5-3.7-1.1-7.3-1.8-10.9c-3.2-15.8-8.4-31.3-14.9-46C311,155.2,306.8,157.6,308.1,160.4L308.1,160.4z
				"/>
		</g>
	</g>
	<g>
		<path d="M336.2,177c-28.4-36-69.2-61.5-114.2-70.8c-13.5-2.8-27.3-4.2-41-4.2c-6.2,0-6.2,9.6,0,9.6c57.8,0,112.7,26.8,148.4,72.2
			C333.3,188.6,340,181.8,336.2,177L336.2,177z"/>
	</g>
	<circle cx="270" cy="182.6" r="37.1"/>
	<circle class="st1" cx="292.7" cy="167.7" r="13.5"/>
</g>
</svg>
