<?xml version="1.0" encoding="utf-8"?>
<!-- Generator: Adobe Illustrator 25.1.0, SVG Export Plug-In . SVG Version: 6.00 Build 0)  -->
<svg version="1.1" id="Layer_1" xmlns="http://www.w3.org/2000/svg" xmlns:xlink="http://www.w3.org/1999/xlink" x="0px" y="0px"
	 viewBox="0 0 800 800" style="enable-background:new 0 0 800 800;" xml:space="preserve">
<style type="text/css">
	.st0{fill:#FCFCFC;}
	.st1{fill:#FFFFFF;}
	.st2{fill:#0C0A0A;}
	.st3{fill:#F98F8F;}
</style>
<g>
	<g>
		<path d="M530.6,104.7c32.5-7.4,68.6,6.5,87.6,34c3.9,5.6,13.1,0.3,9.2-5.4c-21.7-31.5-62.2-47.4-99.6-38.9
			C521.1,96,524,106.3,530.6,104.7L530.6,104.7z"/>
	</g>
	<g>
		<path class="st0" d="M480.7,214.6c-0.1-17,2.9-34.2,10.5-49.5c7.5-15.3,19.7-28.5,35.1-35.7c15.4-7.2,34.1-7.9,49.4-0.3
			c15.3,7.5,26.3,23.7,26.3,40.7c0,16.3-9.9,31.6-23.2,41c-13.4,9.4-29.8,13.5-46.1,14.7C514.7,226.9,496.1,224.1,480.7,214.6"/>
		<g>
			<path d="M482.9,214.6c0-23.6,5.9-47.9,21.8-66c14.9-17,38-26.8,60.5-21.1c20.2,5.1,36.3,24.2,34.6,45.6
				c-1.8,22.9-21.7,39.3-42.3,45.7c-24.3,7.7-53.4,7.5-75.6-6c-2.3-1.4-4.5,2.3-2.1,3.7c21.5,13.1,48.6,14,72.5,8.2
				c22.7-5.5,44.7-20.3,50.6-44.1c5.3-21.5-6.9-44.1-26.6-53.5c-22.1-10.6-48.5-4.7-66.7,10.8c-22.3,18.9-30.9,48.4-30.9,76.8
				C478.6,217.4,482.9,217.4,482.9,214.6L482.9,214.6z"/>
		</g>
	</g>
	<g>
		<circle cx="534" cy="181.1" r="34.5"/>
		<circle class="st1" cx="510.8" cy="163.5" r="9.7"/>
	</g>
</g>
<g>
	<g>
		<path d="M278.1,90.9c-37.4-8.5-77.8,7.3-99.6,38.9c-3.9,5.6,5.3,11,9.2,5.4c18.9-27.5,55.1-41.4,87.6-34
			C281.9,102.7,284.8,92.4,278.1,90.9L278.1,90.9z"/>
	</g>
	<g>
		<path class="st0" d="M323.4,220.3c1-17-1.1-34.3-7.8-50c-6.7-15.7-18.2-29.5-33.2-37.5s-33.6-9.7-49.3-3
			c-15.6,6.7-27.6,22.2-28.5,39.2c-0.9,16.3,8.2,32.1,21,42.2c12.8,10.1,29.1,15,45.2,17.2C288.8,230.8,307.6,229,323.4,220.3"/>
		<g>
			<path d="M325.5,220.3c1.4-25.3-4.1-51.4-20.4-71.4c-15.1-18.4-39.1-29.1-62.9-24.1c-21.4,4.5-39.4,23.6-39.6,46
				c-0.3,24,18.1,43.3,39,52.2c25.6,10.9,58,12.6,83-0.8c2.4-1.3,0.3-5-2.1-3.7c-20.8,11.2-46.2,10.7-68.4,4.3
				c-21.2-6.1-41.5-20.6-46.3-43.3c-4.4-21,9.6-42,29.4-48.9c21.9-7.6,45.9,0.8,61.4,17.1c18.4,19.4,24.3,46.6,22.9,72.6
				C321.1,223,325.4,223,325.5,220.3L325.5,220.3z"/>
		</g>
	</g>
	<g>
		<circle cx="274" cy="187.9" r="34.5"/>
		<circle class="st1" cx="250.8" cy="170.2" r="9.7"/>
	</g>
</g>
<g>
	<g>
		<path class="st2" d="M310.2,335.4c0.5-7.4,6.7-13.4,13.6-16s14.5-2.5,21.9-2.4c32.4,0.5,64.7,1,97.1,1.5
			c9.1,0.1,19.1,0.6,25.9,6.6c4.8,4.3,7.3,10.8,7.5,17.3c0.2,6.4-1.6,12.8-4.2,18.7c-11.6,26.3-39.1,44-67.7,46.2
			c-28.6,2.2-57.5-10.4-77.2-31.2c-10.8-11.4-18.5-26.2-16.7-41.8"/>
		<g>
			<path d="M312.4,335.4c1.7-15.5,21.1-16.5,32.8-16.3c15.7,0.2,31.4,0.5,47,0.7c15.7,0.2,31.4,0.5,47.1,0.7
				c12.9,0.2,28.8,0.2,33.6,15c4.1,12.7-2.6,26.8-9.9,37c-7,9.8-16.5,17.7-27.1,23.4c-22.2,11.8-48.2,12.1-71.4,3
				c-25.4-10-55-34.4-52-64.6c0.3-2.7-4-2.7-4.3,0c-2.9,28.9,22.6,52.9,46.4,64.8c24.6,12.3,53.5,14.3,78.8,2.8
				c11.8-5.3,22.4-13.4,30.5-23.5c8.3-10.4,15.8-24.4,14.3-38.2c-0.6-6.2-3.2-12.4-8-16.6c-4.8-4.3-11.1-6-17.4-6.7
				c-7.9-0.9-16.1-0.6-24.1-0.7c-8.9-0.1-17.8-0.3-26.7-0.4c-20-0.3-40-0.9-60-0.9c-14,0-32.2,3.8-34,20.6
				C307.8,338.1,312.1,338.1,312.4,335.4L312.4,335.4z"/>
		</g>
	</g>
	<g>
		<path d="M329.5,320.5c3.9,10.5,13.3,16.8,23.7,19.8c12.5,3.6,26.2,4.2,39.1,3.9c20.5-0.6,47.9-3.4,59.9-22.6
			c1.5-2.3-2.2-4.5-3.7-2.1c-10.9,17.4-36.4,19.8-54.9,20.5c-11.7,0.4-23.7-0.1-35.1-2.6c-10.3-2.2-21.1-7.4-25-17.9
			C332.7,316.8,328.5,317.9,329.5,320.5L329.5,320.5z"/>
	</g>
	<g>
		<path d="M375,287.9c3.8-7.8,12-13,20.8-12.7c8.3,0.3,16.3,6,19.4,13.7c1.3,3.3,6.8,1.9,5.5-1.5c-4-10-13.4-17.1-24.3-17.9
			c-10.8-0.7-21.6,5.8-26.4,15.5C368.5,288.3,373.4,291.1,375,287.9L375,287.9z"/>
	</g>
	<g>
		<path class="st1" d="M334,319.6c4.1-0.5,8.1-0.5,11.5-0.5c15.7,0.2,31.4,0.5,47,0.7c15.7,0.3,31.4,0.5,47.2,0.7
			c2.7,0.1,5.5,0.1,8.3,0.3c-11.3,16.2-36,18.4-54,19.1c-11.7,0.5-23.7-0.1-35.1-2.6C348.7,335.1,338,330,334,319.6z"/>
		<path class="st3" d="M432,398c-21.2,9.7-45.4,9.4-67.1,0.9c-3.8-1.5-7.7-3.3-11.5-5.4c10-11,24.9-17.9,39.9-17.4
			C408.7,376.8,423.3,385.3,432,398z"/>
	</g>
</g>
</svg>
