<?xml version="1.0" encoding="utf-8"?>
<!-- Generator: Adobe Illustrator 25.1.0, SVG Export Plug-In . SVG Version: 6.00 Build 0)  -->
<svg version="1.1" id="Layer_1" xmlns="http://www.w3.org/2000/svg" xmlns:xlink="http://www.w3.org/1999/xlink" x="0px" y="0px"
	 viewBox="0 0 800 800" style="enable-background:new 0 0 800 800;" xml:space="preserve">
<style type="text/css">
	.st0{fill:#FCFCFC;}
	.st1{fill:#F98F8F;}
	.st2{fill:#8DB0F7;}
</style>
<g>
	<path d="M470.9,388.6c-5.1,2.4-10.4,3.3-15.6,3.2c-12.2-0.1-24.6-5.3-36.2-8.3c-28.1-7.4-56,3.3-84.1,5.2c-2.4,0.2-4.7,0.3-7.1,0.3
		l-24.4-4.9c-3.8-3.1-6-7.7-8.1-12.1c-2.2-4.6-3.5-9.4-3.8-14.4l5.6-27.8c4.7-10.1,12-19,20.9-25.6c1.9-1.4,3.9-2.7,6-3.9
		c13.6-8,29.5-11.5,45-13.4c10-1.3,20.1-1.8,30.1-2c10.3-0.3,20.6-0.5,30.8-0.2c0.7,0,1.5,0.1,2.2,0.1l32.3,6.5
		c5.5,2.4,10.8,5.5,15.4,9.6c5.9,5.3,10.6,12,12.7,19.7c2.4,8.5,1.9,17.4,0.5,26C490.6,362,486.5,381.3,470.9,388.6z"/>
	<path class="st0" d="M459.5,289.3l-1.9,7.1c-6.2,4.5-13.1,8.9-20.1,12.1c-33.7,14.9-71.6,9.5-102.4-10.4c-0.2-0.1,2.8-1.5,2.6-1.7
		c-3.6,1.6,2-2.1-1.3,0.1l-12.3,3.7c13.6-8,29.5-11.5,45-13.4c10-1.3,20.1-1.8,30.1-2c10.3-0.3,20.6-0.5,30.8-0.2
		c0.7,0,1.5,0.1,2.2,0.1c1.3,0.1,2.6,0.2,3.9,0.3c1.3,0.1,2.5,0.2,3.8,0.3c1.7,0.2,3.3,0.4,5,0.6c2.5,0.4,4.9,0.8,7.4,1.4
		C454.8,287.8,457.2,288.5,459.5,289.3z"/>
	<path class="st1" d="M455.7,389.4l-0.5,2.3c-12.2-0.1-24.6-5.3-36.2-8.3c-28.1-7.4-56,3.3-84.1,5.2l-14.1-2.9l6.5,0.3
		c2,0.1,2.2,0.5,4.3,0.5c0.9,0-0.5-0.5,0.4-0.5c2.8-9.9,8.3-17.9,16.7-23.8c16.6-11.7,36.9-12.4,56.3-8.4
		c18.5,3.9,35.7,14.8,39.9,34.3C447.8,388.6,452.9,389.5,455.7,389.4z"/>
	<g>
		<g>
			<path class="st2" d="M219,220.9c-19.3-7.9-46.2-5.3-61.7,8.6c-4.5,4-8.5,10.1-6.2,15.7c1.4,3.4,5,5.6,8.7,6.1
				c3.7,0.4,7.4-0.6,10.8-2.2c8.8-4,15.7-11,23.2-17c7.5-6,16.5-11.2,26.1-10.6"/>
			<g>
				<path d="M219.3,219.9c-18.5-7.4-42.4-6.1-58.8,5.8c-6.6,4.7-16,15.2-8.1,23.1c8.6,8.5,22,0.3,29.5-5.5
					c11.4-8.7,22.4-21.4,38.1-20.8c1.3,0.1,1.3-2,0-2c-10-0.4-18.8,4.6-26.4,10.5c-8.6,6.7-16.9,16.1-27.9,18.7
					c-6.4,1.5-15.4-1.2-14.1-9.4c0.9-5.6,5.8-10.1,10.3-13.2c7.7-5.4,17-8.3,26.4-9.3c10.3-1.1,20.9,0.2,30.5,4
					C219.9,222.3,220.5,220.4,219.3,219.9L219.3,219.9z"/>
			</g>
		</g>
		<g>
			<g>
				<path d="M519.7,122.7c25.2-10.9,54.8-0.7,68.7,22.7c3.3,5.6,12.1,0.5,8.8-5.1c-7.6-12.9-19.4-22.8-33.5-28.2
					c-15.9-6.1-33.6-4.9-49.1,1.8C508.5,116.5,513.7,125.2,519.7,122.7L519.7,122.7z"/>
			</g>
			<g>
				<path d="M207.9,130c18-21.6,48.7-26.5,72.4-11.4c5.5,3.5,10.6-5.3,5.1-8.8c-27.3-17.4-64-11.9-84.7,13
					C196.5,127.8,203.7,135.1,207.9,130L207.9,130z"/>
			</g>
			<g>
				<path d="M384.6,261.2c3.4-8.2,12.3-13.7,21.2-13.1c8.7,0.6,16.5,7,19,15.3c0.8,2.5,4.7,1.4,3.9-1.1c-3.1-10.1-12.4-17.6-23-18.3
					c-10.8-0.7-21,6.3-25.1,16.1C379.7,262.6,383.6,263.6,384.6,261.2L384.6,261.2z"/>
			</g>
			<g>
				<path d="M482.4,209.3c8.8-15.4,26.2-25,43.9-23.5c17.2,1.4,32.9,13.6,39,29.6c1.8,4.8,9.7,2.7,7.8-2.2
					c-7.3-19.2-25-33.3-45.5-35.5c-20.9-2.2-41.9,9.4-52.2,27.5C472.8,209.7,479.8,213.8,482.4,209.3L482.4,209.3z"/>
			</g>
			<g>
				<path class="st2" d="M550.6,237.6c-6.4,13.6-11.5,28.5-13,43.4c-0.3,3.4-0.4,7.2,1.9,9.7c3.1,3.4,8.9,2.3,12.5-0.6
					c6.1-5.1,7.6-13.9,7.3-21.9c-0.3-11-3.2-22-8.2-31.9"/>
				<g>
					<path d="M549.7,237.1c-4.3,9.1-7.9,18.5-10.3,28.3c-1.2,4.8-2.1,9.7-2.6,14.6c-0.4,3.5-0.7,7.6,1.5,10.7c4.3,6,12.9,2.6,16.8-2
						c4.8-5.8,5.7-14,5.4-21.3c-0.5-10.9-3.4-21.6-8.3-31.4c-0.6-1.2-2.3-0.1-1.8,1c4.8,9.4,7.6,19.8,8,30.4
						c0.4,8.3-0.9,20.2-9.8,23.8c-2.1,0.8-4.6,1.2-6.7,0.1c-2.6-1.3-3.2-4.3-3.3-6.9c-0.1-5.1,1.1-10.4,2.2-15.4
						c2.4-10.6,6.2-20.9,10.8-30.8C552,236.9,550.2,235.9,549.7,237.1L549.7,237.1z"/>
				</g>
			</g>
			<g>
				<path class="st2" d="M593.1,256.5c21.2-6.7,49-0.5,62.8,16.9c4.6,5.7,7.9,14,4,20.2c-4.2,6.5-14.2,6.5-20.8,2.3
					c-6.5-4.1-10.7-11-15.6-17c-8.1-9.9-18.8-17.8-30.8-22.6"/>
				<g>
					<path d="M593.4,257.5c19.7-6.1,44.1-1.7,58.8,13.3c4.1,4.1,7.9,9.5,8.4,15.5c0.5,6.6-4.2,11.2-10.6,11.5
						c-12.5,0.7-19.2-11.7-26.1-20c-8.3-9.9-18.9-17.5-30.9-22.4c-1.2-0.5-1.7,1.5-0.5,2c14,5.7,25,15.2,34.1,27.1
						c6.4,8.4,15.2,18.1,27,14.8c12.1-3.3,9.9-17.1,4.1-25.1c-6.4-8.9-16.2-14.9-26.5-18.2c-12.3-3.9-25.9-4.3-38.4-0.5
						C591.6,255.9,592.1,257.9,593.4,257.5L593.4,257.5z"/>
				</g>
			</g>
			<g>
				<path d="M220.4,206.4c10.4-15.2,28.3-24.9,46.8-24.9c18.5,0,36.4,9.8,46.8,25c2.9,4.3,9.9,0.1,7-4.2
					c-12.1-17.6-32.4-28.9-53.9-28.9c-21.5,0-41.8,11.4-53.8,29C210.4,206.7,217.5,210.7,220.4,206.4L220.4,206.4z"/>
			</g>
		</g>
	</g>
	<g>
		<path d="M493.2,346.6c1.4-8.6,1.9-17.5-0.5-26c-2.2-7.7-6.8-14.4-12.7-19.7c-4.6-4.2-9.9-7.3-15.4-9.6c-1.6-0.7-3.4-1.3-5.1-1.9
			c-2.4-0.8-4.8-1.5-7.2-2c-2.4-0.6-4.9-1.1-7.4-1.4c-1.6-0.3-3.3-0.5-5-0.6c-1.3-0.1-2.5-0.3-3.8-0.3c-1.3-0.1-2.6-0.2-3.9-0.3
			c-0.7-0.1-1.5-0.1-2.2-0.1c-10.2-0.4-20.5-0.1-30.8,0.2c-10.1,0.3-20.1,0.8-30.1,2c-15.5,1.9-31.5,5.4-45,13.4
			c-2.1,1.2-4,2.5-6,3.9c-8.9,6.6-16.2,15.5-20.9,25.6c-2.5,5.4-4.3,11.2-5.2,17.2c-0.5,3.5-0.7,7.1-0.4,10.6
			c0.3,5,1.5,9.8,3.8,14.4c2.2,4.4,4.3,9,8.1,12.1c0.7,0.6,1.5,1.1,2.3,1.6c3,1.6,6.4,2.3,9.8,2.7c0.1,0,0.2,0,0.4,0
			c0,0,0.1,0,0.1,0c3.9,0.5,7.9,0.7,11.8,0.6c2.4,0,4.7-0.1,7.1-0.3c28.1-1.9,55.9-12.6,84.1-5.2c11.5,3,23.9,8.2,36.2,8.3
			c5.2,0.1,10.5-0.8,15.6-3.2C486.5,381.3,490.6,362,493.2,346.6z M485.2,363.3c-2.3,7.5-5.9,15.1-12.6,19.7
			c-5.1,3.4-10.8,4.7-16.6,4.8c-2.8,0-5.7-0.3-8.6-0.8c-1.4-0.2-2.9-0.5-4.4-0.9c-6.4-1.5-12.8-3.6-18.5-5.4
			c-8.3-2.5-16.6-4-25.3-4.1c-8-0.1-16,0.8-23.9,2c-13.8,2.1-27.5,5.2-41.5,6c-1.4,0.1-2.9,0.2-4.3,0.2c-0.9,0-1.7,0-2.6,0
			c-2,0-4-0.1-6-0.2c-1.5-0.1-3.1-0.3-4.6-0.5c-0.3,0-0.6-0.1-0.9-0.1c-0.2,0-0.4,0-0.6-0.1c-5.5-0.9-9.7-2.9-12.8-7.9
			c-3.9-6.5-6.5-13.4-6.6-21c-0.3-16.5,8.2-32.7,20.2-43.6c2.3-2.1,4.8-4,7.3-5.7c3.4-2.2,6.9-4.1,10.5-5.8c1.5-0.7,3-1.3,4.5-1.8
			c7.8-3,16.1-4.9,24.3-6.3c18.5-3,37.4-3.2,56.1-3.3c13.1-0.1,26.8,0.3,39.3,4.4c0.3,0.1,0.7,0.2,1,0.4c1.2,0.4,2.4,0.8,3.5,1.3
			c2.8,1.2,5.5,2.5,8.2,4.1c6.4,4,12,9.4,15.6,16c4,7.5,4.9,16.2,4.1,24.6C489.3,347.4,487.6,355.6,485.2,363.3z"/>
	</g>
	<g>
		<path d="M443.7,388.5c-0.2-0.8-0.4-1.7-0.6-2.4c-2.3-8.2-7.5-15.2-14.3-20.4c-15.1-11.6-37.2-13.7-55.5-10.8
			c-17,2.7-34,12.7-39.4,29.8c-0.2,0.5-0.3,1.1-0.5,1.6c-0.3,1.3-1.5,1.7-2.5,1.5c-1-0.2-1.8-1-1.5-2.3c0-0.2,0.1-0.4,0.2-0.6
			c2.8-9.9,9.3-18.3,17.8-24.2c16.6-11.7,39.7-12.9,59.1-8.9c18.5,3.9,36.8,15.7,41,35.3c0.1,0.1,0.1,0.1,0.1,0.2
			C448.1,389.7,444.3,391.1,443.7,388.5z"/>
	</g>
	<g>
		<path d="M462.5,294.4c-0.1,0.1-0.2,0.1-0.2,0.2c-1.4,1.2-3,2.3-4.5,3.5c-6.2,4.5-12.8,8.4-19.9,11.5c-33.7,14.9-73,10.6-103.8-9.2
			c-0.2-0.1-0.3-0.2-0.5-0.4c-1.4-1.6,0.3-4.5,2.3-3.2c0.7,0.5,1.4,0.9,2.2,1.4c8,4.9,16.7,8.9,25.7,11.7c17,5.2,34.9,6.3,52.3,2.6
			c15.2-3.2,29.5-9.9,41.7-19.4c0.5-0.3,0.9-0.6,1.2-0.9c0.4-0.3,0.9-0.7,1.3-1C462.2,289.4,464.5,292.8,462.5,294.4z"/>
	</g>
</g>
</svg>
