<?xml version="1.0" encoding="utf-8"?>
<!-- Generator: Adobe Illustrator 25.1.0, SVG Export Plug-In . SVG Version: 6.00 Build 0)  -->
<svg version="1.1" id="Layer_1" xmlns="http://www.w3.org/2000/svg" xmlns:xlink="http://www.w3.org/1999/xlink" x="0px" y="0px"
	 viewBox="0 0 800 800" style="enable-background:new 0 0 800 800;" xml:space="preserve">
<style type="text/css">
	.st0{fill:#FF6699;}
	.st1{fill:#FF006E;}
</style>
<g id="Group_8708" transform="translate(0 0)">
	<g id="Group_8707">
		<path id="Path_6201" d="M793.5,227.8c-5.1-37.3-21.6-72.2-47.3-99.8c-54.9-58.3-121.8-80.7-198.9-66.7
			c-60.9,11.1-108.5,44.3-141.3,98.6l-0.1,0.2c-1.2,2.1-3.5,3.4-5.9,3.3c-2.4,0-4.7-1.3-5.9-3.3L394,160
			c-32.8-54.4-80.3-87.6-141.3-98.6c-77.1-14-144.1,8.4-198.9,66.7c-25.6,27.6-42.1,62.4-47.3,99.8c-6.7,43.1-0.6,87.1,18.5,134.5
			c17,40.2,39.6,77.8,67.1,111.8c28.6,35.6,60.2,68.7,94.5,98.9c52.7,47.5,108.2,90.7,165.1,134.5c7.3,5.7,14.7,11.3,22.1,16.9
			c7.3,5.6,14.6,11.1,21.9,16.7c1.2,1.1,2.8,1.7,4.4,1.8c1.5-0.1,2.9-0.7,4-1.8c7.3-5.6,14.6-11.2,21.9-16.7
			c7.4-5.6,14.8-11.2,22.1-16.9c56.9-43.8,112.4-87,165.1-134.5c34.3-30.2,65.9-63.2,94.5-98.9c27.5-33.9,50.1-71.5,67.1-111.8
			c13.5-31.8,20.7-65.9,21.2-100.4C796.1,250.5,795.2,239.1,793.5,227.8z M769.5,360.1c-16.8,39.7-39.1,76.9-66.3,110.3
			c-28.4,35.4-59.8,68.2-93.8,98.1c-52.5,47.3-107.9,90.5-164.8,134.2c-7.3,5.6-14.7,11.3-22.1,16.9c-7.3,5.6-14.6,11.1-21.9,16.7
			c-0.2,0.2-0.4,0.3-0.6,0.5c-0.2-0.1-0.5-0.3-0.7-0.5c-7.3-5.6-14.6-11.2-21.9-16.7c-7.3-5.6-14.7-11.2-22.1-16.9
			C298.4,659,243,615.9,190.5,568.5c-34-29.9-65.4-62.8-93.8-98.1C69.5,437,47.2,399.8,30.4,360.1c-18.8-46.4-24.7-89.4-18.2-131.4
			c4.9-36.2,20.9-69.9,45.7-96.7c43.1-45.8,93.9-68.9,151.4-68.9c14.2,0,28.3,1.4,42.3,3.9c59.2,10.8,105.4,43,137.4,96
			c2.3,3.9,6.4,6.3,10.9,6.2c4.5-0.1,8.7-2.5,11-6.4c0,0,0.1-0.1,0.1-0.1c29.1-50.8,79.5-86,137.2-95.8
			c75.1-13.7,140.2,8.2,193.7,64.9c12.2,12.9,22.2,27.7,29.8,43.7c7.8,16.8,13.2,34.6,15.9,53C794.2,270.7,788.3,313.7,769.5,360.1z
			"/>
		<g id="Group_8695" transform="translate(1 1.002)">
			<path id="Path_6202" class="st0" d="M768.5,359.1c-16.8,39.7-39.1,76.9-66.3,110.3c-28.4,35.4-59.8,68.2-93.8,98.1
				c-52.5,47.3-107.9,90.5-164.8,134.2c-7.3,5.6-14.7,11.3-22.1,16.9c-7.3,5.6-14.6,11.1-21.9,16.7c-0.2,0.2-0.4,0.3-0.6,0.5
				c-0.2-0.1-0.5-0.3-0.7-0.5c-7.3-5.6-14.6-11.2-21.9-16.7c-7.3-5.6-14.7-11.2-22.1-16.9c-56.9-43.7-112.3-86.9-164.8-134.2
				c-34-29.9-65.4-62.8-93.8-98.1C68.5,436,46.2,398.8,29.4,359.1c-18.8-46.4-24.7-89.4-18.2-131.5c4.9-36.2,20.9-69.9,45.7-96.7
				c43.1-45.8,93.9-68.9,151.4-68.9c14.2,0,28.3,1.4,42.3,3.9c59.2,10.8,105.4,43,137.4,96c2.3,3.9,6.4,6.3,10.9,6.2
				c4.5-0.1,8.7-2.5,11-6.4c0,0,0.1-0.1,0.1-0.1c29.1-50.8,79.5-86,137.2-95.8C622.3,52.4,687.5,74.2,741,131
				c12.2,12.9,22.2,27.7,29.8,43.7c7.8,16.8,13.2,34.6,15.9,53C793.2,269.8,787.3,312.7,768.5,359.1z"/>
			<path id="Path_6203" class="st1" d="M732.8,379.7c-15.1,37.3-35.2,72.4-59.9,104.2c-25.5,33.3-53.9,64.3-84.7,92.6
				c-47.4,44.7-97.5,85.5-148.8,126.7c-6.7,5.3-13.3,10.6-20,15.9c-6.6,5.3-13.2,10.5-19.8,15.8c-0.2,0.1-0.4,0.3-0.6,0.4
				c-0.2-0.1-0.4-0.3-0.6-0.4c-6.6-5.3-13.2-10.5-19.8-15.8c-6.6-5.3-13.3-10.6-20-15.9c-51.4-41.3-101.4-82-148.8-126.7
				c-30.9-28.4-59.2-59.4-84.8-92.6c-24.7-31.8-44.8-66.9-59.9-104.2c-16.9-43.8-22.3-84.4-16.4-124.1c4.3-33.9,18.7-65.7,41.3-91.3
				c39-43.3,84.8-65,136.8-65c12.8,0,25.6,1.3,38.2,3.7c53.5,10.2,95.2,40.6,124.1,90.7c1,1.8,2.5,3.3,4.2,4.3
				c1.7,1,3.7,1.5,5.7,1.5c4.1-0.1,7.9-2.4,9.9-6c0,0,0.1-0.1,0.1-0.1c28.8-49.8,70.5-80.2,124-90.4c67.8-12.9,126.7,7.7,174.9,61.3
				c11.1,12.3,20.1,26.2,26.9,41.3c7.1,15.9,12,32.7,14.4,50C755.1,295.3,749.7,335.9,732.8,379.7z"/>
		</g>
	</g>
</g>
</svg>
