<?xml version="1.0" encoding="utf-8"?>
<!-- Generator: Adobe Illustrator 25.1.0, SVG Export Plug-In . SVG Version: 6.00 Build 0)  -->
<svg version="1.1" id="Layer_1" xmlns="http://www.w3.org/2000/svg" xmlns:xlink="http://www.w3.org/1999/xlink" x="0px" y="0px"
	 viewBox="0 0 800 800" style="enable-background:new 0 0 800 800;" xml:space="preserve">
<style type="text/css">
	.st0{fill:#77CFF2;}
	.st1{fill:#D5EAF8;}
	.st2{fill:#FFFFFF;}
</style>
<g>
	<g id="Group_10596" transform="translate(0 0)">
		<g id="Group_10591" transform="translate(0 13.621)">
			<path id="Path_10193" class="st0" d="M381.1,627.1c34.9,29.2,79.3,44.6,124.8,43.2c1.3,0,2.5-0.1,3.8-0.1c0.5,0,1-0.1,1.5-0.1
				c2.7-0.1,5.5-0.4,8.2-0.6c1.4-0.1,2.9-0.3,4.3-0.5c0,0,0.1,0,0.1,0c1.2-0.1,2.4-0.3,3.6-0.5c0.6-0.1,1.2-0.2,1.8-0.3
				c1.1-0.2,2.3-0.3,3.4-0.6c1.1-0.2,2.3-0.4,3.5-0.6c0.6-0.1,1.2-0.2,1.8-0.3c1.1-0.2,2.3-0.5,3.4-0.7c1.2-0.3,2.5-0.6,3.7-0.9
				c1.9-0.5,3.8-0.9,5.6-1.5c1.1-0.3,2.3-0.6,3.4-1c0,0,0.1,0,0.1,0c1.3-0.4,2.6-0.8,3.8-1.2c0.1,0,0.2-0.1,0.3-0.1
				c1.1-0.4,2.3-0.7,3.4-1.2c3.1-1.1,6.2-2.2,9.3-3.5c1.1-0.4,2.2-0.9,3.3-1.4c0.3-0.1,0.7-0.3,1-0.4c1.1-0.5,2.3-1,3.4-1.5
				c1.1-0.5,2.3-1.1,3.5-1.6c0.3-0.1,0.6-0.3,0.9-0.4c1.2-0.6,2.3-1.1,3.5-1.7c1.1-0.6,2.3-1.2,3.4-1.8c0.5-0.2,1-0.5,1.4-0.8
				c1-0.5,1.9-1.1,2.9-1.6c1.1-0.6,2.2-1.3,3.2-1.9c0.2-0.1,0.5-0.3,0.7-0.4c1.2-0.7,2.3-1.4,3.5-2.2c1.2-0.7,2.5-1.6,3.6-2.4
				c1.2-0.8,2.4-1.6,3.6-2.5s2.4-1.7,3.5-2.6c1.1-0.8,2.1-1.5,3.1-2.4c0.3-0.2,0.6-0.5,0.9-0.7c2.1-1.7,4.2-3.4,6.2-5.1
				c0.9-0.8,1.8-1.5,2.7-2.3c0.2-0.2,0.4-0.4,0.6-0.6c2.2-2,4.3-3.9,6.4-6c-31.2,19.5-67.1,30.3-103.8,31.3
				c-4.6,0.1-9.2,0.1-13.7-0.1c-43.4-1.6-85.2-16.9-119.3-43.7c-1,2-2.1,4-3.2,6c-0.3,0.6-0.7,1.3-1.1,1.9c-0.1,0.2-0.2,0.4-0.3,0.6
				c-0.4,0.8-0.9,1.5-1.4,2.3c-0.5,0.9-1.1,1.7-1.6,2.6C385.9,620.6,383.6,623.9,381.1,627.1z"/>
			<path id="Path_10194" class="st0" d="M126.8,554.7c0.1,0.8,0.2,1.6,0.3,2.4c0.1,0.8,0.2,1.6,0.4,2.4c0.1,0.8,0.3,1.6,0.4,2.4
				s0.3,1.6,0.5,2.4s0.3,1.6,0.5,2.4s0.3,1.6,0.5,2.4c0,0.1,0,0.2,0,0.2c0.3,1.5,0.7,3,1.1,4.4c0.3,1.3,0.7,2.6,1.1,3.9
				c0.4,1.3,0.8,2.6,1.2,3.9c18.3,55,68.7,93,126.6,95.4l1.2,0c42.1,1.3,82.5-16.7,109.7-48.8c0.8-1,1.7-2,2.5-3
				c0.8-1,1.6-2,2.4-3.1l0,0c0.6-0.8,1.2-1.6,1.7-2.4c0.7-1,1.5-2.1,2.2-3.1s1.4-2.1,2.1-3.2c0.6-0.9,1.1-1.8,1.7-2.7
				c0.3-0.4,0.5-0.8,0.8-1.3c0.3-0.5,0.7-1.1,1-1.7c0.6-1.1,1.2-2.1,1.8-3.2c-30.5,33.2-73.9,51.5-118.9,50.1l-1.3-0.1
				C204,652.1,149.2,612.8,126.8,554.7z"/>
			<path id="Path_10195" class="st0" d="M16.9,484.2c0.2,0.8,0.3,1.6,0.5,2.4c0.2,0.8,0.4,1.6,0.6,2.4c0.4,1.6,0.8,3.2,1.3,4.8
				s1,3.1,1.5,4.7c0.3,0.8,0.5,1.5,0.8,2.3c0.2,0.6,0.4,1.1,0.6,1.7s0.5,1.2,0.7,1.8s0.5,1.3,0.8,1.9c0.8,2,1.8,3.9,2.7,5.9
				c0.7,1.5,1.5,2.9,2.3,4.3c0,0,0,0,0,0c0.8,1.4,1.6,2.8,2.5,4.2c0.9,1.4,1.7,2.8,2.7,4.1c0.5,0.7,0.9,1.3,1.4,2
				c0.5,0.7,0.9,1.3,1.3,1.9c1.5,2.1,3.1,4.1,4.8,6c0.9,1.1,1.8,2.1,2.8,3.1c0.7,0.7,1.4,1.4,2.1,2.2c0.5,0.5,0.9,1,1.4,1.4
				c0.2,0.2,0.4,0.4,0.7,0.6c0.5,0.5,1,0.9,1.5,1.4c0.7,0.7,1.4,1.3,2.1,1.9c0.5,0.5,1.1,0.9,1.6,1.4c1.3,1.1,2.6,2.2,3.9,3.2
				c18.5,14.8,41.3,23.2,65,24c-0.2-0.8-0.4-1.6-0.6-2.4c-0.2-0.7-0.3-1.4-0.5-2.1c0-0.1-0.1-0.2-0.1-0.3c-0.2-0.7-0.3-1.5-0.5-2.3
				c-0.2-1.2-0.5-2.4-0.7-3.6c-0.3-1.8-0.6-3.7-0.9-5.6c-0.1-0.7-0.2-1.3-0.3-2.1c-0.2-1.2-0.3-2.4-0.4-3.6c-0.1-1-0.2-1.9-0.3-2.9
				c0-0.3-0.1-0.6-0.1-0.8c-0.1-1.1-0.2-2.2-0.2-3.2c0,0,0-0.1,0-0.1c-26-1.4-50.9-10.9-71.3-27.1C34.9,508.5,24.8,497.1,16.9,484.2
				z"/>
			<path id="Path_10196" d="M7.6,475.4c3.7,31.8,20,60.8,45.1,80.6c19.7,15.7,44,24.7,69.2,25.6c1,0,1.9,0,2.9,0.1
				c18.6,59.3,72.4,100.5,134.4,103.1l1.3,0c44.5,1.4,87.1-17.6,115.8-51.6c32.9,27.6,74.1,43.4,117,44.9c4.3,0.2,8.6,0.2,12.9,0.1
				c61.6-1.8,118.7-32.4,154.3-82.7c3.6-5.1,6.9-10.3,10.1-15.7c2.3-0.3,4.5-0.6,6.8-1c61.7-11,107.4-63.6,109.6-126.2
				c2.3-59.2-34.9-112.9-91.1-131.6c-12.4-57.3-61.8-99-120.4-101.4c-11.1-0.4-22.2,0.6-33.1,3.1c-34.9-39.3-84.4-62.7-136.9-64.8
				c-57.7-2.1-113.2,21.7-151.5,64.9c-11.3-3.2-23-5.1-34.7-5.5c-80.1-2.6-147.8,58.9-152.8,138.9C24.8,380.8,1.8,427.6,7.6,475.4z
				 M65.8,365.6c1.3-0.9,2.6-1.7,3.9-2.4c1.3-0.8,2.6-1.5,4-2.2c3.1-1.7,6.4-3.2,9.7-4.6l0.5-0.2c2-0.8,2.9-3.1,2.1-5.1c0,0,0,0,0,0
				c-0.8-2-3-2.9-5-2.2c0,0,0,0,0,0c-2.2,0.9-4.4,1.9-6.6,3c7.2-73.7,70.4-129.1,144.4-126.6c9.9,0.4,19.8,1.8,29.4,4.2
				c1.4,0.3,2.8,0.7,4.1,1.1c1.3,0.4,2.7,0.8,4.1,1.2c7.2,2.3,14.2,5.3,20.9,8.8c0.5,0.2,1.1,0.5,1.6,0.8c1.9,1,4.3,0.3,5.2-1.6
				c0,0,0,0,0,0c1-1.9,0.3-4.3-1.6-5.3c-6.6-3.5-13.4-6.5-20.5-9c36.7-39.8,89-61.6,143.1-59.7c49.1,1.9,95.3,23.2,128.7,59.2
				c-7.7,2.3-15.2,5.4-22.4,9.1c-1.9,1-2.6,3.4-1.6,5.3c1,1.9,3.3,2.6,5.2,1.7c0,0,0,0,0.1,0c0.4-0.2,0.8-0.4,1.3-0.6
				c7.4-3.8,15.2-6.8,23.3-9c1.4-0.4,2.8-0.7,4.2-1.1c1.4-0.3,2.9-0.6,4.3-0.9c8.9-1.7,18-2.4,27-2.1c53.4,2.2,99,39.3,112.1,91.2
				c0.4,1.4,0.7,2.9,1,4.3c0.3,1.4,0.6,2.9,0.9,4.3c1.5,8.6,2.2,17.4,1.8,26.1c-0.5,14-3.4,27.9-8.6,40.9c-0.2,0.5-0.3,0.9-0.5,1.3
				c-0.9,2,0.1,4.2,2,5.1c0,0,0,0,0.1,0c0.4,0.2,0.9,0.3,1.3,0.3c1.6,0.1,3.1-0.9,3.7-2.4c5.9-14.3,9.2-29.5,9.7-45
				c0.3-7.9-0.1-15.8-1.3-23.7c50.8,18.9,83.8,68.2,81.7,122.4c-0.3,6.7-1,13.5-2.4,20.1c-0.1,0.7-0.3,1.3-0.4,2
				c-0.2,1-0.5,2.1-0.7,3.1c-0.2,0.7-0.4,1.4-0.5,2.1c-0.3,1-0.5,1.9-0.8,2.9c-0.2,0.8-0.5,1.6-0.7,2.4c-0.6,1.9-1.2,3.7-1.9,5.6
				c-0.2,0.6-0.5,1.3-0.7,1.9c-1.5,3.9-3.2,7.7-5,11.4c-0.3,0.6-0.7,1.3-1,1.9c-0.6,1.2-1.3,2.5-2,3.7c-0.4,0.6-0.7,1.3-1.1,1.9
				c-0.2,0.4-0.5,0.9-0.8,1.3c-0.4,0.7-0.9,1.4-1.3,2.1c-3.2,5.1-6.8,9.9-10.7,14.5c-4.1,4.8-8.6,9.3-13.3,13.4
				c-0.6,0.5-1.2,1-1.8,1.5c-1.2,1-2.4,2-3.7,3s-2.5,1.9-3.8,2.8c-0.6,0.5-1.3,0.9-2,1.4c-0.5,0.4-1.1,0.7-1.7,1.1
				c-0.7,0.5-1.5,1-2.3,1.5c-0.7,0.4-1.3,0.8-2,1.2c-0.7,0.4-1.3,0.8-2.1,1.2s-1.4,0.8-2.1,1.2c-6.4,3.5-13.1,6.5-20,8.8
				c-0.6,0.2-1.2,0.4-1.9,0.6c-0.8,0.2-1.5,0.5-2.3,0.7c-1.6,0.5-3.1,0.9-4.7,1.3c-1.7,0.5-3.4,0.9-5.2,1.2c-1.7,0.4-3.5,0.7-5.2,1
				c-1.6,0.3-3.2,0.5-4.7,0.7c-1.6,0.2-3.1,0.4-4.7,0.5c-5.1,0.4-10.3,0.6-15.4,0.4c-2.1-0.1-4,1.6-4,3.8c-0.1,2.1,1.6,4,3.7,4.1
				c0,0,0,0,0,0c3.7,0.1,7.3,0.1,10.9,0c-1,1.6-2,3.2-3,4.8c0,0.1-0.1,0.1-0.1,0.2c-0.9,1.4-1.9,2.8-2.9,4.2
				c-0.1,0.2-0.3,0.5-0.5,0.7c-1.1,1.5-2.1,3-3.2,4.5c-1.1,1.5-2.3,3-3.4,4.5c-0.1,0.2-0.2,0.3-0.3,0.4c-1,1.2-2,2.4-3,3.6
				c-0.2,0.3-0.5,0.6-0.7,0.9c-1.1,1.3-2.2,2.6-3.4,3.9c-1.2,1.3-2.4,2.6-3.7,3.9c-0.2,0.3-0.5,0.6-0.8,0.8
				c-1.1,1.1-2.3,2.3-3.4,3.4c0,0,0,0,0,0c-2.1,2.1-4.2,4-6.4,6c-0.2,0.2-0.4,0.4-0.6,0.6c-0.9,0.8-1.8,1.5-2.7,2.3
				c-2.1,1.7-4.1,3.5-6.2,5.1c-0.3,0.2-0.6,0.5-0.9,0.7c-1,0.8-2.1,1.6-3.1,2.4c-1.2,0.9-2.4,1.7-3.5,2.6c-1.2,0.9-2.4,1.7-3.6,2.5
				c-1.2,0.8-2.4,1.6-3.6,2.4c-1.2,0.7-2.3,1.5-3.5,2.2c-0.2,0.2-0.5,0.3-0.7,0.4c-1.1,0.6-2.1,1.3-3.2,1.9c-1,0.6-1.9,1.1-2.9,1.6
				c-0.5,0.3-0.9,0.5-1.4,0.8c-1.1,0.6-2.3,1.2-3.4,1.8c-1.1,0.6-2.3,1.2-3.5,1.7c-0.3,0.1-0.6,0.3-0.9,0.4
				c-1.2,0.6-2.3,1.1-3.5,1.6s-2.2,1-3.4,1.5c-0.3,0.1-0.7,0.3-1,0.4c-1.1,0.5-2.2,0.9-3.3,1.4c-3.1,1.3-6.2,2.4-9.3,3.5
				c-1.1,0.4-2.3,0.8-3.4,1.1c-0.1,0.1-0.2,0.1-0.3,0.1c-1.3,0.4-2.6,0.8-3.8,1.2c0,0-0.1,0-0.1,0c-1.1,0.3-2.3,0.7-3.4,1
				c-1.9,0.5-3.7,1-5.6,1.5c-1.2,0.3-2.5,0.6-3.7,0.9c-1.1,0.3-2.3,0.5-3.4,0.7c-0.6,0.1-1.2,0.2-1.8,0.3c-1.2,0.2-2.3,0.5-3.5,0.6
				c-1.2,0.2-2.3,0.4-3.4,0.6c-0.6,0.1-1.2,0.2-1.8,0.3c-1.2,0.2-2.4,0.3-3.6,0.5c0,0-0.1,0-0.1,0c-1.4,0.2-2.9,0.3-4.3,0.5
				c-2.7,0.3-5.5,0.5-8.2,0.6c-0.5,0-1,0.1-1.5,0.1c-1.3,0.1-2.5,0.1-3.8,0.1c-45.5,1.3-89.9-14-124.8-43.2c2.4-3.2,4.7-6.5,6.9-9.9
				c0.5-0.9,1.1-1.7,1.6-2.6c0.5-0.8,0.9-1.5,1.4-2.3c0.1-0.2,0.2-0.4,0.3-0.6c0.4-0.6,0.7-1.3,1.1-1.9c1.1-2,2.2-3.9,3.2-6
				c0,0,0,0,0,0c0.6-1.3,1.2-2.5,1.8-3.8c0.1-0.2,0.2-0.4,0.3-0.6c0.6-1.3,1.2-2.7,1.8-4c0.9-2,0-4.3-2-5.2c-2-0.9-4.3,0-5.1,2
				c0,0,0,0,0,0c-0.1,0.2-0.1,0.4-0.2,0.5c-0.6,1.5-1.3,2.9-2,4.4c-0.4,0.9-0.8,1.8-1.3,2.7c-0.4,0.9-0.9,1.7-1.3,2.6
				c-0.3,0.6-0.7,1.3-1,1.9c0,0,0,0,0,0.1c-0.6,1.1-1.2,2.1-1.8,3.2c-0.3,0.6-0.6,1.1-1,1.7c-0.2,0.4-0.5,0.8-0.8,1.3
				c-0.6,0.9-1.1,1.8-1.7,2.7c-0.7,1.1-1.4,2.1-2.1,3.2c-0.7,1-1.4,2.1-2.2,3.1c-0.6,0.8-1.1,1.6-1.7,2.4l0,0
				c-0.8,1.1-1.6,2.1-2.4,3.1c-0.8,1-1.6,2-2.5,3c-27.2,32.2-67.6,50.2-109.7,48.9l-1.2,0c-57.9-2.4-108.3-40.4-126.6-95.4
				c-0.4-1.3-0.9-2.6-1.2-3.9c-0.4-1.3-0.8-2.6-1.1-3.9c-0.4-1.5-0.8-3-1.1-4.4c0-0.1,0-0.2,0-0.2c-0.2-0.8-0.4-1.6-0.5-2.4
				c-0.1-0.8-0.3-1.6-0.5-2.4c-0.2-0.8-0.3-1.6-0.5-2.4s-0.3-1.6-0.4-2.4c-0.1-0.8-0.3-1.6-0.4-2.4c-0.1-0.8-0.2-1.6-0.3-2.4l0,0
				c-0.3-2-0.5-4-0.6-6c-0.1-1-0.2-2-0.2-3s-0.1-2.2-0.2-3.3c0-0.2,0-0.5,0-0.7c0-0.6-0.1-1.3-0.1-2c-0.1-2.3,0-4.6,0-6.9
				c0.1-3.6,0.3-7.1,0.7-10.6l0.1,0l-0.1-0.2c0-0.1,0-0.3,0.1-0.4c0.1-1.1-0.2-2.2-0.9-3c-0.6-0.7-1.5-1.2-2.5-1.3
				c-2.1-0.2-4,1.3-4.3,3.4c0,0,0,0,0,0.1c-0.4,3.9-0.7,7.9-0.8,11.8c-0.1,2.1-0.1,4.1,0,6.1c0,0.8,0,1.6,0,2.4
				c0,0.9,0.1,1.9,0.1,2.9c0,0.3,0,0.7,0.1,1c0,0,0,0.1,0,0.1c0,1.1,0.1,2.2,0.2,3.2c0,0.3,0,0.6,0.1,0.8c0.1,1,0.2,1.9,0.3,2.9
				c0.1,1.2,0.2,2.4,0.4,3.6c0.1,0.7,0.2,1.3,0.3,2c0.2,1.9,0.5,3.7,0.9,5.6c0.2,1.2,0.4,2.4,0.7,3.6c0.2,0.7,0.3,1.5,0.5,2.3
				c0,0.1,0,0.2,0.1,0.3c0.2,0.7,0.3,1.4,0.5,2.1c0.2,0.8,0.4,1.6,0.6,2.4c-23.7-0.8-46.5-9.2-65-24c-1.3-1-2.6-2.1-3.9-3.2
				c-0.5-0.4-1.1-0.9-1.6-1.4c-0.7-0.6-1.4-1.3-2.1-1.9c-0.5-0.4-1-0.9-1.5-1.4c-0.2-0.2-0.4-0.4-0.7-0.6c-0.5-0.5-1-1-1.4-1.4
				c-0.7-0.7-1.4-1.4-2.1-2.2c-0.9-1-1.8-2.1-2.8-3.1c-1.7-2-3.3-4-4.8-6c-0.5-0.6-0.9-1.2-1.3-1.9s-1-1.3-1.4-2
				c-0.9-1.3-1.8-2.7-2.7-4.1s-1.7-2.7-2.5-4.2c0,0,0,0,0,0c-0.8-1.4-1.5-2.9-2.3-4.3c-1-1.9-1.9-3.9-2.7-5.9
				c-0.3-0.6-0.6-1.3-0.8-1.9c-0.3-0.6-0.5-1.2-0.7-1.8c-0.2-0.6-0.4-1.1-0.6-1.7c-0.3-0.8-0.6-1.5-0.8-2.3
				c-0.6-1.5-1.1-3.1-1.5-4.7s-0.9-3.2-1.3-4.8c-0.2-0.8-0.4-1.6-0.6-2.4s-0.4-1.6-0.5-2.4s-0.3-1.6-0.5-2.4
				c-0.5-2.4-0.8-4.9-1.1-7.4C10.2,431.5,29.7,389.4,65.8,365.6L65.8,365.6z"/>
			<path id="Path_10197" class="st1" d="M15.3,474.4c0.3,2.5,0.7,4.9,1.1,7.4c0.2,0.8,0.3,1.6,0.5,2.4c7.9,12.9,18,24.2,29.9,33.6
				c20.4,16.2,45.3,25.7,71.3,27.1c0-0.3,0-0.7,0-1c-0.1-1-0.1-1.9-0.1-2.9c0-0.8,0-1.6,0-2.4c0-2,0-4.1,0-6.1
				c0.1-3.9,0.4-7.9,0.8-11.8c0.2-2.1,2.1-3.7,4.2-3.5c0,0,0,0,0.1,0c1,0.1,1.9,0.6,2.5,1.3c0.7,0.8,1.1,1.9,0.9,3
				c0,0.2,0,0.3-0.1,0.4l0.1,0.2l-0.1,0c-0.4,3.5-0.6,7.1-0.7,10.6c-0.1,2.3-0.1,4.6,0,6.9c0,0.7,0,1.3,0,2c0,0.2,0,0.5,0,0.7
				c0.1,1.1,0.1,2.2,0.2,3.3c0.1,1.1,0.1,2.1,0.2,3c0.2,2,0.4,4,0.6,6l0,0c22.4,58.1,77.2,97.4,139.5,99.9l1.3,0.1
				c45.1,1.4,88.5-16.9,118.9-50.1c0,0,0,0,0,0c0.3-0.6,0.7-1.2,1-1.9c0.4-0.9,0.9-1.7,1.3-2.6s0.9-1.8,1.3-2.7
				c0.7-1.4,1.4-2.9,2-4.4c0.1-0.2,0.1-0.4,0.2-0.5c0.8-2,3.1-2.9,5.1-2.1c0,0,0,0,0,0c2,0.9,2.9,3.2,2,5.2v0
				c-0.6,1.3-1.2,2.7-1.8,4l-0.3,0.6c-0.6,1.3-1.2,2.5-1.8,3.8c0,0,0,0,0,0c34.1,26.8,75.9,42.1,119.3,43.7c4.5,0.2,9.1,0.2,13.7,0
				c36.8-1,72.6-11.8,103.8-31.3h0c1.2-1.2,2.3-2.3,3.4-3.5c0.3-0.3,0.5-0.5,0.8-0.8c1.2-1.3,2.5-2.6,3.6-3.9s2.3-2.6,3.4-3.9
				c0.3-0.3,0.5-0.6,0.7-0.9c1-1.2,2-2.4,3-3.6c0.1-0.1,0.2-0.3,0.3-0.4c1.2-1.5,2.3-2.9,3.4-4.5c1.1-1.5,2.2-2.9,3.2-4.5
				c0.2-0.2,0.3-0.4,0.5-0.7c1-1.4,1.9-2.8,2.9-4.2c0.1-0.1,0.1-0.1,0.1-0.2c1-1.6,2.1-3.2,3-4.8c-3.6,0.2-7.3,0.2-10.9,0
				c-2.1-0.1-3.8-1.9-3.7-4c0,0,0,0,0,0c0.1-2.1,1.9-3.8,4-3.8c0,0,0,0,0,0c5.1,0.2,10.3,0.1,15.4-0.4c1.6-0.1,3.1-0.3,4.7-0.5
				c1.6-0.2,3.2-0.4,4.7-0.7c1.8-0.3,3.5-0.6,5.2-1c1.7-0.4,3.5-0.8,5.2-1.2c1.6-0.4,3.1-0.8,4.7-1.3c0.8-0.2,1.5-0.5,2.3-0.7
				c0.6-0.2,1.2-0.4,1.9-0.6c6.9-2.3,13.6-5.3,20-8.8c0.7-0.4,1.4-0.8,2.1-1.2c0.7-0.4,1.4-0.8,2.1-1.2c0.7-0.4,1.3-0.8,2-1.2
				c0.8-0.5,1.5-1,2.3-1.5c0.6-0.4,1.1-0.7,1.7-1.1c0.7-0.4,1.3-0.9,1.9-1.4c1.3-0.9,2.6-1.8,3.8-2.8c1.2-1,2.5-2,3.7-3
				c0.6-0.5,1.2-1,1.8-1.5c4.8-4.1,9.2-8.6,13.3-13.4c3.9-4.6,7.5-9.4,10.7-14.5c0.4-0.7,0.9-1.4,1.3-2.1c0.3-0.4,0.5-0.9,0.8-1.3
				c0.4-0.6,0.8-1.3,1.1-1.9c0.7-1.2,1.4-2.4,2-3.7c0.3-0.6,0.7-1.3,1-2c1.9-3.7,3.5-7.5,5-11.4c0.2-0.6,0.5-1.3,0.7-1.9
				c0.7-1.8,1.3-3.7,1.9-5.6c0.2-0.8,0.5-1.6,0.7-2.4c0.3-0.9,0.5-1.9,0.8-2.9c0.2-0.7,0.4-1.4,0.5-2.1c0.2-1,0.5-2.1,0.7-3.1
				c0.1-0.7,0.3-1.3,0.4-2c1.3-6.6,2.1-13.3,2.3-20.1c2.1-54.2-30.9-103.6-81.7-122.4c1.1,7.8,1.5,15.8,1.3,23.7
				c-0.5,15.4-3.8,30.7-9.7,45c-0.6,1.5-2.1,2.5-3.7,2.4c-0.5,0-0.9-0.1-1.3-0.3c-2-0.8-2.9-3.1-2.1-5.1c0,0,0,0,0-0.1
				c0.2-0.4,0.3-0.9,0.5-1.3c5.2-13,8.1-26.9,8.6-40.9c0.3-8.7-0.3-17.5-1.8-26.1c-0.2-1.4-0.5-2.9-0.8-4.3c-0.3-1.4-0.7-2.9-1-4.3
				c-13.1-51.8-58.7-88.9-112.1-91.2c-9.1-0.3-18.1,0.4-27,2.1c-1.4,0.3-2.9,0.6-4.3,0.9c-1.4,0.3-2.8,0.7-4.2,1.1
				c-8.1,2.1-15.9,5.1-23.3,9c-0.4,0.2-0.8,0.4-1.3,0.6c-1.9,1-4.2,0.3-5.2-1.6c0,0,0,0,0,0c-1-1.9-0.3-4.3,1.6-5.3
				c7.2-3.8,14.7-6.8,22.4-9.2c-33.4-36-79.7-57.3-128.7-59.2c-54.1-1.9-106.4,19.9-143.1,59.7c7,2.4,13.9,5.4,20.5,9
				c1.9,1,2.6,3.4,1.6,5.3c-1,1.9-3.3,2.7-5.2,1.7c0,0,0,0,0,0c-0.5-0.3-1.1-0.6-1.6-0.8c-6.7-3.5-13.7-6.4-20.9-8.7
				c-1.3-0.4-2.7-0.9-4.1-1.2s-2.7-0.8-4.1-1.1c-9.6-2.5-19.5-3.9-29.4-4.2c-74-2.4-137.1,53-144.4,126.6c2.2-1,4.4-2.1,6.6-3
				c2-0.8,4.2,0.1,5,2.1c0,0,0,0,0,0c0.8,2-0.1,4.3-2.1,5.1c0,0,0,0,0,0l-0.5,0.2c-3.3,1.4-6.6,2.9-9.7,4.6c-1.3,0.7-2.7,1.5-4,2.2
				c-1.3,0.8-2.6,1.6-3.9,2.4C29.7,389.4,10.1,431.5,15.3,474.4z"/>
		</g>
		<g id="Group_10592" transform="translate(25.54)">
			<path id="Path_10198" class="st0" d="M117.4,147.2c0,0.3,0.1,0.6,0.1,0.9c0.6,3.9,2.9,7.3,6.3,9.4c3,2,6.4,3,10,3.1h0.4
				c1.1,0,2,0.7,2.4,1.7c3.5,7.8,11.2,12.7,19.8,12.7h0.2c0.3,0,0.5,0,0.8,0c0.6,0,1.1,0,1.7-0.1c0.6-0.1,1.2-0.1,1.7-0.2
				c0.6-0.1,1.2-0.2,1.8-0.3c0.5-0.1,1-0.2,1.5-0.4h0c0.5-0.1,1-0.3,1.5-0.5c1-0.4,2.1-0.8,3-1.4c0.5-0.3,1-0.5,1.4-0.8
				c-2.5,0.6-5.2,0.8-7.8,0.7h-0.2c-10.9,0.1-20.9-6.3-25.4-16.3c-0.5-1.3-1.7-2.2-3.1-2.2h-0.6c-4.6-0.1-9-1.5-12.8-4
				C119.2,148.8,118.3,148,117.4,147.2z"/>
			<path id="Path_10199" d="M112.3,148.8c0.9,5.4,4,10.1,8.6,13.1c3.4,2.3,7.4,3.6,11.5,3.9c4.6,8.8,13.8,14.4,23.8,14.4h0.2h0.8
				c6.8,0.1,13.4-2.2,18.6-6.5c5.7,3.5,12.2,5.4,18.9,5.6c0.8,0,1.5,0,2.3,0c8.8-0.1,17.3-3.3,23.9-9.1c1.2-1,2.3-2.2,3.3-3.4
				c0.4-0.4,0.8-0.9,1.1-1.4l0,0c10.7-1,19.1-9.4,20.2-20.1c0-9.5-6.3-17.9-15.5-20.6c-3.6-8.9-12.2-14.7-21.8-14.7
				c-1.6,0-3.1,0-4.7,0.3c-6.5-5.5-14.7-8.6-23.2-8.8c-9.4-0.4-18.6,2.8-25.7,8.8c-1.6-0.3-3.2-0.5-4.9-0.5
				c-13-1.2-24.8,7.5-27.6,20.3c-4.2,2.3-7.4,6.1-9,10.6C112.2,143.3,111.9,146.1,112.3,148.8z M117.4,147.1
				c-0.1-5.6,3.2-10.8,8.3-13c0.8-0.4,1.4-1.2,1.4-2.1c0.8-9.7,10.8-17.3,22.4-16.9c1.7,0,3.5,0.3,5.2,0.7c0.9,0.2,1.8-0.1,2.4-0.7
				c6.3-5.7,14.5-8.7,23-8.3c7.7,0.2,15.1,3.1,20.8,8.3c0.6,0.6,1.5,0.8,2.3,0.7c1.6-0.3,3.2-0.4,4.9-0.4
				c7.8-0.2,14.9,4.8,17.3,12.2c0.2,0.9,0.9,1.6,1.8,1.9c7.5,1.6,12.9,8.1,13.1,15.7c-1,8.1-7.6,14.4-15.8,15.1
				c-0.3,0.1-0.7,0.1-1,0.1c-0.8,0.1-1.5,0.5-1.9,1.1c-0.5,0.7-1,1.4-1.5,2c-2.6,3.1-5.9,5.6-9.6,7.3c0,0,0,0,0,0
				c-0.5,0.2-1,0.5-1.5,0.7c-0.4,0.2-0.8,0.3-1.2,0.5c-0.7,0.3-1.4,0.5-2.1,0.7c-0.6,0.2-1.1,0.3-1.7,0.5c-0.6,0.1-1,0.2-1.5,0.3
				c-0.3,0.1-0.5,0.1-0.8,0.1c-1,0.2-2,0.3-3,0.4c-0.6,0-1.2,0.1-1.8,0.1c-0.7,0-1.3,0-2,0c-0.8,0-1.5-0.1-2.3-0.2s-1.5-0.2-2.3-0.3
				c-0.4-0.1-0.8-0.1-1.2-0.2c-0.5-0.1-0.9-0.2-1.4-0.3c-0.6-0.2-1.3-0.3-1.9-0.5c-0.7-0.2-1.4-0.5-2.1-0.7l0,0
				c-0.6-0.2-1.1-0.5-1.7-0.7c-0.2-0.1-0.4-0.2-0.6-0.3c-0.5-0.2-0.9-0.4-1.3-0.7c-0.2-0.1-0.4-0.2-0.6-0.3
				c-0.6-0.3-1.2-0.7-1.8-1.1l0,0c-0.2-0.1-0.5-0.3-0.7-0.4c-0.4-0.3-0.9-0.5-1.5-0.5c-0.7,0-1.3,0.3-1.8,0.8
				c-0.3,0.3-0.5,0.5-0.8,0.8c-0.5,0.4-1,0.9-1.5,1.3c-0.3,0.2-0.7,0.5-1.1,0.7l0,0c-0.5,0.3-0.9,0.6-1.4,0.8c-1,0.5-2,1-3,1.4
				c-0.5,0.2-1,0.4-1.5,0.5h0c-0.5,0.2-1,0.3-1.5,0.4c-0.6,0.1-1.2,0.2-1.8,0.3c-0.6,0.1-1.1,0.1-1.7,0.2c-0.6,0-1.1,0.1-1.7,0.1
				c-0.3,0-0.5,0-0.8,0h-0.2c-8.5,0.1-16.3-4.9-19.8-12.6c-0.4-1-1.3-1.7-2.4-1.7h-0.4c-3.6-0.1-7-1.2-10-3.1
				c-3.4-2.1-5.6-5.5-6.3-9.4c0-0.3-0.1-0.6-0.1-0.9L117.4,147.1z"/>
			<path id="Path_10200" class="st1" d="M117.4,147.1L117.4,147.1c0.9,0.9,1.9,1.7,2.9,2.4c3.8,2.5,8.3,3.9,12.8,4h0.6
				c1.4,0.1,2.6,0.9,3.1,2.2c4.5,10,14.4,16.4,25.4,16.2h0.2c2.6,0.1,5.2-0.1,7.8-0.7l0,0c0.4-0.2,0.8-0.5,1.1-0.7
				c0.5-0.4,1.1-0.8,1.5-1.3c0.3-0.2,0.5-0.5,0.8-0.8c0.5-0.5,1.1-0.8,1.8-0.8c0.5,0,1,0.2,1.5,0.5c0.2,0.2,0.4,0.3,0.7,0.4l0,0
				c0.6,0.4,1.1,0.8,1.8,1.1c0.2,0.1,0.4,0.2,0.6,0.3c0.4,0.3,0.9,0.5,1.3,0.7c0.2,0.1,0.4,0.2,0.6,0.3c0.5,0.3,1.1,0.5,1.6,0.7l0,0
				c0.7,0.3,1.4,0.5,2.1,0.7c0.6,0.2,1.3,0.4,1.9,0.5c0.5,0.1,0.9,0.2,1.4,0.3c0.4,0.1,0.8,0.2,1.2,0.2c0.8,0.1,1.5,0.2,2.3,0.3
				c0.8,0.1,1.5,0.1,2.3,0.2c0.6,0,1.3,0,2,0c0.6,0,1.2,0,1.8-0.1c1-0.1,2-0.2,3-0.4c0.3,0,0.5-0.1,0.8-0.1c0.5-0.1,1-0.2,1.5-0.3
				c0.5-0.1,1.1-0.3,1.7-0.5c0.7-0.2,1.4-0.4,2.1-0.7c0.4-0.2,0.8-0.3,1.2-0.5c0.5-0.2,1-0.4,1.5-0.7c0,0,0,0,0,0
				c3.7-1.7,7-4.2,9.6-7.3c0.5-0.7,1-1.3,1.5-2c0.4-0.6,1.1-1,1.9-1.1c0.3,0,0.7-0.1,1-0.1c8.2-0.7,14.8-7,15.8-15.1
				c-0.2-7.6-5.6-14.1-13.1-15.7c-0.9-0.2-1.6-1-1.8-1.9c-2.5-7.4-9.5-12.3-17.3-12.2c-1.6,0-3.3,0.1-4.9,0.4
				c-0.8,0.2-1.7-0.1-2.3-0.7c-5.7-5.2-13.1-8.2-20.8-8.3c-8.5-0.4-16.8,2.6-23,8.3c-0.6,0.6-1.5,0.9-2.4,0.7
				c-1.7-0.4-3.4-0.7-5.2-0.7c-11.7-0.3-21.7,7.2-22.4,16.9c-0.1,0.9-0.6,1.7-1.4,2.1C120.4,136.4,117.2,141.5,117.4,147.1z"/>
		</g>
		<g id="Group_10593" transform="translate(108.943 12.976)">
			<path id="Path_10201" class="st0" d="M458.7,174.4c0,0.1,0,0.2,0,0.4c0.3,1.6,1.2,3.1,2.7,4c1.3,0.8,2.7,1.3,4.2,1.3h0.2
				c0.5,0,0.9,0.3,1,0.7c1.5,3.3,4.8,5.4,8.4,5.4h0.1h0.3c0.2,0,0.5,0,0.7,0c0.3,0,0.5,0,0.7-0.1c0.2,0,0.5-0.1,0.8-0.1
				s0.4-0.1,0.6-0.2l0,0c0.2-0.1,0.5-0.1,0.7-0.2c0.4-0.2,0.9-0.3,1.3-0.6c0.2-0.1,0.4-0.2,0.6-0.3c-1.1,0.2-2.2,0.3-3.3,0.3h-0.1
				c-4.6,0.1-8.9-2.6-10.7-6.9c-0.2-0.5-0.7-0.9-1.3-0.9h-0.3c-1.9,0-3.8-0.6-5.4-1.7C459.5,175.1,459.1,174.8,458.7,174.4z"/>
			<path id="Path_10202" d="M456.6,175.1c0.4,2.3,1.7,4.3,3.6,5.5c1.5,1,3.1,1.5,4.9,1.7c2,3.7,5.8,6.1,10.1,6.1h0.1h0.3
				c2.9,0,5.7-0.9,7.9-2.8c2.4,1.5,5.2,2.3,8,2.4c0.3,0,0.7,0,1,0c3.7-0.1,7.3-1.4,10.1-3.8c0.5-0.4,1-0.9,1.4-1.4
				c0.2-0.2,0.4-0.4,0.5-0.6l0,0c4.5-0.4,8.1-4,8.6-8.5c0-4-2.7-7.6-6.5-8.7c-1.5-3.8-5.2-6.2-9.2-6.2c-0.7,0-1.3,0-2,0.1
				c-2.8-2.3-6.2-3.7-9.8-3.7c-4-0.2-7.9,1.2-10.9,3.7c-0.7-0.1-1.4-0.2-2.1-0.2c-5.5-0.5-10.5,3.2-11.7,8.6c-1.8,1-3.1,2.6-3.8,4.5
				C456.5,172.8,456.4,174,456.6,175.1z M458.7,174.4c-0.1-2.4,1.3-4.6,3.5-5.5c0.3-0.2,0.6-0.5,0.6-0.9c0.8-4.5,4.9-7.6,9.5-7.2
				c0.7,0,1.5,0.1,2.2,0.3c0.4,0.1,0.8,0,1-0.3c2.6-2.4,6.2-3.7,9.7-3.5c3.3,0.1,6.4,1.3,8.8,3.5c0.3,0.2,0.6,0.3,1,0.3
				c0.7-0.1,1.4-0.2,2.1-0.2c3.3-0.1,6.3,2,7.3,5.1c0.1,0.4,0.4,0.7,0.8,0.8c3.2,0.7,5.4,3.4,5.5,6.6c-0.4,3.4-3.2,6.1-6.7,6.4
				c-0.1,0-0.3,0-0.4,0c-0.3,0-0.6,0.2-0.8,0.5c-0.2,0.3-0.4,0.6-0.6,0.8c-1.1,1.3-2.5,2.4-4.1,3.1l0,0c-0.2,0.1-0.4,0.2-0.7,0.3
				c-0.2,0.1-0.3,0.1-0.5,0.2c-0.3,0.1-0.6,0.2-0.9,0.3c-0.2,0.1-0.5,0.1-0.7,0.2s-0.4,0.1-0.7,0.1c-0.1,0-0.2,0-0.3,0.1
				c-0.4,0.1-0.8,0.1-1.3,0.2c-0.3,0-0.5,0-0.8,0c-0.3,0-0.6,0-0.8,0c-0.3,0-0.7,0-1-0.1s-0.7-0.1-1-0.1c-0.2,0-0.3-0.1-0.5-0.1
				c-0.2,0-0.4-0.1-0.6-0.1c-0.3-0.1-0.5-0.1-0.8-0.2c-0.3-0.1-0.6-0.2-0.9-0.3l0,0c-0.2-0.1-0.5-0.2-0.7-0.3
				c-0.1,0-0.2-0.1-0.3-0.1c-0.2-0.1-0.4-0.2-0.6-0.3c-0.1,0-0.2-0.1-0.2-0.1c-0.3-0.1-0.5-0.3-0.7-0.5l0,0
				c-0.1-0.1-0.2-0.1-0.3-0.2c-0.2-0.1-0.4-0.2-0.6-0.2c-0.3,0-0.6,0.1-0.8,0.3c-0.1,0.1-0.2,0.2-0.3,0.3c-0.2,0.2-0.4,0.4-0.7,0.5
				c-0.1,0.1-0.3,0.2-0.5,0.3l0,0c-0.2,0.1-0.4,0.2-0.6,0.3c-0.4,0.2-0.8,0.4-1.3,0.6c-0.2,0.1-0.4,0.2-0.7,0.2l0,0
				c-0.2,0.1-0.4,0.1-0.6,0.2c-0.3,0.1-0.5,0.1-0.8,0.1c-0.3,0-0.5,0.1-0.7,0.1c-0.2,0-0.5,0-0.7,0h-0.3h-0.1
				c-3.6,0-6.9-2.1-8.4-5.4c-0.2-0.4-0.6-0.7-1-0.7h-0.2c-1.5,0-3-0.5-4.2-1.3c-1.4-0.9-2.4-2.3-2.7-4
				C458.8,174.6,458.8,174.5,458.7,174.4L458.7,174.4z"/>
			<path id="Path_10203" class="st1" d="M458.7,174.4L458.7,174.4c0.4,0.4,0.8,0.7,1.2,1c1.6,1.1,3.5,1.7,5.4,1.7h0.2
				c0.6,0,1.1,0.4,1.3,0.9c1.9,4.2,6.1,6.9,10.7,6.9h0.1c1.1,0,2.2-0.1,3.3-0.3l0,0c0.2-0.1,0.3-0.2,0.5-0.3
				c0.2-0.2,0.4-0.4,0.7-0.5c0.1-0.1,0.2-0.2,0.3-0.3c0.2-0.2,0.5-0.3,0.8-0.3c0.2,0,0.4,0.1,0.6,0.2c0.1,0.1,0.2,0.1,0.3,0.2l0,0
				c0.2,0.2,0.5,0.3,0.7,0.5l0.2,0.1c0.2,0.1,0.4,0.2,0.6,0.3c0.1,0,0.2,0.1,0.3,0.1c0.2,0.1,0.5,0.2,0.7,0.3l0,0
				c0.3,0.1,0.6,0.2,0.9,0.3s0.5,0.2,0.8,0.2c0.2,0.1,0.4,0.1,0.6,0.1c0.2,0,0.3,0.1,0.5,0.1c0.3,0.1,0.6,0.1,1,0.1
				c0.3,0,0.7,0.1,1,0.1c0.3,0,0.6,0,0.8,0c0.3,0,0.5,0,0.8,0c0.4,0,0.9-0.1,1.3-0.2c0.1,0,0.2,0,0.3-0.1c0.2,0,0.4-0.1,0.7-0.1
				c0.2-0.1,0.5-0.1,0.7-0.2s0.6-0.2,0.9-0.3c0.2-0.1,0.3-0.1,0.5-0.2c0.2-0.1,0.4-0.2,0.7-0.3l0,0c1.6-0.7,3-1.8,4.1-3.1
				c0.2-0.3,0.4-0.6,0.6-0.8c0.2-0.3,0.5-0.4,0.8-0.5l0.4,0c3.5-0.3,6.2-3,6.7-6.4c-0.1-3.2-2.4-6-5.5-6.6c-0.4-0.1-0.7-0.4-0.8-0.8
				c-1.1-3.1-4-5.2-7.3-5.1c-0.7,0-1.4,0-2.1,0.2c-0.3,0.1-0.7,0-1-0.3c-2.4-2.2-5.5-3.5-8.8-3.5c-3.6-0.2-7.1,1.1-9.7,3.5
				c-0.3,0.3-0.7,0.4-1,0.3c-0.7-0.2-1.5-0.3-2.2-0.3c-4.6-0.5-8.7,2.7-9.5,7.2c0,0.4-0.3,0.7-0.6,0.9
				C460.1,169.9,458.7,172.1,458.7,174.4z"/>
		</g>
		<g id="Group_10594" transform="translate(137.28 30.637)">
			<path id="Path_10204" class="st0" d="M576.7,256.3c0,0.2,0,0.3,0.1,0.5c0.4,2.4,1.8,4.5,3.9,5.8c1.8,1.2,4,1.9,6.2,1.9h0.3
				c0.7,0,1.2,0.4,1.5,1.1c2.2,4.8,7,7.9,12.2,7.8h0.1h0.5c0.4,0,0.7,0,1.1,0c0.4,0,0.7-0.1,1.1-0.1s0.8-0.1,1.1-0.2
				c0.4-0.1,0.6-0.1,0.9-0.2h0c0.3-0.1,0.6-0.2,1-0.3c0.6-0.2,1.3-0.5,1.9-0.8c0.3-0.2,0.6-0.3,0.9-0.5c-1.6,0.4-3.2,0.5-4.8,0.4
				h-0.1c-6.8,0.1-12.9-3.9-15.7-10.1c-0.3-0.8-1-1.3-1.9-1.4h-0.4c-2.8-0.1-5.6-0.9-7.9-2.5C577.9,257.3,577.3,256.8,576.7,256.3z"
				/>
			<path id="Path_10205" d="M573.6,257.3c0.5,3.3,2.5,6.3,5.3,8.1c2.1,1.4,4.6,2.2,7.1,2.4c2.9,5.5,8.5,8.9,14.7,8.9h0.1h0.5
				c4.2,0.1,8.3-1.4,11.5-4c3.5,2.2,7.5,3.4,11.7,3.4c0.5,0,1,0,1.4,0c5.4-0.1,10.7-2.1,14.8-5.6c0.7-0.6,1.4-1.3,2.1-2.1
				c0.3-0.3,0.5-0.6,0.7-0.9l0,0c6.6-0.6,11.8-5.8,12.5-12.4c0-5.9-3.9-11.1-9.6-12.7c-2.2-5.5-7.6-9.1-13.5-9.1c-1,0-1.9,0-2.9,0.2
				c-4-3.4-9.1-5.3-14.4-5.5c-5.8-0.2-11.5,1.7-15.9,5.5c-1-0.2-2-0.3-3-0.3c-8-0.7-15.4,4.7-17.1,12.6c-2.6,1.4-4.6,3.8-5.6,6.6
				C573.6,253.9,573.4,255.6,573.6,257.3z M576.7,256.3c-0.1-3.5,1.9-6.7,5.1-8c0.5-0.3,0.8-0.8,0.9-1.3c1.2-6.6,7.2-11.1,13.9-10.5
				c1.1,0,2.2,0.2,3.2,0.4c0.5,0.1,1.1,0,1.5-0.4c3.9-3.5,9-5.4,14.3-5.1c4.8,0.1,9.3,1.9,12.9,5.1c0.4,0.3,0.9,0.5,1.4,0.4
				c1-0.2,2-0.3,3-0.2c4.8-0.1,9.2,2.9,10.7,7.5c0.1,0.6,0.6,1,1.1,1.2c4.6,1,8,5,8.1,9.7c-0.6,5-4.7,8.9-9.7,9.3
				c-0.2,0-0.4,0.1-0.6,0.1c-0.5,0.1-0.9,0.3-1.2,0.7c-0.3,0.4-0.6,0.8-0.9,1.2c-1.6,1.9-3.7,3.5-6,4.5l0,0c-0.3,0.1-0.6,0.3-1,0.4
				c-0.3,0.1-0.5,0.2-0.8,0.3c-0.4,0.2-0.9,0.3-1.3,0.4c-0.3,0.1-0.7,0.2-1.1,0.3c-0.3,0.1-0.6,0.1-1,0.2c-0.1,0-0.3,0.1-0.5,0.1
				c-0.6,0.1-1.2,0.2-1.9,0.2c-0.4,0-0.7,0-1.1,0.1c-0.4,0-0.8,0-1.2,0s-1,0-1.4-0.1c-0.5-0.1-1-0.1-1.4-0.2c-0.2,0-0.5-0.1-0.7-0.1
				c-0.3,0-0.6-0.1-0.8-0.2c-0.4-0.1-0.8-0.2-1.2-0.3c-0.4-0.1-0.9-0.3-1.3-0.5l0,0c-0.3-0.1-0.7-0.3-1-0.4
				c-0.1-0.1-0.3-0.1-0.4-0.2c-0.3-0.1-0.6-0.3-0.8-0.4c-0.1-0.1-0.2-0.1-0.4-0.2c-0.4-0.2-0.7-0.4-1.1-0.7l0,0
				c-0.1-0.1-0.3-0.2-0.4-0.3c-0.3-0.2-0.6-0.3-0.9-0.3c-0.4,0-0.8,0.2-1.1,0.5c-0.2,0.2-0.3,0.3-0.5,0.5c-0.3,0.3-0.6,0.5-1,0.8
				c-0.2,0.1-0.4,0.3-0.7,0.5l0,0c-0.3,0.2-0.6,0.4-0.9,0.5c-0.6,0.3-1.2,0.6-1.9,0.8c-0.3,0.1-0.6,0.2-1,0.3h0
				c-0.3,0.1-0.6,0.2-0.9,0.2c-0.4,0.1-0.8,0.1-1.1,0.2s-0.7,0.1-1.1,0.1c-0.4,0-0.7,0-1.1,0H601h-0.1c-5.3,0.1-10.1-3-12.2-7.8
				c-0.2-0.6-0.8-1-1.5-1.1h-0.3c-2.2-0.1-4.4-0.7-6.2-1.9c-2.1-1.3-3.5-3.4-3.9-5.8C576.8,256.7,576.8,256.5,576.7,256.3
				L576.7,256.3z"/>
			<path id="Path_10206" class="st1" d="M576.7,256.3L576.7,256.3c0.6,0.5,1.2,1,1.8,1.5c2.4,1.6,5.1,2.4,7.9,2.5h0.4
				c0.8,0,1.6,0.6,1.9,1.4c2.8,6.2,8.9,10.1,15.7,10.1h0.1c1.6,0.1,3.2-0.1,4.8-0.4l0,0c0.2-0.1,0.5-0.3,0.7-0.5
				c0.3-0.3,0.7-0.5,1-0.8c0.2-0.2,0.3-0.3,0.5-0.5c0.3-0.3,0.7-0.5,1.1-0.5c0.3,0,0.6,0.1,0.9,0.3c0.1,0.1,0.3,0.2,0.4,0.3l0,0
				c0.3,0.2,0.7,0.5,1.1,0.7c0.1,0.1,0.2,0.1,0.4,0.2c0.3,0.2,0.5,0.3,0.8,0.4c0.1,0.1,0.2,0.1,0.4,0.2c0.3,0.2,0.7,0.3,1,0.4l0,0
				c0.4,0.2,0.9,0.3,1.3,0.5c0.4,0.1,0.8,0.2,1.2,0.3c0.3,0.1,0.6,0.1,0.8,0.2c0.2,0.1,0.5,0.1,0.7,0.1c0.5,0.1,0.9,0.1,1.4,0.2
				s1,0.1,1.4,0.1c0.4,0,0.8,0,1.2,0c0.4,0,0.7,0,1.1-0.1c0.6-0.1,1.2-0.1,1.9-0.2c0.2,0,0.3-0.1,0.5-0.1c0.3-0.1,0.6-0.1,1-0.2
				c0.3-0.1,0.7-0.2,1.1-0.3c0.4-0.1,0.9-0.3,1.3-0.4c0.3-0.1,0.5-0.2,0.8-0.3s0.6-0.3,1-0.4c0,0,0,0,0,0c2.3-1.1,4.3-2.6,6-4.5
				c0.3-0.4,0.6-0.8,0.9-1.2c0.3-0.4,0.7-0.6,1.2-0.7c0.2,0,0.4,0,0.6-0.1c5.1-0.4,9.1-4.3,9.7-9.3c-0.1-4.7-3.5-8.7-8.1-9.7
				c-0.6-0.2-1-0.6-1.1-1.2c-1.5-4.6-5.9-7.6-10.7-7.5c-1,0-2,0.1-3,0.2c-0.5,0.1-1-0.1-1.4-0.4c-3.5-3.2-8.1-5-12.9-5.1
				c-5.2-0.3-10.4,1.6-14.2,5.1c-0.4,0.4-1,0.5-1.5,0.4c-1-0.3-2.1-0.4-3.2-0.4c-6.7-0.7-12.7,3.9-13.9,10.5c0,0.6-0.4,1.1-0.9,1.3
				C578.7,249.6,576.7,252.8,576.7,256.3z"/>
		</g>
		<g id="Group_10595" transform="translate(53.622 37.898)">
			<g id="Group_8552" transform="translate(14.222 35.168)">
				<g id="Group_8551">
					<path id="Path_6006" d="M308.5,450.9l-0.4-0.2C308.3,450.7,308.4,450.8,308.5,450.9c0.4,0.2,0.7,0.5,1.1,0.7
						C309.3,451.3,308.9,451.1,308.5,450.9z M346.3,450.9c-2.5,1.6-5.1,2.8-7.9,3.7C341.1,453.7,343.8,452.5,346.3,450.9
						c0.1-0.1,0.3-0.1,0.4-0.2l0,0C346.5,450.7,346.4,450.8,346.3,450.9L346.3,450.9z"/>
				</g>
			</g>
		</g>
	</g>
	<g id="Group_10597" transform="translate(107.473 31.795)">
		<path id="Path_10210" class="st2" d="M549.4,345.7c2.1,0,3.9-1.6,4.3-3.7c1.8-12.2,1.3-24.6-1.5-36.6
			c-10.8-44.5-51.9-75-97.7-72.4c-2.4,0.2-4.2,2.2-4,4.6c0.2,2.4,2.2,4.2,4.6,4.1c0,0,0,0,0,0c41.6-2.4,78.9,25.3,88.7,65.7
			c2.6,10.9,3,22.2,1.4,33.2c-0.4,2.4,1.2,4.6,3.6,5C548.9,345.6,549.2,345.7,549.4,345.7z"/>
	</g>
	<g id="Group_10598" transform="translate(133.961 57.536)">
		<path id="Path_10211" class="st2" d="M564.1,486.9c0.7,0,1.5-0.2,2.1-0.5c10.7-6,20.1-14,27.7-23.6c28.2-36.3,26.9-87.4-3.2-122.2
			c-1.6-1.8-4.3-2-6.1-0.4c0,0,0,0,0,0c-1.8,1.6-1.9,4.4-0.4,6.2c27.3,31.6,28.5,78,2.9,111c-6.9,8.7-15.5,16-25.2,21.4
			c-2.1,1.2-2.8,3.8-1.7,5.9C561.1,486.1,562.6,486.9,564.1,486.9z"/>
	</g>
	<g id="Group_10599" transform="translate(65.83 17.326)">
		<path id="Path_10212" class="st2" d="M282.8,190.6c0.5,0,1-0.1,1.5-0.3c31-11.3,65-11.4,96.1-0.2c2.2,0.8,4.7-0.3,5.5-2.6
			c0,0,0,0,0,0c0.8-2.2-0.3-4.7-2.6-5.6c-33-11.9-69-11.8-101.9,0.2c-2.2,0.8-3.4,3.3-2.6,5.6C279.4,189.4,281,190.6,282.8,190.6z"
			/>
	</g>
</g>
</svg>
