<?xml version="1.0" encoding="utf-8"?>
<!-- Generator: Adobe Illustrator 25.1.0, SVG Export Plug-In . SVG Version: 6.00 Build 0)  -->
<svg version="1.1" id="Layer_1" xmlns="http://www.w3.org/2000/svg" xmlns:xlink="http://www.w3.org/1999/xlink" x="0px" y="0px"
	 viewBox="0 0 800 800" style="enable-background:new 0 0 800 800;" xml:space="preserve">
<style type="text/css">
	.st0{fill:#5AE2F9;}
	.st1{fill:#FFFFFF;}
	.st2{fill:#E6E6E6;}
	.st3{fill:#32A9D9;}
	.st4{fill:#05F2DB;}
	.st5{fill:#4369D9;}
	.st6{fill:#1DDDF2;}
</style>
<g>
	<rect x="245.1" y="39.5" class="st0" width="301.5" height="214.1"/>
	<g id="Group_10920" transform="translate(67.06 61.523)">
		<g id="Group_10919">
			<path id="Path_10635" class="st1" d="M414,237.1"/>
			<path id="Path_10636" d="M413.8,237.1"/>
		</g>
	</g>
	<g id="Group_10924" transform="translate(67.06 61.523)">
		<g id="Group_10923">
			<g id="Group_10922">
				<g id="Group_10921">
					<path id="Path_10637" d="M413.8,237.1"/>
				</g>
			</g>
		</g>
	</g>
	<g id="Group_10925" transform="translate(67.06 61.523)">
		<path id="Path_10638" class="st1" d="M414,237.1"/>
		<path id="Path_10639" d="M413.8,237.1"/>
	</g>
	<g id="Group_10927" transform="translate(15.75 3.999)">
		<g id="Group_10926">
			<path id="Path_10640" d="M495.6,25.2H273.2c-26.6,0-48.2,21.5-48.4,48.1v137.4c0.1,26.7,21.7,48.3,48.4,48.4h222.4
				c26.7-0.1,48.3-21.7,48.4-48.4V73.3C543.7,46.7,522.2,25.3,495.6,25.2z M538.5,210.7c0,23.8-19.3,43.2-43.1,43.2c0,0-0.1,0-0.1,0
				H272.9c-23.8,0-43.2-19.3-43.2-43.1c0,0,0-0.1,0-0.1V73.3c0.1-23.8,19.4-43,43.2-42.9h222.4c23.7,0,43,19.2,43.2,42.9V210.7z"/>
		</g>
	</g>
	<g id="Group_10932" transform="translate(0 0)">
		<g id="Group_10931">
			<g id="Group_10929">
				<path id="Path_10641" d="M459.5,737.7c2.9,0.6,6.1,1.2,9.2,2C465.8,739.1,462.7,738.2,459.5,737.7z"/>
				<path id="Path_10642" d="M626.6,435.4c-2.9-3-7-4.6-11.2-4.3l-8.4,0.3c-3.2-26.5-11.7-52.2-24.8-75.5c0.9-2.9,1.4-5.9,1.4-8.9
					v-23.9c-0.1-16.2-13.2-29.3-29.4-29.4H445.7v-15h65.7c36.1-0.1,65.3-29.3,65.4-65.4V75.9c-0.1-36.1-29.3-65.3-65.4-65.4H288.9
					c-36.1,0.1-65.3,29.3-65.4,65.4v137.4c0.1,36.1,29.3,65.3,65.4,65.4h65.7v15H245.7c-16.2,0.1-29.3,13.2-29.4,29.4V347
					c-0.1,2.8,0.3,5.6,1.2,8.4c-13,23.3-21.4,48.8-24.8,75.2l-8.4-0.3c-4.2-0.1-8.2,1.4-11.2,4.3c-4.1,4.2-6.4,9.9-6.3,15.8v0.3
					l1.2,101.1c0,10.4,6.9,19,15.6,19.3l20.7,0.9h0.3l19,0.9h0.6c8.4,0,15.6-7.8,16.7-17.9l10.9-100.6c0.7-6-1.1-12-4.9-16.7
					c-2.7-3.1-6.5-5.1-10.7-5.5h-0.3c2.7-19.8,9.2-38.8,19-56.2h17l-19.6,260.7c-1.1,14.7,4,29.3,14.1,40c3.8,4.2,8.3,7.7,13.3,10.4
					l-3.2,68v0.3l-0.6,13.3c-0.3,6.2,2.4,12.2,7.2,16.1c3.6,2.9,8,4.6,12.7,4.6h47.8c5.6,0.1,11-2.4,14.7-6.6
					c3.7-4.2,5.5-9.7,4.9-15.3l-4-35.4l-4.3-38h90.2l-4.3,38l-4,35.4c-0.6,5.6,1.2,11.1,4.9,15.3c3.8,4.1,9.1,6.5,14.7,6.6h47.8
					c4.6-0.1,9.1-1.7,12.7-4.6c4.6-3.7,7.3-9.3,7.2-15.3v-0.9l-0.6-13.3v-0.3l-3.2-68c5-2.7,9.5-6.2,13.3-10.4
					c9.1-9.8,14.2-22.6,14.1-36v-4l-19.6-260.7h16.4c10.2,17.6,16.8,36.9,19.6,57h-0.3c-4.2,0.3-8,2.2-10.7,5.5
					c-3.8,4.7-5.6,10.7-4.9,16.7l10.9,100.6c1.2,10.1,8.4,17.9,16.7,17.9h0.6l19-0.9h0.3l20.7-0.9c8.6-0.3,15.6-8.9,15.6-19.3
					l1.2-101.1C633.4,445.5,631,439.6,626.6,435.4z M440.5,278.7v15h-81v-15H440.5z M288.6,273.5c-33.3-0.1-60.3-27.2-60.2-60.5
					V75.9c0.1-33.3,26.9-60.3,60.2-60.5h222.4c33.4,0.1,60.4,27.1,60.5,60.5v137.4c0,33.4-27.1,60.5-60.5,60.5c0,0,0,0,0,0H288.6
					V273.5z M243.1,441.5c2.9,3.6,4.2,8.4,3.5,13L235.6,555c-0.4,3.8-2,7.3-4.6,10.1c-1.8,2-4.5,3.1-7.2,2.9l-19-0.9l0,0l-20.7-0.9
					c-2.3-0.1-4.4-1-6.1-2.6c-3.1-3-4.7-7.2-4.6-11.5L172.2,451c-0.2-4.6,1.6-9.1,4.9-12.4c1.9-2,4.5-3,7.2-2.9l8.1,0.3h5.2
					l13.5,0.6h0.3l19,0.9h6.1c2.5,0.1,4.8,1.3,6.3,3.2C242.8,440.9,243.1,441.2,243.1,441.5z M247.7,379
					c-8.5,16.7-14.1,34.7-16.7,53.3l0,0l-19.3-0.9h-0.3l-13.3-0.6l0,0c3.1-24.3,10.6-47.8,22.2-69.4c1.2,2.2,2.8,4.3,4.6,6.1
					c5.5,5.7,13.1,9,21,8.9h3.7C248.8,377,248.1,377.9,247.7,379L247.7,379z M280,681.5L280,681.5c-2.7-1.7-5.2-3.6-7.5-5.8
					l-2.3-2.3c-9.1-9.8-13.7-23-12.7-36.3l19.6-261h16.1l-19.6,262.2c-0.6,7.9,2.1,15.8,7.5,21.6L280,681.5z M495.5,376.4
					l19.9,262.8c-0.9-1.3-2-2.4-3.2-3.5c-3.6-3.3-8.4-5-13.3-4.9h-29.1c-4.8,0.1-9.5,1.9-13.3,4.9c-0.6,0.3-0.9,0.9-1.2,1.2
					c-0.5,0.3-0.9,0.8-1.2,1.4c-2.4,2.7-3.8,6.2-4,9.8l-1.7,16.7h-96.8l-1.7-16.7c-0.2-2.4-0.9-4.8-2-6.9c-0.5-1.1-1.2-2-2-2.9
					c-0.3-0.5-0.7-1-1.2-1.4c-0.3-0.6-0.9-0.9-1.2-1.2c-3.6-3.3-8.4-5-13.3-4.9h-29.1c-5.1,0-9.9,1.9-13.5,5.5
					c-3.6,3.5-5.7,8.2-6.1,13.3v2.6c-2-3.9-2.9-8.3-2.6-12.7L299,376.7h196.5V376.4z M518,751.2c-0.3,0-0.6-0.3-0.9-0.3
					c-1.4-0.6-2.6-1.4-4-2c-1.1-0.6-2.3-1.1-3.5-1.4c-0.3,0-0.6-0.3-0.9-0.3c-1.4-0.6-2.9-1.2-4-1.7l-4.3-1.7h-0.3
					c-1.4-0.6-2.9-0.9-4.3-1.4h-0.3c-1.4-0.6-2.9-0.9-4.3-1.4c-6.1-2-12.1-3.5-18.2-4.9l-6.9-1.7c-0.9-0.3-2-0.3-2.9-0.6
					c-4.3-0.9-8.6-1.7-12.7-2.6l-4.3-0.9l0,0l4-36l0.3-2.6l0.3-2.6l2-19l0.3-2.6l0.3-2.6l1.7-16.1c0.3-3.1,1.6-6,3.7-8.4
					c2.7-3,6.6-4.7,10.7-4.6h29.1c3.8,0,7.4,1.4,10.1,4c2.7,2.6,4.2,6.1,4.3,9.8v0.6l0.3,5.2l0,0l0.3,4l1.2,25.1v5.8L518,751.2
					L518,751.2z M353.8,730.2l-4.3,0.9c-4.3,0.9-8.4,1.4-12.7,2.6c-1,0.3-2.1,0.5-3.2,0.6c-8.4,1.7-16.4,3.7-24.8,6.3
					c-1.4,0.6-2.9,0.9-4.3,1.4h-0.3c-1.4,0.6-2.9,0.9-4.3,1.4h-0.3l-4.3,1.7c-1.4,0.6-2.9,1.2-4,1.7c-0.3,0-0.6,0.3-0.9,0.3
					c-1.2,0.6-2.3,0.9-3.5,1.4c-1.4,0.6-2.7,1.2-4,2c-0.3,0-0.6,0.3-0.9,0.3l0,0l2.9-61.3v-5.8l0.9-19.6v-3.2l0.3-3.2l0.3-8.6
					c0.2-3.7,1.8-7.3,4.6-9.8c2.7-2.7,6.3-4.1,10.1-4h29.1c4,0,7.9,1.7,10.7,4.6c2.1,2.3,3.4,5.2,3.7,8.4l1.7,16.1l0.3,2.6l0.3,2.6
					l2,19l0.3,2.6l0.3,2.6L353.8,730.2L353.8,730.2z M358.1,767.9c0.5,4.1-0.8,8.1-3.5,11.2l0,0c-2.8,3.1-6.8,4.9-10.9,4.9h-47.8
					c-3.3,0-6.6-1.1-9.2-3.2l-1.2-1.2c-2.6-2.9-4.1-6.7-4-10.7l0.6-11.8l8.6-4.3c1.6-0.8,3.2-1.5,4.9-2c7-2.8,14.1-5.2,21.3-7.2
					c1.5-0.6,3-0.9,4.6-1.2c3.5-0.9,6.6-1.7,9.8-2.3c3.2-0.9,6.3-1.4,9.5-2l4.3-0.9c3.5-0.6,6.6-1.2,9.5-1.7L358.1,767.9z
					 M397,688.7H354l-2-19h95.7l-2,19H397L397,688.7z M514.8,779.7l-1.2,1.2c-2.5,2.3-5.8,3.5-9.2,3.5h-47.8
					c-4.2,0-8.1-1.8-10.9-4.9l0,0c-2.7-3.1-3.9-7.2-3.5-11.2l3.7-32.8c2.9,0.6,6.1,1.2,9.5,1.7c1.4,0.3,2.9,0.6,4.6,0.9
					c1.4,0.3,3.2,0.6,4.6,0.9c1.7,0.3,3.3,0.7,4.9,1.2c3.2,0.9,6.6,1.4,9.8,2.3c0.8,0.3,1.7,0.5,2.6,0.6l2.6,0.9
					c5.2,1.4,10.1,3.2,15.3,4.9c0.9,0.3,1.4,0.6,2.3,0.9c0.3,0,0.6,0.3,0.9,0.3c0.7,0.2,1.4,0.5,2,0.9c1.8,0.6,3.5,1.4,5.2,2.3
					c2.9,1.4,5.8,2.6,8.6,4.3l0.6,11.8C519,773,517.4,776.7,514.8,779.7L514.8,779.7z M542.2,637.1c1,13.3-3.6,26.5-12.7,36.3
					l-2.3,2.3c-2.2,2.2-4.8,4.2-7.5,5.8l0,0l-1.4-30.5c1.5-4,2-8.2,1.7-12.4l-19.6-262.2h22.2L542.2,637.1z M245.7,371.2
					c-6.1,0-12-2.4-16.4-6.6c-2.6-2.4-4.6-5.4-6.1-8.6c-0.5-1-0.9-2.1-1.2-3.2c-0.3-1.2-0.5-2.5-0.6-3.7v-25.9
					c-0.1-6.4,2.5-12.6,7.2-17c1.1-1,2.2-2,3.5-2.9c0.6-0.5,1.3-0.9,2-1.2c1.3-0.8,2.8-1.4,4.3-1.7c2.3-0.7,4.8-1.1,7.2-1.2h308.6
					c2.5-0.1,4.9,0.3,7.2,1.2l4.3,1.7c0.6,0.3,1.4,0.9,2,1.2c1.3,0.7,2.5,1.7,3.5,2.9c4.6,4.5,7.1,10.6,7.2,17V347
					c0,1-0.1,1.9-0.3,2.9c-0.1,1.2-0.2,2.3-0.6,3.5c-0.3,1.1-0.6,2.2-1.2,3.2c-1.2,2.7-2.8,5.1-4.9,7.2c-4.5,4.8-10.7,7.5-17.3,7.5
					H245.7z M552,379c-0.6-0.9-1.2-2-1.7-2.9h4c8.4,0.1,16.5-3.6,21.9-10.1c0.3-0.6,0.9-0.9,1.2-1.4c0.8-0.9,1.5-2,2-3.2
					c0.6,1.2,1.4,2.3,2,3.7c2.6,4.9,4.9,10.1,7.2,15.6l0,0c1.2,2.6,2,5.5,3.2,8.4c4.6,13.8,8,28,10.1,42.4l0,0l-13.3,0.6h-0.3
					l-19.3,0.9l0,0C566.2,414.1,560.5,395.9,552,379z M626.9,552.7c0.1,4-1.3,8-4,10.9c-1.7,2-4.1,3.2-6.6,3.5l-20.7,0.9h-0.3
					l-19,0.9c-2.7,0-5.3-1-7.2-2.9c-2.8-2.7-4.4-6.3-4.6-10.1l-10.9-100.6c-0.6-4.6,0.6-9.3,3.5-13l0.6-0.6c1.7-1.8,3.9-2.9,6.3-3.2
					h6.1l19-0.9h0.3l13.5-0.6h5.2l8.1-0.3c2.7-0.1,5.3,0.9,7.2,2.9c3.3,3.3,5.1,7.8,4.9,12.4L626.9,552.7z"/>
				<path id="Path_10643" class="st2" d="M511.4,15.4H288.9c-33.3,0.1-60.2,27.2-60.2,60.5v137.4c0,33.3,26.9,60.4,60.2,60.5h222.4
					c33.4-0.1,60.4-27.1,60.5-60.5V75.9C571.7,42.5,544.7,15.6,511.4,15.4z M559.5,214.7c-0.1,26.7-21.7,48.3-48.4,48.4H288.7
					c-26.7-0.1-48.3-21.7-48.4-48.4V77.3c0.1-26.7,21.8-48.2,48.4-48.1h222.4c26.6,0,48.2,21.5,48.4,48.1L559.5,214.7z"/>
				<path id="Path_10644" class="st3" d="M511.4,34.4H288.9c-23.8-0.1-43.1,19.2-43.2,42.9v137.4c0,23.8,19.3,43.2,43.1,43.2
					c0,0,0.1,0,0.1,0h222.4c23.8-0.1,43.1-19.4,43.2-43.2V77.3C554.3,53.6,535.1,34.5,511.4,34.4z M543.9,215.9
					c0,18.1-14.7,32.8-32.8,32.8c0,0,0,0,0,0H288.6c-18.1,0-32.8-14.7-32.8-32.8c0,0,0,0,0,0V78.5c0-18.1,14.7-32.8,32.8-32.8
					c0,0,0,0,0,0h222.4c18.1,0,32.8,14.7,32.8,32.8c0,0,0,0,0,0V215.9z"/>
				<rect id="Rectangle_807" x="359.5" y="278.7" class="st2" width="81" height="15"/>
				<path id="Path_10649" class="st2" d="M601.8,431.4l-13.3,0.6h-0.3l-19.3,0.9c-2.9-20-9.2-39.3-18.7-57h4
					c10.5,0,20.1-5.6,25.4-14.7C591.1,383,598.6,406.8,601.8,431.4z"/>
				<path id="Path_10650" class="st4" d="M628,451.6l-1.2,101.1c0.7,6.8-4,12.9-10.7,14.1l-20.7,0.9h-0.3l-19,0.9
					c-6.1,0.3-11.2-5.5-11.8-13.3l-10.9-100.6c-0.6-4.6,0.6-9.3,3.5-13c1.7-2.1,4.2-3.5,6.9-3.7h6.1l19-0.9h0.3l13.5-0.6h5.2
					l8.1-0.3c2.7-0.1,5.3,0.9,7.2,2.9C626.4,442.4,628.2,446.9,628,451.6z"/>
				<path id="Path_10651" class="st5" d="M354.3,779.2c-2.8,3.1-6.8,4.9-10.9,4.9h-47.8c-3.3,0-6.6-1.1-9.2-3.2
					c-3.5-2.9-5.4-7.3-5.2-11.8l0.6-11.8l0,0l8.6-4.3c1.6-0.8,3.2-1.5,4.9-2c7-2.8,14.1-5.2,21.3-7.2c1.5-0.6,3-0.9,4.6-1.2
					c3.5-0.9,6.6-1.7,9.8-2.3c3.2-0.9,6.3-1.4,9.5-2l4.3-0.9c3.5-0.6,6.6-1.2,9.5-1.7l3.7,32.8C358.4,772.4,357,776.3,354.3,779.2z"
					/>
				<path id="Path_10652" class="st2" d="M529.5,673.4c-2.8,3.1-6,5.8-9.5,8.1l-1.4-30.5c1.5-4,2-8.2,1.7-12.4l-19.6-262.5h22.2
					l19.6,261C543.4,650.5,538.7,663.7,529.5,673.4z"/>
				<path id="Path_10653" class="st4" d="M518,751.2c-0.3,0-0.6-0.3-0.9-0.3c-1.4-0.6-2.6-1.4-4-2c-1.1-0.6-2.3-1.1-3.5-1.4
					c-0.3,0-0.6-0.3-0.9-0.3c-1.4-0.6-2.9-1.2-4-1.7l-4.3-1.7h-0.3c-1.4-0.6-2.9-0.9-4.3-1.4h-0.3c-1.4-0.6-2.9-0.9-4.3-1.4
					c-6.1-2-12.1-3.5-18.2-4.9l-6.9-1.7c-0.9-0.3-2-0.3-2.9-0.6c-4.3-0.9-8.6-1.7-12.7-2.6l-4.3-0.9l0,0l4-36l0.3-2.6l0.3-2.6l2-19
					l0.3-2.6l0.3-2.6l1.7-16.1c0.7-7.4,7-13,14.4-13h29.1c7.8,0,14.1,6.1,14.4,13.8v0.6l0.3,5.2l0,0l0.3,4l1.2,25.1v5.8L518,751.2z"
					/>
				<path id="Path_10654" class="st2" d="M447.7,669.7l-2,19h-91.3l-2-19H447.7z"/>
				<path id="Path_10655" class="st4" d="M353.8,729.9L353.8,729.9l-4.3,0.9c-4.3,0.9-8.4,1.4-12.7,2.6c-1,0.3-2.1,0.5-3.2,0.6
					c-8.4,1.7-16.4,3.7-24.8,6.3c-1.4,0.6-2.9,0.9-4.3,1.4h-0.3c-1.4,0.6-2.9,0.9-4.3,1.4h-0.3l-4.3,1.7c-1.4,0.6-2.9,1.2-4,1.7
					c-0.3,0-0.6,0.3-0.9,0.3c-1.2,0.6-2.3,0.9-3.5,1.4c-1.4,0.6-2.7,1.2-4,2c-0.3,0-0.6,0.3-0.9,0.3l2.9-61.3v-5.8l0.9-19.6v-3.2
					l0.3-3.2l0.3-8.6c0.3-7.8,6.6-13.9,14.4-13.9h29.1c7.4,0,13.7,5.6,14.4,13l1.7,16.1l0.3,2.6l0.3,2.6l2,19l0.3,2.6l0.3,2.6
					L353.8,729.9z"/>
				<path id="Path_10656" class="st4" d="M246.9,454.2l-10.9,100.5c-0.9,7.8-6.1,13.5-11.8,13.3l-19-0.9l0,0l-20.7-0.9
					c-5.8-0.3-10.7-6.6-10.7-14.1L172.5,451c-0.2-4.6,1.6-9.1,4.9-12.4c1.9-2,4.5-3,7.2-2.9l8.1,0.3h5.2l13.5,0.6h0.3l19,0.9h6.1
					c2.8,0.1,5.3,1.5,6.9,3.7C246.1,445.1,247.2,449.6,246.9,454.2z"/>
				<path id="Path_10657" class="st2" d="M249.2,376.1c-9.5,17.5-15.6,36.5-18.2,56.2l-19.3-0.9h-0.3l-13.3-0.6
					c3.1-24.3,10.6-47.8,22.2-69.4c5.2,9.3,15,15,25.6,15h3.2V376.1z"/>
				<path id="Path_10658" class="st2" d="M280.9,660.2l-0.9,21.3c-3.5-2.3-6.7-5-9.5-8.1c-9.1-9.8-13.7-23-12.7-36.3l19.6-261h16.1
					l-19.6,262.5C273.1,646.4,275.6,654.3,280.9,660.2z"/>
				<path id="Path_10659" class="st5" d="M578.5,322.8v23.9c0,1-0.1,1.9-0.3,2.9c-0.1,1.2-0.2,2.3-0.6,3.5c-0.3,1.1-0.6,2.2-1.2,3.2
					c-3.8,8.9-12.5,14.6-22.2,14.7H245.7c-9.9-0.1-18.7-6.1-22.5-15.3c-0.5-1-0.9-2.1-1.2-3.2c-0.3-1.2-0.5-2.5-0.6-3.7v-25.9
					c0.1-13.3,10.9-24.1,24.2-24.2h308.9C567.8,298.7,578.5,309.5,578.5,322.8z"/>
				<path id="Path_10660" class="st6" d="M515.1,638.8c-3.6-5.4-9.7-8.6-16.1-8.6h-29.1c-10.1,0-18.5,7.6-19.6,17.6l-1.7,16.7h-96.8
					l-1.7-16.7c-1.1-10-9.5-17.6-19.6-17.6h-29.1c-10.5,0-19.1,8.3-19.6,18.7v2.6c-2-3.9-2.9-8.3-2.6-12.7L299,376.1h196.8
					L515.1,638.8z"/>
			</g>
			<g id="Group_10930" transform="translate(58.789 154.793)">
				<path id="Path_10661" class="st5" d="M460.1,614.3c0.3,4.5-1.7,8.9-5.2,11.8c-2.5,2.3-5.8,3.5-9.2,3.5h-47.8
					c-4.2,0-8.1-1.8-10.9-4.9c-2.7-3.1-3.9-7.2-3.5-11.2l3.7-32.8c2.9,0.6,6.1,1.2,9.5,1.7c1.4,0.3,2.9,0.6,4.6,0.9
					c2.9,0.6,6.1,1.2,9.2,2c3.2,0.9,6.6,1.4,9.8,2.3c1.7,0.6,3.5,0.9,4.9,1.4c5.2,1.4,10.1,3.2,15.3,4.9c1.7,0.6,3.5,1.4,5.2,2
					c1.8,0.6,3.5,1.4,5.2,2.3c2.9,1.4,5.8,2.6,8.6,4.3l0,0L460.1,614.3z"/>
			</g>
		</g>
	</g>
</g>
</svg>
