<?xml version="1.0" encoding="utf-8"?>
<!-- Generator: Adobe Illustrator 25.1.0, SVG Export Plug-In . SVG Version: 6.00 Build 0)  -->
<svg version="1.1" id="Layer_1" xmlns="http://www.w3.org/2000/svg" xmlns:xlink="http://www.w3.org/1999/xlink" x="0px" y="0px"
	 viewBox="0 0 800 800" style="enable-background:new 0 0 800 800;" xml:space="preserve">
<style type="text/css">
	.st0{fill:#FCFCFC;}
	.st1{fill:#0C0A0A;}
	.st2{fill:#FFFFFF;}
	.st3{fill:#F98F8F;}
</style>
<g>
	<g>
		<path d="M504.7,225.7c25.8-5.9,54.6,5.2,69.6,27c3.1,4.4,10.4,0.2,7.3-4.3c-17.3-25.1-49.5-37.7-79.2-30.9
			C497.2,218.8,499.4,227,504.7,225.7L504.7,225.7z"/>
	</g>
	<g>
		<path d="M336.9,206.6c-29.7-6.8-61.9,5.8-79.2,30.9c-3.1,4.5,4.2,8.7,7.3,4.3c15.1-21.8,43.8-32.9,69.6-27
			C339.9,216,342.2,207.9,336.9,206.6L336.9,206.6z"/>
	</g>
	<g>
		<path class="st0" d="M465.1,313.1c-0.1-13.5,2.3-27.2,8.3-39.4s15.7-22.7,27.9-28.4s27.1-6.2,39.2-0.2s20.9,18.8,20.9,32.4
			c0,13-7.8,25.1-18.5,32.6s-23.7,10.7-36.6,11.7C492.1,322.9,477.3,320.7,465.1,313.1"/>
		<g>
			<path d="M466.8,313.1c0-18.8,4.7-38.1,17.3-52.5c11.9-13.5,30.2-21.3,48.1-16.8c16,4.1,28.9,19.2,27.5,36.2
				c-1.5,18.2-17.3,31.2-33.7,36.4c-19.3,6.1-42.4,5.9-60.1-4.8c-1.9-1.1-3.6,1.8-1.7,2.9c17.1,10.4,38.6,11.1,57.7,6.5
				c18-4.4,35.5-16.2,40.2-35.1c4.2-17.1-5.5-35-21.1-42.5c-17.6-8.4-38.5-3.8-53,8.6c-17.7,15.1-24.6,38.5-24.6,61.1
				C463.4,315.3,466.8,315.3,466.8,313.1L466.8,313.1z"/>
		</g>
	</g>
	<g>
		<path class="st0" d="M372.9,309.5c0.8-13.5-0.9-27.3-6.2-39.7c-5.3-12.4-14.4-23.5-26.4-29.8c-11.9-6.4-26.7-7.7-39.2-2.3
			c-12.4,5.3-21.9,17.7-22.6,31.2c-0.7,13,6.5,25.5,16.7,33.5c10.2,8,23.1,12,36,13.7C345.4,317.8,360.3,316.4,372.9,309.5"/>
		<g>
			<path d="M374.6,309.5c1.1-20.1-3.2-40.9-16.2-56.8c-12-14.6-31.1-23.1-50-19.2c-17,3.6-31.3,18.7-31.5,36.5
				c-0.2,19,14.4,34.4,31,41.5c20.4,8.7,46.1,10.1,66-0.6c1.9-1,0.2-3.9-1.7-2.9c-16.6,8.9-36.7,8.5-54.4,3.4
				c-16.8-4.8-33-16.3-36.8-34.4c-3.5-16.7,7.6-33.4,23.4-38.9c17.4-6,36.5,0.6,48.8,13.6c14.6,15.4,19.3,37,18.2,57.7
				C371.1,311.7,374.4,311.7,374.6,309.5L374.6,309.5z"/>
		</g>
	</g>
	<g>
		<path class="st1" d="M351.5,361.8c0.4-5.9,5.3-10.6,10.8-12.7c5.5-2.1,11.6-2,17.4-1.9c25.7,0.4,51.4,0.8,77.2,1.2
			c7.2,0.1,15.2,0.5,20.6,5.3c3.8,3.4,5.8,8.6,5.9,13.7s-1.3,10.2-3.4,14.9c-9.2,20.9-31.1,35-53.8,36.7
			c-22.8,1.7-45.7-8.3-61.4-24.8c-8.6-9.1-14.7-20.8-13.3-33.2"/>
		<g>
			<path d="M353.2,361.8c1.3-12.3,16.7-13.1,26.1-13c12.5,0.2,24.9,0.4,37.4,0.6c12.5,0.2,25,0.4,37.5,0.6
				c10.3,0.2,22.9,0.2,26.7,11.9c3.3,10.1-2.1,21.3-7.9,29.4c-5.6,7.8-13.1,14.1-21.6,18.6c-17.6,9.4-38.3,9.6-56.8,2.3
				c-20.2-7.9-43.7-27.3-41.4-51.3c0.2-2.2-3.2-2.1-3.4,0c-2.3,23,18,42,36.9,51.5c19.6,9.8,42.5,11.4,62.6,2.2
				c9.3-4.2,17.8-10.6,24.2-18.7c6.6-8.3,12.5-19.4,11.4-30.3c-0.5-4.9-2.6-9.9-6.3-13.2c-3.8-3.4-8.9-4.8-13.9-5.4
				c-6.3-0.7-12.8-0.5-19.1-0.6c-7.1-0.1-14.2-0.2-21.2-0.3c-15.9-0.3-31.8-0.7-47.7-0.7c-11.1,0-25.6,3-27,16.4
				C349.5,364,352.9,363.9,353.2,361.8L353.2,361.8z"/>
		</g>
	</g>
	<g>
		<path d="M366.8,350c3.1,8.3,10.6,13.4,18.9,15.8c9.9,2.9,20.9,3.4,31.1,3.1c16.3-0.5,38.1-2.7,47.6-18c1.2-1.9-1.8-3.6-2.9-1.7
			c-8.6,13.8-28.9,15.7-43.6,16.3c-9.3,0.3-18.8-0.1-27.9-2.1c-8.2-1.8-16.8-5.9-19.9-14.2C369.3,347,366,347.9,366.8,350L366.8,350
			z"/>
	</g>
	<g>
		<path d="M384.9,408.6c8-9.1,20.1-14.9,32.3-14.4c12.4,0.5,24.1,7.4,31,17.6c1.2,1.8,4.1,0.1,2.9-1.7
			c-7.4-11.1-19.7-18.4-33.1-19.3c-13.3-0.9-26.8,5.5-35.5,15.3C381,407.8,383.4,410.2,384.9,408.6L384.9,408.6z"/>
	</g>
	<g>
		<path d="M402.9,324c3.1-6.2,9.6-10.4,16.6-10.1c6.6,0.2,13,4.8,15.5,10.9c1.1,2.7,5.4,1.5,4.3-1.2c-3.2-7.9-10.7-13.6-19.3-14.2
			c-8.6-0.6-17.2,4.6-21,12.3C397.8,324.3,401.7,326.6,402.9,324L402.9,324z"/>
	</g>
	<g>
		<circle cx="507.4" cy="286.5" r="27.5"/>
		<circle class="st2" cx="489" cy="272.4" r="7.7"/>
	</g>
	<g>
		<circle cx="333.6" cy="283.7" r="27.5"/>
		<circle class="st2" cx="315.2" cy="269.7" r="7.7"/>
	</g>
	<g>
		<path class="st2" d="M370.3,349.2c3.2-0.4,6.4-0.4,9.2-0.4c12.5,0.2,24.9,0.4,37.4,0.6c12.5,0.2,25,0.4,37.5,0.6
			c2.1,0,4.4,0.1,6.6,0.2c-9,12.8-28.6,14.7-42.9,15.2c-9.3,0.4-18.8-0.1-27.9-2.1C382,361.6,373.5,357.5,370.3,349.2z"/>
		<path class="st3" d="M448.2,411.6c-16.9,7.7-36.1,7.5-53.4,0.7c-3-1.2-6.1-2.6-9.2-4.3c8-8.7,19.8-14.3,31.7-13.8
			C429.7,394.7,441.3,401.5,448.2,411.6z"/>
	</g>
</g>
</svg>
