<?xml version="1.0" encoding="utf-8"?>
<!-- Generator: Adobe Illustrator 25.1.0, SVG Export Plug-In . SVG Version: 6.00 Build 0)  -->
<svg version="1.1" id="Layer_1" xmlns="http://www.w3.org/2000/svg" xmlns:xlink="http://www.w3.org/1999/xlink" x="0px" y="0px"
	 viewBox="0 0 800 800" style="enable-background:new 0 0 800 800;" xml:space="preserve">
<style type="text/css">
	.st0{fill:#FCFCFC;}
	.st1{fill:#FFFFFF;}
	.st2{fill:#F98F8F;}
</style>
<g>
	<g>
		<g>
			<path class="st0" d="M460.9,308.9c-2.7-12.2-1.7-25.2,2.8-36.8c4.5-11.7,12.4-22,22.5-29.3c10.6-7.6,25.4-9.4,37.6-4.9
				c7.4,2.8,12.7,6,17.2,12.6c5,7.2,8.4,15.7,8.7,24.5c0.3,8.8-2.6,17.8-8.8,24.1c-7.2,7.3-17.8,10-28,11.4
				C495.6,312.8,478,312.9,460.9,308.9"/>
			<g>
				<path d="M462.2,308.6c-3.7-17.5,0.1-36.1,10.7-50.6c4.7-6.5,10.9-12.6,17.9-16.5c7.1-3.9,15.5-5.3,23.5-4.5
					c7.4,0.8,15.4,3.8,21,8.9c6.2,5.6,10.4,14.1,12.2,22.1c1.9,8.3,1,17.2-3.2,24.6c-4.2,7.3-11.4,11.7-19.3,14.1
					c-9.8,3-20.4,3.7-30.5,4c-11.2,0.3-22.3-0.6-33.2-3c-1.7-0.4-2.4,2.2-0.7,2.5c10.3,2.4,20.8,3.3,31.4,3.2
					c9.9-0.1,20-0.9,29.7-3.1c8.3-1.9,16.6-5.5,22.1-12.2c5.5-6.7,7.9-15.6,7.3-24.2c-0.6-9.3-4.4-18.4-10.1-25.7
					c-4.9-6.3-12.1-10.3-19.7-12.5c-8.2-2.3-17.2-2-25.3,0.7c-8.2,2.8-15.1,8.3-20.9,14.6c-14.2,15.7-19.9,37.6-15.5,58.2
					C460,311,462.6,310.3,462.2,308.6L462.2,308.6z"/>
			</g>
		</g>
		<g>
			<path d="M401.6,316c1.7-6.4,8-11.1,14.7-10.6c6.4,0.5,12.1,6.1,12.8,12.4c0.2,1.7,2.8,1.7,2.6,0c-0.9-7.7-7.2-14.2-15-15
				c-7.9-0.8-15.6,4.9-17.6,12.5C398.6,316.9,401.2,317.6,401.6,316L401.6,316z"/>
		</g>
		<g>
			<path d="M488.3,228.2c9.4-6.3,21.2-9.1,32.4-7c10.5,2,20.2,7.9,26.6,16.4c0.9,1.1,2.3,1.7,3.6,0.9c1.1-0.7,1.8-2.5,0.9-3.6
				c-11.8-15.6-31.8-23-50.9-18.2c-5.4,1.4-10.6,3.7-15.3,6.8C482.8,225.6,485.4,230.1,488.3,228.2L488.3,228.2z"/>
		</g>
		<circle cx="492.6" cy="281.3" r="24.5"/>
		<circle class="st0" cx="509.3" cy="269.6" r="9"/>
		<g>
			<path class="st1" d="M377.9,310.1c3.7-11.9,2.2-24-1.3-36c-3.5-12-9-23.8-18.4-32c-9.9-8.5-24.5-11.5-37.1-8
				c-7.6,2.1-13.1,5-18.2,11.1c-5.6,6.8-9.7,15-10.8,23.7c-1.1,8.7,2.8,19.9,8.5,26.6c6.6,7.9,15.2,9.6,25.3,11.8
				C343,311,360.5,312.6,377.9,310.1"/>
			<g>
				<path d="M379.2,310.4c3-10,2.6-20.4,0.3-30.5c-2-9-5.1-18.1-9.9-26c-4.4-7.4-10.4-13.9-18.2-17.8c-7.6-3.9-16.4-5.4-24.9-4.4
					c-7.7,1-15.7,3.9-21.5,9.3c-6.4,6-11.2,14.5-13.3,23c-2.1,8.3-0.7,16.7,2.9,24.5c3.5,7.5,9.2,13.3,17,16.4
					c3.8,1.5,7.9,2.4,11.9,3.3c5.1,1.1,10.1,2.1,15.3,2.9c10.5,1.5,21.2,2.1,31.8,1.2c2.6-0.2,5.1-0.5,7.7-0.9
					c1.7-0.2,1-2.8-0.7-2.5c-19.3,2.8-39,0.4-57.8-4.2c-7.5-1.9-14.4-4.8-19.1-11.2c-4.7-6.3-7.6-14.7-7.3-22.6
					c0.4-8.4,4.4-16.6,9.4-23.2c2.4-3.1,5.1-5.9,8.4-8c3.2-2,6.7-3.3,10.3-4.3c7.8-2.2,16.2-1.8,23.8,0.9c7.9,2.7,14.4,8,19.3,14.7
					c5.6,7.7,9.1,16.8,11.5,25.9c2.9,10.8,3.8,22,0.6,32.8C376.1,311.3,378.7,312,379.2,310.4L379.2,310.4z"/>
			</g>
		</g>
		<g>
			<path d="M350.8,218.7c-8.7-5.1-19.1-7.4-29.1-6.4c-9.5,0.9-18.3,4.6-25.7,10.6c-4.1,3.3-7.6,7.2-10.4,11.6
				c-1.9,2.9,2.7,5.5,4.6,2.7c5.7-8.8,14.7-15.4,24.8-18.2c11.1-3.1,23.3-1.4,33.3,4.4C351.1,225,353.8,220.4,350.8,218.7
				L350.8,218.7z"/>
		</g>
		<circle cx="327.3" cy="276.9" r="24.5"/>
		<circle class="st0" cx="347.6" cy="267.1" r="9"/>
	</g>
	<g>
		<path class="st2" d="M449.7,399c-4.8,1-9.7,0.4-14.5-0.1c-5-0.5-10-1-14.9-1.1c-11.1-0.3-22.2,0.6-33,2.7c-5,1-10.4,2.8-15.5,1.7
			c-0.4-0.1-0.7-0.2-1-0.3c6-11.2,16.6-19.6,28.9-22.9c12.2-3.3,25.3-1,35.9,5.8C441.2,388.5,446.2,393.3,449.7,399z"/>
		<g>
			<path d="M370,397.7c-7.2-15.9,1.6-33.3,14.3-43.3c12.5-9.9,29.3-13.8,44.6-8.6c7.5,2.5,14.1,7.2,18.8,13.5
				c4.8,6.3,8,13.9,9.6,21.6c0.8,4,1.1,8.4-1.2,12c-2,3.2-5.5,5-9,5.9c-4.2,1.1-8.7,0.7-12.9,0.3c-4.7-0.5-9.3-1-14-1.1
				c-10.1-0.3-20.1,0.4-30,2.3c-5,0.9-10.4,2.9-15.5,1.7c-3.8-0.9-5-4.4-6.1-7.7c-0.5-1.6-3.1-0.9-2.5,0.7c1,3,2.1,6.4,4.9,8.3
				c3.5,2.3,8.2,1.8,12.1,1.1c5.2-1,10.3-2.1,15.6-2.8c5-0.6,10.1-1,15.2-1c5.1-0.1,10.2,0.2,15.2,0.7c5.1,0.5,10.3,1.4,15.4,0.8
				c7.8-0.9,15-5.6,16-13.9c0.5-4.3-0.6-8.7-1.8-12.7c-1.3-4.1-2.9-8.2-5-11.9c-4.2-7.4-10.2-13.6-17.8-17.6
				c-15.5-8-34.1-6-48.6,3.3c-8,5.1-15,12.4-18.9,21.1c-4.1,9.1-4.7,19.6-0.6,28.9C368.4,400.6,370.7,399.2,370,397.7L370,397.7z"/>
		</g>
		<g>
			<path d="M373.6,402.1c5.3-10.3,14.8-18,25.9-21.3c11.3-3.3,23.5-1.3,33.5,4.9c5.6,3.5,10.4,8.3,13.8,14c0.9,1.5,3.2,0.1,2.3-1.3
				c-6.4-10.7-17.5-18.5-29.8-20.9c-12-2.4-24.6,0.6-34.5,7.8c-5.6,4.1-10.2,9.4-13.4,15.5C370.5,402.3,372.8,403.7,373.6,402.1
				L373.6,402.1z"/>
		</g>
		<g>
			<path d="M383.7,355c18.5,9.7,41.2,9.9,59.9,0.7c1.5-0.8,0.2-3-1.3-2.3c-17.8,8.8-39.6,8.5-57.2-0.7
				C383.6,351.9,382.2,354.2,383.7,355L383.7,355z"/>
		</g>
		<path d="M459,383.9c0.6,4,0.4,8.2-2,11.5c-1.7,2.4-4.2,3.9-6.9,4.9c-6.4-10.8-17.1-18.7-29.1-21.5c-12.6-3-25.6-0.2-36.1,7.3
			c-5.8,4.1-10.5,9.6-13.8,15.9c-0.9-1-1.6-2.3-2.1-3.6c-0.3-0.8-0.6-1.6-0.9-2.5l0-0.1c-4.7-15.7,3.8-31.9,15.8-41.6
			c13.1-10.5,30.9-14.5,46.8-8.3C446.2,351.8,456.5,367.4,459,383.9z"/>
		<path class="st1" d="M442.3,353.5c-17.5,8.6-38.9,8.5-56.3-0.3c12.6-9.3,29.3-12.6,44.1-7C434.7,347.9,438.8,350.4,442.3,353.5z"
			/>
	</g>
</g>
</svg>
