<?xml version="1.0" encoding="utf-8"?>
<!-- Generator: Adobe Illustrator 25.1.0, SVG Export Plug-In . SVG Version: 6.00 Build 0)  -->
<svg version="1.1" id="Layer_1" xmlns="http://www.w3.org/2000/svg" xmlns:xlink="http://www.w3.org/1999/xlink" x="0px" y="0px"
	 viewBox="0 0 800 800" style="enable-background:new 0 0 800 800;" xml:space="preserve">
<style type="text/css">
	.st0{fill:#FCFCFC;}
	.st1{fill:#F98F8F;}
	.st2{fill:#8DB0F7;}
</style>
<g>
	<path d="M476.3,414.5c-4,1.8-8.1,2.5-12.2,2.5c-9.5-0.1-19.2-4.1-28.2-6.5c-21.9-5.8-43.7,2.6-65.6,4.1c-1.9,0.1-3.7,0.2-5.6,0.2
		l-19-3.8c-3-2.4-4.6-6-6.4-9.4c-1.7-3.6-2.7-7.3-2.9-11.2l4.4-21.7c3.7-7.9,9.4-14.8,16.3-19.9c1.5-1.1,3.1-2.1,4.7-3.1
		c10.6-6.2,23-9,35.1-10.5c7.8-1,15.6-1.4,23.5-1.6c8-0.2,16-0.4,24-0.1c0.6,0,1.2,0,1.7,0.1l25.2,5.1c4.3,1.8,8.4,4.3,12,7.5
		c4.6,4.1,8.2,9.4,9.9,15.4c1.9,6.6,1.5,13.6,0.4,20.3C491.7,393.8,488.5,408.9,476.3,414.5z"/>
	<path class="st0" d="M467.5,337.1l-1.4,5.5c-4.8,3.5-10.2,7-15.7,9.4c-26.3,11.6-55.9,7.4-79.9-8.1c-0.1-0.1,2.2-1.1,2.1-1.3
		c-2.8,1.3,1.6-1.6-1,0.1l-9.6,2.9c10.6-6.2,23-9,35.1-10.5c7.8-1,15.6-1.4,23.5-1.6c8-0.2,16-0.4,24-0.1c0.6,0,1.2,0,1.7,0.1
		c1,0,2,0.1,3.1,0.2c1,0,2,0.1,3,0.2c1.3,0.1,2.6,0.3,3.9,0.5c1.9,0.3,3.8,0.6,5.7,1.1C463.8,335.9,465.6,336.5,467.5,337.1z"/>
	<path class="st1" d="M464.5,415.2l-0.4,1.8c-9.5-0.1-19.2-4.1-28.2-6.5c-21.9-5.8-43.7,2.6-65.6,4.1l-11-2.2l5.1,0.2
		c1.6,0.1,1.7,0.4,3.3,0.4c0.7,0-0.4-0.4,0.3-0.4c2.2-7.7,6.5-14,13.1-18.6c13-9.1,28.8-9.7,43.9-6.6c14.4,3,27.9,11.5,31.1,26.8
		C458.3,414.6,462.3,415.2,464.5,415.2z"/>
	<g>
		<g>
			<path class="st2" d="M279.9,283.7c-15-6.2-36-4.2-48.1,6.7c-3.5,3.1-6.7,7.9-4.9,12.2c1.1,2.7,3.9,4.4,6.8,4.7
				c2.9,0.3,5.8-0.5,8.4-1.7c6.8-3.1,12.2-8.6,18.1-13.2c5.9-4.7,12.9-8.8,20.4-8.3"/>
			<g>
				<path d="M280.1,283c-14.4-5.8-33-4.7-45.9,4.5c-5.1,3.7-12.5,11.9-6.3,18c6.7,6.7,17.2,0.2,23-4.3c8.9-6.8,17.5-16.7,29.7-16.2
					c1,0,1-1.5,0-1.6c-7.8-0.3-14.6,3.6-20.6,8.2c-6.7,5.2-13.2,12.6-21.8,14.6c-5,1.2-12-1-11-7.4c0.7-4.4,4.5-7.8,8-10.3
					c6-4.2,13.3-6.5,20.6-7.3c8-0.8,16.3,0.1,23.8,3.1C280.6,284.9,281,283.3,280.1,283L280.1,283z"/>
			</g>
		</g>
		<g>
			<g>
				<path d="M499.5,191c19.7-8.5,42.8-0.6,53.6,17.7c2.6,4.4,9.5,0.4,6.8-4c-6-10.1-15.2-17.8-26.1-22c-12.4-4.7-26.2-3.8-38.3,1.4
					C490.8,186.2,494.8,193,499.5,191L499.5,191z"/>
			</g>
			<g>
				<path d="M292.7,194.3c14-16.8,38-20.7,56.5-8.9c4.3,2.8,8.3-4.1,4-6.8c-21.3-13.6-49.9-9.3-66.1,10.1
					C283.9,192.6,289.4,198.3,292.7,194.3L292.7,194.3z"/>
			</g>
			<g>
				<path d="M409,315.2c2.7-6.4,9.6-10.7,16.5-10.2c6.8,0.4,12.9,5.5,14.8,11.9c0.6,1.9,3.7,1.1,3.1-0.8
					c-2.4-7.8-9.7-13.7-17.9-14.3c-8.5-0.5-16.4,4.9-19.6,12.6C405.2,316.3,408.3,317.1,409,315.2L409,315.2z"/>
			</g>
			<g>
				<path d="M471.6,280.7c6.8-12,20.4-19.5,34.3-18.4c13.4,1.1,25.7,10.6,30.4,23.1c1.4,3.8,7.6,2.1,6.1-1.7
					c-5.7-15-19.5-26-35.5-27.7c-16.3-1.7-32.7,7.3-40.7,21.4C464.1,281,469.6,284.2,471.6,280.7L471.6,280.7z"/>
			</g>
			<g>
				<path class="st2" d="M538.5,296.8c-5,10.6-8.9,22.2-10.1,33.9c-0.3,2.7-0.3,5.6,1.5,7.6c2.4,2.6,7,1.8,9.7-0.5
					c4.8-4,5.9-10.9,5.7-17.1c-0.3-8.6-2.5-17.2-6.4-24.8"/>
				<g>
					<path d="M537.8,296.4c-3.3,7.1-6.2,14.4-8.1,22.1c-0.9,3.8-1.6,7.6-2.1,11.4c-0.3,2.7-0.6,5.9,1.1,8.3c3.4,4.7,10.1,2,13.1-1.6
						c3.8-4.6,4.4-10.9,4.2-16.6c-0.4-8.5-2.6-16.9-6.5-24.5c-0.5-0.9-1.8-0.1-1.4,0.8c3.7,7.4,5.9,15.4,6.3,23.7
						c0.3,6.5-0.7,15.8-7.7,18.6c-1.6,0.7-3.6,0.9-5.2,0.1c-2-1-2.5-3.3-2.5-5.4c-0.1-4,0.8-8.1,1.7-12c1.8-8.3,4.8-16.3,8.5-24
						C539.6,296.3,538.2,295.5,537.8,296.4L537.8,296.4z"/>
				</g>
			</g>
			<g>
				<path class="st2" d="M571.7,311.5c16.5-5.2,38.2-0.4,49,13.2c3.6,4.5,6.2,10.9,3.1,15.7c-3.2,5.1-11.1,5-16.2,1.8
					c-5.1-3.2-8.4-8.6-12.2-13.3c-6.4-7.8-14.7-13.9-24-17.6"/>
				<g>
					<path d="M571.9,312.3c15.4-4.7,34.4-1.3,45.9,10.4c3.2,3.2,6.1,7.4,6.5,12.1c0.4,5.1-3.3,8.7-8.3,9c-9.8,0.5-15-9.1-20.4-15.6
						c-6.4-7.7-14.8-13.7-24.1-17.5c-0.9-0.4-1.4,1.1-0.4,1.5c10.9,4.5,19.5,11.9,26.6,21.2c5,6.6,11.9,14.1,21.1,11.5
						c9.4-2.6,7.7-13.4,3.2-19.6c-5-6.9-12.7-11.6-20.7-14.2c-9.6-3.1-20.2-3.3-29.9-0.4C570.5,311.1,570.9,312.6,571.9,312.3
						L571.9,312.3z"/>
				</g>
			</g>
			<g>
				<path d="M292.5,276.5c8.3-11.8,22.3-19.2,36.8-19c14.5,0.2,28.3,8,36.3,19.9c2.3,3.4,7.8,0.2,5.5-3.2
					c-9.3-13.9-25-22.9-41.7-23.1c-16.8-0.2-32.7,8.5-42.2,22.1C284.7,276.6,290.2,279.8,292.5,276.5L292.5,276.5z"/>
			</g>
		</g>
	</g>
	<g>
		<path d="M493.8,381.8c1.1-6.7,1.5-13.7-0.4-20.3c-1.7-6-5.3-11.3-9.9-15.4c-3.6-3.3-7.7-5.7-12-7.5c-1.3-0.5-2.6-1.1-4-1.5
			c-1.8-0.6-3.7-1.1-5.6-1.6c-1.9-0.4-3.8-0.8-5.7-1.1c-1.3-0.2-2.6-0.4-3.9-0.5c-1-0.1-2-0.2-3-0.2c-1-0.1-2-0.2-3.1-0.2
			c-0.6-0.1-1.2-0.1-1.7-0.1c-8-0.3-16-0.1-24,0.1c-7.8,0.2-15.7,0.6-23.5,1.6c-12.1,1.5-24.5,4.2-35.1,10.5c-1.6,0.9-3.1,2-4.7,3.1
			c-6.9,5.1-12.6,12.1-16.3,19.9c-2,4.2-3.4,8.8-4.1,13.4c-0.4,2.8-0.5,5.5-0.3,8.3c0.3,3.9,1.2,7.7,2.9,11.2c1.7,3.4,3.4,7,6.4,9.4
			c0.6,0.5,1.1,0.9,1.8,1.2c2.3,1.3,5,1.8,7.6,2.1c0.1,0,0.2,0,0.3,0c0,0,0.1,0,0.1,0c3.1,0.4,6.1,0.5,9.2,0.5
			c1.9,0,3.7-0.1,5.6-0.2c21.9-1.5,43.6-9.9,65.6-4.1c9,2.4,18.7,6.4,28.2,6.5c4.1,0.1,8.2-0.6,12.2-2.5
			C488.5,408.9,491.7,393.8,493.8,381.8z M487.5,394.8c-1.8,5.9-4.6,11.8-9.8,15.3c-4,2.7-8.4,3.7-13,3.7c-2.2,0-4.5-0.2-6.7-0.6
			c-1.1-0.2-2.3-0.4-3.4-0.7c-5-1.1-10-2.8-14.5-4.2c-6.5-1.9-13-3.1-19.7-3.2c-6.3-0.1-12.5,0.6-18.6,1.5
			c-10.8,1.6-21.5,4.1-32.3,4.7c-1.1,0.1-2.2,0.1-3.3,0.2c-0.7,0-1.3,0-2,0c-1.6,0-3.1,0-4.7-0.1c-1.2-0.1-2.4-0.2-3.6-0.4
			c-0.3,0-0.5-0.1-0.7-0.1c-0.2,0-0.3,0-0.5-0.1c-4.3-0.7-7.6-2.2-10-6.2c-3-5.1-5-10.4-5.2-16.4c-0.3-12.8,6.4-25.5,15.7-34
			c1.8-1.6,3.7-3.1,5.7-4.5c2.6-1.7,5.4-3.2,8.2-4.5c1.1-0.5,2.3-1,3.5-1.4c6.1-2.4,12.6-3.8,18.9-4.9c14.4-2.3,29.2-2.5,43.8-2.6
			c10.2-0.1,20.9,0.2,30.7,3.4c0.2,0.1,0.5,0.2,0.8,0.3c0.9,0.3,1.8,0.6,2.7,1c2.2,0.9,4.3,2,6.4,3.2c5,3.1,9.4,7.3,12.2,12.5
			c3.2,5.8,3.8,12.6,3.2,19.2C490.7,382.4,489.4,388.8,487.5,394.8z"/>
	</g>
	<g>
		<path d="M455.2,414.5c-0.1-0.6-0.3-1.3-0.5-1.9c-1.8-6.4-5.9-11.9-11.1-15.9c-11.8-9-29-10.7-43.3-8.4
			c-13.2,2.1-26.5,9.9-30.7,23.2c-0.1,0.4-0.2,0.9-0.4,1.3c-0.3,1-1.2,1.3-1.9,1.2c-0.8-0.2-1.4-0.8-1.2-1.8c0-0.2,0.1-0.3,0.1-0.5
			c2.2-7.7,7.3-14.3,13.9-18.9c13-9.1,31-10.1,46.1-7c14.4,3,28.7,12.3,31.9,27.5c0,0.1,0,0.1,0.1,0.2
			C458.6,415.4,455.6,416.5,455.2,414.5z"/>
	</g>
	<g>
		<path d="M469.8,341.1c-0.1,0-0.1,0.1-0.2,0.2c-1.1,0.9-2.3,1.8-3.5,2.7c-4.8,3.5-10,6.5-15.5,9c-26.3,11.6-57,8.3-81-7.2
			c-0.1-0.1-0.3-0.2-0.4-0.3c-1.1-1.2,0.2-3.5,1.8-2.5c0.6,0.4,1.1,0.7,1.7,1.1c6.3,3.9,13,6.9,20.1,9.1c13.2,4.1,27.2,4.9,40.8,2
			c11.9-2.5,23-7.7,32.5-15.1c0.4-0.2,0.7-0.5,1-0.7c0.3-0.3,0.7-0.5,1-0.8C469.6,337.2,471.4,339.8,469.8,341.1z"/>
	</g>
</g>
</svg>
