<?xml version="1.0" encoding="utf-8"?>
<!-- Generator: Adobe Illustrator 25.1.0, SVG Export Plug-In . SVG Version: 6.00 Build 0)  -->
<svg version="1.1" id="Layer_1" xmlns="http://www.w3.org/2000/svg" xmlns:xlink="http://www.w3.org/1999/xlink" x="0px" y="0px"
	 viewBox="0 0 800 800" style="enable-background:new 0 0 800 800;" xml:space="preserve">
<style type="text/css">
	.st0{fill:#F9F7F7;}
	.st1{fill:#FFFFFF;}
</style>
<g>
	<g>
		<path d="M378.7,391.7c8.2-10.1,21.3-15.7,34.2-15.6c13.6,0.1,26.6,6.1,36.2,15.4c2.3,2.2,5.9-1.2,3.6-3.4
			c-10.8-10.4-25.4-17.2-40.5-17c-14.5,0.2-28.5,6.7-37.7,17.9C372.5,391.6,376.7,394.2,378.7,391.7L378.7,391.7z"/>
	</g>
	<g>
		<path d="M399,326.2c3.1-6,9.4-10.2,16.3-10.3c6.9,0,13.3,4,16.4,10.1c1,1.9,3.9,0.3,2.9-1.6c-3.7-7-11.2-11.8-19.2-11.8
			c-8,0-15.6,4.7-19.2,11.8C395.2,326.4,398,328.1,399,326.2L399,326.2z"/>
	</g>
	<g>
		<g>
			<path class="st0" d="M472.7,264.7c-5,12-9.6,28.4-10.4,41.4c-0.1,1.2-0.1,2.5,0.7,3.5c0.7,0.8,1.9,1.1,3,1.2
				c12.2,1.9,24.7,2.3,37.1,1.2c10.5-0.9,21.1-3,30.4-7.8c9.3-4.9,17.4-12.8,20.8-22.8c2.5-7.4,3.5-14.5,1.3-22
				c-1.9-6.6-5.6-13.6-10.7-18.2c-5.1-4.6-14.1-6.4-21-6.1c-7.1,0.3-12.3,2.5-18.3,6.2c-13.4,8.4-23.4,12.5-33.5,24.7"/>
			<g>
				<path d="M471.2,264.3c-3.7,9-6.6,18.5-8.5,28c-0.9,4.5-1.7,9.2-2,13.8c-0.2,4.5,2.2,5.9,6.3,6.6c11.2,1.7,22.6,2.1,33.9,1.2
					c10.1-0.7,20.1-2.4,29.5-6.4c17.1-7.3,30.1-24.1,27.9-43.4c-1-8.9-5.8-18.9-12.8-24.6c-6.3-5.2-15.7-6.7-23.6-5.9
					c-10.3,1-18.7,7.5-27.4,12.6c-8.7,5.2-16.8,10.8-23.3,18.6c-1.4,1.6,0.9,4,2.2,2.4c5.1-6.1,11.1-11,17.8-15.2
					c3.3-2,6.6-4,9.9-5.9c3.6-2.1,7-4.5,10.7-6.3c7.3-3.5,15.8-3.9,23.6-1.7c8.6,2.5,13.9,9.4,17.1,17.5c7,17.5-1.8,36.4-17.4,45.7
					c-16,9.5-36.8,10.5-54.9,9.4c-2.8-0.2-5.6-0.4-8.5-0.7c-1.4-0.2-2.8-0.3-4.2-0.5c-1.9-0.3-3.7-0.6-3.7-2.9
					c0.1-4.6,1-9.3,1.9-13.8c1.9-9.4,4.8-18.7,8.4-27.6C475.1,263.3,471.9,262.3,471.2,264.3L471.2,264.3z"/>
			</g>
		</g>
		<g>
			<path d="M460.4,281.4c23.4-31.4,60.5-50.6,99.6-51.7c4.2-0.1,4.5-6.7,0.2-6.6c-32.5,0.9-63.9,13.3-87.9,35.3
				c-6.4,5.9-12.3,12.5-17.5,19.5C452.3,281.3,457.8,284.8,460.4,281.4L460.4,281.4z"/>
		</g>
		<circle cx="500.6" cy="280" r="25.4"/>
		<circle class="st1" cx="484.8" cy="270.2" r="9.2"/>
	</g>
	<g>
		<g>
			<path class="st0" d="M364.1,259.8c4.9,12,9.4,28.5,10.1,41.5c0.1,1.2,0.1,2.5-0.7,3.5c-0.7,0.8-1.9,1.1-3,1.2
				c-12.3,1.8-24.7,2.1-37.1,1c-10.5-1-21-3.1-30.3-8c-9.3-4.9-17.3-12.9-20.6-22.9c-2.4-7.4-3.4-14.6-1.2-22
				c1.9-6.6,5.7-13.6,10.8-18.1c5.1-4.6,14.2-6.3,21-6c7.1,0.3,12.3,2.5,18.2,6.4c13.3,8.5,23.3,12.7,33.3,24.9"/>
			<g>
				<path d="M362.7,260.6c3.3,8.1,5.8,16.5,7.6,25.1c0.9,4.1,1.6,8.2,2,12.4c0.2,2.2,1,4.9-1.4,6.2c-0.9,0.4-2.5,0.4-3.5,0.5
					c-1.5,0.2-3,0.4-4.5,0.5c-9.8,1-19.7,1-29.5,0c-9.5-0.9-19.1-2.7-27.8-6.9c-15.4-7.4-27.3-24.1-23.4-41.9
					c1.7-7.9,6.3-17.3,13.6-21.4c6.8-3.8,15.9-4.6,23.3-2.7c4.7,1.2,8.7,3.7,12.7,6.2c3.7,2.4,7.6,4.6,11.3,6.9
					c7.6,4.6,14.4,9.9,20.1,16.7c1.4,1.6,3.8-0.6,2.4-2.2c-5.6-6.7-12.3-12-19.7-16.6c-4-2.5-8-4.8-11.9-7.3
					c-3.9-2.5-7.8-4.9-12.3-6.3c-8-2.6-17.3-2-25,1.3c-8.3,3.5-13.4,11.9-16.3,20c-6.6,18.2,3,37.9,18.8,47.6
					c8.5,5.2,18.3,7.9,28.2,9.3c11.2,1.6,22.7,1.8,34,0.8c3-0.3,5.9-0.6,8.9-1c2-0.3,4.1-0.8,5-2.8c0.9-1.9,0.5-4.4,0.3-6.4
					c-0.2-2.5-0.6-5-1-7.5c-1.8-10.9-5-21.6-9.1-31.8C364.8,257.1,361.9,258.6,362.7,260.6L362.7,260.6z"/>
			</g>
		</g>
		<g>
			<path d="M381.5,272.6c-18.6-25.3-45.9-43.7-76.4-51.1c-9.2-2.2-18.5-3.5-28-3.8c-4.2-0.1-4.5,6.4-0.2,6.6
				c39.6,1.3,76.4,21,99.8,52.9C379.2,280.5,384,275.9,381.5,272.6L381.5,272.6z"/>
		</g>
		<circle cx="336.1" cy="274.9" r="25.4"/>
		<circle class="st1" cx="352" cy="265.2" r="9.2"/>
	</g>
</g>
</svg>
