<?xml version="1.0" encoding="utf-8"?>
<!-- Generator: Adobe Illustrator 25.1.0, SVG Export Plug-In . SVG Version: 6.00 Build 0)  -->
<svg version="1.1" id="Layer_1" xmlns="http://www.w3.org/2000/svg" xmlns:xlink="http://www.w3.org/1999/xlink" x="0px" y="0px"
	 viewBox="0 0 800 800" style="enable-background:new 0 0 800 800;" xml:space="preserve">
<style type="text/css">
	.st0{fill:#FFFF00;}
	.st1{fill:#375A7D;}
	.st2{fill:#F2358D;}
	.st3{fill:#F8C58C;}
	.st4{fill:#0080FF;}
	.st5{fill:#9D43D9;}
	.st6{fill:#660099;}
</style>
<g id="Group_10335" transform="translate(0 0)">
	<path id="Path_9793" d="M798,339.8c-0.3-0.9-1-1.5-2-1.6L719,326.5l42.8-116.2c0.4-0.9,0.1-1.9-0.6-2.6c-0.7-0.7-1.8-0.8-2.7-0.4
		l-233.8,114l-93-91.1l50.4-83.6c0.6-0.9,0.5-2.1-0.3-2.9c-0.8-0.8-1.9-1-2.9-0.5l-43.6,23.6l-33.5-54.4c0,0-0.1-0.1-0.1-0.1
		c0-0.1-0.1-0.2-0.2-0.3c-0.1-0.1-0.2-0.3-0.4-0.4c-0.1-0.1-0.1-0.1-0.2-0.2c-0.1-0.1-0.3-0.1-0.3-0.2c-0.6-0.3-1.3-0.3-1.9,0
		c-0.1,0.1-0.2,0.1-0.3,0.2c-0.1,0.1-0.2,0.1-0.3,0.2l-0.4,0.4c0,0.1-0.1,0.2-0.2,0.3l-0.1,0.1L364,166.9l-43.6-23.6
		c-1.2-0.6-2.6-0.1-3.2,1.1c-0.4,0.7-0.3,1.6,0.1,2.3l50.4,83.6l-92.8,90.9L41.5,207.3c-0.9-0.4-2-0.3-2.7,0.4
		c-0.7,0.7-1,1.7-0.6,2.6L81,326.5L3.9,338.2c-0.9,0.1-1.7,0.7-1.9,1.6c-0.3,0.9-0.1,1.8,0.6,2.5l97.1,91c0.4,0.3,0.8,0.6,1.3,0.7
		l126.9,16.2l66.8,65.4c-12.2,11.1-51.3,51.5-54.5,111.2c-8.2,4.6-13.3,13.1-13.5,22.5v0.9h-2.1c-1.3,0-2.4,1.1-2.4,2.4v33.8
		c0,1.3,1.1,2.4,2.4,2.4h65.3c1.3,0,2.4-1.1,2.4-2.4v-33.8c0-1.3-1.1-2.4-2.4-2.4h-2.1v-0.9c-0.1-8.1-4-15.7-10.5-20.5
		c2.7-49.4,39.6-83.4,44-87.3l76.9,75.3c0.5,0.4,1.1,0.7,1.7,0.7c0.6,0,1.3-0.2,1.7-0.7l76.9-75.3c4,3.6,41.3,37.6,44.1,87.2
		c-6.6,4.8-10.5,12.4-10.6,20.5c0,0.3,0,0.6,0,0.9h-2.1c-1.3,0-2.4,1.1-2.4,2.4v33.8c0,1.3,1.1,2.4,2.4,2.4h65.3
		c1.3,0,2.4-1.1,2.4-2.4v-33.8c0-1.3-1.1-2.4-2.4-2.4h-2.1v-0.9c-0.2-9.3-5.3-17.9-13.5-22.4c-3.2-59.8-42.5-100.2-54.5-111.3
		l66.6-65.3L699,434c0.5-0.1,1-0.3,1.3-0.7l97.1-91C798.1,341.7,798.3,340.7,798,339.8z M347.5,187.3L347.5,187.3L326,151.8v0
		l37.7,20.5c1.1,0.6,2.5,0.3,3.2-0.8l32.7-53.2l0,0l32.7,53.2c0.1,0.2,0.2,0.4,0.4,0.5c0.1,0.2,0.3,0.3,0.5,0.4
		c0.7,0.4,1.6,0.4,2.3,0l37.7-20.5l-21.4,35.5l-23.7,39.4l-26.8-26.2h0c-0.1-0.1-0.2-0.2-0.4-0.3c-0.4-0.3-0.9-0.4-1.3-0.4
		c-0.5,0-0.9,0.1-1.3,0.4c-0.1,0.1-0.3,0.2-0.4,0.3l-26.8,26.2L347.5,187.3z M222.1,444.6l-119.7-15.3L9.5,342.2l75.1-11.3
		c0.2,0,0.4-0.1,0.5-0.2c0.2,0,0.4-0.1,0.5-0.3c0.1,0,0.2-0.1,0.3-0.2c0.2-0.2,0.3-0.3,0.4-0.5c0.4-0.6,0.5-1.4,0.2-2.1L44.8,214.3
		l226.4,110.4l0.1,0.1l-56.5,55.2l-0.1,0l-20.5-8l-0.3-0.1l-34.4-13.4l-9.3-53c0-0.3-0.1-0.6-0.3-0.8c-0.1-0.2-0.2-0.3-0.3-0.4
		c0-0.1-0.1-0.2-0.2-0.2c-0.2-0.2-0.5-0.3-0.8-0.4c-0.4-0.2-0.8-0.2-1.2-0.1c-1.3,0.2-2.2,1.5-1.9,2.8l8.8,50.1l-36.8-14.3
		c-1.2-0.5-2.6,0.1-3.1,1.4c-0.5,1.2,0.1,2.6,1.4,3.1l40.8,15.9l28.8,11.2h-0.1l-46.1,12.3c-1.3,0.3-2.1,1.7-1.7,3c0,0,0,0,0,0
		c0.3,1.1,1.2,1.8,2.3,1.8c0.2,0,0.4,0,0.7-0.1l52.6-14l17.9,7l0.2,0L187.5,407v0c-0.5,0.4-0.8,1.1-0.8,1.7c0,0.6,0.3,1.3,0.8,1.7
		l34.9,34.2L222.1,444.6z M287.3,684h-60.4v-29h60.4L287.3,684z M282.8,649.3v0.9h-51.3c0-0.3,0-0.6,0-0.9c0-0.8,0-1.6,0.2-2.4
		c0.1-0.7,0.2-1.4,0.4-2.1c0.2-0.7,0.4-1.4,0.6-2c0.2-0.5,0.3-0.9,0.5-1.3c0.2-0.6,0.5-1.2,0.8-1.7c0.3-0.6,0.6-1.1,1-1.7
		c0.3-0.5,0.6-0.9,1-1.3c0.4-0.6,0.8-1.1,1.3-1.5c0.9-1,1.8-1.8,2.9-2.6c0.1-0.1,0.2-0.1,0.3-0.2c0.6-0.5,1.3-1,2.1-1.4
		c0.7-0.5,1.6-0.9,2.4-1.3c3.8-1.8,8-2.7,12.3-2.7c5.3,0,10.5,1.4,15,4.2c0.8,0.5,1.5,1,2.2,1.5c0.8,0.6,1.5,1.2,2.1,1.9
		C280.5,638.5,282.7,643.7,282.8,649.3L282.8,649.3z M317.6,538.2c-5.8,5.2-41.3,38.8-45.2,87.7c-4.8-2.4-10-3.7-15.3-3.6
		c-4.1,0-8.2,0.7-12,2.2c4.2-56.7,41.6-95.1,52.9-105.4h0L317.6,538.2C317.7,538.1,317.7,538.1,317.6,538.2L317.6,538.2z M572.4,684
		H512v-29h60.4L572.4,684z M557.1,631.1c0.8,0.5,1.5,1,2.3,1.6c1.3,1,2.5,2.1,3.6,3.4c1.1,1.2,2,2.6,2.7,4c1.5,2.8,2.3,6,2.3,9.2
		v0.9h-51.3c0-0.3,0-0.6,0-0.9c0-1.4,0.2-2.8,0.5-4.1c0.3-1.3,0.7-2.6,1.3-3.9c0.3-0.6,0.6-1.2,0.9-1.8c0.7-1.2,1.5-2.3,2.3-3.4
		c0.5-0.5,0.9-1.1,1.4-1.5c0.7-0.7,1.4-1.3,2.1-1.8c0.6-0.5,1.2-0.9,1.9-1.3c0.1-0.1,0.2-0.2,0.4-0.3c1.1-0.6,2.2-1.2,3.3-1.7
		c0,0,0,0,0,0l0,0c1.2-0.5,2.4-0.9,3.6-1.3c2.6-0.7,5.3-1.1,8-1.1c4.3,0,8.5,0.9,12.4,2.8C555.5,630.1,556.3,630.6,557.1,631.1
		L557.1,631.1z M554.3,624.4c-1.7-0.7-3.4-1.2-5.2-1.5c-0.7-0.1-1.3-0.3-2-0.3h-0.2c-0.7-0.1-1.4-0.2-2.1-0.3
		c-0.8,0-1.7-0.1-2.6-0.1c-5.3,0-10.6,1.2-15.3,3.6c-3.9-49-39.6-82.7-45.2-87.7l19.6-19.2C512.6,529.2,550.2,567.6,554.3,624.4
		L554.3,624.4z M399.6,611.8l-76.5-75l-23.6-23.1l-68.2-66.9l-38.9-38.1l24.5-24.1l60.7-59.4l122-119.6l207.3,203L399.6,611.8z
		 M697.6,429.3l-119.9,15.3l34.8-34.2c0.2-0.2,0.4-0.5,0.5-0.8c0.1-0.3,0.2-0.6,0.2-0.9c0-0.3-0.1-0.7-0.2-1
		c-0.1-0.3-0.3-0.5-0.5-0.8v0l-23.6-23.1l18-7l52.7,14c0.2,0,0.4,0.1,0.6,0.1c1.3,0,2.4-1.1,2.4-2.4c0-1.1-0.7-2.1-1.8-2.4
		l-46.2-12.3h0l0,0l28.8-11.2l40.8-15.9c1.2-0.5,1.8-1.9,1.4-3.1c-0.5-1.2-1.9-1.8-3.1-1.4l0,0l-36.8,14.3l8.8-50.1
		c0-0.2,0-0.3,0-0.5c0-0.2,0-0.4-0.1-0.5c0-0.1,0-0.2-0.1-0.3c0-0.1-0.1-0.3-0.2-0.4c-0.1-0.1-0.1-0.2-0.2-0.3
		c-0.2-0.2-0.4-0.4-0.6-0.5c-0.2-0.1-0.5-0.2-0.8-0.3c-1.3-0.2-2.6,0.6-2.9,2l-9.3,53L605.9,372c0,0-0.1,0-0.1,0l-20.7,8.1
		l-56.5-55.2l226.5-110.5l-41.8,113.3c-0.3,0.7-0.2,1.5,0.2,2.1c0.1,0.2,0.3,0.4,0.4,0.5c0.1,0.1,0.2,0.2,0.3,0.2
		c0.1,0.1,0.3,0.3,0.5,0.3c0.2,0.1,0.3,0.1,0.5,0.2l65.3,9.8l9.8,1.5L697.6,429.3z"/>
	<path id="Path_9794" class="st0" d="M606.9,408.7l-207.3,203l-76.5-75l-23.6-23.1l-68.2-66.9l-38.9-38.1l24.5-24.1l60.7-59.4
		l122-119.6L606.9,408.7z"/>
	<path id="Path_9795" class="st1" d="M567.9,649.2c0,0.3,0,0.6,0,0.9h-51.3c0-0.3,0-0.6,0-0.9c0.1-5.5,2.4-10.8,6.4-14.7
		c0.7-0.7,1.4-1.3,2.1-1.9c0.7-0.5,1.5-1.1,2.3-1.6c4.5-2.8,9.7-4.2,15-4.2c4.3,0,8.5,0.9,12.4,2.8l0,0c0.8,0.4,1.6,0.8,2.4,1.3
		c0.8,0.5,1.6,1,2.3,1.6C564.6,636.5,567.8,642.7,567.9,649.2z"/>
	<rect id="Rectangle_639" x="512" y="655" class="st2" width="60.4" height="29"/>
	<rect id="Rectangle_640" x="226.9" y="655" class="st2" width="60.4" height="29"/>
	<path id="Path_9796" class="st1" d="M282.8,649.2c0,0.3,0,0.6,0,0.9h-51.3c0-0.3,0-0.6,0-0.9c0.1-6.6,3.3-12.8,8.7-16.7
		c0.7-0.6,1.5-1.1,2.3-1.6c0.8-0.5,1.6-0.9,2.4-1.3c3.8-1.8,8.1-2.7,12.3-2.7c5.3,0,10.5,1.4,15,4.2c0.8,0.5,1.5,1,2.2,1.6
		c0.7,0.6,1.4,1.2,2.1,1.9C280.5,638.5,282.8,643.7,282.8,649.2z"/>
	<path id="Path_9797" class="st3" d="M317.7,538.1L317.7,538.1c-5.8,5.2-41.3,38.8-45.2,87.7c-4.7-2.4-10-3.7-15.3-3.7
		c-4.1,0-8.2,0.7-12,2.2c4.2-56.7,41.6-95,52.9-105.4l0,0L317.7,538.1z"/>
	<path id="Path_9798" class="st3" d="M554.3,624.4c-8.9-3.4-18.9-2.9-27.4,1.4c-3.9-49-39.6-82.7-45.2-87.7l19.6-19.2
		C512.6,529.2,550.2,567.6,554.3,624.4z"/>
	<path id="Path_9799" class="st4" d="M790.4,342.2l-92.9,87.1l-120,15.3l34.9-34.2c0.5-0.5,0.7-1.1,0.7-1.7c0-0.6-0.3-1.3-0.7-1.7
		l-23.6-23.2l18-7l52.7,14c0.2,0.1,0.4,0.1,0.6,0.1c1.3,0,2.4-1.1,2.4-2.5c0-1.1-0.7-2-1.7-2.3l-46.3-12.3l28.8-11.2l40.8-15.9
		c1.2-0.5,1.9-1.9,1.4-3.1s-1.9-1.9-3.1-1.4l-36.8,14.3l8.8-50.1c0.2-1.3-0.8-2.5-2.1-2.7c-1.3-0.2-2.4,0.7-2.7,1.9l-9.3,53
		L605.9,372l-0.1,0.1l-20.8,8.1l-56.4-55.3l226.5-110.5l-41.8,113.3c-0.5,1.3,0.2,2.7,1.5,3.1c0.1,0.1,0.3,0.1,0.4,0.1L790.4,342.2z
		"/>
	<path id="Path_9800" class="st4" d="M187.5,410.4l34.9,34.2l-0.2,0l-119.7-15.3L9.5,342.2l75.1-11.3c1.3-0.2,2.2-1.4,2-2.8
		c0-0.2-0.1-0.3-0.1-0.5L44.8,214.3l226.4,110.5l0.1,0.1l-56.4,55.3l-0.1,0l-20.4-8c-0.1,0-0.2-0.1-0.3-0.1l-34.4-13.4l-9.3-53
		c-0.1-1.3-1.3-2.3-2.6-2.2c-1.3,0.1-2.3,1.3-2.2,2.6c0,0.1,0,0.2,0.1,0.4l8.8,50.1l-36.8-14.3c-1.2-0.5-2.6,0.1-3.1,1.4
		s0.1,2.6,1.4,3.1l40.8,15.9l28.8,11.2l-46.3,12.3c-1.3,0.4-2,1.7-1.7,3c0.3,1,1.2,1.7,2.3,1.7c0.2,0,0.4,0,0.6-0.1l52.6-14l17.8,7
		l0.1,0.1L187.5,407c-0.5,0.4-0.7,1.1-0.7,1.7C186.8,409.4,187,410,187.5,410.4z"/>
	<path id="Path_9801" class="st5" d="M473.3,151.8l-21.4,35.5l-16.3,8.8c-1.1,0.6-2.5,0.3-3.2-0.8l-32.7-53.2L367,195.3
		c-0.7,1.1-2.1,1.5-3.2,0.8l-16.3-8.8L326,151.8l37.7,20.5c1.1,0.6,2.5,0.3,3.2-0.8l32.7-53.2l32.7,53.2c0.7,1.1,2.1,1.5,3.2,0.8
		L473.3,151.8z"/>
	<path id="Path_9802" class="st6" d="M451.9,187.3l-23.8,39.4l-26.8-26.2c-0.1-0.1-0.2-0.2-0.4-0.3c-0.4-0.3-0.9-0.4-1.3-0.4
		c-0.5,0-0.9,0.1-1.3,0.4c-0.1,0.1-0.3,0.2-0.4,0.3l-26.8,26.2l-23.8-39.4l16.3,8.8c1.1,0.6,2.6,0.3,3.2-0.8l32.7-53.2l32.7,53.2
		c0.7,1.1,2.1,1.5,3.2,0.8L451.9,187.3z"/>
</g>
</svg>
