<?xml version="1.0" encoding="utf-8"?>
<!-- Generator: Adobe Illustrator 25.1.0, SVG Export Plug-In . SVG Version: 6.00 Build 0)  -->
<svg version="1.1" id="Layer_1" xmlns="http://www.w3.org/2000/svg" xmlns:xlink="http://www.w3.org/1999/xlink" x="0px" y="0px"
	 viewBox="0 0 800 800" style="enable-background:new 0 0 800 800;" xml:space="preserve">
<style type="text/css">
	.st0{fill:#FCFCFC;}
	.st1{fill:#0C0A0A;}
	.st2{fill:#FFFFFF;}
	.st3{fill:#F98F8F;}
</style>
<g>
	<g>
		<path d="M473.7,274.6c21.9-5,46.3,4.4,59.1,22.9c2.6,3.8,8.8,0.2,6.2-3.6c-14.7-21.3-42-32-67.2-26.2
			C467.3,268.7,469.2,275.6,473.7,274.6L473.7,274.6z"/>
	</g>
	<g>
		<path d="M331.2,258.4c-25.2-5.8-52.5,5-67.2,26.2c-2.6,3.8,3.6,7.4,6.2,3.6c12.8-18.5,37.2-27.9,59.1-22.9
			C333.8,266.3,335.7,259.4,331.2,258.4L331.2,258.4z"/>
	</g>
	<g>
		<path class="st0" d="M440,348.7c-0.1-11.5,2-23.1,7-33.4s13.3-19.2,23.7-24.1c10.4-4.8,23-5.3,33.3-0.2s17.8,16,17.7,27.5
			c0,11-6.7,21.3-15.7,27.7c-9,6.3-20.1,9.1-31.1,9.9C462.9,357,450.4,355.1,440,348.7"/>
		<g>
			<path d="M441.5,348.7c0-15.9,4-32.3,14.7-44.5c10.1-11.5,25.6-18.1,40.8-14.2c13.6,3.5,24.5,16.3,23.3,30.7
				c-1.2,15.5-14.7,26.5-28.6,30.9c-16.4,5.2-36,5-51-4.1c-1.6-1-3,1.5-1.4,2.5c14.5,8.8,32.8,9.5,48.9,5.5
				c15.3-3.7,30.1-13.7,34.1-29.8c3.6-14.5-4.7-29.7-17.9-36.1c-14.9-7.2-32.7-3.2-45,7.3c-15,12.8-20.9,32.7-20.9,51.8
				C438.6,350.5,441.5,350.5,441.5,348.7L441.5,348.7z"/>
		</g>
	</g>
	<g>
		<path class="st0" d="M361.8,345.7c0.7-11.5-0.7-23.2-5.2-33.7c-4.5-10.6-12.3-19.9-22.4-25.3c-10.1-5.4-22.7-6.5-33.2-2
			s-18.6,15-19.2,26.5c-0.6,11,5.5,21.7,14.2,28.5c8.7,6.8,19.6,10.1,30.5,11.6C338.5,352.7,351.1,351.5,361.8,345.7"/>
		<g>
			<path d="M363.2,345.7c0.9-17.1-2.7-34.7-13.8-48.2c-10.2-12.4-26.4-19.6-42.4-16.3c-14.5,3-26.5,15.9-26.7,31
				c-0.2,16.2,12.2,29.2,26.3,35.2c17.3,7.4,39.1,8.5,56-0.5c1.6-0.9,0.2-3.4-1.4-2.5c-14.1,7.5-31.2,7.2-46.2,2.9
				c-14.3-4.1-28-13.9-31.2-29.2c-3-14.2,6.5-28.3,19.8-33c14.8-5.1,30.9,0.5,41.4,11.5c12.4,13.1,16.4,31.4,15.4,49
				C360.3,347.5,363.1,347.5,363.2,345.7L363.2,345.7z"/>
		</g>
	</g>
	<g>
		<path class="st1" d="M343.6,390c0.4-5,4.5-9,9.2-10.8c4.7-1.8,9.8-1.7,14.8-1.6c21.8,0.3,43.7,0.7,65.5,1
			c6.2,0.1,12.9,0.4,17.5,4.5c3.3,2.9,4.9,7.3,5,11.6s-1.1,8.6-2.9,12.6c-7.8,17.7-26.4,29.7-45.7,31.2c-19.3,1.5-38.8-7-52.1-21.1
			c-7.3-7.7-12.5-17.6-11.3-28.2"/>
		<g>
			<path d="M345.1,390c1.1-10.4,14.2-11.1,22.1-11c10.6,0.2,21.2,0.3,31.7,0.5c10.6,0.2,21.2,0.3,31.8,0.5
				c8.7,0.1,19.4,0.2,22.7,10.1c2.8,8.5-1.8,18.1-6.7,25c-4.7,6.6-11.1,12-18.3,15.8c-15,7.9-32.5,8.1-48.2,2
				c-17.1-6.7-37.1-23.2-35.1-43.6c0.2-1.8-2.7-1.8-2.9,0c-1.9,19.5,15.3,35.7,31.3,43.7c16.6,8.3,36.1,9.6,53.2,1.9
				c7.9-3.6,15.1-9,20.6-15.8c5.6-7,10.6-16.5,9.7-25.7c-0.4-4.2-2.2-8.4-5.4-11.2c-3.3-2.9-7.5-4.1-11.8-4.5
				c-5.4-0.6-10.8-0.4-16.2-0.5c-6-0.1-12-0.2-18-0.3c-13.5-0.2-27-0.6-40.5-0.6c-9.4,0-21.7,2.6-22.9,13.9
				C342,391.9,344.9,391.8,345.1,390L345.1,390z"/>
		</g>
	</g>
	<g>
		<path d="M356.6,380c2.6,7.1,9,11.3,16,13.4c8.4,2.4,17.7,2.9,26.4,2.6c13.8-0.4,32.3-2.3,40.4-15.3c1-1.6-1.5-3-2.5-1.4
			c-7.3,11.7-24.6,13.4-37,13.8c-7.9,0.3-16-0.1-23.7-1.8c-7-1.5-14.2-5-16.9-12.1C358.7,377.5,356,378.2,356.6,380L356.6,380z"/>
	</g>
	<g>
		<path d="M372,429.7c6.8-7.7,17-12.6,27.4-12.2c10.5,0.4,20.5,6.3,26.3,15c1,1.5,3.5,0.1,2.5-1.4c-6.3-9.4-16.7-15.6-28.1-16.3
			c-11.3-0.7-22.8,4.6-30.2,13C368.7,429.1,370.7,431.1,372,429.7L372,429.7z"/>
	</g>
	<g>
		<path d="M387.3,358c2.6-5.3,8.1-8.8,14.1-8.6c5.6,0.2,11,4,13.1,9.3c0.9,2.3,4.6,1.3,3.7-1c-2.7-6.7-9-11.6-16.4-12
			c-7.3-0.5-14.6,3.9-17.8,10.5C382.9,358.2,386.2,360.2,387.3,358L387.3,358z"/>
	</g>
	<g>
		<circle cx="475.9" cy="326.1" r="23.3"/>
		<circle class="st2" cx="460.3" cy="314.2" r="6.5"/>
	</g>
	<g>
		<circle cx="328.5" cy="323.8" r="23.3"/>
		<circle class="st2" cx="312.8" cy="311.9" r="6.5"/>
	</g>
	<g>
		<path class="st2" d="M359.6,379.4c2.7-0.3,5.5-0.4,7.8-0.3c10.6,0.2,21.2,0.3,31.7,0.5c10.6,0.2,21.2,0.3,31.8,0.5
			c1.8,0,3.7,0.1,5.6,0.2c-7.7,10.9-24.3,12.4-36.4,12.9c-7.9,0.3-16-0.1-23.7-1.7C369.5,389.8,362.3,386.4,359.6,379.4z"/>
		<path class="st3" d="M425.7,432.3c-14.3,6.5-30.6,6.3-45.3,0.6c-2.6-1-5.2-2.2-7.8-3.6c6.8-7.4,16.8-12.1,26.9-11.7
			C410,417.9,419.9,423.7,425.7,432.3z"/>
	</g>
</g>
</svg>
