<?xml version="1.0" encoding="utf-8"?>
<!-- Generator: Adobe Illustrator 25.1.0, SVG Export Plug-In . SVG Version: 6.00 Build 0)  -->
<svg version="1.1" id="Layer_1" xmlns="http://www.w3.org/2000/svg" xmlns:xlink="http://www.w3.org/1999/xlink" x="0px" y="0px"
	 viewBox="0 0 800 800" style="enable-background:new 0 0 800 800;" xml:space="preserve">
<style type="text/css">
	.st0{fill:#FCFCFC;}
	.st1{fill:#FFFFFF;}
	.st2{fill:#F98F8F;}
</style>
<g>
	<g>
		<g>
			<path class="st0" d="M443.9,343.2c-2.5-11.5-1.6-23.8,2.6-34.9c4.2-11,11.7-20.8,21.3-27.7c10-7.2,24-8.9,35.6-4.6
				c7,2.6,12,5.7,16.3,11.9c4.7,6.8,8,14.9,8.3,23.2c0.3,8.3-2.4,16.9-8.3,22.8c-6.8,6.9-16.9,9.5-26.5,10.8
				C476.7,346.9,460,347,443.9,343.2"/>
			<g>
				<path d="M445.1,342.9c-3.5-16.6,0.1-34.1,10.1-47.9c4.5-6.1,10.3-11.9,17-15.6c6.7-3.7,14.6-5.1,22.2-4.2
					c7,0.8,14.6,3.6,19.9,8.4c5.9,5.3,9.8,13.3,11.6,20.9c1.8,7.8,1,16.3-3,23.3c-4,6.9-10.8,11.1-18.2,13.3
					c-9.2,2.8-19.3,3.5-28.9,3.8c-10.6,0.3-21.1-0.5-31.4-2.9c-1.6-0.4-2.2,2.1-0.7,2.4c9.7,2.2,19.7,3.2,29.7,3
					c9.3-0.1,19-0.8,28.1-2.9c7.8-1.8,15.7-5.2,20.9-11.6c5.2-6.4,7.5-14.8,6.9-22.9c-0.6-8.8-4.2-17.4-9.5-24.3
					c-4.6-6-11.4-9.8-18.6-11.8c-7.8-2.2-16.3-1.9-23.9,0.7c-7.7,2.6-14.3,7.8-19.7,13.9c-13.4,14.9-18.8,35.5-14.6,55.1
					C443,345.2,445.4,344.5,445.1,342.9L445.1,342.9z"/>
			</g>
		</g>
		<g>
			<path d="M387.7,349.9c1.6-6,7.6-10.5,13.9-10c6.1,0.4,11.4,5.7,12.1,11.7c0.2,1.6,2.7,1.6,2.5,0c-0.8-7.3-6.8-13.5-14.2-14.2
				c-7.5-0.7-14.8,4.7-16.7,11.8C384.9,350.8,387.3,351.5,387.7,349.9L387.7,349.9z"/>
		</g>
		<g>
			<path d="M469.7,266.9c8.9-6,20-8.6,30.6-6.6c9.9,1.9,19.1,7.5,25.2,15.5c0.8,1.1,2.2,1.6,3.4,0.9c1.1-0.6,1.7-2.3,0.9-3.4
				c-11.1-14.8-30.1-21.8-48.2-17.2c-5.1,1.3-10.1,3.5-14.5,6.5C464.5,264.3,467,268.7,469.7,266.9L469.7,266.9z"/>
		</g>
		<circle cx="473.8" cy="317.1" r="23.2"/>
		<circle class="st0" cx="489.6" cy="306" r="8.5"/>
		<g>
			<path class="st1" d="M365.3,344.3c3.5-11.3,2.1-22.7-1.2-34.1s-8.5-22.6-17.5-30.2c-9.4-8-23.2-10.9-35.1-7.6
				c-7.2,2-12.4,4.7-17.2,10.5c-5.3,6.4-9.2,14.2-10.2,22.4c-1,8.3,2.7,18.8,8,25.2c6.2,7.5,14.4,9.1,23.9,11.2
				C332.3,345.2,348.8,346.7,365.3,344.3"/>
			<g>
				<path d="M366.5,344.6c2.8-9.4,2.5-19.3,0.3-28.9c-1.9-8.5-4.9-17.1-9.4-24.6c-4.2-7-9.9-13.2-17.2-16.9
					c-7.2-3.7-15.5-5.1-23.5-4.1c-7.3,0.9-14.9,3.7-20.3,8.8c-6.1,5.7-10.6,13.7-12.6,21.8c-1.9,7.9-0.7,15.8,2.8,23.2
					c3.3,7.1,8.7,12.5,16.1,15.5c3.6,1.4,7.4,2.3,11.2,3.1c4.8,1.1,9.6,2,14.5,2.7c10,1.4,20.1,2,30.1,1.2c2.4-0.2,4.8-0.5,7.2-0.8
					c1.6-0.2,0.9-2.6-0.7-2.4c-18.3,2.6-36.9,0.4-54.7-4c-7.1-1.8-13.6-4.6-18.1-10.6c-4.4-6-7.2-13.9-6.9-21.4
					c0.4-7.9,4.1-15.7,8.9-21.9c2.2-2.9,4.8-5.6,8-7.5c3-1.9,6.4-3.1,9.8-4.1c7.4-2,15.3-1.7,22.5,0.8c7.5,2.6,13.7,7.6,18.3,13.9
					c5.3,7.3,8.6,15.9,10.9,24.5c2.7,10.2,3.6,20.8,0.6,31.1C363.6,345.5,366,346.2,366.5,344.6L366.5,344.6z"/>
			</g>
		</g>
		<g>
			<path d="M339.7,257.8c-8.3-4.8-18-7-27.6-6.1c-9,0.9-17.3,4.4-24.4,10c-3.9,3.1-7.2,6.8-9.8,11c-1.8,2.7,2.6,5.2,4.3,2.5
				c5.4-8.4,13.9-14.6,23.5-17.3c10.5-2.9,22-1.3,31.5,4.1C339.9,263.8,342.5,259.5,339.7,257.8L339.7,257.8z"/>
		</g>
		<circle cx="317.4" cy="312.9" r="23.2"/>
		<circle class="st0" cx="336.6" cy="303.6" r="8.5"/>
	</g>
	<g>
		<path class="st2" d="M433.2,428.5c-4.5,0.9-9.2,0.4-13.8-0.1c-4.7-0.5-9.4-0.9-14.1-1c-10.5-0.3-21,0.6-31.2,2.6
			c-4.7,0.9-9.9,2.7-14.7,1.6c-0.4-0.1-0.7-0.2-1-0.3c5.7-10.6,15.7-18.6,27.4-21.7c11.6-3.1,23.9-0.9,34,5.5
			C425.2,418.5,429.9,423.1,433.2,428.5z"/>
		<g>
			<path d="M357.8,427.3c-6.8-15.1,1.5-31.5,13.6-41c11.8-9.3,27.8-13.1,42.2-8.2c7.1,2.4,13.3,6.8,17.8,12.8
				c4.5,5.9,7.6,13.2,9.1,20.4c0.8,3.8,1,8-1.1,11.4c-1.9,3-5.2,4.8-8.5,5.6c-4,1-8.2,0.7-12.2,0.3c-4.4-0.5-8.8-0.9-13.2-1.1
				c-9.5-0.3-19.1,0.4-28.4,2.1c-4.7,0.9-9.9,2.8-14.6,1.6c-3.6-0.8-4.7-4.2-5.7-7.3c-0.5-1.5-2.9-0.9-2.4,0.7c1,2.9,2,6.1,4.7,7.9
				c3.3,2.2,7.8,1.7,11.4,1c4.9-0.9,9.8-2,14.7-2.6c4.8-0.6,9.6-0.9,14.4-1c4.8-0.1,9.6,0.1,14.4,0.6c4.8,0.5,9.7,1.3,14.6,0.7
				c7.4-0.8,14.2-5.3,15.1-13.1c0.5-4.1-0.5-8.2-1.7-12.1c-1.2-3.9-2.8-7.7-4.8-11.3c-3.9-7-9.7-12.9-16.9-16.6
				c-14.7-7.6-32.3-5.6-46,3.1c-7.6,4.9-14.2,11.7-17.9,19.9c-3.9,8.6-4.5,18.6-0.5,27.3C356.3,430,358.4,428.7,357.8,427.3
				L357.8,427.3z"/>
		</g>
		<g>
			<path d="M361.2,431.4c5-9.7,14-17,24.5-20.1c10.7-3.2,22.3-1.3,31.7,4.6c5.3,3.3,9.8,7.8,13,13.2c0.8,1.4,3,0.1,2.2-1.3
				c-6.1-10.2-16.6-17.5-28.2-19.8c-11.4-2.3-23.3,0.5-32.7,7.4c-5.3,3.9-9.7,8.9-12.7,14.7C358.3,431.6,360.4,432.9,361.2,431.4
				L361.2,431.4z"/>
		</g>
		<g>
			<path d="M370.8,386.8c17.5,9.2,39,9.4,56.7,0.7c1.4-0.7,0.2-2.9-1.3-2.2c-16.9,8.3-37.5,8-54.2-0.7
				C370.6,383.9,369.4,386.1,370.8,386.8L370.8,386.8z"/>
		</g>
		<path d="M442,414.2c0.6,3.8,0.4,7.7-1.9,10.9c-1.6,2.2-4,3.7-6.5,4.6c-6.1-10.2-16.2-17.6-27.6-20.4c-11.9-2.9-24.3-0.2-34.1,6.9
			c-5.5,3.9-10,9-13.1,15c-0.9-0.9-1.5-2.1-2-3.4c-0.3-0.8-0.6-1.6-0.9-2.4l0-0.1c-4.5-14.8,3.6-30.2,15-39.4
			c12.4-9.9,29.3-13.7,44.3-7.9C429.9,383.8,439.6,398.6,442,414.2z"/>
		<path class="st1" d="M426.2,385.4c-16.6,8.1-36.8,8-53.3-0.3c11.9-8.8,27.7-11.9,41.8-6.6C419,380.1,422.9,382.5,426.2,385.4z"/>
	</g>
</g>
</svg>
