<?xml version="1.0" encoding="utf-8"?>
<!-- Generator: Adobe Illustrator 25.1.0, SVG Export Plug-In . SVG Version: 6.00 Build 0)  -->
<svg version="1.1" id="Layer_1" xmlns="http://www.w3.org/2000/svg" xmlns:xlink="http://www.w3.org/1999/xlink" x="0px" y="0px"
	 viewBox="0 0 800 800" style="enable-background:new 0 0 800 800;" xml:space="preserve">
<style type="text/css">
	.st0{fill:#F9F7F7;}
	.st1{fill:#FFFFFF;}
</style>
<g>
	<g>
		<path d="M367.4,430.7c7.4-9.8,19.6-15.5,31.8-15.9c12.8-0.4,25.3,4.9,34.7,13.4c2.2,2,5.5-1.3,3.3-3.3
			c-10.5-9.5-24.5-15.4-38.8-14.7c-13.7,0.6-26.6,7.2-35,18.1C361.6,430.7,365.6,433,367.4,430.7L367.4,430.7z"/>
	</g>
	<g>
		<path d="M384.4,368.2c2.7-5.8,8.6-10,15-10.2c6.5-0.2,12.6,3.4,15.8,9c1,1.7,3.7,0.2,2.7-1.6c-3.7-6.5-11-10.8-18.5-10.5
			s-14.5,5-17.7,11.7C380.9,368.4,383.6,370,384.4,368.2L384.4,368.2z"/>
	</g>
	<g>
		<g>
			<path class="st0" d="M452,307.8c-4.3,11.5-8.1,27.1-8.5,39.4c0,1.1,0,2.4,0.8,3.2c0.7,0.8,1.8,0.9,2.9,1.1
				c11.6,1.4,23.4,1.4,35,0c9.9-1.2,19.8-3.5,28.4-8.4c8.6-4.9,16-12.6,18.9-22.2c2.1-7,2.8-13.8,0.6-20.8
				c-2-6.2-5.7-12.6-10.7-16.8c-4.9-4.2-13.5-5.6-20-5.1c-6.7,0.5-11.5,2.7-17,6.5c-12.3,8.4-21.6,12.6-30.8,24.4"/>
			<g>
				<path d="M450.5,307.4c-3.2,8.7-5.6,17.6-7.1,26.7c-0.7,4.3-1.3,8.7-1.4,13.1c-0.1,4.2,2.3,5.5,6.2,6c10.6,1.2,21.4,1.2,32,0.1
					c9.5-1,18.9-2.9,27.6-7c15.9-7.4,27.6-23.7,24.9-41.8c-1.3-8.4-6-17.6-12.9-22.8c-6.1-4.7-15.1-5.8-22.5-4.8
					c-9.7,1.3-17.4,7.7-25.4,12.8c-8,5.2-15.5,10.7-21.4,18.3c-1.2,1.6,1,3.8,2.2,2.2c4.6-5.9,10.1-10.7,16.3-14.9
					c3-2,6.1-3.9,9.1-5.9c3.3-2.1,6.5-4.5,9.9-6.3c6.8-3.6,14.8-4.2,22.2-2.3c8.2,2.1,13.4,8.4,16.8,16c7.2,16.3-0.5,34.4-14.9,43.7
					c-14.8,9.5-34.4,11.1-51.5,10.6c-2.7-0.1-5.3-0.2-8-0.4c-1.3-0.1-2.7-0.2-4-0.4c-1.8-0.2-3.5-0.5-3.6-2.6
					c-0.1-4.3,0.6-8.8,1.4-13c1.5-8.9,3.9-17.8,7.1-26.3C454.2,306.3,451.2,305.5,450.5,307.4L450.5,307.4z"/>
			</g>
		</g>
		<g>
			<path d="M440.9,323.9c21-30.4,55.4-49.7,92.3-52c4-0.2,4-6.5,0-6.2c-30.6,1.9-59.9,14.7-81.8,36.1c-5.9,5.8-11.2,12.1-15.9,18.9
				C433.2,324.1,438.6,327.2,440.9,323.9L440.9,323.9z"/>
		</g>
		<circle cx="478.8" cy="321.3" r="23.9"/>
		<circle class="st1" cx="463.6" cy="312.6" r="8.7"/>
	</g>
	<g>
		<g>
			<path class="st0" d="M349.4,306.6c5,11.2,9.8,26.6,10.9,38.8c0.1,1.1,0.2,2.4-0.6,3.3c-0.7,0.8-1.8,1.1-2.8,1.2
				c-11.5,2.1-23.3,2.8-34.9,2.1c-9.9-0.6-19.9-2.3-28.9-6.6c-8.9-4.3-16.8-11.6-20.2-20.9c-2.6-6.9-3.7-13.6-1.8-20.8
				c1.6-6.3,4.9-13,9.6-17.4c4.7-4.5,13.2-6.4,19.6-6.3c6.7,0.1,11.7,2,17.4,5.4c12.8,7.6,22.4,11.2,32.3,22.4"/>
			<g>
				<path d="M348,307.4c3.3,7.6,6,15.4,8,23.4c1,3.8,1.8,7.7,2.3,11.6c0.3,2.1,1.1,4.6-1.1,5.8c-0.8,0.4-2.3,0.4-3.2,0.6
					c-1.4,0.2-2.8,0.4-4.3,0.6c-9.2,1.2-18.5,1.6-27.8,1c-9-0.5-18.1-1.9-26.4-5.6c-14.8-6.5-26.6-21.9-23.5-38.8
					c1.4-7.5,5.4-16.5,12.1-20.6c6.3-3.8,14.8-4.9,21.9-3.3c4.4,1,8.3,3.2,12.2,5.4c3.6,2.1,7.3,4.1,10.9,6.1
					c7.3,4.1,13.9,8.9,19.5,15.1c1.3,1.5,3.5-0.7,2.2-2.2c-5.5-6.2-12-11-19.2-15.1c-3.8-2.2-7.7-4.3-11.5-6.5s-7.5-4.4-11.8-5.6
					c-7.6-2.2-16.4-1.3-23.6,2c-7.7,3.6-12.3,11.6-14.8,19.4c-5.6,17.4,4.1,35.7,19.3,44.3c8.2,4.7,17.6,6.8,26.9,7.8
					c10.7,1.1,21.5,0.9,32.1-0.4c2.8-0.3,5.6-0.7,8.3-1.3c1.9-0.4,3.8-0.9,4.6-2.8c0.8-1.9,0.3-4.2,0-6.1c-0.3-2.4-0.7-4.7-1.2-7.1
					c-2.1-10.2-5.4-20.2-9.6-29.7C349.9,304,347.2,305.6,348,307.4L348,307.4z"/>
			</g>
		</g>
		<g>
			<path d="M366.2,318.1c-18.3-23.3-44.7-39.7-73.8-45.8c-8.7-1.8-17.6-2.7-26.5-2.7c-4,0-4,6.2,0,6.2c37.4,0,72.8,17.3,95.9,46.6
				C364.3,325.6,368.7,321.2,366.2,318.1L366.2,318.1z"/>
		</g>
		<circle cx="323.5" cy="321.8" r="23.9"/>
		<circle class="st1" cx="338.1" cy="312.1" r="8.7"/>
	</g>
</g>
</svg>
