<?xml version="1.0" encoding="utf-8"?>
<!-- Generator: Adobe Illustrator 25.1.0, SVG Export Plug-In . SVG Version: 6.00 Build 0)  -->
<svg version="1.1" id="Layer_1" xmlns="http://www.w3.org/2000/svg" xmlns:xlink="http://www.w3.org/1999/xlink" x="0px" y="0px"
	 viewBox="0 0 800 800" style="enable-background:new 0 0 800 800;" xml:space="preserve">
<style type="text/css">
	.st0{fill:#FCFCFC;}
	.st1{fill:#F98F8F;}
	.st2{fill:#8DB0F7;}
</style>
<g>
	<path d="M449.7,439.1c-3.5,1.6-7.1,2.2-10.7,2.2c-8.3-0.1-16.8-3.6-24.7-5.7c-19.2-5.1-38.3,2.3-57.5,3.6c-1.6,0.1-3.2,0.2-4.9,0.2
		l-16.6-3.4c-2.6-2.1-4.1-5.2-5.6-8.2c-1.5-3.1-2.4-6.4-2.6-9.8l3.8-19c3.2-6.9,8.2-13,14.3-17.5c1.3-1,2.7-1.9,4.1-2.7
		c9.3-5.5,20.2-7.9,30.8-9.2c6.8-0.9,13.7-1.2,20.6-1.4c7-0.2,14.1-0.4,21-0.1c0.5,0,1,0,1.5,0.1l22.1,4.5c3.8,1.6,7.4,3.7,10.5,6.6
		c4,3.6,7.2,8.2,8.7,13.5c1.6,5.8,1.3,11.9,0.3,17.8C463.2,421,460.4,434.2,449.7,439.1z"/>
	<path class="st0" d="M442,371.3l-1.3,4.8c-4.2,3.1-8.9,6.1-13.8,8.3c-23,10.2-48.9,6.5-70-7.1c-0.1-0.1,1.9-1,1.8-1.1
		c-2.5,1.1,1.4-1.4-0.9,0.1l-8.4,2.5c9.3-5.5,20.2-7.9,30.8-9.2c6.8-0.9,13.7-1.2,20.6-1.4c7-0.2,14.1-0.4,21-0.1c0.5,0,1,0,1.5,0.1
		c0.9,0,1.8,0.1,2.7,0.2c0.9,0,1.7,0.1,2.6,0.2c1.1,0.1,2.3,0.3,3.4,0.4c1.7,0.3,3.4,0.6,5,1C438.7,370.3,440.3,370.7,442,371.3z"/>
	<path class="st1" d="M439.4,439.7l-0.3,1.6c-8.3-0.1-16.8-3.6-24.7-5.7c-19.2-5.1-38.3,2.3-57.5,3.6l-9.7-2l4.4,0.2
		c1.4,0.1,1.5,0.4,2.9,0.4c0.6,0-0.3-0.4,0.3-0.4c1.9-6.8,5.7-12.2,11.4-16.3c11.4-8,25.2-8.5,38.5-5.8
		c12.7,2.6,24.4,10.1,27.2,23.5C433.9,439.2,437.4,439.7,439.4,439.7z"/>
	<g>
		<g>
			<path class="st2" d="M277.6,324.5c-13.2-5.4-31.6-3.7-42.2,5.9c-3.1,2.7-5.8,6.9-4.3,10.7c1,2.3,3.5,3.8,6,4.1s5.1-0.4,7.4-1.5
				c6-2.7,10.7-7.5,15.9-11.6c5.1-4.1,11.3-7.7,17.9-7.2"/>
			<g>
				<path d="M277.8,323.8c-12.6-5-29-4.1-40.2,3.9c-4.5,3.2-10.9,10.4-5.6,15.8c5.9,5.8,15,0.2,20.2-3.7c7.8-6,15.3-14.7,26.1-14.2
					c0.9,0,0.9-1.4,0-1.4c-6.8-0.3-12.8,3.1-18,7.2c-5.9,4.6-11.6,11-19.1,12.8c-4.4,1-10.5-0.8-9.6-6.4c0.6-3.8,4-6.9,7-9
					c5.3-3.7,11.6-5.7,18-6.4c7-0.7,14.3,0.1,20.8,2.7C278.2,325.5,278.6,324.2,277.8,323.8L277.8,323.8z"/>
			</g>
		</g>
		<g>
			<g>
				<path d="M470,243.3c17.2-7.5,37.5-0.5,46.9,15.5c2.3,3.8,8.3,0.4,6-3.5c-5.2-8.8-13.3-15.6-22.9-19.2c-10.9-4.1-23-3.3-33.6,1.3
					C462.4,239,465.9,245,470,243.3L470,243.3z"/>
			</g>
			<g>
				<path d="M288.8,246.2c12.3-14.7,33.3-18.1,49.5-7.8c3.8,2.4,7.3-3.6,3.5-6c-18.6-11.9-43.7-8.2-57.9,8.9
					C281.1,244.7,286,249.7,288.8,246.2L288.8,246.2z"/>
			</g>
			<g>
				<path d="M390.8,352.1c2.4-5.6,8.4-9.4,14.5-9c6,0.4,11.3,4.8,13,10.5c0.5,1.7,3.2,1,2.7-0.7c-2.1-6.9-8.5-12-15.7-12.5
					c-7.4-0.5-14.4,4.3-17.2,11C387.4,353,390.1,353.7,390.8,352.1L390.8,352.1z"/>
			</g>
			<g>
				<path d="M445.6,321.8c6-10.5,17.9-17.1,30-16.1c11.7,0.9,22.5,9.3,26.6,20.2c1.3,3.3,6.6,1.9,5.4-1.5
					c-5-13.1-17.1-22.8-31.1-24.2c-14.3-1.5-28.6,6.4-35.7,18.8C439,322.2,443.8,325,445.6,321.8L445.6,321.8z"/>
			</g>
			<g>
				<path class="st2" d="M504.2,336c-4.4,9.3-7.8,19.5-8.9,29.7c-0.2,2.3-0.3,4.9,1.3,6.7c2.1,2.3,6.1,1.6,8.5-0.4
					c4.2-3.5,5.2-9.5,5-15c-0.2-7.6-2.2-15-5.6-21.8"/>
				<g>
					<path d="M503.6,335.6c-2.9,6.2-5.4,12.7-7.1,19.3c-0.8,3.3-1.4,6.6-1.8,10c-0.3,2.4-0.5,5.2,1,7.3c2.9,4.1,8.8,1.8,11.5-1.4
						c3.3-4,3.9-9.6,3.7-14.6c-0.3-7.5-2.3-14.8-5.7-21.5c-0.4-0.8-1.6-0.1-1.2,0.7c3.3,6.5,5.2,13.5,5.5,20.8
						c0.2,5.7-0.6,13.8-6.7,16.3c-1.4,0.6-3.2,0.8-4.6,0.1c-1.8-0.9-2.2-2.9-2.2-4.7c-0.1-3.5,0.7-7.1,1.5-10.5
						c1.6-7.3,4.2-14.3,7.4-21C505.2,335.5,504,334.8,503.6,335.6L503.6,335.6z"/>
				</g>
			</g>
			<g>
				<path class="st2" d="M533.3,348.9c14.5-4.6,33.5-0.3,42.9,11.6c3.1,3.9,5.4,9.6,2.7,13.8c-2.8,4.5-9.7,4.4-14.2,1.6
					c-4.5-2.8-7.3-7.5-10.7-11.6c-5.6-6.8-12.9-12.2-21-15.4"/>
				<g>
					<path d="M533.4,349.6c13.5-4.1,30.2-1.1,40.2,9.1c2.8,2.8,5.4,6.5,5.7,10.6c0.4,4.5-2.9,7.6-7.2,7.9c-8.5,0.5-13.1-8-17.8-13.7
						c-5.6-6.8-12.9-12-21.1-15.3c-0.8-0.3-1.2,1-0.4,1.3c9.6,3.9,17.1,10.4,23.3,18.5c4.4,5.8,10.4,12.4,18.5,10.1
						c8.3-2.3,6.7-11.7,2.8-17.2c-4.4-6.1-11.1-10.2-18.1-12.4c-8.4-2.7-17.7-2.9-26.2-0.3C532.2,348.5,532.6,349.8,533.4,349.6
						L533.4,349.6z"/>
				</g>
			</g>
			<g>
				<path d="M288.6,318.2c7.3-10.3,19.6-16.8,32.2-16.6c12.7,0.2,24.8,7,31.8,17.5c2,3,6.8,0.2,4.8-2.8c-8.1-12.1-21.9-20-36.6-20.2
					c-14.7-0.2-28.6,7.5-37,19.4C281.8,318.3,286.6,321.1,288.6,318.2L288.6,318.2z"/>
			</g>
		</g>
	</g>
	<g>
		<path d="M465,410.4c1-5.9,1.3-12-0.3-17.8c-1.5-5.3-4.7-9.9-8.7-13.5c-3.2-2.9-6.7-5-10.5-6.6c-1.1-0.5-2.3-0.9-3.5-1.3
			c-1.6-0.6-3.3-1-4.9-1.4c-1.7-0.4-3.3-0.7-5-1c-1.1-0.2-2.3-0.3-3.4-0.4c-0.9-0.1-1.7-0.2-2.6-0.2c-0.9-0.1-1.8-0.1-2.7-0.2
			c-0.5,0-1-0.1-1.5-0.1c-7-0.2-14-0.1-21,0.1c-6.9,0.2-13.7,0.5-20.6,1.4c-10.6,1.3-21.5,3.7-30.8,9.2c-1.4,0.8-2.8,1.7-4.1,2.7
			c-6.1,4.5-11.1,10.6-14.3,17.5c-1.7,3.7-3,7.7-3.6,11.7c-0.3,2.4-0.5,4.8-0.3,7.3c0.2,3.4,1.1,6.7,2.6,9.8c1.5,3,3,6.2,5.6,8.2
			c0.5,0.4,1,0.8,1.6,1.1c2,1.1,4.4,1.6,6.7,1.8c0.1,0,0.2,0,0.3,0c0,0,0.1,0,0.1,0c2.7,0.3,5.4,0.5,8,0.4c1.6,0,3.2-0.1,4.9-0.2
			c19.2-1.3,38.2-8.6,57.5-3.6c7.9,2.1,16.4,5.6,24.7,5.7c3.6,0.1,7.2-0.5,10.7-2.2C460.4,434.2,463.2,421,465,410.4z M459.5,421.9
			c-1.6,5.1-4,10.3-8.6,13.4c-3.5,2.4-7.4,3.2-11.3,3.3c-1.9,0-3.9-0.2-5.8-0.5c-1-0.2-2-0.4-3-0.6c-4.4-1-8.7-2.5-12.7-3.7
			c-5.7-1.7-11.4-2.7-17.3-2.8c-5.5-0.1-10.9,0.5-16.3,1.4c-9.4,1.4-18.8,3.6-28.3,4.1c-1,0.1-2,0.1-2.9,0.1c-0.6,0-1.2,0-1.8,0
			c-1.4,0-2.7,0-4.1-0.1c-1.1-0.1-2.1-0.2-3.2-0.3c-0.2,0-0.4-0.1-0.6-0.1c-0.1,0-0.3,0-0.4-0.1c-3.8-0.6-6.7-2-8.7-5.4
			c-2.6-4.4-4.4-9.1-4.5-14.4c-0.2-11.2,5.6-22.4,13.8-29.8c1.6-1.4,3.3-2.7,5-3.9c2.3-1.5,4.7-2.8,7.2-3.9c1-0.5,2-0.9,3.1-1.3
			c5.4-2.1,11-3.4,16.6-4.3c12.7-2,25.6-2.2,38.3-2.3c9-0.1,18.3,0.2,26.9,3c0.2,0.1,0.5,0.1,0.7,0.2c0.8,0.3,1.6,0.6,2.4,0.9
			c1.9,0.8,3.8,1.7,5.6,2.8c4.4,2.7,8.2,6.4,10.7,10.9c2.8,5.1,3.3,11.1,2.8,16.8C462.3,411,461.1,416.6,459.5,421.9z"/>
	</g>
	<g>
		<path d="M431.2,439.1c-0.1-0.6-0.3-1.1-0.4-1.7c-1.6-5.6-5.2-10.4-9.8-14c-10.3-7.9-25.4-9.3-37.9-7.4
			c-11.6,1.8-23.2,8.7-26.9,20.3c-0.1,0.4-0.2,0.8-0.3,1.1c-0.2,0.9-1,1.2-1.7,1s-1.2-0.7-1-1.6c0-0.1,0.1-0.3,0.1-0.4
			c1.9-6.8,6.4-12.5,12.1-16.6c11.4-8,27.1-8.8,40.4-6.1c12.7,2.6,25.2,10.8,28,24.1c0,0.1,0,0.1,0.1,0.2
			C434.2,439.9,431.5,440.9,431.2,439.1z"/>
	</g>
	<g>
		<path d="M444,374.8c-0.1,0-0.1,0.1-0.2,0.1c-1,0.8-2,1.6-3.1,2.4c-4.2,3.1-8.8,5.7-13.6,7.9c-23,10.2-49.9,7.3-71-6.3
			c-0.1-0.1-0.2-0.2-0.3-0.3c-0.9-1.1,0.2-3.1,1.6-2.2c0.5,0.3,1,0.6,1.5,0.9c5.5,3.4,11.4,6.1,17.6,8c11.6,3.6,23.8,4.3,35.7,1.8
			c10.4-2.2,20.1-6.8,28.5-13.3c0.3-0.2,0.6-0.4,0.8-0.6c0.3-0.2,0.6-0.4,0.9-0.7C443.8,371.3,445.4,373.7,444,374.8z"/>
	</g>
</g>
</svg>
